G04 #@! TF.GenerationSoftware,KiCad,Pcbnew,8.0.5*
G04 #@! TF.CreationDate,2024-09-22T17:44:19+03:00*
G04 #@! TF.ProjectId,lichuan-lc10,6c696368-7561-46e2-9d6c-6331302e6b69,rev?*
G04 #@! TF.SameCoordinates,Original*
G04 #@! TF.FileFunction,Soldermask,Top*
G04 #@! TF.FilePolarity,Negative*
%FSLAX46Y46*%
G04 Gerber Fmt 4.6, Leading zero omitted, Abs format (unit mm)*
G04 Created by KiCad (PCBNEW 8.0.5) date 2024-09-22 17:44:19*
%MOMM*%
%LPD*%
G01*
G04 APERTURE LIST*
%ADD10R,1.700000X1.700000*%
%ADD11O,1.700000X1.700000*%
%ADD12C,3.250000*%
%ADD13C,1.500000*%
%ADD14C,2.600000*%
%ADD15C,1.800000*%
%ADD16C,4.000000*%
%ADD17R,1.600000X1.600000*%
%ADD18C,1.600000*%
G04 APERTURE END LIST*
D10*
G04 #@! TO.C,J4*
X105500000Y-63000000D03*
D11*
X105500000Y-60460000D03*
X105500000Y-57920000D03*
G04 #@! TD*
D10*
G04 #@! TO.C,J5*
X105250000Y-18975000D03*
D11*
X105250000Y-21515000D03*
G04 #@! TD*
D12*
G04 #@! TO.C,J1*
X134780000Y3130000D03*
X122080000Y3130000D03*
D13*
X124860000Y590000D03*
X125880000Y-1190000D03*
X126900000Y590000D03*
X127920000Y-1190000D03*
X128940000Y590000D03*
X129960000Y-1190000D03*
X130980000Y590000D03*
X132000000Y-1190000D03*
X121570000Y-6000000D03*
X123860000Y-6000000D03*
X133000000Y-6000000D03*
X135290000Y-6000000D03*
D14*
X136560000Y-430000D03*
X120300000Y-430000D03*
G04 #@! TD*
D15*
G04 #@! TO.C,J3*
X104650000Y-28500000D03*
X109750000Y-32000000D03*
X104650000Y-35500000D03*
X109750000Y-39000000D03*
X104650000Y-42500000D03*
X109750000Y-46000000D03*
X104650000Y-49500000D03*
X109750000Y-53000000D03*
G04 #@! TD*
D16*
G04 #@! TO.C,U1*
X127829669Y-65300000D03*
X127829669Y-18200000D03*
D17*
X126409669Y-57275000D03*
D18*
X126409669Y-54985000D03*
X126409669Y-52695000D03*
X126409669Y-50405000D03*
X126409669Y-48115000D03*
X126409669Y-45825000D03*
X126409669Y-43535000D03*
X126409669Y-41245000D03*
X126409669Y-38955000D03*
X126409669Y-36665000D03*
X126409669Y-34375000D03*
X126409669Y-32085000D03*
X126409669Y-29795000D03*
X126409669Y-27505000D03*
X126409669Y-25215000D03*
X128389669Y-58420000D03*
X128389669Y-56130000D03*
X128389669Y-53840000D03*
X128389669Y-51550000D03*
X128389669Y-49260000D03*
X128389669Y-46970000D03*
X128389669Y-44680000D03*
X128389669Y-42390000D03*
X128389669Y-40100000D03*
X128389669Y-37810000D03*
X128389669Y-35520000D03*
X128389669Y-33230000D03*
X128389669Y-30940000D03*
X128389669Y-28650000D03*
X128389669Y-26360000D03*
X130369669Y-57275000D03*
X130369669Y-54985000D03*
X130369669Y-52695000D03*
X130369669Y-50405000D03*
X130369669Y-48115000D03*
X130369669Y-45825000D03*
X130369669Y-43535000D03*
X130369669Y-41245000D03*
X130369669Y-38955000D03*
X130369669Y-36665000D03*
X130369669Y-34375000D03*
X130369669Y-32085000D03*
X130369669Y-29795000D03*
X130369669Y-27505000D03*
G04 #@! TD*
D12*
G04 #@! TO.C,J2*
X114820000Y3040000D03*
X102120000Y3040000D03*
D13*
X104900000Y500000D03*
X105920000Y-1280000D03*
X106940000Y500000D03*
X107960000Y-1280000D03*
X108980000Y500000D03*
X110000000Y-1280000D03*
X111020000Y500000D03*
X112040000Y-1280000D03*
X101610000Y-6090000D03*
X103900000Y-6090000D03*
X113040000Y-6090000D03*
X115330000Y-6090000D03*
D14*
X116600000Y-520000D03*
X100340000Y-520000D03*
G04 #@! TD*
M02*
