G04 #@! TF.GenerationSoftware,KiCad,Pcbnew,8.0.4*
G04 #@! TF.CreationDate,2024-08-29T22:42:54+03:00*
G04 #@! TF.ProjectId,lichuan-lc10,6c696368-7561-46e2-9d6c-6331302e6b69,rev?*
G04 #@! TF.SameCoordinates,Original*
G04 #@! TF.FileFunction,Copper,L1,Top*
G04 #@! TF.FilePolarity,Positive*
%FSLAX46Y46*%
G04 Gerber Fmt 4.6, Leading zero omitted, Abs format (unit mm)*
G04 Created by KiCad (PCBNEW 8.0.4) date 2024-08-29 22:42:54*
%MOMM*%
%LPD*%
G01*
G04 APERTURE LIST*
G04 #@! TA.AperFunction,ComponentPad*
%ADD10R,1.700000X1.700000*%
G04 #@! TD*
G04 #@! TA.AperFunction,ComponentPad*
%ADD11O,1.700000X1.700000*%
G04 #@! TD*
G04 #@! TA.AperFunction,ComponentPad*
%ADD12C,1.500000*%
G04 #@! TD*
G04 #@! TA.AperFunction,ComponentPad*
%ADD13C,2.600000*%
G04 #@! TD*
G04 #@! TA.AperFunction,ComponentPad*
%ADD14C,1.800000*%
G04 #@! TD*
G04 #@! TA.AperFunction,ComponentPad*
%ADD15C,4.000000*%
G04 #@! TD*
G04 #@! TA.AperFunction,ComponentPad*
%ADD16R,1.600000X1.600000*%
G04 #@! TD*
G04 #@! TA.AperFunction,ComponentPad*
%ADD17C,1.600000*%
G04 #@! TD*
G04 #@! TA.AperFunction,ViaPad*
%ADD18C,0.600000*%
G04 #@! TD*
G04 #@! TA.AperFunction,Conductor*
%ADD19C,0.200000*%
G04 #@! TD*
G04 APERTURE END LIST*
D10*
G04 #@! TO.P,J4,1,Pin_1*
G04 #@! TO.N,/AI1*
X105500000Y-63000000D03*
D11*
G04 #@! TO.P,J4,2,Pin_2*
G04 #@! TO.N,/AI2*
X105500000Y-60460000D03*
G04 #@! TO.P,J4,3,Pin_3*
G04 #@! TO.N,/AGND*
X105500000Y-57920000D03*
G04 #@! TD*
D10*
G04 #@! TO.P,J5,1,Pin_1*
G04 #@! TO.N,/+24VO*
X105250000Y-18975000D03*
D11*
G04 #@! TO.P,J5,2,Pin_2*
G04 #@! TO.N,/COM-*
X105250000Y-21515000D03*
G04 #@! TD*
D12*
G04 #@! TO.P,J1,1*
G04 #@! TO.N,/STEP_P*
X124860000Y590000D03*
G04 #@! TO.P,J1,2*
G04 #@! TO.N,/STEP_N*
X125880000Y-1190000D03*
G04 #@! TO.P,J1,3*
G04 #@! TO.N,/DIR_P*
X126900000Y590000D03*
G04 #@! TO.P,J1,4*
G04 #@! TO.N,unconnected-(J1-Pad4)*
X127920000Y-1190000D03*
G04 #@! TO.P,J1,5*
G04 #@! TO.N,unconnected-(J1-Pad5)*
X128940000Y590000D03*
G04 #@! TO.P,J1,6*
G04 #@! TO.N,/DIR_N*
X129960000Y-1190000D03*
G04 #@! TO.P,J1,7*
G04 #@! TO.N,unconnected-(J1-Pad7)*
X130980000Y590000D03*
G04 #@! TO.P,J1,8*
G04 #@! TO.N,/SD_GND*
X132000000Y-1190000D03*
G04 #@! TO.P,J1,9*
G04 #@! TO.N,unconnected-(J1-Pad9)*
X121570000Y-6000000D03*
G04 #@! TO.P,J1,10*
G04 #@! TO.N,unconnected-(J1-Pad10)*
X123860000Y-6000000D03*
G04 #@! TO.P,J1,11*
G04 #@! TO.N,unconnected-(J1-Pad11)*
X133000000Y-6000000D03*
G04 #@! TO.P,J1,12*
G04 #@! TO.N,unconnected-(J1-Pad12)*
X135290000Y-6000000D03*
D13*
G04 #@! TO.P,J1,SH*
G04 #@! TO.N,Net-(JP1-A)*
X136560000Y-430000D03*
X120300000Y-430000D03*
G04 #@! TD*
D14*
G04 #@! TO.P,J3,1,Pin_1*
G04 #@! TO.N,/DO_BRAKE*
X104650000Y-28500000D03*
G04 #@! TO.P,J3,2,Pin_2*
G04 #@! TO.N,/DI_COM*
X109750000Y-32000000D03*
G04 #@! TO.P,J3,3,Pin_3*
G04 #@! TO.N,/DI_SON*
X104650000Y-35500000D03*
G04 #@! TO.P,J3,4,Pin_4*
G04 #@! TO.N,/DO_RDY*
X109750000Y-39000000D03*
G04 #@! TO.P,J3,5,Pin_5*
G04 #@! TO.N,/DO_IN_POS*
X104650000Y-42500000D03*
G04 #@! TO.P,J3,6,Pin_6*
G04 #@! TO.N,/DO_COM*
X109750000Y-46000000D03*
G04 #@! TO.P,J3,7,Pin_7*
G04 #@! TO.N,/DI_ESTOP*
X104650000Y-49500000D03*
G04 #@! TO.P,J3,8,Pin_8*
G04 #@! TO.N,/DO_FAULT*
X109750000Y-53000000D03*
G04 #@! TD*
D15*
G04 #@! TO.P,U1,0*
G04 #@! TO.N,N/C*
X127829669Y-65300000D03*
X127829669Y-18200000D03*
D16*
G04 #@! TO.P,U1,1,DOxB*
G04 #@! TO.N,/DO_COM*
X126409669Y-57275000D03*
D17*
G04 #@! TO.P,U1,2,DO4A/FAULT*
G04 #@! TO.N,/DO_FAULT*
X126409669Y-54985000D03*
G04 #@! TO.P,U1,3,DO3B*
G04 #@! TO.N,/DO_COM*
X126409669Y-52695000D03*
G04 #@! TO.P,U1,4,DO3A/ZERO_VEL*
G04 #@! TO.N,unconnected-(U1-DO3A{slash}ZERO_VEL-Pad4)*
X126409669Y-50405000D03*
G04 #@! TO.P,U1,5,DO2B*
G04 #@! TO.N,/DO_COM*
X126409669Y-48115000D03*
G04 #@! TO.P,U1,6,DO2A/IN_POS*
G04 #@! TO.N,/DO_IN_POS*
X126409669Y-45825000D03*
G04 #@! TO.P,U1,7,DO1B*
G04 #@! TO.N,/DO_COM*
X126409669Y-43535000D03*
G04 #@! TO.P,U1,8,DO1A/RDY*
G04 #@! TO.N,/DO_RDY*
X126409669Y-41245000D03*
G04 #@! TO.P,U1,9,DO5B*
G04 #@! TO.N,/DO_COM*
X126409669Y-38955000D03*
G04 #@! TO.P,U1,10,DICOM*
G04 #@! TO.N,/DI_COM*
X126409669Y-36665000D03*
G04 #@! TO.P,U1,11,COM-*
G04 #@! TO.N,/COM-*
X126409669Y-34375000D03*
G04 #@! TO.P,U1,12,COM-*
X126409669Y-32085000D03*
G04 #@! TO.P,U1,13,OA-*
G04 #@! TO.N,/ENC_A_N*
X126409669Y-29795000D03*
G04 #@! TO.P,U1,14,OB-*
G04 #@! TO.N,/ENC_B_N*
X126409669Y-27505000D03*
G04 #@! TO.P,U1,15,OZ-*
G04 #@! TO.N,/ENC_Z_N*
X126409669Y-25215000D03*
G04 #@! TO.P,U1,16,AGND*
G04 #@! TO.N,/AGND*
X128389669Y-58420000D03*
G04 #@! TO.P,U1,17,AI2*
G04 #@! TO.N,/AI2*
X128389669Y-56130000D03*
G04 #@! TO.P,U1,18,AGND*
G04 #@! TO.N,/AGND*
X128389669Y-53840000D03*
G04 #@! TO.P,U1,19,AI1*
G04 #@! TO.N,/AI1*
X128389669Y-51550000D03*
G04 #@! TO.P,U1,20,GND*
G04 #@! TO.N,/ENC_GND*
X128389669Y-49260000D03*
G04 #@! TO.P,U1,21,DI4/ALM_RST*
G04 #@! TO.N,unconnected-(U1-DI4{slash}ALM_RST-Pad21)*
X128389669Y-46970000D03*
G04 #@! TO.P,U1,22,DI3/LIM-*
G04 #@! TO.N,unconnected-(U1-DI3{slash}LIM--Pad22)*
X128389669Y-44680000D03*
G04 #@! TO.P,U1,23,DI2/LIM+*
G04 #@! TO.N,unconnected-(U1-DI2{slash}LIM+-Pad23)*
X128389669Y-42390000D03*
G04 #@! TO.P,U1,24,DI1/SON*
G04 #@! TO.N,/DI_SON*
X128389669Y-40100000D03*
G04 #@! TO.P,U1,25,DO5A/HOME*
G04 #@! TO.N,unconnected-(U1-DO5A{slash}HOME-Pad25)*
X128389669Y-37810000D03*
G04 #@! TO.P,U1,26,DO6B*
G04 #@! TO.N,/DO_COM*
X128389669Y-35520000D03*
G04 #@! TO.P,U1,27,DO6A/BRAKE*
G04 #@! TO.N,/DO_BRAKE*
X128389669Y-33230000D03*
G04 #@! TO.P,U1,28,OA+*
G04 #@! TO.N,/ENC_A_P*
X128389669Y-30940000D03*
G04 #@! TO.P,U1,29,OB+*
G04 #@! TO.N,/ENC_B_P*
X128389669Y-28650000D03*
G04 #@! TO.P,U1,30,OZ+*
G04 #@! TO.N,/ENC_Z_P*
X128389669Y-26360000D03*
G04 #@! TO.P,U1,31,DI7/HOME_SW*
G04 #@! TO.N,unconnected-(U1-DI7{slash}HOME_SW-Pad31)*
X130369669Y-57275000D03*
G04 #@! TO.P,U1,32,DI6/ESTOP*
G04 #@! TO.N,/DI_ESTOP*
X130369669Y-54985000D03*
G04 #@! TO.P,U1,33,DI5/SPEED_DIR*
G04 #@! TO.N,unconnected-(U1-DI5{slash}SPEED_DIR-Pad33)*
X130369669Y-52695000D03*
G04 #@! TO.P,U1,34*
G04 #@! TO.N,unconnected-(U1-Pad34)*
X130369669Y-50405000D03*
G04 #@! TO.P,U1,35*
G04 #@! TO.N,unconnected-(U1-Pad35)*
X130369669Y-48115000D03*
G04 #@! TO.P,U1,36,CZ-*
G04 #@! TO.N,unconnected-(U1-CZ--Pad36)*
X130369669Y-45825000D03*
G04 #@! TO.P,U1,37,CZ+*
G04 #@! TO.N,unconnected-(U1-CZ+-Pad37)*
X130369669Y-43535000D03*
G04 #@! TO.P,U1,38,OPC*
G04 #@! TO.N,Net-(JP2-A)*
X130369669Y-41245000D03*
G04 #@! TO.P,U1,39,DIR-*
G04 #@! TO.N,/DIR_N*
X130369669Y-38955000D03*
G04 #@! TO.P,U1,40,DIR+*
G04 #@! TO.N,/DIR_P*
X130369669Y-36665000D03*
G04 #@! TO.P,U1,41,PUL-*
G04 #@! TO.N,/STEP_N*
X130369669Y-34375000D03*
G04 #@! TO.P,U1,42,PUL+*
G04 #@! TO.N,/STEP_P*
X130369669Y-32085000D03*
G04 #@! TO.P,U1,43,DI8/HOMING_START*
G04 #@! TO.N,unconnected-(U1-DI8{slash}HOMING_START-Pad43)*
X130369669Y-29795000D03*
G04 #@! TO.P,U1,44,+24VO*
G04 #@! TO.N,/+24VO*
X130369669Y-27505000D03*
G04 #@! TD*
D12*
G04 #@! TO.P,J2,1*
G04 #@! TO.N,/ENC_A_P*
X104900000Y500000D03*
G04 #@! TO.P,J2,2*
G04 #@! TO.N,/ENC_A_N*
X105920000Y-1280000D03*
G04 #@! TO.P,J2,3*
G04 #@! TO.N,/ENC_B_P*
X106940000Y500000D03*
G04 #@! TO.P,J2,4*
G04 #@! TO.N,/ENC_Z_P*
X107960000Y-1280000D03*
G04 #@! TO.P,J2,5*
G04 #@! TO.N,/ENC_Z_N*
X108980000Y500000D03*
G04 #@! TO.P,J2,6*
G04 #@! TO.N,/ENC_B_N*
X110000000Y-1280000D03*
G04 #@! TO.P,J2,7*
G04 #@! TO.N,unconnected-(J2-Pad7)*
X111020000Y500000D03*
G04 #@! TO.P,J2,8*
G04 #@! TO.N,/ENC_GND*
X112040000Y-1280000D03*
G04 #@! TO.P,J2,9*
G04 #@! TO.N,unconnected-(J2-Pad9)*
X101610000Y-6090000D03*
G04 #@! TO.P,J2,10*
G04 #@! TO.N,unconnected-(J2-Pad10)*
X103900000Y-6090000D03*
G04 #@! TO.P,J2,11*
G04 #@! TO.N,unconnected-(J2-Pad11)*
X113040000Y-6090000D03*
G04 #@! TO.P,J2,12*
G04 #@! TO.N,unconnected-(J2-Pad12)*
X115330000Y-6090000D03*
D13*
G04 #@! TO.P,J2,SH*
G04 #@! TO.N,Net-(JP3-A)*
X116600000Y-520000D03*
X100340000Y-520000D03*
G04 #@! TD*
D18*
G04 #@! TO.N,/DIR_P*
X127250000Y-4000000D03*
G04 #@! TO.N,/ENC_GND*
X132250000Y-39000000D03*
X114250000Y-2500000D03*
G04 #@! TO.N,/+24VO*
X121750000Y-25250000D03*
G04 #@! TD*
D19*
G04 #@! TO.N,/DIR_P*
X133750000Y-33284669D02*
X133750000Y-16500000D01*
X129500000Y-6250000D02*
X127250000Y-4000000D01*
X129500000Y-12250000D02*
X129500000Y-6250000D01*
X130369669Y-36665000D02*
X133750000Y-33284669D01*
X133750000Y-16500000D02*
X129500000Y-12250000D01*
G04 #@! TO.N,/STEP_N*
X132500000Y-18250000D02*
X132500000Y-32244669D01*
X132500000Y-32244669D02*
X130369669Y-34375000D01*
X125880000Y-11630000D02*
X132500000Y-18250000D01*
X125880000Y-1190000D02*
X125880000Y-11630000D01*
G04 #@! TO.N,/DIR_N*
X129960000Y-11960000D02*
X129960000Y-1190000D01*
X134250000Y-35074669D02*
X134250000Y-16250000D01*
X134250000Y-16250000D02*
X129960000Y-11960000D01*
X130369669Y-38955000D02*
X134250000Y-35074669D01*
G04 #@! TO.N,/STEP_P*
X130369669Y-32085000D02*
X132000000Y-30454669D01*
X125480000Y-5500000D02*
X124110000Y-4130000D01*
X132000000Y-30454669D02*
X132000000Y-18315686D01*
X125480000Y-11795686D02*
X125480000Y-5500000D01*
X124110000Y-160000D02*
X124860000Y590000D01*
X124110000Y-4130000D02*
X124110000Y-160000D01*
X132000000Y-18315686D02*
X125480000Y-11795686D01*
G04 #@! TO.N,/ENC_GND*
X132250000Y-47880304D02*
X130825304Y-49305000D01*
X128434669Y-49305000D02*
X128389669Y-49260000D01*
X130825304Y-49305000D02*
X128434669Y-49305000D01*
X114250000Y-2500000D02*
X113260000Y-2500000D01*
X113260000Y-2500000D02*
X112040000Y-1280000D01*
X132250000Y-39000000D02*
X132250000Y-47880304D01*
G04 #@! TO.N,/ENC_A_N*
X124795000Y-29795000D02*
X126409669Y-29795000D01*
X105920000Y-1280000D02*
X105920000Y-10920000D01*
X105920000Y-10920000D02*
X124795000Y-29795000D01*
G04 #@! TO.N,/ENC_A_P*
X104870000Y-1714925D02*
X105000000Y-1844925D01*
X104870000Y470000D02*
X104870000Y-1714925D01*
X125309669Y-30250635D02*
X125999034Y-30940000D01*
X105000000Y-10750000D02*
X124500635Y-30250635D01*
X105000000Y-1844925D02*
X105000000Y-10750000D01*
X124500635Y-30250635D02*
X125309669Y-30250635D01*
X104900000Y500000D02*
X104870000Y470000D01*
X125999034Y-30940000D02*
X128389669Y-30940000D01*
G04 #@! TO.N,/ENC_Z_P*
X107960000Y-1280000D02*
X107960000Y-6460000D01*
X124500000Y-23000000D02*
X127250000Y-23000000D01*
X127250000Y-23000000D02*
X128389669Y-24139669D01*
X107960000Y-6460000D02*
X124500000Y-23000000D01*
X128389669Y-24139669D02*
X128389669Y-26360000D01*
G04 #@! TO.N,/DO_IN_POS*
X124250000Y-45500000D02*
X124575000Y-45825000D01*
X104650000Y-42500000D02*
X120750000Y-42500000D01*
X124575000Y-45825000D02*
X126409669Y-45825000D01*
X123750000Y-45500000D02*
X124250000Y-45500000D01*
X120750000Y-42500000D02*
X123750000Y-45500000D01*
G04 #@! TO.N,/DO_BRAKE*
X118730000Y-33230000D02*
X115500000Y-30000000D01*
X128389669Y-33230000D02*
X118730000Y-33230000D01*
X115250000Y-30000000D02*
X113750000Y-28500000D01*
X115500000Y-30000000D02*
X115250000Y-30000000D01*
X113750000Y-28500000D02*
X104650000Y-28500000D01*
G04 #@! TO.N,/DI_SON*
X128389669Y-40100000D02*
X116600000Y-40100000D01*
X116600000Y-40100000D02*
X112000000Y-35500000D01*
X112000000Y-35500000D02*
X104650000Y-35500000D01*
G04 #@! TO.N,/DI_ESTOP*
X126865304Y-51505000D02*
X106655000Y-51505000D01*
X130369669Y-54985000D02*
X130369669Y-54264365D01*
X127920304Y-50450000D02*
X126865304Y-51505000D01*
X129489669Y-52010331D02*
X129489669Y-51094365D01*
X129269669Y-52230331D02*
X129489669Y-52010331D01*
X130369669Y-54264365D02*
X129269669Y-53164365D01*
X129489669Y-51094365D02*
X128845304Y-50450000D01*
X128845304Y-50450000D02*
X127920304Y-50450000D01*
X106655000Y-51505000D02*
X104650000Y-49500000D01*
X129269669Y-53164365D02*
X129269669Y-52230331D01*
G04 #@! TO.N,/DO_FAULT*
X124424669Y-53000000D02*
X126409669Y-54985000D01*
X109750000Y-53000000D02*
X124424669Y-53000000D01*
G04 #@! TO.N,/DO_COM*
X109750000Y-46000000D02*
X111865000Y-48115000D01*
X111865000Y-48115000D02*
X126409669Y-48115000D01*
G04 #@! TO.N,/DI_COM*
X109750000Y-32000000D02*
X114415000Y-36665000D01*
X114415000Y-36665000D02*
X126409669Y-36665000D01*
G04 #@! TO.N,/DO_RDY*
X111995000Y-41245000D02*
X126409669Y-41245000D01*
X109750000Y-39000000D02*
X111995000Y-41245000D01*
G04 #@! TO.N,/AGND*
X106350000Y-58770000D02*
X128039669Y-58770000D01*
X128039669Y-58770000D02*
X128389669Y-58420000D01*
X105500000Y-57920000D02*
X106350000Y-58770000D01*
G04 #@! TO.N,/+24VO*
X130369669Y-27505000D02*
X127965304Y-27505000D01*
X124905000Y-26405000D02*
X123250000Y-24750000D01*
X127965304Y-27505000D02*
X126865304Y-26405000D01*
X126865304Y-26405000D02*
X124905000Y-26405000D01*
X123250000Y-24750000D02*
X122250000Y-24750000D01*
X122250000Y-24750000D02*
X121750000Y-25250000D01*
G04 #@! TO.N,/AI2*
X128389669Y-56864365D02*
X129500000Y-57974696D01*
X128389669Y-56130000D02*
X128389669Y-56864365D01*
X129500000Y-57974696D02*
X129500000Y-58865304D01*
X127905304Y-60460000D02*
X105500000Y-60460000D01*
X129500000Y-58865304D02*
X127905304Y-60460000D01*
G04 #@! TD*
M02*
