G04 #@! TF.GenerationSoftware,KiCad,Pcbnew,8.0.5*
G04 #@! TF.CreationDate,2024-09-25T12:16:05+03:00*
G04 #@! TF.ProjectId,lichuan-lc10,6c696368-7561-46e2-9d6c-6331302e6b69,rev?*
G04 #@! TF.SameCoordinates,Original*
G04 #@! TF.FileFunction,Legend,Top*
G04 #@! TF.FilePolarity,Positive*
%FSLAX46Y46*%
G04 Gerber Fmt 4.6, Leading zero omitted, Abs format (unit mm)*
G04 Created by KiCad (PCBNEW 8.0.5) date 2024-09-25 12:16:05*
%MOMM*%
%LPD*%
G01*
G04 APERTURE LIST*
%ADD10C,0.300000*%
%ADD11C,0.250000*%
%ADD12C,0.200000*%
%ADD13C,0.150000*%
%ADD14C,0.100000*%
%ADD15C,0.120000*%
G04 APERTURE END LIST*
D10*
X113018796Y-27472022D02*
X113361653Y-27472022D01*
X113361653Y-27472022D02*
X113533082Y-27576784D01*
X113533082Y-27576784D02*
X113704510Y-27786308D01*
X113704510Y-27786308D02*
X113790225Y-28205356D01*
X113790225Y-28205356D02*
X113790225Y-28938689D01*
X113790225Y-28938689D02*
X113704510Y-29357737D01*
X113704510Y-29357737D02*
X113533082Y-29567261D01*
X113533082Y-29567261D02*
X113361653Y-29672022D01*
X113361653Y-29672022D02*
X113018796Y-29672022D01*
X113018796Y-29672022D02*
X112847368Y-29567261D01*
X112847368Y-29567261D02*
X112675939Y-29357737D01*
X112675939Y-29357737D02*
X112590225Y-28938689D01*
X112590225Y-28938689D02*
X112590225Y-28205356D01*
X112590225Y-28205356D02*
X112675939Y-27786308D01*
X112675939Y-27786308D02*
X112847368Y-27576784D01*
X112847368Y-27576784D02*
X113018796Y-27472022D01*
X114133082Y-29881546D02*
X115504510Y-29881546D01*
X116533082Y-28519641D02*
X116790225Y-28624403D01*
X116790225Y-28624403D02*
X116875939Y-28729165D01*
X116875939Y-28729165D02*
X116961653Y-28938689D01*
X116961653Y-28938689D02*
X116961653Y-29252975D01*
X116961653Y-29252975D02*
X116875939Y-29462499D01*
X116875939Y-29462499D02*
X116790225Y-29567261D01*
X116790225Y-29567261D02*
X116618796Y-29672022D01*
X116618796Y-29672022D02*
X115933082Y-29672022D01*
X115933082Y-29672022D02*
X115933082Y-27472022D01*
X115933082Y-27472022D02*
X116533082Y-27472022D01*
X116533082Y-27472022D02*
X116704511Y-27576784D01*
X116704511Y-27576784D02*
X116790225Y-27681546D01*
X116790225Y-27681546D02*
X116875939Y-27891070D01*
X116875939Y-27891070D02*
X116875939Y-28100594D01*
X116875939Y-28100594D02*
X116790225Y-28310118D01*
X116790225Y-28310118D02*
X116704511Y-28414880D01*
X116704511Y-28414880D02*
X116533082Y-28519641D01*
X116533082Y-28519641D02*
X115933082Y-28519641D01*
X118761653Y-29672022D02*
X118161653Y-28624403D01*
X117733082Y-29672022D02*
X117733082Y-27472022D01*
X117733082Y-27472022D02*
X118418796Y-27472022D01*
X118418796Y-27472022D02*
X118590225Y-27576784D01*
X118590225Y-27576784D02*
X118675939Y-27681546D01*
X118675939Y-27681546D02*
X118761653Y-27891070D01*
X118761653Y-27891070D02*
X118761653Y-28205356D01*
X118761653Y-28205356D02*
X118675939Y-28414880D01*
X118675939Y-28414880D02*
X118590225Y-28519641D01*
X118590225Y-28519641D02*
X118418796Y-28624403D01*
X118418796Y-28624403D02*
X117733082Y-28624403D01*
X119447368Y-29043451D02*
X120304511Y-29043451D01*
X119275939Y-29672022D02*
X119875939Y-27472022D01*
X119875939Y-27472022D02*
X120475939Y-29672022D01*
X121075939Y-29672022D02*
X121075939Y-27472022D01*
X122104510Y-29672022D02*
X121333082Y-28414880D01*
X122104510Y-27472022D02*
X121075939Y-28729165D01*
X122875939Y-28519641D02*
X123475939Y-28519641D01*
X123733082Y-29672022D02*
X122875939Y-29672022D01*
X122875939Y-29672022D02*
X122875939Y-27472022D01*
X122875939Y-27472022D02*
X123733082Y-27472022D01*
X112675939Y-33213899D02*
X112675939Y-31013899D01*
X113104511Y-33423423D02*
X114475939Y-33423423D01*
X115933082Y-33004376D02*
X115847368Y-33109138D01*
X115847368Y-33109138D02*
X115590225Y-33213899D01*
X115590225Y-33213899D02*
X115418797Y-33213899D01*
X115418797Y-33213899D02*
X115161654Y-33109138D01*
X115161654Y-33109138D02*
X114990225Y-32899614D01*
X114990225Y-32899614D02*
X114904511Y-32690090D01*
X114904511Y-32690090D02*
X114818797Y-32271042D01*
X114818797Y-32271042D02*
X114818797Y-31956757D01*
X114818797Y-31956757D02*
X114904511Y-31537709D01*
X114904511Y-31537709D02*
X114990225Y-31328185D01*
X114990225Y-31328185D02*
X115161654Y-31118661D01*
X115161654Y-31118661D02*
X115418797Y-31013899D01*
X115418797Y-31013899D02*
X115590225Y-31013899D01*
X115590225Y-31013899D02*
X115847368Y-31118661D01*
X115847368Y-31118661D02*
X115933082Y-31223423D01*
X117047368Y-31013899D02*
X117390225Y-31013899D01*
X117390225Y-31013899D02*
X117561654Y-31118661D01*
X117561654Y-31118661D02*
X117733082Y-31328185D01*
X117733082Y-31328185D02*
X117818797Y-31747233D01*
X117818797Y-31747233D02*
X117818797Y-32480566D01*
X117818797Y-32480566D02*
X117733082Y-32899614D01*
X117733082Y-32899614D02*
X117561654Y-33109138D01*
X117561654Y-33109138D02*
X117390225Y-33213899D01*
X117390225Y-33213899D02*
X117047368Y-33213899D01*
X117047368Y-33213899D02*
X116875940Y-33109138D01*
X116875940Y-33109138D02*
X116704511Y-32899614D01*
X116704511Y-32899614D02*
X116618797Y-32480566D01*
X116618797Y-32480566D02*
X116618797Y-31747233D01*
X116618797Y-31747233D02*
X116704511Y-31328185D01*
X116704511Y-31328185D02*
X116875940Y-31118661D01*
X116875940Y-31118661D02*
X117047368Y-31013899D01*
X118590225Y-33213899D02*
X118590225Y-31013899D01*
X118590225Y-31013899D02*
X119190225Y-32585328D01*
X119190225Y-32585328D02*
X119790225Y-31013899D01*
X119790225Y-31013899D02*
X119790225Y-33213899D01*
X112675939Y-36755776D02*
X112675939Y-34555776D01*
X113104511Y-36965300D02*
X114475939Y-36965300D01*
X114818797Y-36651015D02*
X115075940Y-36755776D01*
X115075940Y-36755776D02*
X115504511Y-36755776D01*
X115504511Y-36755776D02*
X115675940Y-36651015D01*
X115675940Y-36651015D02*
X115761654Y-36546253D01*
X115761654Y-36546253D02*
X115847368Y-36336729D01*
X115847368Y-36336729D02*
X115847368Y-36127205D01*
X115847368Y-36127205D02*
X115761654Y-35917681D01*
X115761654Y-35917681D02*
X115675940Y-35812919D01*
X115675940Y-35812919D02*
X115504511Y-35708157D01*
X115504511Y-35708157D02*
X115161654Y-35603395D01*
X115161654Y-35603395D02*
X114990225Y-35498634D01*
X114990225Y-35498634D02*
X114904511Y-35393872D01*
X114904511Y-35393872D02*
X114818797Y-35184348D01*
X114818797Y-35184348D02*
X114818797Y-34974824D01*
X114818797Y-34974824D02*
X114904511Y-34765300D01*
X114904511Y-34765300D02*
X114990225Y-34660538D01*
X114990225Y-34660538D02*
X115161654Y-34555776D01*
X115161654Y-34555776D02*
X115590225Y-34555776D01*
X115590225Y-34555776D02*
X115847368Y-34660538D01*
X116961654Y-34555776D02*
X117304511Y-34555776D01*
X117304511Y-34555776D02*
X117475940Y-34660538D01*
X117475940Y-34660538D02*
X117647368Y-34870062D01*
X117647368Y-34870062D02*
X117733083Y-35289110D01*
X117733083Y-35289110D02*
X117733083Y-36022443D01*
X117733083Y-36022443D02*
X117647368Y-36441491D01*
X117647368Y-36441491D02*
X117475940Y-36651015D01*
X117475940Y-36651015D02*
X117304511Y-36755776D01*
X117304511Y-36755776D02*
X116961654Y-36755776D01*
X116961654Y-36755776D02*
X116790226Y-36651015D01*
X116790226Y-36651015D02*
X116618797Y-36441491D01*
X116618797Y-36441491D02*
X116533083Y-36022443D01*
X116533083Y-36022443D02*
X116533083Y-35289110D01*
X116533083Y-35289110D02*
X116618797Y-34870062D01*
X116618797Y-34870062D02*
X116790226Y-34660538D01*
X116790226Y-34660538D02*
X116961654Y-34555776D01*
X118504511Y-36755776D02*
X118504511Y-34555776D01*
X118504511Y-34555776D02*
X119533082Y-36755776D01*
X119533082Y-36755776D02*
X119533082Y-34555776D01*
X113018796Y-38097653D02*
X113361653Y-38097653D01*
X113361653Y-38097653D02*
X113533082Y-38202415D01*
X113533082Y-38202415D02*
X113704510Y-38411939D01*
X113704510Y-38411939D02*
X113790225Y-38830987D01*
X113790225Y-38830987D02*
X113790225Y-39564320D01*
X113790225Y-39564320D02*
X113704510Y-39983368D01*
X113704510Y-39983368D02*
X113533082Y-40192892D01*
X113533082Y-40192892D02*
X113361653Y-40297653D01*
X113361653Y-40297653D02*
X113018796Y-40297653D01*
X113018796Y-40297653D02*
X112847368Y-40192892D01*
X112847368Y-40192892D02*
X112675939Y-39983368D01*
X112675939Y-39983368D02*
X112590225Y-39564320D01*
X112590225Y-39564320D02*
X112590225Y-38830987D01*
X112590225Y-38830987D02*
X112675939Y-38411939D01*
X112675939Y-38411939D02*
X112847368Y-38202415D01*
X112847368Y-38202415D02*
X113018796Y-38097653D01*
X114133082Y-40507177D02*
X115504510Y-40507177D01*
X116961653Y-40297653D02*
X116361653Y-39250034D01*
X115933082Y-40297653D02*
X115933082Y-38097653D01*
X115933082Y-38097653D02*
X116618796Y-38097653D01*
X116618796Y-38097653D02*
X116790225Y-38202415D01*
X116790225Y-38202415D02*
X116875939Y-38307177D01*
X116875939Y-38307177D02*
X116961653Y-38516701D01*
X116961653Y-38516701D02*
X116961653Y-38830987D01*
X116961653Y-38830987D02*
X116875939Y-39040511D01*
X116875939Y-39040511D02*
X116790225Y-39145272D01*
X116790225Y-39145272D02*
X116618796Y-39250034D01*
X116618796Y-39250034D02*
X115933082Y-39250034D01*
X117733082Y-40297653D02*
X117733082Y-38097653D01*
X117733082Y-38097653D02*
X118161653Y-38097653D01*
X118161653Y-38097653D02*
X118418796Y-38202415D01*
X118418796Y-38202415D02*
X118590225Y-38411939D01*
X118590225Y-38411939D02*
X118675939Y-38621463D01*
X118675939Y-38621463D02*
X118761653Y-39040511D01*
X118761653Y-39040511D02*
X118761653Y-39354796D01*
X118761653Y-39354796D02*
X118675939Y-39773844D01*
X118675939Y-39773844D02*
X118590225Y-39983368D01*
X118590225Y-39983368D02*
X118418796Y-40192892D01*
X118418796Y-40192892D02*
X118161653Y-40297653D01*
X118161653Y-40297653D02*
X117733082Y-40297653D01*
X119875939Y-39250034D02*
X119875939Y-40297653D01*
X119275939Y-38097653D02*
X119875939Y-39250034D01*
X119875939Y-39250034D02*
X120475939Y-38097653D01*
X113018796Y-41639530D02*
X113361653Y-41639530D01*
X113361653Y-41639530D02*
X113533082Y-41744292D01*
X113533082Y-41744292D02*
X113704510Y-41953816D01*
X113704510Y-41953816D02*
X113790225Y-42372864D01*
X113790225Y-42372864D02*
X113790225Y-43106197D01*
X113790225Y-43106197D02*
X113704510Y-43525245D01*
X113704510Y-43525245D02*
X113533082Y-43734769D01*
X113533082Y-43734769D02*
X113361653Y-43839530D01*
X113361653Y-43839530D02*
X113018796Y-43839530D01*
X113018796Y-43839530D02*
X112847368Y-43734769D01*
X112847368Y-43734769D02*
X112675939Y-43525245D01*
X112675939Y-43525245D02*
X112590225Y-43106197D01*
X112590225Y-43106197D02*
X112590225Y-42372864D01*
X112590225Y-42372864D02*
X112675939Y-41953816D01*
X112675939Y-41953816D02*
X112847368Y-41744292D01*
X112847368Y-41744292D02*
X113018796Y-41639530D01*
X114133082Y-44049054D02*
X115504510Y-44049054D01*
X115933082Y-43839530D02*
X115933082Y-41639530D01*
X116790225Y-43839530D02*
X116790225Y-41639530D01*
X116790225Y-41639530D02*
X117818796Y-43839530D01*
X117818796Y-43839530D02*
X117818796Y-41639530D01*
X118247368Y-44049054D02*
X119618796Y-44049054D01*
X120047368Y-43839530D02*
X120047368Y-41639530D01*
X120047368Y-41639530D02*
X120733082Y-41639530D01*
X120733082Y-41639530D02*
X120904511Y-41744292D01*
X120904511Y-41744292D02*
X120990225Y-41849054D01*
X120990225Y-41849054D02*
X121075939Y-42058578D01*
X121075939Y-42058578D02*
X121075939Y-42372864D01*
X121075939Y-42372864D02*
X120990225Y-42582388D01*
X120990225Y-42582388D02*
X120904511Y-42687149D01*
X120904511Y-42687149D02*
X120733082Y-42791911D01*
X120733082Y-42791911D02*
X120047368Y-42791911D01*
X113018796Y-45181407D02*
X113361653Y-45181407D01*
X113361653Y-45181407D02*
X113533082Y-45286169D01*
X113533082Y-45286169D02*
X113704510Y-45495693D01*
X113704510Y-45495693D02*
X113790225Y-45914741D01*
X113790225Y-45914741D02*
X113790225Y-46648074D01*
X113790225Y-46648074D02*
X113704510Y-47067122D01*
X113704510Y-47067122D02*
X113533082Y-47276646D01*
X113533082Y-47276646D02*
X113361653Y-47381407D01*
X113361653Y-47381407D02*
X113018796Y-47381407D01*
X113018796Y-47381407D02*
X112847368Y-47276646D01*
X112847368Y-47276646D02*
X112675939Y-47067122D01*
X112675939Y-47067122D02*
X112590225Y-46648074D01*
X112590225Y-46648074D02*
X112590225Y-45914741D01*
X112590225Y-45914741D02*
X112675939Y-45495693D01*
X112675939Y-45495693D02*
X112847368Y-45286169D01*
X112847368Y-45286169D02*
X113018796Y-45181407D01*
X114133082Y-47590931D02*
X115504510Y-47590931D01*
X116961653Y-47171884D02*
X116875939Y-47276646D01*
X116875939Y-47276646D02*
X116618796Y-47381407D01*
X116618796Y-47381407D02*
X116447368Y-47381407D01*
X116447368Y-47381407D02*
X116190225Y-47276646D01*
X116190225Y-47276646D02*
X116018796Y-47067122D01*
X116018796Y-47067122D02*
X115933082Y-46857598D01*
X115933082Y-46857598D02*
X115847368Y-46438550D01*
X115847368Y-46438550D02*
X115847368Y-46124265D01*
X115847368Y-46124265D02*
X115933082Y-45705217D01*
X115933082Y-45705217D02*
X116018796Y-45495693D01*
X116018796Y-45495693D02*
X116190225Y-45286169D01*
X116190225Y-45286169D02*
X116447368Y-45181407D01*
X116447368Y-45181407D02*
X116618796Y-45181407D01*
X116618796Y-45181407D02*
X116875939Y-45286169D01*
X116875939Y-45286169D02*
X116961653Y-45390931D01*
X118075939Y-45181407D02*
X118418796Y-45181407D01*
X118418796Y-45181407D02*
X118590225Y-45286169D01*
X118590225Y-45286169D02*
X118761653Y-45495693D01*
X118761653Y-45495693D02*
X118847368Y-45914741D01*
X118847368Y-45914741D02*
X118847368Y-46648074D01*
X118847368Y-46648074D02*
X118761653Y-47067122D01*
X118761653Y-47067122D02*
X118590225Y-47276646D01*
X118590225Y-47276646D02*
X118418796Y-47381407D01*
X118418796Y-47381407D02*
X118075939Y-47381407D01*
X118075939Y-47381407D02*
X117904511Y-47276646D01*
X117904511Y-47276646D02*
X117733082Y-47067122D01*
X117733082Y-47067122D02*
X117647368Y-46648074D01*
X117647368Y-46648074D02*
X117647368Y-45914741D01*
X117647368Y-45914741D02*
X117733082Y-45495693D01*
X117733082Y-45495693D02*
X117904511Y-45286169D01*
X117904511Y-45286169D02*
X118075939Y-45181407D01*
X119618796Y-47381407D02*
X119618796Y-45181407D01*
X119618796Y-45181407D02*
X120218796Y-46752836D01*
X120218796Y-46752836D02*
X120818796Y-45181407D01*
X120818796Y-45181407D02*
X120818796Y-47381407D01*
X112675939Y-50923284D02*
X112675939Y-48723284D01*
X113104511Y-51132808D02*
X114475939Y-51132808D01*
X114904511Y-49770903D02*
X115504511Y-49770903D01*
X115761654Y-50923284D02*
X114904511Y-50923284D01*
X114904511Y-50923284D02*
X114904511Y-48723284D01*
X114904511Y-48723284D02*
X115761654Y-48723284D01*
X116447368Y-50818523D02*
X116704511Y-50923284D01*
X116704511Y-50923284D02*
X117133082Y-50923284D01*
X117133082Y-50923284D02*
X117304511Y-50818523D01*
X117304511Y-50818523D02*
X117390225Y-50713761D01*
X117390225Y-50713761D02*
X117475939Y-50504237D01*
X117475939Y-50504237D02*
X117475939Y-50294713D01*
X117475939Y-50294713D02*
X117390225Y-50085189D01*
X117390225Y-50085189D02*
X117304511Y-49980427D01*
X117304511Y-49980427D02*
X117133082Y-49875665D01*
X117133082Y-49875665D02*
X116790225Y-49770903D01*
X116790225Y-49770903D02*
X116618796Y-49666142D01*
X116618796Y-49666142D02*
X116533082Y-49561380D01*
X116533082Y-49561380D02*
X116447368Y-49351856D01*
X116447368Y-49351856D02*
X116447368Y-49142332D01*
X116447368Y-49142332D02*
X116533082Y-48932808D01*
X116533082Y-48932808D02*
X116618796Y-48828046D01*
X116618796Y-48828046D02*
X116790225Y-48723284D01*
X116790225Y-48723284D02*
X117218796Y-48723284D01*
X117218796Y-48723284D02*
X117475939Y-48828046D01*
X117990225Y-48723284D02*
X119018797Y-48723284D01*
X118504511Y-50923284D02*
X118504511Y-48723284D01*
X119961654Y-48723284D02*
X120304511Y-48723284D01*
X120304511Y-48723284D02*
X120475940Y-48828046D01*
X120475940Y-48828046D02*
X120647368Y-49037570D01*
X120647368Y-49037570D02*
X120733083Y-49456618D01*
X120733083Y-49456618D02*
X120733083Y-50189951D01*
X120733083Y-50189951D02*
X120647368Y-50608999D01*
X120647368Y-50608999D02*
X120475940Y-50818523D01*
X120475940Y-50818523D02*
X120304511Y-50923284D01*
X120304511Y-50923284D02*
X119961654Y-50923284D01*
X119961654Y-50923284D02*
X119790226Y-50818523D01*
X119790226Y-50818523D02*
X119618797Y-50608999D01*
X119618797Y-50608999D02*
X119533083Y-50189951D01*
X119533083Y-50189951D02*
X119533083Y-49456618D01*
X119533083Y-49456618D02*
X119618797Y-49037570D01*
X119618797Y-49037570D02*
X119790226Y-48828046D01*
X119790226Y-48828046D02*
X119961654Y-48723284D01*
X121504511Y-50923284D02*
X121504511Y-48723284D01*
X121504511Y-48723284D02*
X122190225Y-48723284D01*
X122190225Y-48723284D02*
X122361654Y-48828046D01*
X122361654Y-48828046D02*
X122447368Y-48932808D01*
X122447368Y-48932808D02*
X122533082Y-49142332D01*
X122533082Y-49142332D02*
X122533082Y-49456618D01*
X122533082Y-49456618D02*
X122447368Y-49666142D01*
X122447368Y-49666142D02*
X122361654Y-49770903D01*
X122361654Y-49770903D02*
X122190225Y-49875665D01*
X122190225Y-49875665D02*
X121504511Y-49875665D01*
X113018796Y-52265161D02*
X113361653Y-52265161D01*
X113361653Y-52265161D02*
X113533082Y-52369923D01*
X113533082Y-52369923D02*
X113704510Y-52579447D01*
X113704510Y-52579447D02*
X113790225Y-52998495D01*
X113790225Y-52998495D02*
X113790225Y-53731828D01*
X113790225Y-53731828D02*
X113704510Y-54150876D01*
X113704510Y-54150876D02*
X113533082Y-54360400D01*
X113533082Y-54360400D02*
X113361653Y-54465161D01*
X113361653Y-54465161D02*
X113018796Y-54465161D01*
X113018796Y-54465161D02*
X112847368Y-54360400D01*
X112847368Y-54360400D02*
X112675939Y-54150876D01*
X112675939Y-54150876D02*
X112590225Y-53731828D01*
X112590225Y-53731828D02*
X112590225Y-52998495D01*
X112590225Y-52998495D02*
X112675939Y-52579447D01*
X112675939Y-52579447D02*
X112847368Y-52369923D01*
X112847368Y-52369923D02*
X113018796Y-52265161D01*
X114133082Y-54674685D02*
X115504510Y-54674685D01*
X116533082Y-53312780D02*
X115933082Y-53312780D01*
X115933082Y-54465161D02*
X115933082Y-52265161D01*
X115933082Y-52265161D02*
X116790225Y-52265161D01*
X118333082Y-54465161D02*
X117475939Y-54465161D01*
X117475939Y-54465161D02*
X117475939Y-52265161D01*
X118675939Y-52265161D02*
X119704511Y-52265161D01*
X119190225Y-54465161D02*
X119190225Y-52265161D01*
D11*
X108200187Y-58295025D02*
X108914473Y-58295025D01*
X108057330Y-58723596D02*
X108557330Y-57223596D01*
X108557330Y-57223596D02*
X109057330Y-58723596D01*
X110343044Y-57295025D02*
X110200187Y-57223596D01*
X110200187Y-57223596D02*
X109985901Y-57223596D01*
X109985901Y-57223596D02*
X109771615Y-57295025D01*
X109771615Y-57295025D02*
X109628758Y-57437882D01*
X109628758Y-57437882D02*
X109557329Y-57580739D01*
X109557329Y-57580739D02*
X109485901Y-57866453D01*
X109485901Y-57866453D02*
X109485901Y-58080739D01*
X109485901Y-58080739D02*
X109557329Y-58366453D01*
X109557329Y-58366453D02*
X109628758Y-58509310D01*
X109628758Y-58509310D02*
X109771615Y-58652168D01*
X109771615Y-58652168D02*
X109985901Y-58723596D01*
X109985901Y-58723596D02*
X110128758Y-58723596D01*
X110128758Y-58723596D02*
X110343044Y-58652168D01*
X110343044Y-58652168D02*
X110414472Y-58580739D01*
X110414472Y-58580739D02*
X110414472Y-58080739D01*
X110414472Y-58080739D02*
X110128758Y-58080739D01*
X111057329Y-58723596D02*
X111057329Y-57223596D01*
X111057329Y-57223596D02*
X111914472Y-58723596D01*
X111914472Y-58723596D02*
X111914472Y-57223596D01*
X112628758Y-58723596D02*
X112628758Y-57223596D01*
X112628758Y-57223596D02*
X112985901Y-57223596D01*
X112985901Y-57223596D02*
X113200187Y-57295025D01*
X113200187Y-57295025D02*
X113343044Y-57437882D01*
X113343044Y-57437882D02*
X113414473Y-57580739D01*
X113414473Y-57580739D02*
X113485901Y-57866453D01*
X113485901Y-57866453D02*
X113485901Y-58080739D01*
X113485901Y-58080739D02*
X113414473Y-58366453D01*
X113414473Y-58366453D02*
X113343044Y-58509310D01*
X113343044Y-58509310D02*
X113200187Y-58652168D01*
X113200187Y-58652168D02*
X112985901Y-58723596D01*
X112985901Y-58723596D02*
X112628758Y-58723596D01*
X108200187Y-60709941D02*
X108914473Y-60709941D01*
X108057330Y-61138512D02*
X108557330Y-59638512D01*
X108557330Y-59638512D02*
X109057330Y-61138512D01*
X109557329Y-61138512D02*
X109557329Y-59638512D01*
X110200187Y-59781369D02*
X110271615Y-59709941D01*
X110271615Y-59709941D02*
X110414473Y-59638512D01*
X110414473Y-59638512D02*
X110771615Y-59638512D01*
X110771615Y-59638512D02*
X110914473Y-59709941D01*
X110914473Y-59709941D02*
X110985901Y-59781369D01*
X110985901Y-59781369D02*
X111057330Y-59924226D01*
X111057330Y-59924226D02*
X111057330Y-60067084D01*
X111057330Y-60067084D02*
X110985901Y-60281369D01*
X110985901Y-60281369D02*
X110128758Y-61138512D01*
X110128758Y-61138512D02*
X111057330Y-61138512D01*
X108200187Y-63124857D02*
X108914473Y-63124857D01*
X108057330Y-63553428D02*
X108557330Y-62053428D01*
X108557330Y-62053428D02*
X109057330Y-63553428D01*
X109557329Y-63553428D02*
X109557329Y-62053428D01*
X111057330Y-63553428D02*
X110200187Y-63553428D01*
X110628758Y-63553428D02*
X110628758Y-62053428D01*
X110628758Y-62053428D02*
X110485901Y-62267714D01*
X110485901Y-62267714D02*
X110343044Y-62410571D01*
X110343044Y-62410571D02*
X110200187Y-62482000D01*
D12*
X124822054Y-11569600D02*
X124964911Y-11617219D01*
X124964911Y-11617219D02*
X125203006Y-11617219D01*
X125203006Y-11617219D02*
X125298244Y-11569600D01*
X125298244Y-11569600D02*
X125345863Y-11521980D01*
X125345863Y-11521980D02*
X125393482Y-11426742D01*
X125393482Y-11426742D02*
X125393482Y-11331504D01*
X125393482Y-11331504D02*
X125345863Y-11236266D01*
X125345863Y-11236266D02*
X125298244Y-11188647D01*
X125298244Y-11188647D02*
X125203006Y-11141028D01*
X125203006Y-11141028D02*
X125012530Y-11093409D01*
X125012530Y-11093409D02*
X124917292Y-11045790D01*
X124917292Y-11045790D02*
X124869673Y-10998171D01*
X124869673Y-10998171D02*
X124822054Y-10902933D01*
X124822054Y-10902933D02*
X124822054Y-10807695D01*
X124822054Y-10807695D02*
X124869673Y-10712457D01*
X124869673Y-10712457D02*
X124917292Y-10664838D01*
X124917292Y-10664838D02*
X125012530Y-10617219D01*
X125012530Y-10617219D02*
X125250625Y-10617219D01*
X125250625Y-10617219D02*
X125393482Y-10664838D01*
X125679197Y-10950552D02*
X126060149Y-10950552D01*
X125822054Y-10617219D02*
X125822054Y-11474361D01*
X125822054Y-11474361D02*
X125869673Y-11569600D01*
X125869673Y-11569600D02*
X125964911Y-11617219D01*
X125964911Y-11617219D02*
X126060149Y-11617219D01*
X126774435Y-11569600D02*
X126679197Y-11617219D01*
X126679197Y-11617219D02*
X126488721Y-11617219D01*
X126488721Y-11617219D02*
X126393483Y-11569600D01*
X126393483Y-11569600D02*
X126345864Y-11474361D01*
X126345864Y-11474361D02*
X126345864Y-11093409D01*
X126345864Y-11093409D02*
X126393483Y-10998171D01*
X126393483Y-10998171D02*
X126488721Y-10950552D01*
X126488721Y-10950552D02*
X126679197Y-10950552D01*
X126679197Y-10950552D02*
X126774435Y-10998171D01*
X126774435Y-10998171D02*
X126822054Y-11093409D01*
X126822054Y-11093409D02*
X126822054Y-11188647D01*
X126822054Y-11188647D02*
X126345864Y-11283885D01*
X127250626Y-10950552D02*
X127250626Y-11950552D01*
X127250626Y-10998171D02*
X127345864Y-10950552D01*
X127345864Y-10950552D02*
X127536340Y-10950552D01*
X127536340Y-10950552D02*
X127631578Y-10998171D01*
X127631578Y-10998171D02*
X127679197Y-11045790D01*
X127679197Y-11045790D02*
X127726816Y-11141028D01*
X127726816Y-11141028D02*
X127726816Y-11426742D01*
X127726816Y-11426742D02*
X127679197Y-11521980D01*
X127679197Y-11521980D02*
X127631578Y-11569600D01*
X127631578Y-11569600D02*
X127536340Y-11617219D01*
X127536340Y-11617219D02*
X127345864Y-11617219D01*
X127345864Y-11617219D02*
X127250626Y-11569600D01*
X128869673Y-10569600D02*
X128012531Y-11855314D01*
X129203007Y-11617219D02*
X129203007Y-10617219D01*
X129203007Y-10617219D02*
X129441102Y-10617219D01*
X129441102Y-10617219D02*
X129583959Y-10664838D01*
X129583959Y-10664838D02*
X129679197Y-10760076D01*
X129679197Y-10760076D02*
X129726816Y-10855314D01*
X129726816Y-10855314D02*
X129774435Y-11045790D01*
X129774435Y-11045790D02*
X129774435Y-11188647D01*
X129774435Y-11188647D02*
X129726816Y-11379123D01*
X129726816Y-11379123D02*
X129679197Y-11474361D01*
X129679197Y-11474361D02*
X129583959Y-11569600D01*
X129583959Y-11569600D02*
X129441102Y-11617219D01*
X129441102Y-11617219D02*
X129203007Y-11617219D01*
X130203007Y-11617219D02*
X130203007Y-10950552D01*
X130203007Y-10617219D02*
X130155388Y-10664838D01*
X130155388Y-10664838D02*
X130203007Y-10712457D01*
X130203007Y-10712457D02*
X130250626Y-10664838D01*
X130250626Y-10664838D02*
X130203007Y-10617219D01*
X130203007Y-10617219D02*
X130203007Y-10712457D01*
X130679197Y-11617219D02*
X130679197Y-10950552D01*
X130679197Y-11141028D02*
X130726816Y-11045790D01*
X130726816Y-11045790D02*
X130774435Y-10998171D01*
X130774435Y-10998171D02*
X130869673Y-10950552D01*
X130869673Y-10950552D02*
X130964911Y-10950552D01*
X132060150Y-11617219D02*
X132060150Y-10950552D01*
X132060150Y-10617219D02*
X132012531Y-10664838D01*
X132012531Y-10664838D02*
X132060150Y-10712457D01*
X132060150Y-10712457D02*
X132107769Y-10664838D01*
X132107769Y-10664838D02*
X132060150Y-10617219D01*
X132060150Y-10617219D02*
X132060150Y-10712457D01*
X132536340Y-10950552D02*
X132536340Y-11617219D01*
X132536340Y-11045790D02*
X132583959Y-10998171D01*
X132583959Y-10998171D02*
X132679197Y-10950552D01*
X132679197Y-10950552D02*
X132822054Y-10950552D01*
X132822054Y-10950552D02*
X132917292Y-10998171D01*
X132917292Y-10998171D02*
X132964911Y-11093409D01*
X132964911Y-11093409D02*
X132964911Y-11617219D01*
X105119673Y-11093409D02*
X105453006Y-11093409D01*
X105595863Y-11617219D02*
X105119673Y-11617219D01*
X105119673Y-11617219D02*
X105119673Y-10617219D01*
X105119673Y-10617219D02*
X105595863Y-10617219D01*
X106024435Y-10950552D02*
X106024435Y-11617219D01*
X106024435Y-11045790D02*
X106072054Y-10998171D01*
X106072054Y-10998171D02*
X106167292Y-10950552D01*
X106167292Y-10950552D02*
X106310149Y-10950552D01*
X106310149Y-10950552D02*
X106405387Y-10998171D01*
X106405387Y-10998171D02*
X106453006Y-11093409D01*
X106453006Y-11093409D02*
X106453006Y-11617219D01*
X107357768Y-11569600D02*
X107262530Y-11617219D01*
X107262530Y-11617219D02*
X107072054Y-11617219D01*
X107072054Y-11617219D02*
X106976816Y-11569600D01*
X106976816Y-11569600D02*
X106929197Y-11521980D01*
X106929197Y-11521980D02*
X106881578Y-11426742D01*
X106881578Y-11426742D02*
X106881578Y-11141028D01*
X106881578Y-11141028D02*
X106929197Y-11045790D01*
X106929197Y-11045790D02*
X106976816Y-10998171D01*
X106976816Y-10998171D02*
X107072054Y-10950552D01*
X107072054Y-10950552D02*
X107262530Y-10950552D01*
X107262530Y-10950552D02*
X107357768Y-10998171D01*
X107929197Y-11617219D02*
X107833959Y-11569600D01*
X107833959Y-11569600D02*
X107786340Y-11521980D01*
X107786340Y-11521980D02*
X107738721Y-11426742D01*
X107738721Y-11426742D02*
X107738721Y-11141028D01*
X107738721Y-11141028D02*
X107786340Y-11045790D01*
X107786340Y-11045790D02*
X107833959Y-10998171D01*
X107833959Y-10998171D02*
X107929197Y-10950552D01*
X107929197Y-10950552D02*
X108072054Y-10950552D01*
X108072054Y-10950552D02*
X108167292Y-10998171D01*
X108167292Y-10998171D02*
X108214911Y-11045790D01*
X108214911Y-11045790D02*
X108262530Y-11141028D01*
X108262530Y-11141028D02*
X108262530Y-11426742D01*
X108262530Y-11426742D02*
X108214911Y-11521980D01*
X108214911Y-11521980D02*
X108167292Y-11569600D01*
X108167292Y-11569600D02*
X108072054Y-11617219D01*
X108072054Y-11617219D02*
X107929197Y-11617219D01*
X109119673Y-11617219D02*
X109119673Y-10617219D01*
X109119673Y-11569600D02*
X109024435Y-11617219D01*
X109024435Y-11617219D02*
X108833959Y-11617219D01*
X108833959Y-11617219D02*
X108738721Y-11569600D01*
X108738721Y-11569600D02*
X108691102Y-11521980D01*
X108691102Y-11521980D02*
X108643483Y-11426742D01*
X108643483Y-11426742D02*
X108643483Y-11141028D01*
X108643483Y-11141028D02*
X108691102Y-11045790D01*
X108691102Y-11045790D02*
X108738721Y-10998171D01*
X108738721Y-10998171D02*
X108833959Y-10950552D01*
X108833959Y-10950552D02*
X109024435Y-10950552D01*
X109024435Y-10950552D02*
X109119673Y-10998171D01*
X109976816Y-11569600D02*
X109881578Y-11617219D01*
X109881578Y-11617219D02*
X109691102Y-11617219D01*
X109691102Y-11617219D02*
X109595864Y-11569600D01*
X109595864Y-11569600D02*
X109548245Y-11474361D01*
X109548245Y-11474361D02*
X109548245Y-11093409D01*
X109548245Y-11093409D02*
X109595864Y-10998171D01*
X109595864Y-10998171D02*
X109691102Y-10950552D01*
X109691102Y-10950552D02*
X109881578Y-10950552D01*
X109881578Y-10950552D02*
X109976816Y-10998171D01*
X109976816Y-10998171D02*
X110024435Y-11093409D01*
X110024435Y-11093409D02*
X110024435Y-11188647D01*
X110024435Y-11188647D02*
X109548245Y-11283885D01*
X110453007Y-11617219D02*
X110453007Y-10950552D01*
X110453007Y-11141028D02*
X110500626Y-11045790D01*
X110500626Y-11045790D02*
X110548245Y-10998171D01*
X110548245Y-10998171D02*
X110643483Y-10950552D01*
X110643483Y-10950552D02*
X110738721Y-10950552D01*
X111976817Y-11617219D02*
X111881579Y-11569600D01*
X111881579Y-11569600D02*
X111833960Y-11521980D01*
X111833960Y-11521980D02*
X111786341Y-11426742D01*
X111786341Y-11426742D02*
X111786341Y-11141028D01*
X111786341Y-11141028D02*
X111833960Y-11045790D01*
X111833960Y-11045790D02*
X111881579Y-10998171D01*
X111881579Y-10998171D02*
X111976817Y-10950552D01*
X111976817Y-10950552D02*
X112119674Y-10950552D01*
X112119674Y-10950552D02*
X112214912Y-10998171D01*
X112214912Y-10998171D02*
X112262531Y-11045790D01*
X112262531Y-11045790D02*
X112310150Y-11141028D01*
X112310150Y-11141028D02*
X112310150Y-11426742D01*
X112310150Y-11426742D02*
X112262531Y-11521980D01*
X112262531Y-11521980D02*
X112214912Y-11569600D01*
X112214912Y-11569600D02*
X112119674Y-11617219D01*
X112119674Y-11617219D02*
X111976817Y-11617219D01*
X113167293Y-10950552D02*
X113167293Y-11617219D01*
X112738722Y-10950552D02*
X112738722Y-11474361D01*
X112738722Y-11474361D02*
X112786341Y-11569600D01*
X112786341Y-11569600D02*
X112881579Y-11617219D01*
X112881579Y-11617219D02*
X113024436Y-11617219D01*
X113024436Y-11617219D02*
X113119674Y-11569600D01*
X113119674Y-11569600D02*
X113167293Y-11521980D01*
X113500627Y-10950552D02*
X113881579Y-10950552D01*
X113643484Y-10617219D02*
X113643484Y-11474361D01*
X113643484Y-11474361D02*
X113691103Y-11569600D01*
X113691103Y-11569600D02*
X113786341Y-11617219D01*
X113786341Y-11617219D02*
X113881579Y-11617219D01*
D11*
X107771615Y-19317084D02*
X108914473Y-19317084D01*
X108343044Y-19888512D02*
X108343044Y-18745655D01*
X109557330Y-18531369D02*
X109628758Y-18459941D01*
X109628758Y-18459941D02*
X109771616Y-18388512D01*
X109771616Y-18388512D02*
X110128758Y-18388512D01*
X110128758Y-18388512D02*
X110271616Y-18459941D01*
X110271616Y-18459941D02*
X110343044Y-18531369D01*
X110343044Y-18531369D02*
X110414473Y-18674226D01*
X110414473Y-18674226D02*
X110414473Y-18817084D01*
X110414473Y-18817084D02*
X110343044Y-19031369D01*
X110343044Y-19031369D02*
X109485901Y-19888512D01*
X109485901Y-19888512D02*
X110414473Y-19888512D01*
X111700187Y-18888512D02*
X111700187Y-19888512D01*
X111343044Y-18317084D02*
X110985901Y-19388512D01*
X110985901Y-19388512D02*
X111914472Y-19388512D01*
X112271615Y-18388512D02*
X112771615Y-19888512D01*
X112771615Y-19888512D02*
X113271615Y-18388512D01*
X114057329Y-18388512D02*
X114343043Y-18388512D01*
X114343043Y-18388512D02*
X114485900Y-18459941D01*
X114485900Y-18459941D02*
X114628757Y-18602798D01*
X114628757Y-18602798D02*
X114700186Y-18888512D01*
X114700186Y-18888512D02*
X114700186Y-19388512D01*
X114700186Y-19388512D02*
X114628757Y-19674226D01*
X114628757Y-19674226D02*
X114485900Y-19817084D01*
X114485900Y-19817084D02*
X114343043Y-19888512D01*
X114343043Y-19888512D02*
X114057329Y-19888512D01*
X114057329Y-19888512D02*
X113914472Y-19817084D01*
X113914472Y-19817084D02*
X113771614Y-19674226D01*
X113771614Y-19674226D02*
X113700186Y-19388512D01*
X113700186Y-19388512D02*
X113700186Y-18888512D01*
X113700186Y-18888512D02*
X113771614Y-18602798D01*
X113771614Y-18602798D02*
X113914472Y-18459941D01*
X113914472Y-18459941D02*
X114057329Y-18388512D01*
X108628758Y-22160571D02*
X108557330Y-22232000D01*
X108557330Y-22232000D02*
X108343044Y-22303428D01*
X108343044Y-22303428D02*
X108200187Y-22303428D01*
X108200187Y-22303428D02*
X107985901Y-22232000D01*
X107985901Y-22232000D02*
X107843044Y-22089142D01*
X107843044Y-22089142D02*
X107771615Y-21946285D01*
X107771615Y-21946285D02*
X107700187Y-21660571D01*
X107700187Y-21660571D02*
X107700187Y-21446285D01*
X107700187Y-21446285D02*
X107771615Y-21160571D01*
X107771615Y-21160571D02*
X107843044Y-21017714D01*
X107843044Y-21017714D02*
X107985901Y-20874857D01*
X107985901Y-20874857D02*
X108200187Y-20803428D01*
X108200187Y-20803428D02*
X108343044Y-20803428D01*
X108343044Y-20803428D02*
X108557330Y-20874857D01*
X108557330Y-20874857D02*
X108628758Y-20946285D01*
X109557330Y-20803428D02*
X109843044Y-20803428D01*
X109843044Y-20803428D02*
X109985901Y-20874857D01*
X109985901Y-20874857D02*
X110128758Y-21017714D01*
X110128758Y-21017714D02*
X110200187Y-21303428D01*
X110200187Y-21303428D02*
X110200187Y-21803428D01*
X110200187Y-21803428D02*
X110128758Y-22089142D01*
X110128758Y-22089142D02*
X109985901Y-22232000D01*
X109985901Y-22232000D02*
X109843044Y-22303428D01*
X109843044Y-22303428D02*
X109557330Y-22303428D01*
X109557330Y-22303428D02*
X109414473Y-22232000D01*
X109414473Y-22232000D02*
X109271615Y-22089142D01*
X109271615Y-22089142D02*
X109200187Y-21803428D01*
X109200187Y-21803428D02*
X109200187Y-21303428D01*
X109200187Y-21303428D02*
X109271615Y-21017714D01*
X109271615Y-21017714D02*
X109414473Y-20874857D01*
X109414473Y-20874857D02*
X109557330Y-20803428D01*
X110843044Y-22303428D02*
X110843044Y-20803428D01*
X110843044Y-20803428D02*
X111343044Y-21874857D01*
X111343044Y-21874857D02*
X111843044Y-20803428D01*
X111843044Y-20803428D02*
X111843044Y-22303428D01*
X112557330Y-21732000D02*
X113700188Y-21732000D01*
D13*
X105166666Y-64784819D02*
X105166666Y-65499104D01*
X105166666Y-65499104D02*
X105119047Y-65641961D01*
X105119047Y-65641961D02*
X105023809Y-65737200D01*
X105023809Y-65737200D02*
X104880952Y-65784819D01*
X104880952Y-65784819D02*
X104785714Y-65784819D01*
X106071428Y-65118152D02*
X106071428Y-65784819D01*
X105833333Y-64737200D02*
X105595238Y-65451485D01*
X105595238Y-65451485D02*
X106214285Y-65451485D01*
X104916666Y-16099819D02*
X104916666Y-16814104D01*
X104916666Y-16814104D02*
X104869047Y-16956961D01*
X104869047Y-16956961D02*
X104773809Y-17052200D01*
X104773809Y-17052200D02*
X104630952Y-17099819D01*
X104630952Y-17099819D02*
X104535714Y-17099819D01*
X105869047Y-16099819D02*
X105392857Y-16099819D01*
X105392857Y-16099819D02*
X105345238Y-16576009D01*
X105345238Y-16576009D02*
X105392857Y-16528390D01*
X105392857Y-16528390D02*
X105488095Y-16480771D01*
X105488095Y-16480771D02*
X105726190Y-16480771D01*
X105726190Y-16480771D02*
X105821428Y-16528390D01*
X105821428Y-16528390D02*
X105869047Y-16576009D01*
X105869047Y-16576009D02*
X105916666Y-16671247D01*
X105916666Y-16671247D02*
X105916666Y-16909342D01*
X105916666Y-16909342D02*
X105869047Y-17004580D01*
X105869047Y-17004580D02*
X105821428Y-17052200D01*
X105821428Y-17052200D02*
X105726190Y-17099819D01*
X105726190Y-17099819D02*
X105488095Y-17099819D01*
X105488095Y-17099819D02*
X105392857Y-17052200D01*
X105392857Y-17052200D02*
X105345238Y-17004580D01*
D14*
X128096666Y-7577419D02*
X128096666Y-8291704D01*
X128096666Y-8291704D02*
X128049047Y-8434561D01*
X128049047Y-8434561D02*
X127953809Y-8529800D01*
X127953809Y-8529800D02*
X127810952Y-8577419D01*
X127810952Y-8577419D02*
X127715714Y-8577419D01*
X129096666Y-8577419D02*
X128525238Y-8577419D01*
X128810952Y-8577419D02*
X128810952Y-7577419D01*
X128810952Y-7577419D02*
X128715714Y-7720276D01*
X128715714Y-7720276D02*
X128620476Y-7815514D01*
X128620476Y-7815514D02*
X128525238Y-7863133D01*
X107092580Y-37416666D02*
X106378295Y-37416666D01*
X106378295Y-37416666D02*
X106235438Y-37369047D01*
X106235438Y-37369047D02*
X106140200Y-37273809D01*
X106140200Y-37273809D02*
X106092580Y-37130952D01*
X106092580Y-37130952D02*
X106092580Y-37035714D01*
X107092580Y-37797619D02*
X107092580Y-38416666D01*
X107092580Y-38416666D02*
X106711628Y-38083333D01*
X106711628Y-38083333D02*
X106711628Y-38226190D01*
X106711628Y-38226190D02*
X106664009Y-38321428D01*
X106664009Y-38321428D02*
X106616390Y-38369047D01*
X106616390Y-38369047D02*
X106521152Y-38416666D01*
X106521152Y-38416666D02*
X106283057Y-38416666D01*
X106283057Y-38416666D02*
X106187819Y-38369047D01*
X106187819Y-38369047D02*
X106140200Y-38321428D01*
X106140200Y-38321428D02*
X106092580Y-38226190D01*
X106092580Y-38226190D02*
X106092580Y-37940476D01*
X106092580Y-37940476D02*
X106140200Y-37845238D01*
X106140200Y-37845238D02*
X106187819Y-37797619D01*
D13*
X123284488Y-42511904D02*
X124094011Y-42511904D01*
X124094011Y-42511904D02*
X124189249Y-42464285D01*
X124189249Y-42464285D02*
X124236869Y-42416666D01*
X124236869Y-42416666D02*
X124284488Y-42321428D01*
X124284488Y-42321428D02*
X124284488Y-42130952D01*
X124284488Y-42130952D02*
X124236869Y-42035714D01*
X124236869Y-42035714D02*
X124189249Y-41988095D01*
X124189249Y-41988095D02*
X124094011Y-41940476D01*
X124094011Y-41940476D02*
X123284488Y-41940476D01*
X124284488Y-40940476D02*
X124284488Y-41511904D01*
X124284488Y-41226190D02*
X123284488Y-41226190D01*
X123284488Y-41226190D02*
X123427345Y-41321428D01*
X123427345Y-41321428D02*
X123522583Y-41416666D01*
X123522583Y-41416666D02*
X123570202Y-41511904D01*
D14*
X108136666Y-7667419D02*
X108136666Y-8381704D01*
X108136666Y-8381704D02*
X108089047Y-8524561D01*
X108089047Y-8524561D02*
X107993809Y-8619800D01*
X107993809Y-8619800D02*
X107850952Y-8667419D01*
X107850952Y-8667419D02*
X107755714Y-8667419D01*
X108565238Y-7762657D02*
X108612857Y-7715038D01*
X108612857Y-7715038D02*
X108708095Y-7667419D01*
X108708095Y-7667419D02*
X108946190Y-7667419D01*
X108946190Y-7667419D02*
X109041428Y-7715038D01*
X109041428Y-7715038D02*
X109089047Y-7762657D01*
X109089047Y-7762657D02*
X109136666Y-7857895D01*
X109136666Y-7857895D02*
X109136666Y-7953133D01*
X109136666Y-7953133D02*
X109089047Y-8095990D01*
X109089047Y-8095990D02*
X108517619Y-8667419D01*
X108517619Y-8667419D02*
X109136666Y-8667419D01*
D15*
G04 #@! TO.C,J4*
X104170000Y-61730000D02*
X104170000Y-56590000D01*
X106830000Y-56590000D02*
X104170000Y-56590000D01*
X106830000Y-61730000D02*
X104170000Y-61730000D01*
X106830000Y-61730000D02*
X106830000Y-56590000D01*
X106830000Y-63000000D02*
X106830000Y-64330000D01*
X106830000Y-64330000D02*
X105500000Y-64330000D01*
G04 #@! TO.C,J5*
X103920000Y-17645000D02*
X105250000Y-17645000D01*
X103920000Y-18975000D02*
X103920000Y-17645000D01*
X103920000Y-20245000D02*
X103920000Y-22845000D01*
X103920000Y-20245000D02*
X106580000Y-20245000D01*
X103920000Y-22845000D02*
X106580000Y-22845000D01*
X106580000Y-20245000D02*
X106580000Y-22845000D01*
D14*
G04 #@! TO.C,J1*
X120302000Y1388000D02*
X120305000Y8755000D01*
X120305000Y8755000D02*
X136555000Y8755000D01*
X120305000Y-6995000D02*
X120302000Y-2168000D01*
X125430000Y7630000D02*
X125430000Y8630000D01*
X131680000Y8630000D02*
X131680000Y7630000D01*
X131680000Y7630000D02*
X125430000Y7630000D01*
X136555000Y8755000D02*
X136558000Y1134000D01*
X136555000Y-6995000D02*
X120305000Y-6995000D01*
X136555000Y-6995000D02*
X136558000Y-2168000D01*
G04 #@! TO.C,J3*
X100050000Y-27750000D02*
X102550000Y-27750000D01*
X100050000Y-52250000D02*
X102550000Y-52250000D01*
X102550000Y-27750000D02*
X102550000Y-29250000D01*
X102550000Y-29250000D02*
X100050000Y-29250000D01*
X102550000Y-52250000D02*
X102550000Y-53750000D01*
X102550000Y-53750000D02*
X100050000Y-53750000D01*
X112050000Y-25250000D02*
X99950000Y-25250000D01*
X99950000Y-54750000D01*
X112050000Y-54750000D01*
X112050000Y-25250000D01*
D15*
G04 #@! TO.C,U1*
X123875331Y-57025000D02*
X124308344Y-57275000D01*
X123875331Y-57525000D02*
X123875331Y-57025000D01*
X124308344Y-57275000D02*
X123875331Y-57525000D01*
X124769669Y-15140000D02*
X138659669Y-15140000D01*
X124769669Y-68360000D02*
X124769669Y-15140000D01*
X138659669Y-68360000D02*
X124769669Y-68360000D01*
D14*
G04 #@! TO.C,J2*
X100342000Y1298000D02*
X100345000Y8665000D01*
X100345000Y8665000D02*
X116595000Y8665000D01*
X100345000Y-7085000D02*
X100342000Y-2258000D01*
X105470000Y7540000D02*
X105470000Y8540000D01*
X111720000Y8540000D02*
X111720000Y7540000D01*
X111720000Y7540000D02*
X105470000Y7540000D01*
X116595000Y8665000D02*
X116598000Y1044000D01*
X116595000Y-7085000D02*
X100345000Y-7085000D01*
X116595000Y-7085000D02*
X116598000Y-2258000D01*
G04 #@! TD*
M02*
