G04 #@! TF.GenerationSoftware,KiCad,Pcbnew,8.0.5*
G04 #@! TF.CreationDate,2024-09-25T12:16:05+03:00*
G04 #@! TF.ProjectId,lichuan-lc10,6c696368-7561-46e2-9d6c-6331302e6b69,rev?*
G04 #@! TF.SameCoordinates,Original*
G04 #@! TF.FileFunction,Legend,Bot*
G04 #@! TF.FilePolarity,Positive*
%FSLAX46Y46*%
G04 Gerber Fmt 4.6, Leading zero omitted, Abs format (unit mm)*
G04 Created by KiCad (PCBNEW 8.0.5) date 2024-09-25 12:16:05*
%MOMM*%
%LPD*%
G01*
G04 APERTURE LIST*
%ADD10C,0.150000*%
%ADD11C,0.120000*%
G04 APERTURE END LIST*
D10*
X134433333Y-42504819D02*
X134433333Y-43219104D01*
X134433333Y-43219104D02*
X134480952Y-43361961D01*
X134480952Y-43361961D02*
X134576190Y-43457200D01*
X134576190Y-43457200D02*
X134719047Y-43504819D01*
X134719047Y-43504819D02*
X134814285Y-43504819D01*
X133957142Y-43504819D02*
X133957142Y-42504819D01*
X133957142Y-42504819D02*
X133576190Y-42504819D01*
X133576190Y-42504819D02*
X133480952Y-42552438D01*
X133480952Y-42552438D02*
X133433333Y-42600057D01*
X133433333Y-42600057D02*
X133385714Y-42695295D01*
X133385714Y-42695295D02*
X133385714Y-42838152D01*
X133385714Y-42838152D02*
X133433333Y-42933390D01*
X133433333Y-42933390D02*
X133480952Y-42981009D01*
X133480952Y-42981009D02*
X133576190Y-43028628D01*
X133576190Y-43028628D02*
X133957142Y-43028628D01*
X133004761Y-42600057D02*
X132957142Y-42552438D01*
X132957142Y-42552438D02*
X132861904Y-42504819D01*
X132861904Y-42504819D02*
X132623809Y-42504819D01*
X132623809Y-42504819D02*
X132528571Y-42552438D01*
X132528571Y-42552438D02*
X132480952Y-42600057D01*
X132480952Y-42600057D02*
X132433333Y-42695295D01*
X132433333Y-42695295D02*
X132433333Y-42790533D01*
X132433333Y-42790533D02*
X132480952Y-42933390D01*
X132480952Y-42933390D02*
X133052380Y-43504819D01*
X133052380Y-43504819D02*
X132433333Y-43504819D01*
X112583333Y-3204819D02*
X112583333Y-3919104D01*
X112583333Y-3919104D02*
X112630952Y-4061961D01*
X112630952Y-4061961D02*
X112726190Y-4157200D01*
X112726190Y-4157200D02*
X112869047Y-4204819D01*
X112869047Y-4204819D02*
X112964285Y-4204819D01*
X112107142Y-4204819D02*
X112107142Y-3204819D01*
X112107142Y-3204819D02*
X111726190Y-3204819D01*
X111726190Y-3204819D02*
X111630952Y-3252438D01*
X111630952Y-3252438D02*
X111583333Y-3300057D01*
X111583333Y-3300057D02*
X111535714Y-3395295D01*
X111535714Y-3395295D02*
X111535714Y-3538152D01*
X111535714Y-3538152D02*
X111583333Y-3633390D01*
X111583333Y-3633390D02*
X111630952Y-3681009D01*
X111630952Y-3681009D02*
X111726190Y-3728628D01*
X111726190Y-3728628D02*
X112107142Y-3728628D01*
X111202380Y-3204819D02*
X110583333Y-3204819D01*
X110583333Y-3204819D02*
X110916666Y-3585771D01*
X110916666Y-3585771D02*
X110773809Y-3585771D01*
X110773809Y-3585771D02*
X110678571Y-3633390D01*
X110678571Y-3633390D02*
X110630952Y-3681009D01*
X110630952Y-3681009D02*
X110583333Y-3776247D01*
X110583333Y-3776247D02*
X110583333Y-4014342D01*
X110583333Y-4014342D02*
X110630952Y-4109580D01*
X110630952Y-4109580D02*
X110678571Y-4157200D01*
X110678571Y-4157200D02*
X110773809Y-4204819D01*
X110773809Y-4204819D02*
X111059523Y-4204819D01*
X111059523Y-4204819D02*
X111154761Y-4157200D01*
X111154761Y-4157200D02*
X111202380Y-4109580D01*
X132833333Y-3204819D02*
X132833333Y-3919104D01*
X132833333Y-3919104D02*
X132880952Y-4061961D01*
X132880952Y-4061961D02*
X132976190Y-4157200D01*
X132976190Y-4157200D02*
X133119047Y-4204819D01*
X133119047Y-4204819D02*
X133214285Y-4204819D01*
X132357142Y-4204819D02*
X132357142Y-3204819D01*
X132357142Y-3204819D02*
X131976190Y-3204819D01*
X131976190Y-3204819D02*
X131880952Y-3252438D01*
X131880952Y-3252438D02*
X131833333Y-3300057D01*
X131833333Y-3300057D02*
X131785714Y-3395295D01*
X131785714Y-3395295D02*
X131785714Y-3538152D01*
X131785714Y-3538152D02*
X131833333Y-3633390D01*
X131833333Y-3633390D02*
X131880952Y-3681009D01*
X131880952Y-3681009D02*
X131976190Y-3728628D01*
X131976190Y-3728628D02*
X132357142Y-3728628D01*
X130833333Y-4204819D02*
X131404761Y-4204819D01*
X131119047Y-4204819D02*
X131119047Y-3204819D01*
X131119047Y-3204819D02*
X131214285Y-3347676D01*
X131214285Y-3347676D02*
X131309523Y-3442914D01*
X131309523Y-3442914D02*
X131404761Y-3490533D01*
D11*
G04 #@! TO.C,JP2*
X132200000Y-41550000D02*
X132200000Y-40950000D01*
X132900000Y-40250000D02*
X134300000Y-40250000D01*
X134300000Y-42250000D02*
X132900000Y-42250000D01*
X135000000Y-40950000D02*
X135000000Y-41550000D01*
X132200000Y-40950000D02*
G75*
G02*
X132900000Y-40250000I699999J1D01*
G01*
X132900000Y-42250000D02*
G75*
G02*
X132200000Y-41550000I-1J699999D01*
G01*
X134300000Y-40250000D02*
G75*
G02*
X135000000Y-40950000I0J-700000D01*
G01*
X135000000Y-41550000D02*
G75*
G02*
X134300000Y-42250000I-700000J0D01*
G01*
G04 #@! TO.C,JP3*
X113450000Y-3800000D02*
X113450000Y-3200000D01*
X114150000Y-2500000D02*
X115550000Y-2500000D01*
X115550000Y-4500000D02*
X114150000Y-4500000D01*
X116250000Y-3200000D02*
X116250000Y-3800000D01*
X113450000Y-3200000D02*
G75*
G02*
X114150000Y-2500000I700000J0D01*
G01*
X114150000Y-4500000D02*
G75*
G02*
X113450000Y-3800000I0J700000D01*
G01*
X115550000Y-2500000D02*
G75*
G02*
X116250000Y-3200000I1J-699999D01*
G01*
X116250000Y-3800000D02*
G75*
G02*
X115550000Y-4500000I-699999J-1D01*
G01*
G04 #@! TO.C,JP1*
X133600000Y-3800000D02*
X133600000Y-3200000D01*
X134300000Y-2500000D02*
X135700000Y-2500000D01*
X135700000Y-4500000D02*
X134300000Y-4500000D01*
X136400000Y-3200000D02*
X136400000Y-3800000D01*
X133600000Y-3200000D02*
G75*
G02*
X134300000Y-2500000I700000J0D01*
G01*
X134300000Y-4500000D02*
G75*
G02*
X133600000Y-3800000I0J700000D01*
G01*
X135700000Y-2500000D02*
G75*
G02*
X136400000Y-3200000I1J-699999D01*
G01*
X136400000Y-3800000D02*
G75*
G02*
X135700000Y-4500000I-699999J-1D01*
G01*
G04 #@! TD*
M02*
