M48
; DRILL file {KiCad 8.0.4} date 2024-08-29T22:42:54+0300
; FORMAT={-:-/ absolute / metric / decimal}
; #@! TF.CreationDate,2024-08-29T22:42:54+03:00
; #@! TF.GenerationSoftware,Kicad,Pcbnew,8.0.4
; #@! TF.FileFunction,MixedPlating,1,2
FMAT,2
METRIC
; #@! TA.AperFunction,Plated,PTH,ViaDrill
T1C0.300
; #@! TA.AperFunction,Plated,PTH,ComponentDrill
T2C0.890
; #@! TA.AperFunction,Plated,PTH,ComponentDrill
T3C1.000
; #@! TA.AperFunction,Plated,PTH,ComponentDrill
T4C1.800
; #@! TA.AperFunction,Plated,PTH,ComponentDrill
T5C3.200
; #@! TA.AperFunction,NonPlated,NPTH,ComponentDrill
T6C3.250
%
G90
G05
T1
X114.25Y-2.5
X121.75Y-25.25
X127.25Y-4.0
X132.25Y-39.0
T2
X101.61Y-6.09
X103.9Y-6.09
X104.9Y0.5
X105.92Y-1.28
X106.94Y0.5
X107.96Y-1.28
X108.98Y0.5
X110.0Y-1.28
X111.02Y0.5
X112.04Y-1.28
X113.04Y-6.09
X115.33Y-6.09
X121.57Y-6.0
X123.86Y-6.0
X124.86Y0.59
X125.88Y-1.19
X126.9Y0.59
X127.92Y-1.19
X128.94Y0.59
X129.96Y-1.19
X130.98Y0.59
X132.0Y-1.19
X133.0Y-6.0
X135.29Y-6.0
T3
X104.65Y-28.5
X104.65Y-35.5
X104.65Y-42.5
X104.65Y-49.5
X105.25Y-18.975
X105.25Y-21.515
X105.5Y-57.92
X105.5Y-60.46
X105.5Y-63.0
X109.75Y-32.0
X109.75Y-39.0
X109.75Y-46.0
X109.75Y-53.0
X126.41Y-25.215
X126.41Y-27.505
X126.41Y-29.795
X126.41Y-32.085
X126.41Y-34.375
X126.41Y-36.665
X126.41Y-38.955
X126.41Y-41.245
X126.41Y-43.535
X126.41Y-45.825
X126.41Y-48.115
X126.41Y-50.405
X126.41Y-52.695
X126.41Y-54.985
X126.41Y-57.275
X128.39Y-26.36
X128.39Y-28.65
X128.39Y-30.94
X128.39Y-33.23
X128.39Y-35.52
X128.39Y-37.81
X128.39Y-40.1
X128.39Y-42.39
X128.39Y-44.68
X128.39Y-46.97
X128.39Y-49.26
X128.39Y-51.55
X128.39Y-53.84
X128.39Y-56.13
X128.39Y-58.42
X130.37Y-27.505
X130.37Y-29.795
X130.37Y-32.085
X130.37Y-34.375
X130.37Y-36.665
X130.37Y-38.955
X130.37Y-41.245
X130.37Y-43.535
X130.37Y-45.825
X130.37Y-48.115
X130.37Y-50.405
X130.37Y-52.695
X130.37Y-54.985
X130.37Y-57.275
T4
X100.34Y-0.52
X116.6Y-0.52
X120.3Y-0.43
X136.56Y-0.43
T5
X127.83Y-18.2
X127.83Y-65.3
T6
X102.12Y3.04
X114.82Y3.04
X122.08Y3.13
X134.78Y3.13
M30
