%TF.GenerationSoftware,KiCad,Pcbnew,8.0.8*%
%TF.CreationDate,2025-03-26T21:35:13+02:00*%
%TF.ProjectId,rioctrl-spindle,72696f63-7472-46c2-9d73-70696e646c65,rev?*%
%TF.SameCoordinates,Original*%
%TF.FileFunction,Drillmap*%
%TF.FilePolarity,Positive*%
%FSLAX45Y45*%
G04 Gerber Fmt 4.5, Leading zero omitted, Abs format (unit mm)*
G04 Created by KiCad (PCBNEW 8.0.8) date 2025-03-26 21:35:13*
%MOMM*%
%LPD*%
G01*
G04 APERTURE LIST*
%ADD10C,0.050000*%
%ADD11C,0.200000*%
%ADD12C,0.100000*%
%ADD13C,0.180000*%
%ADD14C,0.320000*%
G04 APERTURE END LIST*
D10*
X10000000Y-5300000D02*
G75*
G02*
X10300000Y-5000000I300000J0D01*
G01*
X10300000Y-15000000D02*
G75*
G02*
X10000000Y-14700000I0J300000D01*
G01*
X10300000Y-5000000D02*
X19700000Y-5000000D01*
X10000000Y-14700000D02*
X10000000Y-5300000D01*
X19700000Y-5000000D02*
G75*
G02*
X20000000Y-5300000I0J-300000D01*
G01*
X20000000Y-14700000D02*
G75*
G02*
X19700000Y-15000000I-300000J0D01*
G01*
X19700000Y-15000000D02*
X10300000Y-15000000D01*
X20000000Y-5300000D02*
X20000000Y-14700000D01*
D11*
D12*
X11845000Y-6765000D02*
X11875000Y-6795000D01*
X11875000Y-6765000D02*
X11845000Y-6795000D01*
X12125000Y-7325000D02*
X12155000Y-7355000D01*
X12155000Y-7325000D02*
X12125000Y-7355000D01*
X12529254Y-6640746D02*
X12559254Y-6670746D01*
X12559254Y-6640746D02*
X12529254Y-6670746D01*
X12565000Y-6565000D02*
X12595000Y-6595000D01*
X12595000Y-6565000D02*
X12565000Y-6595000D01*
X12625000Y-6065000D02*
X12655000Y-6095000D01*
X12655000Y-6065000D02*
X12625000Y-6095000D01*
X13705000Y-9245000D02*
X13735000Y-9275000D01*
X13735000Y-9245000D02*
X13705000Y-9275000D01*
X14625000Y-8745000D02*
X14655000Y-8775000D01*
X14655000Y-8745000D02*
X14625000Y-8775000D01*
X14885000Y-13965000D02*
X14915000Y-13995000D01*
X14915000Y-13965000D02*
X14885000Y-13995000D01*
X15065000Y-13545000D02*
X15095000Y-13575000D01*
X15095000Y-13545000D02*
X15065000Y-13575000D01*
X15085000Y-13865000D02*
X15115000Y-13895000D01*
X15115000Y-13865000D02*
X15085000Y-13895000D01*
X15585000Y-7785000D02*
X15615000Y-7815000D01*
X15615000Y-7785000D02*
X15585000Y-7815000D01*
X15745000Y-8765000D02*
X15775000Y-8795000D01*
X15775000Y-8765000D02*
X15745000Y-8795000D01*
X15945000Y-13585000D02*
X15975000Y-13615000D01*
X15975000Y-13585000D02*
X15945000Y-13615000D01*
X15965000Y-7605000D02*
X15995000Y-7635000D01*
X15995000Y-7605000D02*
X15965000Y-7635000D01*
X16005000Y-13945000D02*
X16035000Y-13975000D01*
X16035000Y-13945000D02*
X16005000Y-13975000D01*
X16065000Y-13765000D02*
X16095000Y-13795000D01*
X16095000Y-13765000D02*
X16065000Y-13795000D01*
X16145000Y-10525000D02*
X16175000Y-10555000D01*
X16175000Y-10525000D02*
X16145000Y-10555000D01*
X16231750Y-8571750D02*
X16261750Y-8601750D01*
X16261750Y-8571750D02*
X16231750Y-8601750D01*
X16325000Y-10385000D02*
X16355000Y-10415000D01*
X16355000Y-10385000D02*
X16325000Y-10415000D01*
X16585000Y-7805000D02*
X16615000Y-7835000D01*
X16615000Y-7805000D02*
X16585000Y-7835000D01*
X17105000Y-13625000D02*
X17135000Y-13655000D01*
X17135000Y-13625000D02*
X17105000Y-13655000D01*
X17985000Y-13285000D02*
X18015000Y-13315000D01*
X18015000Y-13285000D02*
X17985000Y-13315000D01*
X18165000Y-13445000D02*
X18195000Y-13475000D01*
X18195000Y-13445000D02*
X18165000Y-13475000D01*
X19145000Y-6325000D02*
X19175000Y-6355000D01*
X19175000Y-6325000D02*
X19145000Y-6355000D01*
X19225000Y-6525000D02*
X19255000Y-6555000D01*
X19255000Y-6525000D02*
X19225000Y-6555000D01*
X10730000Y-8120000D02*
G75*
G02*
X10690000Y-8120000I-20000J0D01*
G01*
X10690000Y-8120000D02*
G75*
G02*
X10730000Y-8120000I20000J0D01*
G01*
X11330000Y-8430000D02*
G75*
G02*
X11290000Y-8430000I-20000J0D01*
G01*
X11290000Y-8430000D02*
G75*
G02*
X11330000Y-8430000I20000J0D01*
G01*
X11410000Y-6810000D02*
G75*
G02*
X11370000Y-6810000I-20000J0D01*
G01*
X11370000Y-6810000D02*
G75*
G02*
X11410000Y-6810000I20000J0D01*
G01*
X11430000Y-7180000D02*
G75*
G02*
X11390000Y-7180000I-20000J0D01*
G01*
X11390000Y-7180000D02*
G75*
G02*
X11430000Y-7180000I20000J0D01*
G01*
X11470000Y-8110000D02*
G75*
G02*
X11430000Y-8110000I-20000J0D01*
G01*
X11430000Y-8110000D02*
G75*
G02*
X11470000Y-8110000I20000J0D01*
G01*
X11650000Y-7750000D02*
G75*
G02*
X11610000Y-7750000I-20000J0D01*
G01*
X11610000Y-7750000D02*
G75*
G02*
X11650000Y-7750000I20000J0D01*
G01*
X11969650Y-6980551D02*
G75*
G02*
X11929650Y-6980551I-20000J0D01*
G01*
X11929650Y-6980551D02*
G75*
G02*
X11969650Y-6980551I20000J0D01*
G01*
X11980000Y-8460000D02*
G75*
G02*
X11940000Y-8460000I-20000J0D01*
G01*
X11940000Y-8460000D02*
G75*
G02*
X11980000Y-8460000I20000J0D01*
G01*
X12120000Y-5840000D02*
G75*
G02*
X12080000Y-5840000I-20000J0D01*
G01*
X12080000Y-5840000D02*
G75*
G02*
X12120000Y-5840000I20000J0D01*
G01*
X12160000Y-7170000D02*
G75*
G02*
X12120000Y-7170000I-20000J0D01*
G01*
X12120000Y-7170000D02*
G75*
G02*
X12160000Y-7170000I20000J0D01*
G01*
X12170000Y-8100000D02*
G75*
G02*
X12130000Y-8100000I-20000J0D01*
G01*
X12130000Y-8100000D02*
G75*
G02*
X12170000Y-8100000I20000J0D01*
G01*
X12180000Y-8540000D02*
G75*
G02*
X12140000Y-8540000I-20000J0D01*
G01*
X12140000Y-8540000D02*
G75*
G02*
X12180000Y-8540000I20000J0D01*
G01*
X12770000Y-7770000D02*
G75*
G02*
X12730000Y-7770000I-20000J0D01*
G01*
X12730000Y-7770000D02*
G75*
G02*
X12770000Y-7770000I20000J0D01*
G01*
X12800000Y-8360000D02*
G75*
G02*
X12760000Y-8360000I-20000J0D01*
G01*
X12760000Y-8360000D02*
G75*
G02*
X12800000Y-8360000I20000J0D01*
G01*
X12990000Y-6750000D02*
G75*
G02*
X12950000Y-6750000I-20000J0D01*
G01*
X12950000Y-6750000D02*
G75*
G02*
X12990000Y-6750000I20000J0D01*
G01*
X13140000Y-6440000D02*
G75*
G02*
X13100000Y-6440000I-20000J0D01*
G01*
X13100000Y-6440000D02*
G75*
G02*
X13140000Y-6440000I20000J0D01*
G01*
X13900000Y-13460000D02*
G75*
G02*
X13860000Y-13460000I-20000J0D01*
G01*
X13860000Y-13460000D02*
G75*
G02*
X13900000Y-13460000I20000J0D01*
G01*
X14080000Y-8920000D02*
G75*
G02*
X14040000Y-8920000I-20000J0D01*
G01*
X14040000Y-8920000D02*
G75*
G02*
X14080000Y-8920000I20000J0D01*
G01*
X15400000Y-8560000D02*
G75*
G02*
X15360000Y-8560000I-20000J0D01*
G01*
X15360000Y-8560000D02*
G75*
G02*
X15400000Y-8560000I20000J0D01*
G01*
X15505000Y-8160000D02*
G75*
G02*
X15465000Y-8160000I-20000J0D01*
G01*
X15465000Y-8160000D02*
G75*
G02*
X15505000Y-8160000I20000J0D01*
G01*
X15640000Y-6220000D02*
G75*
G02*
X15600000Y-6220000I-20000J0D01*
G01*
X15600000Y-6220000D02*
G75*
G02*
X15640000Y-6220000I20000J0D01*
G01*
X15680000Y-6760000D02*
G75*
G02*
X15640000Y-6760000I-20000J0D01*
G01*
X15640000Y-6760000D02*
G75*
G02*
X15680000Y-6760000I20000J0D01*
G01*
X16500000Y-8820000D02*
G75*
G02*
X16460000Y-8820000I-20000J0D01*
G01*
X16460000Y-8820000D02*
G75*
G02*
X16500000Y-8820000I20000J0D01*
G01*
X17160000Y-8280000D02*
G75*
G02*
X17120000Y-8280000I-20000J0D01*
G01*
X17120000Y-8280000D02*
G75*
G02*
X17160000Y-8280000I20000J0D01*
G01*
X17240000Y-8780000D02*
G75*
G02*
X17200000Y-8780000I-20000J0D01*
G01*
X17200000Y-8780000D02*
G75*
G02*
X17240000Y-8780000I20000J0D01*
G01*
X17460000Y-8380000D02*
G75*
G02*
X17420000Y-8380000I-20000J0D01*
G01*
X17420000Y-8380000D02*
G75*
G02*
X17460000Y-8380000I20000J0D01*
G01*
X17940000Y-8400000D02*
G75*
G02*
X17900000Y-8400000I-20000J0D01*
G01*
X17900000Y-8400000D02*
G75*
G02*
X17940000Y-8400000I20000J0D01*
G01*
X18040000Y-8180000D02*
G75*
G02*
X18000000Y-8180000I-20000J0D01*
G01*
X18000000Y-8180000D02*
G75*
G02*
X18040000Y-8180000I20000J0D01*
G01*
X18440000Y-11080000D02*
G75*
G02*
X18400000Y-11080000I-20000J0D01*
G01*
X18400000Y-11080000D02*
G75*
G02*
X18440000Y-11080000I20000J0D01*
G01*
X18540000Y-8180000D02*
G75*
G02*
X18500000Y-8180000I-20000J0D01*
G01*
X18500000Y-8180000D02*
G75*
G02*
X18540000Y-8180000I20000J0D01*
G01*
X18540000Y-11220000D02*
G75*
G02*
X18500000Y-11220000I-20000J0D01*
G01*
X18500000Y-11220000D02*
G75*
G02*
X18540000Y-11220000I20000J0D01*
G01*
X18580000Y-8420000D02*
G75*
G02*
X18540000Y-8420000I-20000J0D01*
G01*
X18540000Y-8420000D02*
G75*
G02*
X18580000Y-8420000I20000J0D01*
G01*
X18680000Y-8360000D02*
G75*
G02*
X18640000Y-8360000I-20000J0D01*
G01*
X18640000Y-8360000D02*
G75*
G02*
X18680000Y-8360000I20000J0D01*
G01*
X19020000Y-9240000D02*
G75*
G02*
X18980000Y-9240000I-20000J0D01*
G01*
X18980000Y-9240000D02*
G75*
G02*
X19020000Y-9240000I20000J0D01*
G01*
X19200000Y-11140000D02*
G75*
G02*
X19160000Y-11140000I-20000J0D01*
G01*
X19160000Y-11140000D02*
G75*
G02*
X19200000Y-11140000I20000J0D01*
G01*
X19280000Y-10940000D02*
G75*
G02*
X19240000Y-10940000I-20000J0D01*
G01*
X19240000Y-10940000D02*
G75*
G02*
X19280000Y-10940000I20000J0D01*
G01*
X19360000Y-8420000D02*
G75*
G02*
X19320000Y-8420000I-20000J0D01*
G01*
X19320000Y-8420000D02*
G75*
G02*
X19360000Y-8420000I20000J0D01*
G01*
X19760000Y-10940000D02*
G75*
G02*
X19720000Y-10940000I-20000J0D01*
G01*
X19720000Y-10940000D02*
G75*
G02*
X19760000Y-10940000I20000J0D01*
G01*
X10160000Y-5375000D02*
X10160000Y-5425000D01*
X10135000Y-5400000D02*
X10185000Y-5400000D01*
X10160000Y-14575000D02*
X10160000Y-14625000D01*
X10135000Y-14600000D02*
X10185000Y-14600000D01*
X10230294Y-5205294D02*
X10230294Y-5255294D01*
X10205294Y-5230294D02*
X10255294Y-5230294D01*
X10230294Y-5544706D02*
X10230294Y-5594706D01*
X10205294Y-5569706D02*
X10255294Y-5569706D01*
X10230294Y-14405294D02*
X10230294Y-14455294D01*
X10205294Y-14430294D02*
X10255294Y-14430294D01*
X10230294Y-14744706D02*
X10230294Y-14794706D01*
X10205294Y-14769706D02*
X10255294Y-14769706D01*
X10400000Y-5135000D02*
X10400000Y-5185000D01*
X10375000Y-5160000D02*
X10425000Y-5160000D01*
X10400000Y-5615000D02*
X10400000Y-5665000D01*
X10375000Y-5640000D02*
X10425000Y-5640000D01*
X10400000Y-14335000D02*
X10400000Y-14385000D01*
X10375000Y-14360000D02*
X10425000Y-14360000D01*
X10400000Y-14815000D02*
X10400000Y-14865000D01*
X10375000Y-14840000D02*
X10425000Y-14840000D01*
X10569706Y-5205294D02*
X10569706Y-5255294D01*
X10544706Y-5230294D02*
X10594706Y-5230294D01*
X10569706Y-5544706D02*
X10569706Y-5594706D01*
X10544706Y-5569706D02*
X10594706Y-5569706D01*
X10569706Y-14405294D02*
X10569706Y-14455294D01*
X10544706Y-14430294D02*
X10594706Y-14430294D01*
X10569706Y-14744706D02*
X10569706Y-14794706D01*
X10544706Y-14769706D02*
X10594706Y-14769706D01*
X10640000Y-5375000D02*
X10640000Y-5425000D01*
X10615000Y-5400000D02*
X10665000Y-5400000D01*
X10640000Y-14575000D02*
X10640000Y-14625000D01*
X10615000Y-14600000D02*
X10665000Y-14600000D01*
X19360000Y-5375000D02*
X19360000Y-5425000D01*
X19335000Y-5400000D02*
X19385000Y-5400000D01*
X19360000Y-14575000D02*
X19360000Y-14625000D01*
X19335000Y-14600000D02*
X19385000Y-14600000D01*
X19430294Y-5205294D02*
X19430294Y-5255294D01*
X19405294Y-5230294D02*
X19455294Y-5230294D01*
X19430294Y-5544706D02*
X19430294Y-5594706D01*
X19405294Y-5569706D02*
X19455294Y-5569706D01*
X19430294Y-14405294D02*
X19430294Y-14455294D01*
X19405294Y-14430294D02*
X19455294Y-14430294D01*
X19430294Y-14744706D02*
X19430294Y-14794706D01*
X19405294Y-14769706D02*
X19455294Y-14769706D01*
X19600000Y-5135000D02*
X19600000Y-5185000D01*
X19575000Y-5160000D02*
X19625000Y-5160000D01*
X19600000Y-5615000D02*
X19600000Y-5665000D01*
X19575000Y-5640000D02*
X19625000Y-5640000D01*
X19600000Y-14335000D02*
X19600000Y-14385000D01*
X19575000Y-14360000D02*
X19625000Y-14360000D01*
X19600000Y-14815000D02*
X19600000Y-14865000D01*
X19575000Y-14840000D02*
X19625000Y-14840000D01*
X19769706Y-5205294D02*
X19769706Y-5255294D01*
X19744706Y-5230294D02*
X19794706Y-5230294D01*
X19769706Y-5544706D02*
X19769706Y-5594706D01*
X19744706Y-5569706D02*
X19794706Y-5569706D01*
X19769706Y-14405294D02*
X19769706Y-14455294D01*
X19744706Y-14430294D02*
X19794706Y-14430294D01*
X19769706Y-14744706D02*
X19769706Y-14794706D01*
X19744706Y-14769706D02*
X19794706Y-14769706D01*
X19840000Y-5375000D02*
X19840000Y-5425000D01*
X19815000Y-5400000D02*
X19865000Y-5400000D01*
X19840000Y-14575000D02*
X19840000Y-14625000D01*
X19815000Y-14600000D02*
X19865000Y-14600000D01*
X11082467Y-6188467D02*
X11082467Y-6125533D01*
X11019533Y-6125533D01*
X11019533Y-6188467D01*
X11082467Y-6188467D01*
X11311467Y-6188467D02*
X11311467Y-6125533D01*
X11248533Y-6125533D01*
X11248533Y-6188467D01*
X11311467Y-6188467D01*
X11411467Y-5529467D02*
X11411467Y-5466533D01*
X11348533Y-5466533D01*
X11348533Y-5529467D01*
X11411467Y-5529467D01*
X11513467Y-5707467D02*
X11513467Y-5644533D01*
X11450533Y-5644533D01*
X11450533Y-5707467D01*
X11513467Y-5707467D01*
X11615467Y-5529467D02*
X11615467Y-5466533D01*
X11552533Y-5466533D01*
X11552533Y-5529467D01*
X11615467Y-5529467D01*
X11717467Y-5707467D02*
X11717467Y-5644533D01*
X11654533Y-5644533D01*
X11654533Y-5707467D01*
X11717467Y-5707467D01*
X11819467Y-5529467D02*
X11819467Y-5466533D01*
X11756533Y-5466533D01*
X11756533Y-5529467D01*
X11819467Y-5529467D01*
X11921467Y-5707467D02*
X11921467Y-5644533D01*
X11858533Y-5644533D01*
X11858533Y-5707467D01*
X11921467Y-5707467D01*
X12023467Y-5529467D02*
X12023467Y-5466533D01*
X11960533Y-5466533D01*
X11960533Y-5529467D01*
X12023467Y-5529467D01*
X12125467Y-5707467D02*
X12125467Y-5644533D01*
X12062533Y-5644533D01*
X12062533Y-5707467D01*
X12125467Y-5707467D01*
X12225467Y-6188467D02*
X12225467Y-6125533D01*
X12162533Y-6125533D01*
X12162533Y-6188467D01*
X12225467Y-6188467D01*
X12454467Y-6188467D02*
X12454467Y-6125533D01*
X12391533Y-6125533D01*
X12391533Y-6188467D01*
X12454467Y-6188467D01*
X13476000Y-14350000D02*
X13526000Y-14300000D01*
X13476000Y-14250000D01*
X13426000Y-14300000D01*
X13476000Y-14350000D01*
X13476000Y-14604000D02*
X13526000Y-14554000D01*
X13476000Y-14504000D01*
X13426000Y-14554000D01*
X13476000Y-14604000D01*
X13730000Y-14350000D02*
X13780000Y-14300000D01*
X13730000Y-14250000D01*
X13680000Y-14300000D01*
X13730000Y-14350000D01*
X13730000Y-14604000D02*
X13780000Y-14554000D01*
X13730000Y-14504000D01*
X13680000Y-14554000D01*
X13730000Y-14604000D01*
X13984000Y-14350000D02*
X14034000Y-14300000D01*
X13984000Y-14250000D01*
X13934000Y-14300000D01*
X13984000Y-14350000D01*
X13984000Y-14604000D02*
X14034000Y-14554000D01*
X13984000Y-14504000D01*
X13934000Y-14554000D01*
X13984000Y-14604000D01*
X14238000Y-14350000D02*
X14288000Y-14300000D01*
X14238000Y-14250000D01*
X14188000Y-14300000D01*
X14238000Y-14350000D01*
X14238000Y-14604000D02*
X14288000Y-14554000D01*
X14238000Y-14504000D01*
X14188000Y-14554000D01*
X14238000Y-14604000D01*
X14492000Y-14350000D02*
X14542000Y-14300000D01*
X14492000Y-14250000D01*
X14442000Y-14300000D01*
X14492000Y-14350000D01*
X14492000Y-14604000D02*
X14542000Y-14554000D01*
X14492000Y-14504000D01*
X14442000Y-14554000D01*
X14492000Y-14604000D01*
X14746000Y-14350000D02*
X14796000Y-14300000D01*
X14746000Y-14250000D01*
X14696000Y-14300000D01*
X14746000Y-14350000D01*
X14746000Y-14604000D02*
X14796000Y-14554000D01*
X14746000Y-14504000D01*
X14696000Y-14554000D01*
X14746000Y-14604000D01*
X15000000Y-14350000D02*
X15050000Y-14300000D01*
X15000000Y-14250000D01*
X14950000Y-14300000D01*
X15000000Y-14350000D01*
X15000000Y-14604000D02*
X15050000Y-14554000D01*
X15000000Y-14504000D01*
X14950000Y-14554000D01*
X15000000Y-14604000D01*
X15254000Y-14350000D02*
X15304000Y-14300000D01*
X15254000Y-14250000D01*
X15204000Y-14300000D01*
X15254000Y-14350000D01*
X15254000Y-14604000D02*
X15304000Y-14554000D01*
X15254000Y-14504000D01*
X15204000Y-14554000D01*
X15254000Y-14604000D01*
X15508000Y-14350000D02*
X15558000Y-14300000D01*
X15508000Y-14250000D01*
X15458000Y-14300000D01*
X15508000Y-14350000D01*
X15508000Y-14604000D02*
X15558000Y-14554000D01*
X15508000Y-14504000D01*
X15458000Y-14554000D01*
X15508000Y-14604000D01*
X15762000Y-14350000D02*
X15812000Y-14300000D01*
X15762000Y-14250000D01*
X15712000Y-14300000D01*
X15762000Y-14350000D01*
X15762000Y-14604000D02*
X15812000Y-14554000D01*
X15762000Y-14504000D01*
X15712000Y-14554000D01*
X15762000Y-14604000D01*
X16016000Y-14350000D02*
X16066000Y-14300000D01*
X16016000Y-14250000D01*
X15966000Y-14300000D01*
X16016000Y-14350000D01*
X16016000Y-14604000D02*
X16066000Y-14554000D01*
X16016000Y-14504000D01*
X15966000Y-14554000D01*
X16016000Y-14604000D01*
X16270000Y-14350000D02*
X16320000Y-14300000D01*
X16270000Y-14250000D01*
X16220000Y-14300000D01*
X16270000Y-14350000D01*
X16270000Y-14604000D02*
X16320000Y-14554000D01*
X16270000Y-14504000D01*
X16220000Y-14554000D01*
X16270000Y-14604000D01*
X16524000Y-14350000D02*
X16574000Y-14300000D01*
X16524000Y-14250000D01*
X16474000Y-14300000D01*
X16524000Y-14350000D01*
X16524000Y-14604000D02*
X16574000Y-14554000D01*
X16524000Y-14504000D01*
X16474000Y-14554000D01*
X16524000Y-14604000D01*
X16620000Y-5804000D02*
X16670000Y-5754000D01*
X16620000Y-5704000D01*
X16570000Y-5754000D01*
X16620000Y-5804000D01*
X16620000Y-6054000D02*
X16670000Y-6004000D01*
X16620000Y-5954000D01*
X16570000Y-6004000D01*
X16620000Y-6054000D01*
X16970000Y-5804000D02*
X17020000Y-5754000D01*
X16970000Y-5704000D01*
X16920000Y-5754000D01*
X16970000Y-5804000D01*
X16970000Y-6054000D02*
X17020000Y-6004000D01*
X16970000Y-5954000D01*
X16920000Y-6004000D01*
X16970000Y-6054000D01*
X17320000Y-5804000D02*
X17370000Y-5754000D01*
X17320000Y-5704000D01*
X17270000Y-5754000D01*
X17320000Y-5804000D01*
X17320000Y-6054000D02*
X17370000Y-6004000D01*
X17320000Y-5954000D01*
X17270000Y-6004000D01*
X17320000Y-6054000D01*
X17670000Y-5804000D02*
X17720000Y-5754000D01*
X17670000Y-5704000D01*
X17620000Y-5754000D01*
X17670000Y-5804000D01*
X17670000Y-6054000D02*
X17720000Y-6004000D01*
X17670000Y-5954000D01*
X17620000Y-6004000D01*
X17670000Y-6054000D01*
X18020000Y-5804000D02*
X18070000Y-5754000D01*
X18020000Y-5704000D01*
X17970000Y-5754000D01*
X18020000Y-5804000D01*
X18020000Y-6054000D02*
X18070000Y-6004000D01*
X18020000Y-5954000D01*
X17970000Y-6004000D01*
X18020000Y-6054000D01*
D13*
X10834000Y-5510000D02*
X11014000Y-5690000D01*
X11014000Y-5510000D02*
X10834000Y-5690000D01*
X11014000Y-5600000D02*
G75*
G02*
X10834000Y-5600000I-90000J0D01*
G01*
X10834000Y-5600000D02*
G75*
G02*
X11014000Y-5600000I90000J0D01*
G01*
X12460000Y-5510000D02*
X12640000Y-5690000D01*
X12640000Y-5510000D02*
X12460000Y-5690000D01*
X12640000Y-5600000D02*
G75*
G02*
X12460000Y-5600000I-90000J0D01*
G01*
X12460000Y-5600000D02*
G75*
G02*
X12640000Y-5600000I90000J0D01*
G01*
D14*
X10240000Y-5240000D02*
X10560000Y-5560000D01*
X10560000Y-5240000D02*
X10240000Y-5560000D01*
X10400000Y-5240000D02*
X10400000Y-5560000D01*
X10240000Y-5400000D02*
X10560000Y-5400000D01*
X10240000Y-14440000D02*
X10560000Y-14760000D01*
X10560000Y-14440000D02*
X10240000Y-14760000D01*
X10400000Y-14440000D02*
X10400000Y-14760000D01*
X10240000Y-14600000D02*
X10560000Y-14600000D01*
X19440000Y-5240000D02*
X19760000Y-5560000D01*
X19760000Y-5240000D02*
X19440000Y-5560000D01*
X19600000Y-5240000D02*
X19600000Y-5560000D01*
X19440000Y-5400000D02*
X19760000Y-5400000D01*
X19440000Y-14440000D02*
X19760000Y-14760000D01*
X19760000Y-14440000D02*
X19440000Y-14760000D01*
X19600000Y-14440000D02*
X19600000Y-14760000D01*
X19440000Y-14600000D02*
X19760000Y-14600000D01*
D11*
X10258277Y-15313984D02*
X10258277Y-15113984D01*
X10258277Y-15113984D02*
X10305896Y-15113984D01*
X10305896Y-15113984D02*
X10334467Y-15123508D01*
X10334467Y-15123508D02*
X10353515Y-15142555D01*
X10353515Y-15142555D02*
X10363039Y-15161603D01*
X10363039Y-15161603D02*
X10372563Y-15199698D01*
X10372563Y-15199698D02*
X10372563Y-15228269D01*
X10372563Y-15228269D02*
X10363039Y-15266365D01*
X10363039Y-15266365D02*
X10353515Y-15285412D01*
X10353515Y-15285412D02*
X10334467Y-15304460D01*
X10334467Y-15304460D02*
X10305896Y-15313984D01*
X10305896Y-15313984D02*
X10258277Y-15313984D01*
X10458277Y-15313984D02*
X10458277Y-15180650D01*
X10458277Y-15218746D02*
X10467801Y-15199698D01*
X10467801Y-15199698D02*
X10477324Y-15190174D01*
X10477324Y-15190174D02*
X10496372Y-15180650D01*
X10496372Y-15180650D02*
X10515420Y-15180650D01*
X10582086Y-15313984D02*
X10582086Y-15180650D01*
X10582086Y-15113984D02*
X10572563Y-15123508D01*
X10572563Y-15123508D02*
X10582086Y-15133031D01*
X10582086Y-15133031D02*
X10591610Y-15123508D01*
X10591610Y-15123508D02*
X10582086Y-15113984D01*
X10582086Y-15113984D02*
X10582086Y-15133031D01*
X10705896Y-15313984D02*
X10686848Y-15304460D01*
X10686848Y-15304460D02*
X10677324Y-15285412D01*
X10677324Y-15285412D02*
X10677324Y-15113984D01*
X10810658Y-15313984D02*
X10791610Y-15304460D01*
X10791610Y-15304460D02*
X10782086Y-15285412D01*
X10782086Y-15285412D02*
X10782086Y-15113984D01*
X11039229Y-15313984D02*
X11039229Y-15113984D01*
X11039229Y-15113984D02*
X11105896Y-15256841D01*
X11105896Y-15256841D02*
X11172563Y-15113984D01*
X11172563Y-15113984D02*
X11172563Y-15313984D01*
X11353515Y-15313984D02*
X11353515Y-15209222D01*
X11353515Y-15209222D02*
X11343991Y-15190174D01*
X11343991Y-15190174D02*
X11324943Y-15180650D01*
X11324943Y-15180650D02*
X11286848Y-15180650D01*
X11286848Y-15180650D02*
X11267801Y-15190174D01*
X11353515Y-15304460D02*
X11334467Y-15313984D01*
X11334467Y-15313984D02*
X11286848Y-15313984D01*
X11286848Y-15313984D02*
X11267801Y-15304460D01*
X11267801Y-15304460D02*
X11258277Y-15285412D01*
X11258277Y-15285412D02*
X11258277Y-15266365D01*
X11258277Y-15266365D02*
X11267801Y-15247317D01*
X11267801Y-15247317D02*
X11286848Y-15237793D01*
X11286848Y-15237793D02*
X11334467Y-15237793D01*
X11334467Y-15237793D02*
X11353515Y-15228269D01*
X11448753Y-15180650D02*
X11448753Y-15380650D01*
X11448753Y-15190174D02*
X11467801Y-15180650D01*
X11467801Y-15180650D02*
X11505896Y-15180650D01*
X11505896Y-15180650D02*
X11524943Y-15190174D01*
X11524943Y-15190174D02*
X11534467Y-15199698D01*
X11534467Y-15199698D02*
X11543991Y-15218746D01*
X11543991Y-15218746D02*
X11543991Y-15275888D01*
X11543991Y-15275888D02*
X11534467Y-15294936D01*
X11534467Y-15294936D02*
X11524943Y-15304460D01*
X11524943Y-15304460D02*
X11505896Y-15313984D01*
X11505896Y-15313984D02*
X11467801Y-15313984D01*
X11467801Y-15313984D02*
X11448753Y-15304460D01*
X11629705Y-15294936D02*
X11639229Y-15304460D01*
X11639229Y-15304460D02*
X11629705Y-15313984D01*
X11629705Y-15313984D02*
X11620182Y-15304460D01*
X11620182Y-15304460D02*
X11629705Y-15294936D01*
X11629705Y-15294936D02*
X11629705Y-15313984D01*
X11629705Y-15190174D02*
X11639229Y-15199698D01*
X11639229Y-15199698D02*
X11629705Y-15209222D01*
X11629705Y-15209222D02*
X11620182Y-15199698D01*
X11620182Y-15199698D02*
X11629705Y-15190174D01*
X11629705Y-15190174D02*
X11629705Y-15209222D01*
D12*
X9967500Y-15627500D02*
X9997500Y-15657500D01*
X9997500Y-15627500D02*
X9967500Y-15657500D01*
D11*
X10296372Y-15533984D02*
X10315420Y-15533984D01*
X10315420Y-15533984D02*
X10334467Y-15543508D01*
X10334467Y-15543508D02*
X10343991Y-15553031D01*
X10343991Y-15553031D02*
X10353515Y-15572079D01*
X10353515Y-15572079D02*
X10363039Y-15610174D01*
X10363039Y-15610174D02*
X10363039Y-15657793D01*
X10363039Y-15657793D02*
X10353515Y-15695888D01*
X10353515Y-15695888D02*
X10343991Y-15714936D01*
X10343991Y-15714936D02*
X10334467Y-15724460D01*
X10334467Y-15724460D02*
X10315420Y-15733984D01*
X10315420Y-15733984D02*
X10296372Y-15733984D01*
X10296372Y-15733984D02*
X10277324Y-15724460D01*
X10277324Y-15724460D02*
X10267801Y-15714936D01*
X10267801Y-15714936D02*
X10258277Y-15695888D01*
X10258277Y-15695888D02*
X10248753Y-15657793D01*
X10248753Y-15657793D02*
X10248753Y-15610174D01*
X10248753Y-15610174D02*
X10258277Y-15572079D01*
X10258277Y-15572079D02*
X10267801Y-15553031D01*
X10267801Y-15553031D02*
X10277324Y-15543508D01*
X10277324Y-15543508D02*
X10296372Y-15533984D01*
X10448753Y-15714936D02*
X10458277Y-15724460D01*
X10458277Y-15724460D02*
X10448753Y-15733984D01*
X10448753Y-15733984D02*
X10439229Y-15724460D01*
X10439229Y-15724460D02*
X10448753Y-15714936D01*
X10448753Y-15714936D02*
X10448753Y-15733984D01*
X10524944Y-15533984D02*
X10648753Y-15533984D01*
X10648753Y-15533984D02*
X10582086Y-15610174D01*
X10582086Y-15610174D02*
X10610658Y-15610174D01*
X10610658Y-15610174D02*
X10629705Y-15619698D01*
X10629705Y-15619698D02*
X10639229Y-15629222D01*
X10639229Y-15629222D02*
X10648753Y-15648269D01*
X10648753Y-15648269D02*
X10648753Y-15695888D01*
X10648753Y-15695888D02*
X10639229Y-15714936D01*
X10639229Y-15714936D02*
X10629705Y-15724460D01*
X10629705Y-15724460D02*
X10610658Y-15733984D01*
X10610658Y-15733984D02*
X10553515Y-15733984D01*
X10553515Y-15733984D02*
X10534467Y-15724460D01*
X10534467Y-15724460D02*
X10524944Y-15714936D01*
X10772563Y-15533984D02*
X10791610Y-15533984D01*
X10791610Y-15533984D02*
X10810658Y-15543508D01*
X10810658Y-15543508D02*
X10820182Y-15553031D01*
X10820182Y-15553031D02*
X10829705Y-15572079D01*
X10829705Y-15572079D02*
X10839229Y-15610174D01*
X10839229Y-15610174D02*
X10839229Y-15657793D01*
X10839229Y-15657793D02*
X10829705Y-15695888D01*
X10829705Y-15695888D02*
X10820182Y-15714936D01*
X10820182Y-15714936D02*
X10810658Y-15724460D01*
X10810658Y-15724460D02*
X10791610Y-15733984D01*
X10791610Y-15733984D02*
X10772563Y-15733984D01*
X10772563Y-15733984D02*
X10753515Y-15724460D01*
X10753515Y-15724460D02*
X10743991Y-15714936D01*
X10743991Y-15714936D02*
X10734467Y-15695888D01*
X10734467Y-15695888D02*
X10724944Y-15657793D01*
X10724944Y-15657793D02*
X10724944Y-15610174D01*
X10724944Y-15610174D02*
X10734467Y-15572079D01*
X10734467Y-15572079D02*
X10743991Y-15553031D01*
X10743991Y-15553031D02*
X10753515Y-15543508D01*
X10753515Y-15543508D02*
X10772563Y-15533984D01*
X10963039Y-15533984D02*
X10982086Y-15533984D01*
X10982086Y-15533984D02*
X11001134Y-15543508D01*
X11001134Y-15543508D02*
X11010658Y-15553031D01*
X11010658Y-15553031D02*
X11020182Y-15572079D01*
X11020182Y-15572079D02*
X11029705Y-15610174D01*
X11029705Y-15610174D02*
X11029705Y-15657793D01*
X11029705Y-15657793D02*
X11020182Y-15695888D01*
X11020182Y-15695888D02*
X11010658Y-15714936D01*
X11010658Y-15714936D02*
X11001134Y-15724460D01*
X11001134Y-15724460D02*
X10982086Y-15733984D01*
X10982086Y-15733984D02*
X10963039Y-15733984D01*
X10963039Y-15733984D02*
X10943991Y-15724460D01*
X10943991Y-15724460D02*
X10934467Y-15714936D01*
X10934467Y-15714936D02*
X10924944Y-15695888D01*
X10924944Y-15695888D02*
X10915420Y-15657793D01*
X10915420Y-15657793D02*
X10915420Y-15610174D01*
X10915420Y-15610174D02*
X10924944Y-15572079D01*
X10924944Y-15572079D02*
X10934467Y-15553031D01*
X10934467Y-15553031D02*
X10943991Y-15543508D01*
X10943991Y-15543508D02*
X10963039Y-15533984D01*
X11115420Y-15733984D02*
X11115420Y-15600650D01*
X11115420Y-15619698D02*
X11124944Y-15610174D01*
X11124944Y-15610174D02*
X11143991Y-15600650D01*
X11143991Y-15600650D02*
X11172563Y-15600650D01*
X11172563Y-15600650D02*
X11191610Y-15610174D01*
X11191610Y-15610174D02*
X11201134Y-15629222D01*
X11201134Y-15629222D02*
X11201134Y-15733984D01*
X11201134Y-15629222D02*
X11210658Y-15610174D01*
X11210658Y-15610174D02*
X11229705Y-15600650D01*
X11229705Y-15600650D02*
X11258277Y-15600650D01*
X11258277Y-15600650D02*
X11277324Y-15610174D01*
X11277324Y-15610174D02*
X11286848Y-15629222D01*
X11286848Y-15629222D02*
X11286848Y-15733984D01*
X11382086Y-15733984D02*
X11382086Y-15600650D01*
X11382086Y-15619698D02*
X11391610Y-15610174D01*
X11391610Y-15610174D02*
X11410658Y-15600650D01*
X11410658Y-15600650D02*
X11439229Y-15600650D01*
X11439229Y-15600650D02*
X11458277Y-15610174D01*
X11458277Y-15610174D02*
X11467801Y-15629222D01*
X11467801Y-15629222D02*
X11467801Y-15733984D01*
X11467801Y-15629222D02*
X11477324Y-15610174D01*
X11477324Y-15610174D02*
X11496372Y-15600650D01*
X11496372Y-15600650D02*
X11524943Y-15600650D01*
X11524943Y-15600650D02*
X11543991Y-15610174D01*
X11543991Y-15610174D02*
X11553515Y-15629222D01*
X11553515Y-15629222D02*
X11553515Y-15733984D01*
X11943991Y-15524460D02*
X11772563Y-15781603D01*
X12201134Y-15533984D02*
X12220182Y-15533984D01*
X12220182Y-15533984D02*
X12239229Y-15543508D01*
X12239229Y-15543508D02*
X12248753Y-15553031D01*
X12248753Y-15553031D02*
X12258277Y-15572079D01*
X12258277Y-15572079D02*
X12267801Y-15610174D01*
X12267801Y-15610174D02*
X12267801Y-15657793D01*
X12267801Y-15657793D02*
X12258277Y-15695888D01*
X12258277Y-15695888D02*
X12248753Y-15714936D01*
X12248753Y-15714936D02*
X12239229Y-15724460D01*
X12239229Y-15724460D02*
X12220182Y-15733984D01*
X12220182Y-15733984D02*
X12201134Y-15733984D01*
X12201134Y-15733984D02*
X12182086Y-15724460D01*
X12182086Y-15724460D02*
X12172563Y-15714936D01*
X12172563Y-15714936D02*
X12163039Y-15695888D01*
X12163039Y-15695888D02*
X12153515Y-15657793D01*
X12153515Y-15657793D02*
X12153515Y-15610174D01*
X12153515Y-15610174D02*
X12163039Y-15572079D01*
X12163039Y-15572079D02*
X12172563Y-15553031D01*
X12172563Y-15553031D02*
X12182086Y-15543508D01*
X12182086Y-15543508D02*
X12201134Y-15533984D01*
X12353515Y-15714936D02*
X12363039Y-15724460D01*
X12363039Y-15724460D02*
X12353515Y-15733984D01*
X12353515Y-15733984D02*
X12343991Y-15724460D01*
X12343991Y-15724460D02*
X12353515Y-15714936D01*
X12353515Y-15714936D02*
X12353515Y-15733984D01*
X12486848Y-15533984D02*
X12505896Y-15533984D01*
X12505896Y-15533984D02*
X12524944Y-15543508D01*
X12524944Y-15543508D02*
X12534467Y-15553031D01*
X12534467Y-15553031D02*
X12543991Y-15572079D01*
X12543991Y-15572079D02*
X12553515Y-15610174D01*
X12553515Y-15610174D02*
X12553515Y-15657793D01*
X12553515Y-15657793D02*
X12543991Y-15695888D01*
X12543991Y-15695888D02*
X12534467Y-15714936D01*
X12534467Y-15714936D02*
X12524944Y-15724460D01*
X12524944Y-15724460D02*
X12505896Y-15733984D01*
X12505896Y-15733984D02*
X12486848Y-15733984D01*
X12486848Y-15733984D02*
X12467801Y-15724460D01*
X12467801Y-15724460D02*
X12458277Y-15714936D01*
X12458277Y-15714936D02*
X12448753Y-15695888D01*
X12448753Y-15695888D02*
X12439229Y-15657793D01*
X12439229Y-15657793D02*
X12439229Y-15610174D01*
X12439229Y-15610174D02*
X12448753Y-15572079D01*
X12448753Y-15572079D02*
X12458277Y-15553031D01*
X12458277Y-15553031D02*
X12467801Y-15543508D01*
X12467801Y-15543508D02*
X12486848Y-15533984D01*
X12743991Y-15733984D02*
X12629706Y-15733984D01*
X12686848Y-15733984D02*
X12686848Y-15533984D01*
X12686848Y-15533984D02*
X12667801Y-15562555D01*
X12667801Y-15562555D02*
X12648753Y-15581603D01*
X12648753Y-15581603D02*
X12629706Y-15591127D01*
X12934467Y-15733984D02*
X12820182Y-15733984D01*
X12877325Y-15733984D02*
X12877325Y-15533984D01*
X12877325Y-15533984D02*
X12858277Y-15562555D01*
X12858277Y-15562555D02*
X12839229Y-15581603D01*
X12839229Y-15581603D02*
X12820182Y-15591127D01*
X13048753Y-15619698D02*
X13029706Y-15610174D01*
X13029706Y-15610174D02*
X13020182Y-15600650D01*
X13020182Y-15600650D02*
X13010658Y-15581603D01*
X13010658Y-15581603D02*
X13010658Y-15572079D01*
X13010658Y-15572079D02*
X13020182Y-15553031D01*
X13020182Y-15553031D02*
X13029706Y-15543508D01*
X13029706Y-15543508D02*
X13048753Y-15533984D01*
X13048753Y-15533984D02*
X13086848Y-15533984D01*
X13086848Y-15533984D02*
X13105896Y-15543508D01*
X13105896Y-15543508D02*
X13115420Y-15553031D01*
X13115420Y-15553031D02*
X13124944Y-15572079D01*
X13124944Y-15572079D02*
X13124944Y-15581603D01*
X13124944Y-15581603D02*
X13115420Y-15600650D01*
X13115420Y-15600650D02*
X13105896Y-15610174D01*
X13105896Y-15610174D02*
X13086848Y-15619698D01*
X13086848Y-15619698D02*
X13048753Y-15619698D01*
X13048753Y-15619698D02*
X13029706Y-15629222D01*
X13029706Y-15629222D02*
X13020182Y-15638746D01*
X13020182Y-15638746D02*
X13010658Y-15657793D01*
X13010658Y-15657793D02*
X13010658Y-15695888D01*
X13010658Y-15695888D02*
X13020182Y-15714936D01*
X13020182Y-15714936D02*
X13029706Y-15724460D01*
X13029706Y-15724460D02*
X13048753Y-15733984D01*
X13048753Y-15733984D02*
X13086848Y-15733984D01*
X13086848Y-15733984D02*
X13105896Y-15724460D01*
X13105896Y-15724460D02*
X13115420Y-15714936D01*
X13115420Y-15714936D02*
X13124944Y-15695888D01*
X13124944Y-15695888D02*
X13124944Y-15657793D01*
X13124944Y-15657793D02*
X13115420Y-15638746D01*
X13115420Y-15638746D02*
X13105896Y-15629222D01*
X13105896Y-15629222D02*
X13086848Y-15619698D01*
X13201134Y-15533984D02*
X13201134Y-15572079D01*
X13277325Y-15533984D02*
X13277325Y-15572079D01*
X13572563Y-15810174D02*
X13563039Y-15800650D01*
X13563039Y-15800650D02*
X13543991Y-15772079D01*
X13543991Y-15772079D02*
X13534468Y-15753031D01*
X13534468Y-15753031D02*
X13524944Y-15724460D01*
X13524944Y-15724460D02*
X13515420Y-15676841D01*
X13515420Y-15676841D02*
X13515420Y-15638746D01*
X13515420Y-15638746D02*
X13524944Y-15591127D01*
X13524944Y-15591127D02*
X13534468Y-15562555D01*
X13534468Y-15562555D02*
X13543991Y-15543508D01*
X13543991Y-15543508D02*
X13563039Y-15514936D01*
X13563039Y-15514936D02*
X13572563Y-15505412D01*
X13639229Y-15553031D02*
X13648753Y-15543508D01*
X13648753Y-15543508D02*
X13667801Y-15533984D01*
X13667801Y-15533984D02*
X13715420Y-15533984D01*
X13715420Y-15533984D02*
X13734468Y-15543508D01*
X13734468Y-15543508D02*
X13743991Y-15553031D01*
X13743991Y-15553031D02*
X13753515Y-15572079D01*
X13753515Y-15572079D02*
X13753515Y-15591127D01*
X13753515Y-15591127D02*
X13743991Y-15619698D01*
X13743991Y-15619698D02*
X13629706Y-15733984D01*
X13629706Y-15733984D02*
X13753515Y-15733984D01*
X13934468Y-15533984D02*
X13839229Y-15533984D01*
X13839229Y-15533984D02*
X13829706Y-15629222D01*
X13829706Y-15629222D02*
X13839229Y-15619698D01*
X13839229Y-15619698D02*
X13858277Y-15610174D01*
X13858277Y-15610174D02*
X13905896Y-15610174D01*
X13905896Y-15610174D02*
X13924944Y-15619698D01*
X13924944Y-15619698D02*
X13934468Y-15629222D01*
X13934468Y-15629222D02*
X13943991Y-15648269D01*
X13943991Y-15648269D02*
X13943991Y-15695888D01*
X13943991Y-15695888D02*
X13934468Y-15714936D01*
X13934468Y-15714936D02*
X13924944Y-15724460D01*
X13924944Y-15724460D02*
X13905896Y-15733984D01*
X13905896Y-15733984D02*
X13858277Y-15733984D01*
X13858277Y-15733984D02*
X13839229Y-15724460D01*
X13839229Y-15724460D02*
X13829706Y-15714936D01*
X14182087Y-15733984D02*
X14182087Y-15533984D01*
X14267801Y-15733984D02*
X14267801Y-15629222D01*
X14267801Y-15629222D02*
X14258277Y-15610174D01*
X14258277Y-15610174D02*
X14239230Y-15600650D01*
X14239230Y-15600650D02*
X14210658Y-15600650D01*
X14210658Y-15600650D02*
X14191610Y-15610174D01*
X14191610Y-15610174D02*
X14182087Y-15619698D01*
X14391610Y-15733984D02*
X14372563Y-15724460D01*
X14372563Y-15724460D02*
X14363039Y-15714936D01*
X14363039Y-15714936D02*
X14353515Y-15695888D01*
X14353515Y-15695888D02*
X14353515Y-15638746D01*
X14353515Y-15638746D02*
X14363039Y-15619698D01*
X14363039Y-15619698D02*
X14372563Y-15610174D01*
X14372563Y-15610174D02*
X14391610Y-15600650D01*
X14391610Y-15600650D02*
X14420182Y-15600650D01*
X14420182Y-15600650D02*
X14439230Y-15610174D01*
X14439230Y-15610174D02*
X14448753Y-15619698D01*
X14448753Y-15619698D02*
X14458277Y-15638746D01*
X14458277Y-15638746D02*
X14458277Y-15695888D01*
X14458277Y-15695888D02*
X14448753Y-15714936D01*
X14448753Y-15714936D02*
X14439230Y-15724460D01*
X14439230Y-15724460D02*
X14420182Y-15733984D01*
X14420182Y-15733984D02*
X14391610Y-15733984D01*
X14572563Y-15733984D02*
X14553515Y-15724460D01*
X14553515Y-15724460D02*
X14543991Y-15705412D01*
X14543991Y-15705412D02*
X14543991Y-15533984D01*
X14724944Y-15724460D02*
X14705896Y-15733984D01*
X14705896Y-15733984D02*
X14667801Y-15733984D01*
X14667801Y-15733984D02*
X14648753Y-15724460D01*
X14648753Y-15724460D02*
X14639230Y-15705412D01*
X14639230Y-15705412D02*
X14639230Y-15629222D01*
X14639230Y-15629222D02*
X14648753Y-15610174D01*
X14648753Y-15610174D02*
X14667801Y-15600650D01*
X14667801Y-15600650D02*
X14705896Y-15600650D01*
X14705896Y-15600650D02*
X14724944Y-15610174D01*
X14724944Y-15610174D02*
X14734468Y-15629222D01*
X14734468Y-15629222D02*
X14734468Y-15648269D01*
X14734468Y-15648269D02*
X14639230Y-15667317D01*
X14810658Y-15724460D02*
X14829706Y-15733984D01*
X14829706Y-15733984D02*
X14867801Y-15733984D01*
X14867801Y-15733984D02*
X14886849Y-15724460D01*
X14886849Y-15724460D02*
X14896372Y-15705412D01*
X14896372Y-15705412D02*
X14896372Y-15695888D01*
X14896372Y-15695888D02*
X14886849Y-15676841D01*
X14886849Y-15676841D02*
X14867801Y-15667317D01*
X14867801Y-15667317D02*
X14839230Y-15667317D01*
X14839230Y-15667317D02*
X14820182Y-15657793D01*
X14820182Y-15657793D02*
X14810658Y-15638746D01*
X14810658Y-15638746D02*
X14810658Y-15629222D01*
X14810658Y-15629222D02*
X14820182Y-15610174D01*
X14820182Y-15610174D02*
X14839230Y-15600650D01*
X14839230Y-15600650D02*
X14867801Y-15600650D01*
X14867801Y-15600650D02*
X14886849Y-15610174D01*
X14963039Y-15810174D02*
X14972563Y-15800650D01*
X14972563Y-15800650D02*
X14991611Y-15772079D01*
X14991611Y-15772079D02*
X15001134Y-15753031D01*
X15001134Y-15753031D02*
X15010658Y-15724460D01*
X15010658Y-15724460D02*
X15020182Y-15676841D01*
X15020182Y-15676841D02*
X15020182Y-15638746D01*
X15020182Y-15638746D02*
X15010658Y-15591127D01*
X15010658Y-15591127D02*
X15001134Y-15562555D01*
X15001134Y-15562555D02*
X14991611Y-15543508D01*
X14991611Y-15543508D02*
X14972563Y-15514936D01*
X14972563Y-15514936D02*
X14963039Y-15505412D01*
D12*
X9997500Y-15906500D02*
G75*
G02*
X9957500Y-15906500I-20000J0D01*
G01*
X9957500Y-15906500D02*
G75*
G02*
X9997500Y-15906500I20000J0D01*
G01*
D11*
X10296372Y-15797984D02*
X10315420Y-15797984D01*
X10315420Y-15797984D02*
X10334467Y-15807508D01*
X10334467Y-15807508D02*
X10343991Y-15817031D01*
X10343991Y-15817031D02*
X10353515Y-15836079D01*
X10353515Y-15836079D02*
X10363039Y-15874174D01*
X10363039Y-15874174D02*
X10363039Y-15921793D01*
X10363039Y-15921793D02*
X10353515Y-15959888D01*
X10353515Y-15959888D02*
X10343991Y-15978936D01*
X10343991Y-15978936D02*
X10334467Y-15988460D01*
X10334467Y-15988460D02*
X10315420Y-15997984D01*
X10315420Y-15997984D02*
X10296372Y-15997984D01*
X10296372Y-15997984D02*
X10277324Y-15988460D01*
X10277324Y-15988460D02*
X10267801Y-15978936D01*
X10267801Y-15978936D02*
X10258277Y-15959888D01*
X10258277Y-15959888D02*
X10248753Y-15921793D01*
X10248753Y-15921793D02*
X10248753Y-15874174D01*
X10248753Y-15874174D02*
X10258277Y-15836079D01*
X10258277Y-15836079D02*
X10267801Y-15817031D01*
X10267801Y-15817031D02*
X10277324Y-15807508D01*
X10277324Y-15807508D02*
X10296372Y-15797984D01*
X10448753Y-15978936D02*
X10458277Y-15988460D01*
X10458277Y-15988460D02*
X10448753Y-15997984D01*
X10448753Y-15997984D02*
X10439229Y-15988460D01*
X10439229Y-15988460D02*
X10448753Y-15978936D01*
X10448753Y-15978936D02*
X10448753Y-15997984D01*
X10629705Y-15864650D02*
X10629705Y-15997984D01*
X10582086Y-15788460D02*
X10534467Y-15931317D01*
X10534467Y-15931317D02*
X10658277Y-15931317D01*
X10772563Y-15797984D02*
X10791610Y-15797984D01*
X10791610Y-15797984D02*
X10810658Y-15807508D01*
X10810658Y-15807508D02*
X10820182Y-15817031D01*
X10820182Y-15817031D02*
X10829705Y-15836079D01*
X10829705Y-15836079D02*
X10839229Y-15874174D01*
X10839229Y-15874174D02*
X10839229Y-15921793D01*
X10839229Y-15921793D02*
X10829705Y-15959888D01*
X10829705Y-15959888D02*
X10820182Y-15978936D01*
X10820182Y-15978936D02*
X10810658Y-15988460D01*
X10810658Y-15988460D02*
X10791610Y-15997984D01*
X10791610Y-15997984D02*
X10772563Y-15997984D01*
X10772563Y-15997984D02*
X10753515Y-15988460D01*
X10753515Y-15988460D02*
X10743991Y-15978936D01*
X10743991Y-15978936D02*
X10734467Y-15959888D01*
X10734467Y-15959888D02*
X10724944Y-15921793D01*
X10724944Y-15921793D02*
X10724944Y-15874174D01*
X10724944Y-15874174D02*
X10734467Y-15836079D01*
X10734467Y-15836079D02*
X10743991Y-15817031D01*
X10743991Y-15817031D02*
X10753515Y-15807508D01*
X10753515Y-15807508D02*
X10772563Y-15797984D01*
X10963039Y-15797984D02*
X10982086Y-15797984D01*
X10982086Y-15797984D02*
X11001134Y-15807508D01*
X11001134Y-15807508D02*
X11010658Y-15817031D01*
X11010658Y-15817031D02*
X11020182Y-15836079D01*
X11020182Y-15836079D02*
X11029705Y-15874174D01*
X11029705Y-15874174D02*
X11029705Y-15921793D01*
X11029705Y-15921793D02*
X11020182Y-15959888D01*
X11020182Y-15959888D02*
X11010658Y-15978936D01*
X11010658Y-15978936D02*
X11001134Y-15988460D01*
X11001134Y-15988460D02*
X10982086Y-15997984D01*
X10982086Y-15997984D02*
X10963039Y-15997984D01*
X10963039Y-15997984D02*
X10943991Y-15988460D01*
X10943991Y-15988460D02*
X10934467Y-15978936D01*
X10934467Y-15978936D02*
X10924944Y-15959888D01*
X10924944Y-15959888D02*
X10915420Y-15921793D01*
X10915420Y-15921793D02*
X10915420Y-15874174D01*
X10915420Y-15874174D02*
X10924944Y-15836079D01*
X10924944Y-15836079D02*
X10934467Y-15817031D01*
X10934467Y-15817031D02*
X10943991Y-15807508D01*
X10943991Y-15807508D02*
X10963039Y-15797984D01*
X11115420Y-15997984D02*
X11115420Y-15864650D01*
X11115420Y-15883698D02*
X11124944Y-15874174D01*
X11124944Y-15874174D02*
X11143991Y-15864650D01*
X11143991Y-15864650D02*
X11172563Y-15864650D01*
X11172563Y-15864650D02*
X11191610Y-15874174D01*
X11191610Y-15874174D02*
X11201134Y-15893222D01*
X11201134Y-15893222D02*
X11201134Y-15997984D01*
X11201134Y-15893222D02*
X11210658Y-15874174D01*
X11210658Y-15874174D02*
X11229705Y-15864650D01*
X11229705Y-15864650D02*
X11258277Y-15864650D01*
X11258277Y-15864650D02*
X11277324Y-15874174D01*
X11277324Y-15874174D02*
X11286848Y-15893222D01*
X11286848Y-15893222D02*
X11286848Y-15997984D01*
X11382086Y-15997984D02*
X11382086Y-15864650D01*
X11382086Y-15883698D02*
X11391610Y-15874174D01*
X11391610Y-15874174D02*
X11410658Y-15864650D01*
X11410658Y-15864650D02*
X11439229Y-15864650D01*
X11439229Y-15864650D02*
X11458277Y-15874174D01*
X11458277Y-15874174D02*
X11467801Y-15893222D01*
X11467801Y-15893222D02*
X11467801Y-15997984D01*
X11467801Y-15893222D02*
X11477324Y-15874174D01*
X11477324Y-15874174D02*
X11496372Y-15864650D01*
X11496372Y-15864650D02*
X11524943Y-15864650D01*
X11524943Y-15864650D02*
X11543991Y-15874174D01*
X11543991Y-15874174D02*
X11553515Y-15893222D01*
X11553515Y-15893222D02*
X11553515Y-15997984D01*
X11943991Y-15788460D02*
X11772563Y-16045603D01*
X12201134Y-15797984D02*
X12220182Y-15797984D01*
X12220182Y-15797984D02*
X12239229Y-15807508D01*
X12239229Y-15807508D02*
X12248753Y-15817031D01*
X12248753Y-15817031D02*
X12258277Y-15836079D01*
X12258277Y-15836079D02*
X12267801Y-15874174D01*
X12267801Y-15874174D02*
X12267801Y-15921793D01*
X12267801Y-15921793D02*
X12258277Y-15959888D01*
X12258277Y-15959888D02*
X12248753Y-15978936D01*
X12248753Y-15978936D02*
X12239229Y-15988460D01*
X12239229Y-15988460D02*
X12220182Y-15997984D01*
X12220182Y-15997984D02*
X12201134Y-15997984D01*
X12201134Y-15997984D02*
X12182086Y-15988460D01*
X12182086Y-15988460D02*
X12172563Y-15978936D01*
X12172563Y-15978936D02*
X12163039Y-15959888D01*
X12163039Y-15959888D02*
X12153515Y-15921793D01*
X12153515Y-15921793D02*
X12153515Y-15874174D01*
X12153515Y-15874174D02*
X12163039Y-15836079D01*
X12163039Y-15836079D02*
X12172563Y-15817031D01*
X12172563Y-15817031D02*
X12182086Y-15807508D01*
X12182086Y-15807508D02*
X12201134Y-15797984D01*
X12353515Y-15978936D02*
X12363039Y-15988460D01*
X12363039Y-15988460D02*
X12353515Y-15997984D01*
X12353515Y-15997984D02*
X12343991Y-15988460D01*
X12343991Y-15988460D02*
X12353515Y-15978936D01*
X12353515Y-15978936D02*
X12353515Y-15997984D01*
X12486848Y-15797984D02*
X12505896Y-15797984D01*
X12505896Y-15797984D02*
X12524944Y-15807508D01*
X12524944Y-15807508D02*
X12534467Y-15817031D01*
X12534467Y-15817031D02*
X12543991Y-15836079D01*
X12543991Y-15836079D02*
X12553515Y-15874174D01*
X12553515Y-15874174D02*
X12553515Y-15921793D01*
X12553515Y-15921793D02*
X12543991Y-15959888D01*
X12543991Y-15959888D02*
X12534467Y-15978936D01*
X12534467Y-15978936D02*
X12524944Y-15988460D01*
X12524944Y-15988460D02*
X12505896Y-15997984D01*
X12505896Y-15997984D02*
X12486848Y-15997984D01*
X12486848Y-15997984D02*
X12467801Y-15988460D01*
X12467801Y-15988460D02*
X12458277Y-15978936D01*
X12458277Y-15978936D02*
X12448753Y-15959888D01*
X12448753Y-15959888D02*
X12439229Y-15921793D01*
X12439229Y-15921793D02*
X12439229Y-15874174D01*
X12439229Y-15874174D02*
X12448753Y-15836079D01*
X12448753Y-15836079D02*
X12458277Y-15817031D01*
X12458277Y-15817031D02*
X12467801Y-15807508D01*
X12467801Y-15807508D02*
X12486848Y-15797984D01*
X12743991Y-15997984D02*
X12629706Y-15997984D01*
X12686848Y-15997984D02*
X12686848Y-15797984D01*
X12686848Y-15797984D02*
X12667801Y-15826555D01*
X12667801Y-15826555D02*
X12648753Y-15845603D01*
X12648753Y-15845603D02*
X12629706Y-15855127D01*
X12924944Y-15797984D02*
X12829706Y-15797984D01*
X12829706Y-15797984D02*
X12820182Y-15893222D01*
X12820182Y-15893222D02*
X12829706Y-15883698D01*
X12829706Y-15883698D02*
X12848753Y-15874174D01*
X12848753Y-15874174D02*
X12896372Y-15874174D01*
X12896372Y-15874174D02*
X12915420Y-15883698D01*
X12915420Y-15883698D02*
X12924944Y-15893222D01*
X12924944Y-15893222D02*
X12934467Y-15912269D01*
X12934467Y-15912269D02*
X12934467Y-15959888D01*
X12934467Y-15959888D02*
X12924944Y-15978936D01*
X12924944Y-15978936D02*
X12915420Y-15988460D01*
X12915420Y-15988460D02*
X12896372Y-15997984D01*
X12896372Y-15997984D02*
X12848753Y-15997984D01*
X12848753Y-15997984D02*
X12829706Y-15988460D01*
X12829706Y-15988460D02*
X12820182Y-15978936D01*
X13001134Y-15797984D02*
X13134467Y-15797984D01*
X13134467Y-15797984D02*
X13048753Y-15997984D01*
X13201134Y-15797984D02*
X13201134Y-15836079D01*
X13277325Y-15797984D02*
X13277325Y-15836079D01*
X13572563Y-16074174D02*
X13563039Y-16064650D01*
X13563039Y-16064650D02*
X13543991Y-16036079D01*
X13543991Y-16036079D02*
X13534468Y-16017031D01*
X13534468Y-16017031D02*
X13524944Y-15988460D01*
X13524944Y-15988460D02*
X13515420Y-15940841D01*
X13515420Y-15940841D02*
X13515420Y-15902746D01*
X13515420Y-15902746D02*
X13524944Y-15855127D01*
X13524944Y-15855127D02*
X13534468Y-15826555D01*
X13534468Y-15826555D02*
X13543991Y-15807508D01*
X13543991Y-15807508D02*
X13563039Y-15778936D01*
X13563039Y-15778936D02*
X13572563Y-15769412D01*
X13629706Y-15797984D02*
X13753515Y-15797984D01*
X13753515Y-15797984D02*
X13686848Y-15874174D01*
X13686848Y-15874174D02*
X13715420Y-15874174D01*
X13715420Y-15874174D02*
X13734468Y-15883698D01*
X13734468Y-15883698D02*
X13743991Y-15893222D01*
X13743991Y-15893222D02*
X13753515Y-15912269D01*
X13753515Y-15912269D02*
X13753515Y-15959888D01*
X13753515Y-15959888D02*
X13743991Y-15978936D01*
X13743991Y-15978936D02*
X13734468Y-15988460D01*
X13734468Y-15988460D02*
X13715420Y-15997984D01*
X13715420Y-15997984D02*
X13658277Y-15997984D01*
X13658277Y-15997984D02*
X13639229Y-15988460D01*
X13639229Y-15988460D02*
X13629706Y-15978936D01*
X13867801Y-15883698D02*
X13848753Y-15874174D01*
X13848753Y-15874174D02*
X13839229Y-15864650D01*
X13839229Y-15864650D02*
X13829706Y-15845603D01*
X13829706Y-15845603D02*
X13829706Y-15836079D01*
X13829706Y-15836079D02*
X13839229Y-15817031D01*
X13839229Y-15817031D02*
X13848753Y-15807508D01*
X13848753Y-15807508D02*
X13867801Y-15797984D01*
X13867801Y-15797984D02*
X13905896Y-15797984D01*
X13905896Y-15797984D02*
X13924944Y-15807508D01*
X13924944Y-15807508D02*
X13934468Y-15817031D01*
X13934468Y-15817031D02*
X13943991Y-15836079D01*
X13943991Y-15836079D02*
X13943991Y-15845603D01*
X13943991Y-15845603D02*
X13934468Y-15864650D01*
X13934468Y-15864650D02*
X13924944Y-15874174D01*
X13924944Y-15874174D02*
X13905896Y-15883698D01*
X13905896Y-15883698D02*
X13867801Y-15883698D01*
X13867801Y-15883698D02*
X13848753Y-15893222D01*
X13848753Y-15893222D02*
X13839229Y-15902746D01*
X13839229Y-15902746D02*
X13829706Y-15921793D01*
X13829706Y-15921793D02*
X13829706Y-15959888D01*
X13829706Y-15959888D02*
X13839229Y-15978936D01*
X13839229Y-15978936D02*
X13848753Y-15988460D01*
X13848753Y-15988460D02*
X13867801Y-15997984D01*
X13867801Y-15997984D02*
X13905896Y-15997984D01*
X13905896Y-15997984D02*
X13924944Y-15988460D01*
X13924944Y-15988460D02*
X13934468Y-15978936D01*
X13934468Y-15978936D02*
X13943991Y-15959888D01*
X13943991Y-15959888D02*
X13943991Y-15921793D01*
X13943991Y-15921793D02*
X13934468Y-15902746D01*
X13934468Y-15902746D02*
X13924944Y-15893222D01*
X13924944Y-15893222D02*
X13905896Y-15883698D01*
X14182087Y-15997984D02*
X14182087Y-15797984D01*
X14267801Y-15997984D02*
X14267801Y-15893222D01*
X14267801Y-15893222D02*
X14258277Y-15874174D01*
X14258277Y-15874174D02*
X14239230Y-15864650D01*
X14239230Y-15864650D02*
X14210658Y-15864650D01*
X14210658Y-15864650D02*
X14191610Y-15874174D01*
X14191610Y-15874174D02*
X14182087Y-15883698D01*
X14391610Y-15997984D02*
X14372563Y-15988460D01*
X14372563Y-15988460D02*
X14363039Y-15978936D01*
X14363039Y-15978936D02*
X14353515Y-15959888D01*
X14353515Y-15959888D02*
X14353515Y-15902746D01*
X14353515Y-15902746D02*
X14363039Y-15883698D01*
X14363039Y-15883698D02*
X14372563Y-15874174D01*
X14372563Y-15874174D02*
X14391610Y-15864650D01*
X14391610Y-15864650D02*
X14420182Y-15864650D01*
X14420182Y-15864650D02*
X14439230Y-15874174D01*
X14439230Y-15874174D02*
X14448753Y-15883698D01*
X14448753Y-15883698D02*
X14458277Y-15902746D01*
X14458277Y-15902746D02*
X14458277Y-15959888D01*
X14458277Y-15959888D02*
X14448753Y-15978936D01*
X14448753Y-15978936D02*
X14439230Y-15988460D01*
X14439230Y-15988460D02*
X14420182Y-15997984D01*
X14420182Y-15997984D02*
X14391610Y-15997984D01*
X14572563Y-15997984D02*
X14553515Y-15988460D01*
X14553515Y-15988460D02*
X14543991Y-15969412D01*
X14543991Y-15969412D02*
X14543991Y-15797984D01*
X14724944Y-15988460D02*
X14705896Y-15997984D01*
X14705896Y-15997984D02*
X14667801Y-15997984D01*
X14667801Y-15997984D02*
X14648753Y-15988460D01*
X14648753Y-15988460D02*
X14639230Y-15969412D01*
X14639230Y-15969412D02*
X14639230Y-15893222D01*
X14639230Y-15893222D02*
X14648753Y-15874174D01*
X14648753Y-15874174D02*
X14667801Y-15864650D01*
X14667801Y-15864650D02*
X14705896Y-15864650D01*
X14705896Y-15864650D02*
X14724944Y-15874174D01*
X14724944Y-15874174D02*
X14734468Y-15893222D01*
X14734468Y-15893222D02*
X14734468Y-15912269D01*
X14734468Y-15912269D02*
X14639230Y-15931317D01*
X14810658Y-15988460D02*
X14829706Y-15997984D01*
X14829706Y-15997984D02*
X14867801Y-15997984D01*
X14867801Y-15997984D02*
X14886849Y-15988460D01*
X14886849Y-15988460D02*
X14896372Y-15969412D01*
X14896372Y-15969412D02*
X14896372Y-15959888D01*
X14896372Y-15959888D02*
X14886849Y-15940841D01*
X14886849Y-15940841D02*
X14867801Y-15931317D01*
X14867801Y-15931317D02*
X14839230Y-15931317D01*
X14839230Y-15931317D02*
X14820182Y-15921793D01*
X14820182Y-15921793D02*
X14810658Y-15902746D01*
X14810658Y-15902746D02*
X14810658Y-15893222D01*
X14810658Y-15893222D02*
X14820182Y-15874174D01*
X14820182Y-15874174D02*
X14839230Y-15864650D01*
X14839230Y-15864650D02*
X14867801Y-15864650D01*
X14867801Y-15864650D02*
X14886849Y-15874174D01*
X14963039Y-16074174D02*
X14972563Y-16064650D01*
X14972563Y-16064650D02*
X14991611Y-16036079D01*
X14991611Y-16036079D02*
X15001134Y-16017031D01*
X15001134Y-16017031D02*
X15010658Y-15988460D01*
X15010658Y-15988460D02*
X15020182Y-15940841D01*
X15020182Y-15940841D02*
X15020182Y-15902746D01*
X15020182Y-15902746D02*
X15010658Y-15855127D01*
X15010658Y-15855127D02*
X15001134Y-15826555D01*
X15001134Y-15826555D02*
X14991611Y-15807508D01*
X14991611Y-15807508D02*
X14972563Y-15778936D01*
X14972563Y-15778936D02*
X14963039Y-15769412D01*
D12*
X9972500Y-16145500D02*
X9972500Y-16195500D01*
X9947500Y-16170500D02*
X9997500Y-16170500D01*
D11*
X10296372Y-16061984D02*
X10315420Y-16061984D01*
X10315420Y-16061984D02*
X10334467Y-16071508D01*
X10334467Y-16071508D02*
X10343991Y-16081031D01*
X10343991Y-16081031D02*
X10353515Y-16100079D01*
X10353515Y-16100079D02*
X10363039Y-16138174D01*
X10363039Y-16138174D02*
X10363039Y-16185793D01*
X10363039Y-16185793D02*
X10353515Y-16223888D01*
X10353515Y-16223888D02*
X10343991Y-16242936D01*
X10343991Y-16242936D02*
X10334467Y-16252460D01*
X10334467Y-16252460D02*
X10315420Y-16261984D01*
X10315420Y-16261984D02*
X10296372Y-16261984D01*
X10296372Y-16261984D02*
X10277324Y-16252460D01*
X10277324Y-16252460D02*
X10267801Y-16242936D01*
X10267801Y-16242936D02*
X10258277Y-16223888D01*
X10258277Y-16223888D02*
X10248753Y-16185793D01*
X10248753Y-16185793D02*
X10248753Y-16138174D01*
X10248753Y-16138174D02*
X10258277Y-16100079D01*
X10258277Y-16100079D02*
X10267801Y-16081031D01*
X10267801Y-16081031D02*
X10277324Y-16071508D01*
X10277324Y-16071508D02*
X10296372Y-16061984D01*
X10448753Y-16242936D02*
X10458277Y-16252460D01*
X10458277Y-16252460D02*
X10448753Y-16261984D01*
X10448753Y-16261984D02*
X10439229Y-16252460D01*
X10439229Y-16252460D02*
X10448753Y-16242936D01*
X10448753Y-16242936D02*
X10448753Y-16261984D01*
X10639229Y-16061984D02*
X10543991Y-16061984D01*
X10543991Y-16061984D02*
X10534467Y-16157222D01*
X10534467Y-16157222D02*
X10543991Y-16147698D01*
X10543991Y-16147698D02*
X10563039Y-16138174D01*
X10563039Y-16138174D02*
X10610658Y-16138174D01*
X10610658Y-16138174D02*
X10629705Y-16147698D01*
X10629705Y-16147698D02*
X10639229Y-16157222D01*
X10639229Y-16157222D02*
X10648753Y-16176269D01*
X10648753Y-16176269D02*
X10648753Y-16223888D01*
X10648753Y-16223888D02*
X10639229Y-16242936D01*
X10639229Y-16242936D02*
X10629705Y-16252460D01*
X10629705Y-16252460D02*
X10610658Y-16261984D01*
X10610658Y-16261984D02*
X10563039Y-16261984D01*
X10563039Y-16261984D02*
X10543991Y-16252460D01*
X10543991Y-16252460D02*
X10534467Y-16242936D01*
X10772563Y-16061984D02*
X10791610Y-16061984D01*
X10791610Y-16061984D02*
X10810658Y-16071508D01*
X10810658Y-16071508D02*
X10820182Y-16081031D01*
X10820182Y-16081031D02*
X10829705Y-16100079D01*
X10829705Y-16100079D02*
X10839229Y-16138174D01*
X10839229Y-16138174D02*
X10839229Y-16185793D01*
X10839229Y-16185793D02*
X10829705Y-16223888D01*
X10829705Y-16223888D02*
X10820182Y-16242936D01*
X10820182Y-16242936D02*
X10810658Y-16252460D01*
X10810658Y-16252460D02*
X10791610Y-16261984D01*
X10791610Y-16261984D02*
X10772563Y-16261984D01*
X10772563Y-16261984D02*
X10753515Y-16252460D01*
X10753515Y-16252460D02*
X10743991Y-16242936D01*
X10743991Y-16242936D02*
X10734467Y-16223888D01*
X10734467Y-16223888D02*
X10724944Y-16185793D01*
X10724944Y-16185793D02*
X10724944Y-16138174D01*
X10724944Y-16138174D02*
X10734467Y-16100079D01*
X10734467Y-16100079D02*
X10743991Y-16081031D01*
X10743991Y-16081031D02*
X10753515Y-16071508D01*
X10753515Y-16071508D02*
X10772563Y-16061984D01*
X10963039Y-16061984D02*
X10982086Y-16061984D01*
X10982086Y-16061984D02*
X11001134Y-16071508D01*
X11001134Y-16071508D02*
X11010658Y-16081031D01*
X11010658Y-16081031D02*
X11020182Y-16100079D01*
X11020182Y-16100079D02*
X11029705Y-16138174D01*
X11029705Y-16138174D02*
X11029705Y-16185793D01*
X11029705Y-16185793D02*
X11020182Y-16223888D01*
X11020182Y-16223888D02*
X11010658Y-16242936D01*
X11010658Y-16242936D02*
X11001134Y-16252460D01*
X11001134Y-16252460D02*
X10982086Y-16261984D01*
X10982086Y-16261984D02*
X10963039Y-16261984D01*
X10963039Y-16261984D02*
X10943991Y-16252460D01*
X10943991Y-16252460D02*
X10934467Y-16242936D01*
X10934467Y-16242936D02*
X10924944Y-16223888D01*
X10924944Y-16223888D02*
X10915420Y-16185793D01*
X10915420Y-16185793D02*
X10915420Y-16138174D01*
X10915420Y-16138174D02*
X10924944Y-16100079D01*
X10924944Y-16100079D02*
X10934467Y-16081031D01*
X10934467Y-16081031D02*
X10943991Y-16071508D01*
X10943991Y-16071508D02*
X10963039Y-16061984D01*
X11115420Y-16261984D02*
X11115420Y-16128650D01*
X11115420Y-16147698D02*
X11124944Y-16138174D01*
X11124944Y-16138174D02*
X11143991Y-16128650D01*
X11143991Y-16128650D02*
X11172563Y-16128650D01*
X11172563Y-16128650D02*
X11191610Y-16138174D01*
X11191610Y-16138174D02*
X11201134Y-16157222D01*
X11201134Y-16157222D02*
X11201134Y-16261984D01*
X11201134Y-16157222D02*
X11210658Y-16138174D01*
X11210658Y-16138174D02*
X11229705Y-16128650D01*
X11229705Y-16128650D02*
X11258277Y-16128650D01*
X11258277Y-16128650D02*
X11277324Y-16138174D01*
X11277324Y-16138174D02*
X11286848Y-16157222D01*
X11286848Y-16157222D02*
X11286848Y-16261984D01*
X11382086Y-16261984D02*
X11382086Y-16128650D01*
X11382086Y-16147698D02*
X11391610Y-16138174D01*
X11391610Y-16138174D02*
X11410658Y-16128650D01*
X11410658Y-16128650D02*
X11439229Y-16128650D01*
X11439229Y-16128650D02*
X11458277Y-16138174D01*
X11458277Y-16138174D02*
X11467801Y-16157222D01*
X11467801Y-16157222D02*
X11467801Y-16261984D01*
X11467801Y-16157222D02*
X11477324Y-16138174D01*
X11477324Y-16138174D02*
X11496372Y-16128650D01*
X11496372Y-16128650D02*
X11524943Y-16128650D01*
X11524943Y-16128650D02*
X11543991Y-16138174D01*
X11543991Y-16138174D02*
X11553515Y-16157222D01*
X11553515Y-16157222D02*
X11553515Y-16261984D01*
X11943991Y-16052460D02*
X11772563Y-16309603D01*
X12201134Y-16061984D02*
X12220182Y-16061984D01*
X12220182Y-16061984D02*
X12239229Y-16071508D01*
X12239229Y-16071508D02*
X12248753Y-16081031D01*
X12248753Y-16081031D02*
X12258277Y-16100079D01*
X12258277Y-16100079D02*
X12267801Y-16138174D01*
X12267801Y-16138174D02*
X12267801Y-16185793D01*
X12267801Y-16185793D02*
X12258277Y-16223888D01*
X12258277Y-16223888D02*
X12248753Y-16242936D01*
X12248753Y-16242936D02*
X12239229Y-16252460D01*
X12239229Y-16252460D02*
X12220182Y-16261984D01*
X12220182Y-16261984D02*
X12201134Y-16261984D01*
X12201134Y-16261984D02*
X12182086Y-16252460D01*
X12182086Y-16252460D02*
X12172563Y-16242936D01*
X12172563Y-16242936D02*
X12163039Y-16223888D01*
X12163039Y-16223888D02*
X12153515Y-16185793D01*
X12153515Y-16185793D02*
X12153515Y-16138174D01*
X12153515Y-16138174D02*
X12163039Y-16100079D01*
X12163039Y-16100079D02*
X12172563Y-16081031D01*
X12172563Y-16081031D02*
X12182086Y-16071508D01*
X12182086Y-16071508D02*
X12201134Y-16061984D01*
X12353515Y-16242936D02*
X12363039Y-16252460D01*
X12363039Y-16252460D02*
X12353515Y-16261984D01*
X12353515Y-16261984D02*
X12343991Y-16252460D01*
X12343991Y-16252460D02*
X12353515Y-16242936D01*
X12353515Y-16242936D02*
X12353515Y-16261984D01*
X12486848Y-16061984D02*
X12505896Y-16061984D01*
X12505896Y-16061984D02*
X12524944Y-16071508D01*
X12524944Y-16071508D02*
X12534467Y-16081031D01*
X12534467Y-16081031D02*
X12543991Y-16100079D01*
X12543991Y-16100079D02*
X12553515Y-16138174D01*
X12553515Y-16138174D02*
X12553515Y-16185793D01*
X12553515Y-16185793D02*
X12543991Y-16223888D01*
X12543991Y-16223888D02*
X12534467Y-16242936D01*
X12534467Y-16242936D02*
X12524944Y-16252460D01*
X12524944Y-16252460D02*
X12505896Y-16261984D01*
X12505896Y-16261984D02*
X12486848Y-16261984D01*
X12486848Y-16261984D02*
X12467801Y-16252460D01*
X12467801Y-16252460D02*
X12458277Y-16242936D01*
X12458277Y-16242936D02*
X12448753Y-16223888D01*
X12448753Y-16223888D02*
X12439229Y-16185793D01*
X12439229Y-16185793D02*
X12439229Y-16138174D01*
X12439229Y-16138174D02*
X12448753Y-16100079D01*
X12448753Y-16100079D02*
X12458277Y-16081031D01*
X12458277Y-16081031D02*
X12467801Y-16071508D01*
X12467801Y-16071508D02*
X12486848Y-16061984D01*
X12743991Y-16261984D02*
X12629706Y-16261984D01*
X12686848Y-16261984D02*
X12686848Y-16061984D01*
X12686848Y-16061984D02*
X12667801Y-16090555D01*
X12667801Y-16090555D02*
X12648753Y-16109603D01*
X12648753Y-16109603D02*
X12629706Y-16119127D01*
X12839229Y-16261984D02*
X12877325Y-16261984D01*
X12877325Y-16261984D02*
X12896372Y-16252460D01*
X12896372Y-16252460D02*
X12905896Y-16242936D01*
X12905896Y-16242936D02*
X12924944Y-16214365D01*
X12924944Y-16214365D02*
X12934467Y-16176269D01*
X12934467Y-16176269D02*
X12934467Y-16100079D01*
X12934467Y-16100079D02*
X12924944Y-16081031D01*
X12924944Y-16081031D02*
X12915420Y-16071508D01*
X12915420Y-16071508D02*
X12896372Y-16061984D01*
X12896372Y-16061984D02*
X12858277Y-16061984D01*
X12858277Y-16061984D02*
X12839229Y-16071508D01*
X12839229Y-16071508D02*
X12829706Y-16081031D01*
X12829706Y-16081031D02*
X12820182Y-16100079D01*
X12820182Y-16100079D02*
X12820182Y-16147698D01*
X12820182Y-16147698D02*
X12829706Y-16166746D01*
X12829706Y-16166746D02*
X12839229Y-16176269D01*
X12839229Y-16176269D02*
X12858277Y-16185793D01*
X12858277Y-16185793D02*
X12896372Y-16185793D01*
X12896372Y-16185793D02*
X12915420Y-16176269D01*
X12915420Y-16176269D02*
X12924944Y-16166746D01*
X12924944Y-16166746D02*
X12934467Y-16147698D01*
X13001134Y-16061984D02*
X13134467Y-16061984D01*
X13134467Y-16061984D02*
X13048753Y-16261984D01*
X13201134Y-16061984D02*
X13201134Y-16100079D01*
X13277325Y-16061984D02*
X13277325Y-16100079D01*
X13572563Y-16338174D02*
X13563039Y-16328650D01*
X13563039Y-16328650D02*
X13543991Y-16300079D01*
X13543991Y-16300079D02*
X13534468Y-16281031D01*
X13534468Y-16281031D02*
X13524944Y-16252460D01*
X13524944Y-16252460D02*
X13515420Y-16204841D01*
X13515420Y-16204841D02*
X13515420Y-16166746D01*
X13515420Y-16166746D02*
X13524944Y-16119127D01*
X13524944Y-16119127D02*
X13534468Y-16090555D01*
X13534468Y-16090555D02*
X13543991Y-16071508D01*
X13543991Y-16071508D02*
X13563039Y-16042936D01*
X13563039Y-16042936D02*
X13572563Y-16033412D01*
X13629706Y-16061984D02*
X13753515Y-16061984D01*
X13753515Y-16061984D02*
X13686848Y-16138174D01*
X13686848Y-16138174D02*
X13715420Y-16138174D01*
X13715420Y-16138174D02*
X13734468Y-16147698D01*
X13734468Y-16147698D02*
X13743991Y-16157222D01*
X13743991Y-16157222D02*
X13753515Y-16176269D01*
X13753515Y-16176269D02*
X13753515Y-16223888D01*
X13753515Y-16223888D02*
X13743991Y-16242936D01*
X13743991Y-16242936D02*
X13734468Y-16252460D01*
X13734468Y-16252460D02*
X13715420Y-16261984D01*
X13715420Y-16261984D02*
X13658277Y-16261984D01*
X13658277Y-16261984D02*
X13639229Y-16252460D01*
X13639229Y-16252460D02*
X13629706Y-16242936D01*
X13829706Y-16081031D02*
X13839229Y-16071508D01*
X13839229Y-16071508D02*
X13858277Y-16061984D01*
X13858277Y-16061984D02*
X13905896Y-16061984D01*
X13905896Y-16061984D02*
X13924944Y-16071508D01*
X13924944Y-16071508D02*
X13934468Y-16081031D01*
X13934468Y-16081031D02*
X13943991Y-16100079D01*
X13943991Y-16100079D02*
X13943991Y-16119127D01*
X13943991Y-16119127D02*
X13934468Y-16147698D01*
X13934468Y-16147698D02*
X13820182Y-16261984D01*
X13820182Y-16261984D02*
X13943991Y-16261984D01*
X14182087Y-16261984D02*
X14182087Y-16061984D01*
X14267801Y-16261984D02*
X14267801Y-16157222D01*
X14267801Y-16157222D02*
X14258277Y-16138174D01*
X14258277Y-16138174D02*
X14239230Y-16128650D01*
X14239230Y-16128650D02*
X14210658Y-16128650D01*
X14210658Y-16128650D02*
X14191610Y-16138174D01*
X14191610Y-16138174D02*
X14182087Y-16147698D01*
X14391610Y-16261984D02*
X14372563Y-16252460D01*
X14372563Y-16252460D02*
X14363039Y-16242936D01*
X14363039Y-16242936D02*
X14353515Y-16223888D01*
X14353515Y-16223888D02*
X14353515Y-16166746D01*
X14353515Y-16166746D02*
X14363039Y-16147698D01*
X14363039Y-16147698D02*
X14372563Y-16138174D01*
X14372563Y-16138174D02*
X14391610Y-16128650D01*
X14391610Y-16128650D02*
X14420182Y-16128650D01*
X14420182Y-16128650D02*
X14439230Y-16138174D01*
X14439230Y-16138174D02*
X14448753Y-16147698D01*
X14448753Y-16147698D02*
X14458277Y-16166746D01*
X14458277Y-16166746D02*
X14458277Y-16223888D01*
X14458277Y-16223888D02*
X14448753Y-16242936D01*
X14448753Y-16242936D02*
X14439230Y-16252460D01*
X14439230Y-16252460D02*
X14420182Y-16261984D01*
X14420182Y-16261984D02*
X14391610Y-16261984D01*
X14572563Y-16261984D02*
X14553515Y-16252460D01*
X14553515Y-16252460D02*
X14543991Y-16233412D01*
X14543991Y-16233412D02*
X14543991Y-16061984D01*
X14724944Y-16252460D02*
X14705896Y-16261984D01*
X14705896Y-16261984D02*
X14667801Y-16261984D01*
X14667801Y-16261984D02*
X14648753Y-16252460D01*
X14648753Y-16252460D02*
X14639230Y-16233412D01*
X14639230Y-16233412D02*
X14639230Y-16157222D01*
X14639230Y-16157222D02*
X14648753Y-16138174D01*
X14648753Y-16138174D02*
X14667801Y-16128650D01*
X14667801Y-16128650D02*
X14705896Y-16128650D01*
X14705896Y-16128650D02*
X14724944Y-16138174D01*
X14724944Y-16138174D02*
X14734468Y-16157222D01*
X14734468Y-16157222D02*
X14734468Y-16176269D01*
X14734468Y-16176269D02*
X14639230Y-16195317D01*
X14810658Y-16252460D02*
X14829706Y-16261984D01*
X14829706Y-16261984D02*
X14867801Y-16261984D01*
X14867801Y-16261984D02*
X14886849Y-16252460D01*
X14886849Y-16252460D02*
X14896372Y-16233412D01*
X14896372Y-16233412D02*
X14896372Y-16223888D01*
X14896372Y-16223888D02*
X14886849Y-16204841D01*
X14886849Y-16204841D02*
X14867801Y-16195317D01*
X14867801Y-16195317D02*
X14839230Y-16195317D01*
X14839230Y-16195317D02*
X14820182Y-16185793D01*
X14820182Y-16185793D02*
X14810658Y-16166746D01*
X14810658Y-16166746D02*
X14810658Y-16157222D01*
X14810658Y-16157222D02*
X14820182Y-16138174D01*
X14820182Y-16138174D02*
X14839230Y-16128650D01*
X14839230Y-16128650D02*
X14867801Y-16128650D01*
X14867801Y-16128650D02*
X14886849Y-16138174D01*
X14963039Y-16338174D02*
X14972563Y-16328650D01*
X14972563Y-16328650D02*
X14991611Y-16300079D01*
X14991611Y-16300079D02*
X15001134Y-16281031D01*
X15001134Y-16281031D02*
X15010658Y-16252460D01*
X15010658Y-16252460D02*
X15020182Y-16204841D01*
X15020182Y-16204841D02*
X15020182Y-16166746D01*
X15020182Y-16166746D02*
X15010658Y-16119127D01*
X15010658Y-16119127D02*
X15001134Y-16090555D01*
X15001134Y-16090555D02*
X14991611Y-16071508D01*
X14991611Y-16071508D02*
X14972563Y-16042936D01*
X14972563Y-16042936D02*
X14963039Y-16033412D01*
D12*
X9984467Y-16465967D02*
X9984467Y-16403033D01*
X9921533Y-16403033D01*
X9921533Y-16465967D01*
X9984467Y-16465967D01*
D11*
X10296372Y-16325984D02*
X10315420Y-16325984D01*
X10315420Y-16325984D02*
X10334467Y-16335508D01*
X10334467Y-16335508D02*
X10343991Y-16345031D01*
X10343991Y-16345031D02*
X10353515Y-16364079D01*
X10353515Y-16364079D02*
X10363039Y-16402174D01*
X10363039Y-16402174D02*
X10363039Y-16449793D01*
X10363039Y-16449793D02*
X10353515Y-16487888D01*
X10353515Y-16487888D02*
X10343991Y-16506936D01*
X10343991Y-16506936D02*
X10334467Y-16516460D01*
X10334467Y-16516460D02*
X10315420Y-16525984D01*
X10315420Y-16525984D02*
X10296372Y-16525984D01*
X10296372Y-16525984D02*
X10277324Y-16516460D01*
X10277324Y-16516460D02*
X10267801Y-16506936D01*
X10267801Y-16506936D02*
X10258277Y-16487888D01*
X10258277Y-16487888D02*
X10248753Y-16449793D01*
X10248753Y-16449793D02*
X10248753Y-16402174D01*
X10248753Y-16402174D02*
X10258277Y-16364079D01*
X10258277Y-16364079D02*
X10267801Y-16345031D01*
X10267801Y-16345031D02*
X10277324Y-16335508D01*
X10277324Y-16335508D02*
X10296372Y-16325984D01*
X10448753Y-16506936D02*
X10458277Y-16516460D01*
X10458277Y-16516460D02*
X10448753Y-16525984D01*
X10448753Y-16525984D02*
X10439229Y-16516460D01*
X10439229Y-16516460D02*
X10448753Y-16506936D01*
X10448753Y-16506936D02*
X10448753Y-16525984D01*
X10572563Y-16411698D02*
X10553515Y-16402174D01*
X10553515Y-16402174D02*
X10543991Y-16392650D01*
X10543991Y-16392650D02*
X10534467Y-16373603D01*
X10534467Y-16373603D02*
X10534467Y-16364079D01*
X10534467Y-16364079D02*
X10543991Y-16345031D01*
X10543991Y-16345031D02*
X10553515Y-16335508D01*
X10553515Y-16335508D02*
X10572563Y-16325984D01*
X10572563Y-16325984D02*
X10610658Y-16325984D01*
X10610658Y-16325984D02*
X10629705Y-16335508D01*
X10629705Y-16335508D02*
X10639229Y-16345031D01*
X10639229Y-16345031D02*
X10648753Y-16364079D01*
X10648753Y-16364079D02*
X10648753Y-16373603D01*
X10648753Y-16373603D02*
X10639229Y-16392650D01*
X10639229Y-16392650D02*
X10629705Y-16402174D01*
X10629705Y-16402174D02*
X10610658Y-16411698D01*
X10610658Y-16411698D02*
X10572563Y-16411698D01*
X10572563Y-16411698D02*
X10553515Y-16421222D01*
X10553515Y-16421222D02*
X10543991Y-16430746D01*
X10543991Y-16430746D02*
X10534467Y-16449793D01*
X10534467Y-16449793D02*
X10534467Y-16487888D01*
X10534467Y-16487888D02*
X10543991Y-16506936D01*
X10543991Y-16506936D02*
X10553515Y-16516460D01*
X10553515Y-16516460D02*
X10572563Y-16525984D01*
X10572563Y-16525984D02*
X10610658Y-16525984D01*
X10610658Y-16525984D02*
X10629705Y-16516460D01*
X10629705Y-16516460D02*
X10639229Y-16506936D01*
X10639229Y-16506936D02*
X10648753Y-16487888D01*
X10648753Y-16487888D02*
X10648753Y-16449793D01*
X10648753Y-16449793D02*
X10639229Y-16430746D01*
X10639229Y-16430746D02*
X10629705Y-16421222D01*
X10629705Y-16421222D02*
X10610658Y-16411698D01*
X10743991Y-16525984D02*
X10782086Y-16525984D01*
X10782086Y-16525984D02*
X10801134Y-16516460D01*
X10801134Y-16516460D02*
X10810658Y-16506936D01*
X10810658Y-16506936D02*
X10829705Y-16478365D01*
X10829705Y-16478365D02*
X10839229Y-16440269D01*
X10839229Y-16440269D02*
X10839229Y-16364079D01*
X10839229Y-16364079D02*
X10829705Y-16345031D01*
X10829705Y-16345031D02*
X10820182Y-16335508D01*
X10820182Y-16335508D02*
X10801134Y-16325984D01*
X10801134Y-16325984D02*
X10763039Y-16325984D01*
X10763039Y-16325984D02*
X10743991Y-16335508D01*
X10743991Y-16335508D02*
X10734467Y-16345031D01*
X10734467Y-16345031D02*
X10724944Y-16364079D01*
X10724944Y-16364079D02*
X10724944Y-16411698D01*
X10724944Y-16411698D02*
X10734467Y-16430746D01*
X10734467Y-16430746D02*
X10743991Y-16440269D01*
X10743991Y-16440269D02*
X10763039Y-16449793D01*
X10763039Y-16449793D02*
X10801134Y-16449793D01*
X10801134Y-16449793D02*
X10820182Y-16440269D01*
X10820182Y-16440269D02*
X10829705Y-16430746D01*
X10829705Y-16430746D02*
X10839229Y-16411698D01*
X10963039Y-16325984D02*
X10982086Y-16325984D01*
X10982086Y-16325984D02*
X11001134Y-16335508D01*
X11001134Y-16335508D02*
X11010658Y-16345031D01*
X11010658Y-16345031D02*
X11020182Y-16364079D01*
X11020182Y-16364079D02*
X11029705Y-16402174D01*
X11029705Y-16402174D02*
X11029705Y-16449793D01*
X11029705Y-16449793D02*
X11020182Y-16487888D01*
X11020182Y-16487888D02*
X11010658Y-16506936D01*
X11010658Y-16506936D02*
X11001134Y-16516460D01*
X11001134Y-16516460D02*
X10982086Y-16525984D01*
X10982086Y-16525984D02*
X10963039Y-16525984D01*
X10963039Y-16525984D02*
X10943991Y-16516460D01*
X10943991Y-16516460D02*
X10934467Y-16506936D01*
X10934467Y-16506936D02*
X10924944Y-16487888D01*
X10924944Y-16487888D02*
X10915420Y-16449793D01*
X10915420Y-16449793D02*
X10915420Y-16402174D01*
X10915420Y-16402174D02*
X10924944Y-16364079D01*
X10924944Y-16364079D02*
X10934467Y-16345031D01*
X10934467Y-16345031D02*
X10943991Y-16335508D01*
X10943991Y-16335508D02*
X10963039Y-16325984D01*
X11115420Y-16525984D02*
X11115420Y-16392650D01*
X11115420Y-16411698D02*
X11124944Y-16402174D01*
X11124944Y-16402174D02*
X11143991Y-16392650D01*
X11143991Y-16392650D02*
X11172563Y-16392650D01*
X11172563Y-16392650D02*
X11191610Y-16402174D01*
X11191610Y-16402174D02*
X11201134Y-16421222D01*
X11201134Y-16421222D02*
X11201134Y-16525984D01*
X11201134Y-16421222D02*
X11210658Y-16402174D01*
X11210658Y-16402174D02*
X11229705Y-16392650D01*
X11229705Y-16392650D02*
X11258277Y-16392650D01*
X11258277Y-16392650D02*
X11277324Y-16402174D01*
X11277324Y-16402174D02*
X11286848Y-16421222D01*
X11286848Y-16421222D02*
X11286848Y-16525984D01*
X11382086Y-16525984D02*
X11382086Y-16392650D01*
X11382086Y-16411698D02*
X11391610Y-16402174D01*
X11391610Y-16402174D02*
X11410658Y-16392650D01*
X11410658Y-16392650D02*
X11439229Y-16392650D01*
X11439229Y-16392650D02*
X11458277Y-16402174D01*
X11458277Y-16402174D02*
X11467801Y-16421222D01*
X11467801Y-16421222D02*
X11467801Y-16525984D01*
X11467801Y-16421222D02*
X11477324Y-16402174D01*
X11477324Y-16402174D02*
X11496372Y-16392650D01*
X11496372Y-16392650D02*
X11524943Y-16392650D01*
X11524943Y-16392650D02*
X11543991Y-16402174D01*
X11543991Y-16402174D02*
X11553515Y-16421222D01*
X11553515Y-16421222D02*
X11553515Y-16525984D01*
X11943991Y-16316460D02*
X11772563Y-16573603D01*
X12201134Y-16325984D02*
X12220182Y-16325984D01*
X12220182Y-16325984D02*
X12239229Y-16335508D01*
X12239229Y-16335508D02*
X12248753Y-16345031D01*
X12248753Y-16345031D02*
X12258277Y-16364079D01*
X12258277Y-16364079D02*
X12267801Y-16402174D01*
X12267801Y-16402174D02*
X12267801Y-16449793D01*
X12267801Y-16449793D02*
X12258277Y-16487888D01*
X12258277Y-16487888D02*
X12248753Y-16506936D01*
X12248753Y-16506936D02*
X12239229Y-16516460D01*
X12239229Y-16516460D02*
X12220182Y-16525984D01*
X12220182Y-16525984D02*
X12201134Y-16525984D01*
X12201134Y-16525984D02*
X12182086Y-16516460D01*
X12182086Y-16516460D02*
X12172563Y-16506936D01*
X12172563Y-16506936D02*
X12163039Y-16487888D01*
X12163039Y-16487888D02*
X12153515Y-16449793D01*
X12153515Y-16449793D02*
X12153515Y-16402174D01*
X12153515Y-16402174D02*
X12163039Y-16364079D01*
X12163039Y-16364079D02*
X12172563Y-16345031D01*
X12172563Y-16345031D02*
X12182086Y-16335508D01*
X12182086Y-16335508D02*
X12201134Y-16325984D01*
X12353515Y-16506936D02*
X12363039Y-16516460D01*
X12363039Y-16516460D02*
X12353515Y-16525984D01*
X12353515Y-16525984D02*
X12343991Y-16516460D01*
X12343991Y-16516460D02*
X12353515Y-16506936D01*
X12353515Y-16506936D02*
X12353515Y-16525984D01*
X12486848Y-16325984D02*
X12505896Y-16325984D01*
X12505896Y-16325984D02*
X12524944Y-16335508D01*
X12524944Y-16335508D02*
X12534467Y-16345031D01*
X12534467Y-16345031D02*
X12543991Y-16364079D01*
X12543991Y-16364079D02*
X12553515Y-16402174D01*
X12553515Y-16402174D02*
X12553515Y-16449793D01*
X12553515Y-16449793D02*
X12543991Y-16487888D01*
X12543991Y-16487888D02*
X12534467Y-16506936D01*
X12534467Y-16506936D02*
X12524944Y-16516460D01*
X12524944Y-16516460D02*
X12505896Y-16525984D01*
X12505896Y-16525984D02*
X12486848Y-16525984D01*
X12486848Y-16525984D02*
X12467801Y-16516460D01*
X12467801Y-16516460D02*
X12458277Y-16506936D01*
X12458277Y-16506936D02*
X12448753Y-16487888D01*
X12448753Y-16487888D02*
X12439229Y-16449793D01*
X12439229Y-16449793D02*
X12439229Y-16402174D01*
X12439229Y-16402174D02*
X12448753Y-16364079D01*
X12448753Y-16364079D02*
X12458277Y-16345031D01*
X12458277Y-16345031D02*
X12467801Y-16335508D01*
X12467801Y-16335508D02*
X12486848Y-16325984D01*
X12620182Y-16325984D02*
X12743991Y-16325984D01*
X12743991Y-16325984D02*
X12677325Y-16402174D01*
X12677325Y-16402174D02*
X12705896Y-16402174D01*
X12705896Y-16402174D02*
X12724944Y-16411698D01*
X12724944Y-16411698D02*
X12734467Y-16421222D01*
X12734467Y-16421222D02*
X12743991Y-16440269D01*
X12743991Y-16440269D02*
X12743991Y-16487888D01*
X12743991Y-16487888D02*
X12734467Y-16506936D01*
X12734467Y-16506936D02*
X12724944Y-16516460D01*
X12724944Y-16516460D02*
X12705896Y-16525984D01*
X12705896Y-16525984D02*
X12648753Y-16525984D01*
X12648753Y-16525984D02*
X12629706Y-16516460D01*
X12629706Y-16516460D02*
X12620182Y-16506936D01*
X12924944Y-16325984D02*
X12829706Y-16325984D01*
X12829706Y-16325984D02*
X12820182Y-16421222D01*
X12820182Y-16421222D02*
X12829706Y-16411698D01*
X12829706Y-16411698D02*
X12848753Y-16402174D01*
X12848753Y-16402174D02*
X12896372Y-16402174D01*
X12896372Y-16402174D02*
X12915420Y-16411698D01*
X12915420Y-16411698D02*
X12924944Y-16421222D01*
X12924944Y-16421222D02*
X12934467Y-16440269D01*
X12934467Y-16440269D02*
X12934467Y-16487888D01*
X12934467Y-16487888D02*
X12924944Y-16506936D01*
X12924944Y-16506936D02*
X12915420Y-16516460D01*
X12915420Y-16516460D02*
X12896372Y-16525984D01*
X12896372Y-16525984D02*
X12848753Y-16525984D01*
X12848753Y-16525984D02*
X12829706Y-16516460D01*
X12829706Y-16516460D02*
X12820182Y-16506936D01*
X13058277Y-16325984D02*
X13077325Y-16325984D01*
X13077325Y-16325984D02*
X13096372Y-16335508D01*
X13096372Y-16335508D02*
X13105896Y-16345031D01*
X13105896Y-16345031D02*
X13115420Y-16364079D01*
X13115420Y-16364079D02*
X13124944Y-16402174D01*
X13124944Y-16402174D02*
X13124944Y-16449793D01*
X13124944Y-16449793D02*
X13115420Y-16487888D01*
X13115420Y-16487888D02*
X13105896Y-16506936D01*
X13105896Y-16506936D02*
X13096372Y-16516460D01*
X13096372Y-16516460D02*
X13077325Y-16525984D01*
X13077325Y-16525984D02*
X13058277Y-16525984D01*
X13058277Y-16525984D02*
X13039229Y-16516460D01*
X13039229Y-16516460D02*
X13029706Y-16506936D01*
X13029706Y-16506936D02*
X13020182Y-16487888D01*
X13020182Y-16487888D02*
X13010658Y-16449793D01*
X13010658Y-16449793D02*
X13010658Y-16402174D01*
X13010658Y-16402174D02*
X13020182Y-16364079D01*
X13020182Y-16364079D02*
X13029706Y-16345031D01*
X13029706Y-16345031D02*
X13039229Y-16335508D01*
X13039229Y-16335508D02*
X13058277Y-16325984D01*
X13201134Y-16325984D02*
X13201134Y-16364079D01*
X13277325Y-16325984D02*
X13277325Y-16364079D01*
X13572563Y-16602174D02*
X13563039Y-16592650D01*
X13563039Y-16592650D02*
X13543991Y-16564079D01*
X13543991Y-16564079D02*
X13534468Y-16545031D01*
X13534468Y-16545031D02*
X13524944Y-16516460D01*
X13524944Y-16516460D02*
X13515420Y-16468841D01*
X13515420Y-16468841D02*
X13515420Y-16430746D01*
X13515420Y-16430746D02*
X13524944Y-16383127D01*
X13524944Y-16383127D02*
X13534468Y-16354555D01*
X13534468Y-16354555D02*
X13543991Y-16335508D01*
X13543991Y-16335508D02*
X13563039Y-16306936D01*
X13563039Y-16306936D02*
X13572563Y-16297412D01*
X13753515Y-16525984D02*
X13639229Y-16525984D01*
X13696372Y-16525984D02*
X13696372Y-16325984D01*
X13696372Y-16325984D02*
X13677325Y-16354555D01*
X13677325Y-16354555D02*
X13658277Y-16373603D01*
X13658277Y-16373603D02*
X13639229Y-16383127D01*
X13829706Y-16345031D02*
X13839229Y-16335508D01*
X13839229Y-16335508D02*
X13858277Y-16325984D01*
X13858277Y-16325984D02*
X13905896Y-16325984D01*
X13905896Y-16325984D02*
X13924944Y-16335508D01*
X13924944Y-16335508D02*
X13934468Y-16345031D01*
X13934468Y-16345031D02*
X13943991Y-16364079D01*
X13943991Y-16364079D02*
X13943991Y-16383127D01*
X13943991Y-16383127D02*
X13934468Y-16411698D01*
X13934468Y-16411698D02*
X13820182Y-16525984D01*
X13820182Y-16525984D02*
X13943991Y-16525984D01*
X14182087Y-16525984D02*
X14182087Y-16325984D01*
X14267801Y-16525984D02*
X14267801Y-16421222D01*
X14267801Y-16421222D02*
X14258277Y-16402174D01*
X14258277Y-16402174D02*
X14239230Y-16392650D01*
X14239230Y-16392650D02*
X14210658Y-16392650D01*
X14210658Y-16392650D02*
X14191610Y-16402174D01*
X14191610Y-16402174D02*
X14182087Y-16411698D01*
X14391610Y-16525984D02*
X14372563Y-16516460D01*
X14372563Y-16516460D02*
X14363039Y-16506936D01*
X14363039Y-16506936D02*
X14353515Y-16487888D01*
X14353515Y-16487888D02*
X14353515Y-16430746D01*
X14353515Y-16430746D02*
X14363039Y-16411698D01*
X14363039Y-16411698D02*
X14372563Y-16402174D01*
X14372563Y-16402174D02*
X14391610Y-16392650D01*
X14391610Y-16392650D02*
X14420182Y-16392650D01*
X14420182Y-16392650D02*
X14439230Y-16402174D01*
X14439230Y-16402174D02*
X14448753Y-16411698D01*
X14448753Y-16411698D02*
X14458277Y-16430746D01*
X14458277Y-16430746D02*
X14458277Y-16487888D01*
X14458277Y-16487888D02*
X14448753Y-16506936D01*
X14448753Y-16506936D02*
X14439230Y-16516460D01*
X14439230Y-16516460D02*
X14420182Y-16525984D01*
X14420182Y-16525984D02*
X14391610Y-16525984D01*
X14572563Y-16525984D02*
X14553515Y-16516460D01*
X14553515Y-16516460D02*
X14543991Y-16497412D01*
X14543991Y-16497412D02*
X14543991Y-16325984D01*
X14724944Y-16516460D02*
X14705896Y-16525984D01*
X14705896Y-16525984D02*
X14667801Y-16525984D01*
X14667801Y-16525984D02*
X14648753Y-16516460D01*
X14648753Y-16516460D02*
X14639230Y-16497412D01*
X14639230Y-16497412D02*
X14639230Y-16421222D01*
X14639230Y-16421222D02*
X14648753Y-16402174D01*
X14648753Y-16402174D02*
X14667801Y-16392650D01*
X14667801Y-16392650D02*
X14705896Y-16392650D01*
X14705896Y-16392650D02*
X14724944Y-16402174D01*
X14724944Y-16402174D02*
X14734468Y-16421222D01*
X14734468Y-16421222D02*
X14734468Y-16440269D01*
X14734468Y-16440269D02*
X14639230Y-16459317D01*
X14810658Y-16516460D02*
X14829706Y-16525984D01*
X14829706Y-16525984D02*
X14867801Y-16525984D01*
X14867801Y-16525984D02*
X14886849Y-16516460D01*
X14886849Y-16516460D02*
X14896372Y-16497412D01*
X14896372Y-16497412D02*
X14896372Y-16487888D01*
X14896372Y-16487888D02*
X14886849Y-16468841D01*
X14886849Y-16468841D02*
X14867801Y-16459317D01*
X14867801Y-16459317D02*
X14839230Y-16459317D01*
X14839230Y-16459317D02*
X14820182Y-16449793D01*
X14820182Y-16449793D02*
X14810658Y-16430746D01*
X14810658Y-16430746D02*
X14810658Y-16421222D01*
X14810658Y-16421222D02*
X14820182Y-16402174D01*
X14820182Y-16402174D02*
X14839230Y-16392650D01*
X14839230Y-16392650D02*
X14867801Y-16392650D01*
X14867801Y-16392650D02*
X14886849Y-16402174D01*
X14963039Y-16602174D02*
X14972563Y-16592650D01*
X14972563Y-16592650D02*
X14991611Y-16564079D01*
X14991611Y-16564079D02*
X15001134Y-16545031D01*
X15001134Y-16545031D02*
X15010658Y-16516460D01*
X15010658Y-16516460D02*
X15020182Y-16468841D01*
X15020182Y-16468841D02*
X15020182Y-16430746D01*
X15020182Y-16430746D02*
X15010658Y-16383127D01*
X15010658Y-16383127D02*
X15001134Y-16354555D01*
X15001134Y-16354555D02*
X14991611Y-16335508D01*
X14991611Y-16335508D02*
X14972563Y-16306936D01*
X14972563Y-16306936D02*
X14963039Y-16297412D01*
D12*
X9947500Y-16748500D02*
X9997500Y-16698500D01*
X9947500Y-16648500D01*
X9897500Y-16698500D01*
X9947500Y-16748500D01*
D11*
X10363039Y-16789984D02*
X10248753Y-16789984D01*
X10305896Y-16789984D02*
X10305896Y-16589984D01*
X10305896Y-16589984D02*
X10286848Y-16618555D01*
X10286848Y-16618555D02*
X10267801Y-16637603D01*
X10267801Y-16637603D02*
X10248753Y-16647127D01*
X10448753Y-16770936D02*
X10458277Y-16780460D01*
X10458277Y-16780460D02*
X10448753Y-16789984D01*
X10448753Y-16789984D02*
X10439229Y-16780460D01*
X10439229Y-16780460D02*
X10448753Y-16770936D01*
X10448753Y-16770936D02*
X10448753Y-16789984D01*
X10582086Y-16589984D02*
X10601134Y-16589984D01*
X10601134Y-16589984D02*
X10620182Y-16599508D01*
X10620182Y-16599508D02*
X10629705Y-16609031D01*
X10629705Y-16609031D02*
X10639229Y-16628079D01*
X10639229Y-16628079D02*
X10648753Y-16666174D01*
X10648753Y-16666174D02*
X10648753Y-16713793D01*
X10648753Y-16713793D02*
X10639229Y-16751888D01*
X10639229Y-16751888D02*
X10629705Y-16770936D01*
X10629705Y-16770936D02*
X10620182Y-16780460D01*
X10620182Y-16780460D02*
X10601134Y-16789984D01*
X10601134Y-16789984D02*
X10582086Y-16789984D01*
X10582086Y-16789984D02*
X10563039Y-16780460D01*
X10563039Y-16780460D02*
X10553515Y-16770936D01*
X10553515Y-16770936D02*
X10543991Y-16751888D01*
X10543991Y-16751888D02*
X10534467Y-16713793D01*
X10534467Y-16713793D02*
X10534467Y-16666174D01*
X10534467Y-16666174D02*
X10543991Y-16628079D01*
X10543991Y-16628079D02*
X10553515Y-16609031D01*
X10553515Y-16609031D02*
X10563039Y-16599508D01*
X10563039Y-16599508D02*
X10582086Y-16589984D01*
X10772563Y-16589984D02*
X10791610Y-16589984D01*
X10791610Y-16589984D02*
X10810658Y-16599508D01*
X10810658Y-16599508D02*
X10820182Y-16609031D01*
X10820182Y-16609031D02*
X10829705Y-16628079D01*
X10829705Y-16628079D02*
X10839229Y-16666174D01*
X10839229Y-16666174D02*
X10839229Y-16713793D01*
X10839229Y-16713793D02*
X10829705Y-16751888D01*
X10829705Y-16751888D02*
X10820182Y-16770936D01*
X10820182Y-16770936D02*
X10810658Y-16780460D01*
X10810658Y-16780460D02*
X10791610Y-16789984D01*
X10791610Y-16789984D02*
X10772563Y-16789984D01*
X10772563Y-16789984D02*
X10753515Y-16780460D01*
X10753515Y-16780460D02*
X10743991Y-16770936D01*
X10743991Y-16770936D02*
X10734467Y-16751888D01*
X10734467Y-16751888D02*
X10724944Y-16713793D01*
X10724944Y-16713793D02*
X10724944Y-16666174D01*
X10724944Y-16666174D02*
X10734467Y-16628079D01*
X10734467Y-16628079D02*
X10743991Y-16609031D01*
X10743991Y-16609031D02*
X10753515Y-16599508D01*
X10753515Y-16599508D02*
X10772563Y-16589984D01*
X10963039Y-16589984D02*
X10982086Y-16589984D01*
X10982086Y-16589984D02*
X11001134Y-16599508D01*
X11001134Y-16599508D02*
X11010658Y-16609031D01*
X11010658Y-16609031D02*
X11020182Y-16628079D01*
X11020182Y-16628079D02*
X11029705Y-16666174D01*
X11029705Y-16666174D02*
X11029705Y-16713793D01*
X11029705Y-16713793D02*
X11020182Y-16751888D01*
X11020182Y-16751888D02*
X11010658Y-16770936D01*
X11010658Y-16770936D02*
X11001134Y-16780460D01*
X11001134Y-16780460D02*
X10982086Y-16789984D01*
X10982086Y-16789984D02*
X10963039Y-16789984D01*
X10963039Y-16789984D02*
X10943991Y-16780460D01*
X10943991Y-16780460D02*
X10934467Y-16770936D01*
X10934467Y-16770936D02*
X10924944Y-16751888D01*
X10924944Y-16751888D02*
X10915420Y-16713793D01*
X10915420Y-16713793D02*
X10915420Y-16666174D01*
X10915420Y-16666174D02*
X10924944Y-16628079D01*
X10924944Y-16628079D02*
X10934467Y-16609031D01*
X10934467Y-16609031D02*
X10943991Y-16599508D01*
X10943991Y-16599508D02*
X10963039Y-16589984D01*
X11115420Y-16789984D02*
X11115420Y-16656650D01*
X11115420Y-16675698D02*
X11124944Y-16666174D01*
X11124944Y-16666174D02*
X11143991Y-16656650D01*
X11143991Y-16656650D02*
X11172563Y-16656650D01*
X11172563Y-16656650D02*
X11191610Y-16666174D01*
X11191610Y-16666174D02*
X11201134Y-16685222D01*
X11201134Y-16685222D02*
X11201134Y-16789984D01*
X11201134Y-16685222D02*
X11210658Y-16666174D01*
X11210658Y-16666174D02*
X11229705Y-16656650D01*
X11229705Y-16656650D02*
X11258277Y-16656650D01*
X11258277Y-16656650D02*
X11277324Y-16666174D01*
X11277324Y-16666174D02*
X11286848Y-16685222D01*
X11286848Y-16685222D02*
X11286848Y-16789984D01*
X11382086Y-16789984D02*
X11382086Y-16656650D01*
X11382086Y-16675698D02*
X11391610Y-16666174D01*
X11391610Y-16666174D02*
X11410658Y-16656650D01*
X11410658Y-16656650D02*
X11439229Y-16656650D01*
X11439229Y-16656650D02*
X11458277Y-16666174D01*
X11458277Y-16666174D02*
X11467801Y-16685222D01*
X11467801Y-16685222D02*
X11467801Y-16789984D01*
X11467801Y-16685222D02*
X11477324Y-16666174D01*
X11477324Y-16666174D02*
X11496372Y-16656650D01*
X11496372Y-16656650D02*
X11524943Y-16656650D01*
X11524943Y-16656650D02*
X11543991Y-16666174D01*
X11543991Y-16666174D02*
X11553515Y-16685222D01*
X11553515Y-16685222D02*
X11553515Y-16789984D01*
X11943991Y-16580460D02*
X11772563Y-16837603D01*
X12201134Y-16589984D02*
X12220182Y-16589984D01*
X12220182Y-16589984D02*
X12239229Y-16599508D01*
X12239229Y-16599508D02*
X12248753Y-16609031D01*
X12248753Y-16609031D02*
X12258277Y-16628079D01*
X12258277Y-16628079D02*
X12267801Y-16666174D01*
X12267801Y-16666174D02*
X12267801Y-16713793D01*
X12267801Y-16713793D02*
X12258277Y-16751888D01*
X12258277Y-16751888D02*
X12248753Y-16770936D01*
X12248753Y-16770936D02*
X12239229Y-16780460D01*
X12239229Y-16780460D02*
X12220182Y-16789984D01*
X12220182Y-16789984D02*
X12201134Y-16789984D01*
X12201134Y-16789984D02*
X12182086Y-16780460D01*
X12182086Y-16780460D02*
X12172563Y-16770936D01*
X12172563Y-16770936D02*
X12163039Y-16751888D01*
X12163039Y-16751888D02*
X12153515Y-16713793D01*
X12153515Y-16713793D02*
X12153515Y-16666174D01*
X12153515Y-16666174D02*
X12163039Y-16628079D01*
X12163039Y-16628079D02*
X12172563Y-16609031D01*
X12172563Y-16609031D02*
X12182086Y-16599508D01*
X12182086Y-16599508D02*
X12201134Y-16589984D01*
X12353515Y-16770936D02*
X12363039Y-16780460D01*
X12363039Y-16780460D02*
X12353515Y-16789984D01*
X12353515Y-16789984D02*
X12343991Y-16780460D01*
X12343991Y-16780460D02*
X12353515Y-16770936D01*
X12353515Y-16770936D02*
X12353515Y-16789984D01*
X12486848Y-16589984D02*
X12505896Y-16589984D01*
X12505896Y-16589984D02*
X12524944Y-16599508D01*
X12524944Y-16599508D02*
X12534467Y-16609031D01*
X12534467Y-16609031D02*
X12543991Y-16628079D01*
X12543991Y-16628079D02*
X12553515Y-16666174D01*
X12553515Y-16666174D02*
X12553515Y-16713793D01*
X12553515Y-16713793D02*
X12543991Y-16751888D01*
X12543991Y-16751888D02*
X12534467Y-16770936D01*
X12534467Y-16770936D02*
X12524944Y-16780460D01*
X12524944Y-16780460D02*
X12505896Y-16789984D01*
X12505896Y-16789984D02*
X12486848Y-16789984D01*
X12486848Y-16789984D02*
X12467801Y-16780460D01*
X12467801Y-16780460D02*
X12458277Y-16770936D01*
X12458277Y-16770936D02*
X12448753Y-16751888D01*
X12448753Y-16751888D02*
X12439229Y-16713793D01*
X12439229Y-16713793D02*
X12439229Y-16666174D01*
X12439229Y-16666174D02*
X12448753Y-16628079D01*
X12448753Y-16628079D02*
X12458277Y-16609031D01*
X12458277Y-16609031D02*
X12467801Y-16599508D01*
X12467801Y-16599508D02*
X12486848Y-16589984D01*
X12620182Y-16589984D02*
X12743991Y-16589984D01*
X12743991Y-16589984D02*
X12677325Y-16666174D01*
X12677325Y-16666174D02*
X12705896Y-16666174D01*
X12705896Y-16666174D02*
X12724944Y-16675698D01*
X12724944Y-16675698D02*
X12734467Y-16685222D01*
X12734467Y-16685222D02*
X12743991Y-16704269D01*
X12743991Y-16704269D02*
X12743991Y-16751888D01*
X12743991Y-16751888D02*
X12734467Y-16770936D01*
X12734467Y-16770936D02*
X12724944Y-16780460D01*
X12724944Y-16780460D02*
X12705896Y-16789984D01*
X12705896Y-16789984D02*
X12648753Y-16789984D01*
X12648753Y-16789984D02*
X12629706Y-16780460D01*
X12629706Y-16780460D02*
X12620182Y-16770936D01*
X12839229Y-16789984D02*
X12877325Y-16789984D01*
X12877325Y-16789984D02*
X12896372Y-16780460D01*
X12896372Y-16780460D02*
X12905896Y-16770936D01*
X12905896Y-16770936D02*
X12924944Y-16742365D01*
X12924944Y-16742365D02*
X12934467Y-16704269D01*
X12934467Y-16704269D02*
X12934467Y-16628079D01*
X12934467Y-16628079D02*
X12924944Y-16609031D01*
X12924944Y-16609031D02*
X12915420Y-16599508D01*
X12915420Y-16599508D02*
X12896372Y-16589984D01*
X12896372Y-16589984D02*
X12858277Y-16589984D01*
X12858277Y-16589984D02*
X12839229Y-16599508D01*
X12839229Y-16599508D02*
X12829706Y-16609031D01*
X12829706Y-16609031D02*
X12820182Y-16628079D01*
X12820182Y-16628079D02*
X12820182Y-16675698D01*
X12820182Y-16675698D02*
X12829706Y-16694746D01*
X12829706Y-16694746D02*
X12839229Y-16704269D01*
X12839229Y-16704269D02*
X12858277Y-16713793D01*
X12858277Y-16713793D02*
X12896372Y-16713793D01*
X12896372Y-16713793D02*
X12915420Y-16704269D01*
X12915420Y-16704269D02*
X12924944Y-16694746D01*
X12924944Y-16694746D02*
X12934467Y-16675698D01*
X13105896Y-16656650D02*
X13105896Y-16789984D01*
X13058277Y-16580460D02*
X13010658Y-16723317D01*
X13010658Y-16723317D02*
X13134467Y-16723317D01*
X13201134Y-16589984D02*
X13201134Y-16628079D01*
X13277325Y-16589984D02*
X13277325Y-16628079D01*
X13572563Y-16866174D02*
X13563039Y-16856650D01*
X13563039Y-16856650D02*
X13543991Y-16828079D01*
X13543991Y-16828079D02*
X13534468Y-16809031D01*
X13534468Y-16809031D02*
X13524944Y-16780460D01*
X13524944Y-16780460D02*
X13515420Y-16732841D01*
X13515420Y-16732841D02*
X13515420Y-16694746D01*
X13515420Y-16694746D02*
X13524944Y-16647127D01*
X13524944Y-16647127D02*
X13534468Y-16618555D01*
X13534468Y-16618555D02*
X13543991Y-16599508D01*
X13543991Y-16599508D02*
X13563039Y-16570936D01*
X13563039Y-16570936D02*
X13572563Y-16561412D01*
X13629706Y-16589984D02*
X13753515Y-16589984D01*
X13753515Y-16589984D02*
X13686848Y-16666174D01*
X13686848Y-16666174D02*
X13715420Y-16666174D01*
X13715420Y-16666174D02*
X13734468Y-16675698D01*
X13734468Y-16675698D02*
X13743991Y-16685222D01*
X13743991Y-16685222D02*
X13753515Y-16704269D01*
X13753515Y-16704269D02*
X13753515Y-16751888D01*
X13753515Y-16751888D02*
X13743991Y-16770936D01*
X13743991Y-16770936D02*
X13734468Y-16780460D01*
X13734468Y-16780460D02*
X13715420Y-16789984D01*
X13715420Y-16789984D02*
X13658277Y-16789984D01*
X13658277Y-16789984D02*
X13639229Y-16780460D01*
X13639229Y-16780460D02*
X13629706Y-16770936D01*
X13924944Y-16589984D02*
X13886848Y-16589984D01*
X13886848Y-16589984D02*
X13867801Y-16599508D01*
X13867801Y-16599508D02*
X13858277Y-16609031D01*
X13858277Y-16609031D02*
X13839229Y-16637603D01*
X13839229Y-16637603D02*
X13829706Y-16675698D01*
X13829706Y-16675698D02*
X13829706Y-16751888D01*
X13829706Y-16751888D02*
X13839229Y-16770936D01*
X13839229Y-16770936D02*
X13848753Y-16780460D01*
X13848753Y-16780460D02*
X13867801Y-16789984D01*
X13867801Y-16789984D02*
X13905896Y-16789984D01*
X13905896Y-16789984D02*
X13924944Y-16780460D01*
X13924944Y-16780460D02*
X13934468Y-16770936D01*
X13934468Y-16770936D02*
X13943991Y-16751888D01*
X13943991Y-16751888D02*
X13943991Y-16704269D01*
X13943991Y-16704269D02*
X13934468Y-16685222D01*
X13934468Y-16685222D02*
X13924944Y-16675698D01*
X13924944Y-16675698D02*
X13905896Y-16666174D01*
X13905896Y-16666174D02*
X13867801Y-16666174D01*
X13867801Y-16666174D02*
X13848753Y-16675698D01*
X13848753Y-16675698D02*
X13839229Y-16685222D01*
X13839229Y-16685222D02*
X13829706Y-16704269D01*
X14182087Y-16789984D02*
X14182087Y-16589984D01*
X14267801Y-16789984D02*
X14267801Y-16685222D01*
X14267801Y-16685222D02*
X14258277Y-16666174D01*
X14258277Y-16666174D02*
X14239230Y-16656650D01*
X14239230Y-16656650D02*
X14210658Y-16656650D01*
X14210658Y-16656650D02*
X14191610Y-16666174D01*
X14191610Y-16666174D02*
X14182087Y-16675698D01*
X14391610Y-16789984D02*
X14372563Y-16780460D01*
X14372563Y-16780460D02*
X14363039Y-16770936D01*
X14363039Y-16770936D02*
X14353515Y-16751888D01*
X14353515Y-16751888D02*
X14353515Y-16694746D01*
X14353515Y-16694746D02*
X14363039Y-16675698D01*
X14363039Y-16675698D02*
X14372563Y-16666174D01*
X14372563Y-16666174D02*
X14391610Y-16656650D01*
X14391610Y-16656650D02*
X14420182Y-16656650D01*
X14420182Y-16656650D02*
X14439230Y-16666174D01*
X14439230Y-16666174D02*
X14448753Y-16675698D01*
X14448753Y-16675698D02*
X14458277Y-16694746D01*
X14458277Y-16694746D02*
X14458277Y-16751888D01*
X14458277Y-16751888D02*
X14448753Y-16770936D01*
X14448753Y-16770936D02*
X14439230Y-16780460D01*
X14439230Y-16780460D02*
X14420182Y-16789984D01*
X14420182Y-16789984D02*
X14391610Y-16789984D01*
X14572563Y-16789984D02*
X14553515Y-16780460D01*
X14553515Y-16780460D02*
X14543991Y-16761412D01*
X14543991Y-16761412D02*
X14543991Y-16589984D01*
X14724944Y-16780460D02*
X14705896Y-16789984D01*
X14705896Y-16789984D02*
X14667801Y-16789984D01*
X14667801Y-16789984D02*
X14648753Y-16780460D01*
X14648753Y-16780460D02*
X14639230Y-16761412D01*
X14639230Y-16761412D02*
X14639230Y-16685222D01*
X14639230Y-16685222D02*
X14648753Y-16666174D01*
X14648753Y-16666174D02*
X14667801Y-16656650D01*
X14667801Y-16656650D02*
X14705896Y-16656650D01*
X14705896Y-16656650D02*
X14724944Y-16666174D01*
X14724944Y-16666174D02*
X14734468Y-16685222D01*
X14734468Y-16685222D02*
X14734468Y-16704269D01*
X14734468Y-16704269D02*
X14639230Y-16723317D01*
X14810658Y-16780460D02*
X14829706Y-16789984D01*
X14829706Y-16789984D02*
X14867801Y-16789984D01*
X14867801Y-16789984D02*
X14886849Y-16780460D01*
X14886849Y-16780460D02*
X14896372Y-16761412D01*
X14896372Y-16761412D02*
X14896372Y-16751888D01*
X14896372Y-16751888D02*
X14886849Y-16732841D01*
X14886849Y-16732841D02*
X14867801Y-16723317D01*
X14867801Y-16723317D02*
X14839230Y-16723317D01*
X14839230Y-16723317D02*
X14820182Y-16713793D01*
X14820182Y-16713793D02*
X14810658Y-16694746D01*
X14810658Y-16694746D02*
X14810658Y-16685222D01*
X14810658Y-16685222D02*
X14820182Y-16666174D01*
X14820182Y-16666174D02*
X14839230Y-16656650D01*
X14839230Y-16656650D02*
X14867801Y-16656650D01*
X14867801Y-16656650D02*
X14886849Y-16666174D01*
X14963039Y-16866174D02*
X14972563Y-16856650D01*
X14972563Y-16856650D02*
X14991611Y-16828079D01*
X14991611Y-16828079D02*
X15001134Y-16809031D01*
X15001134Y-16809031D02*
X15010658Y-16780460D01*
X15010658Y-16780460D02*
X15020182Y-16732841D01*
X15020182Y-16732841D02*
X15020182Y-16694746D01*
X15020182Y-16694746D02*
X15010658Y-16647127D01*
X15010658Y-16647127D02*
X15001134Y-16618555D01*
X15001134Y-16618555D02*
X14991611Y-16599508D01*
X14991611Y-16599508D02*
X14972563Y-16570936D01*
X14972563Y-16570936D02*
X14963039Y-16561412D01*
D13*
X9817500Y-16872500D02*
X9997500Y-17052500D01*
X9997500Y-16872500D02*
X9817500Y-17052500D01*
X9997500Y-16962500D02*
G75*
G02*
X9817500Y-16962500I-90000J0D01*
G01*
X9817500Y-16962500D02*
G75*
G02*
X9997500Y-16962500I90000J0D01*
G01*
D11*
X10363039Y-17053984D02*
X10248753Y-17053984D01*
X10305896Y-17053984D02*
X10305896Y-16853984D01*
X10305896Y-16853984D02*
X10286848Y-16882555D01*
X10286848Y-16882555D02*
X10267801Y-16901603D01*
X10267801Y-16901603D02*
X10248753Y-16911127D01*
X10448753Y-17034936D02*
X10458277Y-17044460D01*
X10458277Y-17044460D02*
X10448753Y-17053984D01*
X10448753Y-17053984D02*
X10439229Y-17044460D01*
X10439229Y-17044460D02*
X10448753Y-17034936D01*
X10448753Y-17034936D02*
X10448753Y-17053984D01*
X10572563Y-16939698D02*
X10553515Y-16930174D01*
X10553515Y-16930174D02*
X10543991Y-16920650D01*
X10543991Y-16920650D02*
X10534467Y-16901603D01*
X10534467Y-16901603D02*
X10534467Y-16892079D01*
X10534467Y-16892079D02*
X10543991Y-16873031D01*
X10543991Y-16873031D02*
X10553515Y-16863508D01*
X10553515Y-16863508D02*
X10572563Y-16853984D01*
X10572563Y-16853984D02*
X10610658Y-16853984D01*
X10610658Y-16853984D02*
X10629705Y-16863508D01*
X10629705Y-16863508D02*
X10639229Y-16873031D01*
X10639229Y-16873031D02*
X10648753Y-16892079D01*
X10648753Y-16892079D02*
X10648753Y-16901603D01*
X10648753Y-16901603D02*
X10639229Y-16920650D01*
X10639229Y-16920650D02*
X10629705Y-16930174D01*
X10629705Y-16930174D02*
X10610658Y-16939698D01*
X10610658Y-16939698D02*
X10572563Y-16939698D01*
X10572563Y-16939698D02*
X10553515Y-16949222D01*
X10553515Y-16949222D02*
X10543991Y-16958746D01*
X10543991Y-16958746D02*
X10534467Y-16977793D01*
X10534467Y-16977793D02*
X10534467Y-17015889D01*
X10534467Y-17015889D02*
X10543991Y-17034936D01*
X10543991Y-17034936D02*
X10553515Y-17044460D01*
X10553515Y-17044460D02*
X10572563Y-17053984D01*
X10572563Y-17053984D02*
X10610658Y-17053984D01*
X10610658Y-17053984D02*
X10629705Y-17044460D01*
X10629705Y-17044460D02*
X10639229Y-17034936D01*
X10639229Y-17034936D02*
X10648753Y-17015889D01*
X10648753Y-17015889D02*
X10648753Y-16977793D01*
X10648753Y-16977793D02*
X10639229Y-16958746D01*
X10639229Y-16958746D02*
X10629705Y-16949222D01*
X10629705Y-16949222D02*
X10610658Y-16939698D01*
X10772563Y-16853984D02*
X10791610Y-16853984D01*
X10791610Y-16853984D02*
X10810658Y-16863508D01*
X10810658Y-16863508D02*
X10820182Y-16873031D01*
X10820182Y-16873031D02*
X10829705Y-16892079D01*
X10829705Y-16892079D02*
X10839229Y-16930174D01*
X10839229Y-16930174D02*
X10839229Y-16977793D01*
X10839229Y-16977793D02*
X10829705Y-17015889D01*
X10829705Y-17015889D02*
X10820182Y-17034936D01*
X10820182Y-17034936D02*
X10810658Y-17044460D01*
X10810658Y-17044460D02*
X10791610Y-17053984D01*
X10791610Y-17053984D02*
X10772563Y-17053984D01*
X10772563Y-17053984D02*
X10753515Y-17044460D01*
X10753515Y-17044460D02*
X10743991Y-17034936D01*
X10743991Y-17034936D02*
X10734467Y-17015889D01*
X10734467Y-17015889D02*
X10724944Y-16977793D01*
X10724944Y-16977793D02*
X10724944Y-16930174D01*
X10724944Y-16930174D02*
X10734467Y-16892079D01*
X10734467Y-16892079D02*
X10743991Y-16873031D01*
X10743991Y-16873031D02*
X10753515Y-16863508D01*
X10753515Y-16863508D02*
X10772563Y-16853984D01*
X10963039Y-16853984D02*
X10982086Y-16853984D01*
X10982086Y-16853984D02*
X11001134Y-16863508D01*
X11001134Y-16863508D02*
X11010658Y-16873031D01*
X11010658Y-16873031D02*
X11020182Y-16892079D01*
X11020182Y-16892079D02*
X11029705Y-16930174D01*
X11029705Y-16930174D02*
X11029705Y-16977793D01*
X11029705Y-16977793D02*
X11020182Y-17015889D01*
X11020182Y-17015889D02*
X11010658Y-17034936D01*
X11010658Y-17034936D02*
X11001134Y-17044460D01*
X11001134Y-17044460D02*
X10982086Y-17053984D01*
X10982086Y-17053984D02*
X10963039Y-17053984D01*
X10963039Y-17053984D02*
X10943991Y-17044460D01*
X10943991Y-17044460D02*
X10934467Y-17034936D01*
X10934467Y-17034936D02*
X10924944Y-17015889D01*
X10924944Y-17015889D02*
X10915420Y-16977793D01*
X10915420Y-16977793D02*
X10915420Y-16930174D01*
X10915420Y-16930174D02*
X10924944Y-16892079D01*
X10924944Y-16892079D02*
X10934467Y-16873031D01*
X10934467Y-16873031D02*
X10943991Y-16863508D01*
X10943991Y-16863508D02*
X10963039Y-16853984D01*
X11115420Y-17053984D02*
X11115420Y-16920650D01*
X11115420Y-16939698D02*
X11124944Y-16930174D01*
X11124944Y-16930174D02*
X11143991Y-16920650D01*
X11143991Y-16920650D02*
X11172563Y-16920650D01*
X11172563Y-16920650D02*
X11191610Y-16930174D01*
X11191610Y-16930174D02*
X11201134Y-16949222D01*
X11201134Y-16949222D02*
X11201134Y-17053984D01*
X11201134Y-16949222D02*
X11210658Y-16930174D01*
X11210658Y-16930174D02*
X11229705Y-16920650D01*
X11229705Y-16920650D02*
X11258277Y-16920650D01*
X11258277Y-16920650D02*
X11277324Y-16930174D01*
X11277324Y-16930174D02*
X11286848Y-16949222D01*
X11286848Y-16949222D02*
X11286848Y-17053984D01*
X11382086Y-17053984D02*
X11382086Y-16920650D01*
X11382086Y-16939698D02*
X11391610Y-16930174D01*
X11391610Y-16930174D02*
X11410658Y-16920650D01*
X11410658Y-16920650D02*
X11439229Y-16920650D01*
X11439229Y-16920650D02*
X11458277Y-16930174D01*
X11458277Y-16930174D02*
X11467801Y-16949222D01*
X11467801Y-16949222D02*
X11467801Y-17053984D01*
X11467801Y-16949222D02*
X11477324Y-16930174D01*
X11477324Y-16930174D02*
X11496372Y-16920650D01*
X11496372Y-16920650D02*
X11524943Y-16920650D01*
X11524943Y-16920650D02*
X11543991Y-16930174D01*
X11543991Y-16930174D02*
X11553515Y-16949222D01*
X11553515Y-16949222D02*
X11553515Y-17053984D01*
X11943991Y-16844460D02*
X11772563Y-17101603D01*
X12201134Y-16853984D02*
X12220182Y-16853984D01*
X12220182Y-16853984D02*
X12239229Y-16863508D01*
X12239229Y-16863508D02*
X12248753Y-16873031D01*
X12248753Y-16873031D02*
X12258277Y-16892079D01*
X12258277Y-16892079D02*
X12267801Y-16930174D01*
X12267801Y-16930174D02*
X12267801Y-16977793D01*
X12267801Y-16977793D02*
X12258277Y-17015889D01*
X12258277Y-17015889D02*
X12248753Y-17034936D01*
X12248753Y-17034936D02*
X12239229Y-17044460D01*
X12239229Y-17044460D02*
X12220182Y-17053984D01*
X12220182Y-17053984D02*
X12201134Y-17053984D01*
X12201134Y-17053984D02*
X12182086Y-17044460D01*
X12182086Y-17044460D02*
X12172563Y-17034936D01*
X12172563Y-17034936D02*
X12163039Y-17015889D01*
X12163039Y-17015889D02*
X12153515Y-16977793D01*
X12153515Y-16977793D02*
X12153515Y-16930174D01*
X12153515Y-16930174D02*
X12163039Y-16892079D01*
X12163039Y-16892079D02*
X12172563Y-16873031D01*
X12172563Y-16873031D02*
X12182086Y-16863508D01*
X12182086Y-16863508D02*
X12201134Y-16853984D01*
X12353515Y-17034936D02*
X12363039Y-17044460D01*
X12363039Y-17044460D02*
X12353515Y-17053984D01*
X12353515Y-17053984D02*
X12343991Y-17044460D01*
X12343991Y-17044460D02*
X12353515Y-17034936D01*
X12353515Y-17034936D02*
X12353515Y-17053984D01*
X12486848Y-16853984D02*
X12505896Y-16853984D01*
X12505896Y-16853984D02*
X12524944Y-16863508D01*
X12524944Y-16863508D02*
X12534467Y-16873031D01*
X12534467Y-16873031D02*
X12543991Y-16892079D01*
X12543991Y-16892079D02*
X12553515Y-16930174D01*
X12553515Y-16930174D02*
X12553515Y-16977793D01*
X12553515Y-16977793D02*
X12543991Y-17015889D01*
X12543991Y-17015889D02*
X12534467Y-17034936D01*
X12534467Y-17034936D02*
X12524944Y-17044460D01*
X12524944Y-17044460D02*
X12505896Y-17053984D01*
X12505896Y-17053984D02*
X12486848Y-17053984D01*
X12486848Y-17053984D02*
X12467801Y-17044460D01*
X12467801Y-17044460D02*
X12458277Y-17034936D01*
X12458277Y-17034936D02*
X12448753Y-17015889D01*
X12448753Y-17015889D02*
X12439229Y-16977793D01*
X12439229Y-16977793D02*
X12439229Y-16930174D01*
X12439229Y-16930174D02*
X12448753Y-16892079D01*
X12448753Y-16892079D02*
X12458277Y-16873031D01*
X12458277Y-16873031D02*
X12467801Y-16863508D01*
X12467801Y-16863508D02*
X12486848Y-16853984D01*
X12620182Y-16853984D02*
X12753515Y-16853984D01*
X12753515Y-16853984D02*
X12667801Y-17053984D01*
X12867801Y-16853984D02*
X12886848Y-16853984D01*
X12886848Y-16853984D02*
X12905896Y-16863508D01*
X12905896Y-16863508D02*
X12915420Y-16873031D01*
X12915420Y-16873031D02*
X12924944Y-16892079D01*
X12924944Y-16892079D02*
X12934467Y-16930174D01*
X12934467Y-16930174D02*
X12934467Y-16977793D01*
X12934467Y-16977793D02*
X12924944Y-17015889D01*
X12924944Y-17015889D02*
X12915420Y-17034936D01*
X12915420Y-17034936D02*
X12905896Y-17044460D01*
X12905896Y-17044460D02*
X12886848Y-17053984D01*
X12886848Y-17053984D02*
X12867801Y-17053984D01*
X12867801Y-17053984D02*
X12848753Y-17044460D01*
X12848753Y-17044460D02*
X12839229Y-17034936D01*
X12839229Y-17034936D02*
X12829706Y-17015889D01*
X12829706Y-17015889D02*
X12820182Y-16977793D01*
X12820182Y-16977793D02*
X12820182Y-16930174D01*
X12820182Y-16930174D02*
X12829706Y-16892079D01*
X12829706Y-16892079D02*
X12839229Y-16873031D01*
X12839229Y-16873031D02*
X12848753Y-16863508D01*
X12848753Y-16863508D02*
X12867801Y-16853984D01*
X13029706Y-17053984D02*
X13067801Y-17053984D01*
X13067801Y-17053984D02*
X13086848Y-17044460D01*
X13086848Y-17044460D02*
X13096372Y-17034936D01*
X13096372Y-17034936D02*
X13115420Y-17006365D01*
X13115420Y-17006365D02*
X13124944Y-16968270D01*
X13124944Y-16968270D02*
X13124944Y-16892079D01*
X13124944Y-16892079D02*
X13115420Y-16873031D01*
X13115420Y-16873031D02*
X13105896Y-16863508D01*
X13105896Y-16863508D02*
X13086848Y-16853984D01*
X13086848Y-16853984D02*
X13048753Y-16853984D01*
X13048753Y-16853984D02*
X13029706Y-16863508D01*
X13029706Y-16863508D02*
X13020182Y-16873031D01*
X13020182Y-16873031D02*
X13010658Y-16892079D01*
X13010658Y-16892079D02*
X13010658Y-16939698D01*
X13010658Y-16939698D02*
X13020182Y-16958746D01*
X13020182Y-16958746D02*
X13029706Y-16968270D01*
X13029706Y-16968270D02*
X13048753Y-16977793D01*
X13048753Y-16977793D02*
X13086848Y-16977793D01*
X13086848Y-16977793D02*
X13105896Y-16968270D01*
X13105896Y-16968270D02*
X13115420Y-16958746D01*
X13115420Y-16958746D02*
X13124944Y-16939698D01*
X13201134Y-16853984D02*
X13201134Y-16892079D01*
X13277325Y-16853984D02*
X13277325Y-16892079D01*
X13572563Y-17130174D02*
X13563039Y-17120650D01*
X13563039Y-17120650D02*
X13543991Y-17092079D01*
X13543991Y-17092079D02*
X13534468Y-17073031D01*
X13534468Y-17073031D02*
X13524944Y-17044460D01*
X13524944Y-17044460D02*
X13515420Y-16996841D01*
X13515420Y-16996841D02*
X13515420Y-16958746D01*
X13515420Y-16958746D02*
X13524944Y-16911127D01*
X13524944Y-16911127D02*
X13534468Y-16882555D01*
X13534468Y-16882555D02*
X13543991Y-16863508D01*
X13543991Y-16863508D02*
X13563039Y-16834936D01*
X13563039Y-16834936D02*
X13572563Y-16825412D01*
X13639229Y-16873031D02*
X13648753Y-16863508D01*
X13648753Y-16863508D02*
X13667801Y-16853984D01*
X13667801Y-16853984D02*
X13715420Y-16853984D01*
X13715420Y-16853984D02*
X13734468Y-16863508D01*
X13734468Y-16863508D02*
X13743991Y-16873031D01*
X13743991Y-16873031D02*
X13753515Y-16892079D01*
X13753515Y-16892079D02*
X13753515Y-16911127D01*
X13753515Y-16911127D02*
X13743991Y-16939698D01*
X13743991Y-16939698D02*
X13629706Y-17053984D01*
X13629706Y-17053984D02*
X13753515Y-17053984D01*
X13991610Y-17053984D02*
X13991610Y-16853984D01*
X14077325Y-17053984D02*
X14077325Y-16949222D01*
X14077325Y-16949222D02*
X14067801Y-16930174D01*
X14067801Y-16930174D02*
X14048753Y-16920650D01*
X14048753Y-16920650D02*
X14020182Y-16920650D01*
X14020182Y-16920650D02*
X14001134Y-16930174D01*
X14001134Y-16930174D02*
X13991610Y-16939698D01*
X14201134Y-17053984D02*
X14182087Y-17044460D01*
X14182087Y-17044460D02*
X14172563Y-17034936D01*
X14172563Y-17034936D02*
X14163039Y-17015889D01*
X14163039Y-17015889D02*
X14163039Y-16958746D01*
X14163039Y-16958746D02*
X14172563Y-16939698D01*
X14172563Y-16939698D02*
X14182087Y-16930174D01*
X14182087Y-16930174D02*
X14201134Y-16920650D01*
X14201134Y-16920650D02*
X14229706Y-16920650D01*
X14229706Y-16920650D02*
X14248753Y-16930174D01*
X14248753Y-16930174D02*
X14258277Y-16939698D01*
X14258277Y-16939698D02*
X14267801Y-16958746D01*
X14267801Y-16958746D02*
X14267801Y-17015889D01*
X14267801Y-17015889D02*
X14258277Y-17034936D01*
X14258277Y-17034936D02*
X14248753Y-17044460D01*
X14248753Y-17044460D02*
X14229706Y-17053984D01*
X14229706Y-17053984D02*
X14201134Y-17053984D01*
X14382087Y-17053984D02*
X14363039Y-17044460D01*
X14363039Y-17044460D02*
X14353515Y-17025412D01*
X14353515Y-17025412D02*
X14353515Y-16853984D01*
X14534468Y-17044460D02*
X14515420Y-17053984D01*
X14515420Y-17053984D02*
X14477325Y-17053984D01*
X14477325Y-17053984D02*
X14458277Y-17044460D01*
X14458277Y-17044460D02*
X14448753Y-17025412D01*
X14448753Y-17025412D02*
X14448753Y-16949222D01*
X14448753Y-16949222D02*
X14458277Y-16930174D01*
X14458277Y-16930174D02*
X14477325Y-16920650D01*
X14477325Y-16920650D02*
X14515420Y-16920650D01*
X14515420Y-16920650D02*
X14534468Y-16930174D01*
X14534468Y-16930174D02*
X14543991Y-16949222D01*
X14543991Y-16949222D02*
X14543991Y-16968270D01*
X14543991Y-16968270D02*
X14448753Y-16987317D01*
X14620182Y-17044460D02*
X14639230Y-17053984D01*
X14639230Y-17053984D02*
X14677325Y-17053984D01*
X14677325Y-17053984D02*
X14696372Y-17044460D01*
X14696372Y-17044460D02*
X14705896Y-17025412D01*
X14705896Y-17025412D02*
X14705896Y-17015889D01*
X14705896Y-17015889D02*
X14696372Y-16996841D01*
X14696372Y-16996841D02*
X14677325Y-16987317D01*
X14677325Y-16987317D02*
X14648753Y-16987317D01*
X14648753Y-16987317D02*
X14629706Y-16977793D01*
X14629706Y-16977793D02*
X14620182Y-16958746D01*
X14620182Y-16958746D02*
X14620182Y-16949222D01*
X14620182Y-16949222D02*
X14629706Y-16930174D01*
X14629706Y-16930174D02*
X14648753Y-16920650D01*
X14648753Y-16920650D02*
X14677325Y-16920650D01*
X14677325Y-16920650D02*
X14696372Y-16930174D01*
X14772563Y-17130174D02*
X14782087Y-17120650D01*
X14782087Y-17120650D02*
X14801134Y-17092079D01*
X14801134Y-17092079D02*
X14810658Y-17073031D01*
X14810658Y-17073031D02*
X14820182Y-17044460D01*
X14820182Y-17044460D02*
X14829706Y-16996841D01*
X14829706Y-16996841D02*
X14829706Y-16958746D01*
X14829706Y-16958746D02*
X14820182Y-16911127D01*
X14820182Y-16911127D02*
X14810658Y-16882555D01*
X14810658Y-16882555D02*
X14801134Y-16863508D01*
X14801134Y-16863508D02*
X14782087Y-16834936D01*
X14782087Y-16834936D02*
X14772563Y-16825412D01*
X9797500Y-17162500D02*
X9997500Y-17362500D01*
X9997500Y-17162500D02*
X9797500Y-17362500D01*
X9897500Y-17162500D02*
X9897500Y-17362500D01*
X9797500Y-17262500D02*
X9997500Y-17262500D01*
X10239229Y-17153984D02*
X10363039Y-17153984D01*
X10363039Y-17153984D02*
X10296372Y-17230174D01*
X10296372Y-17230174D02*
X10324944Y-17230174D01*
X10324944Y-17230174D02*
X10343991Y-17239698D01*
X10343991Y-17239698D02*
X10353515Y-17249222D01*
X10353515Y-17249222D02*
X10363039Y-17268270D01*
X10363039Y-17268270D02*
X10363039Y-17315889D01*
X10363039Y-17315889D02*
X10353515Y-17334936D01*
X10353515Y-17334936D02*
X10343991Y-17344460D01*
X10343991Y-17344460D02*
X10324944Y-17353984D01*
X10324944Y-17353984D02*
X10267801Y-17353984D01*
X10267801Y-17353984D02*
X10248753Y-17344460D01*
X10248753Y-17344460D02*
X10239229Y-17334936D01*
X10448753Y-17334936D02*
X10458277Y-17344460D01*
X10458277Y-17344460D02*
X10448753Y-17353984D01*
X10448753Y-17353984D02*
X10439229Y-17344460D01*
X10439229Y-17344460D02*
X10448753Y-17334936D01*
X10448753Y-17334936D02*
X10448753Y-17353984D01*
X10534467Y-17173031D02*
X10543991Y-17163508D01*
X10543991Y-17163508D02*
X10563039Y-17153984D01*
X10563039Y-17153984D02*
X10610658Y-17153984D01*
X10610658Y-17153984D02*
X10629705Y-17163508D01*
X10629705Y-17163508D02*
X10639229Y-17173031D01*
X10639229Y-17173031D02*
X10648753Y-17192079D01*
X10648753Y-17192079D02*
X10648753Y-17211127D01*
X10648753Y-17211127D02*
X10639229Y-17239698D01*
X10639229Y-17239698D02*
X10524944Y-17353984D01*
X10524944Y-17353984D02*
X10648753Y-17353984D01*
X10772563Y-17153984D02*
X10791610Y-17153984D01*
X10791610Y-17153984D02*
X10810658Y-17163508D01*
X10810658Y-17163508D02*
X10820182Y-17173031D01*
X10820182Y-17173031D02*
X10829705Y-17192079D01*
X10829705Y-17192079D02*
X10839229Y-17230174D01*
X10839229Y-17230174D02*
X10839229Y-17277793D01*
X10839229Y-17277793D02*
X10829705Y-17315889D01*
X10829705Y-17315889D02*
X10820182Y-17334936D01*
X10820182Y-17334936D02*
X10810658Y-17344460D01*
X10810658Y-17344460D02*
X10791610Y-17353984D01*
X10791610Y-17353984D02*
X10772563Y-17353984D01*
X10772563Y-17353984D02*
X10753515Y-17344460D01*
X10753515Y-17344460D02*
X10743991Y-17334936D01*
X10743991Y-17334936D02*
X10734467Y-17315889D01*
X10734467Y-17315889D02*
X10724944Y-17277793D01*
X10724944Y-17277793D02*
X10724944Y-17230174D01*
X10724944Y-17230174D02*
X10734467Y-17192079D01*
X10734467Y-17192079D02*
X10743991Y-17173031D01*
X10743991Y-17173031D02*
X10753515Y-17163508D01*
X10753515Y-17163508D02*
X10772563Y-17153984D01*
X10963039Y-17153984D02*
X10982086Y-17153984D01*
X10982086Y-17153984D02*
X11001134Y-17163508D01*
X11001134Y-17163508D02*
X11010658Y-17173031D01*
X11010658Y-17173031D02*
X11020182Y-17192079D01*
X11020182Y-17192079D02*
X11029705Y-17230174D01*
X11029705Y-17230174D02*
X11029705Y-17277793D01*
X11029705Y-17277793D02*
X11020182Y-17315889D01*
X11020182Y-17315889D02*
X11010658Y-17334936D01*
X11010658Y-17334936D02*
X11001134Y-17344460D01*
X11001134Y-17344460D02*
X10982086Y-17353984D01*
X10982086Y-17353984D02*
X10963039Y-17353984D01*
X10963039Y-17353984D02*
X10943991Y-17344460D01*
X10943991Y-17344460D02*
X10934467Y-17334936D01*
X10934467Y-17334936D02*
X10924944Y-17315889D01*
X10924944Y-17315889D02*
X10915420Y-17277793D01*
X10915420Y-17277793D02*
X10915420Y-17230174D01*
X10915420Y-17230174D02*
X10924944Y-17192079D01*
X10924944Y-17192079D02*
X10934467Y-17173031D01*
X10934467Y-17173031D02*
X10943991Y-17163508D01*
X10943991Y-17163508D02*
X10963039Y-17153984D01*
X11115420Y-17353984D02*
X11115420Y-17220650D01*
X11115420Y-17239698D02*
X11124944Y-17230174D01*
X11124944Y-17230174D02*
X11143991Y-17220650D01*
X11143991Y-17220650D02*
X11172563Y-17220650D01*
X11172563Y-17220650D02*
X11191610Y-17230174D01*
X11191610Y-17230174D02*
X11201134Y-17249222D01*
X11201134Y-17249222D02*
X11201134Y-17353984D01*
X11201134Y-17249222D02*
X11210658Y-17230174D01*
X11210658Y-17230174D02*
X11229705Y-17220650D01*
X11229705Y-17220650D02*
X11258277Y-17220650D01*
X11258277Y-17220650D02*
X11277324Y-17230174D01*
X11277324Y-17230174D02*
X11286848Y-17249222D01*
X11286848Y-17249222D02*
X11286848Y-17353984D01*
X11382086Y-17353984D02*
X11382086Y-17220650D01*
X11382086Y-17239698D02*
X11391610Y-17230174D01*
X11391610Y-17230174D02*
X11410658Y-17220650D01*
X11410658Y-17220650D02*
X11439229Y-17220650D01*
X11439229Y-17220650D02*
X11458277Y-17230174D01*
X11458277Y-17230174D02*
X11467801Y-17249222D01*
X11467801Y-17249222D02*
X11467801Y-17353984D01*
X11467801Y-17249222D02*
X11477324Y-17230174D01*
X11477324Y-17230174D02*
X11496372Y-17220650D01*
X11496372Y-17220650D02*
X11524943Y-17220650D01*
X11524943Y-17220650D02*
X11543991Y-17230174D01*
X11543991Y-17230174D02*
X11553515Y-17249222D01*
X11553515Y-17249222D02*
X11553515Y-17353984D01*
X11943991Y-17144460D02*
X11772563Y-17401603D01*
X12201134Y-17153984D02*
X12220182Y-17153984D01*
X12220182Y-17153984D02*
X12239229Y-17163508D01*
X12239229Y-17163508D02*
X12248753Y-17173031D01*
X12248753Y-17173031D02*
X12258277Y-17192079D01*
X12258277Y-17192079D02*
X12267801Y-17230174D01*
X12267801Y-17230174D02*
X12267801Y-17277793D01*
X12267801Y-17277793D02*
X12258277Y-17315889D01*
X12258277Y-17315889D02*
X12248753Y-17334936D01*
X12248753Y-17334936D02*
X12239229Y-17344460D01*
X12239229Y-17344460D02*
X12220182Y-17353984D01*
X12220182Y-17353984D02*
X12201134Y-17353984D01*
X12201134Y-17353984D02*
X12182086Y-17344460D01*
X12182086Y-17344460D02*
X12172563Y-17334936D01*
X12172563Y-17334936D02*
X12163039Y-17315889D01*
X12163039Y-17315889D02*
X12153515Y-17277793D01*
X12153515Y-17277793D02*
X12153515Y-17230174D01*
X12153515Y-17230174D02*
X12163039Y-17192079D01*
X12163039Y-17192079D02*
X12172563Y-17173031D01*
X12172563Y-17173031D02*
X12182086Y-17163508D01*
X12182086Y-17163508D02*
X12201134Y-17153984D01*
X12353515Y-17334936D02*
X12363039Y-17344460D01*
X12363039Y-17344460D02*
X12353515Y-17353984D01*
X12353515Y-17353984D02*
X12343991Y-17344460D01*
X12343991Y-17344460D02*
X12353515Y-17334936D01*
X12353515Y-17334936D02*
X12353515Y-17353984D01*
X12553515Y-17353984D02*
X12439229Y-17353984D01*
X12496372Y-17353984D02*
X12496372Y-17153984D01*
X12496372Y-17153984D02*
X12477325Y-17182555D01*
X12477325Y-17182555D02*
X12458277Y-17201603D01*
X12458277Y-17201603D02*
X12439229Y-17211127D01*
X12629706Y-17173031D02*
X12639229Y-17163508D01*
X12639229Y-17163508D02*
X12658277Y-17153984D01*
X12658277Y-17153984D02*
X12705896Y-17153984D01*
X12705896Y-17153984D02*
X12724944Y-17163508D01*
X12724944Y-17163508D02*
X12734467Y-17173031D01*
X12734467Y-17173031D02*
X12743991Y-17192079D01*
X12743991Y-17192079D02*
X12743991Y-17211127D01*
X12743991Y-17211127D02*
X12734467Y-17239698D01*
X12734467Y-17239698D02*
X12620182Y-17353984D01*
X12620182Y-17353984D02*
X12743991Y-17353984D01*
X12915420Y-17153984D02*
X12877325Y-17153984D01*
X12877325Y-17153984D02*
X12858277Y-17163508D01*
X12858277Y-17163508D02*
X12848753Y-17173031D01*
X12848753Y-17173031D02*
X12829706Y-17201603D01*
X12829706Y-17201603D02*
X12820182Y-17239698D01*
X12820182Y-17239698D02*
X12820182Y-17315889D01*
X12820182Y-17315889D02*
X12829706Y-17334936D01*
X12829706Y-17334936D02*
X12839229Y-17344460D01*
X12839229Y-17344460D02*
X12858277Y-17353984D01*
X12858277Y-17353984D02*
X12896372Y-17353984D01*
X12896372Y-17353984D02*
X12915420Y-17344460D01*
X12915420Y-17344460D02*
X12924944Y-17334936D01*
X12924944Y-17334936D02*
X12934467Y-17315889D01*
X12934467Y-17315889D02*
X12934467Y-17268270D01*
X12934467Y-17268270D02*
X12924944Y-17249222D01*
X12924944Y-17249222D02*
X12915420Y-17239698D01*
X12915420Y-17239698D02*
X12896372Y-17230174D01*
X12896372Y-17230174D02*
X12858277Y-17230174D01*
X12858277Y-17230174D02*
X12839229Y-17239698D01*
X12839229Y-17239698D02*
X12829706Y-17249222D01*
X12829706Y-17249222D02*
X12820182Y-17268270D01*
X13058277Y-17153984D02*
X13077325Y-17153984D01*
X13077325Y-17153984D02*
X13096372Y-17163508D01*
X13096372Y-17163508D02*
X13105896Y-17173031D01*
X13105896Y-17173031D02*
X13115420Y-17192079D01*
X13115420Y-17192079D02*
X13124944Y-17230174D01*
X13124944Y-17230174D02*
X13124944Y-17277793D01*
X13124944Y-17277793D02*
X13115420Y-17315889D01*
X13115420Y-17315889D02*
X13105896Y-17334936D01*
X13105896Y-17334936D02*
X13096372Y-17344460D01*
X13096372Y-17344460D02*
X13077325Y-17353984D01*
X13077325Y-17353984D02*
X13058277Y-17353984D01*
X13058277Y-17353984D02*
X13039229Y-17344460D01*
X13039229Y-17344460D02*
X13029706Y-17334936D01*
X13029706Y-17334936D02*
X13020182Y-17315889D01*
X13020182Y-17315889D02*
X13010658Y-17277793D01*
X13010658Y-17277793D02*
X13010658Y-17230174D01*
X13010658Y-17230174D02*
X13020182Y-17192079D01*
X13020182Y-17192079D02*
X13029706Y-17173031D01*
X13029706Y-17173031D02*
X13039229Y-17163508D01*
X13039229Y-17163508D02*
X13058277Y-17153984D01*
X13201134Y-17153984D02*
X13201134Y-17192079D01*
X13277325Y-17153984D02*
X13277325Y-17192079D01*
X13572563Y-17430174D02*
X13563039Y-17420650D01*
X13563039Y-17420650D02*
X13543991Y-17392079D01*
X13543991Y-17392079D02*
X13534468Y-17373031D01*
X13534468Y-17373031D02*
X13524944Y-17344460D01*
X13524944Y-17344460D02*
X13515420Y-17296841D01*
X13515420Y-17296841D02*
X13515420Y-17258746D01*
X13515420Y-17258746D02*
X13524944Y-17211127D01*
X13524944Y-17211127D02*
X13534468Y-17182555D01*
X13534468Y-17182555D02*
X13543991Y-17163508D01*
X13543991Y-17163508D02*
X13563039Y-17134936D01*
X13563039Y-17134936D02*
X13572563Y-17125412D01*
X13734468Y-17220650D02*
X13734468Y-17353984D01*
X13686848Y-17144460D02*
X13639229Y-17287317D01*
X13639229Y-17287317D02*
X13763039Y-17287317D01*
X13991610Y-17353984D02*
X13991610Y-17153984D01*
X14077325Y-17353984D02*
X14077325Y-17249222D01*
X14077325Y-17249222D02*
X14067801Y-17230174D01*
X14067801Y-17230174D02*
X14048753Y-17220650D01*
X14048753Y-17220650D02*
X14020182Y-17220650D01*
X14020182Y-17220650D02*
X14001134Y-17230174D01*
X14001134Y-17230174D02*
X13991610Y-17239698D01*
X14201134Y-17353984D02*
X14182087Y-17344460D01*
X14182087Y-17344460D02*
X14172563Y-17334936D01*
X14172563Y-17334936D02*
X14163039Y-17315889D01*
X14163039Y-17315889D02*
X14163039Y-17258746D01*
X14163039Y-17258746D02*
X14172563Y-17239698D01*
X14172563Y-17239698D02*
X14182087Y-17230174D01*
X14182087Y-17230174D02*
X14201134Y-17220650D01*
X14201134Y-17220650D02*
X14229706Y-17220650D01*
X14229706Y-17220650D02*
X14248753Y-17230174D01*
X14248753Y-17230174D02*
X14258277Y-17239698D01*
X14258277Y-17239698D02*
X14267801Y-17258746D01*
X14267801Y-17258746D02*
X14267801Y-17315889D01*
X14267801Y-17315889D02*
X14258277Y-17334936D01*
X14258277Y-17334936D02*
X14248753Y-17344460D01*
X14248753Y-17344460D02*
X14229706Y-17353984D01*
X14229706Y-17353984D02*
X14201134Y-17353984D01*
X14382087Y-17353984D02*
X14363039Y-17344460D01*
X14363039Y-17344460D02*
X14353515Y-17325412D01*
X14353515Y-17325412D02*
X14353515Y-17153984D01*
X14534468Y-17344460D02*
X14515420Y-17353984D01*
X14515420Y-17353984D02*
X14477325Y-17353984D01*
X14477325Y-17353984D02*
X14458277Y-17344460D01*
X14458277Y-17344460D02*
X14448753Y-17325412D01*
X14448753Y-17325412D02*
X14448753Y-17249222D01*
X14448753Y-17249222D02*
X14458277Y-17230174D01*
X14458277Y-17230174D02*
X14477325Y-17220650D01*
X14477325Y-17220650D02*
X14515420Y-17220650D01*
X14515420Y-17220650D02*
X14534468Y-17230174D01*
X14534468Y-17230174D02*
X14543991Y-17249222D01*
X14543991Y-17249222D02*
X14543991Y-17268270D01*
X14543991Y-17268270D02*
X14448753Y-17287317D01*
X14620182Y-17344460D02*
X14639230Y-17353984D01*
X14639230Y-17353984D02*
X14677325Y-17353984D01*
X14677325Y-17353984D02*
X14696372Y-17344460D01*
X14696372Y-17344460D02*
X14705896Y-17325412D01*
X14705896Y-17325412D02*
X14705896Y-17315889D01*
X14705896Y-17315889D02*
X14696372Y-17296841D01*
X14696372Y-17296841D02*
X14677325Y-17287317D01*
X14677325Y-17287317D02*
X14648753Y-17287317D01*
X14648753Y-17287317D02*
X14629706Y-17277793D01*
X14629706Y-17277793D02*
X14620182Y-17258746D01*
X14620182Y-17258746D02*
X14620182Y-17249222D01*
X14620182Y-17249222D02*
X14629706Y-17230174D01*
X14629706Y-17230174D02*
X14648753Y-17220650D01*
X14648753Y-17220650D02*
X14677325Y-17220650D01*
X14677325Y-17220650D02*
X14696372Y-17230174D01*
X14772563Y-17430174D02*
X14782087Y-17420650D01*
X14782087Y-17420650D02*
X14801134Y-17392079D01*
X14801134Y-17392079D02*
X14810658Y-17373031D01*
X14810658Y-17373031D02*
X14820182Y-17344460D01*
X14820182Y-17344460D02*
X14829706Y-17296841D01*
X14829706Y-17296841D02*
X14829706Y-17258746D01*
X14829706Y-17258746D02*
X14820182Y-17211127D01*
X14820182Y-17211127D02*
X14810658Y-17182555D01*
X14810658Y-17182555D02*
X14801134Y-17163508D01*
X14801134Y-17163508D02*
X14782087Y-17134936D01*
X14782087Y-17134936D02*
X14772563Y-17125412D01*
M02*
