G04 #@! TF.GenerationSoftware,KiCad,Pcbnew,8.0.8*
G04 #@! TF.CreationDate,2025-03-26T21:35:13+02:00*
G04 #@! TF.ProjectId,rioctrl-spindle,72696f63-7472-46c2-9d73-70696e646c65,rev?*
G04 #@! TF.SameCoordinates,Original*
G04 #@! TF.FileFunction,Legend,Top*
G04 #@! TF.FilePolarity,Positive*
%FSLAX46Y46*%
G04 Gerber Fmt 4.6, Leading zero omitted, Abs format (unit mm)*
G04 Created by KiCad (PCBNEW 8.0.8) date 2025-03-26 21:35:13*
%MOMM*%
%LPD*%
G01*
G04 APERTURE LIST*
%ADD10C,0.300000*%
%ADD11C,0.250000*%
%ADD12C,0.150000*%
%ADD13C,0.100000*%
%ADD14C,0.175000*%
%ADD15C,0.120000*%
G04 APERTURE END LIST*
D10*
X133533795Y-117989638D02*
X133533795Y-116656304D01*
X133533795Y-117037257D02*
X133629033Y-116846780D01*
X133629033Y-116846780D02*
X133724271Y-116751542D01*
X133724271Y-116751542D02*
X133914747Y-116656304D01*
X133914747Y-116656304D02*
X134105224Y-116656304D01*
X134771890Y-117989638D02*
X134771890Y-116656304D01*
X134771890Y-115989638D02*
X134676652Y-116084876D01*
X134676652Y-116084876D02*
X134771890Y-116180114D01*
X134771890Y-116180114D02*
X134867128Y-116084876D01*
X134867128Y-116084876D02*
X134771890Y-115989638D01*
X134771890Y-115989638D02*
X134771890Y-116180114D01*
X136009985Y-117989638D02*
X135819509Y-117894400D01*
X135819509Y-117894400D02*
X135724271Y-117799161D01*
X135724271Y-117799161D02*
X135629033Y-117608685D01*
X135629033Y-117608685D02*
X135629033Y-117037257D01*
X135629033Y-117037257D02*
X135724271Y-116846780D01*
X135724271Y-116846780D02*
X135819509Y-116751542D01*
X135819509Y-116751542D02*
X136009985Y-116656304D01*
X136009985Y-116656304D02*
X136295700Y-116656304D01*
X136295700Y-116656304D02*
X136486176Y-116751542D01*
X136486176Y-116751542D02*
X136581414Y-116846780D01*
X136581414Y-116846780D02*
X136676652Y-117037257D01*
X136676652Y-117037257D02*
X136676652Y-117608685D01*
X136676652Y-117608685D02*
X136581414Y-117799161D01*
X136581414Y-117799161D02*
X136486176Y-117894400D01*
X136486176Y-117894400D02*
X136295700Y-117989638D01*
X136295700Y-117989638D02*
X136009985Y-117989638D01*
X138390938Y-117894400D02*
X138200462Y-117989638D01*
X138200462Y-117989638D02*
X137819509Y-117989638D01*
X137819509Y-117989638D02*
X137629033Y-117894400D01*
X137629033Y-117894400D02*
X137533795Y-117799161D01*
X137533795Y-117799161D02*
X137438557Y-117608685D01*
X137438557Y-117608685D02*
X137438557Y-117037257D01*
X137438557Y-117037257D02*
X137533795Y-116846780D01*
X137533795Y-116846780D02*
X137629033Y-116751542D01*
X137629033Y-116751542D02*
X137819509Y-116656304D01*
X137819509Y-116656304D02*
X138200462Y-116656304D01*
X138200462Y-116656304D02*
X138390938Y-116751542D01*
X138962367Y-116656304D02*
X139724271Y-116656304D01*
X139248081Y-115989638D02*
X139248081Y-117703923D01*
X139248081Y-117703923D02*
X139343319Y-117894400D01*
X139343319Y-117894400D02*
X139533795Y-117989638D01*
X139533795Y-117989638D02*
X139724271Y-117989638D01*
X140390938Y-117989638D02*
X140390938Y-116656304D01*
X140390938Y-117037257D02*
X140486176Y-116846780D01*
X140486176Y-116846780D02*
X140581414Y-116751542D01*
X140581414Y-116751542D02*
X140771890Y-116656304D01*
X140771890Y-116656304D02*
X140962367Y-116656304D01*
X141914747Y-117989638D02*
X141724271Y-117894400D01*
X141724271Y-117894400D02*
X141629033Y-117703923D01*
X141629033Y-117703923D02*
X141629033Y-115989638D01*
X142676652Y-117227733D02*
X144200462Y-117227733D01*
X145057604Y-117894400D02*
X145248080Y-117989638D01*
X145248080Y-117989638D02*
X145629032Y-117989638D01*
X145629032Y-117989638D02*
X145819509Y-117894400D01*
X145819509Y-117894400D02*
X145914747Y-117703923D01*
X145914747Y-117703923D02*
X145914747Y-117608685D01*
X145914747Y-117608685D02*
X145819509Y-117418209D01*
X145819509Y-117418209D02*
X145629032Y-117322971D01*
X145629032Y-117322971D02*
X145343318Y-117322971D01*
X145343318Y-117322971D02*
X145152842Y-117227733D01*
X145152842Y-117227733D02*
X145057604Y-117037257D01*
X145057604Y-117037257D02*
X145057604Y-116942019D01*
X145057604Y-116942019D02*
X145152842Y-116751542D01*
X145152842Y-116751542D02*
X145343318Y-116656304D01*
X145343318Y-116656304D02*
X145629032Y-116656304D01*
X145629032Y-116656304D02*
X145819509Y-116751542D01*
X146771890Y-116656304D02*
X146771890Y-118656304D01*
X146771890Y-116751542D02*
X146962366Y-116656304D01*
X146962366Y-116656304D02*
X147343319Y-116656304D01*
X147343319Y-116656304D02*
X147533795Y-116751542D01*
X147533795Y-116751542D02*
X147629033Y-116846780D01*
X147629033Y-116846780D02*
X147724271Y-117037257D01*
X147724271Y-117037257D02*
X147724271Y-117608685D01*
X147724271Y-117608685D02*
X147629033Y-117799161D01*
X147629033Y-117799161D02*
X147533795Y-117894400D01*
X147533795Y-117894400D02*
X147343319Y-117989638D01*
X147343319Y-117989638D02*
X146962366Y-117989638D01*
X146962366Y-117989638D02*
X146771890Y-117894400D01*
X148581414Y-117989638D02*
X148581414Y-116656304D01*
X148581414Y-115989638D02*
X148486176Y-116084876D01*
X148486176Y-116084876D02*
X148581414Y-116180114D01*
X148581414Y-116180114D02*
X148676652Y-116084876D01*
X148676652Y-116084876D02*
X148581414Y-115989638D01*
X148581414Y-115989638D02*
X148581414Y-116180114D01*
X149533795Y-116656304D02*
X149533795Y-117989638D01*
X149533795Y-116846780D02*
X149629033Y-116751542D01*
X149629033Y-116751542D02*
X149819509Y-116656304D01*
X149819509Y-116656304D02*
X150105224Y-116656304D01*
X150105224Y-116656304D02*
X150295700Y-116751542D01*
X150295700Y-116751542D02*
X150390938Y-116942019D01*
X150390938Y-116942019D02*
X150390938Y-117989638D01*
X152200462Y-117989638D02*
X152200462Y-115989638D01*
X152200462Y-117894400D02*
X152009986Y-117989638D01*
X152009986Y-117989638D02*
X151629033Y-117989638D01*
X151629033Y-117989638D02*
X151438557Y-117894400D01*
X151438557Y-117894400D02*
X151343319Y-117799161D01*
X151343319Y-117799161D02*
X151248081Y-117608685D01*
X151248081Y-117608685D02*
X151248081Y-117037257D01*
X151248081Y-117037257D02*
X151343319Y-116846780D01*
X151343319Y-116846780D02*
X151438557Y-116751542D01*
X151438557Y-116751542D02*
X151629033Y-116656304D01*
X151629033Y-116656304D02*
X152009986Y-116656304D01*
X152009986Y-116656304D02*
X152200462Y-116751542D01*
X153438557Y-117989638D02*
X153248081Y-117894400D01*
X153248081Y-117894400D02*
X153152843Y-117703923D01*
X153152843Y-117703923D02*
X153152843Y-115989638D01*
X154962367Y-117894400D02*
X154771891Y-117989638D01*
X154771891Y-117989638D02*
X154390938Y-117989638D01*
X154390938Y-117989638D02*
X154200462Y-117894400D01*
X154200462Y-117894400D02*
X154105224Y-117703923D01*
X154105224Y-117703923D02*
X154105224Y-116942019D01*
X154105224Y-116942019D02*
X154200462Y-116751542D01*
X154200462Y-116751542D02*
X154390938Y-116656304D01*
X154390938Y-116656304D02*
X154771891Y-116656304D01*
X154771891Y-116656304D02*
X154962367Y-116751542D01*
X154962367Y-116751542D02*
X155057605Y-116942019D01*
X155057605Y-116942019D02*
X155057605Y-117132495D01*
X155057605Y-117132495D02*
X154105224Y-117322971D01*
X157248082Y-116656304D02*
X157724272Y-117989638D01*
X157724272Y-117989638D02*
X158200463Y-116656304D01*
X160009987Y-117989638D02*
X158867130Y-117989638D01*
X159438558Y-117989638D02*
X159438558Y-115989638D01*
X159438558Y-115989638D02*
X159248082Y-116275352D01*
X159248082Y-116275352D02*
X159057606Y-116465828D01*
X159057606Y-116465828D02*
X158867130Y-116561066D01*
X160867130Y-117799161D02*
X160962368Y-117894400D01*
X160962368Y-117894400D02*
X160867130Y-117989638D01*
X160867130Y-117989638D02*
X160771892Y-117894400D01*
X160771892Y-117894400D02*
X160867130Y-117799161D01*
X160867130Y-117799161D02*
X160867130Y-117989638D01*
X162200463Y-115989638D02*
X162390940Y-115989638D01*
X162390940Y-115989638D02*
X162581416Y-116084876D01*
X162581416Y-116084876D02*
X162676654Y-116180114D01*
X162676654Y-116180114D02*
X162771892Y-116370590D01*
X162771892Y-116370590D02*
X162867130Y-116751542D01*
X162867130Y-116751542D02*
X162867130Y-117227733D01*
X162867130Y-117227733D02*
X162771892Y-117608685D01*
X162771892Y-117608685D02*
X162676654Y-117799161D01*
X162676654Y-117799161D02*
X162581416Y-117894400D01*
X162581416Y-117894400D02*
X162390940Y-117989638D01*
X162390940Y-117989638D02*
X162200463Y-117989638D01*
X162200463Y-117989638D02*
X162009987Y-117894400D01*
X162009987Y-117894400D02*
X161914749Y-117799161D01*
X161914749Y-117799161D02*
X161819511Y-117608685D01*
X161819511Y-117608685D02*
X161724273Y-117227733D01*
X161724273Y-117227733D02*
X161724273Y-116751542D01*
X161724273Y-116751542D02*
X161819511Y-116370590D01*
X161819511Y-116370590D02*
X161914749Y-116180114D01*
X161914749Y-116180114D02*
X162009987Y-116084876D01*
X162009987Y-116084876D02*
X162200463Y-115989638D01*
D11*
X135880662Y-123864619D02*
X135880662Y-122864619D01*
X136309233Y-123864619D02*
X136309233Y-123340809D01*
X136309233Y-123340809D02*
X136261614Y-123245571D01*
X136261614Y-123245571D02*
X136166376Y-123197952D01*
X136166376Y-123197952D02*
X136023519Y-123197952D01*
X136023519Y-123197952D02*
X135928281Y-123245571D01*
X135928281Y-123245571D02*
X135880662Y-123293190D01*
X136642567Y-123197952D02*
X137023519Y-123197952D01*
X136785424Y-122864619D02*
X136785424Y-123721761D01*
X136785424Y-123721761D02*
X136833043Y-123817000D01*
X136833043Y-123817000D02*
X136928281Y-123864619D01*
X136928281Y-123864619D02*
X137023519Y-123864619D01*
X137213996Y-123197952D02*
X137594948Y-123197952D01*
X137356853Y-122864619D02*
X137356853Y-123721761D01*
X137356853Y-123721761D02*
X137404472Y-123817000D01*
X137404472Y-123817000D02*
X137499710Y-123864619D01*
X137499710Y-123864619D02*
X137594948Y-123864619D01*
X137928282Y-123197952D02*
X137928282Y-124197952D01*
X137928282Y-123245571D02*
X138023520Y-123197952D01*
X138023520Y-123197952D02*
X138213996Y-123197952D01*
X138213996Y-123197952D02*
X138309234Y-123245571D01*
X138309234Y-123245571D02*
X138356853Y-123293190D01*
X138356853Y-123293190D02*
X138404472Y-123388428D01*
X138404472Y-123388428D02*
X138404472Y-123674142D01*
X138404472Y-123674142D02*
X138356853Y-123769380D01*
X138356853Y-123769380D02*
X138309234Y-123817000D01*
X138309234Y-123817000D02*
X138213996Y-123864619D01*
X138213996Y-123864619D02*
X138023520Y-123864619D01*
X138023520Y-123864619D02*
X137928282Y-123817000D01*
X138785425Y-123817000D02*
X138880663Y-123864619D01*
X138880663Y-123864619D02*
X139071139Y-123864619D01*
X139071139Y-123864619D02*
X139166377Y-123817000D01*
X139166377Y-123817000D02*
X139213996Y-123721761D01*
X139213996Y-123721761D02*
X139213996Y-123674142D01*
X139213996Y-123674142D02*
X139166377Y-123578904D01*
X139166377Y-123578904D02*
X139071139Y-123531285D01*
X139071139Y-123531285D02*
X138928282Y-123531285D01*
X138928282Y-123531285D02*
X138833044Y-123483666D01*
X138833044Y-123483666D02*
X138785425Y-123388428D01*
X138785425Y-123388428D02*
X138785425Y-123340809D01*
X138785425Y-123340809D02*
X138833044Y-123245571D01*
X138833044Y-123245571D02*
X138928282Y-123197952D01*
X138928282Y-123197952D02*
X139071139Y-123197952D01*
X139071139Y-123197952D02*
X139166377Y-123245571D01*
X139642568Y-123769380D02*
X139690187Y-123817000D01*
X139690187Y-123817000D02*
X139642568Y-123864619D01*
X139642568Y-123864619D02*
X139594949Y-123817000D01*
X139594949Y-123817000D02*
X139642568Y-123769380D01*
X139642568Y-123769380D02*
X139642568Y-123864619D01*
X139642568Y-123245571D02*
X139690187Y-123293190D01*
X139690187Y-123293190D02*
X139642568Y-123340809D01*
X139642568Y-123340809D02*
X139594949Y-123293190D01*
X139594949Y-123293190D02*
X139642568Y-123245571D01*
X139642568Y-123245571D02*
X139642568Y-123340809D01*
X140833043Y-122817000D02*
X139975901Y-124102714D01*
X141880662Y-122817000D02*
X141023520Y-124102714D01*
X142642567Y-123197952D02*
X142642567Y-124007476D01*
X142642567Y-124007476D02*
X142594948Y-124102714D01*
X142594948Y-124102714D02*
X142547329Y-124150333D01*
X142547329Y-124150333D02*
X142452091Y-124197952D01*
X142452091Y-124197952D02*
X142309234Y-124197952D01*
X142309234Y-124197952D02*
X142213996Y-124150333D01*
X142642567Y-123817000D02*
X142547329Y-123864619D01*
X142547329Y-123864619D02*
X142356853Y-123864619D01*
X142356853Y-123864619D02*
X142261615Y-123817000D01*
X142261615Y-123817000D02*
X142213996Y-123769380D01*
X142213996Y-123769380D02*
X142166377Y-123674142D01*
X142166377Y-123674142D02*
X142166377Y-123388428D01*
X142166377Y-123388428D02*
X142213996Y-123293190D01*
X142213996Y-123293190D02*
X142261615Y-123245571D01*
X142261615Y-123245571D02*
X142356853Y-123197952D01*
X142356853Y-123197952D02*
X142547329Y-123197952D01*
X142547329Y-123197952D02*
X142642567Y-123245571D01*
X143118758Y-123864619D02*
X143118758Y-123197952D01*
X143118758Y-122864619D02*
X143071139Y-122912238D01*
X143071139Y-122912238D02*
X143118758Y-122959857D01*
X143118758Y-122959857D02*
X143166377Y-122912238D01*
X143166377Y-122912238D02*
X143118758Y-122864619D01*
X143118758Y-122864619D02*
X143118758Y-122959857D01*
X143452091Y-123197952D02*
X143833043Y-123197952D01*
X143594948Y-122864619D02*
X143594948Y-123721761D01*
X143594948Y-123721761D02*
X143642567Y-123817000D01*
X143642567Y-123817000D02*
X143737805Y-123864619D01*
X143737805Y-123864619D02*
X143833043Y-123864619D01*
X144166377Y-123864619D02*
X144166377Y-122864619D01*
X144594948Y-123864619D02*
X144594948Y-123340809D01*
X144594948Y-123340809D02*
X144547329Y-123245571D01*
X144547329Y-123245571D02*
X144452091Y-123197952D01*
X144452091Y-123197952D02*
X144309234Y-123197952D01*
X144309234Y-123197952D02*
X144213996Y-123245571D01*
X144213996Y-123245571D02*
X144166377Y-123293190D01*
X145499710Y-123197952D02*
X145499710Y-123864619D01*
X145071139Y-123197952D02*
X145071139Y-123721761D01*
X145071139Y-123721761D02*
X145118758Y-123817000D01*
X145118758Y-123817000D02*
X145213996Y-123864619D01*
X145213996Y-123864619D02*
X145356853Y-123864619D01*
X145356853Y-123864619D02*
X145452091Y-123817000D01*
X145452091Y-123817000D02*
X145499710Y-123769380D01*
X145975901Y-123864619D02*
X145975901Y-122864619D01*
X145975901Y-123245571D02*
X146071139Y-123197952D01*
X146071139Y-123197952D02*
X146261615Y-123197952D01*
X146261615Y-123197952D02*
X146356853Y-123245571D01*
X146356853Y-123245571D02*
X146404472Y-123293190D01*
X146404472Y-123293190D02*
X146452091Y-123388428D01*
X146452091Y-123388428D02*
X146452091Y-123674142D01*
X146452091Y-123674142D02*
X146404472Y-123769380D01*
X146404472Y-123769380D02*
X146356853Y-123817000D01*
X146356853Y-123817000D02*
X146261615Y-123864619D01*
X146261615Y-123864619D02*
X146071139Y-123864619D01*
X146071139Y-123864619D02*
X145975901Y-123817000D01*
X146880663Y-123769380D02*
X146928282Y-123817000D01*
X146928282Y-123817000D02*
X146880663Y-123864619D01*
X146880663Y-123864619D02*
X146833044Y-123817000D01*
X146833044Y-123817000D02*
X146880663Y-123769380D01*
X146880663Y-123769380D02*
X146880663Y-123864619D01*
X147785424Y-123817000D02*
X147690186Y-123864619D01*
X147690186Y-123864619D02*
X147499710Y-123864619D01*
X147499710Y-123864619D02*
X147404472Y-123817000D01*
X147404472Y-123817000D02*
X147356853Y-123769380D01*
X147356853Y-123769380D02*
X147309234Y-123674142D01*
X147309234Y-123674142D02*
X147309234Y-123388428D01*
X147309234Y-123388428D02*
X147356853Y-123293190D01*
X147356853Y-123293190D02*
X147404472Y-123245571D01*
X147404472Y-123245571D02*
X147499710Y-123197952D01*
X147499710Y-123197952D02*
X147690186Y-123197952D01*
X147690186Y-123197952D02*
X147785424Y-123245571D01*
X148356853Y-123864619D02*
X148261615Y-123817000D01*
X148261615Y-123817000D02*
X148213996Y-123769380D01*
X148213996Y-123769380D02*
X148166377Y-123674142D01*
X148166377Y-123674142D02*
X148166377Y-123388428D01*
X148166377Y-123388428D02*
X148213996Y-123293190D01*
X148213996Y-123293190D02*
X148261615Y-123245571D01*
X148261615Y-123245571D02*
X148356853Y-123197952D01*
X148356853Y-123197952D02*
X148499710Y-123197952D01*
X148499710Y-123197952D02*
X148594948Y-123245571D01*
X148594948Y-123245571D02*
X148642567Y-123293190D01*
X148642567Y-123293190D02*
X148690186Y-123388428D01*
X148690186Y-123388428D02*
X148690186Y-123674142D01*
X148690186Y-123674142D02*
X148642567Y-123769380D01*
X148642567Y-123769380D02*
X148594948Y-123817000D01*
X148594948Y-123817000D02*
X148499710Y-123864619D01*
X148499710Y-123864619D02*
X148356853Y-123864619D01*
X149118758Y-123864619D02*
X149118758Y-123197952D01*
X149118758Y-123293190D02*
X149166377Y-123245571D01*
X149166377Y-123245571D02*
X149261615Y-123197952D01*
X149261615Y-123197952D02*
X149404472Y-123197952D01*
X149404472Y-123197952D02*
X149499710Y-123245571D01*
X149499710Y-123245571D02*
X149547329Y-123340809D01*
X149547329Y-123340809D02*
X149547329Y-123864619D01*
X149547329Y-123340809D02*
X149594948Y-123245571D01*
X149594948Y-123245571D02*
X149690186Y-123197952D01*
X149690186Y-123197952D02*
X149833043Y-123197952D01*
X149833043Y-123197952D02*
X149928282Y-123245571D01*
X149928282Y-123245571D02*
X149975901Y-123340809D01*
X149975901Y-123340809D02*
X149975901Y-123864619D01*
X151166376Y-122817000D02*
X150309234Y-124102714D01*
X151356853Y-123197952D02*
X151737805Y-123197952D01*
X151499710Y-123864619D02*
X151499710Y-123007476D01*
X151499710Y-123007476D02*
X151547329Y-122912238D01*
X151547329Y-122912238D02*
X151642567Y-122864619D01*
X151642567Y-122864619D02*
X151737805Y-122864619D01*
X152452091Y-123817000D02*
X152356853Y-123864619D01*
X152356853Y-123864619D02*
X152166377Y-123864619D01*
X152166377Y-123864619D02*
X152071139Y-123817000D01*
X152071139Y-123817000D02*
X152023520Y-123721761D01*
X152023520Y-123721761D02*
X152023520Y-123340809D01*
X152023520Y-123340809D02*
X152071139Y-123245571D01*
X152071139Y-123245571D02*
X152166377Y-123197952D01*
X152166377Y-123197952D02*
X152356853Y-123197952D01*
X152356853Y-123197952D02*
X152452091Y-123245571D01*
X152452091Y-123245571D02*
X152499710Y-123340809D01*
X152499710Y-123340809D02*
X152499710Y-123436047D01*
X152499710Y-123436047D02*
X152023520Y-123531285D01*
X152880663Y-123817000D02*
X152975901Y-123864619D01*
X152975901Y-123864619D02*
X153166377Y-123864619D01*
X153166377Y-123864619D02*
X153261615Y-123817000D01*
X153261615Y-123817000D02*
X153309234Y-123721761D01*
X153309234Y-123721761D02*
X153309234Y-123674142D01*
X153309234Y-123674142D02*
X153261615Y-123578904D01*
X153261615Y-123578904D02*
X153166377Y-123531285D01*
X153166377Y-123531285D02*
X153023520Y-123531285D01*
X153023520Y-123531285D02*
X152928282Y-123483666D01*
X152928282Y-123483666D02*
X152880663Y-123388428D01*
X152880663Y-123388428D02*
X152880663Y-123340809D01*
X152880663Y-123340809D02*
X152928282Y-123245571D01*
X152928282Y-123245571D02*
X153023520Y-123197952D01*
X153023520Y-123197952D02*
X153166377Y-123197952D01*
X153166377Y-123197952D02*
X153261615Y-123245571D01*
X153594949Y-123197952D02*
X153975901Y-123197952D01*
X153737806Y-122864619D02*
X153737806Y-123721761D01*
X153737806Y-123721761D02*
X153785425Y-123817000D01*
X153785425Y-123817000D02*
X153880663Y-123864619D01*
X153880663Y-123864619D02*
X153975901Y-123864619D01*
X154452092Y-123864619D02*
X154356854Y-123817000D01*
X154356854Y-123817000D02*
X154309235Y-123721761D01*
X154309235Y-123721761D02*
X154309235Y-122864619D01*
X154737807Y-123197952D02*
X154975902Y-123864619D01*
X154975902Y-123864619D02*
X155213997Y-123197952D01*
X156309235Y-122817000D02*
X155452093Y-124102714D01*
X156642569Y-123864619D02*
X156642569Y-123197952D01*
X156642569Y-123388428D02*
X156690188Y-123293190D01*
X156690188Y-123293190D02*
X156737807Y-123245571D01*
X156737807Y-123245571D02*
X156833045Y-123197952D01*
X156833045Y-123197952D02*
X156928283Y-123197952D01*
X157261617Y-123864619D02*
X157261617Y-123197952D01*
X157261617Y-122864619D02*
X157213998Y-122912238D01*
X157213998Y-122912238D02*
X157261617Y-122959857D01*
X157261617Y-122959857D02*
X157309236Y-122912238D01*
X157309236Y-122912238D02*
X157261617Y-122864619D01*
X157261617Y-122864619D02*
X157261617Y-122959857D01*
X157880664Y-123864619D02*
X157785426Y-123817000D01*
X157785426Y-123817000D02*
X157737807Y-123769380D01*
X157737807Y-123769380D02*
X157690188Y-123674142D01*
X157690188Y-123674142D02*
X157690188Y-123388428D01*
X157690188Y-123388428D02*
X157737807Y-123293190D01*
X157737807Y-123293190D02*
X157785426Y-123245571D01*
X157785426Y-123245571D02*
X157880664Y-123197952D01*
X157880664Y-123197952D02*
X158023521Y-123197952D01*
X158023521Y-123197952D02*
X158118759Y-123245571D01*
X158118759Y-123245571D02*
X158166378Y-123293190D01*
X158166378Y-123293190D02*
X158213997Y-123388428D01*
X158213997Y-123388428D02*
X158213997Y-123674142D01*
X158213997Y-123674142D02*
X158166378Y-123769380D01*
X158166378Y-123769380D02*
X158118759Y-123817000D01*
X158118759Y-123817000D02*
X158023521Y-123864619D01*
X158023521Y-123864619D02*
X157880664Y-123864619D01*
X159071140Y-123817000D02*
X158975902Y-123864619D01*
X158975902Y-123864619D02*
X158785426Y-123864619D01*
X158785426Y-123864619D02*
X158690188Y-123817000D01*
X158690188Y-123817000D02*
X158642569Y-123769380D01*
X158642569Y-123769380D02*
X158594950Y-123674142D01*
X158594950Y-123674142D02*
X158594950Y-123388428D01*
X158594950Y-123388428D02*
X158642569Y-123293190D01*
X158642569Y-123293190D02*
X158690188Y-123245571D01*
X158690188Y-123245571D02*
X158785426Y-123197952D01*
X158785426Y-123197952D02*
X158975902Y-123197952D01*
X158975902Y-123197952D02*
X159071140Y-123245571D01*
X159356855Y-123197952D02*
X159737807Y-123197952D01*
X159499712Y-122864619D02*
X159499712Y-123721761D01*
X159499712Y-123721761D02*
X159547331Y-123817000D01*
X159547331Y-123817000D02*
X159642569Y-123864619D01*
X159642569Y-123864619D02*
X159737807Y-123864619D01*
X160071141Y-123864619D02*
X160071141Y-123197952D01*
X160071141Y-123388428D02*
X160118760Y-123293190D01*
X160118760Y-123293190D02*
X160166379Y-123245571D01*
X160166379Y-123245571D02*
X160261617Y-123197952D01*
X160261617Y-123197952D02*
X160356855Y-123197952D01*
X160833046Y-123864619D02*
X160737808Y-123817000D01*
X160737808Y-123817000D02*
X160690189Y-123721761D01*
X160690189Y-123721761D02*
X160690189Y-122864619D01*
X161213999Y-123483666D02*
X161975904Y-123483666D01*
X162452094Y-123864619D02*
X162452094Y-122864619D01*
X162880665Y-123864619D02*
X162880665Y-123340809D01*
X162880665Y-123340809D02*
X162833046Y-123245571D01*
X162833046Y-123245571D02*
X162737808Y-123197952D01*
X162737808Y-123197952D02*
X162594951Y-123197952D01*
X162594951Y-123197952D02*
X162499713Y-123245571D01*
X162499713Y-123245571D02*
X162452094Y-123293190D01*
X163261618Y-123197952D02*
X163452094Y-123864619D01*
X163452094Y-123864619D02*
X163642570Y-123388428D01*
X163642570Y-123388428D02*
X163833046Y-123864619D01*
X163833046Y-123864619D02*
X164023522Y-123197952D01*
D12*
X156266667Y-84116104D02*
X156228571Y-84154200D01*
X156228571Y-84154200D02*
X156114286Y-84192295D01*
X156114286Y-84192295D02*
X156038095Y-84192295D01*
X156038095Y-84192295D02*
X155923809Y-84154200D01*
X155923809Y-84154200D02*
X155847619Y-84078009D01*
X155847619Y-84078009D02*
X155809524Y-84001819D01*
X155809524Y-84001819D02*
X155771428Y-83849438D01*
X155771428Y-83849438D02*
X155771428Y-83735152D01*
X155771428Y-83735152D02*
X155809524Y-83582771D01*
X155809524Y-83582771D02*
X155847619Y-83506580D01*
X155847619Y-83506580D02*
X155923809Y-83430390D01*
X155923809Y-83430390D02*
X156038095Y-83392295D01*
X156038095Y-83392295D02*
X156114286Y-83392295D01*
X156114286Y-83392295D02*
X156228571Y-83430390D01*
X156228571Y-83430390D02*
X156266667Y-83468485D01*
X156990476Y-83392295D02*
X156609524Y-83392295D01*
X156609524Y-83392295D02*
X156571428Y-83773247D01*
X156571428Y-83773247D02*
X156609524Y-83735152D01*
X156609524Y-83735152D02*
X156685714Y-83697057D01*
X156685714Y-83697057D02*
X156876190Y-83697057D01*
X156876190Y-83697057D02*
X156952381Y-83735152D01*
X156952381Y-83735152D02*
X156990476Y-83773247D01*
X156990476Y-83773247D02*
X157028571Y-83849438D01*
X157028571Y-83849438D02*
X157028571Y-84039914D01*
X157028571Y-84039914D02*
X156990476Y-84116104D01*
X156990476Y-84116104D02*
X156952381Y-84154200D01*
X156952381Y-84154200D02*
X156876190Y-84192295D01*
X156876190Y-84192295D02*
X156685714Y-84192295D01*
X156685714Y-84192295D02*
X156609524Y-84154200D01*
X156609524Y-84154200D02*
X156571428Y-84116104D01*
X121886104Y-86514285D02*
X121924200Y-86552381D01*
X121924200Y-86552381D02*
X121962295Y-86666666D01*
X121962295Y-86666666D02*
X121962295Y-86742857D01*
X121962295Y-86742857D02*
X121924200Y-86857143D01*
X121924200Y-86857143D02*
X121848009Y-86933333D01*
X121848009Y-86933333D02*
X121771819Y-86971428D01*
X121771819Y-86971428D02*
X121619438Y-87009524D01*
X121619438Y-87009524D02*
X121505152Y-87009524D01*
X121505152Y-87009524D02*
X121352771Y-86971428D01*
X121352771Y-86971428D02*
X121276580Y-86933333D01*
X121276580Y-86933333D02*
X121200390Y-86857143D01*
X121200390Y-86857143D02*
X121162295Y-86742857D01*
X121162295Y-86742857D02*
X121162295Y-86666666D01*
X121162295Y-86666666D02*
X121200390Y-86552381D01*
X121200390Y-86552381D02*
X121238485Y-86514285D01*
X121962295Y-85752381D02*
X121962295Y-86209524D01*
X121962295Y-85980952D02*
X121162295Y-85980952D01*
X121162295Y-85980952D02*
X121276580Y-86057143D01*
X121276580Y-86057143D02*
X121352771Y-86133333D01*
X121352771Y-86133333D02*
X121390866Y-86209524D01*
X121162295Y-85485714D02*
X121162295Y-84990476D01*
X121162295Y-84990476D02*
X121467057Y-85257142D01*
X121467057Y-85257142D02*
X121467057Y-85142857D01*
X121467057Y-85142857D02*
X121505152Y-85066666D01*
X121505152Y-85066666D02*
X121543247Y-85028571D01*
X121543247Y-85028571D02*
X121619438Y-84990476D01*
X121619438Y-84990476D02*
X121809914Y-84990476D01*
X121809914Y-84990476D02*
X121886104Y-85028571D01*
X121886104Y-85028571D02*
X121924200Y-85066666D01*
X121924200Y-85066666D02*
X121962295Y-85142857D01*
X121962295Y-85142857D02*
X121962295Y-85371428D01*
X121962295Y-85371428D02*
X121924200Y-85447619D01*
X121924200Y-85447619D02*
X121886104Y-85485714D01*
X108912295Y-77614285D02*
X108531342Y-77880952D01*
X108912295Y-78071428D02*
X108112295Y-78071428D01*
X108112295Y-78071428D02*
X108112295Y-77766666D01*
X108112295Y-77766666D02*
X108150390Y-77690476D01*
X108150390Y-77690476D02*
X108188485Y-77652381D01*
X108188485Y-77652381D02*
X108264676Y-77614285D01*
X108264676Y-77614285D02*
X108378961Y-77614285D01*
X108378961Y-77614285D02*
X108455152Y-77652381D01*
X108455152Y-77652381D02*
X108493247Y-77690476D01*
X108493247Y-77690476D02*
X108531342Y-77766666D01*
X108531342Y-77766666D02*
X108531342Y-78071428D01*
X108112295Y-76890476D02*
X108112295Y-77271428D01*
X108112295Y-77271428D02*
X108493247Y-77309524D01*
X108493247Y-77309524D02*
X108455152Y-77271428D01*
X108455152Y-77271428D02*
X108417057Y-77195238D01*
X108417057Y-77195238D02*
X108417057Y-77004762D01*
X108417057Y-77004762D02*
X108455152Y-76928571D01*
X108455152Y-76928571D02*
X108493247Y-76890476D01*
X108493247Y-76890476D02*
X108569438Y-76852381D01*
X108569438Y-76852381D02*
X108759914Y-76852381D01*
X108759914Y-76852381D02*
X108836104Y-76890476D01*
X108836104Y-76890476D02*
X108874200Y-76928571D01*
X108874200Y-76928571D02*
X108912295Y-77004762D01*
X108912295Y-77004762D02*
X108912295Y-77195238D01*
X108912295Y-77195238D02*
X108874200Y-77271428D01*
X108874200Y-77271428D02*
X108836104Y-77309524D01*
X108112295Y-76585714D02*
X108112295Y-76052380D01*
X108112295Y-76052380D02*
X108912295Y-76395238D01*
X172012295Y-82664285D02*
X171631342Y-82930952D01*
X172012295Y-83121428D02*
X171212295Y-83121428D01*
X171212295Y-83121428D02*
X171212295Y-82816666D01*
X171212295Y-82816666D02*
X171250390Y-82740476D01*
X171250390Y-82740476D02*
X171288485Y-82702381D01*
X171288485Y-82702381D02*
X171364676Y-82664285D01*
X171364676Y-82664285D02*
X171478961Y-82664285D01*
X171478961Y-82664285D02*
X171555152Y-82702381D01*
X171555152Y-82702381D02*
X171593247Y-82740476D01*
X171593247Y-82740476D02*
X171631342Y-82816666D01*
X171631342Y-82816666D02*
X171631342Y-83121428D01*
X172012295Y-81902381D02*
X172012295Y-82359524D01*
X172012295Y-82130952D02*
X171212295Y-82130952D01*
X171212295Y-82130952D02*
X171326580Y-82207143D01*
X171326580Y-82207143D02*
X171402771Y-82283333D01*
X171402771Y-82283333D02*
X171440866Y-82359524D01*
X171555152Y-81445238D02*
X171517057Y-81521428D01*
X171517057Y-81521428D02*
X171478961Y-81559523D01*
X171478961Y-81559523D02*
X171402771Y-81597619D01*
X171402771Y-81597619D02*
X171364676Y-81597619D01*
X171364676Y-81597619D02*
X171288485Y-81559523D01*
X171288485Y-81559523D02*
X171250390Y-81521428D01*
X171250390Y-81521428D02*
X171212295Y-81445238D01*
X171212295Y-81445238D02*
X171212295Y-81292857D01*
X171212295Y-81292857D02*
X171250390Y-81216666D01*
X171250390Y-81216666D02*
X171288485Y-81178571D01*
X171288485Y-81178571D02*
X171364676Y-81140476D01*
X171364676Y-81140476D02*
X171402771Y-81140476D01*
X171402771Y-81140476D02*
X171478961Y-81178571D01*
X171478961Y-81178571D02*
X171517057Y-81216666D01*
X171517057Y-81216666D02*
X171555152Y-81292857D01*
X171555152Y-81292857D02*
X171555152Y-81445238D01*
X171555152Y-81445238D02*
X171593247Y-81521428D01*
X171593247Y-81521428D02*
X171631342Y-81559523D01*
X171631342Y-81559523D02*
X171707533Y-81597619D01*
X171707533Y-81597619D02*
X171859914Y-81597619D01*
X171859914Y-81597619D02*
X171936104Y-81559523D01*
X171936104Y-81559523D02*
X171974200Y-81521428D01*
X171974200Y-81521428D02*
X172012295Y-81445238D01*
X172012295Y-81445238D02*
X172012295Y-81292857D01*
X172012295Y-81292857D02*
X171974200Y-81216666D01*
X171974200Y-81216666D02*
X171936104Y-81178571D01*
X171936104Y-81178571D02*
X171859914Y-81140476D01*
X171859914Y-81140476D02*
X171707533Y-81140476D01*
X171707533Y-81140476D02*
X171631342Y-81178571D01*
X171631342Y-81178571D02*
X171593247Y-81216666D01*
X171593247Y-81216666D02*
X171555152Y-81292857D01*
X189077295Y-104364285D02*
X188696342Y-104630952D01*
X189077295Y-104821428D02*
X188277295Y-104821428D01*
X188277295Y-104821428D02*
X188277295Y-104516666D01*
X188277295Y-104516666D02*
X188315390Y-104440476D01*
X188315390Y-104440476D02*
X188353485Y-104402381D01*
X188353485Y-104402381D02*
X188429676Y-104364285D01*
X188429676Y-104364285D02*
X188543961Y-104364285D01*
X188543961Y-104364285D02*
X188620152Y-104402381D01*
X188620152Y-104402381D02*
X188658247Y-104440476D01*
X188658247Y-104440476D02*
X188696342Y-104516666D01*
X188696342Y-104516666D02*
X188696342Y-104821428D01*
X189077295Y-103602381D02*
X189077295Y-104059524D01*
X189077295Y-103830952D02*
X188277295Y-103830952D01*
X188277295Y-103830952D02*
X188391580Y-103907143D01*
X188391580Y-103907143D02*
X188467771Y-103983333D01*
X188467771Y-103983333D02*
X188505866Y-104059524D01*
X188353485Y-103297619D02*
X188315390Y-103259523D01*
X188315390Y-103259523D02*
X188277295Y-103183333D01*
X188277295Y-103183333D02*
X188277295Y-102992857D01*
X188277295Y-102992857D02*
X188315390Y-102916666D01*
X188315390Y-102916666D02*
X188353485Y-102878571D01*
X188353485Y-102878571D02*
X188429676Y-102840476D01*
X188429676Y-102840476D02*
X188505866Y-102840476D01*
X188505866Y-102840476D02*
X188620152Y-102878571D01*
X188620152Y-102878571D02*
X189077295Y-103335714D01*
X189077295Y-103335714D02*
X189077295Y-102840476D01*
X179062295Y-80114285D02*
X178681342Y-80380952D01*
X179062295Y-80571428D02*
X178262295Y-80571428D01*
X178262295Y-80571428D02*
X178262295Y-80266666D01*
X178262295Y-80266666D02*
X178300390Y-80190476D01*
X178300390Y-80190476D02*
X178338485Y-80152381D01*
X178338485Y-80152381D02*
X178414676Y-80114285D01*
X178414676Y-80114285D02*
X178528961Y-80114285D01*
X178528961Y-80114285D02*
X178605152Y-80152381D01*
X178605152Y-80152381D02*
X178643247Y-80190476D01*
X178643247Y-80190476D02*
X178681342Y-80266666D01*
X178681342Y-80266666D02*
X178681342Y-80571428D01*
X179062295Y-79352381D02*
X179062295Y-79809524D01*
X179062295Y-79580952D02*
X178262295Y-79580952D01*
X178262295Y-79580952D02*
X178376580Y-79657143D01*
X178376580Y-79657143D02*
X178452771Y-79733333D01*
X178452771Y-79733333D02*
X178490866Y-79809524D01*
X178262295Y-78666666D02*
X178262295Y-78819047D01*
X178262295Y-78819047D02*
X178300390Y-78895238D01*
X178300390Y-78895238D02*
X178338485Y-78933333D01*
X178338485Y-78933333D02*
X178452771Y-79009523D01*
X178452771Y-79009523D02*
X178605152Y-79047619D01*
X178605152Y-79047619D02*
X178909914Y-79047619D01*
X178909914Y-79047619D02*
X178986104Y-79009523D01*
X178986104Y-79009523D02*
X179024200Y-78971428D01*
X179024200Y-78971428D02*
X179062295Y-78895238D01*
X179062295Y-78895238D02*
X179062295Y-78742857D01*
X179062295Y-78742857D02*
X179024200Y-78666666D01*
X179024200Y-78666666D02*
X178986104Y-78628571D01*
X178986104Y-78628571D02*
X178909914Y-78590476D01*
X178909914Y-78590476D02*
X178719438Y-78590476D01*
X178719438Y-78590476D02*
X178643247Y-78628571D01*
X178643247Y-78628571D02*
X178605152Y-78666666D01*
X178605152Y-78666666D02*
X178567057Y-78742857D01*
X178567057Y-78742857D02*
X178567057Y-78895238D01*
X178567057Y-78895238D02*
X178605152Y-78971428D01*
X178605152Y-78971428D02*
X178643247Y-79009523D01*
X178643247Y-79009523D02*
X178719438Y-79047619D01*
X156012295Y-87089285D02*
X155631342Y-87355952D01*
X156012295Y-87546428D02*
X155212295Y-87546428D01*
X155212295Y-87546428D02*
X155212295Y-87241666D01*
X155212295Y-87241666D02*
X155250390Y-87165476D01*
X155250390Y-87165476D02*
X155288485Y-87127381D01*
X155288485Y-87127381D02*
X155364676Y-87089285D01*
X155364676Y-87089285D02*
X155478961Y-87089285D01*
X155478961Y-87089285D02*
X155555152Y-87127381D01*
X155555152Y-87127381D02*
X155593247Y-87165476D01*
X155593247Y-87165476D02*
X155631342Y-87241666D01*
X155631342Y-87241666D02*
X155631342Y-87546428D01*
X155288485Y-86784524D02*
X155250390Y-86746428D01*
X155250390Y-86746428D02*
X155212295Y-86670238D01*
X155212295Y-86670238D02*
X155212295Y-86479762D01*
X155212295Y-86479762D02*
X155250390Y-86403571D01*
X155250390Y-86403571D02*
X155288485Y-86365476D01*
X155288485Y-86365476D02*
X155364676Y-86327381D01*
X155364676Y-86327381D02*
X155440866Y-86327381D01*
X155440866Y-86327381D02*
X155555152Y-86365476D01*
X155555152Y-86365476D02*
X156012295Y-86822619D01*
X156012295Y-86822619D02*
X156012295Y-86327381D01*
X155212295Y-85603571D02*
X155212295Y-85984523D01*
X155212295Y-85984523D02*
X155593247Y-86022619D01*
X155593247Y-86022619D02*
X155555152Y-85984523D01*
X155555152Y-85984523D02*
X155517057Y-85908333D01*
X155517057Y-85908333D02*
X155517057Y-85717857D01*
X155517057Y-85717857D02*
X155555152Y-85641666D01*
X155555152Y-85641666D02*
X155593247Y-85603571D01*
X155593247Y-85603571D02*
X155669438Y-85565476D01*
X155669438Y-85565476D02*
X155859914Y-85565476D01*
X155859914Y-85565476D02*
X155936104Y-85603571D01*
X155936104Y-85603571D02*
X155974200Y-85641666D01*
X155974200Y-85641666D02*
X156012295Y-85717857D01*
X156012295Y-85717857D02*
X156012295Y-85908333D01*
X156012295Y-85908333D02*
X155974200Y-85984523D01*
X155974200Y-85984523D02*
X155936104Y-86022619D01*
X154762295Y-92564285D02*
X154381342Y-92830952D01*
X154762295Y-93021428D02*
X153962295Y-93021428D01*
X153962295Y-93021428D02*
X153962295Y-92716666D01*
X153962295Y-92716666D02*
X154000390Y-92640476D01*
X154000390Y-92640476D02*
X154038485Y-92602381D01*
X154038485Y-92602381D02*
X154114676Y-92564285D01*
X154114676Y-92564285D02*
X154228961Y-92564285D01*
X154228961Y-92564285D02*
X154305152Y-92602381D01*
X154305152Y-92602381D02*
X154343247Y-92640476D01*
X154343247Y-92640476D02*
X154381342Y-92716666D01*
X154381342Y-92716666D02*
X154381342Y-93021428D01*
X154038485Y-92259524D02*
X154000390Y-92221428D01*
X154000390Y-92221428D02*
X153962295Y-92145238D01*
X153962295Y-92145238D02*
X153962295Y-91954762D01*
X153962295Y-91954762D02*
X154000390Y-91878571D01*
X154000390Y-91878571D02*
X154038485Y-91840476D01*
X154038485Y-91840476D02*
X154114676Y-91802381D01*
X154114676Y-91802381D02*
X154190866Y-91802381D01*
X154190866Y-91802381D02*
X154305152Y-91840476D01*
X154305152Y-91840476D02*
X154762295Y-92297619D01*
X154762295Y-92297619D02*
X154762295Y-91802381D01*
X154762295Y-91040476D02*
X154762295Y-91497619D01*
X154762295Y-91269047D02*
X153962295Y-91269047D01*
X153962295Y-91269047D02*
X154076580Y-91345238D01*
X154076580Y-91345238D02*
X154152771Y-91421428D01*
X154152771Y-91421428D02*
X154190866Y-91497619D01*
X167685714Y-62412295D02*
X167419047Y-62031342D01*
X167228571Y-62412295D02*
X167228571Y-61612295D01*
X167228571Y-61612295D02*
X167533333Y-61612295D01*
X167533333Y-61612295D02*
X167609523Y-61650390D01*
X167609523Y-61650390D02*
X167647618Y-61688485D01*
X167647618Y-61688485D02*
X167685714Y-61764676D01*
X167685714Y-61764676D02*
X167685714Y-61878961D01*
X167685714Y-61878961D02*
X167647618Y-61955152D01*
X167647618Y-61955152D02*
X167609523Y-61993247D01*
X167609523Y-61993247D02*
X167533333Y-62031342D01*
X167533333Y-62031342D02*
X167228571Y-62031342D01*
X167990475Y-61688485D02*
X168028571Y-61650390D01*
X168028571Y-61650390D02*
X168104761Y-61612295D01*
X168104761Y-61612295D02*
X168295237Y-61612295D01*
X168295237Y-61612295D02*
X168371428Y-61650390D01*
X168371428Y-61650390D02*
X168409523Y-61688485D01*
X168409523Y-61688485D02*
X168447618Y-61764676D01*
X168447618Y-61764676D02*
X168447618Y-61840866D01*
X168447618Y-61840866D02*
X168409523Y-61955152D01*
X168409523Y-61955152D02*
X167952380Y-62412295D01*
X167952380Y-62412295D02*
X168447618Y-62412295D01*
X169133333Y-61612295D02*
X168980952Y-61612295D01*
X168980952Y-61612295D02*
X168904761Y-61650390D01*
X168904761Y-61650390D02*
X168866666Y-61688485D01*
X168866666Y-61688485D02*
X168790476Y-61802771D01*
X168790476Y-61802771D02*
X168752380Y-61955152D01*
X168752380Y-61955152D02*
X168752380Y-62259914D01*
X168752380Y-62259914D02*
X168790476Y-62336104D01*
X168790476Y-62336104D02*
X168828571Y-62374200D01*
X168828571Y-62374200D02*
X168904761Y-62412295D01*
X168904761Y-62412295D02*
X169057142Y-62412295D01*
X169057142Y-62412295D02*
X169133333Y-62374200D01*
X169133333Y-62374200D02*
X169171428Y-62336104D01*
X169171428Y-62336104D02*
X169209523Y-62259914D01*
X169209523Y-62259914D02*
X169209523Y-62069438D01*
X169209523Y-62069438D02*
X169171428Y-61993247D01*
X169171428Y-61993247D02*
X169133333Y-61955152D01*
X169133333Y-61955152D02*
X169057142Y-61917057D01*
X169057142Y-61917057D02*
X168904761Y-61917057D01*
X168904761Y-61917057D02*
X168828571Y-61955152D01*
X168828571Y-61955152D02*
X168790476Y-61993247D01*
X168790476Y-61993247D02*
X168752380Y-62069438D01*
X177212295Y-76514285D02*
X176831342Y-76780952D01*
X177212295Y-76971428D02*
X176412295Y-76971428D01*
X176412295Y-76971428D02*
X176412295Y-76666666D01*
X176412295Y-76666666D02*
X176450390Y-76590476D01*
X176450390Y-76590476D02*
X176488485Y-76552381D01*
X176488485Y-76552381D02*
X176564676Y-76514285D01*
X176564676Y-76514285D02*
X176678961Y-76514285D01*
X176678961Y-76514285D02*
X176755152Y-76552381D01*
X176755152Y-76552381D02*
X176793247Y-76590476D01*
X176793247Y-76590476D02*
X176831342Y-76666666D01*
X176831342Y-76666666D02*
X176831342Y-76971428D01*
X177212295Y-75752381D02*
X177212295Y-76209524D01*
X177212295Y-75980952D02*
X176412295Y-75980952D01*
X176412295Y-75980952D02*
X176526580Y-76057143D01*
X176526580Y-76057143D02*
X176602771Y-76133333D01*
X176602771Y-76133333D02*
X176640866Y-76209524D01*
X177212295Y-75371428D02*
X177212295Y-75219047D01*
X177212295Y-75219047D02*
X177174200Y-75142857D01*
X177174200Y-75142857D02*
X177136104Y-75104761D01*
X177136104Y-75104761D02*
X177021819Y-75028571D01*
X177021819Y-75028571D02*
X176869438Y-74990476D01*
X176869438Y-74990476D02*
X176564676Y-74990476D01*
X176564676Y-74990476D02*
X176488485Y-75028571D01*
X176488485Y-75028571D02*
X176450390Y-75066666D01*
X176450390Y-75066666D02*
X176412295Y-75142857D01*
X176412295Y-75142857D02*
X176412295Y-75295238D01*
X176412295Y-75295238D02*
X176450390Y-75371428D01*
X176450390Y-75371428D02*
X176488485Y-75409523D01*
X176488485Y-75409523D02*
X176564676Y-75447619D01*
X176564676Y-75447619D02*
X176755152Y-75447619D01*
X176755152Y-75447619D02*
X176831342Y-75409523D01*
X176831342Y-75409523D02*
X176869438Y-75371428D01*
X176869438Y-75371428D02*
X176907533Y-75295238D01*
X176907533Y-75295238D02*
X176907533Y-75142857D01*
X176907533Y-75142857D02*
X176869438Y-75066666D01*
X176869438Y-75066666D02*
X176831342Y-75028571D01*
X176831342Y-75028571D02*
X176755152Y-74990476D01*
X110485714Y-78932295D02*
X110219047Y-78551342D01*
X110028571Y-78932295D02*
X110028571Y-78132295D01*
X110028571Y-78132295D02*
X110333333Y-78132295D01*
X110333333Y-78132295D02*
X110409523Y-78170390D01*
X110409523Y-78170390D02*
X110447618Y-78208485D01*
X110447618Y-78208485D02*
X110485714Y-78284676D01*
X110485714Y-78284676D02*
X110485714Y-78398961D01*
X110485714Y-78398961D02*
X110447618Y-78475152D01*
X110447618Y-78475152D02*
X110409523Y-78513247D01*
X110409523Y-78513247D02*
X110333333Y-78551342D01*
X110333333Y-78551342D02*
X110028571Y-78551342D01*
X111209523Y-78132295D02*
X110828571Y-78132295D01*
X110828571Y-78132295D02*
X110790475Y-78513247D01*
X110790475Y-78513247D02*
X110828571Y-78475152D01*
X110828571Y-78475152D02*
X110904761Y-78437057D01*
X110904761Y-78437057D02*
X111095237Y-78437057D01*
X111095237Y-78437057D02*
X111171428Y-78475152D01*
X111171428Y-78475152D02*
X111209523Y-78513247D01*
X111209523Y-78513247D02*
X111247618Y-78589438D01*
X111247618Y-78589438D02*
X111247618Y-78779914D01*
X111247618Y-78779914D02*
X111209523Y-78856104D01*
X111209523Y-78856104D02*
X111171428Y-78894200D01*
X111171428Y-78894200D02*
X111095237Y-78932295D01*
X111095237Y-78932295D02*
X110904761Y-78932295D01*
X110904761Y-78932295D02*
X110828571Y-78894200D01*
X110828571Y-78894200D02*
X110790475Y-78856104D01*
X111933333Y-78132295D02*
X111780952Y-78132295D01*
X111780952Y-78132295D02*
X111704761Y-78170390D01*
X111704761Y-78170390D02*
X111666666Y-78208485D01*
X111666666Y-78208485D02*
X111590476Y-78322771D01*
X111590476Y-78322771D02*
X111552380Y-78475152D01*
X111552380Y-78475152D02*
X111552380Y-78779914D01*
X111552380Y-78779914D02*
X111590476Y-78856104D01*
X111590476Y-78856104D02*
X111628571Y-78894200D01*
X111628571Y-78894200D02*
X111704761Y-78932295D01*
X111704761Y-78932295D02*
X111857142Y-78932295D01*
X111857142Y-78932295D02*
X111933333Y-78894200D01*
X111933333Y-78894200D02*
X111971428Y-78856104D01*
X111971428Y-78856104D02*
X112009523Y-78779914D01*
X112009523Y-78779914D02*
X112009523Y-78589438D01*
X112009523Y-78589438D02*
X111971428Y-78513247D01*
X111971428Y-78513247D02*
X111933333Y-78475152D01*
X111933333Y-78475152D02*
X111857142Y-78437057D01*
X111857142Y-78437057D02*
X111704761Y-78437057D01*
X111704761Y-78437057D02*
X111628571Y-78475152D01*
X111628571Y-78475152D02*
X111590476Y-78513247D01*
X111590476Y-78513247D02*
X111552380Y-78589438D01*
X105986104Y-83514285D02*
X106024200Y-83552381D01*
X106024200Y-83552381D02*
X106062295Y-83666666D01*
X106062295Y-83666666D02*
X106062295Y-83742857D01*
X106062295Y-83742857D02*
X106024200Y-83857143D01*
X106024200Y-83857143D02*
X105948009Y-83933333D01*
X105948009Y-83933333D02*
X105871819Y-83971428D01*
X105871819Y-83971428D02*
X105719438Y-84009524D01*
X105719438Y-84009524D02*
X105605152Y-84009524D01*
X105605152Y-84009524D02*
X105452771Y-83971428D01*
X105452771Y-83971428D02*
X105376580Y-83933333D01*
X105376580Y-83933333D02*
X105300390Y-83857143D01*
X105300390Y-83857143D02*
X105262295Y-83742857D01*
X105262295Y-83742857D02*
X105262295Y-83666666D01*
X105262295Y-83666666D02*
X105300390Y-83552381D01*
X105300390Y-83552381D02*
X105338485Y-83514285D01*
X106062295Y-82752381D02*
X106062295Y-83209524D01*
X106062295Y-82980952D02*
X105262295Y-82980952D01*
X105262295Y-82980952D02*
X105376580Y-83057143D01*
X105376580Y-83057143D02*
X105452771Y-83133333D01*
X105452771Y-83133333D02*
X105490866Y-83209524D01*
X105528961Y-82066666D02*
X106062295Y-82066666D01*
X105224200Y-82257142D02*
X105795628Y-82447619D01*
X105795628Y-82447619D02*
X105795628Y-81952380D01*
X114886104Y-86314285D02*
X114924200Y-86352381D01*
X114924200Y-86352381D02*
X114962295Y-86466666D01*
X114962295Y-86466666D02*
X114962295Y-86542857D01*
X114962295Y-86542857D02*
X114924200Y-86657143D01*
X114924200Y-86657143D02*
X114848009Y-86733333D01*
X114848009Y-86733333D02*
X114771819Y-86771428D01*
X114771819Y-86771428D02*
X114619438Y-86809524D01*
X114619438Y-86809524D02*
X114505152Y-86809524D01*
X114505152Y-86809524D02*
X114352771Y-86771428D01*
X114352771Y-86771428D02*
X114276580Y-86733333D01*
X114276580Y-86733333D02*
X114200390Y-86657143D01*
X114200390Y-86657143D02*
X114162295Y-86542857D01*
X114162295Y-86542857D02*
X114162295Y-86466666D01*
X114162295Y-86466666D02*
X114200390Y-86352381D01*
X114200390Y-86352381D02*
X114238485Y-86314285D01*
X114962295Y-85552381D02*
X114962295Y-86009524D01*
X114962295Y-85780952D02*
X114162295Y-85780952D01*
X114162295Y-85780952D02*
X114276580Y-85857143D01*
X114276580Y-85857143D02*
X114352771Y-85933333D01*
X114352771Y-85933333D02*
X114390866Y-86009524D01*
X114162295Y-84828571D02*
X114162295Y-85209523D01*
X114162295Y-85209523D02*
X114543247Y-85247619D01*
X114543247Y-85247619D02*
X114505152Y-85209523D01*
X114505152Y-85209523D02*
X114467057Y-85133333D01*
X114467057Y-85133333D02*
X114467057Y-84942857D01*
X114467057Y-84942857D02*
X114505152Y-84866666D01*
X114505152Y-84866666D02*
X114543247Y-84828571D01*
X114543247Y-84828571D02*
X114619438Y-84790476D01*
X114619438Y-84790476D02*
X114809914Y-84790476D01*
X114809914Y-84790476D02*
X114886104Y-84828571D01*
X114886104Y-84828571D02*
X114924200Y-84866666D01*
X114924200Y-84866666D02*
X114962295Y-84942857D01*
X114962295Y-84942857D02*
X114962295Y-85133333D01*
X114962295Y-85133333D02*
X114924200Y-85209523D01*
X114924200Y-85209523D02*
X114886104Y-85247619D01*
X113912295Y-77514285D02*
X113531342Y-77780952D01*
X113912295Y-77971428D02*
X113112295Y-77971428D01*
X113112295Y-77971428D02*
X113112295Y-77666666D01*
X113112295Y-77666666D02*
X113150390Y-77590476D01*
X113150390Y-77590476D02*
X113188485Y-77552381D01*
X113188485Y-77552381D02*
X113264676Y-77514285D01*
X113264676Y-77514285D02*
X113378961Y-77514285D01*
X113378961Y-77514285D02*
X113455152Y-77552381D01*
X113455152Y-77552381D02*
X113493247Y-77590476D01*
X113493247Y-77590476D02*
X113531342Y-77666666D01*
X113531342Y-77666666D02*
X113531342Y-77971428D01*
X113112295Y-76790476D02*
X113112295Y-77171428D01*
X113112295Y-77171428D02*
X113493247Y-77209524D01*
X113493247Y-77209524D02*
X113455152Y-77171428D01*
X113455152Y-77171428D02*
X113417057Y-77095238D01*
X113417057Y-77095238D02*
X113417057Y-76904762D01*
X113417057Y-76904762D02*
X113455152Y-76828571D01*
X113455152Y-76828571D02*
X113493247Y-76790476D01*
X113493247Y-76790476D02*
X113569438Y-76752381D01*
X113569438Y-76752381D02*
X113759914Y-76752381D01*
X113759914Y-76752381D02*
X113836104Y-76790476D01*
X113836104Y-76790476D02*
X113874200Y-76828571D01*
X113874200Y-76828571D02*
X113912295Y-76904762D01*
X113912295Y-76904762D02*
X113912295Y-77095238D01*
X113912295Y-77095238D02*
X113874200Y-77171428D01*
X113874200Y-77171428D02*
X113836104Y-77209524D01*
X113112295Y-76028571D02*
X113112295Y-76409523D01*
X113112295Y-76409523D02*
X113493247Y-76447619D01*
X113493247Y-76447619D02*
X113455152Y-76409523D01*
X113455152Y-76409523D02*
X113417057Y-76333333D01*
X113417057Y-76333333D02*
X113417057Y-76142857D01*
X113417057Y-76142857D02*
X113455152Y-76066666D01*
X113455152Y-76066666D02*
X113493247Y-76028571D01*
X113493247Y-76028571D02*
X113569438Y-75990476D01*
X113569438Y-75990476D02*
X113759914Y-75990476D01*
X113759914Y-75990476D02*
X113836104Y-76028571D01*
X113836104Y-76028571D02*
X113874200Y-76066666D01*
X113874200Y-76066666D02*
X113912295Y-76142857D01*
X113912295Y-76142857D02*
X113912295Y-76333333D01*
X113912295Y-76333333D02*
X113874200Y-76409523D01*
X113874200Y-76409523D02*
X113836104Y-76447619D01*
X126462295Y-67914285D02*
X126081342Y-68180952D01*
X126462295Y-68371428D02*
X125662295Y-68371428D01*
X125662295Y-68371428D02*
X125662295Y-68066666D01*
X125662295Y-68066666D02*
X125700390Y-67990476D01*
X125700390Y-67990476D02*
X125738485Y-67952381D01*
X125738485Y-67952381D02*
X125814676Y-67914285D01*
X125814676Y-67914285D02*
X125928961Y-67914285D01*
X125928961Y-67914285D02*
X126005152Y-67952381D01*
X126005152Y-67952381D02*
X126043247Y-67990476D01*
X126043247Y-67990476D02*
X126081342Y-68066666D01*
X126081342Y-68066666D02*
X126081342Y-68371428D01*
X125662295Y-67228571D02*
X125662295Y-67380952D01*
X125662295Y-67380952D02*
X125700390Y-67457143D01*
X125700390Y-67457143D02*
X125738485Y-67495238D01*
X125738485Y-67495238D02*
X125852771Y-67571428D01*
X125852771Y-67571428D02*
X126005152Y-67609524D01*
X126005152Y-67609524D02*
X126309914Y-67609524D01*
X126309914Y-67609524D02*
X126386104Y-67571428D01*
X126386104Y-67571428D02*
X126424200Y-67533333D01*
X126424200Y-67533333D02*
X126462295Y-67457143D01*
X126462295Y-67457143D02*
X126462295Y-67304762D01*
X126462295Y-67304762D02*
X126424200Y-67228571D01*
X126424200Y-67228571D02*
X126386104Y-67190476D01*
X126386104Y-67190476D02*
X126309914Y-67152381D01*
X126309914Y-67152381D02*
X126119438Y-67152381D01*
X126119438Y-67152381D02*
X126043247Y-67190476D01*
X126043247Y-67190476D02*
X126005152Y-67228571D01*
X126005152Y-67228571D02*
X125967057Y-67304762D01*
X125967057Y-67304762D02*
X125967057Y-67457143D01*
X125967057Y-67457143D02*
X126005152Y-67533333D01*
X126005152Y-67533333D02*
X126043247Y-67571428D01*
X126043247Y-67571428D02*
X126119438Y-67609524D01*
X126462295Y-66390476D02*
X126462295Y-66847619D01*
X126462295Y-66619047D02*
X125662295Y-66619047D01*
X125662295Y-66619047D02*
X125776580Y-66695238D01*
X125776580Y-66695238D02*
X125852771Y-66771428D01*
X125852771Y-66771428D02*
X125890866Y-66847619D01*
X186362295Y-91259523D02*
X187009914Y-91259523D01*
X187009914Y-91259523D02*
X187086104Y-91221428D01*
X187086104Y-91221428D02*
X187124200Y-91183333D01*
X187124200Y-91183333D02*
X187162295Y-91107142D01*
X187162295Y-91107142D02*
X187162295Y-90954761D01*
X187162295Y-90954761D02*
X187124200Y-90878571D01*
X187124200Y-90878571D02*
X187086104Y-90840476D01*
X187086104Y-90840476D02*
X187009914Y-90802380D01*
X187009914Y-90802380D02*
X186362295Y-90802380D01*
X186438485Y-90459524D02*
X186400390Y-90421428D01*
X186400390Y-90421428D02*
X186362295Y-90345238D01*
X186362295Y-90345238D02*
X186362295Y-90154762D01*
X186362295Y-90154762D02*
X186400390Y-90078571D01*
X186400390Y-90078571D02*
X186438485Y-90040476D01*
X186438485Y-90040476D02*
X186514676Y-90002381D01*
X186514676Y-90002381D02*
X186590866Y-90002381D01*
X186590866Y-90002381D02*
X186705152Y-90040476D01*
X186705152Y-90040476D02*
X187162295Y-90497619D01*
X187162295Y-90497619D02*
X187162295Y-90002381D01*
X160762295Y-76239285D02*
X160381342Y-76505952D01*
X160762295Y-76696428D02*
X159962295Y-76696428D01*
X159962295Y-76696428D02*
X159962295Y-76391666D01*
X159962295Y-76391666D02*
X160000390Y-76315476D01*
X160000390Y-76315476D02*
X160038485Y-76277381D01*
X160038485Y-76277381D02*
X160114676Y-76239285D01*
X160114676Y-76239285D02*
X160228961Y-76239285D01*
X160228961Y-76239285D02*
X160305152Y-76277381D01*
X160305152Y-76277381D02*
X160343247Y-76315476D01*
X160343247Y-76315476D02*
X160381342Y-76391666D01*
X160381342Y-76391666D02*
X160381342Y-76696428D01*
X159962295Y-75972619D02*
X159962295Y-75477381D01*
X159962295Y-75477381D02*
X160267057Y-75744047D01*
X160267057Y-75744047D02*
X160267057Y-75629762D01*
X160267057Y-75629762D02*
X160305152Y-75553571D01*
X160305152Y-75553571D02*
X160343247Y-75515476D01*
X160343247Y-75515476D02*
X160419438Y-75477381D01*
X160419438Y-75477381D02*
X160609914Y-75477381D01*
X160609914Y-75477381D02*
X160686104Y-75515476D01*
X160686104Y-75515476D02*
X160724200Y-75553571D01*
X160724200Y-75553571D02*
X160762295Y-75629762D01*
X160762295Y-75629762D02*
X160762295Y-75858333D01*
X160762295Y-75858333D02*
X160724200Y-75934524D01*
X160724200Y-75934524D02*
X160686104Y-75972619D01*
X160762295Y-74715476D02*
X160762295Y-75172619D01*
X160762295Y-74944047D02*
X159962295Y-74944047D01*
X159962295Y-74944047D02*
X160076580Y-75020238D01*
X160076580Y-75020238D02*
X160152771Y-75096428D01*
X160152771Y-75096428D02*
X160190866Y-75172619D01*
X166316104Y-86333332D02*
X166354200Y-86371428D01*
X166354200Y-86371428D02*
X166392295Y-86485713D01*
X166392295Y-86485713D02*
X166392295Y-86561904D01*
X166392295Y-86561904D02*
X166354200Y-86676190D01*
X166354200Y-86676190D02*
X166278009Y-86752380D01*
X166278009Y-86752380D02*
X166201819Y-86790475D01*
X166201819Y-86790475D02*
X166049438Y-86828571D01*
X166049438Y-86828571D02*
X165935152Y-86828571D01*
X165935152Y-86828571D02*
X165782771Y-86790475D01*
X165782771Y-86790475D02*
X165706580Y-86752380D01*
X165706580Y-86752380D02*
X165630390Y-86676190D01*
X165630390Y-86676190D02*
X165592295Y-86561904D01*
X165592295Y-86561904D02*
X165592295Y-86485713D01*
X165592295Y-86485713D02*
X165630390Y-86371428D01*
X165630390Y-86371428D02*
X165668485Y-86333332D01*
X165858961Y-85647618D02*
X166392295Y-85647618D01*
X165554200Y-85838094D02*
X166125628Y-86028571D01*
X166125628Y-86028571D02*
X166125628Y-85533332D01*
X117362295Y-67814285D02*
X116981342Y-68080952D01*
X117362295Y-68271428D02*
X116562295Y-68271428D01*
X116562295Y-68271428D02*
X116562295Y-67966666D01*
X116562295Y-67966666D02*
X116600390Y-67890476D01*
X116600390Y-67890476D02*
X116638485Y-67852381D01*
X116638485Y-67852381D02*
X116714676Y-67814285D01*
X116714676Y-67814285D02*
X116828961Y-67814285D01*
X116828961Y-67814285D02*
X116905152Y-67852381D01*
X116905152Y-67852381D02*
X116943247Y-67890476D01*
X116943247Y-67890476D02*
X116981342Y-67966666D01*
X116981342Y-67966666D02*
X116981342Y-68271428D01*
X116562295Y-67128571D02*
X116562295Y-67280952D01*
X116562295Y-67280952D02*
X116600390Y-67357143D01*
X116600390Y-67357143D02*
X116638485Y-67395238D01*
X116638485Y-67395238D02*
X116752771Y-67471428D01*
X116752771Y-67471428D02*
X116905152Y-67509524D01*
X116905152Y-67509524D02*
X117209914Y-67509524D01*
X117209914Y-67509524D02*
X117286104Y-67471428D01*
X117286104Y-67471428D02*
X117324200Y-67433333D01*
X117324200Y-67433333D02*
X117362295Y-67357143D01*
X117362295Y-67357143D02*
X117362295Y-67204762D01*
X117362295Y-67204762D02*
X117324200Y-67128571D01*
X117324200Y-67128571D02*
X117286104Y-67090476D01*
X117286104Y-67090476D02*
X117209914Y-67052381D01*
X117209914Y-67052381D02*
X117019438Y-67052381D01*
X117019438Y-67052381D02*
X116943247Y-67090476D01*
X116943247Y-67090476D02*
X116905152Y-67128571D01*
X116905152Y-67128571D02*
X116867057Y-67204762D01*
X116867057Y-67204762D02*
X116867057Y-67357143D01*
X116867057Y-67357143D02*
X116905152Y-67433333D01*
X116905152Y-67433333D02*
X116943247Y-67471428D01*
X116943247Y-67471428D02*
X117019438Y-67509524D01*
X116562295Y-66785714D02*
X116562295Y-66290476D01*
X116562295Y-66290476D02*
X116867057Y-66557142D01*
X116867057Y-66557142D02*
X116867057Y-66442857D01*
X116867057Y-66442857D02*
X116905152Y-66366666D01*
X116905152Y-66366666D02*
X116943247Y-66328571D01*
X116943247Y-66328571D02*
X117019438Y-66290476D01*
X117019438Y-66290476D02*
X117209914Y-66290476D01*
X117209914Y-66290476D02*
X117286104Y-66328571D01*
X117286104Y-66328571D02*
X117324200Y-66366666D01*
X117324200Y-66366666D02*
X117362295Y-66442857D01*
X117362295Y-66442857D02*
X117362295Y-66671428D01*
X117362295Y-66671428D02*
X117324200Y-66747619D01*
X117324200Y-66747619D02*
X117286104Y-66785714D01*
X128762295Y-66440475D02*
X127962295Y-66440475D01*
X127962295Y-66440475D02*
X127962295Y-66249999D01*
X127962295Y-66249999D02*
X128000390Y-66135713D01*
X128000390Y-66135713D02*
X128076580Y-66059523D01*
X128076580Y-66059523D02*
X128152771Y-66021428D01*
X128152771Y-66021428D02*
X128305152Y-65983332D01*
X128305152Y-65983332D02*
X128419438Y-65983332D01*
X128419438Y-65983332D02*
X128571819Y-66021428D01*
X128571819Y-66021428D02*
X128648009Y-66059523D01*
X128648009Y-66059523D02*
X128724200Y-66135713D01*
X128724200Y-66135713D02*
X128762295Y-66249999D01*
X128762295Y-66249999D02*
X128762295Y-66440475D01*
X128305152Y-65526190D02*
X128267057Y-65602380D01*
X128267057Y-65602380D02*
X128228961Y-65640475D01*
X128228961Y-65640475D02*
X128152771Y-65678571D01*
X128152771Y-65678571D02*
X128114676Y-65678571D01*
X128114676Y-65678571D02*
X128038485Y-65640475D01*
X128038485Y-65640475D02*
X128000390Y-65602380D01*
X128000390Y-65602380D02*
X127962295Y-65526190D01*
X127962295Y-65526190D02*
X127962295Y-65373809D01*
X127962295Y-65373809D02*
X128000390Y-65297618D01*
X128000390Y-65297618D02*
X128038485Y-65259523D01*
X128038485Y-65259523D02*
X128114676Y-65221428D01*
X128114676Y-65221428D02*
X128152771Y-65221428D01*
X128152771Y-65221428D02*
X128228961Y-65259523D01*
X128228961Y-65259523D02*
X128267057Y-65297618D01*
X128267057Y-65297618D02*
X128305152Y-65373809D01*
X128305152Y-65373809D02*
X128305152Y-65526190D01*
X128305152Y-65526190D02*
X128343247Y-65602380D01*
X128343247Y-65602380D02*
X128381342Y-65640475D01*
X128381342Y-65640475D02*
X128457533Y-65678571D01*
X128457533Y-65678571D02*
X128609914Y-65678571D01*
X128609914Y-65678571D02*
X128686104Y-65640475D01*
X128686104Y-65640475D02*
X128724200Y-65602380D01*
X128724200Y-65602380D02*
X128762295Y-65526190D01*
X128762295Y-65526190D02*
X128762295Y-65373809D01*
X128762295Y-65373809D02*
X128724200Y-65297618D01*
X128724200Y-65297618D02*
X128686104Y-65259523D01*
X128686104Y-65259523D02*
X128609914Y-65221428D01*
X128609914Y-65221428D02*
X128457533Y-65221428D01*
X128457533Y-65221428D02*
X128381342Y-65259523D01*
X128381342Y-65259523D02*
X128343247Y-65297618D01*
X128343247Y-65297618D02*
X128305152Y-65373809D01*
X129292295Y-80014285D02*
X128911342Y-80280952D01*
X129292295Y-80471428D02*
X128492295Y-80471428D01*
X128492295Y-80471428D02*
X128492295Y-80166666D01*
X128492295Y-80166666D02*
X128530390Y-80090476D01*
X128530390Y-80090476D02*
X128568485Y-80052381D01*
X128568485Y-80052381D02*
X128644676Y-80014285D01*
X128644676Y-80014285D02*
X128758961Y-80014285D01*
X128758961Y-80014285D02*
X128835152Y-80052381D01*
X128835152Y-80052381D02*
X128873247Y-80090476D01*
X128873247Y-80090476D02*
X128911342Y-80166666D01*
X128911342Y-80166666D02*
X128911342Y-80471428D01*
X128492295Y-79290476D02*
X128492295Y-79671428D01*
X128492295Y-79671428D02*
X128873247Y-79709524D01*
X128873247Y-79709524D02*
X128835152Y-79671428D01*
X128835152Y-79671428D02*
X128797057Y-79595238D01*
X128797057Y-79595238D02*
X128797057Y-79404762D01*
X128797057Y-79404762D02*
X128835152Y-79328571D01*
X128835152Y-79328571D02*
X128873247Y-79290476D01*
X128873247Y-79290476D02*
X128949438Y-79252381D01*
X128949438Y-79252381D02*
X129139914Y-79252381D01*
X129139914Y-79252381D02*
X129216104Y-79290476D01*
X129216104Y-79290476D02*
X129254200Y-79328571D01*
X129254200Y-79328571D02*
X129292295Y-79404762D01*
X129292295Y-79404762D02*
X129292295Y-79595238D01*
X129292295Y-79595238D02*
X129254200Y-79671428D01*
X129254200Y-79671428D02*
X129216104Y-79709524D01*
X128568485Y-78947619D02*
X128530390Y-78909523D01*
X128530390Y-78909523D02*
X128492295Y-78833333D01*
X128492295Y-78833333D02*
X128492295Y-78642857D01*
X128492295Y-78642857D02*
X128530390Y-78566666D01*
X128530390Y-78566666D02*
X128568485Y-78528571D01*
X128568485Y-78528571D02*
X128644676Y-78490476D01*
X128644676Y-78490476D02*
X128720866Y-78490476D01*
X128720866Y-78490476D02*
X128835152Y-78528571D01*
X128835152Y-78528571D02*
X129292295Y-78985714D01*
X129292295Y-78985714D02*
X129292295Y-78490476D01*
X167072295Y-148921666D02*
X167643723Y-148921666D01*
X167643723Y-148921666D02*
X167758009Y-148959761D01*
X167758009Y-148959761D02*
X167834200Y-149035952D01*
X167834200Y-149035952D02*
X167872295Y-149150237D01*
X167872295Y-149150237D02*
X167872295Y-149226428D01*
X167148485Y-148578809D02*
X167110390Y-148540713D01*
X167110390Y-148540713D02*
X167072295Y-148464523D01*
X167072295Y-148464523D02*
X167072295Y-148274047D01*
X167072295Y-148274047D02*
X167110390Y-148197856D01*
X167110390Y-148197856D02*
X167148485Y-148159761D01*
X167148485Y-148159761D02*
X167224676Y-148121666D01*
X167224676Y-148121666D02*
X167300866Y-148121666D01*
X167300866Y-148121666D02*
X167415152Y-148159761D01*
X167415152Y-148159761D02*
X167872295Y-148616904D01*
X167872295Y-148616904D02*
X167872295Y-148121666D01*
X121162295Y-89990475D02*
X121809914Y-89990475D01*
X121809914Y-89990475D02*
X121886104Y-89952380D01*
X121886104Y-89952380D02*
X121924200Y-89914285D01*
X121924200Y-89914285D02*
X121962295Y-89838094D01*
X121962295Y-89838094D02*
X121962295Y-89685713D01*
X121962295Y-89685713D02*
X121924200Y-89609523D01*
X121924200Y-89609523D02*
X121886104Y-89571428D01*
X121886104Y-89571428D02*
X121809914Y-89533332D01*
X121809914Y-89533332D02*
X121162295Y-89533332D01*
X121962295Y-88733333D02*
X121962295Y-89190476D01*
X121962295Y-88961904D02*
X121162295Y-88961904D01*
X121162295Y-88961904D02*
X121276580Y-89038095D01*
X121276580Y-89038095D02*
X121352771Y-89114285D01*
X121352771Y-89114285D02*
X121390866Y-89190476D01*
X121162295Y-88466666D02*
X121162295Y-87933332D01*
X121162295Y-87933332D02*
X121962295Y-88276190D01*
X189462295Y-76414285D02*
X189081342Y-76680952D01*
X189462295Y-76871428D02*
X188662295Y-76871428D01*
X188662295Y-76871428D02*
X188662295Y-76566666D01*
X188662295Y-76566666D02*
X188700390Y-76490476D01*
X188700390Y-76490476D02*
X188738485Y-76452381D01*
X188738485Y-76452381D02*
X188814676Y-76414285D01*
X188814676Y-76414285D02*
X188928961Y-76414285D01*
X188928961Y-76414285D02*
X189005152Y-76452381D01*
X189005152Y-76452381D02*
X189043247Y-76490476D01*
X189043247Y-76490476D02*
X189081342Y-76566666D01*
X189081342Y-76566666D02*
X189081342Y-76871428D01*
X189462295Y-75652381D02*
X189462295Y-76109524D01*
X189462295Y-75880952D02*
X188662295Y-75880952D01*
X188662295Y-75880952D02*
X188776580Y-75957143D01*
X188776580Y-75957143D02*
X188852771Y-76033333D01*
X188852771Y-76033333D02*
X188890866Y-76109524D01*
X188662295Y-74928571D02*
X188662295Y-75309523D01*
X188662295Y-75309523D02*
X189043247Y-75347619D01*
X189043247Y-75347619D02*
X189005152Y-75309523D01*
X189005152Y-75309523D02*
X188967057Y-75233333D01*
X188967057Y-75233333D02*
X188967057Y-75042857D01*
X188967057Y-75042857D02*
X189005152Y-74966666D01*
X189005152Y-74966666D02*
X189043247Y-74928571D01*
X189043247Y-74928571D02*
X189119438Y-74890476D01*
X189119438Y-74890476D02*
X189309914Y-74890476D01*
X189309914Y-74890476D02*
X189386104Y-74928571D01*
X189386104Y-74928571D02*
X189424200Y-74966666D01*
X189424200Y-74966666D02*
X189462295Y-75042857D01*
X189462295Y-75042857D02*
X189462295Y-75233333D01*
X189462295Y-75233333D02*
X189424200Y-75309523D01*
X189424200Y-75309523D02*
X189386104Y-75347619D01*
X103390476Y-142162295D02*
X103390476Y-141362295D01*
X103390476Y-141743247D02*
X103847619Y-141743247D01*
X103847619Y-142162295D02*
X103847619Y-141362295D01*
X104571428Y-141628961D02*
X104571428Y-142162295D01*
X104380952Y-141324200D02*
X104190475Y-141895628D01*
X104190475Y-141895628D02*
X104685714Y-141895628D01*
X189162295Y-124558332D02*
X188781342Y-124824999D01*
X189162295Y-125015475D02*
X188362295Y-125015475D01*
X188362295Y-125015475D02*
X188362295Y-124710713D01*
X188362295Y-124710713D02*
X188400390Y-124634523D01*
X188400390Y-124634523D02*
X188438485Y-124596428D01*
X188438485Y-124596428D02*
X188514676Y-124558332D01*
X188514676Y-124558332D02*
X188628961Y-124558332D01*
X188628961Y-124558332D02*
X188705152Y-124596428D01*
X188705152Y-124596428D02*
X188743247Y-124634523D01*
X188743247Y-124634523D02*
X188781342Y-124710713D01*
X188781342Y-124710713D02*
X188781342Y-125015475D01*
X189162295Y-123796428D02*
X189162295Y-124253571D01*
X189162295Y-124024999D02*
X188362295Y-124024999D01*
X188362295Y-124024999D02*
X188476580Y-124101190D01*
X188476580Y-124101190D02*
X188552771Y-124177380D01*
X188552771Y-124177380D02*
X188590866Y-124253571D01*
X162562295Y-76314285D02*
X162181342Y-76580952D01*
X162562295Y-76771428D02*
X161762295Y-76771428D01*
X161762295Y-76771428D02*
X161762295Y-76466666D01*
X161762295Y-76466666D02*
X161800390Y-76390476D01*
X161800390Y-76390476D02*
X161838485Y-76352381D01*
X161838485Y-76352381D02*
X161914676Y-76314285D01*
X161914676Y-76314285D02*
X162028961Y-76314285D01*
X162028961Y-76314285D02*
X162105152Y-76352381D01*
X162105152Y-76352381D02*
X162143247Y-76390476D01*
X162143247Y-76390476D02*
X162181342Y-76466666D01*
X162181342Y-76466666D02*
X162181342Y-76771428D01*
X161762295Y-76047619D02*
X161762295Y-75552381D01*
X161762295Y-75552381D02*
X162067057Y-75819047D01*
X162067057Y-75819047D02*
X162067057Y-75704762D01*
X162067057Y-75704762D02*
X162105152Y-75628571D01*
X162105152Y-75628571D02*
X162143247Y-75590476D01*
X162143247Y-75590476D02*
X162219438Y-75552381D01*
X162219438Y-75552381D02*
X162409914Y-75552381D01*
X162409914Y-75552381D02*
X162486104Y-75590476D01*
X162486104Y-75590476D02*
X162524200Y-75628571D01*
X162524200Y-75628571D02*
X162562295Y-75704762D01*
X162562295Y-75704762D02*
X162562295Y-75933333D01*
X162562295Y-75933333D02*
X162524200Y-76009524D01*
X162524200Y-76009524D02*
X162486104Y-76047619D01*
X161762295Y-75057142D02*
X161762295Y-74980952D01*
X161762295Y-74980952D02*
X161800390Y-74904761D01*
X161800390Y-74904761D02*
X161838485Y-74866666D01*
X161838485Y-74866666D02*
X161914676Y-74828571D01*
X161914676Y-74828571D02*
X162067057Y-74790476D01*
X162067057Y-74790476D02*
X162257533Y-74790476D01*
X162257533Y-74790476D02*
X162409914Y-74828571D01*
X162409914Y-74828571D02*
X162486104Y-74866666D01*
X162486104Y-74866666D02*
X162524200Y-74904761D01*
X162524200Y-74904761D02*
X162562295Y-74980952D01*
X162562295Y-74980952D02*
X162562295Y-75057142D01*
X162562295Y-75057142D02*
X162524200Y-75133333D01*
X162524200Y-75133333D02*
X162486104Y-75171428D01*
X162486104Y-75171428D02*
X162409914Y-75209523D01*
X162409914Y-75209523D02*
X162257533Y-75247619D01*
X162257533Y-75247619D02*
X162067057Y-75247619D01*
X162067057Y-75247619D02*
X161914676Y-75209523D01*
X161914676Y-75209523D02*
X161838485Y-75171428D01*
X161838485Y-75171428D02*
X161800390Y-75133333D01*
X161800390Y-75133333D02*
X161762295Y-75057142D01*
X190762295Y-124558332D02*
X190381342Y-124824999D01*
X190762295Y-125015475D02*
X189962295Y-125015475D01*
X189962295Y-125015475D02*
X189962295Y-124710713D01*
X189962295Y-124710713D02*
X190000390Y-124634523D01*
X190000390Y-124634523D02*
X190038485Y-124596428D01*
X190038485Y-124596428D02*
X190114676Y-124558332D01*
X190114676Y-124558332D02*
X190228961Y-124558332D01*
X190228961Y-124558332D02*
X190305152Y-124596428D01*
X190305152Y-124596428D02*
X190343247Y-124634523D01*
X190343247Y-124634523D02*
X190381342Y-124710713D01*
X190381342Y-124710713D02*
X190381342Y-125015475D01*
X189962295Y-124291666D02*
X189962295Y-123796428D01*
X189962295Y-123796428D02*
X190267057Y-124063094D01*
X190267057Y-124063094D02*
X190267057Y-123948809D01*
X190267057Y-123948809D02*
X190305152Y-123872618D01*
X190305152Y-123872618D02*
X190343247Y-123834523D01*
X190343247Y-123834523D02*
X190419438Y-123796428D01*
X190419438Y-123796428D02*
X190609914Y-123796428D01*
X190609914Y-123796428D02*
X190686104Y-123834523D01*
X190686104Y-123834523D02*
X190724200Y-123872618D01*
X190724200Y-123872618D02*
X190762295Y-123948809D01*
X190762295Y-123948809D02*
X190762295Y-124177380D01*
X190762295Y-124177380D02*
X190724200Y-124253571D01*
X190724200Y-124253571D02*
X190686104Y-124291666D01*
X155733333Y-77713247D02*
X155466667Y-77713247D01*
X155466667Y-78132295D02*
X155466667Y-77332295D01*
X155466667Y-77332295D02*
X155847619Y-77332295D01*
X156419047Y-77713247D02*
X156533333Y-77751342D01*
X156533333Y-77751342D02*
X156571428Y-77789438D01*
X156571428Y-77789438D02*
X156609524Y-77865628D01*
X156609524Y-77865628D02*
X156609524Y-77979914D01*
X156609524Y-77979914D02*
X156571428Y-78056104D01*
X156571428Y-78056104D02*
X156533333Y-78094200D01*
X156533333Y-78094200D02*
X156457143Y-78132295D01*
X156457143Y-78132295D02*
X156152381Y-78132295D01*
X156152381Y-78132295D02*
X156152381Y-77332295D01*
X156152381Y-77332295D02*
X156419047Y-77332295D01*
X156419047Y-77332295D02*
X156495238Y-77370390D01*
X156495238Y-77370390D02*
X156533333Y-77408485D01*
X156533333Y-77408485D02*
X156571428Y-77484676D01*
X156571428Y-77484676D02*
X156571428Y-77560866D01*
X156571428Y-77560866D02*
X156533333Y-77637057D01*
X156533333Y-77637057D02*
X156495238Y-77675152D01*
X156495238Y-77675152D02*
X156419047Y-77713247D01*
X156419047Y-77713247D02*
X156152381Y-77713247D01*
X157371428Y-78132295D02*
X156914285Y-78132295D01*
X157142857Y-78132295D02*
X157142857Y-77332295D01*
X157142857Y-77332295D02*
X157066666Y-77446580D01*
X157066666Y-77446580D02*
X156990476Y-77522771D01*
X156990476Y-77522771D02*
X156914285Y-77560866D01*
X186936104Y-88883332D02*
X186974200Y-88921428D01*
X186974200Y-88921428D02*
X187012295Y-89035713D01*
X187012295Y-89035713D02*
X187012295Y-89111904D01*
X187012295Y-89111904D02*
X186974200Y-89226190D01*
X186974200Y-89226190D02*
X186898009Y-89302380D01*
X186898009Y-89302380D02*
X186821819Y-89340475D01*
X186821819Y-89340475D02*
X186669438Y-89378571D01*
X186669438Y-89378571D02*
X186555152Y-89378571D01*
X186555152Y-89378571D02*
X186402771Y-89340475D01*
X186402771Y-89340475D02*
X186326580Y-89302380D01*
X186326580Y-89302380D02*
X186250390Y-89226190D01*
X186250390Y-89226190D02*
X186212295Y-89111904D01*
X186212295Y-89111904D02*
X186212295Y-89035713D01*
X186212295Y-89035713D02*
X186250390Y-88921428D01*
X186250390Y-88921428D02*
X186288485Y-88883332D01*
X186288485Y-88578571D02*
X186250390Y-88540475D01*
X186250390Y-88540475D02*
X186212295Y-88464285D01*
X186212295Y-88464285D02*
X186212295Y-88273809D01*
X186212295Y-88273809D02*
X186250390Y-88197618D01*
X186250390Y-88197618D02*
X186288485Y-88159523D01*
X186288485Y-88159523D02*
X186364676Y-88121428D01*
X186364676Y-88121428D02*
X186440866Y-88121428D01*
X186440866Y-88121428D02*
X186555152Y-88159523D01*
X186555152Y-88159523D02*
X187012295Y-88616666D01*
X187012295Y-88616666D02*
X187012295Y-88121428D01*
X163792295Y-91114285D02*
X163411342Y-91380952D01*
X163792295Y-91571428D02*
X162992295Y-91571428D01*
X162992295Y-91571428D02*
X162992295Y-91266666D01*
X162992295Y-91266666D02*
X163030390Y-91190476D01*
X163030390Y-91190476D02*
X163068485Y-91152381D01*
X163068485Y-91152381D02*
X163144676Y-91114285D01*
X163144676Y-91114285D02*
X163258961Y-91114285D01*
X163258961Y-91114285D02*
X163335152Y-91152381D01*
X163335152Y-91152381D02*
X163373247Y-91190476D01*
X163373247Y-91190476D02*
X163411342Y-91266666D01*
X163411342Y-91266666D02*
X163411342Y-91571428D01*
X163068485Y-90809524D02*
X163030390Y-90771428D01*
X163030390Y-90771428D02*
X162992295Y-90695238D01*
X162992295Y-90695238D02*
X162992295Y-90504762D01*
X162992295Y-90504762D02*
X163030390Y-90428571D01*
X163030390Y-90428571D02*
X163068485Y-90390476D01*
X163068485Y-90390476D02*
X163144676Y-90352381D01*
X163144676Y-90352381D02*
X163220866Y-90352381D01*
X163220866Y-90352381D02*
X163335152Y-90390476D01*
X163335152Y-90390476D02*
X163792295Y-90847619D01*
X163792295Y-90847619D02*
X163792295Y-90352381D01*
X163258961Y-89666666D02*
X163792295Y-89666666D01*
X162954200Y-89857142D02*
X163525628Y-90047619D01*
X163525628Y-90047619D02*
X163525628Y-89552380D01*
X118912295Y-67864285D02*
X118531342Y-68130952D01*
X118912295Y-68321428D02*
X118112295Y-68321428D01*
X118112295Y-68321428D02*
X118112295Y-68016666D01*
X118112295Y-68016666D02*
X118150390Y-67940476D01*
X118150390Y-67940476D02*
X118188485Y-67902381D01*
X118188485Y-67902381D02*
X118264676Y-67864285D01*
X118264676Y-67864285D02*
X118378961Y-67864285D01*
X118378961Y-67864285D02*
X118455152Y-67902381D01*
X118455152Y-67902381D02*
X118493247Y-67940476D01*
X118493247Y-67940476D02*
X118531342Y-68016666D01*
X118531342Y-68016666D02*
X118531342Y-68321428D01*
X118112295Y-67178571D02*
X118112295Y-67330952D01*
X118112295Y-67330952D02*
X118150390Y-67407143D01*
X118150390Y-67407143D02*
X118188485Y-67445238D01*
X118188485Y-67445238D02*
X118302771Y-67521428D01*
X118302771Y-67521428D02*
X118455152Y-67559524D01*
X118455152Y-67559524D02*
X118759914Y-67559524D01*
X118759914Y-67559524D02*
X118836104Y-67521428D01*
X118836104Y-67521428D02*
X118874200Y-67483333D01*
X118874200Y-67483333D02*
X118912295Y-67407143D01*
X118912295Y-67407143D02*
X118912295Y-67254762D01*
X118912295Y-67254762D02*
X118874200Y-67178571D01*
X118874200Y-67178571D02*
X118836104Y-67140476D01*
X118836104Y-67140476D02*
X118759914Y-67102381D01*
X118759914Y-67102381D02*
X118569438Y-67102381D01*
X118569438Y-67102381D02*
X118493247Y-67140476D01*
X118493247Y-67140476D02*
X118455152Y-67178571D01*
X118455152Y-67178571D02*
X118417057Y-67254762D01*
X118417057Y-67254762D02*
X118417057Y-67407143D01*
X118417057Y-67407143D02*
X118455152Y-67483333D01*
X118455152Y-67483333D02*
X118493247Y-67521428D01*
X118493247Y-67521428D02*
X118569438Y-67559524D01*
X118112295Y-66607142D02*
X118112295Y-66530952D01*
X118112295Y-66530952D02*
X118150390Y-66454761D01*
X118150390Y-66454761D02*
X118188485Y-66416666D01*
X118188485Y-66416666D02*
X118264676Y-66378571D01*
X118264676Y-66378571D02*
X118417057Y-66340476D01*
X118417057Y-66340476D02*
X118607533Y-66340476D01*
X118607533Y-66340476D02*
X118759914Y-66378571D01*
X118759914Y-66378571D02*
X118836104Y-66416666D01*
X118836104Y-66416666D02*
X118874200Y-66454761D01*
X118874200Y-66454761D02*
X118912295Y-66530952D01*
X118912295Y-66530952D02*
X118912295Y-66607142D01*
X118912295Y-66607142D02*
X118874200Y-66683333D01*
X118874200Y-66683333D02*
X118836104Y-66721428D01*
X118836104Y-66721428D02*
X118759914Y-66759523D01*
X118759914Y-66759523D02*
X118607533Y-66797619D01*
X118607533Y-66797619D02*
X118417057Y-66797619D01*
X118417057Y-66797619D02*
X118264676Y-66759523D01*
X118264676Y-66759523D02*
X118188485Y-66721428D01*
X118188485Y-66721428D02*
X118150390Y-66683333D01*
X118150390Y-66683333D02*
X118112295Y-66607142D01*
X109812295Y-67264285D02*
X109431342Y-67530952D01*
X109812295Y-67721428D02*
X109012295Y-67721428D01*
X109012295Y-67721428D02*
X109012295Y-67416666D01*
X109012295Y-67416666D02*
X109050390Y-67340476D01*
X109050390Y-67340476D02*
X109088485Y-67302381D01*
X109088485Y-67302381D02*
X109164676Y-67264285D01*
X109164676Y-67264285D02*
X109278961Y-67264285D01*
X109278961Y-67264285D02*
X109355152Y-67302381D01*
X109355152Y-67302381D02*
X109393247Y-67340476D01*
X109393247Y-67340476D02*
X109431342Y-67416666D01*
X109431342Y-67416666D02*
X109431342Y-67721428D01*
X109012295Y-66540476D02*
X109012295Y-66921428D01*
X109012295Y-66921428D02*
X109393247Y-66959524D01*
X109393247Y-66959524D02*
X109355152Y-66921428D01*
X109355152Y-66921428D02*
X109317057Y-66845238D01*
X109317057Y-66845238D02*
X109317057Y-66654762D01*
X109317057Y-66654762D02*
X109355152Y-66578571D01*
X109355152Y-66578571D02*
X109393247Y-66540476D01*
X109393247Y-66540476D02*
X109469438Y-66502381D01*
X109469438Y-66502381D02*
X109659914Y-66502381D01*
X109659914Y-66502381D02*
X109736104Y-66540476D01*
X109736104Y-66540476D02*
X109774200Y-66578571D01*
X109774200Y-66578571D02*
X109812295Y-66654762D01*
X109812295Y-66654762D02*
X109812295Y-66845238D01*
X109812295Y-66845238D02*
X109774200Y-66921428D01*
X109774200Y-66921428D02*
X109736104Y-66959524D01*
X109812295Y-66121428D02*
X109812295Y-65969047D01*
X109812295Y-65969047D02*
X109774200Y-65892857D01*
X109774200Y-65892857D02*
X109736104Y-65854761D01*
X109736104Y-65854761D02*
X109621819Y-65778571D01*
X109621819Y-65778571D02*
X109469438Y-65740476D01*
X109469438Y-65740476D02*
X109164676Y-65740476D01*
X109164676Y-65740476D02*
X109088485Y-65778571D01*
X109088485Y-65778571D02*
X109050390Y-65816666D01*
X109050390Y-65816666D02*
X109012295Y-65892857D01*
X109012295Y-65892857D02*
X109012295Y-66045238D01*
X109012295Y-66045238D02*
X109050390Y-66121428D01*
X109050390Y-66121428D02*
X109088485Y-66159523D01*
X109088485Y-66159523D02*
X109164676Y-66197619D01*
X109164676Y-66197619D02*
X109355152Y-66197619D01*
X109355152Y-66197619D02*
X109431342Y-66159523D01*
X109431342Y-66159523D02*
X109469438Y-66121428D01*
X109469438Y-66121428D02*
X109507533Y-66045238D01*
X109507533Y-66045238D02*
X109507533Y-65892857D01*
X109507533Y-65892857D02*
X109469438Y-65816666D01*
X109469438Y-65816666D02*
X109431342Y-65778571D01*
X109431342Y-65778571D02*
X109355152Y-65740476D01*
X163962295Y-76314285D02*
X163581342Y-76580952D01*
X163962295Y-76771428D02*
X163162295Y-76771428D01*
X163162295Y-76771428D02*
X163162295Y-76466666D01*
X163162295Y-76466666D02*
X163200390Y-76390476D01*
X163200390Y-76390476D02*
X163238485Y-76352381D01*
X163238485Y-76352381D02*
X163314676Y-76314285D01*
X163314676Y-76314285D02*
X163428961Y-76314285D01*
X163428961Y-76314285D02*
X163505152Y-76352381D01*
X163505152Y-76352381D02*
X163543247Y-76390476D01*
X163543247Y-76390476D02*
X163581342Y-76466666D01*
X163581342Y-76466666D02*
X163581342Y-76771428D01*
X163238485Y-76009524D02*
X163200390Y-75971428D01*
X163200390Y-75971428D02*
X163162295Y-75895238D01*
X163162295Y-75895238D02*
X163162295Y-75704762D01*
X163162295Y-75704762D02*
X163200390Y-75628571D01*
X163200390Y-75628571D02*
X163238485Y-75590476D01*
X163238485Y-75590476D02*
X163314676Y-75552381D01*
X163314676Y-75552381D02*
X163390866Y-75552381D01*
X163390866Y-75552381D02*
X163505152Y-75590476D01*
X163505152Y-75590476D02*
X163962295Y-76047619D01*
X163962295Y-76047619D02*
X163962295Y-75552381D01*
X163962295Y-75171428D02*
X163962295Y-75019047D01*
X163962295Y-75019047D02*
X163924200Y-74942857D01*
X163924200Y-74942857D02*
X163886104Y-74904761D01*
X163886104Y-74904761D02*
X163771819Y-74828571D01*
X163771819Y-74828571D02*
X163619438Y-74790476D01*
X163619438Y-74790476D02*
X163314676Y-74790476D01*
X163314676Y-74790476D02*
X163238485Y-74828571D01*
X163238485Y-74828571D02*
X163200390Y-74866666D01*
X163200390Y-74866666D02*
X163162295Y-74942857D01*
X163162295Y-74942857D02*
X163162295Y-75095238D01*
X163162295Y-75095238D02*
X163200390Y-75171428D01*
X163200390Y-75171428D02*
X163238485Y-75209523D01*
X163238485Y-75209523D02*
X163314676Y-75247619D01*
X163314676Y-75247619D02*
X163505152Y-75247619D01*
X163505152Y-75247619D02*
X163581342Y-75209523D01*
X163581342Y-75209523D02*
X163619438Y-75171428D01*
X163619438Y-75171428D02*
X163657533Y-75095238D01*
X163657533Y-75095238D02*
X163657533Y-74942857D01*
X163657533Y-74942857D02*
X163619438Y-74866666D01*
X163619438Y-74866666D02*
X163581342Y-74828571D01*
X163581342Y-74828571D02*
X163505152Y-74790476D01*
D13*
X172433333Y-61254895D02*
X172433333Y-61826323D01*
X172433333Y-61826323D02*
X172395238Y-61940609D01*
X172395238Y-61940609D02*
X172319047Y-62016800D01*
X172319047Y-62016800D02*
X172204762Y-62054895D01*
X172204762Y-62054895D02*
X172128571Y-62054895D01*
X173233333Y-62054895D02*
X172776190Y-62054895D01*
X173004762Y-62054895D02*
X173004762Y-61254895D01*
X173004762Y-61254895D02*
X172928571Y-61369180D01*
X172928571Y-61369180D02*
X172852381Y-61445371D01*
X172852381Y-61445371D02*
X172776190Y-61483466D01*
D14*
X181051535Y-60784766D02*
X181451535Y-60784766D01*
X181251535Y-60784766D02*
X181251535Y-61484766D01*
X181251535Y-61484766D02*
X181318202Y-61384766D01*
X181318202Y-61384766D02*
X181384869Y-61318100D01*
X181384869Y-61318100D02*
X181451535Y-61284766D01*
D12*
X159609524Y-59762295D02*
X159609524Y-58962295D01*
X159609524Y-58962295D02*
X159800000Y-58962295D01*
X159800000Y-58962295D02*
X159914286Y-59000390D01*
X159914286Y-59000390D02*
X159990476Y-59076580D01*
X159990476Y-59076580D02*
X160028571Y-59152771D01*
X160028571Y-59152771D02*
X160066667Y-59305152D01*
X160066667Y-59305152D02*
X160066667Y-59419438D01*
X160066667Y-59419438D02*
X160028571Y-59571819D01*
X160028571Y-59571819D02*
X159990476Y-59648009D01*
X159990476Y-59648009D02*
X159914286Y-59724200D01*
X159914286Y-59724200D02*
X159800000Y-59762295D01*
X159800000Y-59762295D02*
X159609524Y-59762295D01*
X160752381Y-59228961D02*
X160752381Y-59762295D01*
X160561905Y-58924200D02*
X160371428Y-59495628D01*
X160371428Y-59495628D02*
X160866667Y-59495628D01*
X187712295Y-80114285D02*
X187331342Y-80380952D01*
X187712295Y-80571428D02*
X186912295Y-80571428D01*
X186912295Y-80571428D02*
X186912295Y-80266666D01*
X186912295Y-80266666D02*
X186950390Y-80190476D01*
X186950390Y-80190476D02*
X186988485Y-80152381D01*
X186988485Y-80152381D02*
X187064676Y-80114285D01*
X187064676Y-80114285D02*
X187178961Y-80114285D01*
X187178961Y-80114285D02*
X187255152Y-80152381D01*
X187255152Y-80152381D02*
X187293247Y-80190476D01*
X187293247Y-80190476D02*
X187331342Y-80266666D01*
X187331342Y-80266666D02*
X187331342Y-80571428D01*
X187712295Y-79352381D02*
X187712295Y-79809524D01*
X187712295Y-79580952D02*
X186912295Y-79580952D01*
X186912295Y-79580952D02*
X187026580Y-79657143D01*
X187026580Y-79657143D02*
X187102771Y-79733333D01*
X187102771Y-79733333D02*
X187140866Y-79809524D01*
X187712295Y-78590476D02*
X187712295Y-79047619D01*
X187712295Y-78819047D02*
X186912295Y-78819047D01*
X186912295Y-78819047D02*
X187026580Y-78895238D01*
X187026580Y-78895238D02*
X187102771Y-78971428D01*
X187102771Y-78971428D02*
X187140866Y-79047619D01*
X107062295Y-88990475D02*
X107709914Y-88990475D01*
X107709914Y-88990475D02*
X107786104Y-88952380D01*
X107786104Y-88952380D02*
X107824200Y-88914285D01*
X107824200Y-88914285D02*
X107862295Y-88838094D01*
X107862295Y-88838094D02*
X107862295Y-88685713D01*
X107862295Y-88685713D02*
X107824200Y-88609523D01*
X107824200Y-88609523D02*
X107786104Y-88571428D01*
X107786104Y-88571428D02*
X107709914Y-88533332D01*
X107709914Y-88533332D02*
X107062295Y-88533332D01*
X107862295Y-87733333D02*
X107862295Y-88190476D01*
X107862295Y-87961904D02*
X107062295Y-87961904D01*
X107062295Y-87961904D02*
X107176580Y-88038095D01*
X107176580Y-88038095D02*
X107252771Y-88114285D01*
X107252771Y-88114285D02*
X107290866Y-88190476D01*
X107405152Y-87276190D02*
X107367057Y-87352380D01*
X107367057Y-87352380D02*
X107328961Y-87390475D01*
X107328961Y-87390475D02*
X107252771Y-87428571D01*
X107252771Y-87428571D02*
X107214676Y-87428571D01*
X107214676Y-87428571D02*
X107138485Y-87390475D01*
X107138485Y-87390475D02*
X107100390Y-87352380D01*
X107100390Y-87352380D02*
X107062295Y-87276190D01*
X107062295Y-87276190D02*
X107062295Y-87123809D01*
X107062295Y-87123809D02*
X107100390Y-87047618D01*
X107100390Y-87047618D02*
X107138485Y-87009523D01*
X107138485Y-87009523D02*
X107214676Y-86971428D01*
X107214676Y-86971428D02*
X107252771Y-86971428D01*
X107252771Y-86971428D02*
X107328961Y-87009523D01*
X107328961Y-87009523D02*
X107367057Y-87047618D01*
X107367057Y-87047618D02*
X107405152Y-87123809D01*
X107405152Y-87123809D02*
X107405152Y-87276190D01*
X107405152Y-87276190D02*
X107443247Y-87352380D01*
X107443247Y-87352380D02*
X107481342Y-87390475D01*
X107481342Y-87390475D02*
X107557533Y-87428571D01*
X107557533Y-87428571D02*
X107709914Y-87428571D01*
X107709914Y-87428571D02*
X107786104Y-87390475D01*
X107786104Y-87390475D02*
X107824200Y-87352380D01*
X107824200Y-87352380D02*
X107862295Y-87276190D01*
X107862295Y-87276190D02*
X107862295Y-87123809D01*
X107862295Y-87123809D02*
X107824200Y-87047618D01*
X107824200Y-87047618D02*
X107786104Y-87009523D01*
X107786104Y-87009523D02*
X107709914Y-86971428D01*
X107709914Y-86971428D02*
X107557533Y-86971428D01*
X107557533Y-86971428D02*
X107481342Y-87009523D01*
X107481342Y-87009523D02*
X107443247Y-87047618D01*
X107443247Y-87047618D02*
X107405152Y-87123809D01*
X186562295Y-124558332D02*
X186181342Y-124824999D01*
X186562295Y-125015475D02*
X185762295Y-125015475D01*
X185762295Y-125015475D02*
X185762295Y-124710713D01*
X185762295Y-124710713D02*
X185800390Y-124634523D01*
X185800390Y-124634523D02*
X185838485Y-124596428D01*
X185838485Y-124596428D02*
X185914676Y-124558332D01*
X185914676Y-124558332D02*
X186028961Y-124558332D01*
X186028961Y-124558332D02*
X186105152Y-124596428D01*
X186105152Y-124596428D02*
X186143247Y-124634523D01*
X186143247Y-124634523D02*
X186181342Y-124710713D01*
X186181342Y-124710713D02*
X186181342Y-125015475D01*
X185838485Y-124253571D02*
X185800390Y-124215475D01*
X185800390Y-124215475D02*
X185762295Y-124139285D01*
X185762295Y-124139285D02*
X185762295Y-123948809D01*
X185762295Y-123948809D02*
X185800390Y-123872618D01*
X185800390Y-123872618D02*
X185838485Y-123834523D01*
X185838485Y-123834523D02*
X185914676Y-123796428D01*
X185914676Y-123796428D02*
X185990866Y-123796428D01*
X185990866Y-123796428D02*
X186105152Y-123834523D01*
X186105152Y-123834523D02*
X186562295Y-124291666D01*
X186562295Y-124291666D02*
X186562295Y-123796428D01*
X124335714Y-79462295D02*
X124069047Y-79081342D01*
X123878571Y-79462295D02*
X123878571Y-78662295D01*
X123878571Y-78662295D02*
X124183333Y-78662295D01*
X124183333Y-78662295D02*
X124259523Y-78700390D01*
X124259523Y-78700390D02*
X124297618Y-78738485D01*
X124297618Y-78738485D02*
X124335714Y-78814676D01*
X124335714Y-78814676D02*
X124335714Y-78928961D01*
X124335714Y-78928961D02*
X124297618Y-79005152D01*
X124297618Y-79005152D02*
X124259523Y-79043247D01*
X124259523Y-79043247D02*
X124183333Y-79081342D01*
X124183333Y-79081342D02*
X123878571Y-79081342D01*
X125059523Y-78662295D02*
X124678571Y-78662295D01*
X124678571Y-78662295D02*
X124640475Y-79043247D01*
X124640475Y-79043247D02*
X124678571Y-79005152D01*
X124678571Y-79005152D02*
X124754761Y-78967057D01*
X124754761Y-78967057D02*
X124945237Y-78967057D01*
X124945237Y-78967057D02*
X125021428Y-79005152D01*
X125021428Y-79005152D02*
X125059523Y-79043247D01*
X125059523Y-79043247D02*
X125097618Y-79119438D01*
X125097618Y-79119438D02*
X125097618Y-79309914D01*
X125097618Y-79309914D02*
X125059523Y-79386104D01*
X125059523Y-79386104D02*
X125021428Y-79424200D01*
X125021428Y-79424200D02*
X124945237Y-79462295D01*
X124945237Y-79462295D02*
X124754761Y-79462295D01*
X124754761Y-79462295D02*
X124678571Y-79424200D01*
X124678571Y-79424200D02*
X124640475Y-79386104D01*
X125364285Y-78662295D02*
X125859523Y-78662295D01*
X125859523Y-78662295D02*
X125592857Y-78967057D01*
X125592857Y-78967057D02*
X125707142Y-78967057D01*
X125707142Y-78967057D02*
X125783333Y-79005152D01*
X125783333Y-79005152D02*
X125821428Y-79043247D01*
X125821428Y-79043247D02*
X125859523Y-79119438D01*
X125859523Y-79119438D02*
X125859523Y-79309914D01*
X125859523Y-79309914D02*
X125821428Y-79386104D01*
X125821428Y-79386104D02*
X125783333Y-79424200D01*
X125783333Y-79424200D02*
X125707142Y-79462295D01*
X125707142Y-79462295D02*
X125478571Y-79462295D01*
X125478571Y-79462295D02*
X125402380Y-79424200D01*
X125402380Y-79424200D02*
X125364285Y-79386104D01*
X185562295Y-107758332D02*
X185181342Y-108024999D01*
X185562295Y-108215475D02*
X184762295Y-108215475D01*
X184762295Y-108215475D02*
X184762295Y-107910713D01*
X184762295Y-107910713D02*
X184800390Y-107834523D01*
X184800390Y-107834523D02*
X184838485Y-107796428D01*
X184838485Y-107796428D02*
X184914676Y-107758332D01*
X184914676Y-107758332D02*
X185028961Y-107758332D01*
X185028961Y-107758332D02*
X185105152Y-107796428D01*
X185105152Y-107796428D02*
X185143247Y-107834523D01*
X185143247Y-107834523D02*
X185181342Y-107910713D01*
X185181342Y-107910713D02*
X185181342Y-108215475D01*
X185105152Y-107301190D02*
X185067057Y-107377380D01*
X185067057Y-107377380D02*
X185028961Y-107415475D01*
X185028961Y-107415475D02*
X184952771Y-107453571D01*
X184952771Y-107453571D02*
X184914676Y-107453571D01*
X184914676Y-107453571D02*
X184838485Y-107415475D01*
X184838485Y-107415475D02*
X184800390Y-107377380D01*
X184800390Y-107377380D02*
X184762295Y-107301190D01*
X184762295Y-107301190D02*
X184762295Y-107148809D01*
X184762295Y-107148809D02*
X184800390Y-107072618D01*
X184800390Y-107072618D02*
X184838485Y-107034523D01*
X184838485Y-107034523D02*
X184914676Y-106996428D01*
X184914676Y-106996428D02*
X184952771Y-106996428D01*
X184952771Y-106996428D02*
X185028961Y-107034523D01*
X185028961Y-107034523D02*
X185067057Y-107072618D01*
X185067057Y-107072618D02*
X185105152Y-107148809D01*
X185105152Y-107148809D02*
X185105152Y-107301190D01*
X185105152Y-107301190D02*
X185143247Y-107377380D01*
X185143247Y-107377380D02*
X185181342Y-107415475D01*
X185181342Y-107415475D02*
X185257533Y-107453571D01*
X185257533Y-107453571D02*
X185409914Y-107453571D01*
X185409914Y-107453571D02*
X185486104Y-107415475D01*
X185486104Y-107415475D02*
X185524200Y-107377380D01*
X185524200Y-107377380D02*
X185562295Y-107301190D01*
X185562295Y-107301190D02*
X185562295Y-107148809D01*
X185562295Y-107148809D02*
X185524200Y-107072618D01*
X185524200Y-107072618D02*
X185486104Y-107034523D01*
X185486104Y-107034523D02*
X185409914Y-106996428D01*
X185409914Y-106996428D02*
X185257533Y-106996428D01*
X185257533Y-106996428D02*
X185181342Y-107034523D01*
X185181342Y-107034523D02*
X185143247Y-107072618D01*
X185143247Y-107072618D02*
X185105152Y-107148809D01*
X191212295Y-76464285D02*
X190831342Y-76730952D01*
X191212295Y-76921428D02*
X190412295Y-76921428D01*
X190412295Y-76921428D02*
X190412295Y-76616666D01*
X190412295Y-76616666D02*
X190450390Y-76540476D01*
X190450390Y-76540476D02*
X190488485Y-76502381D01*
X190488485Y-76502381D02*
X190564676Y-76464285D01*
X190564676Y-76464285D02*
X190678961Y-76464285D01*
X190678961Y-76464285D02*
X190755152Y-76502381D01*
X190755152Y-76502381D02*
X190793247Y-76540476D01*
X190793247Y-76540476D02*
X190831342Y-76616666D01*
X190831342Y-76616666D02*
X190831342Y-76921428D01*
X191212295Y-75702381D02*
X191212295Y-76159524D01*
X191212295Y-75930952D02*
X190412295Y-75930952D01*
X190412295Y-75930952D02*
X190526580Y-76007143D01*
X190526580Y-76007143D02*
X190602771Y-76083333D01*
X190602771Y-76083333D02*
X190640866Y-76159524D01*
X190678961Y-75016666D02*
X191212295Y-75016666D01*
X190374200Y-75207142D02*
X190945628Y-75397619D01*
X190945628Y-75397619D02*
X190945628Y-74902380D01*
X160762295Y-93714285D02*
X160381342Y-93980952D01*
X160762295Y-94171428D02*
X159962295Y-94171428D01*
X159962295Y-94171428D02*
X159962295Y-93866666D01*
X159962295Y-93866666D02*
X160000390Y-93790476D01*
X160000390Y-93790476D02*
X160038485Y-93752381D01*
X160038485Y-93752381D02*
X160114676Y-93714285D01*
X160114676Y-93714285D02*
X160228961Y-93714285D01*
X160228961Y-93714285D02*
X160305152Y-93752381D01*
X160305152Y-93752381D02*
X160343247Y-93790476D01*
X160343247Y-93790476D02*
X160381342Y-93866666D01*
X160381342Y-93866666D02*
X160381342Y-94171428D01*
X160038485Y-93409524D02*
X160000390Y-93371428D01*
X160000390Y-93371428D02*
X159962295Y-93295238D01*
X159962295Y-93295238D02*
X159962295Y-93104762D01*
X159962295Y-93104762D02*
X160000390Y-93028571D01*
X160000390Y-93028571D02*
X160038485Y-92990476D01*
X160038485Y-92990476D02*
X160114676Y-92952381D01*
X160114676Y-92952381D02*
X160190866Y-92952381D01*
X160190866Y-92952381D02*
X160305152Y-92990476D01*
X160305152Y-92990476D02*
X160762295Y-93447619D01*
X160762295Y-93447619D02*
X160762295Y-92952381D01*
X160038485Y-92647619D02*
X160000390Y-92609523D01*
X160000390Y-92609523D02*
X159962295Y-92533333D01*
X159962295Y-92533333D02*
X159962295Y-92342857D01*
X159962295Y-92342857D02*
X160000390Y-92266666D01*
X160000390Y-92266666D02*
X160038485Y-92228571D01*
X160038485Y-92228571D02*
X160114676Y-92190476D01*
X160114676Y-92190476D02*
X160190866Y-92190476D01*
X160190866Y-92190476D02*
X160305152Y-92228571D01*
X160305152Y-92228571D02*
X160762295Y-92685714D01*
X160762295Y-92685714D02*
X160762295Y-92190476D01*
X189585714Y-83162295D02*
X189319047Y-82781342D01*
X189128571Y-83162295D02*
X189128571Y-82362295D01*
X189128571Y-82362295D02*
X189433333Y-82362295D01*
X189433333Y-82362295D02*
X189509523Y-82400390D01*
X189509523Y-82400390D02*
X189547618Y-82438485D01*
X189547618Y-82438485D02*
X189585714Y-82514676D01*
X189585714Y-82514676D02*
X189585714Y-82628961D01*
X189585714Y-82628961D02*
X189547618Y-82705152D01*
X189547618Y-82705152D02*
X189509523Y-82743247D01*
X189509523Y-82743247D02*
X189433333Y-82781342D01*
X189433333Y-82781342D02*
X189128571Y-82781342D01*
X190347618Y-83162295D02*
X189890475Y-83162295D01*
X190119047Y-83162295D02*
X190119047Y-82362295D01*
X190119047Y-82362295D02*
X190042856Y-82476580D01*
X190042856Y-82476580D02*
X189966666Y-82552771D01*
X189966666Y-82552771D02*
X189890475Y-82590866D01*
X190842857Y-82362295D02*
X190919047Y-82362295D01*
X190919047Y-82362295D02*
X190995238Y-82400390D01*
X190995238Y-82400390D02*
X191033333Y-82438485D01*
X191033333Y-82438485D02*
X191071428Y-82514676D01*
X191071428Y-82514676D02*
X191109523Y-82667057D01*
X191109523Y-82667057D02*
X191109523Y-82857533D01*
X191109523Y-82857533D02*
X191071428Y-83009914D01*
X191071428Y-83009914D02*
X191033333Y-83086104D01*
X191033333Y-83086104D02*
X190995238Y-83124200D01*
X190995238Y-83124200D02*
X190919047Y-83162295D01*
X190919047Y-83162295D02*
X190842857Y-83162295D01*
X190842857Y-83162295D02*
X190766666Y-83124200D01*
X190766666Y-83124200D02*
X190728571Y-83086104D01*
X190728571Y-83086104D02*
X190690476Y-83009914D01*
X190690476Y-83009914D02*
X190652380Y-82857533D01*
X190652380Y-82857533D02*
X190652380Y-82667057D01*
X190652380Y-82667057D02*
X190690476Y-82514676D01*
X190690476Y-82514676D02*
X190728571Y-82438485D01*
X190728571Y-82438485D02*
X190766666Y-82400390D01*
X190766666Y-82400390D02*
X190842857Y-82362295D01*
X187866667Y-110987295D02*
X187600000Y-110606342D01*
X187409524Y-110987295D02*
X187409524Y-110187295D01*
X187409524Y-110187295D02*
X187714286Y-110187295D01*
X187714286Y-110187295D02*
X187790476Y-110225390D01*
X187790476Y-110225390D02*
X187828571Y-110263485D01*
X187828571Y-110263485D02*
X187866667Y-110339676D01*
X187866667Y-110339676D02*
X187866667Y-110453961D01*
X187866667Y-110453961D02*
X187828571Y-110530152D01*
X187828571Y-110530152D02*
X187790476Y-110568247D01*
X187790476Y-110568247D02*
X187714286Y-110606342D01*
X187714286Y-110606342D02*
X187409524Y-110606342D01*
X188133333Y-110187295D02*
X188666667Y-110187295D01*
X188666667Y-110187295D02*
X188323809Y-110987295D01*
X120862295Y-77464285D02*
X120481342Y-77730952D01*
X120862295Y-77921428D02*
X120062295Y-77921428D01*
X120062295Y-77921428D02*
X120062295Y-77616666D01*
X120062295Y-77616666D02*
X120100390Y-77540476D01*
X120100390Y-77540476D02*
X120138485Y-77502381D01*
X120138485Y-77502381D02*
X120214676Y-77464285D01*
X120214676Y-77464285D02*
X120328961Y-77464285D01*
X120328961Y-77464285D02*
X120405152Y-77502381D01*
X120405152Y-77502381D02*
X120443247Y-77540476D01*
X120443247Y-77540476D02*
X120481342Y-77616666D01*
X120481342Y-77616666D02*
X120481342Y-77921428D01*
X120328961Y-76778571D02*
X120862295Y-76778571D01*
X120024200Y-76969047D02*
X120595628Y-77159524D01*
X120595628Y-77159524D02*
X120595628Y-76664285D01*
X120862295Y-76321428D02*
X120862295Y-76169047D01*
X120862295Y-76169047D02*
X120824200Y-76092857D01*
X120824200Y-76092857D02*
X120786104Y-76054761D01*
X120786104Y-76054761D02*
X120671819Y-75978571D01*
X120671819Y-75978571D02*
X120519438Y-75940476D01*
X120519438Y-75940476D02*
X120214676Y-75940476D01*
X120214676Y-75940476D02*
X120138485Y-75978571D01*
X120138485Y-75978571D02*
X120100390Y-76016666D01*
X120100390Y-76016666D02*
X120062295Y-76092857D01*
X120062295Y-76092857D02*
X120062295Y-76245238D01*
X120062295Y-76245238D02*
X120100390Y-76321428D01*
X120100390Y-76321428D02*
X120138485Y-76359523D01*
X120138485Y-76359523D02*
X120214676Y-76397619D01*
X120214676Y-76397619D02*
X120405152Y-76397619D01*
X120405152Y-76397619D02*
X120481342Y-76359523D01*
X120481342Y-76359523D02*
X120519438Y-76321428D01*
X120519438Y-76321428D02*
X120557533Y-76245238D01*
X120557533Y-76245238D02*
X120557533Y-76092857D01*
X120557533Y-76092857D02*
X120519438Y-76016666D01*
X120519438Y-76016666D02*
X120481342Y-75978571D01*
X120481342Y-75978571D02*
X120405152Y-75940476D01*
X131686104Y-62914285D02*
X131724200Y-62952381D01*
X131724200Y-62952381D02*
X131762295Y-63066666D01*
X131762295Y-63066666D02*
X131762295Y-63142857D01*
X131762295Y-63142857D02*
X131724200Y-63257143D01*
X131724200Y-63257143D02*
X131648009Y-63333333D01*
X131648009Y-63333333D02*
X131571819Y-63371428D01*
X131571819Y-63371428D02*
X131419438Y-63409524D01*
X131419438Y-63409524D02*
X131305152Y-63409524D01*
X131305152Y-63409524D02*
X131152771Y-63371428D01*
X131152771Y-63371428D02*
X131076580Y-63333333D01*
X131076580Y-63333333D02*
X131000390Y-63257143D01*
X131000390Y-63257143D02*
X130962295Y-63142857D01*
X130962295Y-63142857D02*
X130962295Y-63066666D01*
X130962295Y-63066666D02*
X131000390Y-62952381D01*
X131000390Y-62952381D02*
X131038485Y-62914285D01*
X131762295Y-62152381D02*
X131762295Y-62609524D01*
X131762295Y-62380952D02*
X130962295Y-62380952D01*
X130962295Y-62380952D02*
X131076580Y-62457143D01*
X131076580Y-62457143D02*
X131152771Y-62533333D01*
X131152771Y-62533333D02*
X131190866Y-62609524D01*
X130962295Y-61466666D02*
X130962295Y-61619047D01*
X130962295Y-61619047D02*
X131000390Y-61695238D01*
X131000390Y-61695238D02*
X131038485Y-61733333D01*
X131038485Y-61733333D02*
X131152771Y-61809523D01*
X131152771Y-61809523D02*
X131305152Y-61847619D01*
X131305152Y-61847619D02*
X131609914Y-61847619D01*
X131609914Y-61847619D02*
X131686104Y-61809523D01*
X131686104Y-61809523D02*
X131724200Y-61771428D01*
X131724200Y-61771428D02*
X131762295Y-61695238D01*
X131762295Y-61695238D02*
X131762295Y-61542857D01*
X131762295Y-61542857D02*
X131724200Y-61466666D01*
X131724200Y-61466666D02*
X131686104Y-61428571D01*
X131686104Y-61428571D02*
X131609914Y-61390476D01*
X131609914Y-61390476D02*
X131419438Y-61390476D01*
X131419438Y-61390476D02*
X131343247Y-61428571D01*
X131343247Y-61428571D02*
X131305152Y-61466666D01*
X131305152Y-61466666D02*
X131267057Y-61542857D01*
X131267057Y-61542857D02*
X131267057Y-61695238D01*
X131267057Y-61695238D02*
X131305152Y-61771428D01*
X131305152Y-61771428D02*
X131343247Y-61809523D01*
X131343247Y-61809523D02*
X131419438Y-61847619D01*
X111412295Y-67914285D02*
X111031342Y-68180952D01*
X111412295Y-68371428D02*
X110612295Y-68371428D01*
X110612295Y-68371428D02*
X110612295Y-68066666D01*
X110612295Y-68066666D02*
X110650390Y-67990476D01*
X110650390Y-67990476D02*
X110688485Y-67952381D01*
X110688485Y-67952381D02*
X110764676Y-67914285D01*
X110764676Y-67914285D02*
X110878961Y-67914285D01*
X110878961Y-67914285D02*
X110955152Y-67952381D01*
X110955152Y-67952381D02*
X110993247Y-67990476D01*
X110993247Y-67990476D02*
X111031342Y-68066666D01*
X111031342Y-68066666D02*
X111031342Y-68371428D01*
X110612295Y-67190476D02*
X110612295Y-67571428D01*
X110612295Y-67571428D02*
X110993247Y-67609524D01*
X110993247Y-67609524D02*
X110955152Y-67571428D01*
X110955152Y-67571428D02*
X110917057Y-67495238D01*
X110917057Y-67495238D02*
X110917057Y-67304762D01*
X110917057Y-67304762D02*
X110955152Y-67228571D01*
X110955152Y-67228571D02*
X110993247Y-67190476D01*
X110993247Y-67190476D02*
X111069438Y-67152381D01*
X111069438Y-67152381D02*
X111259914Y-67152381D01*
X111259914Y-67152381D02*
X111336104Y-67190476D01*
X111336104Y-67190476D02*
X111374200Y-67228571D01*
X111374200Y-67228571D02*
X111412295Y-67304762D01*
X111412295Y-67304762D02*
X111412295Y-67495238D01*
X111412295Y-67495238D02*
X111374200Y-67571428D01*
X111374200Y-67571428D02*
X111336104Y-67609524D01*
X110955152Y-66695238D02*
X110917057Y-66771428D01*
X110917057Y-66771428D02*
X110878961Y-66809523D01*
X110878961Y-66809523D02*
X110802771Y-66847619D01*
X110802771Y-66847619D02*
X110764676Y-66847619D01*
X110764676Y-66847619D02*
X110688485Y-66809523D01*
X110688485Y-66809523D02*
X110650390Y-66771428D01*
X110650390Y-66771428D02*
X110612295Y-66695238D01*
X110612295Y-66695238D02*
X110612295Y-66542857D01*
X110612295Y-66542857D02*
X110650390Y-66466666D01*
X110650390Y-66466666D02*
X110688485Y-66428571D01*
X110688485Y-66428571D02*
X110764676Y-66390476D01*
X110764676Y-66390476D02*
X110802771Y-66390476D01*
X110802771Y-66390476D02*
X110878961Y-66428571D01*
X110878961Y-66428571D02*
X110917057Y-66466666D01*
X110917057Y-66466666D02*
X110955152Y-66542857D01*
X110955152Y-66542857D02*
X110955152Y-66695238D01*
X110955152Y-66695238D02*
X110993247Y-66771428D01*
X110993247Y-66771428D02*
X111031342Y-66809523D01*
X111031342Y-66809523D02*
X111107533Y-66847619D01*
X111107533Y-66847619D02*
X111259914Y-66847619D01*
X111259914Y-66847619D02*
X111336104Y-66809523D01*
X111336104Y-66809523D02*
X111374200Y-66771428D01*
X111374200Y-66771428D02*
X111412295Y-66695238D01*
X111412295Y-66695238D02*
X111412295Y-66542857D01*
X111412295Y-66542857D02*
X111374200Y-66466666D01*
X111374200Y-66466666D02*
X111336104Y-66428571D01*
X111336104Y-66428571D02*
X111259914Y-66390476D01*
X111259914Y-66390476D02*
X111107533Y-66390476D01*
X111107533Y-66390476D02*
X111031342Y-66428571D01*
X111031342Y-66428571D02*
X110993247Y-66466666D01*
X110993247Y-66466666D02*
X110955152Y-66542857D01*
X179862295Y-94183332D02*
X179481342Y-94449999D01*
X179862295Y-94640475D02*
X179062295Y-94640475D01*
X179062295Y-94640475D02*
X179062295Y-94335713D01*
X179062295Y-94335713D02*
X179100390Y-94259523D01*
X179100390Y-94259523D02*
X179138485Y-94221428D01*
X179138485Y-94221428D02*
X179214676Y-94183332D01*
X179214676Y-94183332D02*
X179328961Y-94183332D01*
X179328961Y-94183332D02*
X179405152Y-94221428D01*
X179405152Y-94221428D02*
X179443247Y-94259523D01*
X179443247Y-94259523D02*
X179481342Y-94335713D01*
X179481342Y-94335713D02*
X179481342Y-94640475D01*
X179062295Y-93459523D02*
X179062295Y-93840475D01*
X179062295Y-93840475D02*
X179443247Y-93878571D01*
X179443247Y-93878571D02*
X179405152Y-93840475D01*
X179405152Y-93840475D02*
X179367057Y-93764285D01*
X179367057Y-93764285D02*
X179367057Y-93573809D01*
X179367057Y-93573809D02*
X179405152Y-93497618D01*
X179405152Y-93497618D02*
X179443247Y-93459523D01*
X179443247Y-93459523D02*
X179519438Y-93421428D01*
X179519438Y-93421428D02*
X179709914Y-93421428D01*
X179709914Y-93421428D02*
X179786104Y-93459523D01*
X179786104Y-93459523D02*
X179824200Y-93497618D01*
X179824200Y-93497618D02*
X179862295Y-93573809D01*
X179862295Y-93573809D02*
X179862295Y-93764285D01*
X179862295Y-93764285D02*
X179824200Y-93840475D01*
X179824200Y-93840475D02*
X179786104Y-93878571D01*
X157486104Y-88333332D02*
X157524200Y-88371428D01*
X157524200Y-88371428D02*
X157562295Y-88485713D01*
X157562295Y-88485713D02*
X157562295Y-88561904D01*
X157562295Y-88561904D02*
X157524200Y-88676190D01*
X157524200Y-88676190D02*
X157448009Y-88752380D01*
X157448009Y-88752380D02*
X157371819Y-88790475D01*
X157371819Y-88790475D02*
X157219438Y-88828571D01*
X157219438Y-88828571D02*
X157105152Y-88828571D01*
X157105152Y-88828571D02*
X156952771Y-88790475D01*
X156952771Y-88790475D02*
X156876580Y-88752380D01*
X156876580Y-88752380D02*
X156800390Y-88676190D01*
X156800390Y-88676190D02*
X156762295Y-88561904D01*
X156762295Y-88561904D02*
X156762295Y-88485713D01*
X156762295Y-88485713D02*
X156800390Y-88371428D01*
X156800390Y-88371428D02*
X156838485Y-88333332D01*
X156762295Y-88066666D02*
X156762295Y-87533332D01*
X156762295Y-87533332D02*
X157562295Y-87876190D01*
X175985714Y-83362295D02*
X175719047Y-82981342D01*
X175528571Y-83362295D02*
X175528571Y-82562295D01*
X175528571Y-82562295D02*
X175833333Y-82562295D01*
X175833333Y-82562295D02*
X175909523Y-82600390D01*
X175909523Y-82600390D02*
X175947618Y-82638485D01*
X175947618Y-82638485D02*
X175985714Y-82714676D01*
X175985714Y-82714676D02*
X175985714Y-82828961D01*
X175985714Y-82828961D02*
X175947618Y-82905152D01*
X175947618Y-82905152D02*
X175909523Y-82943247D01*
X175909523Y-82943247D02*
X175833333Y-82981342D01*
X175833333Y-82981342D02*
X175528571Y-82981342D01*
X176747618Y-83362295D02*
X176290475Y-83362295D01*
X176519047Y-83362295D02*
X176519047Y-82562295D01*
X176519047Y-82562295D02*
X176442856Y-82676580D01*
X176442856Y-82676580D02*
X176366666Y-82752771D01*
X176366666Y-82752771D02*
X176290475Y-82790866D01*
X177014285Y-82562295D02*
X177547619Y-82562295D01*
X177547619Y-82562295D02*
X177204761Y-83362295D01*
X158886104Y-75933332D02*
X158924200Y-75971428D01*
X158924200Y-75971428D02*
X158962295Y-76085713D01*
X158962295Y-76085713D02*
X158962295Y-76161904D01*
X158962295Y-76161904D02*
X158924200Y-76276190D01*
X158924200Y-76276190D02*
X158848009Y-76352380D01*
X158848009Y-76352380D02*
X158771819Y-76390475D01*
X158771819Y-76390475D02*
X158619438Y-76428571D01*
X158619438Y-76428571D02*
X158505152Y-76428571D01*
X158505152Y-76428571D02*
X158352771Y-76390475D01*
X158352771Y-76390475D02*
X158276580Y-76352380D01*
X158276580Y-76352380D02*
X158200390Y-76276190D01*
X158200390Y-76276190D02*
X158162295Y-76161904D01*
X158162295Y-76161904D02*
X158162295Y-76085713D01*
X158162295Y-76085713D02*
X158200390Y-75971428D01*
X158200390Y-75971428D02*
X158238485Y-75933332D01*
X158962295Y-75552380D02*
X158962295Y-75399999D01*
X158962295Y-75399999D02*
X158924200Y-75323809D01*
X158924200Y-75323809D02*
X158886104Y-75285713D01*
X158886104Y-75285713D02*
X158771819Y-75209523D01*
X158771819Y-75209523D02*
X158619438Y-75171428D01*
X158619438Y-75171428D02*
X158314676Y-75171428D01*
X158314676Y-75171428D02*
X158238485Y-75209523D01*
X158238485Y-75209523D02*
X158200390Y-75247618D01*
X158200390Y-75247618D02*
X158162295Y-75323809D01*
X158162295Y-75323809D02*
X158162295Y-75476190D01*
X158162295Y-75476190D02*
X158200390Y-75552380D01*
X158200390Y-75552380D02*
X158238485Y-75590475D01*
X158238485Y-75590475D02*
X158314676Y-75628571D01*
X158314676Y-75628571D02*
X158505152Y-75628571D01*
X158505152Y-75628571D02*
X158581342Y-75590475D01*
X158581342Y-75590475D02*
X158619438Y-75552380D01*
X158619438Y-75552380D02*
X158657533Y-75476190D01*
X158657533Y-75476190D02*
X158657533Y-75323809D01*
X158657533Y-75323809D02*
X158619438Y-75247618D01*
X158619438Y-75247618D02*
X158581342Y-75209523D01*
X158581342Y-75209523D02*
X158505152Y-75171428D01*
X183367295Y-111740475D02*
X182567295Y-111740475D01*
X182567295Y-111740475D02*
X182567295Y-111549999D01*
X182567295Y-111549999D02*
X182605390Y-111435713D01*
X182605390Y-111435713D02*
X182681580Y-111359523D01*
X182681580Y-111359523D02*
X182757771Y-111321428D01*
X182757771Y-111321428D02*
X182910152Y-111283332D01*
X182910152Y-111283332D02*
X183024438Y-111283332D01*
X183024438Y-111283332D02*
X183176819Y-111321428D01*
X183176819Y-111321428D02*
X183253009Y-111359523D01*
X183253009Y-111359523D02*
X183329200Y-111435713D01*
X183329200Y-111435713D02*
X183367295Y-111549999D01*
X183367295Y-111549999D02*
X183367295Y-111740475D01*
X183367295Y-110521428D02*
X183367295Y-110978571D01*
X183367295Y-110749999D02*
X182567295Y-110749999D01*
X182567295Y-110749999D02*
X182681580Y-110826190D01*
X182681580Y-110826190D02*
X182757771Y-110902380D01*
X182757771Y-110902380D02*
X182795866Y-110978571D01*
X122862295Y-77614285D02*
X122481342Y-77880952D01*
X122862295Y-78071428D02*
X122062295Y-78071428D01*
X122062295Y-78071428D02*
X122062295Y-77766666D01*
X122062295Y-77766666D02*
X122100390Y-77690476D01*
X122100390Y-77690476D02*
X122138485Y-77652381D01*
X122138485Y-77652381D02*
X122214676Y-77614285D01*
X122214676Y-77614285D02*
X122328961Y-77614285D01*
X122328961Y-77614285D02*
X122405152Y-77652381D01*
X122405152Y-77652381D02*
X122443247Y-77690476D01*
X122443247Y-77690476D02*
X122481342Y-77766666D01*
X122481342Y-77766666D02*
X122481342Y-78071428D01*
X122062295Y-76890476D02*
X122062295Y-77271428D01*
X122062295Y-77271428D02*
X122443247Y-77309524D01*
X122443247Y-77309524D02*
X122405152Y-77271428D01*
X122405152Y-77271428D02*
X122367057Y-77195238D01*
X122367057Y-77195238D02*
X122367057Y-77004762D01*
X122367057Y-77004762D02*
X122405152Y-76928571D01*
X122405152Y-76928571D02*
X122443247Y-76890476D01*
X122443247Y-76890476D02*
X122519438Y-76852381D01*
X122519438Y-76852381D02*
X122709914Y-76852381D01*
X122709914Y-76852381D02*
X122786104Y-76890476D01*
X122786104Y-76890476D02*
X122824200Y-76928571D01*
X122824200Y-76928571D02*
X122862295Y-77004762D01*
X122862295Y-77004762D02*
X122862295Y-77195238D01*
X122862295Y-77195238D02*
X122824200Y-77271428D01*
X122824200Y-77271428D02*
X122786104Y-77309524D01*
X122328961Y-76166666D02*
X122862295Y-76166666D01*
X122024200Y-76357142D02*
X122595628Y-76547619D01*
X122595628Y-76547619D02*
X122595628Y-76052380D01*
X103390476Y-50162295D02*
X103390476Y-49362295D01*
X103390476Y-49743247D02*
X103847619Y-49743247D01*
X103847619Y-50162295D02*
X103847619Y-49362295D01*
X104647618Y-50162295D02*
X104190475Y-50162295D01*
X104419047Y-50162295D02*
X104419047Y-49362295D01*
X104419047Y-49362295D02*
X104342856Y-49476580D01*
X104342856Y-49476580D02*
X104266666Y-49552771D01*
X104266666Y-49552771D02*
X104190475Y-49590866D01*
X126562295Y-76640475D02*
X125762295Y-76640475D01*
X125762295Y-76640475D02*
X125762295Y-76449999D01*
X125762295Y-76449999D02*
X125800390Y-76335713D01*
X125800390Y-76335713D02*
X125876580Y-76259523D01*
X125876580Y-76259523D02*
X125952771Y-76221428D01*
X125952771Y-76221428D02*
X126105152Y-76183332D01*
X126105152Y-76183332D02*
X126219438Y-76183332D01*
X126219438Y-76183332D02*
X126371819Y-76221428D01*
X126371819Y-76221428D02*
X126448009Y-76259523D01*
X126448009Y-76259523D02*
X126524200Y-76335713D01*
X126524200Y-76335713D02*
X126562295Y-76449999D01*
X126562295Y-76449999D02*
X126562295Y-76640475D01*
X125762295Y-75916666D02*
X125762295Y-75383332D01*
X125762295Y-75383332D02*
X126562295Y-75726190D01*
X194392976Y-111312295D02*
X194392976Y-111959914D01*
X194392976Y-111959914D02*
X194431071Y-112036104D01*
X194431071Y-112036104D02*
X194469166Y-112074200D01*
X194469166Y-112074200D02*
X194545357Y-112112295D01*
X194545357Y-112112295D02*
X194697738Y-112112295D01*
X194697738Y-112112295D02*
X194773928Y-112074200D01*
X194773928Y-112074200D02*
X194812023Y-112036104D01*
X194812023Y-112036104D02*
X194850119Y-111959914D01*
X194850119Y-111959914D02*
X194850119Y-111312295D01*
X195573928Y-111578961D02*
X195573928Y-112112295D01*
X195383452Y-111274200D02*
X195192975Y-111845628D01*
X195192975Y-111845628D02*
X195688214Y-111845628D01*
D13*
X117103333Y-63254895D02*
X117103333Y-63826323D01*
X117103333Y-63826323D02*
X117065238Y-63940609D01*
X117065238Y-63940609D02*
X116989047Y-64016800D01*
X116989047Y-64016800D02*
X116874762Y-64054895D01*
X116874762Y-64054895D02*
X116798571Y-64054895D01*
X117865238Y-63254895D02*
X117484286Y-63254895D01*
X117484286Y-63254895D02*
X117446190Y-63635847D01*
X117446190Y-63635847D02*
X117484286Y-63597752D01*
X117484286Y-63597752D02*
X117560476Y-63559657D01*
X117560476Y-63559657D02*
X117750952Y-63559657D01*
X117750952Y-63559657D02*
X117827143Y-63597752D01*
X117827143Y-63597752D02*
X117865238Y-63635847D01*
X117865238Y-63635847D02*
X117903333Y-63712038D01*
X117903333Y-63712038D02*
X117903333Y-63902514D01*
X117903333Y-63902514D02*
X117865238Y-63978704D01*
X117865238Y-63978704D02*
X117827143Y-64016800D01*
X117827143Y-64016800D02*
X117750952Y-64054895D01*
X117750952Y-64054895D02*
X117560476Y-64054895D01*
X117560476Y-64054895D02*
X117484286Y-64016800D01*
X117484286Y-64016800D02*
X117446190Y-63978704D01*
D12*
X193212295Y-79933332D02*
X192831342Y-80199999D01*
X193212295Y-80390475D02*
X192412295Y-80390475D01*
X192412295Y-80390475D02*
X192412295Y-80085713D01*
X192412295Y-80085713D02*
X192450390Y-80009523D01*
X192450390Y-80009523D02*
X192488485Y-79971428D01*
X192488485Y-79971428D02*
X192564676Y-79933332D01*
X192564676Y-79933332D02*
X192678961Y-79933332D01*
X192678961Y-79933332D02*
X192755152Y-79971428D01*
X192755152Y-79971428D02*
X192793247Y-80009523D01*
X192793247Y-80009523D02*
X192831342Y-80085713D01*
X192831342Y-80085713D02*
X192831342Y-80390475D01*
X193212295Y-79552380D02*
X193212295Y-79399999D01*
X193212295Y-79399999D02*
X193174200Y-79323809D01*
X193174200Y-79323809D02*
X193136104Y-79285713D01*
X193136104Y-79285713D02*
X193021819Y-79209523D01*
X193021819Y-79209523D02*
X192869438Y-79171428D01*
X192869438Y-79171428D02*
X192564676Y-79171428D01*
X192564676Y-79171428D02*
X192488485Y-79209523D01*
X192488485Y-79209523D02*
X192450390Y-79247618D01*
X192450390Y-79247618D02*
X192412295Y-79323809D01*
X192412295Y-79323809D02*
X192412295Y-79476190D01*
X192412295Y-79476190D02*
X192450390Y-79552380D01*
X192450390Y-79552380D02*
X192488485Y-79590475D01*
X192488485Y-79590475D02*
X192564676Y-79628571D01*
X192564676Y-79628571D02*
X192755152Y-79628571D01*
X192755152Y-79628571D02*
X192831342Y-79590475D01*
X192831342Y-79590475D02*
X192869438Y-79552380D01*
X192869438Y-79552380D02*
X192907533Y-79476190D01*
X192907533Y-79476190D02*
X192907533Y-79323809D01*
X192907533Y-79323809D02*
X192869438Y-79247618D01*
X192869438Y-79247618D02*
X192831342Y-79209523D01*
X192831342Y-79209523D02*
X192755152Y-79171428D01*
X117535714Y-79612295D02*
X117269047Y-79231342D01*
X117078571Y-79612295D02*
X117078571Y-78812295D01*
X117078571Y-78812295D02*
X117383333Y-78812295D01*
X117383333Y-78812295D02*
X117459523Y-78850390D01*
X117459523Y-78850390D02*
X117497618Y-78888485D01*
X117497618Y-78888485D02*
X117535714Y-78964676D01*
X117535714Y-78964676D02*
X117535714Y-79078961D01*
X117535714Y-79078961D02*
X117497618Y-79155152D01*
X117497618Y-79155152D02*
X117459523Y-79193247D01*
X117459523Y-79193247D02*
X117383333Y-79231342D01*
X117383333Y-79231342D02*
X117078571Y-79231342D01*
X118259523Y-78812295D02*
X117878571Y-78812295D01*
X117878571Y-78812295D02*
X117840475Y-79193247D01*
X117840475Y-79193247D02*
X117878571Y-79155152D01*
X117878571Y-79155152D02*
X117954761Y-79117057D01*
X117954761Y-79117057D02*
X118145237Y-79117057D01*
X118145237Y-79117057D02*
X118221428Y-79155152D01*
X118221428Y-79155152D02*
X118259523Y-79193247D01*
X118259523Y-79193247D02*
X118297618Y-79269438D01*
X118297618Y-79269438D02*
X118297618Y-79459914D01*
X118297618Y-79459914D02*
X118259523Y-79536104D01*
X118259523Y-79536104D02*
X118221428Y-79574200D01*
X118221428Y-79574200D02*
X118145237Y-79612295D01*
X118145237Y-79612295D02*
X117954761Y-79612295D01*
X117954761Y-79612295D02*
X117878571Y-79574200D01*
X117878571Y-79574200D02*
X117840475Y-79536104D01*
X118792857Y-78812295D02*
X118869047Y-78812295D01*
X118869047Y-78812295D02*
X118945238Y-78850390D01*
X118945238Y-78850390D02*
X118983333Y-78888485D01*
X118983333Y-78888485D02*
X119021428Y-78964676D01*
X119021428Y-78964676D02*
X119059523Y-79117057D01*
X119059523Y-79117057D02*
X119059523Y-79307533D01*
X119059523Y-79307533D02*
X119021428Y-79459914D01*
X119021428Y-79459914D02*
X118983333Y-79536104D01*
X118983333Y-79536104D02*
X118945238Y-79574200D01*
X118945238Y-79574200D02*
X118869047Y-79612295D01*
X118869047Y-79612295D02*
X118792857Y-79612295D01*
X118792857Y-79612295D02*
X118716666Y-79574200D01*
X118716666Y-79574200D02*
X118678571Y-79536104D01*
X118678571Y-79536104D02*
X118640476Y-79459914D01*
X118640476Y-79459914D02*
X118602380Y-79307533D01*
X118602380Y-79307533D02*
X118602380Y-79117057D01*
X118602380Y-79117057D02*
X118640476Y-78964676D01*
X118640476Y-78964676D02*
X118678571Y-78888485D01*
X118678571Y-78888485D02*
X118716666Y-78850390D01*
X118716666Y-78850390D02*
X118792857Y-78812295D01*
X181690476Y-78962295D02*
X181690476Y-79609914D01*
X181690476Y-79609914D02*
X181728571Y-79686104D01*
X181728571Y-79686104D02*
X181766666Y-79724200D01*
X181766666Y-79724200D02*
X181842857Y-79762295D01*
X181842857Y-79762295D02*
X181995238Y-79762295D01*
X181995238Y-79762295D02*
X182071428Y-79724200D01*
X182071428Y-79724200D02*
X182109523Y-79686104D01*
X182109523Y-79686104D02*
X182147619Y-79609914D01*
X182147619Y-79609914D02*
X182147619Y-78962295D01*
X182909523Y-78962295D02*
X182528571Y-78962295D01*
X182528571Y-78962295D02*
X182490475Y-79343247D01*
X182490475Y-79343247D02*
X182528571Y-79305152D01*
X182528571Y-79305152D02*
X182604761Y-79267057D01*
X182604761Y-79267057D02*
X182795237Y-79267057D01*
X182795237Y-79267057D02*
X182871428Y-79305152D01*
X182871428Y-79305152D02*
X182909523Y-79343247D01*
X182909523Y-79343247D02*
X182947618Y-79419438D01*
X182947618Y-79419438D02*
X182947618Y-79609914D01*
X182947618Y-79609914D02*
X182909523Y-79686104D01*
X182909523Y-79686104D02*
X182871428Y-79724200D01*
X182871428Y-79724200D02*
X182795237Y-79762295D01*
X182795237Y-79762295D02*
X182604761Y-79762295D01*
X182604761Y-79762295D02*
X182528571Y-79724200D01*
X182528571Y-79724200D02*
X182490475Y-79686104D01*
X190962295Y-107758332D02*
X190581342Y-108024999D01*
X190962295Y-108215475D02*
X190162295Y-108215475D01*
X190162295Y-108215475D02*
X190162295Y-107910713D01*
X190162295Y-107910713D02*
X190200390Y-107834523D01*
X190200390Y-107834523D02*
X190238485Y-107796428D01*
X190238485Y-107796428D02*
X190314676Y-107758332D01*
X190314676Y-107758332D02*
X190428961Y-107758332D01*
X190428961Y-107758332D02*
X190505152Y-107796428D01*
X190505152Y-107796428D02*
X190543247Y-107834523D01*
X190543247Y-107834523D02*
X190581342Y-107910713D01*
X190581342Y-107910713D02*
X190581342Y-108215475D01*
X190162295Y-107072618D02*
X190162295Y-107224999D01*
X190162295Y-107224999D02*
X190200390Y-107301190D01*
X190200390Y-107301190D02*
X190238485Y-107339285D01*
X190238485Y-107339285D02*
X190352771Y-107415475D01*
X190352771Y-107415475D02*
X190505152Y-107453571D01*
X190505152Y-107453571D02*
X190809914Y-107453571D01*
X190809914Y-107453571D02*
X190886104Y-107415475D01*
X190886104Y-107415475D02*
X190924200Y-107377380D01*
X190924200Y-107377380D02*
X190962295Y-107301190D01*
X190962295Y-107301190D02*
X190962295Y-107148809D01*
X190962295Y-107148809D02*
X190924200Y-107072618D01*
X190924200Y-107072618D02*
X190886104Y-107034523D01*
X190886104Y-107034523D02*
X190809914Y-106996428D01*
X190809914Y-106996428D02*
X190619438Y-106996428D01*
X190619438Y-106996428D02*
X190543247Y-107034523D01*
X190543247Y-107034523D02*
X190505152Y-107072618D01*
X190505152Y-107072618D02*
X190467057Y-107148809D01*
X190467057Y-107148809D02*
X190467057Y-107301190D01*
X190467057Y-107301190D02*
X190505152Y-107377380D01*
X190505152Y-107377380D02*
X190543247Y-107415475D01*
X190543247Y-107415475D02*
X190619438Y-107453571D01*
X114062295Y-88990475D02*
X114709914Y-88990475D01*
X114709914Y-88990475D02*
X114786104Y-88952380D01*
X114786104Y-88952380D02*
X114824200Y-88914285D01*
X114824200Y-88914285D02*
X114862295Y-88838094D01*
X114862295Y-88838094D02*
X114862295Y-88685713D01*
X114862295Y-88685713D02*
X114824200Y-88609523D01*
X114824200Y-88609523D02*
X114786104Y-88571428D01*
X114786104Y-88571428D02*
X114709914Y-88533332D01*
X114709914Y-88533332D02*
X114062295Y-88533332D01*
X114862295Y-87733333D02*
X114862295Y-88190476D01*
X114862295Y-87961904D02*
X114062295Y-87961904D01*
X114062295Y-87961904D02*
X114176580Y-88038095D01*
X114176580Y-88038095D02*
X114252771Y-88114285D01*
X114252771Y-88114285D02*
X114290866Y-88190476D01*
X114062295Y-87047618D02*
X114062295Y-87199999D01*
X114062295Y-87199999D02*
X114100390Y-87276190D01*
X114100390Y-87276190D02*
X114138485Y-87314285D01*
X114138485Y-87314285D02*
X114252771Y-87390475D01*
X114252771Y-87390475D02*
X114405152Y-87428571D01*
X114405152Y-87428571D02*
X114709914Y-87428571D01*
X114709914Y-87428571D02*
X114786104Y-87390475D01*
X114786104Y-87390475D02*
X114824200Y-87352380D01*
X114824200Y-87352380D02*
X114862295Y-87276190D01*
X114862295Y-87276190D02*
X114862295Y-87123809D01*
X114862295Y-87123809D02*
X114824200Y-87047618D01*
X114824200Y-87047618D02*
X114786104Y-87009523D01*
X114786104Y-87009523D02*
X114709914Y-86971428D01*
X114709914Y-86971428D02*
X114519438Y-86971428D01*
X114519438Y-86971428D02*
X114443247Y-87009523D01*
X114443247Y-87009523D02*
X114405152Y-87047618D01*
X114405152Y-87047618D02*
X114367057Y-87123809D01*
X114367057Y-87123809D02*
X114367057Y-87276190D01*
X114367057Y-87276190D02*
X114405152Y-87352380D01*
X114405152Y-87352380D02*
X114443247Y-87390475D01*
X114443247Y-87390475D02*
X114519438Y-87428571D01*
X167012295Y-74464285D02*
X166631342Y-74730952D01*
X167012295Y-74921428D02*
X166212295Y-74921428D01*
X166212295Y-74921428D02*
X166212295Y-74616666D01*
X166212295Y-74616666D02*
X166250390Y-74540476D01*
X166250390Y-74540476D02*
X166288485Y-74502381D01*
X166288485Y-74502381D02*
X166364676Y-74464285D01*
X166364676Y-74464285D02*
X166478961Y-74464285D01*
X166478961Y-74464285D02*
X166555152Y-74502381D01*
X166555152Y-74502381D02*
X166593247Y-74540476D01*
X166593247Y-74540476D02*
X166631342Y-74616666D01*
X166631342Y-74616666D02*
X166631342Y-74921428D01*
X166288485Y-74159524D02*
X166250390Y-74121428D01*
X166250390Y-74121428D02*
X166212295Y-74045238D01*
X166212295Y-74045238D02*
X166212295Y-73854762D01*
X166212295Y-73854762D02*
X166250390Y-73778571D01*
X166250390Y-73778571D02*
X166288485Y-73740476D01*
X166288485Y-73740476D02*
X166364676Y-73702381D01*
X166364676Y-73702381D02*
X166440866Y-73702381D01*
X166440866Y-73702381D02*
X166555152Y-73740476D01*
X166555152Y-73740476D02*
X167012295Y-74197619D01*
X167012295Y-74197619D02*
X167012295Y-73702381D01*
X166555152Y-73245238D02*
X166517057Y-73321428D01*
X166517057Y-73321428D02*
X166478961Y-73359523D01*
X166478961Y-73359523D02*
X166402771Y-73397619D01*
X166402771Y-73397619D02*
X166364676Y-73397619D01*
X166364676Y-73397619D02*
X166288485Y-73359523D01*
X166288485Y-73359523D02*
X166250390Y-73321428D01*
X166250390Y-73321428D02*
X166212295Y-73245238D01*
X166212295Y-73245238D02*
X166212295Y-73092857D01*
X166212295Y-73092857D02*
X166250390Y-73016666D01*
X166250390Y-73016666D02*
X166288485Y-72978571D01*
X166288485Y-72978571D02*
X166364676Y-72940476D01*
X166364676Y-72940476D02*
X166402771Y-72940476D01*
X166402771Y-72940476D02*
X166478961Y-72978571D01*
X166478961Y-72978571D02*
X166517057Y-73016666D01*
X166517057Y-73016666D02*
X166555152Y-73092857D01*
X166555152Y-73092857D02*
X166555152Y-73245238D01*
X166555152Y-73245238D02*
X166593247Y-73321428D01*
X166593247Y-73321428D02*
X166631342Y-73359523D01*
X166631342Y-73359523D02*
X166707533Y-73397619D01*
X166707533Y-73397619D02*
X166859914Y-73397619D01*
X166859914Y-73397619D02*
X166936104Y-73359523D01*
X166936104Y-73359523D02*
X166974200Y-73321428D01*
X166974200Y-73321428D02*
X167012295Y-73245238D01*
X167012295Y-73245238D02*
X167012295Y-73092857D01*
X167012295Y-73092857D02*
X166974200Y-73016666D01*
X166974200Y-73016666D02*
X166936104Y-72978571D01*
X166936104Y-72978571D02*
X166859914Y-72940476D01*
X166859914Y-72940476D02*
X166707533Y-72940476D01*
X166707533Y-72940476D02*
X166631342Y-72978571D01*
X166631342Y-72978571D02*
X166593247Y-73016666D01*
X166593247Y-73016666D02*
X166555152Y-73092857D01*
X187327295Y-104414285D02*
X186946342Y-104680952D01*
X187327295Y-104871428D02*
X186527295Y-104871428D01*
X186527295Y-104871428D02*
X186527295Y-104566666D01*
X186527295Y-104566666D02*
X186565390Y-104490476D01*
X186565390Y-104490476D02*
X186603485Y-104452381D01*
X186603485Y-104452381D02*
X186679676Y-104414285D01*
X186679676Y-104414285D02*
X186793961Y-104414285D01*
X186793961Y-104414285D02*
X186870152Y-104452381D01*
X186870152Y-104452381D02*
X186908247Y-104490476D01*
X186908247Y-104490476D02*
X186946342Y-104566666D01*
X186946342Y-104566666D02*
X186946342Y-104871428D01*
X187327295Y-103652381D02*
X187327295Y-104109524D01*
X187327295Y-103880952D02*
X186527295Y-103880952D01*
X186527295Y-103880952D02*
X186641580Y-103957143D01*
X186641580Y-103957143D02*
X186717771Y-104033333D01*
X186717771Y-104033333D02*
X186755866Y-104109524D01*
X186527295Y-103385714D02*
X186527295Y-102890476D01*
X186527295Y-102890476D02*
X186832057Y-103157142D01*
X186832057Y-103157142D02*
X186832057Y-103042857D01*
X186832057Y-103042857D02*
X186870152Y-102966666D01*
X186870152Y-102966666D02*
X186908247Y-102928571D01*
X186908247Y-102928571D02*
X186984438Y-102890476D01*
X186984438Y-102890476D02*
X187174914Y-102890476D01*
X187174914Y-102890476D02*
X187251104Y-102928571D01*
X187251104Y-102928571D02*
X187289200Y-102966666D01*
X187289200Y-102966666D02*
X187327295Y-103042857D01*
X187327295Y-103042857D02*
X187327295Y-103271428D01*
X187327295Y-103271428D02*
X187289200Y-103347619D01*
X187289200Y-103347619D02*
X187251104Y-103385714D01*
X124812295Y-67864285D02*
X124431342Y-68130952D01*
X124812295Y-68321428D02*
X124012295Y-68321428D01*
X124012295Y-68321428D02*
X124012295Y-68016666D01*
X124012295Y-68016666D02*
X124050390Y-67940476D01*
X124050390Y-67940476D02*
X124088485Y-67902381D01*
X124088485Y-67902381D02*
X124164676Y-67864285D01*
X124164676Y-67864285D02*
X124278961Y-67864285D01*
X124278961Y-67864285D02*
X124355152Y-67902381D01*
X124355152Y-67902381D02*
X124393247Y-67940476D01*
X124393247Y-67940476D02*
X124431342Y-68016666D01*
X124431342Y-68016666D02*
X124431342Y-68321428D01*
X124012295Y-67178571D02*
X124012295Y-67330952D01*
X124012295Y-67330952D02*
X124050390Y-67407143D01*
X124050390Y-67407143D02*
X124088485Y-67445238D01*
X124088485Y-67445238D02*
X124202771Y-67521428D01*
X124202771Y-67521428D02*
X124355152Y-67559524D01*
X124355152Y-67559524D02*
X124659914Y-67559524D01*
X124659914Y-67559524D02*
X124736104Y-67521428D01*
X124736104Y-67521428D02*
X124774200Y-67483333D01*
X124774200Y-67483333D02*
X124812295Y-67407143D01*
X124812295Y-67407143D02*
X124812295Y-67254762D01*
X124812295Y-67254762D02*
X124774200Y-67178571D01*
X124774200Y-67178571D02*
X124736104Y-67140476D01*
X124736104Y-67140476D02*
X124659914Y-67102381D01*
X124659914Y-67102381D02*
X124469438Y-67102381D01*
X124469438Y-67102381D02*
X124393247Y-67140476D01*
X124393247Y-67140476D02*
X124355152Y-67178571D01*
X124355152Y-67178571D02*
X124317057Y-67254762D01*
X124317057Y-67254762D02*
X124317057Y-67407143D01*
X124317057Y-67407143D02*
X124355152Y-67483333D01*
X124355152Y-67483333D02*
X124393247Y-67521428D01*
X124393247Y-67521428D02*
X124469438Y-67559524D01*
X124088485Y-66797619D02*
X124050390Y-66759523D01*
X124050390Y-66759523D02*
X124012295Y-66683333D01*
X124012295Y-66683333D02*
X124012295Y-66492857D01*
X124012295Y-66492857D02*
X124050390Y-66416666D01*
X124050390Y-66416666D02*
X124088485Y-66378571D01*
X124088485Y-66378571D02*
X124164676Y-66340476D01*
X124164676Y-66340476D02*
X124240866Y-66340476D01*
X124240866Y-66340476D02*
X124355152Y-66378571D01*
X124355152Y-66378571D02*
X124812295Y-66835714D01*
X124812295Y-66835714D02*
X124812295Y-66340476D01*
X129542295Y-59764285D02*
X129161342Y-60030952D01*
X129542295Y-60221428D02*
X128742295Y-60221428D01*
X128742295Y-60221428D02*
X128742295Y-59916666D01*
X128742295Y-59916666D02*
X128780390Y-59840476D01*
X128780390Y-59840476D02*
X128818485Y-59802381D01*
X128818485Y-59802381D02*
X128894676Y-59764285D01*
X128894676Y-59764285D02*
X129008961Y-59764285D01*
X129008961Y-59764285D02*
X129085152Y-59802381D01*
X129085152Y-59802381D02*
X129123247Y-59840476D01*
X129123247Y-59840476D02*
X129161342Y-59916666D01*
X129161342Y-59916666D02*
X129161342Y-60221428D01*
X128742295Y-59078571D02*
X128742295Y-59230952D01*
X128742295Y-59230952D02*
X128780390Y-59307143D01*
X128780390Y-59307143D02*
X128818485Y-59345238D01*
X128818485Y-59345238D02*
X128932771Y-59421428D01*
X128932771Y-59421428D02*
X129085152Y-59459524D01*
X129085152Y-59459524D02*
X129389914Y-59459524D01*
X129389914Y-59459524D02*
X129466104Y-59421428D01*
X129466104Y-59421428D02*
X129504200Y-59383333D01*
X129504200Y-59383333D02*
X129542295Y-59307143D01*
X129542295Y-59307143D02*
X129542295Y-59154762D01*
X129542295Y-59154762D02*
X129504200Y-59078571D01*
X129504200Y-59078571D02*
X129466104Y-59040476D01*
X129466104Y-59040476D02*
X129389914Y-59002381D01*
X129389914Y-59002381D02*
X129199438Y-59002381D01*
X129199438Y-59002381D02*
X129123247Y-59040476D01*
X129123247Y-59040476D02*
X129085152Y-59078571D01*
X129085152Y-59078571D02*
X129047057Y-59154762D01*
X129047057Y-59154762D02*
X129047057Y-59307143D01*
X129047057Y-59307143D02*
X129085152Y-59383333D01*
X129085152Y-59383333D02*
X129123247Y-59421428D01*
X129123247Y-59421428D02*
X129199438Y-59459524D01*
X129008961Y-58316666D02*
X129542295Y-58316666D01*
X128704200Y-58507142D02*
X129275628Y-58697619D01*
X129275628Y-58697619D02*
X129275628Y-58202380D01*
X172936104Y-88883332D02*
X172974200Y-88921428D01*
X172974200Y-88921428D02*
X173012295Y-89035713D01*
X173012295Y-89035713D02*
X173012295Y-89111904D01*
X173012295Y-89111904D02*
X172974200Y-89226190D01*
X172974200Y-89226190D02*
X172898009Y-89302380D01*
X172898009Y-89302380D02*
X172821819Y-89340475D01*
X172821819Y-89340475D02*
X172669438Y-89378571D01*
X172669438Y-89378571D02*
X172555152Y-89378571D01*
X172555152Y-89378571D02*
X172402771Y-89340475D01*
X172402771Y-89340475D02*
X172326580Y-89302380D01*
X172326580Y-89302380D02*
X172250390Y-89226190D01*
X172250390Y-89226190D02*
X172212295Y-89111904D01*
X172212295Y-89111904D02*
X172212295Y-89035713D01*
X172212295Y-89035713D02*
X172250390Y-88921428D01*
X172250390Y-88921428D02*
X172288485Y-88883332D01*
X172212295Y-88616666D02*
X172212295Y-88121428D01*
X172212295Y-88121428D02*
X172517057Y-88388094D01*
X172517057Y-88388094D02*
X172517057Y-88273809D01*
X172517057Y-88273809D02*
X172555152Y-88197618D01*
X172555152Y-88197618D02*
X172593247Y-88159523D01*
X172593247Y-88159523D02*
X172669438Y-88121428D01*
X172669438Y-88121428D02*
X172859914Y-88121428D01*
X172859914Y-88121428D02*
X172936104Y-88159523D01*
X172936104Y-88159523D02*
X172974200Y-88197618D01*
X172974200Y-88197618D02*
X173012295Y-88273809D01*
X173012295Y-88273809D02*
X173012295Y-88502380D01*
X173012295Y-88502380D02*
X172974200Y-88578571D01*
X172974200Y-88578571D02*
X172936104Y-88616666D01*
X188662295Y-97133332D02*
X188281342Y-97399999D01*
X188662295Y-97590475D02*
X187862295Y-97590475D01*
X187862295Y-97590475D02*
X187862295Y-97285713D01*
X187862295Y-97285713D02*
X187900390Y-97209523D01*
X187900390Y-97209523D02*
X187938485Y-97171428D01*
X187938485Y-97171428D02*
X188014676Y-97133332D01*
X188014676Y-97133332D02*
X188128961Y-97133332D01*
X188128961Y-97133332D02*
X188205152Y-97171428D01*
X188205152Y-97171428D02*
X188243247Y-97209523D01*
X188243247Y-97209523D02*
X188281342Y-97285713D01*
X188281342Y-97285713D02*
X188281342Y-97590475D01*
X188128961Y-96447618D02*
X188662295Y-96447618D01*
X187824200Y-96638094D02*
X188395628Y-96828571D01*
X188395628Y-96828571D02*
X188395628Y-96333332D01*
X165085714Y-64532295D02*
X164819047Y-64151342D01*
X164628571Y-64532295D02*
X164628571Y-63732295D01*
X164628571Y-63732295D02*
X164933333Y-63732295D01*
X164933333Y-63732295D02*
X165009523Y-63770390D01*
X165009523Y-63770390D02*
X165047618Y-63808485D01*
X165047618Y-63808485D02*
X165085714Y-63884676D01*
X165085714Y-63884676D02*
X165085714Y-63998961D01*
X165085714Y-63998961D02*
X165047618Y-64075152D01*
X165047618Y-64075152D02*
X165009523Y-64113247D01*
X165009523Y-64113247D02*
X164933333Y-64151342D01*
X164933333Y-64151342D02*
X164628571Y-64151342D01*
X165352380Y-63732295D02*
X165847618Y-63732295D01*
X165847618Y-63732295D02*
X165580952Y-64037057D01*
X165580952Y-64037057D02*
X165695237Y-64037057D01*
X165695237Y-64037057D02*
X165771428Y-64075152D01*
X165771428Y-64075152D02*
X165809523Y-64113247D01*
X165809523Y-64113247D02*
X165847618Y-64189438D01*
X165847618Y-64189438D02*
X165847618Y-64379914D01*
X165847618Y-64379914D02*
X165809523Y-64456104D01*
X165809523Y-64456104D02*
X165771428Y-64494200D01*
X165771428Y-64494200D02*
X165695237Y-64532295D01*
X165695237Y-64532295D02*
X165466666Y-64532295D01*
X165466666Y-64532295D02*
X165390475Y-64494200D01*
X165390475Y-64494200D02*
X165352380Y-64456104D01*
X166152380Y-63808485D02*
X166190476Y-63770390D01*
X166190476Y-63770390D02*
X166266666Y-63732295D01*
X166266666Y-63732295D02*
X166457142Y-63732295D01*
X166457142Y-63732295D02*
X166533333Y-63770390D01*
X166533333Y-63770390D02*
X166571428Y-63808485D01*
X166571428Y-63808485D02*
X166609523Y-63884676D01*
X166609523Y-63884676D02*
X166609523Y-63960866D01*
X166609523Y-63960866D02*
X166571428Y-64075152D01*
X166571428Y-64075152D02*
X166114285Y-64532295D01*
X166114285Y-64532295D02*
X166609523Y-64532295D01*
X125943247Y-64666666D02*
X125943247Y-64933332D01*
X126362295Y-64933332D02*
X125562295Y-64933332D01*
X125562295Y-64933332D02*
X125562295Y-64552380D01*
X125943247Y-63980952D02*
X125981342Y-63866666D01*
X125981342Y-63866666D02*
X126019438Y-63828571D01*
X126019438Y-63828571D02*
X126095628Y-63790475D01*
X126095628Y-63790475D02*
X126209914Y-63790475D01*
X126209914Y-63790475D02*
X126286104Y-63828571D01*
X126286104Y-63828571D02*
X126324200Y-63866666D01*
X126324200Y-63866666D02*
X126362295Y-63942856D01*
X126362295Y-63942856D02*
X126362295Y-64247618D01*
X126362295Y-64247618D02*
X125562295Y-64247618D01*
X125562295Y-64247618D02*
X125562295Y-63980952D01*
X125562295Y-63980952D02*
X125600390Y-63904761D01*
X125600390Y-63904761D02*
X125638485Y-63866666D01*
X125638485Y-63866666D02*
X125714676Y-63828571D01*
X125714676Y-63828571D02*
X125790866Y-63828571D01*
X125790866Y-63828571D02*
X125867057Y-63866666D01*
X125867057Y-63866666D02*
X125905152Y-63904761D01*
X125905152Y-63904761D02*
X125943247Y-63980952D01*
X125943247Y-63980952D02*
X125943247Y-64247618D01*
X125828961Y-63104761D02*
X126362295Y-63104761D01*
X125524200Y-63295237D02*
X126095628Y-63485714D01*
X126095628Y-63485714D02*
X126095628Y-62990475D01*
X159212295Y-93714285D02*
X158831342Y-93980952D01*
X159212295Y-94171428D02*
X158412295Y-94171428D01*
X158412295Y-94171428D02*
X158412295Y-93866666D01*
X158412295Y-93866666D02*
X158450390Y-93790476D01*
X158450390Y-93790476D02*
X158488485Y-93752381D01*
X158488485Y-93752381D02*
X158564676Y-93714285D01*
X158564676Y-93714285D02*
X158678961Y-93714285D01*
X158678961Y-93714285D02*
X158755152Y-93752381D01*
X158755152Y-93752381D02*
X158793247Y-93790476D01*
X158793247Y-93790476D02*
X158831342Y-93866666D01*
X158831342Y-93866666D02*
X158831342Y-94171428D01*
X158488485Y-93409524D02*
X158450390Y-93371428D01*
X158450390Y-93371428D02*
X158412295Y-93295238D01*
X158412295Y-93295238D02*
X158412295Y-93104762D01*
X158412295Y-93104762D02*
X158450390Y-93028571D01*
X158450390Y-93028571D02*
X158488485Y-92990476D01*
X158488485Y-92990476D02*
X158564676Y-92952381D01*
X158564676Y-92952381D02*
X158640866Y-92952381D01*
X158640866Y-92952381D02*
X158755152Y-92990476D01*
X158755152Y-92990476D02*
X159212295Y-93447619D01*
X159212295Y-93447619D02*
X159212295Y-92952381D01*
X158412295Y-92685714D02*
X158412295Y-92190476D01*
X158412295Y-92190476D02*
X158717057Y-92457142D01*
X158717057Y-92457142D02*
X158717057Y-92342857D01*
X158717057Y-92342857D02*
X158755152Y-92266666D01*
X158755152Y-92266666D02*
X158793247Y-92228571D01*
X158793247Y-92228571D02*
X158869438Y-92190476D01*
X158869438Y-92190476D02*
X159059914Y-92190476D01*
X159059914Y-92190476D02*
X159136104Y-92228571D01*
X159136104Y-92228571D02*
X159174200Y-92266666D01*
X159174200Y-92266666D02*
X159212295Y-92342857D01*
X159212295Y-92342857D02*
X159212295Y-92571428D01*
X159212295Y-92571428D02*
X159174200Y-92647619D01*
X159174200Y-92647619D02*
X159136104Y-92685714D01*
X159609524Y-68662295D02*
X159609524Y-67862295D01*
X159609524Y-67862295D02*
X159800000Y-67862295D01*
X159800000Y-67862295D02*
X159914286Y-67900390D01*
X159914286Y-67900390D02*
X159990476Y-67976580D01*
X159990476Y-67976580D02*
X160028571Y-68052771D01*
X160028571Y-68052771D02*
X160066667Y-68205152D01*
X160066667Y-68205152D02*
X160066667Y-68319438D01*
X160066667Y-68319438D02*
X160028571Y-68471819D01*
X160028571Y-68471819D02*
X159990476Y-68548009D01*
X159990476Y-68548009D02*
X159914286Y-68624200D01*
X159914286Y-68624200D02*
X159800000Y-68662295D01*
X159800000Y-68662295D02*
X159609524Y-68662295D01*
X160371428Y-67938485D02*
X160409524Y-67900390D01*
X160409524Y-67900390D02*
X160485714Y-67862295D01*
X160485714Y-67862295D02*
X160676190Y-67862295D01*
X160676190Y-67862295D02*
X160752381Y-67900390D01*
X160752381Y-67900390D02*
X160790476Y-67938485D01*
X160790476Y-67938485D02*
X160828571Y-68014676D01*
X160828571Y-68014676D02*
X160828571Y-68090866D01*
X160828571Y-68090866D02*
X160790476Y-68205152D01*
X160790476Y-68205152D02*
X160333333Y-68662295D01*
X160333333Y-68662295D02*
X160828571Y-68662295D01*
X195390476Y-142162295D02*
X195390476Y-141362295D01*
X195390476Y-141743247D02*
X195847619Y-141743247D01*
X195847619Y-142162295D02*
X195847619Y-141362295D01*
X196152380Y-141362295D02*
X196647618Y-141362295D01*
X196647618Y-141362295D02*
X196380952Y-141667057D01*
X196380952Y-141667057D02*
X196495237Y-141667057D01*
X196495237Y-141667057D02*
X196571428Y-141705152D01*
X196571428Y-141705152D02*
X196609523Y-141743247D01*
X196609523Y-141743247D02*
X196647618Y-141819438D01*
X196647618Y-141819438D02*
X196647618Y-142009914D01*
X196647618Y-142009914D02*
X196609523Y-142086104D01*
X196609523Y-142086104D02*
X196571428Y-142124200D01*
X196571428Y-142124200D02*
X196495237Y-142162295D01*
X196495237Y-142162295D02*
X196266666Y-142162295D01*
X196266666Y-142162295D02*
X196190475Y-142124200D01*
X196190475Y-142124200D02*
X196152380Y-142086104D01*
X195390476Y-50162295D02*
X195390476Y-49362295D01*
X195390476Y-49743247D02*
X195847619Y-49743247D01*
X195847619Y-50162295D02*
X195847619Y-49362295D01*
X196190475Y-49438485D02*
X196228571Y-49400390D01*
X196228571Y-49400390D02*
X196304761Y-49362295D01*
X196304761Y-49362295D02*
X196495237Y-49362295D01*
X196495237Y-49362295D02*
X196571428Y-49400390D01*
X196571428Y-49400390D02*
X196609523Y-49438485D01*
X196609523Y-49438485D02*
X196647618Y-49514676D01*
X196647618Y-49514676D02*
X196647618Y-49590866D01*
X196647618Y-49590866D02*
X196609523Y-49705152D01*
X196609523Y-49705152D02*
X196152380Y-50162295D01*
X196152380Y-50162295D02*
X196647618Y-50162295D01*
X169916104Y-76733332D02*
X169954200Y-76771428D01*
X169954200Y-76771428D02*
X169992295Y-76885713D01*
X169992295Y-76885713D02*
X169992295Y-76961904D01*
X169992295Y-76961904D02*
X169954200Y-77076190D01*
X169954200Y-77076190D02*
X169878009Y-77152380D01*
X169878009Y-77152380D02*
X169801819Y-77190475D01*
X169801819Y-77190475D02*
X169649438Y-77228571D01*
X169649438Y-77228571D02*
X169535152Y-77228571D01*
X169535152Y-77228571D02*
X169382771Y-77190475D01*
X169382771Y-77190475D02*
X169306580Y-77152380D01*
X169306580Y-77152380D02*
X169230390Y-77076190D01*
X169230390Y-77076190D02*
X169192295Y-76961904D01*
X169192295Y-76961904D02*
X169192295Y-76885713D01*
X169192295Y-76885713D02*
X169230390Y-76771428D01*
X169230390Y-76771428D02*
X169268485Y-76733332D01*
X169535152Y-76276190D02*
X169497057Y-76352380D01*
X169497057Y-76352380D02*
X169458961Y-76390475D01*
X169458961Y-76390475D02*
X169382771Y-76428571D01*
X169382771Y-76428571D02*
X169344676Y-76428571D01*
X169344676Y-76428571D02*
X169268485Y-76390475D01*
X169268485Y-76390475D02*
X169230390Y-76352380D01*
X169230390Y-76352380D02*
X169192295Y-76276190D01*
X169192295Y-76276190D02*
X169192295Y-76123809D01*
X169192295Y-76123809D02*
X169230390Y-76047618D01*
X169230390Y-76047618D02*
X169268485Y-76009523D01*
X169268485Y-76009523D02*
X169344676Y-75971428D01*
X169344676Y-75971428D02*
X169382771Y-75971428D01*
X169382771Y-75971428D02*
X169458961Y-76009523D01*
X169458961Y-76009523D02*
X169497057Y-76047618D01*
X169497057Y-76047618D02*
X169535152Y-76123809D01*
X169535152Y-76123809D02*
X169535152Y-76276190D01*
X169535152Y-76276190D02*
X169573247Y-76352380D01*
X169573247Y-76352380D02*
X169611342Y-76390475D01*
X169611342Y-76390475D02*
X169687533Y-76428571D01*
X169687533Y-76428571D02*
X169839914Y-76428571D01*
X169839914Y-76428571D02*
X169916104Y-76390475D01*
X169916104Y-76390475D02*
X169954200Y-76352380D01*
X169954200Y-76352380D02*
X169992295Y-76276190D01*
X169992295Y-76276190D02*
X169992295Y-76123809D01*
X169992295Y-76123809D02*
X169954200Y-76047618D01*
X169954200Y-76047618D02*
X169916104Y-76009523D01*
X169916104Y-76009523D02*
X169839914Y-75971428D01*
X169839914Y-75971428D02*
X169687533Y-75971428D01*
X169687533Y-75971428D02*
X169611342Y-76009523D01*
X169611342Y-76009523D02*
X169573247Y-76047618D01*
X169573247Y-76047618D02*
X169535152Y-76123809D01*
X168362295Y-80314285D02*
X167981342Y-80580952D01*
X168362295Y-80771428D02*
X167562295Y-80771428D01*
X167562295Y-80771428D02*
X167562295Y-80466666D01*
X167562295Y-80466666D02*
X167600390Y-80390476D01*
X167600390Y-80390476D02*
X167638485Y-80352381D01*
X167638485Y-80352381D02*
X167714676Y-80314285D01*
X167714676Y-80314285D02*
X167828961Y-80314285D01*
X167828961Y-80314285D02*
X167905152Y-80352381D01*
X167905152Y-80352381D02*
X167943247Y-80390476D01*
X167943247Y-80390476D02*
X167981342Y-80466666D01*
X167981342Y-80466666D02*
X167981342Y-80771428D01*
X167638485Y-80009524D02*
X167600390Y-79971428D01*
X167600390Y-79971428D02*
X167562295Y-79895238D01*
X167562295Y-79895238D02*
X167562295Y-79704762D01*
X167562295Y-79704762D02*
X167600390Y-79628571D01*
X167600390Y-79628571D02*
X167638485Y-79590476D01*
X167638485Y-79590476D02*
X167714676Y-79552381D01*
X167714676Y-79552381D02*
X167790866Y-79552381D01*
X167790866Y-79552381D02*
X167905152Y-79590476D01*
X167905152Y-79590476D02*
X168362295Y-80047619D01*
X168362295Y-80047619D02*
X168362295Y-79552381D01*
X167562295Y-79285714D02*
X167562295Y-78752380D01*
X167562295Y-78752380D02*
X168362295Y-79095238D01*
X153866667Y-81086104D02*
X153828571Y-81124200D01*
X153828571Y-81124200D02*
X153714286Y-81162295D01*
X153714286Y-81162295D02*
X153638095Y-81162295D01*
X153638095Y-81162295D02*
X153523809Y-81124200D01*
X153523809Y-81124200D02*
X153447619Y-81048009D01*
X153447619Y-81048009D02*
X153409524Y-80971819D01*
X153409524Y-80971819D02*
X153371428Y-80819438D01*
X153371428Y-80819438D02*
X153371428Y-80705152D01*
X153371428Y-80705152D02*
X153409524Y-80552771D01*
X153409524Y-80552771D02*
X153447619Y-80476580D01*
X153447619Y-80476580D02*
X153523809Y-80400390D01*
X153523809Y-80400390D02*
X153638095Y-80362295D01*
X153638095Y-80362295D02*
X153714286Y-80362295D01*
X153714286Y-80362295D02*
X153828571Y-80400390D01*
X153828571Y-80400390D02*
X153866667Y-80438485D01*
X154552381Y-80362295D02*
X154400000Y-80362295D01*
X154400000Y-80362295D02*
X154323809Y-80400390D01*
X154323809Y-80400390D02*
X154285714Y-80438485D01*
X154285714Y-80438485D02*
X154209524Y-80552771D01*
X154209524Y-80552771D02*
X154171428Y-80705152D01*
X154171428Y-80705152D02*
X154171428Y-81009914D01*
X154171428Y-81009914D02*
X154209524Y-81086104D01*
X154209524Y-81086104D02*
X154247619Y-81124200D01*
X154247619Y-81124200D02*
X154323809Y-81162295D01*
X154323809Y-81162295D02*
X154476190Y-81162295D01*
X154476190Y-81162295D02*
X154552381Y-81124200D01*
X154552381Y-81124200D02*
X154590476Y-81086104D01*
X154590476Y-81086104D02*
X154628571Y-81009914D01*
X154628571Y-81009914D02*
X154628571Y-80819438D01*
X154628571Y-80819438D02*
X154590476Y-80743247D01*
X154590476Y-80743247D02*
X154552381Y-80705152D01*
X154552381Y-80705152D02*
X154476190Y-80667057D01*
X154476190Y-80667057D02*
X154323809Y-80667057D01*
X154323809Y-80667057D02*
X154247619Y-80705152D01*
X154247619Y-80705152D02*
X154209524Y-80743247D01*
X154209524Y-80743247D02*
X154171428Y-80819438D01*
X113009524Y-67162295D02*
X113009524Y-67809914D01*
X113009524Y-67809914D02*
X113047619Y-67886104D01*
X113047619Y-67886104D02*
X113085714Y-67924200D01*
X113085714Y-67924200D02*
X113161905Y-67962295D01*
X113161905Y-67962295D02*
X113314286Y-67962295D01*
X113314286Y-67962295D02*
X113390476Y-67924200D01*
X113390476Y-67924200D02*
X113428571Y-67886104D01*
X113428571Y-67886104D02*
X113466667Y-67809914D01*
X113466667Y-67809914D02*
X113466667Y-67162295D01*
X114266666Y-67962295D02*
X113809523Y-67962295D01*
X114038095Y-67962295D02*
X114038095Y-67162295D01*
X114038095Y-67162295D02*
X113961904Y-67276580D01*
X113961904Y-67276580D02*
X113885714Y-67352771D01*
X113885714Y-67352771D02*
X113809523Y-67390866D01*
X114647619Y-67962295D02*
X114800000Y-67962295D01*
X114800000Y-67962295D02*
X114876190Y-67924200D01*
X114876190Y-67924200D02*
X114914286Y-67886104D01*
X114914286Y-67886104D02*
X114990476Y-67771819D01*
X114990476Y-67771819D02*
X115028571Y-67619438D01*
X115028571Y-67619438D02*
X115028571Y-67314676D01*
X115028571Y-67314676D02*
X114990476Y-67238485D01*
X114990476Y-67238485D02*
X114952381Y-67200390D01*
X114952381Y-67200390D02*
X114876190Y-67162295D01*
X114876190Y-67162295D02*
X114723809Y-67162295D01*
X114723809Y-67162295D02*
X114647619Y-67200390D01*
X114647619Y-67200390D02*
X114609524Y-67238485D01*
X114609524Y-67238485D02*
X114571428Y-67314676D01*
X114571428Y-67314676D02*
X114571428Y-67505152D01*
X114571428Y-67505152D02*
X114609524Y-67581342D01*
X114609524Y-67581342D02*
X114647619Y-67619438D01*
X114647619Y-67619438D02*
X114723809Y-67657533D01*
X114723809Y-67657533D02*
X114876190Y-67657533D01*
X114876190Y-67657533D02*
X114952381Y-67619438D01*
X114952381Y-67619438D02*
X114990476Y-67581342D01*
X114990476Y-67581342D02*
X115028571Y-67505152D01*
X184936104Y-116458332D02*
X184974200Y-116496428D01*
X184974200Y-116496428D02*
X185012295Y-116610713D01*
X185012295Y-116610713D02*
X185012295Y-116686904D01*
X185012295Y-116686904D02*
X184974200Y-116801190D01*
X184974200Y-116801190D02*
X184898009Y-116877380D01*
X184898009Y-116877380D02*
X184821819Y-116915475D01*
X184821819Y-116915475D02*
X184669438Y-116953571D01*
X184669438Y-116953571D02*
X184555152Y-116953571D01*
X184555152Y-116953571D02*
X184402771Y-116915475D01*
X184402771Y-116915475D02*
X184326580Y-116877380D01*
X184326580Y-116877380D02*
X184250390Y-116801190D01*
X184250390Y-116801190D02*
X184212295Y-116686904D01*
X184212295Y-116686904D02*
X184212295Y-116610713D01*
X184212295Y-116610713D02*
X184250390Y-116496428D01*
X184250390Y-116496428D02*
X184288485Y-116458332D01*
X185012295Y-115696428D02*
X185012295Y-116153571D01*
X185012295Y-115924999D02*
X184212295Y-115924999D01*
X184212295Y-115924999D02*
X184326580Y-116001190D01*
X184326580Y-116001190D02*
X184402771Y-116077380D01*
X184402771Y-116077380D02*
X184440866Y-116153571D01*
X184162295Y-118934523D02*
X184809914Y-118934523D01*
X184809914Y-118934523D02*
X184886104Y-118896428D01*
X184886104Y-118896428D02*
X184924200Y-118858333D01*
X184924200Y-118858333D02*
X184962295Y-118782142D01*
X184962295Y-118782142D02*
X184962295Y-118629761D01*
X184962295Y-118629761D02*
X184924200Y-118553571D01*
X184924200Y-118553571D02*
X184886104Y-118515476D01*
X184886104Y-118515476D02*
X184809914Y-118477380D01*
X184809914Y-118477380D02*
X184162295Y-118477380D01*
X184962295Y-117677381D02*
X184962295Y-118134524D01*
X184962295Y-117905952D02*
X184162295Y-117905952D01*
X184162295Y-117905952D02*
X184276580Y-117982143D01*
X184276580Y-117982143D02*
X184352771Y-118058333D01*
X184352771Y-118058333D02*
X184390866Y-118134524D01*
X115812295Y-77314285D02*
X115431342Y-77580952D01*
X115812295Y-77771428D02*
X115012295Y-77771428D01*
X115012295Y-77771428D02*
X115012295Y-77466666D01*
X115012295Y-77466666D02*
X115050390Y-77390476D01*
X115050390Y-77390476D02*
X115088485Y-77352381D01*
X115088485Y-77352381D02*
X115164676Y-77314285D01*
X115164676Y-77314285D02*
X115278961Y-77314285D01*
X115278961Y-77314285D02*
X115355152Y-77352381D01*
X115355152Y-77352381D02*
X115393247Y-77390476D01*
X115393247Y-77390476D02*
X115431342Y-77466666D01*
X115431342Y-77466666D02*
X115431342Y-77771428D01*
X115012295Y-76590476D02*
X115012295Y-76971428D01*
X115012295Y-76971428D02*
X115393247Y-77009524D01*
X115393247Y-77009524D02*
X115355152Y-76971428D01*
X115355152Y-76971428D02*
X115317057Y-76895238D01*
X115317057Y-76895238D02*
X115317057Y-76704762D01*
X115317057Y-76704762D02*
X115355152Y-76628571D01*
X115355152Y-76628571D02*
X115393247Y-76590476D01*
X115393247Y-76590476D02*
X115469438Y-76552381D01*
X115469438Y-76552381D02*
X115659914Y-76552381D01*
X115659914Y-76552381D02*
X115736104Y-76590476D01*
X115736104Y-76590476D02*
X115774200Y-76628571D01*
X115774200Y-76628571D02*
X115812295Y-76704762D01*
X115812295Y-76704762D02*
X115812295Y-76895238D01*
X115812295Y-76895238D02*
X115774200Y-76971428D01*
X115774200Y-76971428D02*
X115736104Y-77009524D01*
X115812295Y-75790476D02*
X115812295Y-76247619D01*
X115812295Y-76019047D02*
X115012295Y-76019047D01*
X115012295Y-76019047D02*
X115126580Y-76095238D01*
X115126580Y-76095238D02*
X115202771Y-76171428D01*
X115202771Y-76171428D02*
X115240866Y-76247619D01*
X120509524Y-67162295D02*
X120509524Y-67809914D01*
X120509524Y-67809914D02*
X120547619Y-67886104D01*
X120547619Y-67886104D02*
X120585714Y-67924200D01*
X120585714Y-67924200D02*
X120661905Y-67962295D01*
X120661905Y-67962295D02*
X120814286Y-67962295D01*
X120814286Y-67962295D02*
X120890476Y-67924200D01*
X120890476Y-67924200D02*
X120928571Y-67886104D01*
X120928571Y-67886104D02*
X120966667Y-67809914D01*
X120966667Y-67809914D02*
X120966667Y-67162295D01*
X121309523Y-67238485D02*
X121347619Y-67200390D01*
X121347619Y-67200390D02*
X121423809Y-67162295D01*
X121423809Y-67162295D02*
X121614285Y-67162295D01*
X121614285Y-67162295D02*
X121690476Y-67200390D01*
X121690476Y-67200390D02*
X121728571Y-67238485D01*
X121728571Y-67238485D02*
X121766666Y-67314676D01*
X121766666Y-67314676D02*
X121766666Y-67390866D01*
X121766666Y-67390866D02*
X121728571Y-67505152D01*
X121728571Y-67505152D02*
X121271428Y-67962295D01*
X121271428Y-67962295D02*
X121766666Y-67962295D01*
X122261905Y-67162295D02*
X122338095Y-67162295D01*
X122338095Y-67162295D02*
X122414286Y-67200390D01*
X122414286Y-67200390D02*
X122452381Y-67238485D01*
X122452381Y-67238485D02*
X122490476Y-67314676D01*
X122490476Y-67314676D02*
X122528571Y-67467057D01*
X122528571Y-67467057D02*
X122528571Y-67657533D01*
X122528571Y-67657533D02*
X122490476Y-67809914D01*
X122490476Y-67809914D02*
X122452381Y-67886104D01*
X122452381Y-67886104D02*
X122414286Y-67924200D01*
X122414286Y-67924200D02*
X122338095Y-67962295D01*
X122338095Y-67962295D02*
X122261905Y-67962295D01*
X122261905Y-67962295D02*
X122185714Y-67924200D01*
X122185714Y-67924200D02*
X122147619Y-67886104D01*
X122147619Y-67886104D02*
X122109524Y-67809914D01*
X122109524Y-67809914D02*
X122071428Y-67657533D01*
X122071428Y-67657533D02*
X122071428Y-67467057D01*
X122071428Y-67467057D02*
X122109524Y-67314676D01*
X122109524Y-67314676D02*
X122147619Y-67238485D01*
X122147619Y-67238485D02*
X122185714Y-67200390D01*
X122185714Y-67200390D02*
X122261905Y-67162295D01*
X157162295Y-86009523D02*
X157809914Y-86009523D01*
X157809914Y-86009523D02*
X157886104Y-85971428D01*
X157886104Y-85971428D02*
X157924200Y-85933333D01*
X157924200Y-85933333D02*
X157962295Y-85857142D01*
X157962295Y-85857142D02*
X157962295Y-85704761D01*
X157962295Y-85704761D02*
X157924200Y-85628571D01*
X157924200Y-85628571D02*
X157886104Y-85590476D01*
X157886104Y-85590476D02*
X157809914Y-85552380D01*
X157809914Y-85552380D02*
X157162295Y-85552380D01*
X157162295Y-84828571D02*
X157162295Y-84980952D01*
X157162295Y-84980952D02*
X157200390Y-85057143D01*
X157200390Y-85057143D02*
X157238485Y-85095238D01*
X157238485Y-85095238D02*
X157352771Y-85171428D01*
X157352771Y-85171428D02*
X157505152Y-85209524D01*
X157505152Y-85209524D02*
X157809914Y-85209524D01*
X157809914Y-85209524D02*
X157886104Y-85171428D01*
X157886104Y-85171428D02*
X157924200Y-85133333D01*
X157924200Y-85133333D02*
X157962295Y-85057143D01*
X157962295Y-85057143D02*
X157962295Y-84904762D01*
X157962295Y-84904762D02*
X157924200Y-84828571D01*
X157924200Y-84828571D02*
X157886104Y-84790476D01*
X157886104Y-84790476D02*
X157809914Y-84752381D01*
X157809914Y-84752381D02*
X157619438Y-84752381D01*
X157619438Y-84752381D02*
X157543247Y-84790476D01*
X157543247Y-84790476D02*
X157505152Y-84828571D01*
X157505152Y-84828571D02*
X157467057Y-84904762D01*
X157467057Y-84904762D02*
X157467057Y-85057143D01*
X157467057Y-85057143D02*
X157505152Y-85133333D01*
X157505152Y-85133333D02*
X157543247Y-85171428D01*
X157543247Y-85171428D02*
X157619438Y-85209524D01*
X175262295Y-76514285D02*
X174881342Y-76780952D01*
X175262295Y-76971428D02*
X174462295Y-76971428D01*
X174462295Y-76971428D02*
X174462295Y-76666666D01*
X174462295Y-76666666D02*
X174500390Y-76590476D01*
X174500390Y-76590476D02*
X174538485Y-76552381D01*
X174538485Y-76552381D02*
X174614676Y-76514285D01*
X174614676Y-76514285D02*
X174728961Y-76514285D01*
X174728961Y-76514285D02*
X174805152Y-76552381D01*
X174805152Y-76552381D02*
X174843247Y-76590476D01*
X174843247Y-76590476D02*
X174881342Y-76666666D01*
X174881342Y-76666666D02*
X174881342Y-76971428D01*
X174538485Y-76209524D02*
X174500390Y-76171428D01*
X174500390Y-76171428D02*
X174462295Y-76095238D01*
X174462295Y-76095238D02*
X174462295Y-75904762D01*
X174462295Y-75904762D02*
X174500390Y-75828571D01*
X174500390Y-75828571D02*
X174538485Y-75790476D01*
X174538485Y-75790476D02*
X174614676Y-75752381D01*
X174614676Y-75752381D02*
X174690866Y-75752381D01*
X174690866Y-75752381D02*
X174805152Y-75790476D01*
X174805152Y-75790476D02*
X175262295Y-76247619D01*
X175262295Y-76247619D02*
X175262295Y-75752381D01*
X174462295Y-75257142D02*
X174462295Y-75180952D01*
X174462295Y-75180952D02*
X174500390Y-75104761D01*
X174500390Y-75104761D02*
X174538485Y-75066666D01*
X174538485Y-75066666D02*
X174614676Y-75028571D01*
X174614676Y-75028571D02*
X174767057Y-74990476D01*
X174767057Y-74990476D02*
X174957533Y-74990476D01*
X174957533Y-74990476D02*
X175109914Y-75028571D01*
X175109914Y-75028571D02*
X175186104Y-75066666D01*
X175186104Y-75066666D02*
X175224200Y-75104761D01*
X175224200Y-75104761D02*
X175262295Y-75180952D01*
X175262295Y-75180952D02*
X175262295Y-75257142D01*
X175262295Y-75257142D02*
X175224200Y-75333333D01*
X175224200Y-75333333D02*
X175186104Y-75371428D01*
X175186104Y-75371428D02*
X175109914Y-75409523D01*
X175109914Y-75409523D02*
X174957533Y-75447619D01*
X174957533Y-75447619D02*
X174767057Y-75447619D01*
X174767057Y-75447619D02*
X174614676Y-75409523D01*
X174614676Y-75409523D02*
X174538485Y-75371428D01*
X174538485Y-75371428D02*
X174500390Y-75333333D01*
X174500390Y-75333333D02*
X174462295Y-75257142D01*
X172262295Y-91009523D02*
X172909914Y-91009523D01*
X172909914Y-91009523D02*
X172986104Y-90971428D01*
X172986104Y-90971428D02*
X173024200Y-90933333D01*
X173024200Y-90933333D02*
X173062295Y-90857142D01*
X173062295Y-90857142D02*
X173062295Y-90704761D01*
X173062295Y-90704761D02*
X173024200Y-90628571D01*
X173024200Y-90628571D02*
X172986104Y-90590476D01*
X172986104Y-90590476D02*
X172909914Y-90552380D01*
X172909914Y-90552380D02*
X172262295Y-90552380D01*
X172262295Y-90247619D02*
X172262295Y-89752381D01*
X172262295Y-89752381D02*
X172567057Y-90019047D01*
X172567057Y-90019047D02*
X172567057Y-89904762D01*
X172567057Y-89904762D02*
X172605152Y-89828571D01*
X172605152Y-89828571D02*
X172643247Y-89790476D01*
X172643247Y-89790476D02*
X172719438Y-89752381D01*
X172719438Y-89752381D02*
X172909914Y-89752381D01*
X172909914Y-89752381D02*
X172986104Y-89790476D01*
X172986104Y-89790476D02*
X173024200Y-89828571D01*
X173024200Y-89828571D02*
X173062295Y-89904762D01*
X173062295Y-89904762D02*
X173062295Y-90133333D01*
X173062295Y-90133333D02*
X173024200Y-90209524D01*
X173024200Y-90209524D02*
X172986104Y-90247619D01*
D15*
G04 #@! TO.C,C5*
X156540580Y-81890000D02*
X156259420Y-81890000D01*
X156540580Y-82910000D02*
X156259420Y-82910000D01*
G04 #@! TO.C,C13*
X120990000Y-82859420D02*
X120990000Y-83140580D01*
X122010000Y-82859420D02*
X122010000Y-83140580D01*
G04 #@! TO.C,R57*
X107977500Y-79737258D02*
X107977500Y-79262742D01*
X109022500Y-79737258D02*
X109022500Y-79262742D01*
G04 #@! TO.C,R18*
X172377500Y-81962742D02*
X172377500Y-82437258D01*
X173422500Y-81962742D02*
X173422500Y-82437258D01*
G04 #@! TO.C,R12*
X188142500Y-106737258D02*
X188142500Y-106262742D01*
X189187500Y-106737258D02*
X189187500Y-106262742D01*
G04 #@! TO.C,R16*
X178177500Y-82462258D02*
X178177500Y-81987742D01*
X179222500Y-82462258D02*
X179222500Y-81987742D01*
G04 #@! TO.C,R25*
X155077500Y-89212258D02*
X155077500Y-88737742D01*
X156122500Y-89212258D02*
X156122500Y-88737742D01*
G04 #@! TO.C,R21*
X155077500Y-92437258D02*
X155077500Y-91962742D01*
X156122500Y-92437258D02*
X156122500Y-91962742D01*
G04 #@! TO.C,R26*
X165362742Y-61477500D02*
X165837258Y-61477500D01*
X165362742Y-62522500D02*
X165837258Y-62522500D01*
G04 #@! TO.C,R19*
X176377500Y-78837258D02*
X176377500Y-78362742D01*
X177422500Y-78837258D02*
X177422500Y-78362742D01*
G04 #@! TO.C,R56*
X110762742Y-79477500D02*
X111237258Y-79477500D01*
X110762742Y-80522500D02*
X111237258Y-80522500D01*
G04 #@! TO.C,C14*
X106990000Y-82859420D02*
X106990000Y-83140580D01*
X108010000Y-82859420D02*
X108010000Y-83140580D01*
G04 #@! TO.C,C15*
X113990000Y-82859420D02*
X113990000Y-83140580D01*
X115010000Y-82859420D02*
X115010000Y-83140580D01*
G04 #@! TO.C,R55*
X112977500Y-79262742D02*
X112977500Y-79737258D01*
X114022500Y-79262742D02*
X114022500Y-79737258D01*
G04 #@! TO.C,R61*
X125477500Y-70237258D02*
X125477500Y-69762742D01*
X126522500Y-70237258D02*
X126522500Y-69762742D01*
G04 #@! TO.C,U2*
X187640000Y-87800000D02*
X187640000Y-85850000D01*
X187640000Y-87800000D02*
X187640000Y-89750000D01*
X192760000Y-87800000D02*
X192760000Y-85850000D01*
X192760000Y-87800000D02*
X192760000Y-89750000D01*
X187735000Y-90500000D02*
X187405000Y-90740000D01*
X187405000Y-90260000D01*
X187735000Y-90500000D01*
G36*
X187735000Y-90500000D02*
G01*
X187405000Y-90740000D01*
X187405000Y-90260000D01*
X187735000Y-90500000D01*
G37*
G04 #@! TO.C,R31*
X159877500Y-78662258D02*
X159877500Y-78187742D01*
X160922500Y-78662258D02*
X160922500Y-78187742D01*
G04 #@! TO.C,C4*
X164090000Y-86059420D02*
X164090000Y-86340580D01*
X165110000Y-86059420D02*
X165110000Y-86340580D01*
G04 #@! TO.C,R63*
X116477500Y-70237258D02*
X116477500Y-69762742D01*
X117522500Y-70237258D02*
X117522500Y-69762742D01*
G04 #@! TO.C,D8*
X129100000Y-65150000D02*
X129100000Y-67110000D01*
X129100000Y-67110000D02*
X130300000Y-67110000D01*
X130300000Y-65150000D02*
X130300000Y-67110000D01*
G04 #@! TO.C,R52*
X126977500Y-79262742D02*
X126977500Y-79737258D01*
X128022500Y-79262742D02*
X128022500Y-79737258D01*
G04 #@! TO.C,J2*
X133430000Y-146980000D02*
X133430000Y-149640000D01*
X133430000Y-149640000D02*
X166570000Y-149640000D01*
X134380000Y-144042929D02*
X134380000Y-144497071D01*
X134380000Y-146582929D02*
X134380000Y-146980000D01*
X134380000Y-155640000D02*
X134380000Y-149640000D01*
X135140000Y-144042929D02*
X135140000Y-144497071D01*
X135140000Y-146582929D02*
X135140000Y-146980000D01*
X135140000Y-149640000D02*
X135140000Y-155640000D01*
X135140000Y-155640000D02*
X134380000Y-155640000D01*
X136030000Y-146980000D02*
X136030000Y-149640000D01*
X136920000Y-144042929D02*
X136920000Y-144497071D01*
X136920000Y-146582929D02*
X136920000Y-146980000D01*
X136920000Y-155640000D02*
X136920000Y-149640000D01*
X137680000Y-144042929D02*
X137680000Y-144497071D01*
X137680000Y-146582929D02*
X137680000Y-146980000D01*
X137680000Y-149640000D02*
X137680000Y-155640000D01*
X137680000Y-155640000D02*
X136920000Y-155640000D01*
X138570000Y-146980000D02*
X138570000Y-149640000D01*
X139460000Y-144042929D02*
X139460000Y-144497071D01*
X139460000Y-146582929D02*
X139460000Y-146980000D01*
X139460000Y-155640000D02*
X139460000Y-149640000D01*
X140220000Y-144042929D02*
X140220000Y-144497071D01*
X140220000Y-146582929D02*
X140220000Y-146980000D01*
X140220000Y-149640000D02*
X140220000Y-155640000D01*
X140220000Y-155640000D02*
X139460000Y-155640000D01*
X141110000Y-146980000D02*
X141110000Y-149640000D01*
X142000000Y-144042929D02*
X142000000Y-144497071D01*
X142000000Y-146582929D02*
X142000000Y-146980000D01*
X142000000Y-155640000D02*
X142000000Y-149640000D01*
X142760000Y-144042929D02*
X142760000Y-144497071D01*
X142760000Y-146582929D02*
X142760000Y-146980000D01*
X142760000Y-149640000D02*
X142760000Y-155640000D01*
X142760000Y-155640000D02*
X142000000Y-155640000D01*
X143650000Y-146980000D02*
X143650000Y-149640000D01*
X144540000Y-144042929D02*
X144540000Y-144497071D01*
X144540000Y-146582929D02*
X144540000Y-146980000D01*
X144540000Y-155640000D02*
X144540000Y-149640000D01*
X145300000Y-144042929D02*
X145300000Y-144497071D01*
X145300000Y-146582929D02*
X145300000Y-146980000D01*
X145300000Y-149640000D02*
X145300000Y-155640000D01*
X145300000Y-155640000D02*
X144540000Y-155640000D01*
X146190000Y-146980000D02*
X146190000Y-149640000D01*
X147080000Y-144042929D02*
X147080000Y-144497071D01*
X147080000Y-146582929D02*
X147080000Y-146980000D01*
X147080000Y-155640000D02*
X147080000Y-149640000D01*
X147840000Y-144042929D02*
X147840000Y-144497071D01*
X147840000Y-146582929D02*
X147840000Y-146980000D01*
X147840000Y-149640000D02*
X147840000Y-155640000D01*
X147840000Y-155640000D02*
X147080000Y-155640000D01*
X148730000Y-146980000D02*
X148730000Y-149640000D01*
X149620000Y-144042929D02*
X149620000Y-144497071D01*
X149620000Y-146582929D02*
X149620000Y-146980000D01*
X149620000Y-155640000D02*
X149620000Y-149640000D01*
X150380000Y-144042929D02*
X150380000Y-144497071D01*
X150380000Y-146582929D02*
X150380000Y-146980000D01*
X150380000Y-149640000D02*
X150380000Y-155640000D01*
X150380000Y-155640000D02*
X149620000Y-155640000D01*
X151270000Y-146980000D02*
X151270000Y-149640000D01*
X152160000Y-144042929D02*
X152160000Y-144497071D01*
X152160000Y-146582929D02*
X152160000Y-146980000D01*
X152160000Y-155640000D02*
X152160000Y-149640000D01*
X152920000Y-144042929D02*
X152920000Y-144497071D01*
X152920000Y-146582929D02*
X152920000Y-146980000D01*
X152920000Y-149640000D02*
X152920000Y-155640000D01*
X152920000Y-155640000D02*
X152160000Y-155640000D01*
X153810000Y-146980000D02*
X153810000Y-149640000D01*
X154700000Y-144042929D02*
X154700000Y-144497071D01*
X154700000Y-146582929D02*
X154700000Y-146980000D01*
X154700000Y-155640000D02*
X154700000Y-149640000D01*
X155460000Y-144042929D02*
X155460000Y-144497071D01*
X155460000Y-146582929D02*
X155460000Y-146980000D01*
X155460000Y-149640000D02*
X155460000Y-155640000D01*
X155460000Y-155640000D02*
X154700000Y-155640000D01*
X156350000Y-146980000D02*
X156350000Y-149640000D01*
X157240000Y-144042929D02*
X157240000Y-144497071D01*
X157240000Y-146582929D02*
X157240000Y-146980000D01*
X157240000Y-155640000D02*
X157240000Y-149640000D01*
X158000000Y-144042929D02*
X158000000Y-144497071D01*
X158000000Y-146582929D02*
X158000000Y-146980000D01*
X158000000Y-149640000D02*
X158000000Y-155640000D01*
X158000000Y-155640000D02*
X157240000Y-155640000D01*
X158890000Y-146980000D02*
X158890000Y-149640000D01*
X159780000Y-144042929D02*
X159780000Y-144497071D01*
X159780000Y-146582929D02*
X159780000Y-146980000D01*
X159780000Y-155640000D02*
X159780000Y-149640000D01*
X160540000Y-144042929D02*
X160540000Y-144497071D01*
X160540000Y-146582929D02*
X160540000Y-146980000D01*
X160540000Y-149640000D02*
X160540000Y-155640000D01*
X160540000Y-155640000D02*
X159780000Y-155640000D01*
X161430000Y-146980000D02*
X161430000Y-149640000D01*
X162320000Y-144042929D02*
X162320000Y-144497071D01*
X162320000Y-146582929D02*
X162320000Y-146980000D01*
X162320000Y-155640000D02*
X162320000Y-149640000D01*
X163080000Y-144042929D02*
X163080000Y-144497071D01*
X163080000Y-146582929D02*
X163080000Y-146980000D01*
X163080000Y-149640000D02*
X163080000Y-155640000D01*
X163080000Y-155640000D02*
X162320000Y-155640000D01*
X163970000Y-146980000D02*
X163970000Y-149640000D01*
X164860000Y-144110000D02*
X164860000Y-144497071D01*
X164860000Y-146582929D02*
X164860000Y-146980000D01*
X164860000Y-155640000D02*
X164860000Y-149640000D01*
X164960000Y-149640000D02*
X164960000Y-155640000D01*
X165080000Y-149640000D02*
X165080000Y-155640000D01*
X165200000Y-149640000D02*
X165200000Y-155640000D01*
X165240000Y-141730000D02*
X166510000Y-141730000D01*
X165320000Y-149640000D02*
X165320000Y-155640000D01*
X165440000Y-149640000D02*
X165440000Y-155640000D01*
X165560000Y-149640000D02*
X165560000Y-155640000D01*
X165620000Y-144110000D02*
X165620000Y-144497071D01*
X165620000Y-146582929D02*
X165620000Y-146980000D01*
X165620000Y-149640000D02*
X165620000Y-155640000D01*
X165620000Y-155640000D02*
X164860000Y-155640000D01*
X166510000Y-141730000D02*
X166510000Y-143000000D01*
X166570000Y-146980000D02*
X133430000Y-146980000D01*
X166570000Y-149640000D02*
X166570000Y-146980000D01*
G04 #@! TO.C,U17*
X122440000Y-85000000D02*
X122440000Y-83050000D01*
X122440000Y-85000000D02*
X122440000Y-86950000D01*
X127560000Y-85000000D02*
X127560000Y-83050000D01*
X127560000Y-85000000D02*
X127560000Y-86950000D01*
X122535000Y-87700000D02*
X122205000Y-87940000D01*
X122205000Y-87460000D01*
X122535000Y-87700000D01*
G36*
X122535000Y-87700000D02*
G01*
X122205000Y-87940000D01*
X122205000Y-87460000D01*
X122535000Y-87700000D01*
G37*
G04 #@! TO.C,R15*
X188577500Y-78837258D02*
X188577500Y-78362742D01*
X189622500Y-78837258D02*
X189622500Y-78362742D01*
G04 #@! TO.C,R1*
X188277500Y-121787742D02*
X188277500Y-122262258D01*
X189322500Y-121787742D02*
X189322500Y-122262258D01*
G04 #@! TO.C,R30*
X161477500Y-78187742D02*
X161477500Y-78662258D01*
X162522500Y-78187742D02*
X162522500Y-78662258D01*
G04 #@! TO.C,R3*
X189877500Y-122262258D02*
X189877500Y-121787742D01*
X190922500Y-122262258D02*
X190922500Y-121787742D01*
G04 #@! TO.C,FB1*
X156237221Y-78690000D02*
X156562779Y-78690000D01*
X156237221Y-79710000D02*
X156562779Y-79710000D01*
G04 #@! TO.C,C2*
X186190000Y-85659420D02*
X186190000Y-85940580D01*
X187210000Y-85659420D02*
X187210000Y-85940580D01*
G04 #@! TO.C,R24*
X161477500Y-90362742D02*
X161477500Y-90837258D01*
X162522500Y-90362742D02*
X162522500Y-90837258D01*
G04 #@! TO.C,R60*
X117977500Y-70237258D02*
X117977500Y-69762742D01*
X119022500Y-70237258D02*
X119022500Y-69762742D01*
G04 #@! TO.C,R59*
X108877500Y-69637258D02*
X108877500Y-69162742D01*
X109922500Y-69637258D02*
X109922500Y-69162742D01*
G04 #@! TO.C,R29*
X163077500Y-78162742D02*
X163077500Y-78637258D01*
X164122500Y-78162742D02*
X164122500Y-78637258D01*
G04 #@! TO.C,J1*
D13*
X182350000Y-60040000D02*
X164050000Y-60040000D01*
X164050000Y-49340000D01*
X182350000Y-49340000D01*
X182350000Y-60040000D01*
D15*
G04 #@! TO.C,D4*
X163710000Y-60150000D02*
X158200000Y-60150000D01*
X163710000Y-63450000D02*
X158200000Y-63450000D01*
X163710000Y-63450000D02*
X163710000Y-60150000D01*
G04 #@! TO.C,R11*
X186877500Y-81962742D02*
X186877500Y-82437258D01*
X187922500Y-81962742D02*
X187922500Y-82437258D01*
G04 #@! TO.C,U18*
X108440000Y-85000000D02*
X108440000Y-83050000D01*
X108440000Y-85000000D02*
X108440000Y-86950000D01*
X113560000Y-85000000D02*
X113560000Y-83050000D01*
X113560000Y-85000000D02*
X113560000Y-86950000D01*
X108535000Y-87700000D02*
X108205000Y-87940000D01*
X108205000Y-87460000D01*
X108535000Y-87700000D01*
G36*
X108535000Y-87700000D02*
G01*
X108205000Y-87940000D01*
X108205000Y-87460000D01*
X108535000Y-87700000D01*
G37*
G04 #@! TO.C,R2*
X185677500Y-122262258D02*
X185677500Y-121787742D01*
X186722500Y-122262258D02*
X186722500Y-121787742D01*
G04 #@! TO.C,R53*
X125237258Y-79977500D02*
X124762742Y-79977500D01*
X125237258Y-81022500D02*
X124762742Y-81022500D01*
G04 #@! TO.C,R8*
X184677500Y-109787742D02*
X184677500Y-110262258D01*
X185722500Y-109787742D02*
X185722500Y-110262258D01*
G04 #@! TO.C,R14*
X190377500Y-78837258D02*
X190377500Y-78362742D01*
X191422500Y-78837258D02*
X191422500Y-78362742D01*
G04 #@! TO.C,R22*
X159877500Y-90837258D02*
X159877500Y-90362742D01*
X160922500Y-90837258D02*
X160922500Y-90362742D01*
G04 #@! TO.C,R10*
X189862742Y-80877500D02*
X190337258Y-80877500D01*
X189862742Y-81922500D02*
X190337258Y-81922500D01*
G04 #@! TO.C,R7*
X187562742Y-108702500D02*
X188037258Y-108702500D01*
X187562742Y-109747500D02*
X188037258Y-109747500D01*
G04 #@! TO.C,R49*
X119977500Y-79262742D02*
X119977500Y-79737258D01*
X121022500Y-79262742D02*
X121022500Y-79737258D01*
G04 #@! TO.C,C16*
X128765000Y-62761252D02*
X128765000Y-62238748D01*
X130235000Y-62761252D02*
X130235000Y-62238748D01*
G04 #@! TO.C,R58*
X110477500Y-70237258D02*
X110477500Y-69762742D01*
X111522500Y-70237258D02*
X111522500Y-69762742D01*
G04 #@! TO.C,R5*
X177577500Y-94437258D02*
X177577500Y-93962742D01*
X178622500Y-94437258D02*
X178622500Y-93962742D01*
G04 #@! TO.C,C7*
X156690000Y-90740580D02*
X156690000Y-90459420D01*
X157710000Y-90740580D02*
X157710000Y-90459420D01*
G04 #@! TO.C,R17*
X175862742Y-80877500D02*
X176337258Y-80877500D01*
X175862742Y-81922500D02*
X176337258Y-81922500D01*
G04 #@! TO.C,C9*
X158290000Y-78284420D02*
X158290000Y-78565580D01*
X159310000Y-78284420D02*
X159310000Y-78565580D01*
G04 #@! TO.C,D1*
X182205000Y-114250000D02*
X182205000Y-112290000D01*
X183405000Y-112290000D02*
X182205000Y-112290000D01*
X183405000Y-114250000D02*
X183405000Y-112290000D01*
G04 #@! TO.C,R54*
X121977500Y-79737258D02*
X121977500Y-79262742D01*
X123022500Y-79737258D02*
X123022500Y-79262742D01*
G04 #@! TO.C,D7*
X126900000Y-75350000D02*
X126900000Y-77310000D01*
X126900000Y-77310000D02*
X128100000Y-77310000D01*
X128100000Y-75350000D02*
X128100000Y-77310000D01*
G04 #@! TO.C,U4*
X195002500Y-107790000D02*
X194202500Y-107790000D01*
X195002500Y-107790000D02*
X195802500Y-107790000D01*
X195002500Y-110910000D02*
X194202500Y-110910000D01*
X195002500Y-110910000D02*
X195802500Y-110910000D01*
X196542500Y-111190000D02*
X196062500Y-111190000D01*
X196302500Y-110860000D01*
X196542500Y-111190000D01*
G36*
X196542500Y-111190000D02*
G01*
X196062500Y-111190000D01*
X196302500Y-110860000D01*
X196542500Y-111190000D01*
G37*
D13*
G04 #@! TO.C,J5*
X109242000Y-54182000D02*
X109245000Y-46815000D01*
X109245000Y-46815000D02*
X125495000Y-46815000D01*
X109245000Y-62565000D02*
X109242000Y-57738000D01*
X114370000Y-47940000D02*
X114370000Y-46940000D01*
X120620000Y-46940000D02*
X120620000Y-47940000D01*
X120620000Y-47940000D02*
X114370000Y-47940000D01*
X125495000Y-46815000D02*
X125498000Y-54436000D01*
X125495000Y-62565000D02*
X109245000Y-62565000D01*
X125495000Y-62565000D02*
X125498000Y-57738000D01*
D15*
G04 #@! TO.C,R9*
X192277500Y-82437258D02*
X192277500Y-81962742D01*
X193322500Y-82437258D02*
X193322500Y-81962742D01*
G04 #@! TO.C,R50*
X118237258Y-79977500D02*
X117762742Y-79977500D01*
X118237258Y-81022500D02*
X117762742Y-81022500D01*
G04 #@! TO.C,U5*
X182300000Y-80240000D02*
X181500000Y-80240000D01*
X182300000Y-80240000D02*
X183100000Y-80240000D01*
X182300000Y-83360000D02*
X181500000Y-83360000D01*
X182300000Y-83360000D02*
X183100000Y-83360000D01*
X181000000Y-80290000D02*
X180760000Y-79960000D01*
X181240000Y-79960000D01*
X181000000Y-80290000D01*
G36*
X181000000Y-80290000D02*
G01*
X180760000Y-79960000D01*
X181240000Y-79960000D01*
X181000000Y-80290000D01*
G37*
G04 #@! TO.C,R6*
X190077500Y-110262258D02*
X190077500Y-109787742D01*
X191122500Y-110262258D02*
X191122500Y-109787742D01*
G04 #@! TO.C,U16*
X115440000Y-85000000D02*
X115440000Y-83050000D01*
X115440000Y-85000000D02*
X115440000Y-86950000D01*
X120560000Y-85000000D02*
X120560000Y-83050000D01*
X120560000Y-85000000D02*
X120560000Y-86950000D01*
X115535000Y-87700000D02*
X115205000Y-87940000D01*
X115205000Y-87460000D01*
X115535000Y-87700000D01*
G36*
X115535000Y-87700000D02*
G01*
X115205000Y-87940000D01*
X115205000Y-87460000D01*
X115535000Y-87700000D01*
G37*
G04 #@! TO.C,R28*
X166077500Y-76837258D02*
X166077500Y-76362742D01*
X167122500Y-76837258D02*
X167122500Y-76362742D01*
G04 #@! TO.C,R13*
X186342500Y-106737258D02*
X186342500Y-106262742D01*
X187387500Y-106737258D02*
X187387500Y-106262742D01*
G04 #@! TO.C,R62*
X123977500Y-70237258D02*
X123977500Y-69762742D01*
X125022500Y-70237258D02*
X125022500Y-69762742D01*
G04 #@! TO.C,R64*
X127227500Y-59012742D02*
X127227500Y-59487258D01*
X128272500Y-59012742D02*
X128272500Y-59487258D01*
G04 #@! TO.C,C3*
X172190000Y-85659420D02*
X172190000Y-85940580D01*
X173210000Y-85659420D02*
X173210000Y-85940580D01*
G04 #@! TO.C,R4*
X187777500Y-94837258D02*
X187777500Y-94362742D01*
X188822500Y-94837258D02*
X188822500Y-94362742D01*
G04 #@! TO.C,R32*
X165362742Y-65077500D02*
X165837258Y-65077500D01*
X165362742Y-66122500D02*
X165837258Y-66122500D01*
G04 #@! TO.C,FB4*
X126990000Y-62662779D02*
X126990000Y-62337221D01*
X128010000Y-62662779D02*
X128010000Y-62337221D01*
G04 #@! TO.C,R23*
X158277500Y-90362742D02*
X158277500Y-90837258D01*
X159322500Y-90362742D02*
X159322500Y-90837258D01*
G04 #@! TO.C,D2*
X163710000Y-64150000D02*
X158200000Y-64150000D01*
X163710000Y-67450000D02*
X158200000Y-67450000D01*
X163710000Y-67450000D02*
X163710000Y-64150000D01*
G04 #@! TO.C,C8*
X167690000Y-76459420D02*
X167690000Y-76740580D01*
X168710000Y-76459420D02*
X168710000Y-76740580D01*
G04 #@! TO.C,R27*
X166077500Y-80037258D02*
X166077500Y-79562742D01*
X167122500Y-80037258D02*
X167122500Y-79562742D01*
G04 #@! TO.C,C6*
X156540580Y-80290000D02*
X156259420Y-80290000D01*
X156540580Y-81310000D02*
X156259420Y-81310000D01*
G04 #@! TO.C,U19*
X114000000Y-68440000D02*
X113200000Y-68440000D01*
X114000000Y-68440000D02*
X114800000Y-68440000D01*
X114000000Y-71560000D02*
X113200000Y-71560000D01*
X114000000Y-71560000D02*
X114800000Y-71560000D01*
X112700000Y-68490000D02*
X112460000Y-68160000D01*
X112940000Y-68160000D01*
X112700000Y-68490000D01*
G36*
X112700000Y-68490000D02*
G01*
X112460000Y-68160000D01*
X112940000Y-68160000D01*
X112700000Y-68490000D01*
G37*
G04 #@! TO.C,C1*
X184090000Y-113484420D02*
X184090000Y-113765580D01*
X185110000Y-113484420D02*
X185110000Y-113765580D01*
G04 #@! TO.C,U1*
X185540000Y-115625000D02*
X185540000Y-113675000D01*
X185540000Y-115625000D02*
X185540000Y-117575000D01*
X190660000Y-115625000D02*
X190660000Y-113675000D01*
X190660000Y-115625000D02*
X190660000Y-117575000D01*
X185635000Y-118325000D02*
X185305000Y-118565000D01*
X185305000Y-118085000D01*
X185635000Y-118325000D01*
G36*
X185635000Y-118325000D02*
G01*
X185305000Y-118565000D01*
X185305000Y-118085000D01*
X185635000Y-118325000D01*
G37*
G04 #@! TO.C,R51*
X114977500Y-79737258D02*
X114977500Y-79262742D01*
X116022500Y-79737258D02*
X116022500Y-79262742D01*
G04 #@! TO.C,U20*
X121500000Y-68440000D02*
X120700000Y-68440000D01*
X121500000Y-68440000D02*
X122300000Y-68440000D01*
X121500000Y-71560000D02*
X120700000Y-71560000D01*
X121500000Y-71560000D02*
X122300000Y-71560000D01*
X120200000Y-68490000D02*
X119960000Y-68160000D01*
X120440000Y-68160000D01*
X120200000Y-68490000D01*
G36*
X120200000Y-68490000D02*
G01*
X119960000Y-68160000D01*
X120440000Y-68160000D01*
X120200000Y-68490000D01*
G37*
G04 #@! TO.C,U6*
X158440000Y-85000000D02*
X158440000Y-83050000D01*
X158440000Y-85000000D02*
X158440000Y-86950000D01*
X163560000Y-85000000D02*
X163560000Y-83050000D01*
X163560000Y-85000000D02*
X163560000Y-86950000D01*
X158535000Y-87700000D02*
X158205000Y-87940000D01*
X158205000Y-87460000D01*
X158535000Y-87700000D01*
G36*
X158535000Y-87700000D02*
G01*
X158205000Y-87940000D01*
X158205000Y-87460000D01*
X158535000Y-87700000D01*
G37*
G04 #@! TO.C,R20*
X174577500Y-78837258D02*
X174577500Y-78362742D01*
X175622500Y-78837258D02*
X175622500Y-78362742D01*
G04 #@! TO.C,U3*
X173640000Y-87800000D02*
X173640000Y-85850000D01*
X173640000Y-87800000D02*
X173640000Y-89750000D01*
X178760000Y-87800000D02*
X178760000Y-85850000D01*
X178760000Y-87800000D02*
X178760000Y-89750000D01*
X173735000Y-90500000D02*
X173405000Y-90740000D01*
X173405000Y-90260000D01*
X173735000Y-90500000D01*
G36*
X173735000Y-90500000D02*
G01*
X173405000Y-90740000D01*
X173405000Y-90260000D01*
X173735000Y-90500000D01*
G37*
G04 #@! TD*
M02*
