M48
; DRILL file {KiCad 8.0.8} date 2025-03-26T21:35:13+0200
; FORMAT={-:-/ absolute / metric / decimal}
; #@! TF.CreationDate,2025-03-26T21:35:13+02:00
; #@! TF.GenerationSoftware,Kicad,Pcbnew,8.0.8
; #@! TF.FileFunction,Plated,1,2,PTH
FMAT,2
METRIC
; #@! TA.AperFunction,Plated,PTH,ViaDrill
T1C0.300
; #@! TA.AperFunction,Plated,PTH,ViaDrill
T2C0.400
; #@! TA.AperFunction,Plated,PTH,ComponentDrill
T3C0.500
; #@! TA.AperFunction,Plated,PTH,ComponentDrill
T4C0.890
; #@! TA.AperFunction,Plated,PTH,ComponentDrill
T5C1.000
; #@! TA.AperFunction,Plated,PTH,ComponentDrill
T6C1.800
; #@! TA.AperFunction,Plated,PTH,ComponentDrill
T7C3.200
%
G90
G05
T1
X118.6Y-67.8
X121.4Y-73.4
X125.443Y-66.557
X125.8Y-65.8
X126.4Y-60.8
X137.2Y-92.6
X146.4Y-87.6
X149.0Y-139.8
X150.8Y-135.6
X151.0Y-138.8
X156.0Y-78.0
X157.6Y-87.8
X159.6Y-136.0
X159.8Y-76.2
X160.2Y-139.6
X160.8Y-137.8
X161.6Y-105.4
X162.468Y-85.868
X163.4Y-104.0
X166.0Y-78.2
X171.2Y-136.4
X180.0Y-133.0
X181.8Y-134.6
X191.6Y-63.4
X192.4Y-65.4
T2
X107.1Y-81.2
X113.1Y-84.3
X113.9Y-68.1
X114.1Y-71.8
X114.5Y-81.1
X116.3Y-77.5
X119.496Y-69.806
X119.6Y-84.6
X121.0Y-58.4
X121.4Y-71.7
X121.5Y-81.0
X121.6Y-85.4
X127.5Y-77.7
X127.8Y-83.6
X129.7Y-67.5
X131.2Y-64.4
X138.8Y-134.6
X140.6Y-89.2
X153.8Y-85.6
X154.85Y-81.6
X156.2Y-62.2
X156.6Y-67.6
X164.8Y-88.2
X171.4Y-82.8
X172.2Y-87.8
X174.4Y-83.8
X179.2Y-84.0
X180.2Y-81.8
X184.2Y-110.8
X185.2Y-81.8
X185.2Y-112.2
X185.6Y-84.2
X186.6Y-83.6
X190.0Y-92.4
X191.8Y-111.4
X192.6Y-109.4
X193.4Y-84.2
X197.4Y-109.4
T3
X101.6Y-54.0
X101.6Y-146.0
X102.303Y-52.303
X102.303Y-55.697
X102.303Y-144.303
X102.303Y-147.697
X104.0Y-51.6
X104.0Y-56.4
X104.0Y-143.6
X104.0Y-148.4
X105.697Y-52.303
X105.697Y-55.697
X105.697Y-144.303
X105.697Y-147.697
X106.4Y-54.0
X106.4Y-146.0
X193.6Y-54.0
X193.6Y-146.0
X194.303Y-52.303
X194.303Y-55.697
X194.303Y-144.303
X194.303Y-147.697
X196.0Y-51.6
X196.0Y-56.4
X196.0Y-143.6
X196.0Y-148.4
X197.697Y-52.303
X197.697Y-55.697
X197.697Y-144.303
X197.697Y-147.697
X198.4Y-54.0
X198.4Y-146.0
T4
X110.51Y-61.57
X112.8Y-61.57
X113.8Y-54.98
X114.82Y-56.76
X115.84Y-54.98
X116.86Y-56.76
X117.88Y-54.98
X118.9Y-56.76
X119.92Y-54.98
X120.94Y-56.76
X121.94Y-61.57
X124.23Y-61.57
T5
X134.76Y-143.0
X134.76Y-145.54
X137.3Y-143.0
X137.3Y-145.54
X139.84Y-143.0
X139.84Y-145.54
X142.38Y-143.0
X142.38Y-145.54
X144.92Y-143.0
X144.92Y-145.54
X147.46Y-143.0
X147.46Y-145.54
X150.0Y-143.0
X150.0Y-145.54
X152.54Y-143.0
X152.54Y-145.54
X155.08Y-143.0
X155.08Y-145.54
X157.62Y-143.0
X157.62Y-145.54
X160.16Y-143.0
X160.16Y-145.54
X162.7Y-143.0
X162.7Y-145.54
X165.24Y-143.0
X165.24Y-145.54
X166.2Y-57.54
X166.2Y-60.04
X169.7Y-57.54
X169.7Y-60.04
X173.2Y-57.54
X173.2Y-60.04
X176.7Y-57.54
X176.7Y-60.04
X180.2Y-57.54
X180.2Y-60.04
T6
X109.24Y-56.0
X125.5Y-56.0
T7
X104.0Y-54.0
X104.0Y-146.0
X196.0Y-54.0
X196.0Y-146.0
M30
