M48
; DRILL file {KiCad 8.0.5} date 2024-09-22T18:01:03+0300
; FORMAT={-:-/ absolute / metric / decimal}
; #@! TF.CreationDate,2024-09-22T18:01:03+03:00
; #@! TF.GenerationSoftware,Kicad,Pcbnew,8.0.5
; #@! TF.FileFunction,MixedPlating,1,2
FMAT,2
METRIC
; #@! TA.AperFunction,Plated,PTH,ViaDrill
T1C0.300
; #@! TA.AperFunction,Plated,PTH,ComponentDrill
T2C0.500
; #@! TA.AperFunction,Plated,PTH,ComponentDrill
T3C0.890
; #@! TA.AperFunction,Plated,PTH,ComponentDrill
T4C1.000
; #@! TA.AperFunction,Plated,PTH,ComponentDrill
T5C1.800
; #@! TA.AperFunction,Plated,PTH,ComponentDrill
T6C3.200
; #@! TA.AperFunction,NonPlated,NPTH,ComponentDrill
T7C3.250
%
G90
G05
T1
X80.2Y-65.8
X81.8Y-77.2
X82.6Y-110.5
X85.0Y-73.4
X86.7Y-128.6
X87.0Y-99.2
X87.2Y-142.0
X87.3Y-110.1
X88.1Y-124.2
X89.2Y-85.6
X89.75Y-95.5
X90.4Y-74.2
X90.5Y-105.3
X90.7Y-127.9
X91.0Y-122.3
X91.1Y-112.4
X91.1Y-119.6
X91.2Y-72.0
X91.5Y-66.3
X92.2Y-131.0
X92.4Y-149.9
X93.0Y-77.5
X93.1Y-81.1
X93.3Y-68.7
X93.5Y-134.3
X94.9Y-121.4
X95.1Y-88.7
X96.2Y-72.1
X97.2Y-121.3
X97.2Y-136.5
X97.4Y-109.7
X98.9Y-103.2
X99.3Y-85.5
X99.4Y-114.8
X100.5Y-78.0
X100.6Y-145.7
X101.0Y-73.9
X101.1Y-117.7
X101.5Y-72.1
X102.0Y-83.0
X103.05Y-145.25
X103.5Y-58.3
X103.8Y-65.3
X104.4Y-71.7
X105.2Y-121.6
X105.2Y-135.2
X105.7Y-109.7
X105.9Y-143.9
X106.8Y-124.8
X107.4Y-127.8
X107.5Y-151.1
X107.8Y-73.6
X108.2Y-138.6
X110.0Y-85.5
X111.5Y-73.9
X111.5Y-77.5
X111.5Y-95.5
X112.3Y-135.6
X112.8Y-67.1
X112.9Y-72.0
X113.3Y-127.8
X113.4Y-121.1
X114.9Y-67.7
X115.2Y-131.0
X115.4Y-141.1
X115.5Y-81.0
X115.6Y-134.1
X115.6Y-136.1
X116.4Y-131.0
X117.0Y-77.5
X117.2Y-88.8
X117.5Y-72.1
X117.8Y-131.0
X118.9Y-120.7
X119.0Y-113.9
X119.3Y-131.0
X120.9Y-85.5
X121.2Y-145.5
X121.5Y-117.7
X122.1Y-133.3
X122.3Y-73.9
X122.4Y-112.3
X122.4Y-120.3
X122.6Y-72.0
X123.0Y-78.5
X123.2Y-117.7
X123.5Y-135.7
X124.0Y-117.7
X124.0Y-133.0
X124.0Y-141.7
X124.2Y-124.8
X124.8Y-58.4
X124.9Y-69.3
X125.3Y-124.8
X126.6Y-124.8
X127.7Y-73.4
X128.3Y-112.4
X128.9Y-94.6
X128.9Y-124.8
X130.0Y-119.5
X130.5Y-138.6
X131.0Y-85.3
X131.6Y-131.3
X132.7Y-74.0
X133.5Y-72.0
X134.0Y-65.9
X134.1Y-121.1
X134.2Y-85.7
X134.2Y-139.0
X135.5Y-77.0
X135.5Y-95.5
X135.8Y-98.2
X135.9Y-101.3
X136.0Y-81.5
X136.1Y-67.3
X136.1Y-109.7
X136.1Y-138.8
X138.6Y-72.0
X139.075Y-128.0
X140.5Y-88.6
X141.5Y-84.9
X142.0Y-121.5
X142.1Y-102.3
X142.1Y-113.3
X142.4Y-135.4
X142.9Y-95.7
X143.0Y-77.5
X143.5Y-74.2
X143.5Y-117.7
X144.6Y-71.9
X146.3Y-57.8
X146.5Y-70.4
X146.5Y-85.6
X146.8Y-121.2
X147.0Y-78.0
X147.5Y-108.9
X147.9Y-131.3
X149.4Y-150.7
X149.7Y-124.8
X149.9Y-73.5
X153.8Y-85.2
X153.9Y-124.1
X153.9Y-130.9
X154.0Y-78.0
X154.3Y-95.5
X154.4Y-99.6
X154.7Y-71.6
X154.9Y-74.1
X155.4Y-65.9
X155.9Y-106.8
X156.4Y-112.3
X156.4Y-123.8
X157.2Y-67.2
X157.2Y-130.3
X157.5Y-81.0
X157.825Y-128.1
X158.1Y-139.4
X158.7Y-87.8
X159.4Y-124.8
X159.5Y-99.8
X159.6Y-71.4
X161.8Y-84.8
X162.4Y-105.2
X163.0Y-78.0
X163.6Y-74.0
X163.9Y-113.3
X164.5Y-85.5
X165.8Y-71.7
X168.7Y-64.9
X169.8Y-112.4
X171.0Y-68.4
T2
X76.6Y-59.0
X76.6Y-151.0
X77.303Y-57.303
X77.303Y-60.697
X77.303Y-149.303
X77.303Y-152.697
X79.0Y-56.6
X79.0Y-61.4
X79.0Y-148.6
X79.0Y-153.4
X80.697Y-57.303
X80.697Y-60.697
X80.697Y-149.303
X80.697Y-152.697
X81.4Y-59.0
X81.4Y-151.0
X168.6Y-59.0
X168.6Y-151.0
X169.303Y-57.303
X169.303Y-60.697
X169.303Y-149.303
X169.303Y-152.697
X171.0Y-56.6
X171.0Y-61.4
X171.0Y-148.6
X171.0Y-153.4
X172.697Y-57.303
X172.697Y-60.697
X172.697Y-149.303
X172.697Y-152.697
X173.4Y-59.0
X173.4Y-151.0
T3
X86.14Y-66.88
X88.43Y-66.88
X89.43Y-60.29
X90.45Y-62.07
X91.47Y-60.29
X92.49Y-62.07
X93.51Y-60.29
X94.53Y-62.07
X95.55Y-60.29
X96.57Y-62.07
X97.57Y-66.88
X99.86Y-66.88
X107.473Y-66.88
X109.763Y-66.88
X110.763Y-60.29
X111.783Y-62.07
X112.803Y-60.29
X113.823Y-62.07
X114.843Y-60.29
X115.863Y-62.07
X116.883Y-60.29
X117.903Y-62.07
X118.903Y-66.88
X121.193Y-66.88
X128.807Y-66.88
X131.097Y-66.88
X132.097Y-60.29
X133.117Y-62.07
X134.137Y-60.29
X135.157Y-62.07
X136.177Y-60.29
X137.197Y-62.07
X138.217Y-60.29
X139.237Y-62.07
X140.237Y-66.88
X142.527Y-66.88
X150.14Y-66.88
X152.43Y-66.88
X153.43Y-60.29
X154.45Y-62.07
X155.47Y-60.29
X156.49Y-62.07
X157.51Y-60.29
X158.53Y-62.07
X159.55Y-60.29
X160.57Y-62.07
X161.57Y-66.88
X163.86Y-66.88
T4
X109.745Y-148.35
X109.745Y-150.89
X112.285Y-148.35
X112.285Y-150.89
X114.825Y-148.35
X114.825Y-150.89
X117.365Y-148.35
X117.365Y-150.89
X119.905Y-148.35
X119.905Y-150.89
X122.445Y-148.35
X122.445Y-150.89
X124.985Y-148.35
X124.985Y-150.89
X127.525Y-148.35
X127.525Y-150.89
X130.065Y-148.35
X130.065Y-150.89
X132.605Y-148.35
X132.605Y-150.89
X135.145Y-148.35
X135.145Y-150.89
X137.685Y-148.35
X137.685Y-150.89
X140.225Y-148.35
X140.225Y-150.89
T5
X84.87Y-61.31
X101.13Y-61.31
X106.203Y-61.31
X122.463Y-61.31
X127.537Y-61.31
X143.797Y-61.31
X148.87Y-61.31
X165.13Y-61.31
T6
X79.0Y-59.0
X79.0Y-151.0
X171.0Y-59.0
X171.0Y-151.0
T7
X86.65Y-57.75
X99.35Y-57.75
X107.983Y-57.75
X120.683Y-57.75
X129.317Y-57.75
X142.017Y-57.75
X150.65Y-57.75
X163.35Y-57.75
M30
