G04 #@! TF.GenerationSoftware,KiCad,Pcbnew,8.0.5*
G04 #@! TF.CreationDate,2024-09-25T12:15:50+03:00*
G04 #@! TF.ProjectId,rioctrl-stepdir4,72696f63-7472-46c2-9d73-746570646972,rev?*
G04 #@! TF.SameCoordinates,Original*
G04 #@! TF.FileFunction,Copper,L2,Bot*
G04 #@! TF.FilePolarity,Positive*
%FSLAX46Y46*%
G04 Gerber Fmt 4.6, Leading zero omitted, Abs format (unit mm)*
G04 Created by KiCad (PCBNEW 8.0.5) date 2024-09-25 12:15:50*
%MOMM*%
%LPD*%
G01*
G04 APERTURE LIST*
G04 #@! TA.AperFunction,ComponentPad*
%ADD10R,1.700000X1.700000*%
G04 #@! TD*
G04 #@! TA.AperFunction,ComponentPad*
%ADD11O,1.700000X1.700000*%
G04 #@! TD*
G04 #@! TA.AperFunction,ComponentPad*
%ADD12C,1.500000*%
G04 #@! TD*
G04 #@! TA.AperFunction,ComponentPad*
%ADD13C,2.600000*%
G04 #@! TD*
G04 #@! TA.AperFunction,ComponentPad*
%ADD14C,0.800000*%
G04 #@! TD*
G04 #@! TA.AperFunction,ComponentPad*
%ADD15C,6.400000*%
G04 #@! TD*
G04 #@! TA.AperFunction,ViaPad*
%ADD16C,0.600000*%
G04 #@! TD*
G04 #@! TA.AperFunction,Conductor*
%ADD17C,0.500000*%
G04 #@! TD*
G04 #@! TA.AperFunction,Conductor*
%ADD18C,0.200000*%
G04 #@! TD*
G04 #@! TA.AperFunction,Conductor*
%ADD19C,1.000000*%
G04 #@! TD*
G04 APERTURE END LIST*
D10*
G04 #@! TO.P,J1,1,Pin_1*
G04 #@! TO.N,GND*
X140225000Y-148350000D03*
D11*
G04 #@! TO.P,J1,2,Pin_2*
X140225000Y-150890000D03*
G04 #@! TO.P,J1,3,Pin_3*
G04 #@! TO.N,/Slot input/S0*
X137685000Y-148350000D03*
G04 #@! TO.P,J1,4,Pin_4*
G04 #@! TO.N,/Slot input/S6*
X137685000Y-150890000D03*
G04 #@! TO.P,J1,5,Pin_5*
G04 #@! TO.N,/Slot input/S1*
X135145000Y-148350000D03*
G04 #@! TO.P,J1,6,Pin_6*
G04 #@! TO.N,/Slot input/S7*
X135145000Y-150890000D03*
G04 #@! TO.P,J1,7,Pin_7*
G04 #@! TO.N,/Slot input/S2*
X132605000Y-148350000D03*
G04 #@! TO.P,J1,8,Pin_8*
G04 #@! TO.N,/Slot input/S8*
X132605000Y-150890000D03*
G04 #@! TO.P,J1,9,Pin_9*
G04 #@! TO.N,/Slot input/S3*
X130065000Y-148350000D03*
G04 #@! TO.P,J1,10,Pin_10*
G04 #@! TO.N,/Slot input/S9*
X130065000Y-150890000D03*
G04 #@! TO.P,J1,11,Pin_11*
G04 #@! TO.N,/Slot input/S4*
X127525000Y-148350000D03*
G04 #@! TO.P,J1,12,Pin_12*
G04 #@! TO.N,/Slot input/S10*
X127525000Y-150890000D03*
G04 #@! TO.P,J1,13,Pin_13*
G04 #@! TO.N,/Slot input/S5*
X124985000Y-148350000D03*
G04 #@! TO.P,J1,14,Pin_14*
G04 #@! TO.N,/Slot input/S11*
X124985000Y-150890000D03*
G04 #@! TO.P,J1,15,Pin_15*
G04 #@! TO.N,GND*
X122445000Y-148350000D03*
G04 #@! TO.P,J1,16,Pin_16*
X122445000Y-150890000D03*
G04 #@! TO.P,J1,17,Pin_17*
G04 #@! TO.N,+3V3*
X119905000Y-148350000D03*
G04 #@! TO.P,J1,18,Pin_18*
X119905000Y-150890000D03*
G04 #@! TO.P,J1,19,Pin_19*
G04 #@! TO.N,+5V*
X117365000Y-148350000D03*
G04 #@! TO.P,J1,20,Pin_20*
X117365000Y-150890000D03*
G04 #@! TO.P,J1,21,Pin_21*
G04 #@! TO.N,+24V*
X114825000Y-148350000D03*
G04 #@! TO.P,J1,22,Pin_22*
X114825000Y-150890000D03*
G04 #@! TO.P,J1,23,Pin_23*
G04 #@! TO.N,/Slot input/SlotEN*
X112285000Y-148350000D03*
G04 #@! TO.P,J1,24,Pin_24*
X112285000Y-150890000D03*
G04 #@! TO.P,J1,25,Pin_25*
G04 #@! TO.N,GND*
X109745000Y-148350000D03*
G04 #@! TO.P,J1,26,Pin_26*
X109745000Y-150890000D03*
G04 #@! TD*
D12*
G04 #@! TO.P,J2,1*
G04 #@! TO.N,/Step dir output 4/STEP_OUT_P_P*
X153430000Y-60290000D03*
G04 #@! TO.P,J2,2*
G04 #@! TO.N,/Step dir output 4/STEP_OUT_P_N*
X154450000Y-62070000D03*
G04 #@! TO.P,J2,3*
G04 #@! TO.N,/Step dir output 4/DIR_OUT_P_P*
X155470000Y-60290000D03*
G04 #@! TO.P,J2,4*
G04 #@! TO.N,/Step dir output 4/EN_OUT*
X156490000Y-62070000D03*
G04 #@! TO.P,J2,5*
G04 #@! TO.N,GND*
X157510000Y-60290000D03*
G04 #@! TO.P,J2,6*
G04 #@! TO.N,/Step dir output 4/DIR_OUT_P_N*
X158530000Y-62070000D03*
G04 #@! TO.P,J2,7*
G04 #@! TO.N,GND*
X159550000Y-60290000D03*
G04 #@! TO.P,J2,8*
X160570000Y-62070000D03*
G04 #@! TO.P,J2,9*
G04 #@! TO.N,Net-(J2-Pad9)*
X150140000Y-66880000D03*
G04 #@! TO.P,J2,10*
G04 #@! TO.N,/Step dir output 4/EN_OUT*
X152430000Y-66880000D03*
G04 #@! TO.P,J2,11*
G04 #@! TO.N,unconnected-(J2-Pad11)*
X161570000Y-66880000D03*
G04 #@! TO.P,J2,12*
G04 #@! TO.N,unconnected-(J2-Pad12)*
X163860000Y-66880000D03*
D13*
G04 #@! TO.P,J2,SH*
G04 #@! TO.N,GND*
X165130000Y-61310000D03*
X148870000Y-61310000D03*
G04 #@! TD*
D14*
G04 #@! TO.P,H4,1,1*
G04 #@! TO.N,GND*
X76600000Y-151000000D03*
X77302944Y-149302944D03*
X77302944Y-152697056D03*
X79000000Y-148600000D03*
D15*
X79000000Y-151000000D03*
D14*
X79000000Y-153400000D03*
X80697056Y-149302944D03*
X80697056Y-152697056D03*
X81400000Y-151000000D03*
G04 #@! TD*
G04 #@! TO.P,H2,1,1*
G04 #@! TO.N,GND*
X168600000Y-59000000D03*
X169302944Y-57302944D03*
X169302944Y-60697056D03*
X171000000Y-56600000D03*
D15*
X171000000Y-59000000D03*
D14*
X171000000Y-61400000D03*
X172697056Y-57302944D03*
X172697056Y-60697056D03*
X173400000Y-59000000D03*
G04 #@! TD*
D12*
G04 #@! TO.P,J4,1*
G04 #@! TO.N,/Step dir output 2/STEP_OUT_P_P*
X110763333Y-60290000D03*
G04 #@! TO.P,J4,2*
G04 #@! TO.N,/Step dir output 2/STEP_OUT_P_N*
X111783333Y-62070000D03*
G04 #@! TO.P,J4,3*
G04 #@! TO.N,/Step dir output 2/DIR_OUT_P_P*
X112803333Y-60290000D03*
G04 #@! TO.P,J4,4*
G04 #@! TO.N,/Step dir output 2/EN_OUT*
X113823333Y-62070000D03*
G04 #@! TO.P,J4,5*
G04 #@! TO.N,GND*
X114843333Y-60290000D03*
G04 #@! TO.P,J4,6*
G04 #@! TO.N,/Step dir output 2/DIR_OUT_P_N*
X115863333Y-62070000D03*
G04 #@! TO.P,J4,7*
G04 #@! TO.N,GND*
X116883333Y-60290000D03*
G04 #@! TO.P,J4,8*
X117903333Y-62070000D03*
G04 #@! TO.P,J4,9*
G04 #@! TO.N,Net-(J4-Pad9)*
X107473333Y-66880000D03*
G04 #@! TO.P,J4,10*
G04 #@! TO.N,/Step dir output 2/EN_OUT*
X109763333Y-66880000D03*
G04 #@! TO.P,J4,11*
G04 #@! TO.N,unconnected-(J4-Pad11)*
X118903333Y-66880000D03*
G04 #@! TO.P,J4,12*
G04 #@! TO.N,unconnected-(J4-Pad12)*
X121193333Y-66880000D03*
D13*
G04 #@! TO.P,J4,SH*
G04 #@! TO.N,GND*
X122463333Y-61310000D03*
X106203333Y-61310000D03*
G04 #@! TD*
D12*
G04 #@! TO.P,J3,1*
G04 #@! TO.N,/Step dir output 3/STEP_OUT_P_P*
X132096666Y-60290000D03*
G04 #@! TO.P,J3,2*
G04 #@! TO.N,/Step dir output 3/STEP_OUT_P_N*
X133116666Y-62070000D03*
G04 #@! TO.P,J3,3*
G04 #@! TO.N,/Step dir output 3/DIR_OUT_P_P*
X134136666Y-60290000D03*
G04 #@! TO.P,J3,4*
G04 #@! TO.N,/Step dir output 3/EN_OUT*
X135156666Y-62070000D03*
G04 #@! TO.P,J3,5*
G04 #@! TO.N,GND*
X136176666Y-60290000D03*
G04 #@! TO.P,J3,6*
G04 #@! TO.N,/Step dir output 3/DIR_OUT_P_N*
X137196666Y-62070000D03*
G04 #@! TO.P,J3,7*
G04 #@! TO.N,GND*
X138216666Y-60290000D03*
G04 #@! TO.P,J3,8*
X139236666Y-62070000D03*
G04 #@! TO.P,J3,9*
G04 #@! TO.N,Net-(J3-Pad9)*
X128806666Y-66880000D03*
G04 #@! TO.P,J3,10*
G04 #@! TO.N,/Step dir output 3/EN_OUT*
X131096666Y-66880000D03*
G04 #@! TO.P,J3,11*
G04 #@! TO.N,unconnected-(J3-Pad11)*
X140236666Y-66880000D03*
G04 #@! TO.P,J3,12*
G04 #@! TO.N,unconnected-(J3-Pad12)*
X142526666Y-66880000D03*
D13*
G04 #@! TO.P,J3,SH*
G04 #@! TO.N,GND*
X143796666Y-61310000D03*
X127536666Y-61310000D03*
G04 #@! TD*
D14*
G04 #@! TO.P,H1,1,1*
G04 #@! TO.N,GND*
X76600000Y-59000000D03*
X77302944Y-57302944D03*
X77302944Y-60697056D03*
X79000000Y-56600000D03*
D15*
X79000000Y-59000000D03*
D14*
X79000000Y-61400000D03*
X80697056Y-57302944D03*
X80697056Y-60697056D03*
X81400000Y-59000000D03*
G04 #@! TD*
G04 #@! TO.P,H3,1,1*
G04 #@! TO.N,GND*
X168600000Y-151000000D03*
X169302944Y-149302944D03*
X169302944Y-152697056D03*
X171000000Y-148600000D03*
D15*
X171000000Y-151000000D03*
D14*
X171000000Y-153400000D03*
X172697056Y-149302944D03*
X172697056Y-152697056D03*
X173400000Y-151000000D03*
G04 #@! TD*
D12*
G04 #@! TO.P,J5,1*
G04 #@! TO.N,/Step dir output 1/STEP_OUT_P_P*
X89430000Y-60290000D03*
G04 #@! TO.P,J5,2*
G04 #@! TO.N,/Step dir output 1/STEP_OUT_P_N*
X90450000Y-62070000D03*
G04 #@! TO.P,J5,3*
G04 #@! TO.N,/Step dir output 1/DIR_OUT_P_P*
X91470000Y-60290000D03*
G04 #@! TO.P,J5,4*
G04 #@! TO.N,/Step dir output 1/EN_OUT*
X92490000Y-62070000D03*
G04 #@! TO.P,J5,5*
G04 #@! TO.N,GND*
X93510000Y-60290000D03*
G04 #@! TO.P,J5,6*
G04 #@! TO.N,/Step dir output 1/DIR_OUT_P_N*
X94530000Y-62070000D03*
G04 #@! TO.P,J5,7*
G04 #@! TO.N,GND*
X95550000Y-60290000D03*
G04 #@! TO.P,J5,8*
X96570000Y-62070000D03*
G04 #@! TO.P,J5,9*
G04 #@! TO.N,Net-(J5-Pad9)*
X86140000Y-66880000D03*
G04 #@! TO.P,J5,10*
G04 #@! TO.N,/Step dir output 1/EN_OUT*
X88430000Y-66880000D03*
G04 #@! TO.P,J5,11*
G04 #@! TO.N,unconnected-(J5-Pad11)*
X97570000Y-66880000D03*
G04 #@! TO.P,J5,12*
G04 #@! TO.N,unconnected-(J5-Pad12)*
X99860000Y-66880000D03*
D13*
G04 #@! TO.P,J5,SH*
G04 #@! TO.N,GND*
X101130000Y-61310000D03*
X84870000Y-61310000D03*
G04 #@! TD*
D16*
G04 #@! TO.N,GND*
X105700000Y-109700000D03*
X91100000Y-112400000D03*
X111500000Y-95500000D03*
X123500000Y-135700000D03*
X82600000Y-110500000D03*
X143500000Y-74200000D03*
X112900000Y-72000000D03*
X147900000Y-131300000D03*
X153900000Y-130900000D03*
X104400000Y-71700000D03*
X130000000Y-119500000D03*
X115600000Y-134100000D03*
X89200000Y-85600000D03*
X108200000Y-138600000D03*
X157500000Y-81000000D03*
X149900000Y-73500000D03*
X102000000Y-83000000D03*
X156400000Y-123800000D03*
X122400000Y-112300000D03*
X154700000Y-71600000D03*
X158700000Y-87800000D03*
X113300000Y-127800000D03*
X91100000Y-119600000D03*
X146800000Y-121200000D03*
X93100000Y-81100000D03*
X135500000Y-77000000D03*
X93300000Y-68700000D03*
X142100000Y-102300000D03*
X105200000Y-121600000D03*
X154900000Y-74100000D03*
X156400000Y-112300000D03*
X140500000Y-88600000D03*
X143000000Y-77500000D03*
X142100000Y-113300000D03*
X164500000Y-85500000D03*
X80200000Y-65800000D03*
X134200000Y-139000000D03*
X163600000Y-74000000D03*
X114900000Y-67700000D03*
X95100000Y-88700000D03*
X115400000Y-141100000D03*
X103800000Y-65300000D03*
X90400000Y-74200000D03*
X163000000Y-78000000D03*
X87200000Y-142000000D03*
X97200000Y-136500000D03*
X146500000Y-70400000D03*
X99400000Y-114800000D03*
X111500000Y-77500000D03*
X159500000Y-99800000D03*
X142400000Y-135400000D03*
X113400000Y-121100000D03*
X146300000Y-57800000D03*
X122300000Y-73900000D03*
X89750000Y-95500000D03*
X107500000Y-151100000D03*
X94900000Y-121400000D03*
X92400000Y-149900000D03*
X98900000Y-103200000D03*
X157200000Y-130300000D03*
X132700000Y-74000000D03*
X133500000Y-72000000D03*
X107800000Y-73600000D03*
X93500000Y-134300000D03*
X91200000Y-72000000D03*
X115600000Y-136100000D03*
X168700000Y-64900000D03*
X157200000Y-67200000D03*
X149400000Y-150700000D03*
X110000000Y-85500000D03*
X128900000Y-94600000D03*
X93000000Y-77500000D03*
X99300000Y-85500000D03*
X118900000Y-120700000D03*
X97200000Y-121300000D03*
X147000000Y-78000000D03*
X154300000Y-95500000D03*
X124800000Y-58400000D03*
X169800000Y-112400000D03*
X124900000Y-69300000D03*
X153800000Y-85200000D03*
X171000000Y-68400000D03*
X90500000Y-105300000D03*
X127700000Y-73400000D03*
X124000000Y-141700000D03*
X117000000Y-77500000D03*
X136000000Y-81500000D03*
X136100000Y-138800000D03*
X107400000Y-127800000D03*
X141500000Y-84900000D03*
X115500000Y-81000000D03*
X134100000Y-121100000D03*
X103500000Y-58300000D03*
X128300000Y-112400000D03*
X131000000Y-85300000D03*
X146500000Y-85600000D03*
X122400000Y-120300000D03*
X86700000Y-128600000D03*
X90700000Y-127900000D03*
X123000000Y-78500000D03*
X154400000Y-99600000D03*
X87000000Y-99200000D03*
X87300000Y-110100000D03*
X130500000Y-138600000D03*
X131600000Y-131300000D03*
X159400000Y-124800000D03*
X158100000Y-139400000D03*
X97400000Y-109700000D03*
X136100000Y-109700000D03*
X147500000Y-108900000D03*
X136100000Y-67300000D03*
X154000000Y-78000000D03*
X85000000Y-73400000D03*
X101000000Y-73900000D03*
X117200000Y-88800000D03*
X105200000Y-135200000D03*
X91000000Y-122300000D03*
X81800000Y-77200000D03*
X142000000Y-121500000D03*
X111500000Y-73900000D03*
X100500000Y-78000000D03*
X161800000Y-84800000D03*
X119000000Y-113900000D03*
X120900000Y-85500000D03*
X153900000Y-124100000D03*
X135500000Y-95500000D03*
G04 #@! TO.N,+5V*
X124000000Y-117700000D03*
X165800000Y-71700000D03*
X117500000Y-72100000D03*
X138600000Y-72000000D03*
X143500000Y-117700000D03*
X121500000Y-117700000D03*
X101500000Y-72100000D03*
X163900000Y-113300000D03*
X123200000Y-117700000D03*
X144600000Y-71900000D03*
X122600000Y-72000000D03*
X101100000Y-117700000D03*
X159600000Y-71400000D03*
X96200000Y-72100000D03*
G04 #@! TO.N,/Slot input/S6*
X122100000Y-133300000D03*
G04 #@! TO.N,/Slot input/S11*
X100600000Y-145700000D03*
G04 #@! TO.N,/Slot input/SlotEN*
X121200000Y-145500000D03*
G04 #@! TO.N,/Slot input/S10*
X105900000Y-143900000D03*
G04 #@! TO.N,/Slot input/S7*
X124000000Y-133000000D03*
G04 #@! TO.N,/Slot input/S3*
X135800000Y-98200000D03*
X134200000Y-85700000D03*
G04 #@! TO.N,/Slot input/S4*
X135900000Y-101300000D03*
X142900000Y-95700000D03*
G04 #@! TO.N,/Slot input/S9*
X103050000Y-145250000D03*
G04 #@! TO.N,/Slot input/S8*
X112300000Y-135600000D03*
G04 #@! TO.N,/Slot input/S1*
X162400000Y-105200000D03*
X155900000Y-106800000D03*
G04 #@! TO.N,/Step dir output 4/STEP_OUT_P_P*
X155400000Y-65900000D03*
G04 #@! TO.N,+24V_EN*
X116400000Y-131000000D03*
X139075000Y-128000000D03*
X119300000Y-131000000D03*
X115200000Y-131000000D03*
X157825000Y-128100000D03*
X92200000Y-131000000D03*
X117800000Y-131000000D03*
G04 #@! TO.N,+5V_EN*
X88100000Y-124200000D03*
X125300000Y-124800000D03*
X124200000Y-124800000D03*
X149700000Y-124800000D03*
X128900000Y-124800000D03*
X106800000Y-124800000D03*
X126600000Y-124800000D03*
G04 #@! TO.N,/Step dir output 1/STEP_OUT_P_P*
X91500000Y-66300000D03*
G04 #@! TO.N,/Step dir output 2/STEP_OUT_P_P*
X112800000Y-67100000D03*
G04 #@! TO.N,/Step dir output 3/STEP_OUT_P_P*
X134000000Y-65900000D03*
G04 #@! TD*
D17*
G04 #@! TO.N,/Step dir output 4/EN_OUT*
X156490000Y-65870661D02*
X155480661Y-66880000D01*
X156490000Y-62070000D02*
X156490000Y-65870661D01*
X155480661Y-66880000D02*
X152430000Y-66880000D01*
G04 #@! TO.N,+5V*
X138600000Y-72000000D02*
X144500000Y-72000000D01*
X123200000Y-117700000D02*
X124000000Y-117700000D01*
X101500000Y-72100000D02*
X96200000Y-72100000D01*
X144500000Y-72000000D02*
X144600000Y-71900000D01*
X122100000Y-72100000D02*
X117500000Y-72100000D01*
X122200000Y-72000000D02*
X122100000Y-72100000D01*
X122600000Y-72000000D02*
X122200000Y-72000000D01*
X165500000Y-71400000D02*
X165800000Y-71700000D01*
X163900000Y-113300000D02*
X159500000Y-117700000D01*
X123200000Y-117700000D02*
X121500000Y-117700000D01*
X159600000Y-71400000D02*
X165500000Y-71400000D01*
X159500000Y-117700000D02*
X143500000Y-117700000D01*
X121500000Y-117700000D02*
X101100000Y-117700000D01*
X124000000Y-117700000D02*
X143500000Y-117700000D01*
D18*
G04 #@! TO.N,/Slot input/S6*
X122100000Y-133300000D02*
X122100000Y-132600000D01*
X124700000Y-131900000D02*
X125200000Y-131900000D01*
X136400000Y-149605000D02*
X137685000Y-150890000D01*
X122800000Y-131900000D02*
X124700000Y-131900000D01*
X122100000Y-132600000D02*
X122800000Y-131900000D01*
X136400000Y-143100000D02*
X136400000Y-149605000D01*
X125200000Y-131900000D02*
X136400000Y-143100000D01*
G04 #@! TO.N,/Slot input/S11*
X107700000Y-144600000D02*
X122200000Y-144600000D01*
X122200000Y-144600000D02*
X123700000Y-146100000D01*
X123700000Y-146100000D02*
X123700000Y-149605000D01*
X101900000Y-147000000D02*
X105300000Y-147000000D01*
X100600000Y-145700000D02*
X101900000Y-147000000D01*
X123700000Y-149605000D02*
X124985000Y-150890000D01*
X105300000Y-147000000D02*
X107700000Y-144600000D01*
G04 #@! TO.N,/Slot input/SlotEN*
X113800000Y-145500000D02*
X112300000Y-147000000D01*
X112300000Y-147100000D02*
X112285000Y-147115000D01*
X112300000Y-147000000D02*
X112300000Y-147100000D01*
X112285000Y-147115000D02*
X112285000Y-148350000D01*
X121200000Y-145500000D02*
X113800000Y-145500000D01*
G04 #@! TO.N,/Slot input/S10*
X105900000Y-143900000D02*
X106200000Y-143600000D01*
X126200000Y-146700000D02*
X126200000Y-149565000D01*
X126200000Y-149565000D02*
X127525000Y-150890000D01*
X106200000Y-143600000D02*
X123100000Y-143600000D01*
X123100000Y-143600000D02*
X126200000Y-146700000D01*
G04 #@! TO.N,/Slot input/S7*
X133900000Y-143600000D02*
X133900000Y-149645000D01*
X133900000Y-149645000D02*
X135145000Y-150890000D01*
X124000000Y-133700000D02*
X133900000Y-143600000D01*
X124000000Y-133000000D02*
X124000000Y-133700000D01*
G04 #@! TO.N,/Slot input/S3*
X135800000Y-98200000D02*
X134200000Y-96600000D01*
X134200000Y-96600000D02*
X134200000Y-85700000D01*
G04 #@! TO.N,/Slot input/S4*
X137400000Y-101300000D02*
X143000000Y-95700000D01*
X135900000Y-101300000D02*
X137400000Y-101300000D01*
X143000000Y-95700000D02*
X142900000Y-95700000D01*
G04 #@! TO.N,/Slot input/S9*
X105100000Y-143200000D02*
X125500000Y-143200000D01*
X125500000Y-143200000D02*
X128800000Y-146500000D01*
X128800000Y-146500000D02*
X128800000Y-149625000D01*
X103050000Y-145250000D02*
X105100000Y-143200000D01*
X128800000Y-149625000D02*
X130065000Y-150890000D01*
G04 #@! TO.N,/Slot input/S8*
X131300000Y-149585000D02*
X132605000Y-150890000D01*
X131300000Y-143300000D02*
X131300000Y-149585000D01*
X125200000Y-137200000D02*
X131300000Y-143300000D01*
X112300000Y-135600000D02*
X113900000Y-137200000D01*
X113900000Y-137200000D02*
X125200000Y-137200000D01*
G04 #@! TO.N,/Slot input/S1*
X156500000Y-106200000D02*
X155900000Y-106800000D01*
X161400000Y-106200000D02*
X156500000Y-106200000D01*
X162400000Y-105200000D02*
X161400000Y-106200000D01*
G04 #@! TO.N,/Step dir output 4/STEP_OUT_P_P*
X152680000Y-63880000D02*
X152680000Y-61040000D01*
X152680000Y-61040000D02*
X153430000Y-60290000D01*
X154700000Y-65900000D02*
X152680000Y-63880000D01*
X155400000Y-65900000D02*
X154700000Y-65900000D01*
D19*
G04 #@! TO.N,+24V_EN*
X157725000Y-128000000D02*
X139075000Y-128000000D01*
X117800000Y-131000000D02*
X116400000Y-131000000D01*
X120800000Y-128000000D02*
X117800000Y-131000000D01*
X115200000Y-131000000D02*
X92200000Y-131000000D01*
X116400000Y-131000000D02*
X115200000Y-131000000D01*
X119300000Y-131000000D02*
X117800000Y-131000000D01*
X157825000Y-128100000D02*
X157725000Y-128000000D01*
X139075000Y-128000000D02*
X120800000Y-128000000D01*
D17*
G04 #@! TO.N,+5V_EN*
X150100000Y-124800000D02*
X149700000Y-124800000D01*
D19*
X88700000Y-124800000D02*
X88100000Y-124200000D01*
X126600000Y-124800000D02*
X124200000Y-124800000D01*
X126600000Y-124800000D02*
X150100000Y-124800000D01*
X124200000Y-124800000D02*
X88700000Y-124800000D01*
D17*
G04 #@! TO.N,/Step dir output 1/EN_OUT*
X92490000Y-64190000D02*
X92490000Y-62070000D01*
X92300000Y-67500000D02*
X92800000Y-67000000D01*
X92800000Y-64500000D02*
X92490000Y-64190000D01*
X92800000Y-67000000D02*
X92800000Y-64500000D01*
X89050000Y-67500000D02*
X92300000Y-67500000D01*
X88430000Y-66880000D02*
X89050000Y-67500000D01*
G04 #@! TO.N,/Step dir output 2/EN_OUT*
X110733333Y-67850000D02*
X109763333Y-66880000D01*
X113823333Y-62070000D02*
X113823333Y-67137328D01*
X113823333Y-67137328D02*
X113110661Y-67850000D01*
X113110661Y-67850000D02*
X110733333Y-67850000D01*
G04 #@! TO.N,/Step dir output 3/EN_OUT*
X135156666Y-65803995D02*
X135156666Y-62070000D01*
X131096666Y-66880000D02*
X134080661Y-66880000D01*
X134080661Y-66880000D02*
X135156666Y-65803995D01*
D18*
G04 #@! TO.N,/Step dir output 1/STEP_OUT_P_P*
X88680000Y-61040000D02*
X89430000Y-60290000D01*
X88680000Y-63480000D02*
X88680000Y-61040000D01*
X91500000Y-66300000D02*
X88680000Y-63480000D01*
G04 #@! TO.N,/Step dir output 2/STEP_OUT_P_P*
X112800000Y-65600000D02*
X110013333Y-62813333D01*
X110013333Y-62813333D02*
X110013333Y-61040000D01*
X112800000Y-67100000D02*
X112800000Y-65600000D01*
X110013333Y-61040000D02*
X110763333Y-60290000D01*
G04 #@! TO.N,/Step dir output 3/STEP_OUT_P_P*
X132600000Y-65900000D02*
X131346666Y-64646666D01*
X131346666Y-64646666D02*
X131346666Y-61040000D01*
X134000000Y-65900000D02*
X132600000Y-65900000D01*
X131346666Y-61040000D02*
X132096666Y-60290000D01*
G04 #@! TD*
G04 #@! TA.AperFunction,Conductor*
G04 #@! TO.N,GND*
G36*
X109995000Y-150456988D02*
G01*
X109937993Y-150424075D01*
X109810826Y-150390000D01*
X109679174Y-150390000D01*
X109552007Y-150424075D01*
X109495000Y-150456988D01*
X109495000Y-148783012D01*
X109552007Y-148815925D01*
X109679174Y-148850000D01*
X109810826Y-148850000D01*
X109937993Y-148815925D01*
X109995000Y-148783012D01*
X109995000Y-150456988D01*
G37*
G04 #@! TD.AperFunction*
G04 #@! TA.AperFunction,Conductor*
G36*
X122695000Y-150456988D02*
G01*
X122637993Y-150424075D01*
X122510826Y-150390000D01*
X122379174Y-150390000D01*
X122252007Y-150424075D01*
X122195000Y-150456988D01*
X122195000Y-148783012D01*
X122252007Y-148815925D01*
X122379174Y-148850000D01*
X122510826Y-148850000D01*
X122637993Y-148815925D01*
X122695000Y-148783012D01*
X122695000Y-150456988D01*
G37*
G04 #@! TD.AperFunction*
G04 #@! TA.AperFunction,Conductor*
G36*
X140475000Y-150456988D02*
G01*
X140417993Y-150424075D01*
X140290826Y-150390000D01*
X140159174Y-150390000D01*
X140032007Y-150424075D01*
X139975000Y-150456988D01*
X139975000Y-148783012D01*
X140032007Y-148815925D01*
X140159174Y-148850000D01*
X140290826Y-148850000D01*
X140417993Y-148815925D01*
X140475000Y-148783012D01*
X140475000Y-150456988D01*
G37*
G04 #@! TD.AperFunction*
G04 #@! TA.AperFunction,Conductor*
G36*
X122212466Y-145461701D02*
G01*
X123063181Y-146312416D01*
X123096666Y-146373739D01*
X123099500Y-146400097D01*
X123099500Y-146970997D01*
X123079815Y-147038036D01*
X123027011Y-147083791D01*
X122957853Y-147093735D01*
X122923096Y-147083379D01*
X122908497Y-147076571D01*
X122908486Y-147076567D01*
X122695000Y-147019364D01*
X122695000Y-147916988D01*
X122637993Y-147884075D01*
X122510826Y-147850000D01*
X122379174Y-147850000D01*
X122252007Y-147884075D01*
X122195000Y-147916988D01*
X122195000Y-147019364D01*
X122194999Y-147019364D01*
X121981513Y-147076567D01*
X121981507Y-147076570D01*
X121767422Y-147176399D01*
X121767420Y-147176400D01*
X121573926Y-147311886D01*
X121573920Y-147311891D01*
X121406891Y-147478920D01*
X121406890Y-147478922D01*
X121276880Y-147664595D01*
X121222303Y-147708219D01*
X121152804Y-147715412D01*
X121090450Y-147683890D01*
X121073730Y-147664594D01*
X120943494Y-147478597D01*
X120776402Y-147311506D01*
X120776395Y-147311501D01*
X120582834Y-147175967D01*
X120582830Y-147175965D01*
X120539498Y-147155759D01*
X120368663Y-147076097D01*
X120368659Y-147076096D01*
X120368655Y-147076094D01*
X120140413Y-147014938D01*
X120140403Y-147014936D01*
X119905001Y-146994341D01*
X119904999Y-146994341D01*
X119669596Y-147014936D01*
X119669586Y-147014938D01*
X119441344Y-147076094D01*
X119441335Y-147076098D01*
X119227171Y-147175964D01*
X119227169Y-147175965D01*
X119033597Y-147311505D01*
X118866505Y-147478597D01*
X118736575Y-147664158D01*
X118681998Y-147707783D01*
X118612500Y-147714977D01*
X118550145Y-147683454D01*
X118533425Y-147664158D01*
X118403494Y-147478597D01*
X118236402Y-147311506D01*
X118236395Y-147311501D01*
X118042834Y-147175967D01*
X118042830Y-147175965D01*
X117999498Y-147155759D01*
X117828663Y-147076097D01*
X117828659Y-147076096D01*
X117828655Y-147076094D01*
X117600413Y-147014938D01*
X117600403Y-147014936D01*
X117365001Y-146994341D01*
X117364999Y-146994341D01*
X117129596Y-147014936D01*
X117129586Y-147014938D01*
X116901344Y-147076094D01*
X116901335Y-147076098D01*
X116687171Y-147175964D01*
X116687169Y-147175965D01*
X116493597Y-147311505D01*
X116326505Y-147478597D01*
X116196575Y-147664158D01*
X116141998Y-147707783D01*
X116072500Y-147714977D01*
X116010145Y-147683454D01*
X115993425Y-147664158D01*
X115863494Y-147478597D01*
X115696402Y-147311506D01*
X115696395Y-147311501D01*
X115502834Y-147175967D01*
X115502830Y-147175965D01*
X115459498Y-147155759D01*
X115288663Y-147076097D01*
X115288659Y-147076096D01*
X115288655Y-147076094D01*
X115060413Y-147014938D01*
X115060403Y-147014936D01*
X114825001Y-146994341D01*
X114824999Y-146994341D01*
X114589596Y-147014936D01*
X114589586Y-147014938D01*
X114361344Y-147076094D01*
X114361335Y-147076098D01*
X114147171Y-147175964D01*
X114147169Y-147175965D01*
X113953597Y-147311505D01*
X113786505Y-147478597D01*
X113656575Y-147664158D01*
X113601998Y-147707783D01*
X113532500Y-147714977D01*
X113470145Y-147683454D01*
X113453425Y-147664158D01*
X113323494Y-147478597D01*
X113156404Y-147311508D01*
X113156401Y-147311505D01*
X113109789Y-147278866D01*
X113090020Y-147265024D01*
X113046396Y-147210446D01*
X113039204Y-147140948D01*
X113070727Y-147078594D01*
X113073429Y-147075804D01*
X114012416Y-146136819D01*
X114073739Y-146103334D01*
X114100097Y-146100500D01*
X120617588Y-146100500D01*
X120684627Y-146120185D01*
X120694903Y-146127555D01*
X120697736Y-146129814D01*
X120697738Y-146129816D01*
X120811270Y-146201152D01*
X120833544Y-146215149D01*
X120850478Y-146225789D01*
X121020745Y-146285368D01*
X121020750Y-146285369D01*
X121199996Y-146305565D01*
X121200000Y-146305565D01*
X121200004Y-146305565D01*
X121379249Y-146285369D01*
X121379252Y-146285368D01*
X121379255Y-146285368D01*
X121549522Y-146225789D01*
X121702262Y-146129816D01*
X121829816Y-146002262D01*
X121925789Y-145849522D01*
X121985368Y-145679255D01*
X121992029Y-145620142D01*
X122001565Y-145535499D01*
X122028631Y-145471085D01*
X122086226Y-145431530D01*
X122156062Y-145429392D01*
X122212466Y-145461701D01*
G37*
G04 #@! TD.AperFunction*
G04 #@! TA.AperFunction,Conductor*
G36*
X124966942Y-132520185D02*
G01*
X124987584Y-132536819D01*
X135763181Y-143312416D01*
X135796666Y-143373739D01*
X135799500Y-143400097D01*
X135799500Y-146970444D01*
X135779815Y-147037483D01*
X135727011Y-147083238D01*
X135657853Y-147093182D01*
X135623100Y-147082828D01*
X135608670Y-147076100D01*
X135608666Y-147076098D01*
X135608663Y-147076097D01*
X135608661Y-147076096D01*
X135608655Y-147076094D01*
X135380413Y-147014938D01*
X135380403Y-147014936D01*
X135145001Y-146994341D01*
X135144999Y-146994341D01*
X134909596Y-147014936D01*
X134909586Y-147014938D01*
X134681344Y-147076094D01*
X134681328Y-147076100D01*
X134676896Y-147078167D01*
X134607818Y-147088654D01*
X134544036Y-147060129D01*
X134505801Y-147001650D01*
X134500500Y-146965781D01*
X134500500Y-143520945D01*
X134500499Y-143520941D01*
X134467489Y-143397740D01*
X134459577Y-143368216D01*
X134459577Y-143368215D01*
X134427361Y-143312416D01*
X134412863Y-143287304D01*
X134380520Y-143231284D01*
X134268716Y-143119480D01*
X134268715Y-143119479D01*
X134264385Y-143115149D01*
X134264374Y-143115139D01*
X124708105Y-133558870D01*
X124674620Y-133497547D01*
X124679604Y-133427855D01*
X124690791Y-133405219D01*
X124725789Y-133349522D01*
X124785368Y-133179255D01*
X124791960Y-133120750D01*
X124805565Y-133000003D01*
X124805565Y-132999996D01*
X124785369Y-132820750D01*
X124785367Y-132820742D01*
X124731030Y-132665454D01*
X124727469Y-132595676D01*
X124762198Y-132535048D01*
X124824191Y-132502821D01*
X124848072Y-132500500D01*
X124899903Y-132500500D01*
X124966942Y-132520185D01*
G37*
G04 #@! TD.AperFunction*
G04 #@! TA.AperFunction,Conductor*
G36*
X169268745Y-55520185D02*
G01*
X169314500Y-55572989D01*
X169324444Y-55642147D01*
X169295419Y-55705703D01*
X169258001Y-55734985D01*
X169147456Y-55791310D01*
X168822206Y-56002531D01*
X168564648Y-56211095D01*
X168564648Y-56211096D01*
X170059301Y-57705748D01*
X169957670Y-57779588D01*
X169779588Y-57957670D01*
X169705748Y-58059300D01*
X168211096Y-56564648D01*
X168211095Y-56564648D01*
X168002531Y-56822206D01*
X167791310Y-57147456D01*
X167615244Y-57493005D01*
X167476262Y-57855063D01*
X167375887Y-58229669D01*
X167375886Y-58229676D01*
X167315219Y-58612712D01*
X167294922Y-58999999D01*
X167294922Y-59000000D01*
X167315219Y-59387287D01*
X167375886Y-59770323D01*
X167375887Y-59770330D01*
X167476262Y-60144936D01*
X167615244Y-60506994D01*
X167791310Y-60852543D01*
X168002531Y-61177793D01*
X168211095Y-61435350D01*
X168211096Y-61435350D01*
X169705748Y-59940698D01*
X169779588Y-60042330D01*
X169957670Y-60220412D01*
X170059300Y-60294251D01*
X168564648Y-61788903D01*
X168564649Y-61788904D01*
X168822206Y-61997468D01*
X169147456Y-62208689D01*
X169493005Y-62384755D01*
X169855063Y-62523737D01*
X170229669Y-62624112D01*
X170229676Y-62624113D01*
X170612712Y-62684780D01*
X170999999Y-62705078D01*
X171000001Y-62705078D01*
X171387287Y-62684780D01*
X171770323Y-62624113D01*
X171770330Y-62624112D01*
X172144936Y-62523737D01*
X172506994Y-62384755D01*
X172852543Y-62208689D01*
X173177783Y-61997476D01*
X173177785Y-61997475D01*
X173435349Y-61788902D01*
X171940698Y-60294251D01*
X172042330Y-60220412D01*
X172220412Y-60042330D01*
X172294251Y-59940698D01*
X173788902Y-61435349D01*
X173997475Y-61177785D01*
X173997476Y-61177783D01*
X174208691Y-60852541D01*
X174208692Y-60852538D01*
X174265015Y-60741999D01*
X174312989Y-60691202D01*
X174380810Y-60674407D01*
X174446945Y-60696944D01*
X174490397Y-60751659D01*
X174499500Y-60798293D01*
X174499500Y-149201706D01*
X174479815Y-149268745D01*
X174427011Y-149314500D01*
X174357853Y-149324444D01*
X174294297Y-149295419D01*
X174265015Y-149258001D01*
X174208689Y-149147456D01*
X173997468Y-148822206D01*
X173788904Y-148564649D01*
X173788903Y-148564648D01*
X172294251Y-150059300D01*
X172220412Y-149957670D01*
X172042330Y-149779588D01*
X171940698Y-149705748D01*
X173435350Y-148211096D01*
X173435350Y-148211095D01*
X173177793Y-148002531D01*
X172852543Y-147791310D01*
X172506994Y-147615244D01*
X172144936Y-147476262D01*
X171770330Y-147375887D01*
X171770323Y-147375886D01*
X171387287Y-147315219D01*
X171000001Y-147294922D01*
X170999999Y-147294922D01*
X170612712Y-147315219D01*
X170229676Y-147375886D01*
X170229669Y-147375887D01*
X169855063Y-147476262D01*
X169493005Y-147615244D01*
X169147456Y-147791310D01*
X168822206Y-148002531D01*
X168564648Y-148211095D01*
X168564648Y-148211096D01*
X170059301Y-149705748D01*
X169957670Y-149779588D01*
X169779588Y-149957670D01*
X169705748Y-150059300D01*
X168211096Y-148564648D01*
X168211095Y-148564648D01*
X168002531Y-148822206D01*
X167791310Y-149147456D01*
X167615244Y-149493005D01*
X167476262Y-149855063D01*
X167375887Y-150229669D01*
X167375886Y-150229676D01*
X167315219Y-150612712D01*
X167294922Y-150999999D01*
X167294922Y-151000000D01*
X167315219Y-151387287D01*
X167375886Y-151770323D01*
X167375887Y-151770330D01*
X167476262Y-152144936D01*
X167615244Y-152506994D01*
X167791310Y-152852543D01*
X168002531Y-153177793D01*
X168211095Y-153435350D01*
X168211096Y-153435350D01*
X169705748Y-151940698D01*
X169779588Y-152042330D01*
X169957670Y-152220412D01*
X170059300Y-152294251D01*
X168564648Y-153788903D01*
X168564649Y-153788904D01*
X168822206Y-153997468D01*
X169147456Y-154208689D01*
X169258001Y-154265015D01*
X169308797Y-154312990D01*
X169325592Y-154380811D01*
X169303055Y-154446945D01*
X169248340Y-154490397D01*
X169201706Y-154499500D01*
X80798294Y-154499500D01*
X80731255Y-154479815D01*
X80685500Y-154427011D01*
X80675556Y-154357853D01*
X80704581Y-154294297D01*
X80741999Y-154265015D01*
X80852543Y-154208689D01*
X81177783Y-153997476D01*
X81177785Y-153997475D01*
X81435349Y-153788902D01*
X79940698Y-152294251D01*
X80042330Y-152220412D01*
X80220412Y-152042330D01*
X80294251Y-151940698D01*
X81788902Y-153435349D01*
X81997475Y-153177785D01*
X81997476Y-153177783D01*
X82208689Y-152852543D01*
X82384755Y-152506994D01*
X82523737Y-152144936D01*
X82624112Y-151770330D01*
X82624113Y-151770323D01*
X82684780Y-151387287D01*
X82705078Y-151000000D01*
X82705078Y-150999999D01*
X82684780Y-150612712D01*
X82624113Y-150229676D01*
X82624112Y-150229669D01*
X82523737Y-149855063D01*
X82384755Y-149493005D01*
X82208689Y-149147456D01*
X81997468Y-148822206D01*
X81788904Y-148564649D01*
X81788903Y-148564648D01*
X80294251Y-150059300D01*
X80220412Y-149957670D01*
X80042330Y-149779588D01*
X79940698Y-149705748D01*
X81435350Y-148211096D01*
X81435350Y-148211095D01*
X81177793Y-148002531D01*
X80852543Y-147791310D01*
X80506994Y-147615244D01*
X80144936Y-147476262D01*
X79770330Y-147375887D01*
X79770323Y-147375886D01*
X79387287Y-147315219D01*
X79000001Y-147294922D01*
X78999999Y-147294922D01*
X78612712Y-147315219D01*
X78229676Y-147375886D01*
X78229669Y-147375887D01*
X77855063Y-147476262D01*
X77493005Y-147615244D01*
X77147456Y-147791310D01*
X76822206Y-148002531D01*
X76564648Y-148211095D01*
X76564648Y-148211096D01*
X78059301Y-149705748D01*
X77957670Y-149779588D01*
X77779588Y-149957670D01*
X77705748Y-150059301D01*
X76211096Y-148564648D01*
X76211095Y-148564648D01*
X76002531Y-148822206D01*
X75791310Y-149147456D01*
X75734985Y-149258001D01*
X75687010Y-149308797D01*
X75619189Y-149325592D01*
X75553055Y-149303055D01*
X75509603Y-149248340D01*
X75500500Y-149201706D01*
X75500500Y-145699996D01*
X99794435Y-145699996D01*
X99794435Y-145700003D01*
X99814630Y-145879249D01*
X99814631Y-145879254D01*
X99874211Y-146049523D01*
X99925589Y-146131290D01*
X99970184Y-146202262D01*
X100097738Y-146329816D01*
X100250478Y-146425789D01*
X100420745Y-146485368D01*
X100507669Y-146495161D01*
X100572080Y-146522226D01*
X100581464Y-146530699D01*
X101531284Y-147480520D01*
X101531286Y-147480521D01*
X101531290Y-147480524D01*
X101668209Y-147559573D01*
X101668216Y-147559577D01*
X101820943Y-147600501D01*
X101820945Y-147600501D01*
X101986654Y-147600501D01*
X101986670Y-147600500D01*
X105213331Y-147600500D01*
X105213347Y-147600501D01*
X105220943Y-147600501D01*
X105379054Y-147600501D01*
X105379057Y-147600501D01*
X105531785Y-147559577D01*
X105581904Y-147530639D01*
X105668716Y-147480520D01*
X105780520Y-147368716D01*
X105780520Y-147368714D01*
X105790728Y-147358507D01*
X105790729Y-147358504D01*
X107912417Y-145236819D01*
X107973740Y-145203334D01*
X108000098Y-145200500D01*
X112950903Y-145200500D01*
X113017942Y-145220185D01*
X113063697Y-145272989D01*
X113073641Y-145342147D01*
X113044616Y-145405703D01*
X113038586Y-145412178D01*
X112474976Y-145975788D01*
X111931286Y-146519478D01*
X111819481Y-146631282D01*
X111819479Y-146631285D01*
X111769361Y-146718094D01*
X111769359Y-146718096D01*
X111740425Y-146768209D01*
X111740424Y-146768210D01*
X111740423Y-146768215D01*
X111699499Y-146920943D01*
X111699499Y-146920945D01*
X111699499Y-146963637D01*
X111695274Y-146995730D01*
X111684499Y-147035943D01*
X111684499Y-147060909D01*
X111664814Y-147127948D01*
X111612908Y-147173289D01*
X111607174Y-147175962D01*
X111607169Y-147175965D01*
X111413597Y-147311505D01*
X111246508Y-147478594D01*
X111116269Y-147664595D01*
X111061692Y-147708219D01*
X110992193Y-147715412D01*
X110929839Y-147683890D01*
X110913119Y-147664594D01*
X110783113Y-147478926D01*
X110783108Y-147478920D01*
X110616082Y-147311894D01*
X110422578Y-147176399D01*
X110208492Y-147076570D01*
X110208486Y-147076567D01*
X109995000Y-147019364D01*
X109995000Y-147916988D01*
X109937993Y-147884075D01*
X109810826Y-147850000D01*
X109679174Y-147850000D01*
X109552007Y-147884075D01*
X109495000Y-147916988D01*
X109495000Y-147019364D01*
X109494999Y-147019364D01*
X109281513Y-147076567D01*
X109281507Y-147076570D01*
X109067422Y-147176399D01*
X109067420Y-147176400D01*
X108873926Y-147311886D01*
X108873920Y-147311891D01*
X108706891Y-147478920D01*
X108706886Y-147478926D01*
X108571400Y-147672420D01*
X108571399Y-147672422D01*
X108471570Y-147886507D01*
X108471567Y-147886513D01*
X108414364Y-148099999D01*
X108414364Y-148100000D01*
X109311988Y-148100000D01*
X109279075Y-148157007D01*
X109245000Y-148284174D01*
X109245000Y-148415826D01*
X109279075Y-148542993D01*
X109311988Y-148600000D01*
X108414364Y-148600000D01*
X108471567Y-148813486D01*
X108471570Y-148813492D01*
X108571399Y-149027578D01*
X108706894Y-149221082D01*
X108873917Y-149388105D01*
X109060031Y-149518425D01*
X109103656Y-149573003D01*
X109110848Y-149642501D01*
X109079326Y-149704856D01*
X109060031Y-149721575D01*
X108873922Y-149851890D01*
X108873920Y-149851891D01*
X108706891Y-150018920D01*
X108706886Y-150018926D01*
X108571400Y-150212420D01*
X108571399Y-150212422D01*
X108471570Y-150426507D01*
X108471567Y-150426513D01*
X108414364Y-150639999D01*
X108414364Y-150640000D01*
X109311988Y-150640000D01*
X109279075Y-150697007D01*
X109245000Y-150824174D01*
X109245000Y-150955826D01*
X109279075Y-151082993D01*
X109311988Y-151140000D01*
X108414364Y-151140000D01*
X108471567Y-151353486D01*
X108471570Y-151353492D01*
X108571399Y-151567578D01*
X108706894Y-151761082D01*
X108873917Y-151928105D01*
X109067421Y-152063600D01*
X109281507Y-152163429D01*
X109281516Y-152163433D01*
X109495000Y-152220634D01*
X109495000Y-151323012D01*
X109552007Y-151355925D01*
X109679174Y-151390000D01*
X109810826Y-151390000D01*
X109937993Y-151355925D01*
X109995000Y-151323012D01*
X109995000Y-152220634D01*
X110208483Y-152163433D01*
X110208492Y-152163429D01*
X110422578Y-152063600D01*
X110616082Y-151928105D01*
X110783105Y-151761082D01*
X110913119Y-151575405D01*
X110967696Y-151531781D01*
X111037195Y-151524588D01*
X111099549Y-151556110D01*
X111116269Y-151575405D01*
X111246505Y-151761401D01*
X111413599Y-151928495D01*
X111510384Y-151996265D01*
X111607165Y-152064032D01*
X111607167Y-152064033D01*
X111607170Y-152064035D01*
X111821337Y-152163903D01*
X112049592Y-152225063D01*
X112237918Y-152241539D01*
X112284999Y-152245659D01*
X112285000Y-152245659D01*
X112285001Y-152245659D01*
X112324234Y-152242226D01*
X112520408Y-152225063D01*
X112748663Y-152163903D01*
X112962830Y-152064035D01*
X113156401Y-151928495D01*
X113323495Y-151761401D01*
X113453425Y-151575842D01*
X113508002Y-151532217D01*
X113577500Y-151525023D01*
X113639855Y-151556546D01*
X113656575Y-151575842D01*
X113786281Y-151761082D01*
X113786505Y-151761401D01*
X113953599Y-151928495D01*
X114050384Y-151996265D01*
X114147165Y-152064032D01*
X114147167Y-152064033D01*
X114147170Y-152064035D01*
X114361337Y-152163903D01*
X114589592Y-152225063D01*
X114777918Y-152241539D01*
X114824999Y-152245659D01*
X114825000Y-152245659D01*
X114825001Y-152245659D01*
X114864234Y-152242226D01*
X115060408Y-152225063D01*
X115288663Y-152163903D01*
X115502830Y-152064035D01*
X115696401Y-151928495D01*
X115863495Y-151761401D01*
X115993425Y-151575842D01*
X116048002Y-151532217D01*
X116117500Y-151525023D01*
X116179855Y-151556546D01*
X116196575Y-151575842D01*
X116326281Y-151761082D01*
X116326505Y-151761401D01*
X116493599Y-151928495D01*
X116590384Y-151996265D01*
X116687165Y-152064032D01*
X116687167Y-152064033D01*
X116687170Y-152064035D01*
X116901337Y-152163903D01*
X117129592Y-152225063D01*
X117317918Y-152241539D01*
X117364999Y-152245659D01*
X117365000Y-152245659D01*
X117365001Y-152245659D01*
X117404234Y-152242226D01*
X117600408Y-152225063D01*
X117828663Y-152163903D01*
X118042830Y-152064035D01*
X118236401Y-151928495D01*
X118403495Y-151761401D01*
X118533425Y-151575842D01*
X118588002Y-151532217D01*
X118657500Y-151525023D01*
X118719855Y-151556546D01*
X118736575Y-151575842D01*
X118866281Y-151761082D01*
X118866505Y-151761401D01*
X119033599Y-151928495D01*
X119130384Y-151996265D01*
X119227165Y-152064032D01*
X119227167Y-152064033D01*
X119227170Y-152064035D01*
X119441337Y-152163903D01*
X119669592Y-152225063D01*
X119857918Y-152241539D01*
X119904999Y-152245659D01*
X119905000Y-152245659D01*
X119905001Y-152245659D01*
X119944234Y-152242226D01*
X120140408Y-152225063D01*
X120368663Y-152163903D01*
X120582830Y-152064035D01*
X120776401Y-151928495D01*
X120943495Y-151761401D01*
X121073730Y-151575405D01*
X121128307Y-151531781D01*
X121197805Y-151524587D01*
X121260160Y-151556110D01*
X121276879Y-151575405D01*
X121406890Y-151761078D01*
X121573917Y-151928105D01*
X121767421Y-152063600D01*
X121981507Y-152163429D01*
X121981516Y-152163433D01*
X122195000Y-152220634D01*
X122195000Y-151323012D01*
X122252007Y-151355925D01*
X122379174Y-151390000D01*
X122510826Y-151390000D01*
X122637993Y-151355925D01*
X122695000Y-151323012D01*
X122695000Y-152220633D01*
X122908483Y-152163433D01*
X122908492Y-152163429D01*
X123122578Y-152063600D01*
X123316082Y-151928105D01*
X123483105Y-151761082D01*
X123613119Y-151575405D01*
X123667696Y-151531781D01*
X123737195Y-151524588D01*
X123799549Y-151556110D01*
X123816269Y-151575405D01*
X123946505Y-151761401D01*
X124113599Y-151928495D01*
X124210384Y-151996265D01*
X124307165Y-152064032D01*
X124307167Y-152064033D01*
X124307170Y-152064035D01*
X124521337Y-152163903D01*
X124749592Y-152225063D01*
X124937918Y-152241539D01*
X124984999Y-152245659D01*
X124985000Y-152245659D01*
X124985001Y-152245659D01*
X125024234Y-152242226D01*
X125220408Y-152225063D01*
X125448663Y-152163903D01*
X125662830Y-152064035D01*
X125856401Y-151928495D01*
X126023495Y-151761401D01*
X126153425Y-151575842D01*
X126208002Y-151532217D01*
X126277500Y-151525023D01*
X126339855Y-151556546D01*
X126356575Y-151575842D01*
X126486281Y-151761082D01*
X126486505Y-151761401D01*
X126653599Y-151928495D01*
X126750384Y-151996265D01*
X126847165Y-152064032D01*
X126847167Y-152064033D01*
X126847170Y-152064035D01*
X127061337Y-152163903D01*
X127289592Y-152225063D01*
X127477918Y-152241539D01*
X127524999Y-152245659D01*
X127525000Y-152245659D01*
X127525001Y-152245659D01*
X127564234Y-152242226D01*
X127760408Y-152225063D01*
X127988663Y-152163903D01*
X128202830Y-152064035D01*
X128396401Y-151928495D01*
X128563495Y-151761401D01*
X128693425Y-151575842D01*
X128748002Y-151532217D01*
X128817500Y-151525023D01*
X128879855Y-151556546D01*
X128896575Y-151575842D01*
X129026281Y-151761082D01*
X129026505Y-151761401D01*
X129193599Y-151928495D01*
X129290384Y-151996265D01*
X129387165Y-152064032D01*
X129387167Y-152064033D01*
X129387170Y-152064035D01*
X129601337Y-152163903D01*
X129829592Y-152225063D01*
X130017918Y-152241539D01*
X130064999Y-152245659D01*
X130065000Y-152245659D01*
X130065001Y-152245659D01*
X130104234Y-152242226D01*
X130300408Y-152225063D01*
X130528663Y-152163903D01*
X130742830Y-152064035D01*
X130936401Y-151928495D01*
X131103495Y-151761401D01*
X131233425Y-151575842D01*
X131288002Y-151532217D01*
X131357500Y-151525023D01*
X131419855Y-151556546D01*
X131436575Y-151575842D01*
X131566281Y-151761082D01*
X131566505Y-151761401D01*
X131733599Y-151928495D01*
X131830384Y-151996265D01*
X131927165Y-152064032D01*
X131927167Y-152064033D01*
X131927170Y-152064035D01*
X132141337Y-152163903D01*
X132369592Y-152225063D01*
X132557918Y-152241539D01*
X132604999Y-152245659D01*
X132605000Y-152245659D01*
X132605001Y-152245659D01*
X132644234Y-152242226D01*
X132840408Y-152225063D01*
X133068663Y-152163903D01*
X133282830Y-152064035D01*
X133476401Y-151928495D01*
X133643495Y-151761401D01*
X133773425Y-151575842D01*
X133828002Y-151532217D01*
X133897500Y-151525023D01*
X133959855Y-151556546D01*
X133976575Y-151575842D01*
X134106281Y-151761082D01*
X134106505Y-151761401D01*
X134273599Y-151928495D01*
X134370384Y-151996265D01*
X134467165Y-152064032D01*
X134467167Y-152064033D01*
X134467170Y-152064035D01*
X134681337Y-152163903D01*
X134909592Y-152225063D01*
X135097918Y-152241539D01*
X135144999Y-152245659D01*
X135145000Y-152245659D01*
X135145001Y-152245659D01*
X135184234Y-152242226D01*
X135380408Y-152225063D01*
X135608663Y-152163903D01*
X135822830Y-152064035D01*
X136016401Y-151928495D01*
X136183495Y-151761401D01*
X136313425Y-151575842D01*
X136368002Y-151532217D01*
X136437500Y-151525023D01*
X136499855Y-151556546D01*
X136516575Y-151575842D01*
X136646281Y-151761082D01*
X136646505Y-151761401D01*
X136813599Y-151928495D01*
X136910384Y-151996265D01*
X137007165Y-152064032D01*
X137007167Y-152064033D01*
X137007170Y-152064035D01*
X137221337Y-152163903D01*
X137449592Y-152225063D01*
X137637918Y-152241539D01*
X137684999Y-152245659D01*
X137685000Y-152245659D01*
X137685001Y-152245659D01*
X137724234Y-152242226D01*
X137920408Y-152225063D01*
X138148663Y-152163903D01*
X138362830Y-152064035D01*
X138556401Y-151928495D01*
X138723495Y-151761401D01*
X138853730Y-151575405D01*
X138908307Y-151531781D01*
X138977805Y-151524587D01*
X139040160Y-151556110D01*
X139056879Y-151575405D01*
X139186890Y-151761078D01*
X139353917Y-151928105D01*
X139547421Y-152063600D01*
X139761507Y-152163429D01*
X139761516Y-152163433D01*
X139975000Y-152220634D01*
X139975000Y-151323012D01*
X140032007Y-151355925D01*
X140159174Y-151390000D01*
X140290826Y-151390000D01*
X140417993Y-151355925D01*
X140475000Y-151323012D01*
X140475000Y-152220633D01*
X140688483Y-152163433D01*
X140688492Y-152163429D01*
X140902578Y-152063600D01*
X141096082Y-151928105D01*
X141263105Y-151761082D01*
X141398600Y-151567578D01*
X141498429Y-151353492D01*
X141498432Y-151353486D01*
X141555636Y-151140000D01*
X140658012Y-151140000D01*
X140690925Y-151082993D01*
X140725000Y-150955826D01*
X140725000Y-150824174D01*
X140690925Y-150697007D01*
X140658012Y-150640000D01*
X141555636Y-150640000D01*
X141555635Y-150639999D01*
X141498432Y-150426513D01*
X141498429Y-150426507D01*
X141398600Y-150212422D01*
X141398599Y-150212420D01*
X141263113Y-150018926D01*
X141263108Y-150018920D01*
X141140665Y-149896477D01*
X141107180Y-149835154D01*
X141112164Y-149765462D01*
X141154036Y-149709529D01*
X141185013Y-149692614D01*
X141317086Y-149643354D01*
X141317093Y-149643350D01*
X141432187Y-149557190D01*
X141432190Y-149557187D01*
X141518350Y-149442093D01*
X141518354Y-149442086D01*
X141568596Y-149307379D01*
X141568598Y-149307372D01*
X141574999Y-149247844D01*
X141575000Y-149247827D01*
X141575000Y-148600000D01*
X140658012Y-148600000D01*
X140690925Y-148542993D01*
X140725000Y-148415826D01*
X140725000Y-148284174D01*
X140690925Y-148157007D01*
X140658012Y-148100000D01*
X141575000Y-148100000D01*
X141575000Y-147452172D01*
X141574999Y-147452155D01*
X141568598Y-147392627D01*
X141568596Y-147392620D01*
X141518354Y-147257913D01*
X141518350Y-147257906D01*
X141432190Y-147142812D01*
X141432187Y-147142809D01*
X141317093Y-147056649D01*
X141317086Y-147056645D01*
X141182379Y-147006403D01*
X141182372Y-147006401D01*
X141122844Y-147000000D01*
X140475000Y-147000000D01*
X140475000Y-147916988D01*
X140417993Y-147884075D01*
X140290826Y-147850000D01*
X140159174Y-147850000D01*
X140032007Y-147884075D01*
X139975000Y-147916988D01*
X139975000Y-147000000D01*
X139327155Y-147000000D01*
X139267627Y-147006401D01*
X139267620Y-147006403D01*
X139132913Y-147056645D01*
X139132906Y-147056649D01*
X139017812Y-147142809D01*
X139017809Y-147142812D01*
X138931649Y-147257906D01*
X138931645Y-147257913D01*
X138882578Y-147389470D01*
X138840707Y-147445404D01*
X138775242Y-147469821D01*
X138706969Y-147454969D01*
X138678715Y-147433819D01*
X138620782Y-147375886D01*
X138556401Y-147311505D01*
X138556397Y-147311502D01*
X138556396Y-147311501D01*
X138362834Y-147175967D01*
X138362830Y-147175965D01*
X138319498Y-147155759D01*
X138148663Y-147076097D01*
X138148659Y-147076096D01*
X138148655Y-147076094D01*
X137920413Y-147014938D01*
X137920403Y-147014936D01*
X137685001Y-146994341D01*
X137684999Y-146994341D01*
X137449596Y-147014936D01*
X137449586Y-147014938D01*
X137221344Y-147076094D01*
X137221330Y-147076099D01*
X137176904Y-147096816D01*
X137107827Y-147107308D01*
X137044043Y-147078788D01*
X137005804Y-147020311D01*
X137000500Y-146984434D01*
X137000500Y-143189059D01*
X137000501Y-143189046D01*
X137000501Y-143020945D01*
X137000501Y-143020943D01*
X136959577Y-142868215D01*
X136930639Y-142818095D01*
X136880520Y-142731284D01*
X136768716Y-142619480D01*
X136768715Y-142619479D01*
X136764385Y-142615149D01*
X136764374Y-142615139D01*
X125687590Y-131538355D01*
X125687588Y-131538352D01*
X125568717Y-131419481D01*
X125568716Y-131419480D01*
X125481904Y-131369360D01*
X125481904Y-131369359D01*
X125481900Y-131369358D01*
X125431785Y-131340423D01*
X125279057Y-131299499D01*
X125120943Y-131299499D01*
X125113347Y-131299499D01*
X125113331Y-131299500D01*
X122720940Y-131299500D01*
X122680019Y-131310464D01*
X122680019Y-131310465D01*
X122642751Y-131320451D01*
X122568214Y-131340423D01*
X122568209Y-131340426D01*
X122431290Y-131419475D01*
X122431282Y-131419481D01*
X121619481Y-132231282D01*
X121619479Y-132231285D01*
X121569361Y-132318094D01*
X121569359Y-132318096D01*
X121540425Y-132368209D01*
X121540424Y-132368210D01*
X121540423Y-132368215D01*
X121499499Y-132520943D01*
X121499499Y-132520945D01*
X121499499Y-132689046D01*
X121499500Y-132689059D01*
X121499500Y-132717587D01*
X121479815Y-132784626D01*
X121472450Y-132794896D01*
X121470186Y-132797734D01*
X121374211Y-132950476D01*
X121314631Y-133120745D01*
X121314630Y-133120750D01*
X121294435Y-133299996D01*
X121294435Y-133300003D01*
X121314630Y-133479249D01*
X121314631Y-133479254D01*
X121374211Y-133649523D01*
X121455601Y-133779054D01*
X121470184Y-133802262D01*
X121597738Y-133929816D01*
X121750478Y-134025789D01*
X121873159Y-134068717D01*
X121920745Y-134085368D01*
X121920750Y-134085369D01*
X122099996Y-134105565D01*
X122100000Y-134105565D01*
X122100004Y-134105565D01*
X122279249Y-134085369D01*
X122279252Y-134085368D01*
X122279255Y-134085368D01*
X122449522Y-134025789D01*
X122602262Y-133929816D01*
X122729816Y-133802262D01*
X122825789Y-133649522D01*
X122885368Y-133479255D01*
X122885369Y-133479249D01*
X122905565Y-133300003D01*
X122905565Y-133299996D01*
X122885369Y-133120750D01*
X122885366Y-133120737D01*
X122825790Y-132950481D01*
X122825789Y-132950478D01*
X122790793Y-132894782D01*
X122771792Y-132827545D01*
X122792159Y-132760710D01*
X122808095Y-132741138D01*
X123012417Y-132536816D01*
X123073739Y-132503334D01*
X123100097Y-132500500D01*
X123151928Y-132500500D01*
X123218967Y-132520185D01*
X123264722Y-132572989D01*
X123274666Y-132642147D01*
X123268970Y-132665454D01*
X123214632Y-132820742D01*
X123214630Y-132820750D01*
X123194435Y-132999996D01*
X123194435Y-133000003D01*
X123214630Y-133179249D01*
X123214631Y-133179254D01*
X123274211Y-133349523D01*
X123309205Y-133405215D01*
X123367221Y-133497547D01*
X123370185Y-133502263D01*
X123372445Y-133505097D01*
X123373334Y-133507275D01*
X123373889Y-133508158D01*
X123373734Y-133508255D01*
X123398855Y-133569783D01*
X123399500Y-133582412D01*
X123399500Y-133613330D01*
X123399499Y-133613348D01*
X123399499Y-133779054D01*
X123399498Y-133779054D01*
X123440423Y-133931785D01*
X123469358Y-133981900D01*
X123469359Y-133981904D01*
X123469360Y-133981904D01*
X123519479Y-134068714D01*
X123519481Y-134068717D01*
X123638349Y-134187585D01*
X123638355Y-134187590D01*
X133263181Y-143812416D01*
X133296666Y-143873739D01*
X133299500Y-143900097D01*
X133299500Y-146989097D01*
X133279815Y-147056136D01*
X133227011Y-147101891D01*
X133157853Y-147111835D01*
X133123096Y-147101479D01*
X133068669Y-147076099D01*
X133068655Y-147076094D01*
X132840413Y-147014938D01*
X132840403Y-147014936D01*
X132605001Y-146994341D01*
X132604999Y-146994341D01*
X132369596Y-147014936D01*
X132369586Y-147014938D01*
X132141344Y-147076094D01*
X132141330Y-147076099D01*
X132076904Y-147106142D01*
X132007827Y-147116634D01*
X131944043Y-147088114D01*
X131905804Y-147029637D01*
X131900500Y-146993760D01*
X131900500Y-143389060D01*
X131900501Y-143389047D01*
X131900501Y-143220944D01*
X131900501Y-143220943D01*
X131859577Y-143068216D01*
X131859573Y-143068209D01*
X131780524Y-142931290D01*
X131780518Y-142931282D01*
X125687590Y-136838355D01*
X125687588Y-136838352D01*
X125568717Y-136719481D01*
X125568716Y-136719480D01*
X125481904Y-136669360D01*
X125481904Y-136669359D01*
X125481900Y-136669358D01*
X125431785Y-136640423D01*
X125279057Y-136599499D01*
X125120943Y-136599499D01*
X125113347Y-136599499D01*
X125113331Y-136599500D01*
X114200098Y-136599500D01*
X114133059Y-136579815D01*
X114112417Y-136563181D01*
X113130700Y-135581465D01*
X113097215Y-135520142D01*
X113095163Y-135507686D01*
X113085368Y-135420745D01*
X113025789Y-135250478D01*
X112929816Y-135097738D01*
X112802262Y-134970184D01*
X112649523Y-134874211D01*
X112479254Y-134814631D01*
X112479249Y-134814630D01*
X112300004Y-134794435D01*
X112299996Y-134794435D01*
X112120750Y-134814630D01*
X112120745Y-134814631D01*
X111950476Y-134874211D01*
X111797737Y-134970184D01*
X111670184Y-135097737D01*
X111574211Y-135250476D01*
X111514631Y-135420745D01*
X111514630Y-135420750D01*
X111494435Y-135599996D01*
X111494435Y-135600003D01*
X111514630Y-135779249D01*
X111514631Y-135779254D01*
X111574211Y-135949523D01*
X111670184Y-136102262D01*
X111797738Y-136229816D01*
X111950478Y-136325789D01*
X112120745Y-136385368D01*
X112207669Y-136395161D01*
X112272080Y-136422226D01*
X112281464Y-136430699D01*
X113531284Y-137680520D01*
X113531286Y-137680521D01*
X113531290Y-137680524D01*
X113668209Y-137759573D01*
X113668216Y-137759577D01*
X113820943Y-137800501D01*
X113820945Y-137800501D01*
X113986654Y-137800501D01*
X113986670Y-137800500D01*
X124899903Y-137800500D01*
X124966942Y-137820185D01*
X124987584Y-137836819D01*
X130663181Y-143512416D01*
X130696666Y-143573739D01*
X130699500Y-143600097D01*
X130699500Y-146961186D01*
X130679815Y-147028225D01*
X130627011Y-147073980D01*
X130557853Y-147083924D01*
X130533087Y-147077707D01*
X130528662Y-147076096D01*
X130300413Y-147014938D01*
X130300403Y-147014936D01*
X130065001Y-146994341D01*
X130064999Y-146994341D01*
X129829596Y-147014936D01*
X129829586Y-147014938D01*
X129601344Y-147076094D01*
X129601339Y-147076096D01*
X129576902Y-147087491D01*
X129507824Y-147097981D01*
X129444041Y-147069459D01*
X129405803Y-147010981D01*
X129400500Y-146975107D01*
X129400500Y-146589060D01*
X129400501Y-146589047D01*
X129400501Y-146420944D01*
X129394915Y-146400097D01*
X129359577Y-146268216D01*
X129335082Y-146225789D01*
X129280524Y-146131290D01*
X129280518Y-146131282D01*
X125987590Y-142838355D01*
X125987588Y-142838352D01*
X125868717Y-142719481D01*
X125868716Y-142719480D01*
X125781904Y-142669360D01*
X125781904Y-142669359D01*
X125781900Y-142669358D01*
X125731785Y-142640423D01*
X125579057Y-142599499D01*
X125420943Y-142599499D01*
X125413347Y-142599499D01*
X125413331Y-142599500D01*
X105186670Y-142599500D01*
X105186654Y-142599499D01*
X105179058Y-142599499D01*
X105020943Y-142599499D01*
X104868215Y-142640423D01*
X104868213Y-142640423D01*
X104868213Y-142640424D01*
X104731281Y-142719482D01*
X103031465Y-144419298D01*
X102970142Y-144452783D01*
X102957668Y-144454837D01*
X102870750Y-144464630D01*
X102700478Y-144524210D01*
X102547737Y-144620184D01*
X102420184Y-144747737D01*
X102324211Y-144900476D01*
X102264631Y-145070745D01*
X102264630Y-145070750D01*
X102244435Y-145249996D01*
X102244435Y-145250003D01*
X102264630Y-145429249D01*
X102264631Y-145429254D01*
X102324211Y-145599523D01*
X102387347Y-145700003D01*
X102420184Y-145752262D01*
X102547738Y-145879816D01*
X102700478Y-145975789D01*
X102829521Y-146020943D01*
X102870745Y-146035368D01*
X102870750Y-146035369D01*
X103049996Y-146055565D01*
X103050000Y-146055565D01*
X103050004Y-146055565D01*
X103229249Y-146035369D01*
X103229252Y-146035368D01*
X103229255Y-146035368D01*
X103399522Y-145975789D01*
X103552262Y-145879816D01*
X103679816Y-145752262D01*
X103775789Y-145599522D01*
X103835368Y-145429255D01*
X103845161Y-145342329D01*
X103872226Y-145277918D01*
X103880690Y-145268543D01*
X104963514Y-144185719D01*
X105024836Y-144152236D01*
X105094528Y-144157220D01*
X105150461Y-144199092D01*
X105168235Y-144232446D01*
X105174209Y-144249520D01*
X105188956Y-144272989D01*
X105270184Y-144402262D01*
X105397738Y-144529816D01*
X105488080Y-144586582D01*
X105541557Y-144620184D01*
X105550478Y-144625789D01*
X105720745Y-144685368D01*
X105720750Y-144685369D01*
X105899996Y-144705565D01*
X105900000Y-144705565D01*
X105900004Y-144705565D01*
X106079249Y-144685369D01*
X106079252Y-144685368D01*
X106079255Y-144685368D01*
X106249522Y-144625789D01*
X106402262Y-144529816D01*
X106529816Y-144402262D01*
X106620130Y-144258527D01*
X106672465Y-144212237D01*
X106725124Y-144200500D01*
X106950902Y-144200500D01*
X107017941Y-144220185D01*
X107063696Y-144272989D01*
X107073640Y-144342147D01*
X107044615Y-144405703D01*
X107038583Y-144412181D01*
X105087584Y-146363181D01*
X105026261Y-146396666D01*
X104999903Y-146399500D01*
X102200098Y-146399500D01*
X102133059Y-146379815D01*
X102112417Y-146363181D01*
X101430700Y-145681465D01*
X101397215Y-145620142D01*
X101395163Y-145607686D01*
X101385368Y-145520745D01*
X101325789Y-145350478D01*
X101229816Y-145197738D01*
X101102262Y-145070184D01*
X100949523Y-144974211D01*
X100779254Y-144914631D01*
X100779249Y-144914630D01*
X100600004Y-144894435D01*
X100599996Y-144894435D01*
X100420750Y-144914630D01*
X100420745Y-144914631D01*
X100250476Y-144974211D01*
X100097737Y-145070184D01*
X99970184Y-145197737D01*
X99874211Y-145350476D01*
X99814631Y-145520745D01*
X99814630Y-145520750D01*
X99794435Y-145699996D01*
X75500500Y-145699996D01*
X75500500Y-131098543D01*
X91199499Y-131098543D01*
X91237947Y-131291829D01*
X91237950Y-131291839D01*
X91313364Y-131473907D01*
X91313371Y-131473920D01*
X91422860Y-131637781D01*
X91422863Y-131637785D01*
X91562214Y-131777136D01*
X91562218Y-131777139D01*
X91726079Y-131886628D01*
X91726092Y-131886635D01*
X91908160Y-131962049D01*
X91908165Y-131962051D01*
X91908169Y-131962051D01*
X91908170Y-131962052D01*
X92101456Y-132000500D01*
X92101459Y-132000500D01*
X119398543Y-132000500D01*
X119528582Y-131974632D01*
X119591835Y-131962051D01*
X119773914Y-131886632D01*
X119937782Y-131777139D01*
X120077139Y-131637782D01*
X120186632Y-131473914D01*
X120262051Y-131291835D01*
X120300500Y-131098541D01*
X120300500Y-130901459D01*
X120300500Y-130901456D01*
X120262052Y-130708170D01*
X120262051Y-130708169D01*
X120262051Y-130708165D01*
X120262049Y-130708160D01*
X120186635Y-130526092D01*
X120186628Y-130526079D01*
X120077139Y-130362218D01*
X120077136Y-130362214D01*
X120052601Y-130337679D01*
X120019116Y-130276356D01*
X120024100Y-130206664D01*
X120052598Y-130162320D01*
X121178102Y-129036819D01*
X121239425Y-129003334D01*
X121265783Y-129000500D01*
X138976459Y-129000500D01*
X157359903Y-129000500D01*
X157407355Y-129009938D01*
X157533164Y-129062051D01*
X157726454Y-129100499D01*
X157726457Y-129100500D01*
X157726459Y-129100500D01*
X157923542Y-129100500D01*
X157923543Y-129100499D01*
X158116835Y-129062051D01*
X158298914Y-128986631D01*
X158462781Y-128877139D01*
X158602139Y-128737781D01*
X158711631Y-128573914D01*
X158787051Y-128391835D01*
X158825500Y-128198540D01*
X158825500Y-128001459D01*
X158825500Y-128001456D01*
X158825499Y-128001454D01*
X158787052Y-127808171D01*
X158787051Y-127808164D01*
X158711631Y-127626085D01*
X158711630Y-127626084D01*
X158711627Y-127626078D01*
X158602140Y-127462219D01*
X158602139Y-127462218D01*
X158489421Y-127349500D01*
X158362782Y-127222861D01*
X158362781Y-127222860D01*
X158362780Y-127222859D01*
X158198920Y-127113371D01*
X158198911Y-127113366D01*
X158126315Y-127083296D01*
X158070165Y-127060038D01*
X158016836Y-127037949D01*
X158016832Y-127037948D01*
X158016828Y-127037946D01*
X157920188Y-127018724D01*
X157823544Y-126999500D01*
X157823541Y-126999500D01*
X139173541Y-126999500D01*
X120701459Y-126999500D01*
X120701454Y-126999500D01*
X120669391Y-127005876D01*
X120669392Y-127005877D01*
X120508170Y-127037946D01*
X120508164Y-127037948D01*
X120326088Y-127113366D01*
X120326079Y-127113371D01*
X120162219Y-127222859D01*
X120162215Y-127222862D01*
X117421899Y-129963181D01*
X117360576Y-129996666D01*
X117334218Y-129999500D01*
X92101457Y-129999500D01*
X91908170Y-130037947D01*
X91908160Y-130037950D01*
X91726092Y-130113364D01*
X91726079Y-130113371D01*
X91562218Y-130222860D01*
X91562214Y-130222863D01*
X91422863Y-130362214D01*
X91422860Y-130362218D01*
X91313371Y-130526079D01*
X91313364Y-130526092D01*
X91237950Y-130708160D01*
X91237947Y-130708170D01*
X91199500Y-130901456D01*
X91199500Y-130901459D01*
X91199500Y-131098541D01*
X91199500Y-131098543D01*
X91199499Y-131098543D01*
X75500500Y-131098543D01*
X75500500Y-124101455D01*
X87099500Y-124101455D01*
X87099500Y-124298544D01*
X87137947Y-124491828D01*
X87137949Y-124491836D01*
X87213367Y-124673910D01*
X87213372Y-124673920D01*
X87322860Y-124837780D01*
X87322863Y-124837784D01*
X87919735Y-125434655D01*
X87919764Y-125434686D01*
X88062214Y-125577136D01*
X88062218Y-125577139D01*
X88226079Y-125686628D01*
X88226092Y-125686635D01*
X88354833Y-125739961D01*
X88397744Y-125757735D01*
X88408164Y-125762051D01*
X88504812Y-125781275D01*
X88553135Y-125790887D01*
X88601458Y-125800500D01*
X88601459Y-125800500D01*
X150198543Y-125800500D01*
X150328582Y-125774632D01*
X150391835Y-125762051D01*
X150573914Y-125686632D01*
X150737782Y-125577139D01*
X150877139Y-125437782D01*
X150986632Y-125273914D01*
X151062051Y-125091835D01*
X151100500Y-124898541D01*
X151100500Y-124701459D01*
X151100500Y-124701456D01*
X151062052Y-124508170D01*
X151062051Y-124508169D01*
X151062051Y-124508165D01*
X151055284Y-124491828D01*
X150986635Y-124326092D01*
X150986628Y-124326079D01*
X150877139Y-124162218D01*
X150877136Y-124162214D01*
X150737785Y-124022863D01*
X150737781Y-124022860D01*
X150573920Y-123913371D01*
X150573907Y-123913364D01*
X150391839Y-123837950D01*
X150391829Y-123837947D01*
X150198543Y-123799500D01*
X150198541Y-123799500D01*
X126698541Y-123799500D01*
X124298541Y-123799500D01*
X89165782Y-123799500D01*
X89098743Y-123779815D01*
X89078101Y-123763181D01*
X88737784Y-123422863D01*
X88737780Y-123422860D01*
X88573920Y-123313372D01*
X88573910Y-123313367D01*
X88391836Y-123237949D01*
X88391828Y-123237947D01*
X88198543Y-123199500D01*
X88198540Y-123199500D01*
X88001460Y-123199500D01*
X88001457Y-123199500D01*
X87808171Y-123237947D01*
X87808163Y-123237949D01*
X87626089Y-123313367D01*
X87626079Y-123313372D01*
X87462219Y-123422860D01*
X87462215Y-123422863D01*
X87322863Y-123562215D01*
X87322860Y-123562219D01*
X87213372Y-123726079D01*
X87213367Y-123726089D01*
X87137949Y-123908163D01*
X87137947Y-123908171D01*
X87099500Y-124101455D01*
X75500500Y-124101455D01*
X75500500Y-117699996D01*
X100294435Y-117699996D01*
X100294435Y-117700003D01*
X100314630Y-117879249D01*
X100314631Y-117879254D01*
X100374211Y-118049523D01*
X100470184Y-118202262D01*
X100597738Y-118329816D01*
X100688080Y-118386582D01*
X100743903Y-118421658D01*
X100750478Y-118425789D01*
X100821098Y-118450500D01*
X100920745Y-118485368D01*
X100920750Y-118485369D01*
X101099996Y-118505565D01*
X101100000Y-118505565D01*
X101100004Y-118505565D01*
X101279249Y-118485369D01*
X101279252Y-118485368D01*
X101279255Y-118485368D01*
X101359017Y-118457457D01*
X101399972Y-118450500D01*
X121200028Y-118450500D01*
X121240983Y-118457458D01*
X121320745Y-118485368D01*
X121320750Y-118485369D01*
X121499996Y-118505565D01*
X121500000Y-118505565D01*
X121500004Y-118505565D01*
X121679249Y-118485369D01*
X121679252Y-118485368D01*
X121679255Y-118485368D01*
X121759017Y-118457457D01*
X121799972Y-118450500D01*
X122900028Y-118450500D01*
X122940983Y-118457458D01*
X123020745Y-118485368D01*
X123020750Y-118485369D01*
X123199996Y-118505565D01*
X123200000Y-118505565D01*
X123200004Y-118505565D01*
X123379249Y-118485369D01*
X123379252Y-118485368D01*
X123379255Y-118485368D01*
X123459017Y-118457457D01*
X123499972Y-118450500D01*
X123700028Y-118450500D01*
X123740983Y-118457458D01*
X123820745Y-118485368D01*
X123820750Y-118485369D01*
X123999996Y-118505565D01*
X124000000Y-118505565D01*
X124000004Y-118505565D01*
X124179249Y-118485369D01*
X124179252Y-118485368D01*
X124179255Y-118485368D01*
X124259017Y-118457457D01*
X124299972Y-118450500D01*
X143200028Y-118450500D01*
X143240983Y-118457458D01*
X143320745Y-118485368D01*
X143320750Y-118485369D01*
X143499996Y-118505565D01*
X143500000Y-118505565D01*
X143500004Y-118505565D01*
X143679249Y-118485369D01*
X143679252Y-118485368D01*
X143679255Y-118485368D01*
X143759017Y-118457457D01*
X143799972Y-118450500D01*
X159573920Y-118450500D01*
X159671462Y-118431096D01*
X159718913Y-118421658D01*
X159855495Y-118365084D01*
X159908277Y-118329816D01*
X159978416Y-118282952D01*
X164208059Y-114053306D01*
X164244132Y-114030657D01*
X164243244Y-114028813D01*
X164249515Y-114025792D01*
X164249516Y-114025790D01*
X164249522Y-114025789D01*
X164402262Y-113929816D01*
X164529816Y-113802262D01*
X164625789Y-113649522D01*
X164685368Y-113479255D01*
X164705565Y-113300000D01*
X164685368Y-113120745D01*
X164625789Y-112950478D01*
X164529816Y-112797738D01*
X164402262Y-112670184D01*
X164249523Y-112574211D01*
X164079254Y-112514631D01*
X164079249Y-112514630D01*
X163900004Y-112494435D01*
X163899996Y-112494435D01*
X163720750Y-112514630D01*
X163720745Y-112514631D01*
X163550476Y-112574211D01*
X163397737Y-112670184D01*
X163270184Y-112797737D01*
X163174208Y-112950483D01*
X163171186Y-112956758D01*
X163169361Y-112955878D01*
X163146692Y-112991939D01*
X159225451Y-116913181D01*
X159164128Y-116946666D01*
X159137770Y-116949500D01*
X143799972Y-116949500D01*
X143759017Y-116942542D01*
X143679254Y-116914631D01*
X143679249Y-116914630D01*
X143500004Y-116894435D01*
X143499996Y-116894435D01*
X143320750Y-116914630D01*
X143320745Y-116914631D01*
X143240983Y-116942542D01*
X143200028Y-116949500D01*
X124299972Y-116949500D01*
X124259017Y-116942542D01*
X124179254Y-116914631D01*
X124179249Y-116914630D01*
X124000004Y-116894435D01*
X123999996Y-116894435D01*
X123820750Y-116914630D01*
X123820745Y-116914631D01*
X123740983Y-116942542D01*
X123700028Y-116949500D01*
X123499972Y-116949500D01*
X123459017Y-116942542D01*
X123379254Y-116914631D01*
X123379249Y-116914630D01*
X123200004Y-116894435D01*
X123199996Y-116894435D01*
X123020750Y-116914630D01*
X123020745Y-116914631D01*
X122940983Y-116942542D01*
X122900028Y-116949500D01*
X121799972Y-116949500D01*
X121759017Y-116942542D01*
X121679254Y-116914631D01*
X121679249Y-116914630D01*
X121500004Y-116894435D01*
X121499996Y-116894435D01*
X121320750Y-116914630D01*
X121320745Y-116914631D01*
X121240983Y-116942542D01*
X121200028Y-116949500D01*
X101399972Y-116949500D01*
X101359017Y-116942542D01*
X101279254Y-116914631D01*
X101279249Y-116914630D01*
X101100004Y-116894435D01*
X101099996Y-116894435D01*
X100920750Y-116914630D01*
X100920745Y-116914631D01*
X100750476Y-116974211D01*
X100597737Y-117070184D01*
X100470184Y-117197737D01*
X100374211Y-117350476D01*
X100314631Y-117520745D01*
X100314630Y-117520750D01*
X100294435Y-117699996D01*
X75500500Y-117699996D01*
X75500500Y-106799996D01*
X155094435Y-106799996D01*
X155094435Y-106800003D01*
X155114630Y-106979249D01*
X155114631Y-106979254D01*
X155174211Y-107149523D01*
X155270184Y-107302262D01*
X155397738Y-107429816D01*
X155550478Y-107525789D01*
X155720745Y-107585368D01*
X155720750Y-107585369D01*
X155899996Y-107605565D01*
X155900000Y-107605565D01*
X155900004Y-107605565D01*
X156079249Y-107585369D01*
X156079252Y-107585368D01*
X156079255Y-107585368D01*
X156249522Y-107525789D01*
X156402262Y-107429816D01*
X156529816Y-107302262D01*
X156625789Y-107149522D01*
X156685368Y-106979255D01*
X156693101Y-106910616D01*
X156720166Y-106846204D01*
X156777760Y-106806648D01*
X156816321Y-106800500D01*
X161313331Y-106800500D01*
X161313347Y-106800501D01*
X161320943Y-106800501D01*
X161479054Y-106800501D01*
X161479057Y-106800501D01*
X161631785Y-106759577D01*
X161681904Y-106730639D01*
X161768716Y-106680520D01*
X161880520Y-106568716D01*
X161880520Y-106568714D01*
X161890728Y-106558507D01*
X161890730Y-106558504D01*
X162418535Y-106030698D01*
X162479856Y-105997215D01*
X162492311Y-105995163D01*
X162579255Y-105985368D01*
X162749522Y-105925789D01*
X162902262Y-105829816D01*
X163029816Y-105702262D01*
X163125789Y-105549522D01*
X163185368Y-105379255D01*
X163205565Y-105200000D01*
X163202419Y-105172082D01*
X163185369Y-105020750D01*
X163185368Y-105020745D01*
X163125788Y-104850476D01*
X163029815Y-104697737D01*
X162902262Y-104570184D01*
X162749523Y-104474211D01*
X162579254Y-104414631D01*
X162579249Y-104414630D01*
X162400004Y-104394435D01*
X162399996Y-104394435D01*
X162220750Y-104414630D01*
X162220745Y-104414631D01*
X162050476Y-104474211D01*
X161897737Y-104570184D01*
X161770184Y-104697737D01*
X161674210Y-104850478D01*
X161614630Y-105020750D01*
X161604837Y-105107668D01*
X161577770Y-105172082D01*
X161569298Y-105181465D01*
X161187584Y-105563181D01*
X161126261Y-105596666D01*
X161099903Y-105599500D01*
X156579057Y-105599500D01*
X156420943Y-105599500D01*
X156268215Y-105640423D01*
X156268214Y-105640423D01*
X156268212Y-105640424D01*
X156268209Y-105640425D01*
X156218096Y-105669359D01*
X156218095Y-105669360D01*
X156174689Y-105694420D01*
X156131285Y-105719479D01*
X156131282Y-105719481D01*
X156020949Y-105829815D01*
X156019480Y-105831284D01*
X156019478Y-105831286D01*
X155924975Y-105925789D01*
X155881465Y-105969299D01*
X155820142Y-106002783D01*
X155807668Y-106004837D01*
X155720750Y-106014630D01*
X155550478Y-106074210D01*
X155397737Y-106170184D01*
X155270184Y-106297737D01*
X155174211Y-106450476D01*
X155114631Y-106620745D01*
X155114630Y-106620750D01*
X155094435Y-106799996D01*
X75500500Y-106799996D01*
X75500500Y-101299996D01*
X135094435Y-101299996D01*
X135094435Y-101300003D01*
X135114630Y-101479249D01*
X135114631Y-101479254D01*
X135174211Y-101649523D01*
X135270184Y-101802262D01*
X135397738Y-101929816D01*
X135550478Y-102025789D01*
X135720745Y-102085368D01*
X135720750Y-102085369D01*
X135899996Y-102105565D01*
X135900000Y-102105565D01*
X135900004Y-102105565D01*
X136079249Y-102085369D01*
X136079252Y-102085368D01*
X136079255Y-102085368D01*
X136249522Y-102025789D01*
X136402262Y-101929816D01*
X136402267Y-101929810D01*
X136405097Y-101927555D01*
X136407275Y-101926665D01*
X136408158Y-101926111D01*
X136408255Y-101926265D01*
X136469783Y-101901145D01*
X136482412Y-101900500D01*
X137313331Y-101900500D01*
X137313347Y-101900501D01*
X137320943Y-101900501D01*
X137479054Y-101900501D01*
X137479057Y-101900501D01*
X137631785Y-101859577D01*
X137681904Y-101830639D01*
X137768716Y-101780520D01*
X137880520Y-101668716D01*
X137880520Y-101668714D01*
X137890728Y-101658507D01*
X137890730Y-101658504D01*
X143035571Y-96513662D01*
X143082292Y-96484305D01*
X143249522Y-96425789D01*
X143402262Y-96329816D01*
X143529816Y-96202262D01*
X143625789Y-96049522D01*
X143685368Y-95879255D01*
X143685369Y-95879249D01*
X143705565Y-95700003D01*
X143705565Y-95699996D01*
X143685369Y-95520750D01*
X143685368Y-95520745D01*
X143625788Y-95350476D01*
X143529815Y-95197737D01*
X143402262Y-95070184D01*
X143249523Y-94974211D01*
X143079254Y-94914631D01*
X143079249Y-94914630D01*
X142900004Y-94894435D01*
X142899996Y-94894435D01*
X142720750Y-94914630D01*
X142720745Y-94914631D01*
X142550476Y-94974211D01*
X142397737Y-95070184D01*
X142270184Y-95197737D01*
X142174211Y-95350476D01*
X142114631Y-95520745D01*
X142114630Y-95520750D01*
X142094435Y-95699996D01*
X142094435Y-95704967D01*
X142074750Y-95772006D01*
X142058116Y-95792648D01*
X137187584Y-100663181D01*
X137126261Y-100696666D01*
X137099903Y-100699500D01*
X136482412Y-100699500D01*
X136415373Y-100679815D01*
X136405097Y-100672445D01*
X136402263Y-100670185D01*
X136402262Y-100670184D01*
X136345496Y-100634515D01*
X136249523Y-100574211D01*
X136079254Y-100514631D01*
X136079249Y-100514630D01*
X135900004Y-100494435D01*
X135899996Y-100494435D01*
X135720750Y-100514630D01*
X135720745Y-100514631D01*
X135550476Y-100574211D01*
X135397737Y-100670184D01*
X135270184Y-100797737D01*
X135174211Y-100950476D01*
X135114631Y-101120745D01*
X135114630Y-101120750D01*
X135094435Y-101299996D01*
X75500500Y-101299996D01*
X75500500Y-85699996D01*
X133394435Y-85699996D01*
X133394435Y-85700003D01*
X133414630Y-85879249D01*
X133414631Y-85879254D01*
X133474211Y-86049523D01*
X133570185Y-86202263D01*
X133572445Y-86205097D01*
X133573334Y-86207275D01*
X133573889Y-86208158D01*
X133573734Y-86208255D01*
X133598855Y-86269783D01*
X133599500Y-86282412D01*
X133599500Y-96513330D01*
X133599499Y-96513348D01*
X133599499Y-96679054D01*
X133599498Y-96679054D01*
X133640423Y-96831785D01*
X133669358Y-96881900D01*
X133669359Y-96881904D01*
X133669360Y-96881904D01*
X133719479Y-96968714D01*
X133719481Y-96968717D01*
X133838349Y-97087585D01*
X133838355Y-97087590D01*
X134969298Y-98218534D01*
X135002783Y-98279857D01*
X135004837Y-98292331D01*
X135014630Y-98379249D01*
X135074210Y-98549521D01*
X135170184Y-98702262D01*
X135297738Y-98829816D01*
X135450478Y-98925789D01*
X135620745Y-98985368D01*
X135620750Y-98985369D01*
X135799996Y-99005565D01*
X135800000Y-99005565D01*
X135800004Y-99005565D01*
X135979249Y-98985369D01*
X135979252Y-98985368D01*
X135979255Y-98985368D01*
X136149522Y-98925789D01*
X136302262Y-98829816D01*
X136429816Y-98702262D01*
X136525789Y-98549522D01*
X136585368Y-98379255D01*
X136595162Y-98292331D01*
X136605565Y-98200003D01*
X136605565Y-98199996D01*
X136585369Y-98020750D01*
X136585368Y-98020745D01*
X136525788Y-97850476D01*
X136429815Y-97697737D01*
X136302262Y-97570184D01*
X136149521Y-97474210D01*
X135979249Y-97414630D01*
X135892331Y-97404837D01*
X135827917Y-97377770D01*
X135818534Y-97369298D01*
X134836819Y-96387583D01*
X134803334Y-96326260D01*
X134800500Y-96299902D01*
X134800500Y-86282412D01*
X134820185Y-86215373D01*
X134827555Y-86205097D01*
X134829810Y-86202267D01*
X134829816Y-86202262D01*
X134925789Y-86049522D01*
X134985368Y-85879255D01*
X135005565Y-85700000D01*
X134985368Y-85520745D01*
X134925789Y-85350478D01*
X134829816Y-85197738D01*
X134702262Y-85070184D01*
X134549523Y-84974211D01*
X134379254Y-84914631D01*
X134379249Y-84914630D01*
X134200004Y-84894435D01*
X134199996Y-84894435D01*
X134020750Y-84914630D01*
X134020745Y-84914631D01*
X133850476Y-84974211D01*
X133697737Y-85070184D01*
X133570184Y-85197737D01*
X133474211Y-85350476D01*
X133414631Y-85520745D01*
X133414630Y-85520750D01*
X133394435Y-85699996D01*
X75500500Y-85699996D01*
X75500500Y-72099996D01*
X95394435Y-72099996D01*
X95394435Y-72100003D01*
X95414630Y-72279249D01*
X95414631Y-72279254D01*
X95474211Y-72449523D01*
X95509425Y-72505565D01*
X95570184Y-72602262D01*
X95697738Y-72729816D01*
X95741730Y-72757458D01*
X95843903Y-72821658D01*
X95850478Y-72825789D01*
X95921098Y-72850500D01*
X96020745Y-72885368D01*
X96020750Y-72885369D01*
X96199996Y-72905565D01*
X96200000Y-72905565D01*
X96200004Y-72905565D01*
X96379249Y-72885369D01*
X96379252Y-72885368D01*
X96379255Y-72885368D01*
X96459017Y-72857457D01*
X96499972Y-72850500D01*
X101200028Y-72850500D01*
X101240983Y-72857458D01*
X101320745Y-72885368D01*
X101320750Y-72885369D01*
X101499996Y-72905565D01*
X101500000Y-72905565D01*
X101500004Y-72905565D01*
X101679249Y-72885369D01*
X101679252Y-72885368D01*
X101679255Y-72885368D01*
X101849522Y-72825789D01*
X102002262Y-72729816D01*
X102129816Y-72602262D01*
X102225789Y-72449522D01*
X102285368Y-72279255D01*
X102294615Y-72197185D01*
X102305565Y-72100003D01*
X102305565Y-72099996D01*
X116694435Y-72099996D01*
X116694435Y-72100003D01*
X116714630Y-72279249D01*
X116714631Y-72279254D01*
X116774211Y-72449523D01*
X116809425Y-72505565D01*
X116870184Y-72602262D01*
X116997738Y-72729816D01*
X117041730Y-72757458D01*
X117143903Y-72821658D01*
X117150478Y-72825789D01*
X117221098Y-72850500D01*
X117320745Y-72885368D01*
X117320750Y-72885369D01*
X117499996Y-72905565D01*
X117500000Y-72905565D01*
X117500004Y-72905565D01*
X117679249Y-72885369D01*
X117679252Y-72885368D01*
X117679255Y-72885368D01*
X117759017Y-72857457D01*
X117799972Y-72850500D01*
X122173920Y-72850500D01*
X122318908Y-72821659D01*
X122318908Y-72821658D01*
X122318913Y-72821658D01*
X122380013Y-72796348D01*
X122441348Y-72787689D01*
X122562060Y-72801290D01*
X122599998Y-72805565D01*
X122600000Y-72805565D01*
X122600004Y-72805565D01*
X122779249Y-72785369D01*
X122779252Y-72785368D01*
X122779255Y-72785368D01*
X122949522Y-72725789D01*
X123102262Y-72629816D01*
X123229816Y-72502262D01*
X123325789Y-72349522D01*
X123385368Y-72179255D01*
X123391392Y-72125789D01*
X123405565Y-72000003D01*
X123405565Y-71999996D01*
X137794435Y-71999996D01*
X137794435Y-72000003D01*
X137814630Y-72179249D01*
X137814631Y-72179254D01*
X137874211Y-72349523D01*
X137937045Y-72449522D01*
X137970184Y-72502262D01*
X138097738Y-72629816D01*
X138153867Y-72665084D01*
X138243903Y-72721658D01*
X138250478Y-72725789D01*
X138261984Y-72729815D01*
X138420745Y-72785368D01*
X138420750Y-72785369D01*
X138599996Y-72805565D01*
X138600000Y-72805565D01*
X138600004Y-72805565D01*
X138779249Y-72785369D01*
X138779252Y-72785368D01*
X138779255Y-72785368D01*
X138859017Y-72757457D01*
X138899972Y-72750500D01*
X144573920Y-72750500D01*
X144677906Y-72729815D01*
X144718913Y-72721658D01*
X144855495Y-72665084D01*
X144862496Y-72660406D01*
X144890438Y-72646463D01*
X144949522Y-72625789D01*
X145102262Y-72529816D01*
X145229816Y-72402262D01*
X145325789Y-72249522D01*
X145385368Y-72079255D01*
X145388718Y-72049522D01*
X145405565Y-71900003D01*
X145405565Y-71899996D01*
X145385369Y-71720750D01*
X145385368Y-71720745D01*
X145378108Y-71699996D01*
X145325789Y-71550478D01*
X145307106Y-71520745D01*
X145231237Y-71400000D01*
X145231234Y-71399996D01*
X158794435Y-71399996D01*
X158794435Y-71400003D01*
X158814630Y-71579249D01*
X158814631Y-71579254D01*
X158874211Y-71749523D01*
X158955724Y-71879249D01*
X158970184Y-71902262D01*
X159097738Y-72029816D01*
X159250478Y-72125789D01*
X159403258Y-72179249D01*
X159420745Y-72185368D01*
X159420750Y-72185369D01*
X159599996Y-72205565D01*
X159600000Y-72205565D01*
X159600004Y-72205565D01*
X159779249Y-72185369D01*
X159779252Y-72185368D01*
X159779255Y-72185368D01*
X159859017Y-72157457D01*
X159899972Y-72150500D01*
X165069190Y-72150500D01*
X165136229Y-72170185D01*
X165166135Y-72197185D01*
X165170183Y-72202261D01*
X165170184Y-72202262D01*
X165297738Y-72329816D01*
X165450478Y-72425789D01*
X165518306Y-72449523D01*
X165620745Y-72485368D01*
X165620750Y-72485369D01*
X165799996Y-72505565D01*
X165800000Y-72505565D01*
X165800004Y-72505565D01*
X165979249Y-72485369D01*
X165979252Y-72485368D01*
X165979255Y-72485368D01*
X166149522Y-72425789D01*
X166302262Y-72329816D01*
X166429816Y-72202262D01*
X166525789Y-72049522D01*
X166585368Y-71879255D01*
X166591960Y-71820750D01*
X166605565Y-71700003D01*
X166605565Y-71699996D01*
X166585369Y-71520750D01*
X166585368Y-71520745D01*
X166525789Y-71350478D01*
X166525174Y-71349500D01*
X166440431Y-71214632D01*
X166429816Y-71197738D01*
X166302262Y-71070184D01*
X166149522Y-70974211D01*
X166149516Y-70974207D01*
X166143247Y-70971188D01*
X166144129Y-70969356D01*
X166108061Y-70946693D01*
X165978416Y-70817048D01*
X165978415Y-70817047D01*
X165978414Y-70817046D01*
X165904729Y-70767812D01*
X165904729Y-70767813D01*
X165855491Y-70734913D01*
X165718917Y-70678343D01*
X165718907Y-70678340D01*
X165573920Y-70649500D01*
X165573918Y-70649500D01*
X159899972Y-70649500D01*
X159859017Y-70642542D01*
X159779254Y-70614631D01*
X159779249Y-70614630D01*
X159600004Y-70594435D01*
X159599996Y-70594435D01*
X159420750Y-70614630D01*
X159420745Y-70614631D01*
X159250476Y-70674211D01*
X159097737Y-70770184D01*
X158970184Y-70897737D01*
X158874211Y-71050476D01*
X158814631Y-71220745D01*
X158814630Y-71220750D01*
X158794435Y-71399996D01*
X145231234Y-71399996D01*
X145229816Y-71397738D01*
X145102262Y-71270184D01*
X145039096Y-71230494D01*
X144949523Y-71174211D01*
X144779254Y-71114631D01*
X144779249Y-71114630D01*
X144600004Y-71094435D01*
X144599996Y-71094435D01*
X144420750Y-71114630D01*
X144420737Y-71114633D01*
X144250481Y-71174209D01*
X144250477Y-71174210D01*
X144160904Y-71230494D01*
X144094932Y-71249500D01*
X138899972Y-71249500D01*
X138859017Y-71242542D01*
X138779254Y-71214631D01*
X138779249Y-71214630D01*
X138600004Y-71194435D01*
X138599996Y-71194435D01*
X138420750Y-71214630D01*
X138420745Y-71214631D01*
X138250476Y-71274211D01*
X138097737Y-71370184D01*
X137970184Y-71497737D01*
X137874211Y-71650476D01*
X137814631Y-71820745D01*
X137814630Y-71820750D01*
X137794435Y-71999996D01*
X123405565Y-71999996D01*
X123385369Y-71820750D01*
X123385368Y-71820745D01*
X123325789Y-71650478D01*
X123229816Y-71497738D01*
X123102262Y-71370184D01*
X123049843Y-71337247D01*
X122949523Y-71274211D01*
X122779254Y-71214631D01*
X122779249Y-71214630D01*
X122600004Y-71194435D01*
X122599996Y-71194435D01*
X122420750Y-71214630D01*
X122420745Y-71214631D01*
X122340983Y-71242542D01*
X122300028Y-71249500D01*
X122126080Y-71249500D01*
X121981092Y-71278340D01*
X121981086Y-71278342D01*
X121838878Y-71337247D01*
X121838520Y-71336385D01*
X121786160Y-71349500D01*
X117799972Y-71349500D01*
X117759017Y-71342542D01*
X117679254Y-71314631D01*
X117679249Y-71314630D01*
X117500004Y-71294435D01*
X117499996Y-71294435D01*
X117320750Y-71314630D01*
X117320745Y-71314631D01*
X117150476Y-71374211D01*
X116997737Y-71470184D01*
X116870184Y-71597737D01*
X116774211Y-71750476D01*
X116714631Y-71920745D01*
X116714630Y-71920750D01*
X116694435Y-72099996D01*
X102305565Y-72099996D01*
X102285369Y-71920750D01*
X102285368Y-71920745D01*
X102225789Y-71750478D01*
X102225188Y-71749522D01*
X102162955Y-71650478D01*
X102129816Y-71597738D01*
X102002262Y-71470184D01*
X101890570Y-71400003D01*
X101849523Y-71374211D01*
X101679254Y-71314631D01*
X101679249Y-71314630D01*
X101500004Y-71294435D01*
X101499996Y-71294435D01*
X101320750Y-71314630D01*
X101320745Y-71314631D01*
X101240983Y-71342542D01*
X101200028Y-71349500D01*
X96499972Y-71349500D01*
X96459017Y-71342542D01*
X96379254Y-71314631D01*
X96379249Y-71314630D01*
X96200004Y-71294435D01*
X96199996Y-71294435D01*
X96020750Y-71314630D01*
X96020745Y-71314631D01*
X95850476Y-71374211D01*
X95697737Y-71470184D01*
X95570184Y-71597737D01*
X95474211Y-71750476D01*
X95414631Y-71920745D01*
X95414630Y-71920750D01*
X95394435Y-72099996D01*
X75500500Y-72099996D01*
X75500500Y-66880000D01*
X84884723Y-66880000D01*
X84903388Y-67093352D01*
X84903793Y-67097975D01*
X84903793Y-67097979D01*
X84960422Y-67309322D01*
X84960424Y-67309326D01*
X84960425Y-67309330D01*
X84981952Y-67355495D01*
X85052897Y-67507638D01*
X85077998Y-67543486D01*
X85178402Y-67686877D01*
X85333123Y-67841598D01*
X85512361Y-67967102D01*
X85710670Y-68059575D01*
X85922023Y-68116207D01*
X86104926Y-68132208D01*
X86139998Y-68135277D01*
X86140000Y-68135277D01*
X86140002Y-68135277D01*
X86168254Y-68132805D01*
X86357977Y-68116207D01*
X86569330Y-68059575D01*
X86767639Y-67967102D01*
X86946877Y-67841598D01*
X87101598Y-67686877D01*
X87183426Y-67570013D01*
X87238002Y-67526390D01*
X87307501Y-67519198D01*
X87369855Y-67550720D01*
X87386570Y-67570010D01*
X87468402Y-67686877D01*
X87623123Y-67841598D01*
X87802361Y-67967102D01*
X88000670Y-68059575D01*
X88212023Y-68116207D01*
X88394926Y-68132208D01*
X88429998Y-68135277D01*
X88430000Y-68135277D01*
X88430001Y-68135277D01*
X88447324Y-68133761D01*
X88580997Y-68122066D01*
X88649495Y-68135832D01*
X88660695Y-68142493D01*
X88694497Y-68165079D01*
X88694500Y-68165081D01*
X88694505Y-68165084D01*
X88694507Y-68165085D01*
X88694511Y-68165087D01*
X88831082Y-68221656D01*
X88831087Y-68221658D01*
X88831091Y-68221658D01*
X88831092Y-68221659D01*
X88976079Y-68250500D01*
X88976082Y-68250500D01*
X92373920Y-68250500D01*
X92471462Y-68231096D01*
X92518913Y-68221658D01*
X92655495Y-68165084D01*
X92728645Y-68116207D01*
X92778416Y-68082952D01*
X93382952Y-67478416D01*
X93432325Y-67404523D01*
X93465084Y-67355495D01*
X93521658Y-67218913D01*
X93531096Y-67171462D01*
X93550500Y-67073920D01*
X93550500Y-66880000D01*
X96314723Y-66880000D01*
X96333388Y-67093352D01*
X96333793Y-67097975D01*
X96333793Y-67097979D01*
X96390422Y-67309322D01*
X96390424Y-67309326D01*
X96390425Y-67309330D01*
X96411952Y-67355495D01*
X96482897Y-67507638D01*
X96507998Y-67543486D01*
X96608402Y-67686877D01*
X96763123Y-67841598D01*
X96942361Y-67967102D01*
X97140670Y-68059575D01*
X97352023Y-68116207D01*
X97534926Y-68132208D01*
X97569998Y-68135277D01*
X97570000Y-68135277D01*
X97570002Y-68135277D01*
X97598254Y-68132805D01*
X97787977Y-68116207D01*
X97999330Y-68059575D01*
X98197639Y-67967102D01*
X98376877Y-67841598D01*
X98531598Y-67686877D01*
X98613426Y-67570013D01*
X98668002Y-67526390D01*
X98737501Y-67519198D01*
X98799855Y-67550720D01*
X98816570Y-67570010D01*
X98898402Y-67686877D01*
X99053123Y-67841598D01*
X99232361Y-67967102D01*
X99430670Y-68059575D01*
X99642023Y-68116207D01*
X99824926Y-68132208D01*
X99859998Y-68135277D01*
X99860000Y-68135277D01*
X99860002Y-68135277D01*
X99888254Y-68132805D01*
X100077977Y-68116207D01*
X100289330Y-68059575D01*
X100487639Y-67967102D01*
X100666877Y-67841598D01*
X100821598Y-67686877D01*
X100947102Y-67507639D01*
X101039575Y-67309330D01*
X101096207Y-67097977D01*
X101115277Y-66880000D01*
X106218056Y-66880000D01*
X106236721Y-67093352D01*
X106237126Y-67097975D01*
X106237126Y-67097979D01*
X106293755Y-67309322D01*
X106293757Y-67309326D01*
X106293758Y-67309330D01*
X106315285Y-67355495D01*
X106386230Y-67507638D01*
X106411331Y-67543486D01*
X106511735Y-67686877D01*
X106666456Y-67841598D01*
X106845694Y-67967102D01*
X107044003Y-68059575D01*
X107255356Y-68116207D01*
X107438259Y-68132208D01*
X107473331Y-68135277D01*
X107473333Y-68135277D01*
X107473335Y-68135277D01*
X107501587Y-68132805D01*
X107691310Y-68116207D01*
X107902663Y-68059575D01*
X108100972Y-67967102D01*
X108280210Y-67841598D01*
X108434931Y-67686877D01*
X108516759Y-67570013D01*
X108571335Y-67526390D01*
X108640834Y-67519198D01*
X108703188Y-67550720D01*
X108719903Y-67570010D01*
X108801735Y-67686877D01*
X108956456Y-67841598D01*
X109135694Y-67967102D01*
X109334003Y-68059575D01*
X109545356Y-68116207D01*
X109728259Y-68132208D01*
X109763331Y-68135277D01*
X109763333Y-68135277D01*
X109763334Y-68135277D01*
X109779249Y-68133884D01*
X109884041Y-68124716D01*
X109952540Y-68138482D01*
X109982529Y-68160563D01*
X110150382Y-68328416D01*
X110254916Y-68432950D01*
X110254918Y-68432952D01*
X110377831Y-68515080D01*
X110377844Y-68515087D01*
X110514415Y-68571656D01*
X110514420Y-68571658D01*
X110514424Y-68571658D01*
X110514425Y-68571659D01*
X110659412Y-68600500D01*
X110659415Y-68600500D01*
X113184581Y-68600500D01*
X113282123Y-68581096D01*
X113329574Y-68571658D01*
X113466156Y-68515084D01*
X113515390Y-68482186D01*
X113589077Y-68432952D01*
X114406284Y-67615744D01*
X114488417Y-67492823D01*
X114494383Y-67478421D01*
X114544989Y-67356245D01*
X114544991Y-67356241D01*
X114573833Y-67211246D01*
X114573833Y-67063411D01*
X114573833Y-66880000D01*
X117648056Y-66880000D01*
X117666721Y-67093352D01*
X117667126Y-67097975D01*
X117667126Y-67097979D01*
X117723755Y-67309322D01*
X117723757Y-67309326D01*
X117723758Y-67309330D01*
X117745285Y-67355495D01*
X117816230Y-67507638D01*
X117841331Y-67543486D01*
X117941735Y-67686877D01*
X118096456Y-67841598D01*
X118275694Y-67967102D01*
X118474003Y-68059575D01*
X118685356Y-68116207D01*
X118868259Y-68132208D01*
X118903331Y-68135277D01*
X118903333Y-68135277D01*
X118903335Y-68135277D01*
X118931587Y-68132805D01*
X119121310Y-68116207D01*
X119332663Y-68059575D01*
X119530972Y-67967102D01*
X119710210Y-67841598D01*
X119864931Y-67686877D01*
X119946759Y-67570013D01*
X120001335Y-67526390D01*
X120070834Y-67519198D01*
X120133188Y-67550720D01*
X120149903Y-67570010D01*
X120231735Y-67686877D01*
X120386456Y-67841598D01*
X120565694Y-67967102D01*
X120764003Y-68059575D01*
X120975356Y-68116207D01*
X121158259Y-68132208D01*
X121193331Y-68135277D01*
X121193333Y-68135277D01*
X121193335Y-68135277D01*
X121221587Y-68132805D01*
X121411310Y-68116207D01*
X121622663Y-68059575D01*
X121820972Y-67967102D01*
X122000210Y-67841598D01*
X122154931Y-67686877D01*
X122280435Y-67507639D01*
X122372908Y-67309330D01*
X122429540Y-67097977D01*
X122448610Y-66880000D01*
X127551389Y-66880000D01*
X127570054Y-67093352D01*
X127570459Y-67097975D01*
X127570459Y-67097979D01*
X127627088Y-67309322D01*
X127627090Y-67309326D01*
X127627091Y-67309330D01*
X127648618Y-67355495D01*
X127719563Y-67507638D01*
X127744664Y-67543486D01*
X127845068Y-67686877D01*
X127999789Y-67841598D01*
X128179027Y-67967102D01*
X128377336Y-68059575D01*
X128588689Y-68116207D01*
X128771592Y-68132208D01*
X128806664Y-68135277D01*
X128806666Y-68135277D01*
X128806668Y-68135277D01*
X128834920Y-68132805D01*
X129024643Y-68116207D01*
X129235996Y-68059575D01*
X129434305Y-67967102D01*
X129613543Y-67841598D01*
X129768264Y-67686877D01*
X129850092Y-67570013D01*
X129904668Y-67526390D01*
X129974167Y-67519198D01*
X130036521Y-67550720D01*
X130053236Y-67570010D01*
X130135068Y-67686877D01*
X130289789Y-67841598D01*
X130469027Y-67967102D01*
X130667336Y-68059575D01*
X130878689Y-68116207D01*
X131061592Y-68132208D01*
X131096664Y-68135277D01*
X131096666Y-68135277D01*
X131096668Y-68135277D01*
X131124920Y-68132805D01*
X131314643Y-68116207D01*
X131525996Y-68059575D01*
X131724305Y-67967102D01*
X131903543Y-67841598D01*
X132058264Y-67686877D01*
X132060716Y-67683374D01*
X132115294Y-67639751D01*
X132162290Y-67630500D01*
X134154581Y-67630500D01*
X134252123Y-67611096D01*
X134299574Y-67601658D01*
X134436156Y-67545084D01*
X134492197Y-67507639D01*
X134559077Y-67462952D01*
X135142029Y-66880000D01*
X138981389Y-66880000D01*
X139000054Y-67093352D01*
X139000459Y-67097975D01*
X139000459Y-67097979D01*
X139057088Y-67309322D01*
X139057090Y-67309326D01*
X139057091Y-67309330D01*
X139078618Y-67355495D01*
X139149563Y-67507638D01*
X139174664Y-67543486D01*
X139275068Y-67686877D01*
X139429789Y-67841598D01*
X139609027Y-67967102D01*
X139807336Y-68059575D01*
X140018689Y-68116207D01*
X140201592Y-68132208D01*
X140236664Y-68135277D01*
X140236666Y-68135277D01*
X140236668Y-68135277D01*
X140264920Y-68132805D01*
X140454643Y-68116207D01*
X140665996Y-68059575D01*
X140864305Y-67967102D01*
X141043543Y-67841598D01*
X141198264Y-67686877D01*
X141280092Y-67570013D01*
X141334668Y-67526390D01*
X141404167Y-67519198D01*
X141466521Y-67550720D01*
X141483236Y-67570010D01*
X141565068Y-67686877D01*
X141719789Y-67841598D01*
X141899027Y-67967102D01*
X142097336Y-68059575D01*
X142308689Y-68116207D01*
X142491592Y-68132208D01*
X142526664Y-68135277D01*
X142526666Y-68135277D01*
X142526668Y-68135277D01*
X142554920Y-68132805D01*
X142744643Y-68116207D01*
X142955996Y-68059575D01*
X143154305Y-67967102D01*
X143333543Y-67841598D01*
X143488264Y-67686877D01*
X143613768Y-67507639D01*
X143706241Y-67309330D01*
X143762873Y-67097977D01*
X143781943Y-66880000D01*
X148884723Y-66880000D01*
X148903388Y-67093352D01*
X148903793Y-67097975D01*
X148903793Y-67097979D01*
X148960422Y-67309322D01*
X148960424Y-67309326D01*
X148960425Y-67309330D01*
X148981952Y-67355495D01*
X149052897Y-67507638D01*
X149077998Y-67543486D01*
X149178402Y-67686877D01*
X149333123Y-67841598D01*
X149512361Y-67967102D01*
X149710670Y-68059575D01*
X149922023Y-68116207D01*
X150104926Y-68132208D01*
X150139998Y-68135277D01*
X150140000Y-68135277D01*
X150140002Y-68135277D01*
X150168254Y-68132805D01*
X150357977Y-68116207D01*
X150569330Y-68059575D01*
X150767639Y-67967102D01*
X150946877Y-67841598D01*
X151101598Y-67686877D01*
X151183426Y-67570013D01*
X151238002Y-67526390D01*
X151307501Y-67519198D01*
X151369855Y-67550720D01*
X151386570Y-67570010D01*
X151468402Y-67686877D01*
X151623123Y-67841598D01*
X151802361Y-67967102D01*
X152000670Y-68059575D01*
X152212023Y-68116207D01*
X152394926Y-68132208D01*
X152429998Y-68135277D01*
X152430000Y-68135277D01*
X152430002Y-68135277D01*
X152458254Y-68132805D01*
X152647977Y-68116207D01*
X152859330Y-68059575D01*
X153057639Y-67967102D01*
X153236877Y-67841598D01*
X153391598Y-67686877D01*
X153394050Y-67683374D01*
X153448628Y-67639751D01*
X153495624Y-67630500D01*
X155554581Y-67630500D01*
X155652123Y-67611096D01*
X155699574Y-67601658D01*
X155836156Y-67545084D01*
X155892197Y-67507639D01*
X155959077Y-67462952D01*
X156542029Y-66880000D01*
X160314723Y-66880000D01*
X160333388Y-67093352D01*
X160333793Y-67097975D01*
X160333793Y-67097979D01*
X160390422Y-67309322D01*
X160390424Y-67309326D01*
X160390425Y-67309330D01*
X160411952Y-67355495D01*
X160482897Y-67507638D01*
X160507998Y-67543486D01*
X160608402Y-67686877D01*
X160763123Y-67841598D01*
X160942361Y-67967102D01*
X161140670Y-68059575D01*
X161352023Y-68116207D01*
X161534926Y-68132208D01*
X161569998Y-68135277D01*
X161570000Y-68135277D01*
X161570002Y-68135277D01*
X161598254Y-68132805D01*
X161787977Y-68116207D01*
X161999330Y-68059575D01*
X162197639Y-67967102D01*
X162376877Y-67841598D01*
X162531598Y-67686877D01*
X162613426Y-67570013D01*
X162668002Y-67526390D01*
X162737501Y-67519198D01*
X162799855Y-67550720D01*
X162816570Y-67570010D01*
X162898402Y-67686877D01*
X163053123Y-67841598D01*
X163232361Y-67967102D01*
X163430670Y-68059575D01*
X163642023Y-68116207D01*
X163824926Y-68132208D01*
X163859998Y-68135277D01*
X163860000Y-68135277D01*
X163860002Y-68135277D01*
X163888254Y-68132805D01*
X164077977Y-68116207D01*
X164289330Y-68059575D01*
X164487639Y-67967102D01*
X164666877Y-67841598D01*
X164821598Y-67686877D01*
X164947102Y-67507639D01*
X165039575Y-67309330D01*
X165096207Y-67097977D01*
X165115277Y-66880000D01*
X165096207Y-66662023D01*
X165039575Y-66450670D01*
X164947102Y-66252362D01*
X164947100Y-66252359D01*
X164947099Y-66252357D01*
X164821599Y-66073124D01*
X164771377Y-66022902D01*
X164666877Y-65918402D01*
X164487639Y-65792898D01*
X164487640Y-65792898D01*
X164487638Y-65792897D01*
X164388484Y-65746661D01*
X164289330Y-65700425D01*
X164289326Y-65700424D01*
X164289322Y-65700422D01*
X164077977Y-65643793D01*
X163860002Y-65624723D01*
X163859998Y-65624723D01*
X163714682Y-65637436D01*
X163642023Y-65643793D01*
X163642020Y-65643793D01*
X163430677Y-65700422D01*
X163430668Y-65700426D01*
X163232361Y-65792898D01*
X163232357Y-65792900D01*
X163053121Y-65918402D01*
X162898402Y-66073121D01*
X162816575Y-66189984D01*
X162761998Y-66233609D01*
X162692500Y-66240803D01*
X162630145Y-66209280D01*
X162613425Y-66189984D01*
X162531599Y-66073124D01*
X162481377Y-66022902D01*
X162376877Y-65918402D01*
X162197639Y-65792898D01*
X162197640Y-65792898D01*
X162197638Y-65792897D01*
X162098484Y-65746661D01*
X161999330Y-65700425D01*
X161999326Y-65700424D01*
X161999322Y-65700422D01*
X161787977Y-65643793D01*
X161570002Y-65624723D01*
X161569998Y-65624723D01*
X161424682Y-65637436D01*
X161352023Y-65643793D01*
X161352020Y-65643793D01*
X161140677Y-65700422D01*
X161140668Y-65700426D01*
X160942361Y-65792898D01*
X160942357Y-65792900D01*
X160763121Y-65918402D01*
X160608402Y-66073121D01*
X160482900Y-66252357D01*
X160482898Y-66252361D01*
X160390426Y-66450668D01*
X160390422Y-66450677D01*
X160333793Y-66662020D01*
X160333793Y-66662023D01*
X160314723Y-66880000D01*
X156542029Y-66880000D01*
X157072952Y-66349077D01*
X157126646Y-66268716D01*
X157155084Y-66226156D01*
X157211658Y-66089574D01*
X157240500Y-65944579D01*
X157240500Y-63135624D01*
X157260185Y-63068585D01*
X157293378Y-63034048D01*
X157293432Y-63034009D01*
X157296877Y-63031598D01*
X157422320Y-62906154D01*
X157483641Y-62872671D01*
X157553333Y-62877655D01*
X157597681Y-62906156D01*
X157723123Y-63031598D01*
X157902361Y-63157102D01*
X158100670Y-63249575D01*
X158312023Y-63306207D01*
X158494926Y-63322208D01*
X158529998Y-63325277D01*
X158530000Y-63325277D01*
X158530002Y-63325277D01*
X158558254Y-63322805D01*
X158747977Y-63306207D01*
X158959330Y-63249575D01*
X159157639Y-63157102D01*
X159336877Y-63031598D01*
X159491598Y-62876877D01*
X159617102Y-62697639D01*
X159632585Y-62664434D01*
X159657286Y-62629158D01*
X160131944Y-62154501D01*
X160155326Y-62241764D01*
X160213911Y-62343236D01*
X160296764Y-62426089D01*
X160398236Y-62484674D01*
X160485497Y-62508055D01*
X159880427Y-63113124D01*
X159942612Y-63156666D01*
X160140840Y-63249101D01*
X160140849Y-63249105D01*
X160352105Y-63305710D01*
X160352115Y-63305712D01*
X160569999Y-63324775D01*
X160570001Y-63324775D01*
X160787884Y-63305712D01*
X160787894Y-63305710D01*
X160999150Y-63249105D01*
X160999164Y-63249100D01*
X161197383Y-63156669D01*
X161197385Y-63156668D01*
X161259570Y-63113124D01*
X160654503Y-62508055D01*
X160741764Y-62484674D01*
X160843236Y-62426089D01*
X160926089Y-62343236D01*
X160984674Y-62241764D01*
X161008055Y-62154502D01*
X161613124Y-62759570D01*
X161656668Y-62697385D01*
X161656669Y-62697383D01*
X161749100Y-62499164D01*
X161749105Y-62499150D01*
X161805710Y-62287894D01*
X161805712Y-62287884D01*
X161824775Y-62070000D01*
X161824775Y-62069999D01*
X161805712Y-61852115D01*
X161805710Y-61852105D01*
X161749105Y-61640849D01*
X161749101Y-61640840D01*
X161656667Y-61442614D01*
X161656666Y-61442612D01*
X161613124Y-61380428D01*
X161613124Y-61380427D01*
X161008055Y-61985496D01*
X160984674Y-61898236D01*
X160926089Y-61796764D01*
X160843236Y-61713911D01*
X160741764Y-61655326D01*
X160654502Y-61631944D01*
X160976450Y-61309995D01*
X163324953Y-61309995D01*
X163324953Y-61310004D01*
X163345113Y-61579026D01*
X163345113Y-61579028D01*
X163405142Y-61842033D01*
X163405148Y-61842052D01*
X163503709Y-62093181D01*
X163503708Y-62093181D01*
X163638602Y-62326822D01*
X163692294Y-62394151D01*
X164339522Y-61746924D01*
X164430924Y-61883717D01*
X164556283Y-62009076D01*
X164693074Y-62100477D01*
X164044848Y-62748702D01*
X164227483Y-62873220D01*
X164227485Y-62873221D01*
X164470539Y-62990269D01*
X164470537Y-62990269D01*
X164728337Y-63069790D01*
X164728343Y-63069792D01*
X164995101Y-63109999D01*
X164995110Y-63110000D01*
X165264890Y-63110000D01*
X165264898Y-63109999D01*
X165531656Y-63069792D01*
X165531662Y-63069790D01*
X165789461Y-62990269D01*
X166032521Y-62873218D01*
X166215150Y-62748702D01*
X165566924Y-62100477D01*
X165703717Y-62009076D01*
X165829076Y-61883717D01*
X165920477Y-61746924D01*
X166567703Y-62394151D01*
X166567704Y-62394150D01*
X166621393Y-62326828D01*
X166621400Y-62326817D01*
X166756290Y-62093181D01*
X166854851Y-61842052D01*
X166854857Y-61842033D01*
X166914886Y-61579028D01*
X166914886Y-61579026D01*
X166935047Y-61310004D01*
X166935047Y-61309995D01*
X166914886Y-61040973D01*
X166914886Y-61040971D01*
X166854857Y-60777966D01*
X166854851Y-60777947D01*
X166756290Y-60526818D01*
X166756291Y-60526818D01*
X166621397Y-60293177D01*
X166567704Y-60225847D01*
X165920477Y-60873074D01*
X165829076Y-60736283D01*
X165703717Y-60610924D01*
X165566924Y-60519522D01*
X166215150Y-59871296D01*
X166032517Y-59746779D01*
X166032516Y-59746778D01*
X165789460Y-59629730D01*
X165789462Y-59629730D01*
X165531662Y-59550209D01*
X165531656Y-59550207D01*
X165264898Y-59510000D01*
X164995101Y-59510000D01*
X164728343Y-59550207D01*
X164728337Y-59550209D01*
X164470538Y-59629730D01*
X164227485Y-59746778D01*
X164227476Y-59746783D01*
X164044848Y-59871296D01*
X164693075Y-60519522D01*
X164556283Y-60610924D01*
X164430924Y-60736283D01*
X164339522Y-60873075D01*
X163692295Y-60225848D01*
X163638600Y-60293180D01*
X163503709Y-60526818D01*
X163405148Y-60777947D01*
X163405142Y-60777966D01*
X163345113Y-61040971D01*
X163345113Y-61040973D01*
X163324953Y-61309995D01*
X160976450Y-61309995D01*
X161259571Y-61026874D01*
X161197387Y-60983333D01*
X160999159Y-60890898D01*
X160999152Y-60890895D01*
X160824033Y-60843972D01*
X160764373Y-60807607D01*
X160733844Y-60744760D01*
X160736352Y-60692104D01*
X160785710Y-60507894D01*
X160785712Y-60507884D01*
X160804775Y-60290000D01*
X160804775Y-60289999D01*
X160785712Y-60072115D01*
X160785710Y-60072105D01*
X160729105Y-59860849D01*
X160729101Y-59860840D01*
X160636667Y-59662614D01*
X160636666Y-59662612D01*
X160593124Y-59600428D01*
X160593124Y-59600427D01*
X159988055Y-60205495D01*
X159964674Y-60118236D01*
X159906089Y-60016764D01*
X159823236Y-59933911D01*
X159721764Y-59875326D01*
X159634502Y-59851944D01*
X160239571Y-59246874D01*
X160177387Y-59203333D01*
X159979159Y-59110898D01*
X159979150Y-59110894D01*
X159767894Y-59054289D01*
X159767884Y-59054287D01*
X159550001Y-59035225D01*
X159549999Y-59035225D01*
X159332115Y-59054287D01*
X159332105Y-59054289D01*
X159120849Y-59110894D01*
X159120840Y-59110898D01*
X158922613Y-59203333D01*
X158860428Y-59246874D01*
X159465498Y-59851944D01*
X159378236Y-59875326D01*
X159276764Y-59933911D01*
X159193911Y-60016764D01*
X159135326Y-60118236D01*
X159111944Y-60205497D01*
X158530000Y-59623553D01*
X157948055Y-60205497D01*
X157924674Y-60118236D01*
X157866089Y-60016764D01*
X157783236Y-59933911D01*
X157681764Y-59875326D01*
X157594502Y-59851944D01*
X158199571Y-59246874D01*
X158137387Y-59203333D01*
X157939159Y-59110898D01*
X157939150Y-59110894D01*
X157727894Y-59054289D01*
X157727884Y-59054287D01*
X157510001Y-59035225D01*
X157509999Y-59035225D01*
X157292115Y-59054287D01*
X157292105Y-59054289D01*
X157080849Y-59110894D01*
X157080840Y-59110898D01*
X156882613Y-59203333D01*
X156820428Y-59246874D01*
X157425498Y-59851944D01*
X157338236Y-59875326D01*
X157236764Y-59933911D01*
X157153911Y-60016764D01*
X157095326Y-60118236D01*
X157071944Y-60205498D01*
X156597283Y-59730837D01*
X156572584Y-59695563D01*
X156557102Y-59662362D01*
X156464263Y-59529774D01*
X156431599Y-59483124D01*
X156384167Y-59435692D01*
X156276877Y-59328402D01*
X156138978Y-59231844D01*
X156097638Y-59202897D01*
X155998484Y-59156661D01*
X155899330Y-59110425D01*
X155899326Y-59110424D01*
X155899322Y-59110422D01*
X155687977Y-59053793D01*
X155470002Y-59034723D01*
X155469998Y-59034723D01*
X155324682Y-59047436D01*
X155252023Y-59053793D01*
X155252020Y-59053793D01*
X155040677Y-59110422D01*
X155040668Y-59110426D01*
X154842361Y-59202898D01*
X154842357Y-59202900D01*
X154663124Y-59328400D01*
X154537680Y-59453844D01*
X154476357Y-59487328D01*
X154406665Y-59482344D01*
X154362318Y-59453843D01*
X154236881Y-59328406D01*
X154236877Y-59328402D01*
X154093486Y-59227998D01*
X154057638Y-59202897D01*
X153958484Y-59156661D01*
X153859330Y-59110425D01*
X153859326Y-59110424D01*
X153859322Y-59110422D01*
X153647977Y-59053793D01*
X153430002Y-59034723D01*
X153429998Y-59034723D01*
X153284682Y-59047436D01*
X153212023Y-59053793D01*
X153212020Y-59053793D01*
X153000677Y-59110422D01*
X153000668Y-59110426D01*
X152802361Y-59202898D01*
X152802357Y-59202900D01*
X152623121Y-59328402D01*
X152468402Y-59483121D01*
X152342900Y-59662357D01*
X152342898Y-59662361D01*
X152250426Y-59860668D01*
X152250422Y-59860677D01*
X152193793Y-60072020D01*
X152193793Y-60072024D01*
X152174723Y-60289997D01*
X152174723Y-60290002D01*
X152193793Y-60507975D01*
X152193793Y-60507979D01*
X152212189Y-60576633D01*
X152210526Y-60646483D01*
X152199803Y-60670723D01*
X152178241Y-60708071D01*
X152171741Y-60719330D01*
X152120423Y-60808215D01*
X152079499Y-60960943D01*
X152079499Y-60960945D01*
X152079499Y-61129046D01*
X152079500Y-61129059D01*
X152079500Y-63793330D01*
X152079499Y-63793348D01*
X152079499Y-63959054D01*
X152079498Y-63959054D01*
X152120424Y-64111789D01*
X152120425Y-64111790D01*
X152139313Y-64144504D01*
X152139314Y-64144505D01*
X152199477Y-64248712D01*
X152199481Y-64248717D01*
X152318349Y-64367585D01*
X152318355Y-64367590D01*
X153868584Y-65917819D01*
X153902069Y-65979142D01*
X153897085Y-66048834D01*
X153855213Y-66104767D01*
X153789749Y-66129184D01*
X153780903Y-66129500D01*
X153495624Y-66129500D01*
X153428585Y-66109815D01*
X153394048Y-66076622D01*
X153391598Y-66073123D01*
X153341377Y-66022902D01*
X153236877Y-65918402D01*
X153057639Y-65792898D01*
X153057640Y-65792898D01*
X153057638Y-65792897D01*
X152958484Y-65746661D01*
X152859330Y-65700425D01*
X152859326Y-65700424D01*
X152859322Y-65700422D01*
X152647977Y-65643793D01*
X152430002Y-65624723D01*
X152429998Y-65624723D01*
X152284682Y-65637436D01*
X152212023Y-65643793D01*
X152212020Y-65643793D01*
X152000677Y-65700422D01*
X152000668Y-65700426D01*
X151802361Y-65792898D01*
X151802357Y-65792900D01*
X151623121Y-65918402D01*
X151468402Y-66073121D01*
X151386575Y-66189984D01*
X151331998Y-66233609D01*
X151262500Y-66240803D01*
X151200145Y-66209280D01*
X151183425Y-66189984D01*
X151101599Y-66073124D01*
X151051377Y-66022902D01*
X150946877Y-65918402D01*
X150767639Y-65792898D01*
X150767640Y-65792898D01*
X150767638Y-65792897D01*
X150668484Y-65746661D01*
X150569330Y-65700425D01*
X150569326Y-65700424D01*
X150569322Y-65700422D01*
X150357977Y-65643793D01*
X150140002Y-65624723D01*
X150139998Y-65624723D01*
X149994682Y-65637436D01*
X149922023Y-65643793D01*
X149922020Y-65643793D01*
X149710677Y-65700422D01*
X149710668Y-65700426D01*
X149512361Y-65792898D01*
X149512357Y-65792900D01*
X149333121Y-65918402D01*
X149178402Y-66073121D01*
X149052900Y-66252357D01*
X149052898Y-66252361D01*
X148960426Y-66450668D01*
X148960422Y-66450677D01*
X148903793Y-66662020D01*
X148903793Y-66662023D01*
X148884723Y-66880000D01*
X143781943Y-66880000D01*
X143762873Y-66662023D01*
X143706241Y-66450670D01*
X143613768Y-66252362D01*
X143613766Y-66252359D01*
X143613765Y-66252357D01*
X143488265Y-66073124D01*
X143438043Y-66022902D01*
X143333543Y-65918402D01*
X143154305Y-65792898D01*
X143154306Y-65792898D01*
X143154304Y-65792897D01*
X143055150Y-65746661D01*
X142955996Y-65700425D01*
X142955992Y-65700424D01*
X142955988Y-65700422D01*
X142744643Y-65643793D01*
X142526668Y-65624723D01*
X142526664Y-65624723D01*
X142381348Y-65637436D01*
X142308689Y-65643793D01*
X142308686Y-65643793D01*
X142097343Y-65700422D01*
X142097334Y-65700426D01*
X141899027Y-65792898D01*
X141899023Y-65792900D01*
X141719787Y-65918402D01*
X141565068Y-66073121D01*
X141483241Y-66189984D01*
X141428664Y-66233609D01*
X141359166Y-66240803D01*
X141296811Y-66209280D01*
X141280091Y-66189984D01*
X141198265Y-66073124D01*
X141148043Y-66022902D01*
X141043543Y-65918402D01*
X140864305Y-65792898D01*
X140864306Y-65792898D01*
X140864304Y-65792897D01*
X140765150Y-65746661D01*
X140665996Y-65700425D01*
X140665992Y-65700424D01*
X140665988Y-65700422D01*
X140454643Y-65643793D01*
X140236668Y-65624723D01*
X140236664Y-65624723D01*
X140091348Y-65637436D01*
X140018689Y-65643793D01*
X140018686Y-65643793D01*
X139807343Y-65700422D01*
X139807334Y-65700426D01*
X139609027Y-65792898D01*
X139609023Y-65792900D01*
X139429787Y-65918402D01*
X139275068Y-66073121D01*
X139149566Y-66252357D01*
X139149564Y-66252361D01*
X139057092Y-66450668D01*
X139057088Y-66450677D01*
X139000459Y-66662020D01*
X139000459Y-66662023D01*
X138981389Y-66880000D01*
X135142029Y-66880000D01*
X135739618Y-66282411D01*
X135794348Y-66200500D01*
X135821750Y-66159490D01*
X135878324Y-66022908D01*
X135899228Y-65917819D01*
X135907166Y-65877915D01*
X135907166Y-63135624D01*
X135926851Y-63068585D01*
X135960044Y-63034048D01*
X135960098Y-63034009D01*
X135963543Y-63031598D01*
X136088986Y-62906154D01*
X136150307Y-62872671D01*
X136219999Y-62877655D01*
X136264347Y-62906156D01*
X136389789Y-63031598D01*
X136569027Y-63157102D01*
X136767336Y-63249575D01*
X136978689Y-63306207D01*
X137161592Y-63322208D01*
X137196664Y-63325277D01*
X137196666Y-63325277D01*
X137196668Y-63325277D01*
X137224920Y-63322805D01*
X137414643Y-63306207D01*
X137625996Y-63249575D01*
X137824305Y-63157102D01*
X138003543Y-63031598D01*
X138158264Y-62876877D01*
X138283768Y-62697639D01*
X138299251Y-62664434D01*
X138323952Y-62629158D01*
X138798610Y-62154501D01*
X138821992Y-62241764D01*
X138880577Y-62343236D01*
X138963430Y-62426089D01*
X139064902Y-62484674D01*
X139152163Y-62508055D01*
X138547093Y-63113124D01*
X138609278Y-63156666D01*
X138807506Y-63249101D01*
X138807515Y-63249105D01*
X139018771Y-63305710D01*
X139018781Y-63305712D01*
X139236665Y-63324775D01*
X139236667Y-63324775D01*
X139454550Y-63305712D01*
X139454560Y-63305710D01*
X139665816Y-63249105D01*
X139665830Y-63249100D01*
X139864049Y-63156669D01*
X139864051Y-63156668D01*
X139926237Y-63113124D01*
X139321169Y-62508055D01*
X139408430Y-62484674D01*
X139509902Y-62426089D01*
X139592755Y-62343236D01*
X139651340Y-62241764D01*
X139674721Y-62154502D01*
X140279790Y-62759570D01*
X140323334Y-62697385D01*
X140323335Y-62697383D01*
X140415766Y-62499164D01*
X140415771Y-62499150D01*
X140472376Y-62287894D01*
X140472378Y-62287884D01*
X140491441Y-62070000D01*
X140491441Y-62069999D01*
X140472378Y-61852115D01*
X140472376Y-61852105D01*
X140415771Y-61640849D01*
X140415767Y-61640840D01*
X140323333Y-61442614D01*
X140323332Y-61442612D01*
X140279790Y-61380428D01*
X140279790Y-61380427D01*
X139674721Y-61985496D01*
X139651340Y-61898236D01*
X139592755Y-61796764D01*
X139509902Y-61713911D01*
X139408430Y-61655326D01*
X139321168Y-61631944D01*
X139643116Y-61309995D01*
X141991619Y-61309995D01*
X141991619Y-61310004D01*
X142011779Y-61579026D01*
X142011779Y-61579028D01*
X142071808Y-61842033D01*
X142071814Y-61842052D01*
X142170375Y-62093181D01*
X142170374Y-62093181D01*
X142305268Y-62326822D01*
X142358960Y-62394151D01*
X142358961Y-62394151D01*
X143006188Y-61746924D01*
X143097590Y-61883717D01*
X143222949Y-62009076D01*
X143359740Y-62100477D01*
X142711514Y-62748702D01*
X142894149Y-62873220D01*
X142894151Y-62873221D01*
X143137205Y-62990269D01*
X143137203Y-62990269D01*
X143395003Y-63069790D01*
X143395009Y-63069792D01*
X143661767Y-63109999D01*
X143661776Y-63110000D01*
X143931556Y-63110000D01*
X143931564Y-63109999D01*
X144198322Y-63069792D01*
X144198328Y-63069790D01*
X144456127Y-62990269D01*
X144699187Y-62873218D01*
X144881816Y-62748702D01*
X144233590Y-62100477D01*
X144370383Y-62009076D01*
X144495742Y-61883717D01*
X144587143Y-61746924D01*
X145234369Y-62394151D01*
X145234370Y-62394150D01*
X145288059Y-62326828D01*
X145288066Y-62326817D01*
X145422956Y-62093181D01*
X145521517Y-61842052D01*
X145521523Y-61842033D01*
X145581552Y-61579028D01*
X145581552Y-61579026D01*
X145601713Y-61310004D01*
X145601713Y-61309995D01*
X147064953Y-61309995D01*
X147064953Y-61310004D01*
X147085113Y-61579026D01*
X147085113Y-61579028D01*
X147145142Y-61842033D01*
X147145148Y-61842052D01*
X147243709Y-62093181D01*
X147243708Y-62093181D01*
X147378602Y-62326822D01*
X147432294Y-62394151D01*
X147432295Y-62394151D01*
X148079522Y-61746924D01*
X148170924Y-61883717D01*
X148296283Y-62009076D01*
X148433074Y-62100477D01*
X147784848Y-62748702D01*
X147967483Y-62873220D01*
X147967485Y-62873221D01*
X148210539Y-62990269D01*
X148210537Y-62990269D01*
X148468337Y-63069790D01*
X148468343Y-63069792D01*
X148735101Y-63109999D01*
X148735110Y-63110000D01*
X149004890Y-63110000D01*
X149004898Y-63109999D01*
X149271656Y-63069792D01*
X149271662Y-63069790D01*
X149529461Y-62990269D01*
X149772521Y-62873218D01*
X149955150Y-62748702D01*
X149306924Y-62100477D01*
X149443717Y-62009076D01*
X149569076Y-61883717D01*
X149660477Y-61746924D01*
X150307703Y-62394151D01*
X150307704Y-62394150D01*
X150361393Y-62326828D01*
X150361400Y-62326817D01*
X150496290Y-62093181D01*
X150594851Y-61842052D01*
X150594857Y-61842033D01*
X150654886Y-61579028D01*
X150654886Y-61579026D01*
X150675047Y-61310004D01*
X150675047Y-61309995D01*
X150654886Y-61040973D01*
X150654886Y-61040971D01*
X150594857Y-60777966D01*
X150594851Y-60777947D01*
X150496290Y-60526818D01*
X150496291Y-60526818D01*
X150361397Y-60293177D01*
X150307704Y-60225847D01*
X149660477Y-60873074D01*
X149569076Y-60736283D01*
X149443717Y-60610924D01*
X149306924Y-60519522D01*
X149955150Y-59871296D01*
X149772517Y-59746779D01*
X149772516Y-59746778D01*
X149529460Y-59629730D01*
X149529462Y-59629730D01*
X149271662Y-59550209D01*
X149271656Y-59550207D01*
X149004898Y-59510000D01*
X148735101Y-59510000D01*
X148468343Y-59550207D01*
X148468337Y-59550209D01*
X148210538Y-59629730D01*
X147967485Y-59746778D01*
X147967476Y-59746783D01*
X147784848Y-59871296D01*
X148433075Y-60519522D01*
X148296283Y-60610924D01*
X148170924Y-60736283D01*
X148079522Y-60873075D01*
X147432295Y-60225848D01*
X147378600Y-60293180D01*
X147243709Y-60526818D01*
X147145148Y-60777947D01*
X147145142Y-60777966D01*
X147085113Y-61040971D01*
X147085113Y-61040973D01*
X147064953Y-61309995D01*
X145601713Y-61309995D01*
X145581552Y-61040973D01*
X145581552Y-61040971D01*
X145521523Y-60777966D01*
X145521517Y-60777947D01*
X145422956Y-60526818D01*
X145422957Y-60526818D01*
X145288063Y-60293177D01*
X145234370Y-60225847D01*
X144587143Y-60873074D01*
X144495742Y-60736283D01*
X144370383Y-60610924D01*
X144233590Y-60519522D01*
X144881816Y-59871296D01*
X144699183Y-59746779D01*
X144699182Y-59746778D01*
X144456126Y-59629730D01*
X144456128Y-59629730D01*
X144198328Y-59550209D01*
X144198322Y-59550207D01*
X143931564Y-59510000D01*
X143661767Y-59510000D01*
X143395009Y-59550207D01*
X143395003Y-59550209D01*
X143137204Y-59629730D01*
X142894151Y-59746778D01*
X142894142Y-59746783D01*
X142711514Y-59871296D01*
X143359741Y-60519522D01*
X143222949Y-60610924D01*
X143097590Y-60736283D01*
X143006188Y-60873075D01*
X142358961Y-60225848D01*
X142305266Y-60293180D01*
X142170375Y-60526818D01*
X142071814Y-60777947D01*
X142071808Y-60777966D01*
X142011779Y-61040971D01*
X142011779Y-61040973D01*
X141991619Y-61309995D01*
X139643116Y-61309995D01*
X139926237Y-61026874D01*
X139864053Y-60983333D01*
X139665825Y-60890898D01*
X139665818Y-60890895D01*
X139490699Y-60843972D01*
X139431039Y-60807607D01*
X139400510Y-60744760D01*
X139403018Y-60692104D01*
X139452376Y-60507894D01*
X139452378Y-60507884D01*
X139471441Y-60290000D01*
X139471441Y-60289999D01*
X139452378Y-60072115D01*
X139452376Y-60072105D01*
X139395771Y-59860849D01*
X139395767Y-59860840D01*
X139303333Y-59662614D01*
X139303332Y-59662612D01*
X139259790Y-59600428D01*
X139259790Y-59600427D01*
X138654721Y-60205495D01*
X138631340Y-60118236D01*
X138572755Y-60016764D01*
X138489902Y-59933911D01*
X138388430Y-59875326D01*
X138301168Y-59851944D01*
X138906237Y-59246874D01*
X138844053Y-59203333D01*
X138645825Y-59110898D01*
X138645816Y-59110894D01*
X138434560Y-59054289D01*
X138434550Y-59054287D01*
X138216667Y-59035225D01*
X138216665Y-59035225D01*
X137998781Y-59054287D01*
X137998771Y-59054289D01*
X137787515Y-59110894D01*
X137787506Y-59110898D01*
X137589279Y-59203333D01*
X137527094Y-59246874D01*
X138132164Y-59851944D01*
X138044902Y-59875326D01*
X137943430Y-59933911D01*
X137860577Y-60016764D01*
X137801992Y-60118236D01*
X137778610Y-60205497D01*
X137196666Y-59623553D01*
X136614721Y-60205497D01*
X136591340Y-60118236D01*
X136532755Y-60016764D01*
X136449902Y-59933911D01*
X136348430Y-59875326D01*
X136261168Y-59851944D01*
X136866237Y-59246874D01*
X136804053Y-59203333D01*
X136605825Y-59110898D01*
X136605816Y-59110894D01*
X136394560Y-59054289D01*
X136394550Y-59054287D01*
X136176667Y-59035225D01*
X136176665Y-59035225D01*
X135958781Y-59054287D01*
X135958771Y-59054289D01*
X135747515Y-59110894D01*
X135747506Y-59110898D01*
X135549279Y-59203333D01*
X135487094Y-59246874D01*
X136092164Y-59851944D01*
X136004902Y-59875326D01*
X135903430Y-59933911D01*
X135820577Y-60016764D01*
X135761992Y-60118236D01*
X135738610Y-60205498D01*
X135263949Y-59730837D01*
X135239250Y-59695563D01*
X135223768Y-59662362D01*
X135130929Y-59529774D01*
X135098265Y-59483124D01*
X135050833Y-59435692D01*
X134943543Y-59328402D01*
X134805644Y-59231844D01*
X134764304Y-59202897D01*
X134665150Y-59156661D01*
X134565996Y-59110425D01*
X134565992Y-59110424D01*
X134565988Y-59110422D01*
X134354643Y-59053793D01*
X134136668Y-59034723D01*
X134136664Y-59034723D01*
X133991348Y-59047436D01*
X133918689Y-59053793D01*
X133918686Y-59053793D01*
X133707343Y-59110422D01*
X133707334Y-59110426D01*
X133509027Y-59202898D01*
X133509023Y-59202900D01*
X133329790Y-59328400D01*
X133204346Y-59453844D01*
X133143023Y-59487328D01*
X133073331Y-59482344D01*
X133028984Y-59453843D01*
X132903547Y-59328406D01*
X132903543Y-59328402D01*
X132760152Y-59227998D01*
X132724304Y-59202897D01*
X132625150Y-59156661D01*
X132525996Y-59110425D01*
X132525992Y-59110424D01*
X132525988Y-59110422D01*
X132314643Y-59053793D01*
X132096668Y-59034723D01*
X132096664Y-59034723D01*
X131951348Y-59047436D01*
X131878689Y-59053793D01*
X131878686Y-59053793D01*
X131667343Y-59110422D01*
X131667334Y-59110426D01*
X131469027Y-59202898D01*
X131469023Y-59202900D01*
X131289787Y-59328402D01*
X131135068Y-59483121D01*
X131009566Y-59662357D01*
X131009564Y-59662361D01*
X130917092Y-59860668D01*
X130917088Y-59860677D01*
X130860459Y-60072020D01*
X130860459Y-60072024D01*
X130841389Y-60289997D01*
X130841389Y-60290002D01*
X130860459Y-60507975D01*
X130860459Y-60507979D01*
X130878855Y-60576633D01*
X130877192Y-60646483D01*
X130866469Y-60670723D01*
X130844907Y-60708071D01*
X130838407Y-60719330D01*
X130787089Y-60808215D01*
X130746165Y-60960943D01*
X130746165Y-60960945D01*
X130746165Y-61129046D01*
X130746166Y-61129059D01*
X130746166Y-64559996D01*
X130746165Y-64560014D01*
X130746165Y-64725720D01*
X130746164Y-64725720D01*
X130787089Y-64878452D01*
X130787090Y-64878453D01*
X130806261Y-64911658D01*
X130866147Y-65015383D01*
X130985015Y-65134251D01*
X130985021Y-65134256D01*
X131270906Y-65420141D01*
X131304391Y-65481464D01*
X131299407Y-65551156D01*
X131257535Y-65607089D01*
X131192071Y-65631506D01*
X131172418Y-65631350D01*
X131096668Y-65624723D01*
X131096664Y-65624723D01*
X130951348Y-65637436D01*
X130878689Y-65643793D01*
X130878686Y-65643793D01*
X130667343Y-65700422D01*
X130667334Y-65700426D01*
X130469027Y-65792898D01*
X130469023Y-65792900D01*
X130289787Y-65918402D01*
X130135068Y-66073121D01*
X130053241Y-66189984D01*
X129998664Y-66233609D01*
X129929166Y-66240803D01*
X129866811Y-66209280D01*
X129850091Y-66189984D01*
X129768265Y-66073124D01*
X129718043Y-66022902D01*
X129613543Y-65918402D01*
X129434305Y-65792898D01*
X129434306Y-65792898D01*
X129434304Y-65792897D01*
X129335150Y-65746661D01*
X129235996Y-65700425D01*
X129235992Y-65700424D01*
X129235988Y-65700422D01*
X129024643Y-65643793D01*
X128806668Y-65624723D01*
X128806664Y-65624723D01*
X128661348Y-65637436D01*
X128588689Y-65643793D01*
X128588686Y-65643793D01*
X128377343Y-65700422D01*
X128377334Y-65700426D01*
X128179027Y-65792898D01*
X128179023Y-65792900D01*
X127999787Y-65918402D01*
X127845068Y-66073121D01*
X127719566Y-66252357D01*
X127719564Y-66252361D01*
X127627092Y-66450668D01*
X127627088Y-66450677D01*
X127570459Y-66662020D01*
X127570459Y-66662023D01*
X127551389Y-66880000D01*
X122448610Y-66880000D01*
X122429540Y-66662023D01*
X122372908Y-66450670D01*
X122280435Y-66252362D01*
X122280433Y-66252359D01*
X122280432Y-66252357D01*
X122154932Y-66073124D01*
X122104710Y-66022902D01*
X122000210Y-65918402D01*
X121820972Y-65792898D01*
X121820973Y-65792898D01*
X121820971Y-65792897D01*
X121721817Y-65746661D01*
X121622663Y-65700425D01*
X121622659Y-65700424D01*
X121622655Y-65700422D01*
X121411310Y-65643793D01*
X121193335Y-65624723D01*
X121193331Y-65624723D01*
X121048015Y-65637436D01*
X120975356Y-65643793D01*
X120975353Y-65643793D01*
X120764010Y-65700422D01*
X120764001Y-65700426D01*
X120565694Y-65792898D01*
X120565690Y-65792900D01*
X120386454Y-65918402D01*
X120231735Y-66073121D01*
X120149908Y-66189984D01*
X120095331Y-66233609D01*
X120025833Y-66240803D01*
X119963478Y-66209280D01*
X119946758Y-66189984D01*
X119864932Y-66073124D01*
X119814710Y-66022902D01*
X119710210Y-65918402D01*
X119530972Y-65792898D01*
X119530973Y-65792898D01*
X119530971Y-65792897D01*
X119431817Y-65746661D01*
X119332663Y-65700425D01*
X119332659Y-65700424D01*
X119332655Y-65700422D01*
X119121310Y-65643793D01*
X118903335Y-65624723D01*
X118903331Y-65624723D01*
X118758015Y-65637436D01*
X118685356Y-65643793D01*
X118685353Y-65643793D01*
X118474010Y-65700422D01*
X118474001Y-65700426D01*
X118275694Y-65792898D01*
X118275690Y-65792900D01*
X118096454Y-65918402D01*
X117941735Y-66073121D01*
X117816233Y-66252357D01*
X117816231Y-66252361D01*
X117723759Y-66450668D01*
X117723755Y-66450677D01*
X117667126Y-66662020D01*
X117667126Y-66662023D01*
X117648056Y-66880000D01*
X114573833Y-66880000D01*
X114573833Y-63135624D01*
X114593518Y-63068585D01*
X114626711Y-63034048D01*
X114626765Y-63034009D01*
X114630210Y-63031598D01*
X114755653Y-62906154D01*
X114816974Y-62872671D01*
X114886666Y-62877655D01*
X114931014Y-62906156D01*
X115056456Y-63031598D01*
X115235694Y-63157102D01*
X115434003Y-63249575D01*
X115645356Y-63306207D01*
X115828259Y-63322208D01*
X115863331Y-63325277D01*
X115863333Y-63325277D01*
X115863335Y-63325277D01*
X115891587Y-63322805D01*
X116081310Y-63306207D01*
X116292663Y-63249575D01*
X116490972Y-63157102D01*
X116670210Y-63031598D01*
X116824931Y-62876877D01*
X116950435Y-62697639D01*
X116965918Y-62664434D01*
X116990619Y-62629158D01*
X117465277Y-62154501D01*
X117488659Y-62241764D01*
X117547244Y-62343236D01*
X117630097Y-62426089D01*
X117731569Y-62484674D01*
X117818830Y-62508055D01*
X117213760Y-63113124D01*
X117275945Y-63156666D01*
X117474173Y-63249101D01*
X117474182Y-63249105D01*
X117685438Y-63305710D01*
X117685448Y-63305712D01*
X117903332Y-63324775D01*
X117903334Y-63324775D01*
X118121217Y-63305712D01*
X118121227Y-63305710D01*
X118332483Y-63249105D01*
X118332497Y-63249100D01*
X118530716Y-63156669D01*
X118530718Y-63156668D01*
X118592904Y-63113124D01*
X117987836Y-62508055D01*
X118075097Y-62484674D01*
X118176569Y-62426089D01*
X118259422Y-62343236D01*
X118318007Y-62241764D01*
X118341388Y-62154502D01*
X118946457Y-62759570D01*
X118990001Y-62697385D01*
X118990002Y-62697383D01*
X119082433Y-62499164D01*
X119082438Y-62499150D01*
X119139043Y-62287894D01*
X119139045Y-62287884D01*
X119158108Y-62070000D01*
X119158108Y-62069999D01*
X119139045Y-61852115D01*
X119139043Y-61852105D01*
X119082438Y-61640849D01*
X119082434Y-61640840D01*
X118990000Y-61442614D01*
X118989999Y-61442612D01*
X118946457Y-61380428D01*
X118946457Y-61380427D01*
X118341388Y-61985496D01*
X118318007Y-61898236D01*
X118259422Y-61796764D01*
X118176569Y-61713911D01*
X118075097Y-61655326D01*
X117987835Y-61631944D01*
X118309783Y-61309995D01*
X120658286Y-61309995D01*
X120658286Y-61310004D01*
X120678446Y-61579026D01*
X120678446Y-61579028D01*
X120738475Y-61842033D01*
X120738481Y-61842052D01*
X120837042Y-62093181D01*
X120837041Y-62093181D01*
X120971935Y-62326822D01*
X121025627Y-62394151D01*
X121672854Y-61746923D01*
X121764257Y-61883717D01*
X121889616Y-62009076D01*
X122026407Y-62100477D01*
X121378181Y-62748702D01*
X121560816Y-62873220D01*
X121560818Y-62873221D01*
X121803872Y-62990269D01*
X121803870Y-62990269D01*
X122061670Y-63069790D01*
X122061676Y-63069792D01*
X122328434Y-63109999D01*
X122328443Y-63110000D01*
X122598223Y-63110000D01*
X122598231Y-63109999D01*
X122864989Y-63069792D01*
X122864995Y-63069790D01*
X123122794Y-62990269D01*
X123365854Y-62873218D01*
X123548483Y-62748702D01*
X122900257Y-62100477D01*
X123037050Y-62009076D01*
X123162409Y-61883717D01*
X123253810Y-61746924D01*
X123901036Y-62394151D01*
X123901037Y-62394150D01*
X123954726Y-62326828D01*
X123954733Y-62326817D01*
X124089623Y-62093181D01*
X124188184Y-61842052D01*
X124188190Y-61842033D01*
X124248219Y-61579028D01*
X124248219Y-61579026D01*
X124268380Y-61310004D01*
X124268380Y-61309995D01*
X125731619Y-61309995D01*
X125731619Y-61310004D01*
X125751779Y-61579026D01*
X125751779Y-61579028D01*
X125811808Y-61842033D01*
X125811814Y-61842052D01*
X125910375Y-62093181D01*
X125910374Y-62093181D01*
X126045268Y-62326822D01*
X126098960Y-62394151D01*
X126746187Y-61746923D01*
X126837590Y-61883717D01*
X126962949Y-62009076D01*
X127099740Y-62100477D01*
X126451514Y-62748702D01*
X126634149Y-62873220D01*
X126634151Y-62873221D01*
X126877205Y-62990269D01*
X126877203Y-62990269D01*
X127135003Y-63069790D01*
X127135009Y-63069792D01*
X127401767Y-63109999D01*
X127401776Y-63110000D01*
X127671556Y-63110000D01*
X127671564Y-63109999D01*
X127938322Y-63069792D01*
X127938328Y-63069790D01*
X128196127Y-62990269D01*
X128439187Y-62873218D01*
X128621816Y-62748702D01*
X127973590Y-62100477D01*
X128110383Y-62009076D01*
X128235742Y-61883717D01*
X128327143Y-61746924D01*
X128974369Y-62394151D01*
X128974370Y-62394150D01*
X129028059Y-62326828D01*
X129028066Y-62326817D01*
X129162956Y-62093181D01*
X129261517Y-61842052D01*
X129261523Y-61842033D01*
X129321552Y-61579028D01*
X129321552Y-61579026D01*
X129341713Y-61310004D01*
X129341713Y-61309995D01*
X129321552Y-61040973D01*
X129321552Y-61040971D01*
X129261523Y-60777966D01*
X129261517Y-60777947D01*
X129162956Y-60526818D01*
X129162957Y-60526818D01*
X129028063Y-60293177D01*
X128974370Y-60225847D01*
X128327143Y-60873074D01*
X128235742Y-60736283D01*
X128110383Y-60610924D01*
X127973590Y-60519522D01*
X128621816Y-59871296D01*
X128439183Y-59746779D01*
X128439182Y-59746778D01*
X128196126Y-59629730D01*
X128196128Y-59629730D01*
X127938328Y-59550209D01*
X127938322Y-59550207D01*
X127671564Y-59510000D01*
X127401767Y-59510000D01*
X127135009Y-59550207D01*
X127135003Y-59550209D01*
X126877204Y-59629730D01*
X126634151Y-59746778D01*
X126634142Y-59746783D01*
X126451514Y-59871296D01*
X127099741Y-60519522D01*
X126962949Y-60610924D01*
X126837590Y-60736283D01*
X126746188Y-60873075D01*
X126098961Y-60225848D01*
X126045266Y-60293180D01*
X125910375Y-60526818D01*
X125811814Y-60777947D01*
X125811808Y-60777966D01*
X125751779Y-61040971D01*
X125751779Y-61040973D01*
X125731619Y-61309995D01*
X124268380Y-61309995D01*
X124248219Y-61040973D01*
X124248219Y-61040971D01*
X124188190Y-60777966D01*
X124188184Y-60777947D01*
X124089623Y-60526818D01*
X124089624Y-60526818D01*
X123954730Y-60293177D01*
X123901037Y-60225847D01*
X123253810Y-60873074D01*
X123162409Y-60736283D01*
X123037050Y-60610924D01*
X122900257Y-60519522D01*
X123548483Y-59871296D01*
X123365850Y-59746779D01*
X123365849Y-59746778D01*
X123122793Y-59629730D01*
X123122795Y-59629730D01*
X122864995Y-59550209D01*
X122864989Y-59550207D01*
X122598231Y-59510000D01*
X122328434Y-59510000D01*
X122061676Y-59550207D01*
X122061670Y-59550209D01*
X121803871Y-59629730D01*
X121560818Y-59746778D01*
X121560809Y-59746783D01*
X121378181Y-59871296D01*
X122026408Y-60519522D01*
X121889616Y-60610924D01*
X121764257Y-60736283D01*
X121672855Y-60873075D01*
X121025628Y-60225848D01*
X120971933Y-60293180D01*
X120837042Y-60526818D01*
X120738481Y-60777947D01*
X120738475Y-60777966D01*
X120678446Y-61040971D01*
X120678446Y-61040973D01*
X120658286Y-61309995D01*
X118309783Y-61309995D01*
X118592904Y-61026874D01*
X118530720Y-60983333D01*
X118332492Y-60890898D01*
X118332485Y-60890895D01*
X118157366Y-60843972D01*
X118097706Y-60807607D01*
X118067177Y-60744760D01*
X118069685Y-60692104D01*
X118119043Y-60507894D01*
X118119045Y-60507884D01*
X118138108Y-60290000D01*
X118138108Y-60289999D01*
X118119045Y-60072115D01*
X118119043Y-60072105D01*
X118062438Y-59860849D01*
X118062434Y-59860840D01*
X117970000Y-59662614D01*
X117969999Y-59662612D01*
X117926457Y-59600428D01*
X117926457Y-59600427D01*
X117321388Y-60205495D01*
X117298007Y-60118236D01*
X117239422Y-60016764D01*
X117156569Y-59933911D01*
X117055097Y-59875326D01*
X116967835Y-59851944D01*
X117572904Y-59246874D01*
X117510720Y-59203333D01*
X117312492Y-59110898D01*
X117312483Y-59110894D01*
X117101227Y-59054289D01*
X117101217Y-59054287D01*
X116883334Y-59035225D01*
X116883332Y-59035225D01*
X116665448Y-59054287D01*
X116665438Y-59054289D01*
X116454182Y-59110894D01*
X116454173Y-59110898D01*
X116255946Y-59203333D01*
X116193761Y-59246874D01*
X116798831Y-59851944D01*
X116711569Y-59875326D01*
X116610097Y-59933911D01*
X116527244Y-60016764D01*
X116468659Y-60118236D01*
X116445277Y-60205497D01*
X115863333Y-59623553D01*
X115281388Y-60205497D01*
X115258007Y-60118236D01*
X115199422Y-60016764D01*
X115116569Y-59933911D01*
X115015097Y-59875326D01*
X114927835Y-59851944D01*
X115532904Y-59246874D01*
X115470720Y-59203333D01*
X115272492Y-59110898D01*
X115272483Y-59110894D01*
X115061227Y-59054289D01*
X115061217Y-59054287D01*
X114843334Y-59035225D01*
X114843332Y-59035225D01*
X114625448Y-59054287D01*
X114625438Y-59054289D01*
X114414182Y-59110894D01*
X114414173Y-59110898D01*
X114215946Y-59203333D01*
X114153761Y-59246874D01*
X114758831Y-59851944D01*
X114671569Y-59875326D01*
X114570097Y-59933911D01*
X114487244Y-60016764D01*
X114428659Y-60118236D01*
X114405277Y-60205498D01*
X113930616Y-59730837D01*
X113905917Y-59695563D01*
X113890435Y-59662362D01*
X113797596Y-59529774D01*
X113764932Y-59483124D01*
X113717500Y-59435692D01*
X113610210Y-59328402D01*
X113472311Y-59231844D01*
X113430971Y-59202897D01*
X113331817Y-59156661D01*
X113232663Y-59110425D01*
X113232659Y-59110424D01*
X113232655Y-59110422D01*
X113021310Y-59053793D01*
X112803335Y-59034723D01*
X112803331Y-59034723D01*
X112658015Y-59047436D01*
X112585356Y-59053793D01*
X112585353Y-59053793D01*
X112374010Y-59110422D01*
X112374001Y-59110426D01*
X112175694Y-59202898D01*
X112175690Y-59202900D01*
X111996457Y-59328400D01*
X111871013Y-59453844D01*
X111809690Y-59487328D01*
X111739998Y-59482344D01*
X111695651Y-59453843D01*
X111570214Y-59328406D01*
X111570210Y-59328402D01*
X111426819Y-59227998D01*
X111390971Y-59202897D01*
X111291817Y-59156661D01*
X111192663Y-59110425D01*
X111192659Y-59110424D01*
X111192655Y-59110422D01*
X110981310Y-59053793D01*
X110763335Y-59034723D01*
X110763331Y-59034723D01*
X110618015Y-59047436D01*
X110545356Y-59053793D01*
X110545353Y-59053793D01*
X110334010Y-59110422D01*
X110334001Y-59110426D01*
X110135694Y-59202898D01*
X110135690Y-59202900D01*
X109956454Y-59328402D01*
X109801735Y-59483121D01*
X109676233Y-59662357D01*
X109676231Y-59662361D01*
X109583759Y-59860668D01*
X109583755Y-59860677D01*
X109527126Y-60072020D01*
X109527126Y-60072024D01*
X109508056Y-60289997D01*
X109508056Y-60290002D01*
X109527126Y-60507975D01*
X109527126Y-60507979D01*
X109545522Y-60576633D01*
X109543859Y-60646483D01*
X109533136Y-60670723D01*
X109511574Y-60708071D01*
X109505074Y-60719330D01*
X109453756Y-60808215D01*
X109412832Y-60960943D01*
X109412832Y-60960945D01*
X109412832Y-61129046D01*
X109412833Y-61129059D01*
X109412833Y-62726663D01*
X109412832Y-62726681D01*
X109412832Y-62892387D01*
X109412831Y-62892387D01*
X109433182Y-62968337D01*
X109453756Y-63045118D01*
X109478875Y-63088625D01*
X109482691Y-63095233D01*
X109482692Y-63095237D01*
X109482693Y-63095237D01*
X109532812Y-63182047D01*
X109532814Y-63182050D01*
X109651682Y-63300918D01*
X109651688Y-63300923D01*
X112163181Y-65812416D01*
X112196666Y-65873739D01*
X112199500Y-65900097D01*
X112199500Y-66517587D01*
X112179815Y-66584626D01*
X112172450Y-66594896D01*
X112170186Y-66597734D01*
X112074210Y-66750478D01*
X112014630Y-66920750D01*
X112006898Y-66989383D01*
X111979832Y-67053797D01*
X111922237Y-67093352D01*
X111883678Y-67099500D01*
X111134728Y-67099500D01*
X111067689Y-67079815D01*
X111021934Y-67027011D01*
X111011200Y-66964692D01*
X111018610Y-66880000D01*
X111018610Y-66879997D01*
X111014902Y-66837618D01*
X110999540Y-66662023D01*
X110942908Y-66450670D01*
X110850435Y-66252362D01*
X110850433Y-66252359D01*
X110850432Y-66252357D01*
X110724932Y-66073124D01*
X110674710Y-66022902D01*
X110570210Y-65918402D01*
X110390972Y-65792898D01*
X110390973Y-65792898D01*
X110390971Y-65792897D01*
X110291817Y-65746661D01*
X110192663Y-65700425D01*
X110192659Y-65700424D01*
X110192655Y-65700422D01*
X109981310Y-65643793D01*
X109763335Y-65624723D01*
X109763331Y-65624723D01*
X109618015Y-65637436D01*
X109545356Y-65643793D01*
X109545353Y-65643793D01*
X109334010Y-65700422D01*
X109334001Y-65700426D01*
X109135694Y-65792898D01*
X109135690Y-65792900D01*
X108956454Y-65918402D01*
X108801735Y-66073121D01*
X108719908Y-66189984D01*
X108665331Y-66233609D01*
X108595833Y-66240803D01*
X108533478Y-66209280D01*
X108516758Y-66189984D01*
X108434932Y-66073124D01*
X108384710Y-66022902D01*
X108280210Y-65918402D01*
X108100972Y-65792898D01*
X108100973Y-65792898D01*
X108100971Y-65792897D01*
X108001817Y-65746661D01*
X107902663Y-65700425D01*
X107902659Y-65700424D01*
X107902655Y-65700422D01*
X107691310Y-65643793D01*
X107473335Y-65624723D01*
X107473331Y-65624723D01*
X107328015Y-65637436D01*
X107255356Y-65643793D01*
X107255353Y-65643793D01*
X107044010Y-65700422D01*
X107044001Y-65700426D01*
X106845694Y-65792898D01*
X106845690Y-65792900D01*
X106666454Y-65918402D01*
X106511735Y-66073121D01*
X106386233Y-66252357D01*
X106386231Y-66252361D01*
X106293759Y-66450668D01*
X106293755Y-66450677D01*
X106237126Y-66662020D01*
X106237126Y-66662023D01*
X106218056Y-66880000D01*
X101115277Y-66880000D01*
X101096207Y-66662023D01*
X101039575Y-66450670D01*
X100947102Y-66252362D01*
X100947100Y-66252359D01*
X100947099Y-66252357D01*
X100821599Y-66073124D01*
X100771377Y-66022902D01*
X100666877Y-65918402D01*
X100487639Y-65792898D01*
X100487640Y-65792898D01*
X100487638Y-65792897D01*
X100388484Y-65746661D01*
X100289330Y-65700425D01*
X100289326Y-65700424D01*
X100289322Y-65700422D01*
X100077977Y-65643793D01*
X99860002Y-65624723D01*
X99859998Y-65624723D01*
X99714682Y-65637436D01*
X99642023Y-65643793D01*
X99642020Y-65643793D01*
X99430677Y-65700422D01*
X99430668Y-65700426D01*
X99232361Y-65792898D01*
X99232357Y-65792900D01*
X99053121Y-65918402D01*
X98898402Y-66073121D01*
X98816575Y-66189984D01*
X98761998Y-66233609D01*
X98692500Y-66240803D01*
X98630145Y-66209280D01*
X98613425Y-66189984D01*
X98531599Y-66073124D01*
X98481377Y-66022902D01*
X98376877Y-65918402D01*
X98197639Y-65792898D01*
X98197640Y-65792898D01*
X98197638Y-65792897D01*
X98098484Y-65746661D01*
X97999330Y-65700425D01*
X97999326Y-65700424D01*
X97999322Y-65700422D01*
X97787977Y-65643793D01*
X97570002Y-65624723D01*
X97569998Y-65624723D01*
X97424682Y-65637436D01*
X97352023Y-65643793D01*
X97352020Y-65643793D01*
X97140677Y-65700422D01*
X97140668Y-65700426D01*
X96942361Y-65792898D01*
X96942357Y-65792900D01*
X96763121Y-65918402D01*
X96608402Y-66073121D01*
X96482900Y-66252357D01*
X96482898Y-66252361D01*
X96390426Y-66450668D01*
X96390422Y-66450677D01*
X96333793Y-66662020D01*
X96333793Y-66662023D01*
X96314723Y-66880000D01*
X93550500Y-66880000D01*
X93550500Y-64426079D01*
X93521659Y-64281092D01*
X93521658Y-64281091D01*
X93521658Y-64281087D01*
X93514547Y-64263920D01*
X93465087Y-64144511D01*
X93465080Y-64144498D01*
X93382952Y-64021585D01*
X93382951Y-64021584D01*
X93278416Y-63917049D01*
X93276790Y-63915423D01*
X93243326Y-63854090D01*
X93240500Y-63827770D01*
X93240500Y-63135624D01*
X93260185Y-63068585D01*
X93293378Y-63034048D01*
X93293432Y-63034009D01*
X93296877Y-63031598D01*
X93422320Y-62906154D01*
X93483641Y-62872671D01*
X93553333Y-62877655D01*
X93597681Y-62906156D01*
X93723123Y-63031598D01*
X93902361Y-63157102D01*
X94100670Y-63249575D01*
X94312023Y-63306207D01*
X94494926Y-63322208D01*
X94529998Y-63325277D01*
X94530000Y-63325277D01*
X94530002Y-63325277D01*
X94558254Y-63322805D01*
X94747977Y-63306207D01*
X94959330Y-63249575D01*
X95157639Y-63157102D01*
X95336877Y-63031598D01*
X95491598Y-62876877D01*
X95617102Y-62697639D01*
X95632585Y-62664434D01*
X95657286Y-62629158D01*
X96131944Y-62154501D01*
X96155326Y-62241764D01*
X96213911Y-62343236D01*
X96296764Y-62426089D01*
X96398236Y-62484674D01*
X96485497Y-62508055D01*
X95880427Y-63113124D01*
X95942612Y-63156666D01*
X96140840Y-63249101D01*
X96140849Y-63249105D01*
X96352105Y-63305710D01*
X96352115Y-63305712D01*
X96569999Y-63324775D01*
X96570001Y-63324775D01*
X96787884Y-63305712D01*
X96787894Y-63305710D01*
X96999150Y-63249105D01*
X96999164Y-63249100D01*
X97197383Y-63156669D01*
X97197385Y-63156668D01*
X97259571Y-63113124D01*
X96654503Y-62508055D01*
X96741764Y-62484674D01*
X96843236Y-62426089D01*
X96926089Y-62343236D01*
X96984674Y-62241764D01*
X97008055Y-62154502D01*
X97613124Y-62759570D01*
X97656668Y-62697385D01*
X97656669Y-62697383D01*
X97749100Y-62499164D01*
X97749105Y-62499150D01*
X97805710Y-62287894D01*
X97805712Y-62287884D01*
X97824775Y-62070000D01*
X97824775Y-62069999D01*
X97805712Y-61852115D01*
X97805710Y-61852105D01*
X97749105Y-61640849D01*
X97749101Y-61640840D01*
X97656667Y-61442614D01*
X97656666Y-61442612D01*
X97613124Y-61380428D01*
X97613124Y-61380427D01*
X97008055Y-61985496D01*
X96984674Y-61898236D01*
X96926089Y-61796764D01*
X96843236Y-61713911D01*
X96741764Y-61655326D01*
X96654502Y-61631944D01*
X96976450Y-61309995D01*
X99324953Y-61309995D01*
X99324953Y-61310004D01*
X99345113Y-61579026D01*
X99345113Y-61579028D01*
X99405142Y-61842033D01*
X99405148Y-61842052D01*
X99503709Y-62093181D01*
X99503708Y-62093181D01*
X99638602Y-62326822D01*
X99692294Y-62394151D01*
X99692295Y-62394151D01*
X100339522Y-61746924D01*
X100430924Y-61883717D01*
X100556283Y-62009076D01*
X100693074Y-62100477D01*
X100044848Y-62748702D01*
X100227483Y-62873220D01*
X100227485Y-62873221D01*
X100470539Y-62990269D01*
X100470537Y-62990269D01*
X100728337Y-63069790D01*
X100728343Y-63069792D01*
X100995101Y-63109999D01*
X100995110Y-63110000D01*
X101264890Y-63110000D01*
X101264898Y-63109999D01*
X101531656Y-63069792D01*
X101531662Y-63069790D01*
X101789461Y-62990269D01*
X102032521Y-62873218D01*
X102215150Y-62748702D01*
X101566924Y-62100477D01*
X101703717Y-62009076D01*
X101829076Y-61883717D01*
X101920477Y-61746924D01*
X102567703Y-62394151D01*
X102567704Y-62394150D01*
X102621393Y-62326828D01*
X102621400Y-62326817D01*
X102756290Y-62093181D01*
X102854851Y-61842052D01*
X102854857Y-61842033D01*
X102914886Y-61579028D01*
X102914886Y-61579026D01*
X102935047Y-61310004D01*
X102935047Y-61309995D01*
X104398286Y-61309995D01*
X104398286Y-61310004D01*
X104418446Y-61579026D01*
X104418446Y-61579028D01*
X104478475Y-61842033D01*
X104478481Y-61842052D01*
X104577042Y-62093181D01*
X104577041Y-62093181D01*
X104711935Y-62326822D01*
X104765627Y-62394151D01*
X105412855Y-61746924D01*
X105504257Y-61883717D01*
X105629616Y-62009076D01*
X105766407Y-62100477D01*
X105118181Y-62748702D01*
X105300816Y-62873220D01*
X105300818Y-62873221D01*
X105543872Y-62990269D01*
X105543870Y-62990269D01*
X105801670Y-63069790D01*
X105801676Y-63069792D01*
X106068434Y-63109999D01*
X106068443Y-63110000D01*
X106338223Y-63110000D01*
X106338231Y-63109999D01*
X106604989Y-63069792D01*
X106604995Y-63069790D01*
X106862794Y-62990269D01*
X107105854Y-62873218D01*
X107288483Y-62748702D01*
X106640257Y-62100477D01*
X106777050Y-62009076D01*
X106902409Y-61883717D01*
X106993810Y-61746924D01*
X107641036Y-62394151D01*
X107641037Y-62394150D01*
X107694726Y-62326828D01*
X107694733Y-62326817D01*
X107829623Y-62093181D01*
X107928184Y-61842052D01*
X107928190Y-61842033D01*
X107988219Y-61579028D01*
X107988219Y-61579026D01*
X108008380Y-61310004D01*
X108008380Y-61309995D01*
X107988219Y-61040973D01*
X107988219Y-61040971D01*
X107928190Y-60777966D01*
X107928184Y-60777947D01*
X107829623Y-60526818D01*
X107829624Y-60526818D01*
X107694730Y-60293177D01*
X107641037Y-60225847D01*
X106993810Y-60873074D01*
X106902409Y-60736283D01*
X106777050Y-60610924D01*
X106640257Y-60519522D01*
X107288483Y-59871296D01*
X107105850Y-59746779D01*
X107105849Y-59746778D01*
X106862793Y-59629730D01*
X106862795Y-59629730D01*
X106604995Y-59550209D01*
X106604989Y-59550207D01*
X106338231Y-59510000D01*
X106068434Y-59510000D01*
X105801676Y-59550207D01*
X105801670Y-59550209D01*
X105543871Y-59629730D01*
X105300818Y-59746778D01*
X105300809Y-59746783D01*
X105118181Y-59871296D01*
X105766408Y-60519522D01*
X105629616Y-60610924D01*
X105504257Y-60736283D01*
X105412855Y-60873075D01*
X104765628Y-60225848D01*
X104711933Y-60293180D01*
X104577042Y-60526818D01*
X104478481Y-60777947D01*
X104478475Y-60777966D01*
X104418446Y-61040971D01*
X104418446Y-61040973D01*
X104398286Y-61309995D01*
X102935047Y-61309995D01*
X102914886Y-61040973D01*
X102914886Y-61040971D01*
X102854857Y-60777966D01*
X102854851Y-60777947D01*
X102756290Y-60526818D01*
X102756291Y-60526818D01*
X102621397Y-60293177D01*
X102567704Y-60225847D01*
X101920477Y-60873074D01*
X101829076Y-60736283D01*
X101703717Y-60610924D01*
X101566924Y-60519522D01*
X102215150Y-59871296D01*
X102032517Y-59746779D01*
X102032516Y-59746778D01*
X101789460Y-59629730D01*
X101789462Y-59629730D01*
X101531662Y-59550209D01*
X101531656Y-59550207D01*
X101264898Y-59510000D01*
X100995101Y-59510000D01*
X100728343Y-59550207D01*
X100728337Y-59550209D01*
X100470538Y-59629730D01*
X100227485Y-59746778D01*
X100227476Y-59746783D01*
X100044848Y-59871296D01*
X100693075Y-60519522D01*
X100556283Y-60610924D01*
X100430924Y-60736283D01*
X100339522Y-60873075D01*
X99692295Y-60225848D01*
X99638600Y-60293180D01*
X99503709Y-60526818D01*
X99405148Y-60777947D01*
X99405142Y-60777966D01*
X99345113Y-61040971D01*
X99345113Y-61040973D01*
X99324953Y-61309995D01*
X96976450Y-61309995D01*
X97259571Y-61026874D01*
X97197387Y-60983333D01*
X96999159Y-60890898D01*
X96999152Y-60890895D01*
X96824033Y-60843972D01*
X96764373Y-60807607D01*
X96733844Y-60744760D01*
X96736352Y-60692104D01*
X96785710Y-60507894D01*
X96785712Y-60507884D01*
X96804775Y-60290000D01*
X96804775Y-60289999D01*
X96785712Y-60072115D01*
X96785710Y-60072105D01*
X96729105Y-59860849D01*
X96729101Y-59860840D01*
X96636667Y-59662614D01*
X96636666Y-59662612D01*
X96593124Y-59600428D01*
X96593124Y-59600427D01*
X95988055Y-60205495D01*
X95964674Y-60118236D01*
X95906089Y-60016764D01*
X95823236Y-59933911D01*
X95721764Y-59875326D01*
X95634502Y-59851944D01*
X96239571Y-59246874D01*
X96177387Y-59203333D01*
X95979159Y-59110898D01*
X95979150Y-59110894D01*
X95767894Y-59054289D01*
X95767884Y-59054287D01*
X95550001Y-59035225D01*
X95549999Y-59035225D01*
X95332115Y-59054287D01*
X95332105Y-59054289D01*
X95120849Y-59110894D01*
X95120840Y-59110898D01*
X94922613Y-59203333D01*
X94860428Y-59246874D01*
X95465498Y-59851944D01*
X95378236Y-59875326D01*
X95276764Y-59933911D01*
X95193911Y-60016764D01*
X95135326Y-60118236D01*
X95111944Y-60205497D01*
X94530000Y-59623553D01*
X93948055Y-60205497D01*
X93924674Y-60118236D01*
X93866089Y-60016764D01*
X93783236Y-59933911D01*
X93681764Y-59875326D01*
X93594502Y-59851944D01*
X94199571Y-59246874D01*
X94137387Y-59203333D01*
X93939159Y-59110898D01*
X93939150Y-59110894D01*
X93727894Y-59054289D01*
X93727884Y-59054287D01*
X93510001Y-59035225D01*
X93509999Y-59035225D01*
X93292115Y-59054287D01*
X93292105Y-59054289D01*
X93080849Y-59110894D01*
X93080840Y-59110898D01*
X92882613Y-59203333D01*
X92820428Y-59246874D01*
X93425498Y-59851944D01*
X93338236Y-59875326D01*
X93236764Y-59933911D01*
X93153911Y-60016764D01*
X93095326Y-60118236D01*
X93071944Y-60205498D01*
X92597283Y-59730837D01*
X92572584Y-59695563D01*
X92557102Y-59662362D01*
X92464263Y-59529774D01*
X92431599Y-59483124D01*
X92384167Y-59435692D01*
X92276877Y-59328402D01*
X92138978Y-59231844D01*
X92097638Y-59202897D01*
X91998484Y-59156661D01*
X91899330Y-59110425D01*
X91899326Y-59110424D01*
X91899322Y-59110422D01*
X91687977Y-59053793D01*
X91470002Y-59034723D01*
X91469998Y-59034723D01*
X91324682Y-59047436D01*
X91252023Y-59053793D01*
X91252020Y-59053793D01*
X91040677Y-59110422D01*
X91040668Y-59110426D01*
X90842361Y-59202898D01*
X90842357Y-59202900D01*
X90663124Y-59328400D01*
X90537680Y-59453844D01*
X90476357Y-59487328D01*
X90406665Y-59482344D01*
X90362318Y-59453843D01*
X90236881Y-59328406D01*
X90236877Y-59328402D01*
X90093486Y-59227998D01*
X90057638Y-59202897D01*
X89958484Y-59156661D01*
X89859330Y-59110425D01*
X89859326Y-59110424D01*
X89859322Y-59110422D01*
X89647977Y-59053793D01*
X89430002Y-59034723D01*
X89429998Y-59034723D01*
X89284682Y-59047436D01*
X89212023Y-59053793D01*
X89212020Y-59053793D01*
X89000677Y-59110422D01*
X89000668Y-59110426D01*
X88802361Y-59202898D01*
X88802357Y-59202900D01*
X88623121Y-59328402D01*
X88468402Y-59483121D01*
X88342900Y-59662357D01*
X88342898Y-59662361D01*
X88250426Y-59860668D01*
X88250422Y-59860677D01*
X88193793Y-60072020D01*
X88193793Y-60072024D01*
X88174723Y-60289997D01*
X88174723Y-60290002D01*
X88193793Y-60507975D01*
X88193793Y-60507979D01*
X88212189Y-60576633D01*
X88210526Y-60646483D01*
X88199803Y-60670723D01*
X88178241Y-60708071D01*
X88171741Y-60719330D01*
X88120423Y-60808215D01*
X88079499Y-60960943D01*
X88079499Y-60960945D01*
X88079499Y-61129046D01*
X88079500Y-61129059D01*
X88079500Y-63393330D01*
X88079499Y-63393348D01*
X88079499Y-63559054D01*
X88079498Y-63559054D01*
X88120423Y-63711787D01*
X88120424Y-63711788D01*
X88142198Y-63749501D01*
X88199475Y-63848709D01*
X88199481Y-63848717D01*
X88318349Y-63967585D01*
X88318355Y-63967590D01*
X90669298Y-66318533D01*
X90702783Y-66379856D01*
X90704837Y-66392330D01*
X90714630Y-66479249D01*
X90751475Y-66584546D01*
X90755036Y-66654325D01*
X90720307Y-66714952D01*
X90658313Y-66747179D01*
X90634433Y-66749500D01*
X89784795Y-66749500D01*
X89717756Y-66729815D01*
X89672001Y-66677011D01*
X89665020Y-66657593D01*
X89609577Y-66450677D01*
X89609576Y-66450676D01*
X89609575Y-66450670D01*
X89517102Y-66252362D01*
X89517100Y-66252359D01*
X89517099Y-66252357D01*
X89391599Y-66073124D01*
X89341377Y-66022902D01*
X89236877Y-65918402D01*
X89057639Y-65792898D01*
X89057640Y-65792898D01*
X89057638Y-65792897D01*
X88958484Y-65746661D01*
X88859330Y-65700425D01*
X88859326Y-65700424D01*
X88859322Y-65700422D01*
X88647977Y-65643793D01*
X88430002Y-65624723D01*
X88429998Y-65624723D01*
X88284682Y-65637436D01*
X88212023Y-65643793D01*
X88212020Y-65643793D01*
X88000677Y-65700422D01*
X88000668Y-65700426D01*
X87802361Y-65792898D01*
X87802357Y-65792900D01*
X87623121Y-65918402D01*
X87468402Y-66073121D01*
X87386575Y-66189984D01*
X87331998Y-66233609D01*
X87262500Y-66240803D01*
X87200145Y-66209280D01*
X87183425Y-66189984D01*
X87101599Y-66073124D01*
X87051377Y-66022902D01*
X86946877Y-65918402D01*
X86767639Y-65792898D01*
X86767640Y-65792898D01*
X86767638Y-65792897D01*
X86668484Y-65746661D01*
X86569330Y-65700425D01*
X86569326Y-65700424D01*
X86569322Y-65700422D01*
X86357977Y-65643793D01*
X86140002Y-65624723D01*
X86139998Y-65624723D01*
X85994682Y-65637436D01*
X85922023Y-65643793D01*
X85922020Y-65643793D01*
X85710677Y-65700422D01*
X85710668Y-65700426D01*
X85512361Y-65792898D01*
X85512357Y-65792900D01*
X85333121Y-65918402D01*
X85178402Y-66073121D01*
X85052900Y-66252357D01*
X85052898Y-66252361D01*
X84960426Y-66450668D01*
X84960422Y-66450677D01*
X84903793Y-66662020D01*
X84903793Y-66662023D01*
X84884723Y-66880000D01*
X75500500Y-66880000D01*
X75500500Y-60798293D01*
X75520185Y-60731254D01*
X75572989Y-60685499D01*
X75642147Y-60675555D01*
X75705703Y-60704580D01*
X75734985Y-60741999D01*
X75791307Y-60852538D01*
X75791308Y-60852541D01*
X76002531Y-61177793D01*
X76211095Y-61435350D01*
X76211096Y-61435350D01*
X77705747Y-59940698D01*
X77779588Y-60042330D01*
X77957670Y-60220412D01*
X78059300Y-60294251D01*
X76564648Y-61788903D01*
X76564649Y-61788904D01*
X76822206Y-61997468D01*
X77147456Y-62208689D01*
X77493005Y-62384755D01*
X77855063Y-62523737D01*
X78229669Y-62624112D01*
X78229676Y-62624113D01*
X78612712Y-62684780D01*
X78999999Y-62705078D01*
X79000001Y-62705078D01*
X79387287Y-62684780D01*
X79770323Y-62624113D01*
X79770330Y-62624112D01*
X80144936Y-62523737D01*
X80506994Y-62384755D01*
X80852543Y-62208689D01*
X81177783Y-61997476D01*
X81177785Y-61997475D01*
X81435349Y-61788902D01*
X79940698Y-60294251D01*
X80042330Y-60220412D01*
X80220412Y-60042330D01*
X80294251Y-59940698D01*
X81788902Y-61435349D01*
X81890413Y-61309995D01*
X83064953Y-61309995D01*
X83064953Y-61310004D01*
X83085113Y-61579026D01*
X83085113Y-61579028D01*
X83145142Y-61842033D01*
X83145148Y-61842052D01*
X83243709Y-62093181D01*
X83243708Y-62093181D01*
X83378602Y-62326822D01*
X83432294Y-62394151D01*
X83432295Y-62394151D01*
X84079522Y-61746924D01*
X84170924Y-61883717D01*
X84296283Y-62009076D01*
X84433074Y-62100477D01*
X83784848Y-62748702D01*
X83967483Y-62873220D01*
X83967485Y-62873221D01*
X84210539Y-62990269D01*
X84210537Y-62990269D01*
X84468337Y-63069790D01*
X84468343Y-63069792D01*
X84735101Y-63109999D01*
X84735110Y-63110000D01*
X85004890Y-63110000D01*
X85004898Y-63109999D01*
X85271656Y-63069792D01*
X85271662Y-63069790D01*
X85529461Y-62990269D01*
X85772521Y-62873218D01*
X85955150Y-62748702D01*
X85306924Y-62100477D01*
X85443717Y-62009076D01*
X85569076Y-61883717D01*
X85660477Y-61746924D01*
X86307703Y-62394151D01*
X86307704Y-62394150D01*
X86361393Y-62326828D01*
X86361400Y-62326817D01*
X86496290Y-62093181D01*
X86594851Y-61842052D01*
X86594857Y-61842033D01*
X86654886Y-61579028D01*
X86654886Y-61579026D01*
X86675047Y-61310004D01*
X86675047Y-61309995D01*
X86654886Y-61040973D01*
X86654886Y-61040971D01*
X86594857Y-60777966D01*
X86594851Y-60777947D01*
X86496290Y-60526818D01*
X86496291Y-60526818D01*
X86361397Y-60293177D01*
X86307704Y-60225847D01*
X85660477Y-60873074D01*
X85569076Y-60736283D01*
X85443717Y-60610924D01*
X85306924Y-60519522D01*
X85955150Y-59871296D01*
X85772517Y-59746779D01*
X85772516Y-59746778D01*
X85529460Y-59629730D01*
X85529462Y-59629730D01*
X85271662Y-59550209D01*
X85271656Y-59550207D01*
X85004898Y-59510000D01*
X84735101Y-59510000D01*
X84468343Y-59550207D01*
X84468337Y-59550209D01*
X84210538Y-59629730D01*
X83967485Y-59746778D01*
X83967476Y-59746783D01*
X83784848Y-59871296D01*
X84433075Y-60519522D01*
X84296283Y-60610924D01*
X84170924Y-60736283D01*
X84079522Y-60873075D01*
X83432295Y-60225848D01*
X83378600Y-60293180D01*
X83243709Y-60526818D01*
X83145148Y-60777947D01*
X83145142Y-60777966D01*
X83085113Y-61040971D01*
X83085113Y-61040973D01*
X83064953Y-61309995D01*
X81890413Y-61309995D01*
X81997475Y-61177785D01*
X81997476Y-61177783D01*
X82208689Y-60852543D01*
X82384755Y-60506994D01*
X82523737Y-60144936D01*
X82624112Y-59770330D01*
X82624113Y-59770323D01*
X82684780Y-59387287D01*
X82705078Y-59000000D01*
X82705078Y-58999999D01*
X82684780Y-58612712D01*
X82624113Y-58229676D01*
X82624112Y-58229669D01*
X82523737Y-57855063D01*
X82436216Y-57627065D01*
X84774500Y-57627065D01*
X84774500Y-57872934D01*
X84801227Y-58075939D01*
X84806591Y-58116677D01*
X84806592Y-58116679D01*
X84870222Y-58354152D01*
X84870225Y-58354162D01*
X84964303Y-58581285D01*
X84964306Y-58581292D01*
X85087233Y-58794208D01*
X85087235Y-58794211D01*
X85087236Y-58794212D01*
X85236897Y-58989254D01*
X85236903Y-58989261D01*
X85410738Y-59163096D01*
X85410744Y-59163101D01*
X85605792Y-59312767D01*
X85818708Y-59435694D01*
X86045847Y-59529778D01*
X86283323Y-59593409D01*
X86527073Y-59625500D01*
X86527080Y-59625500D01*
X86772920Y-59625500D01*
X86772927Y-59625500D01*
X87016677Y-59593409D01*
X87254153Y-59529778D01*
X87481292Y-59435694D01*
X87694208Y-59312767D01*
X87889256Y-59163101D01*
X88063101Y-58989256D01*
X88212767Y-58794208D01*
X88335694Y-58581292D01*
X88429778Y-58354153D01*
X88493409Y-58116677D01*
X88525500Y-57872927D01*
X88525500Y-57627073D01*
X88525499Y-57627065D01*
X97474500Y-57627065D01*
X97474500Y-57872934D01*
X97501227Y-58075939D01*
X97506591Y-58116677D01*
X97506592Y-58116679D01*
X97570222Y-58354152D01*
X97570225Y-58354162D01*
X97664303Y-58581285D01*
X97664306Y-58581292D01*
X97787233Y-58794208D01*
X97787235Y-58794211D01*
X97787236Y-58794212D01*
X97936897Y-58989254D01*
X97936903Y-58989261D01*
X98110738Y-59163096D01*
X98110744Y-59163101D01*
X98305792Y-59312767D01*
X98518708Y-59435694D01*
X98745847Y-59529778D01*
X98983323Y-59593409D01*
X99227073Y-59625500D01*
X99227080Y-59625500D01*
X99472920Y-59625500D01*
X99472927Y-59625500D01*
X99716677Y-59593409D01*
X99954153Y-59529778D01*
X100181292Y-59435694D01*
X100394208Y-59312767D01*
X100589256Y-59163101D01*
X100763101Y-58989256D01*
X100912767Y-58794208D01*
X101035694Y-58581292D01*
X101129778Y-58354153D01*
X101193409Y-58116677D01*
X101225500Y-57872927D01*
X101225500Y-57627073D01*
X101225499Y-57627065D01*
X106107833Y-57627065D01*
X106107833Y-57872934D01*
X106134560Y-58075939D01*
X106139924Y-58116677D01*
X106139925Y-58116679D01*
X106203555Y-58354152D01*
X106203558Y-58354162D01*
X106297636Y-58581285D01*
X106297639Y-58581292D01*
X106420566Y-58794208D01*
X106420568Y-58794211D01*
X106420569Y-58794212D01*
X106570230Y-58989254D01*
X106570236Y-58989261D01*
X106744071Y-59163096D01*
X106744077Y-59163101D01*
X106939125Y-59312767D01*
X107152041Y-59435694D01*
X107379180Y-59529778D01*
X107616656Y-59593409D01*
X107860406Y-59625500D01*
X107860413Y-59625500D01*
X108106253Y-59625500D01*
X108106260Y-59625500D01*
X108350010Y-59593409D01*
X108587486Y-59529778D01*
X108814625Y-59435694D01*
X109027541Y-59312767D01*
X109222589Y-59163101D01*
X109396434Y-58989256D01*
X109546100Y-58794208D01*
X109669027Y-58581292D01*
X109763111Y-58354153D01*
X109826742Y-58116677D01*
X109858833Y-57872927D01*
X109858833Y-57627073D01*
X109858832Y-57627065D01*
X118807833Y-57627065D01*
X118807833Y-57872934D01*
X118834560Y-58075939D01*
X118839924Y-58116677D01*
X118839925Y-58116679D01*
X118903555Y-58354152D01*
X118903558Y-58354162D01*
X118997636Y-58581285D01*
X118997639Y-58581292D01*
X119120566Y-58794208D01*
X119120568Y-58794211D01*
X119120569Y-58794212D01*
X119270230Y-58989254D01*
X119270236Y-58989261D01*
X119444071Y-59163096D01*
X119444077Y-59163101D01*
X119639125Y-59312767D01*
X119852041Y-59435694D01*
X120079180Y-59529778D01*
X120316656Y-59593409D01*
X120560406Y-59625500D01*
X120560413Y-59625500D01*
X120806253Y-59625500D01*
X120806260Y-59625500D01*
X121050010Y-59593409D01*
X121287486Y-59529778D01*
X121514625Y-59435694D01*
X121727541Y-59312767D01*
X121922589Y-59163101D01*
X122096434Y-58989256D01*
X122246100Y-58794208D01*
X122369027Y-58581292D01*
X122463111Y-58354153D01*
X122526742Y-58116677D01*
X122558833Y-57872927D01*
X122558833Y-57627073D01*
X122558832Y-57627065D01*
X127441166Y-57627065D01*
X127441166Y-57872934D01*
X127467893Y-58075939D01*
X127473257Y-58116677D01*
X127473258Y-58116679D01*
X127536888Y-58354152D01*
X127536891Y-58354162D01*
X127630969Y-58581285D01*
X127630972Y-58581292D01*
X127753899Y-58794208D01*
X127753901Y-58794211D01*
X127753902Y-58794212D01*
X127903563Y-58989254D01*
X127903569Y-58989261D01*
X128077404Y-59163096D01*
X128077410Y-59163101D01*
X128272458Y-59312767D01*
X128485374Y-59435694D01*
X128712513Y-59529778D01*
X128949989Y-59593409D01*
X129193739Y-59625500D01*
X129193746Y-59625500D01*
X129439586Y-59625500D01*
X129439593Y-59625500D01*
X129683343Y-59593409D01*
X129920819Y-59529778D01*
X130147958Y-59435694D01*
X130360874Y-59312767D01*
X130555922Y-59163101D01*
X130729767Y-58989256D01*
X130879433Y-58794208D01*
X131002360Y-58581292D01*
X131096444Y-58354153D01*
X131160075Y-58116677D01*
X131192166Y-57872927D01*
X131192166Y-57627073D01*
X131192165Y-57627065D01*
X140141166Y-57627065D01*
X140141166Y-57872934D01*
X140167893Y-58075939D01*
X140173257Y-58116677D01*
X140173258Y-58116679D01*
X140236888Y-58354152D01*
X140236891Y-58354162D01*
X140330969Y-58581285D01*
X140330972Y-58581292D01*
X140453899Y-58794208D01*
X140453901Y-58794211D01*
X140453902Y-58794212D01*
X140603563Y-58989254D01*
X140603569Y-58989261D01*
X140777404Y-59163096D01*
X140777410Y-59163101D01*
X140972458Y-59312767D01*
X141185374Y-59435694D01*
X141412513Y-59529778D01*
X141649989Y-59593409D01*
X141893739Y-59625500D01*
X141893746Y-59625500D01*
X142139586Y-59625500D01*
X142139593Y-59625500D01*
X142383343Y-59593409D01*
X142620819Y-59529778D01*
X142847958Y-59435694D01*
X143060874Y-59312767D01*
X143255922Y-59163101D01*
X143429767Y-58989256D01*
X143579433Y-58794208D01*
X143702360Y-58581292D01*
X143796444Y-58354153D01*
X143860075Y-58116677D01*
X143892166Y-57872927D01*
X143892166Y-57627073D01*
X143892165Y-57627065D01*
X148774500Y-57627065D01*
X148774500Y-57872934D01*
X148801227Y-58075939D01*
X148806591Y-58116677D01*
X148806592Y-58116679D01*
X148870222Y-58354152D01*
X148870225Y-58354162D01*
X148964303Y-58581285D01*
X148964306Y-58581292D01*
X149087233Y-58794208D01*
X149087235Y-58794211D01*
X149087236Y-58794212D01*
X149236897Y-58989254D01*
X149236903Y-58989261D01*
X149410738Y-59163096D01*
X149410744Y-59163101D01*
X149605792Y-59312767D01*
X149818708Y-59435694D01*
X150045847Y-59529778D01*
X150283323Y-59593409D01*
X150527073Y-59625500D01*
X150527080Y-59625500D01*
X150772920Y-59625500D01*
X150772927Y-59625500D01*
X151016677Y-59593409D01*
X151254153Y-59529778D01*
X151481292Y-59435694D01*
X151694208Y-59312767D01*
X151889256Y-59163101D01*
X152063101Y-58989256D01*
X152212767Y-58794208D01*
X152335694Y-58581292D01*
X152429778Y-58354153D01*
X152493409Y-58116677D01*
X152525500Y-57872927D01*
X152525500Y-57627073D01*
X152525499Y-57627065D01*
X161474500Y-57627065D01*
X161474500Y-57872934D01*
X161501227Y-58075939D01*
X161506591Y-58116677D01*
X161506592Y-58116679D01*
X161570222Y-58354152D01*
X161570225Y-58354162D01*
X161664303Y-58581285D01*
X161664306Y-58581292D01*
X161787233Y-58794208D01*
X161787235Y-58794211D01*
X161787236Y-58794212D01*
X161936897Y-58989254D01*
X161936903Y-58989261D01*
X162110738Y-59163096D01*
X162110744Y-59163101D01*
X162305792Y-59312767D01*
X162518708Y-59435694D01*
X162745847Y-59529778D01*
X162983323Y-59593409D01*
X163227073Y-59625500D01*
X163227080Y-59625500D01*
X163472920Y-59625500D01*
X163472927Y-59625500D01*
X163716677Y-59593409D01*
X163954153Y-59529778D01*
X164181292Y-59435694D01*
X164394208Y-59312767D01*
X164589256Y-59163101D01*
X164763101Y-58989256D01*
X164912767Y-58794208D01*
X165035694Y-58581292D01*
X165129778Y-58354153D01*
X165193409Y-58116677D01*
X165225500Y-57872927D01*
X165225500Y-57627073D01*
X165193409Y-57383323D01*
X165129778Y-57145847D01*
X165035694Y-56918708D01*
X164912767Y-56705792D01*
X164763101Y-56510744D01*
X164763096Y-56510738D01*
X164589261Y-56336903D01*
X164589254Y-56336897D01*
X164394212Y-56187236D01*
X164394211Y-56187235D01*
X164394208Y-56187233D01*
X164181292Y-56064306D01*
X164181285Y-56064303D01*
X163954162Y-55970225D01*
X163954155Y-55970223D01*
X163954153Y-55970222D01*
X163716677Y-55906591D01*
X163675939Y-55901227D01*
X163472934Y-55874500D01*
X163472927Y-55874500D01*
X163227073Y-55874500D01*
X163227065Y-55874500D01*
X162995059Y-55905045D01*
X162983323Y-55906591D01*
X162847621Y-55942952D01*
X162745847Y-55970222D01*
X162745837Y-55970225D01*
X162518714Y-56064303D01*
X162518705Y-56064307D01*
X162305787Y-56187236D01*
X162110745Y-56336897D01*
X162110738Y-56336903D01*
X161936903Y-56510738D01*
X161936897Y-56510745D01*
X161787236Y-56705787D01*
X161664307Y-56918705D01*
X161664303Y-56918714D01*
X161570225Y-57145837D01*
X161570222Y-57145847D01*
X161506592Y-57383320D01*
X161506590Y-57383331D01*
X161474500Y-57627065D01*
X152525499Y-57627065D01*
X152493409Y-57383323D01*
X152429778Y-57145847D01*
X152335694Y-56918708D01*
X152212767Y-56705792D01*
X152063101Y-56510744D01*
X152063096Y-56510738D01*
X151889261Y-56336903D01*
X151889254Y-56336897D01*
X151694212Y-56187236D01*
X151694211Y-56187235D01*
X151694208Y-56187233D01*
X151481292Y-56064306D01*
X151481285Y-56064303D01*
X151254162Y-55970225D01*
X151254155Y-55970223D01*
X151254153Y-55970222D01*
X151016677Y-55906591D01*
X150975939Y-55901227D01*
X150772934Y-55874500D01*
X150772927Y-55874500D01*
X150527073Y-55874500D01*
X150527065Y-55874500D01*
X150295059Y-55905045D01*
X150283323Y-55906591D01*
X150147621Y-55942952D01*
X150045847Y-55970222D01*
X150045837Y-55970225D01*
X149818714Y-56064303D01*
X149818705Y-56064307D01*
X149605787Y-56187236D01*
X149410745Y-56336897D01*
X149410738Y-56336903D01*
X149236903Y-56510738D01*
X149236897Y-56510745D01*
X149087236Y-56705787D01*
X148964307Y-56918705D01*
X148964303Y-56918714D01*
X148870225Y-57145837D01*
X148870222Y-57145847D01*
X148806592Y-57383320D01*
X148806590Y-57383331D01*
X148774500Y-57627065D01*
X143892165Y-57627065D01*
X143860075Y-57383323D01*
X143796444Y-57145847D01*
X143702360Y-56918708D01*
X143579433Y-56705792D01*
X143429767Y-56510744D01*
X143429762Y-56510738D01*
X143255927Y-56336903D01*
X143255920Y-56336897D01*
X143060878Y-56187236D01*
X143060877Y-56187235D01*
X143060874Y-56187233D01*
X142847958Y-56064306D01*
X142847951Y-56064303D01*
X142620828Y-55970225D01*
X142620821Y-55970223D01*
X142620819Y-55970222D01*
X142383343Y-55906591D01*
X142342605Y-55901227D01*
X142139600Y-55874500D01*
X142139593Y-55874500D01*
X141893739Y-55874500D01*
X141893731Y-55874500D01*
X141661725Y-55905045D01*
X141649989Y-55906591D01*
X141514287Y-55942952D01*
X141412513Y-55970222D01*
X141412503Y-55970225D01*
X141185380Y-56064303D01*
X141185371Y-56064307D01*
X140972453Y-56187236D01*
X140777411Y-56336897D01*
X140777404Y-56336903D01*
X140603569Y-56510738D01*
X140603563Y-56510745D01*
X140453902Y-56705787D01*
X140330973Y-56918705D01*
X140330969Y-56918714D01*
X140236891Y-57145837D01*
X140236888Y-57145847D01*
X140173258Y-57383320D01*
X140173256Y-57383331D01*
X140141166Y-57627065D01*
X131192165Y-57627065D01*
X131160075Y-57383323D01*
X131096444Y-57145847D01*
X131002360Y-56918708D01*
X130879433Y-56705792D01*
X130729767Y-56510744D01*
X130729762Y-56510738D01*
X130555927Y-56336903D01*
X130555920Y-56336897D01*
X130360878Y-56187236D01*
X130360877Y-56187235D01*
X130360874Y-56187233D01*
X130147958Y-56064306D01*
X130147951Y-56064303D01*
X129920828Y-55970225D01*
X129920821Y-55970223D01*
X129920819Y-55970222D01*
X129683343Y-55906591D01*
X129642605Y-55901227D01*
X129439600Y-55874500D01*
X129439593Y-55874500D01*
X129193739Y-55874500D01*
X129193731Y-55874500D01*
X128961725Y-55905045D01*
X128949989Y-55906591D01*
X128814287Y-55942952D01*
X128712513Y-55970222D01*
X128712503Y-55970225D01*
X128485380Y-56064303D01*
X128485371Y-56064307D01*
X128272453Y-56187236D01*
X128077411Y-56336897D01*
X128077404Y-56336903D01*
X127903569Y-56510738D01*
X127903563Y-56510745D01*
X127753902Y-56705787D01*
X127630973Y-56918705D01*
X127630969Y-56918714D01*
X127536891Y-57145837D01*
X127536888Y-57145847D01*
X127473258Y-57383320D01*
X127473256Y-57383331D01*
X127441166Y-57627065D01*
X122558832Y-57627065D01*
X122526742Y-57383323D01*
X122463111Y-57145847D01*
X122369027Y-56918708D01*
X122246100Y-56705792D01*
X122096434Y-56510744D01*
X122096429Y-56510738D01*
X121922594Y-56336903D01*
X121922587Y-56336897D01*
X121727545Y-56187236D01*
X121727544Y-56187235D01*
X121727541Y-56187233D01*
X121514625Y-56064306D01*
X121514618Y-56064303D01*
X121287495Y-55970225D01*
X121287488Y-55970223D01*
X121287486Y-55970222D01*
X121050010Y-55906591D01*
X121009272Y-55901227D01*
X120806267Y-55874500D01*
X120806260Y-55874500D01*
X120560406Y-55874500D01*
X120560398Y-55874500D01*
X120328392Y-55905045D01*
X120316656Y-55906591D01*
X120180954Y-55942952D01*
X120079180Y-55970222D01*
X120079170Y-55970225D01*
X119852047Y-56064303D01*
X119852038Y-56064307D01*
X119639120Y-56187236D01*
X119444078Y-56336897D01*
X119444071Y-56336903D01*
X119270236Y-56510738D01*
X119270230Y-56510745D01*
X119120569Y-56705787D01*
X118997640Y-56918705D01*
X118997636Y-56918714D01*
X118903558Y-57145837D01*
X118903555Y-57145847D01*
X118839925Y-57383320D01*
X118839923Y-57383331D01*
X118807833Y-57627065D01*
X109858832Y-57627065D01*
X109826742Y-57383323D01*
X109763111Y-57145847D01*
X109669027Y-56918708D01*
X109546100Y-56705792D01*
X109396434Y-56510744D01*
X109396429Y-56510738D01*
X109222594Y-56336903D01*
X109222587Y-56336897D01*
X109027545Y-56187236D01*
X109027544Y-56187235D01*
X109027541Y-56187233D01*
X108814625Y-56064306D01*
X108814618Y-56064303D01*
X108587495Y-55970225D01*
X108587488Y-55970223D01*
X108587486Y-55970222D01*
X108350010Y-55906591D01*
X108309272Y-55901227D01*
X108106267Y-55874500D01*
X108106260Y-55874500D01*
X107860406Y-55874500D01*
X107860398Y-55874500D01*
X107628392Y-55905045D01*
X107616656Y-55906591D01*
X107480954Y-55942952D01*
X107379180Y-55970222D01*
X107379170Y-55970225D01*
X107152047Y-56064303D01*
X107152038Y-56064307D01*
X106939120Y-56187236D01*
X106744078Y-56336897D01*
X106744071Y-56336903D01*
X106570236Y-56510738D01*
X106570230Y-56510745D01*
X106420569Y-56705787D01*
X106297640Y-56918705D01*
X106297636Y-56918714D01*
X106203558Y-57145837D01*
X106203555Y-57145847D01*
X106139925Y-57383320D01*
X106139923Y-57383331D01*
X106107833Y-57627065D01*
X101225499Y-57627065D01*
X101193409Y-57383323D01*
X101129778Y-57145847D01*
X101035694Y-56918708D01*
X100912767Y-56705792D01*
X100763101Y-56510744D01*
X100763096Y-56510738D01*
X100589261Y-56336903D01*
X100589254Y-56336897D01*
X100394212Y-56187236D01*
X100394211Y-56187235D01*
X100394208Y-56187233D01*
X100181292Y-56064306D01*
X100181285Y-56064303D01*
X99954162Y-55970225D01*
X99954155Y-55970223D01*
X99954153Y-55970222D01*
X99716677Y-55906591D01*
X99675939Y-55901227D01*
X99472934Y-55874500D01*
X99472927Y-55874500D01*
X99227073Y-55874500D01*
X99227065Y-55874500D01*
X98995059Y-55905045D01*
X98983323Y-55906591D01*
X98847621Y-55942952D01*
X98745847Y-55970222D01*
X98745837Y-55970225D01*
X98518714Y-56064303D01*
X98518705Y-56064307D01*
X98305787Y-56187236D01*
X98110745Y-56336897D01*
X98110738Y-56336903D01*
X97936903Y-56510738D01*
X97936897Y-56510745D01*
X97787236Y-56705787D01*
X97664307Y-56918705D01*
X97664303Y-56918714D01*
X97570225Y-57145837D01*
X97570222Y-57145847D01*
X97506592Y-57383320D01*
X97506590Y-57383331D01*
X97474500Y-57627065D01*
X88525499Y-57627065D01*
X88493409Y-57383323D01*
X88429778Y-57145847D01*
X88335694Y-56918708D01*
X88212767Y-56705792D01*
X88063101Y-56510744D01*
X88063096Y-56510738D01*
X87889261Y-56336903D01*
X87889254Y-56336897D01*
X87694212Y-56187236D01*
X87694211Y-56187235D01*
X87694208Y-56187233D01*
X87481292Y-56064306D01*
X87481285Y-56064303D01*
X87254162Y-55970225D01*
X87254155Y-55970223D01*
X87254153Y-55970222D01*
X87016677Y-55906591D01*
X86975939Y-55901227D01*
X86772934Y-55874500D01*
X86772927Y-55874500D01*
X86527073Y-55874500D01*
X86527065Y-55874500D01*
X86295059Y-55905045D01*
X86283323Y-55906591D01*
X86147621Y-55942952D01*
X86045847Y-55970222D01*
X86045837Y-55970225D01*
X85818714Y-56064303D01*
X85818705Y-56064307D01*
X85605787Y-56187236D01*
X85410745Y-56336897D01*
X85410738Y-56336903D01*
X85236903Y-56510738D01*
X85236897Y-56510745D01*
X85087236Y-56705787D01*
X84964307Y-56918705D01*
X84964303Y-56918714D01*
X84870225Y-57145837D01*
X84870222Y-57145847D01*
X84806592Y-57383320D01*
X84806590Y-57383331D01*
X84774500Y-57627065D01*
X82436216Y-57627065D01*
X82384755Y-57493005D01*
X82208689Y-57147456D01*
X81997468Y-56822206D01*
X81788904Y-56564649D01*
X81788903Y-56564648D01*
X80294251Y-58059300D01*
X80220412Y-57957670D01*
X80042330Y-57779588D01*
X79940698Y-57705747D01*
X81435350Y-56211096D01*
X81435350Y-56211095D01*
X81177793Y-56002531D01*
X80852543Y-55791310D01*
X80741999Y-55734985D01*
X80691203Y-55687010D01*
X80674408Y-55619189D01*
X80696945Y-55553055D01*
X80751660Y-55509603D01*
X80798294Y-55500500D01*
X169201706Y-55500500D01*
X169268745Y-55520185D01*
G37*
G04 #@! TD.AperFunction*
G04 #@! TD*
M02*
