G04 #@! TF.GenerationSoftware,KiCad,Pcbnew,8.0.5*
G04 #@! TF.CreationDate,2024-09-22T18:42:30+03:00*
G04 #@! TF.ProjectId,rioctrl-shiftio,72696f63-7472-46c2-9d73-68696674696f,rev?*
G04 #@! TF.SameCoordinates,Original*
G04 #@! TF.FileFunction,Paste,Top*
G04 #@! TF.FilePolarity,Positive*
%FSLAX46Y46*%
G04 Gerber Fmt 4.6, Leading zero omitted, Abs format (unit mm)*
G04 Created by KiCad (PCBNEW 8.0.5) date 2024-09-22 18:42:30*
%MOMM*%
%LPD*%
G01*
G04 APERTURE LIST*
G04 Aperture macros list*
%AMRoundRect*
0 Rectangle with rounded corners*
0 $1 Rounding radius*
0 $2 $3 $4 $5 $6 $7 $8 $9 X,Y pos of 4 corners*
0 Add a 4 corners polygon primitive as box body*
4,1,4,$2,$3,$4,$5,$6,$7,$8,$9,$2,$3,0*
0 Add four circle primitives for the rounded corners*
1,1,$1+$1,$2,$3*
1,1,$1+$1,$4,$5*
1,1,$1+$1,$6,$7*
1,1,$1+$1,$8,$9*
0 Add four rect primitives between the rounded corners*
20,1,$1+$1,$2,$3,$4,$5,0*
20,1,$1+$1,$4,$5,$6,$7,0*
20,1,$1+$1,$6,$7,$8,$9,0*
20,1,$1+$1,$8,$9,$2,$3,0*%
G04 Aperture macros list end*
%ADD10RoundRect,0.150000X0.150000X-0.587500X0.150000X0.587500X-0.150000X0.587500X-0.150000X-0.587500X0*%
%ADD11RoundRect,0.200000X-0.275000X0.200000X-0.275000X-0.200000X0.275000X-0.200000X0.275000X0.200000X0*%
%ADD12RoundRect,0.150000X-0.150000X0.587500X-0.150000X-0.587500X0.150000X-0.587500X0.150000X0.587500X0*%
%ADD13RoundRect,0.125000X-0.125000X0.125000X-0.125000X-0.125000X0.125000X-0.125000X0.125000X0.125000X0*%
%ADD14RoundRect,0.150000X0.725000X0.150000X-0.725000X0.150000X-0.725000X-0.150000X0.725000X-0.150000X0*%
%ADD15RoundRect,0.200000X0.275000X-0.200000X0.275000X0.200000X-0.275000X0.200000X-0.275000X-0.200000X0*%
%ADD16RoundRect,0.250000X-0.450000X0.262500X-0.450000X-0.262500X0.450000X-0.262500X0.450000X0.262500X0*%
%ADD17R,0.800000X0.500000*%
%ADD18R,0.800000X0.400000*%
%ADD19RoundRect,0.150000X-0.150000X1.050000X-0.150000X-1.050000X0.150000X-1.050000X0.150000X1.050000X0*%
%ADD20RoundRect,0.225000X-0.250000X0.225000X-0.250000X-0.225000X0.250000X-0.225000X0.250000X0.225000X0*%
%ADD21RoundRect,0.225000X0.225000X0.250000X-0.225000X0.250000X-0.225000X-0.250000X0.225000X-0.250000X0*%
%ADD22R,0.500000X0.800000*%
%ADD23R,0.400000X0.800000*%
%ADD24RoundRect,0.150000X0.150000X-1.050000X0.150000X1.050000X-0.150000X1.050000X-0.150000X-1.050000X0*%
%ADD25RoundRect,0.200000X-0.200000X-0.275000X0.200000X-0.275000X0.200000X0.275000X-0.200000X0.275000X0*%
%ADD26RoundRect,0.112500X0.237500X-0.112500X0.237500X0.112500X-0.237500X0.112500X-0.237500X-0.112500X0*%
G04 APERTURE END LIST*
D10*
G04 #@! TO.C,Q25*
X181050000Y-63937500D03*
X182950000Y-63937500D03*
X182000000Y-62062500D03*
G04 #@! TD*
D11*
G04 #@! TO.C,R54*
X227000000Y-93350000D03*
X227000000Y-95000000D03*
G04 #@! TD*
D12*
G04 #@! TO.C,Q28*
X196920000Y-113125000D03*
X195020000Y-113125000D03*
X195970000Y-115000000D03*
G04 #@! TD*
D13*
G04 #@! TO.C,D6*
X176720000Y-109962500D03*
X176720000Y-112162500D03*
G04 #@! TD*
D14*
G04 #@! TO.C,U1*
X167575000Y-141445000D03*
X167575000Y-140175000D03*
X167575000Y-138905000D03*
X167575000Y-137635000D03*
X167575000Y-136365000D03*
X167575000Y-135095000D03*
X167575000Y-133825000D03*
X167575000Y-132555000D03*
X162425000Y-132555000D03*
X162425000Y-133825000D03*
X162425000Y-135095000D03*
X162425000Y-136365000D03*
X162425000Y-137635000D03*
X162425000Y-138905000D03*
X162425000Y-140175000D03*
X162425000Y-141445000D03*
G04 #@! TD*
D15*
G04 #@! TO.C,R11*
X155470000Y-76637500D03*
X155470000Y-74987500D03*
G04 #@! TD*
D11*
G04 #@! TO.C,R2*
X170850000Y-143925000D03*
X170850000Y-145575000D03*
G04 #@! TD*
D15*
G04 #@! TO.C,R14*
X163440000Y-76637500D03*
X163440000Y-74987500D03*
G04 #@! TD*
D10*
G04 #@! TO.C,Q5*
X165050000Y-63937500D03*
X166950000Y-63937500D03*
X166000000Y-62062500D03*
G04 #@! TD*
D15*
G04 #@! TO.C,R35*
X179470000Y-76637500D03*
X179470000Y-74987500D03*
G04 #@! TD*
D10*
G04 #@! TO.C,Q31*
X187050000Y-110937500D03*
X188950000Y-110937500D03*
X188000000Y-109062500D03*
G04 #@! TD*
G04 #@! TO.C,Q23*
X181050000Y-75937500D03*
X182950000Y-75937500D03*
X182000000Y-74062500D03*
G04 #@! TD*
D16*
G04 #@! TO.C,R22*
X171220000Y-114150000D03*
X171220000Y-115975000D03*
G04 #@! TD*
D12*
G04 #@! TO.C,Q4*
X166920000Y-66125000D03*
X165020000Y-66125000D03*
X165970000Y-68000000D03*
G04 #@! TD*
D13*
G04 #@! TO.C,D4*
X168690000Y-73962500D03*
X168690000Y-76162500D03*
G04 #@! TD*
D12*
G04 #@! TO.C,Q6*
X158920000Y-78125000D03*
X157020000Y-78125000D03*
X157970000Y-80000000D03*
G04 #@! TD*
D15*
G04 #@! TO.C,R41*
X193470000Y-99637500D03*
X193470000Y-97987500D03*
G04 #@! TD*
D17*
G04 #@! TO.C,RN7*
X217900000Y-91200000D03*
D18*
X217900000Y-90400000D03*
X217900000Y-89600000D03*
D17*
X217900000Y-88800000D03*
X216100000Y-88800000D03*
D18*
X216100000Y-89600000D03*
X216100000Y-90400000D03*
D17*
X216100000Y-91200000D03*
G04 #@! TD*
D13*
G04 #@! TO.C,D15*
X190720000Y-108962500D03*
X190720000Y-111162500D03*
G04 #@! TD*
D14*
G04 #@! TO.C,U8*
X235575000Y-94445000D03*
X235575000Y-93175000D03*
X235575000Y-91905000D03*
X235575000Y-90635000D03*
X235575000Y-89365000D03*
X235575000Y-88095000D03*
X235575000Y-86825000D03*
X235575000Y-85555000D03*
X230425000Y-85555000D03*
X230425000Y-86825000D03*
X230425000Y-88095000D03*
X230425000Y-89365000D03*
X230425000Y-90635000D03*
X230425000Y-91905000D03*
X230425000Y-93175000D03*
X230425000Y-94445000D03*
G04 #@! TD*
D10*
G04 #@! TO.C,Q9*
X165020000Y-75937500D03*
X166920000Y-75937500D03*
X165970000Y-74062500D03*
G04 #@! TD*
D13*
G04 #@! TO.C,D3*
X160720000Y-73962500D03*
X160720000Y-76162500D03*
G04 #@! TD*
D12*
G04 #@! TO.C,Q18*
X190920000Y-66125000D03*
X189020000Y-66125000D03*
X189970000Y-68000000D03*
G04 #@! TD*
D10*
G04 #@! TO.C,Q11*
X165080000Y-111937500D03*
X166980000Y-111937500D03*
X166030000Y-110062500D03*
G04 #@! TD*
D16*
G04 #@! TO.C,R7*
X155220000Y-66150000D03*
X155220000Y-67975000D03*
G04 #@! TD*
D11*
G04 #@! TO.C,R53*
X203000000Y-93175000D03*
X203000000Y-94825000D03*
G04 #@! TD*
D19*
G04 #@! TO.C,U11*
X231445000Y-69750000D03*
X230175000Y-69750000D03*
X228905000Y-69750000D03*
X227635000Y-69750000D03*
X226365000Y-69750000D03*
X225095000Y-69750000D03*
X223825000Y-69750000D03*
X222555000Y-69750000D03*
X222555000Y-76250000D03*
X223825000Y-76250000D03*
X225095000Y-76250000D03*
X226365000Y-76250000D03*
X227635000Y-76250000D03*
X228905000Y-76250000D03*
X230175000Y-76250000D03*
X231445000Y-76250000D03*
G04 #@! TD*
D15*
G04 #@! TO.C,R24*
X168720001Y-103137500D03*
X168720001Y-101487500D03*
G04 #@! TD*
D19*
G04 #@! TO.C,U9*
X208445000Y-69850000D03*
X207175000Y-69850000D03*
X205905000Y-69850000D03*
X204635000Y-69850000D03*
X203365000Y-69850000D03*
X202095000Y-69850000D03*
X200825000Y-69850000D03*
X199555000Y-69850000D03*
X199555000Y-76350000D03*
X200825000Y-76350000D03*
X202095000Y-76350000D03*
X203365000Y-76350000D03*
X204635000Y-76350000D03*
X205905000Y-76350000D03*
X207175000Y-76350000D03*
X208445000Y-76350000D03*
G04 #@! TD*
D20*
G04 #@! TO.C,C4*
X206500000Y-96475000D03*
X206500000Y-98025000D03*
G04 #@! TD*
D21*
G04 #@! TO.C,C2*
X162525000Y-143250000D03*
X160975000Y-143250000D03*
G04 #@! TD*
D15*
G04 #@! TO.C,R47*
X185470000Y-111637500D03*
X185470000Y-109987500D03*
G04 #@! TD*
D13*
G04 #@! TO.C,D1*
X160720000Y-61962500D03*
X160720000Y-64162500D03*
G04 #@! TD*
D22*
G04 #@! TO.C,RN6*
X202800000Y-64000000D03*
D23*
X203600000Y-64000000D03*
X204400000Y-64000000D03*
D22*
X205200000Y-64000000D03*
X205200000Y-62200000D03*
D23*
X204400000Y-62200000D03*
X203600000Y-62200000D03*
D22*
X202800000Y-62200000D03*
G04 #@! TD*
D24*
G04 #@! TO.C,U4*
X165555000Y-128000000D03*
X166825000Y-128000000D03*
X168095000Y-128000000D03*
X169365000Y-128000000D03*
X170635000Y-128000000D03*
X171905000Y-128000000D03*
X173175000Y-128000000D03*
X174445000Y-128000000D03*
X174445000Y-121500000D03*
X173175000Y-121500000D03*
X171905000Y-121500000D03*
X170635000Y-121500000D03*
X169365000Y-121500000D03*
X168095000Y-121500000D03*
X166825000Y-121500000D03*
X165555000Y-121500000D03*
G04 #@! TD*
D22*
G04 #@! TO.C,RN8*
X213800000Y-64000000D03*
D23*
X214600000Y-64000000D03*
X215400000Y-64000000D03*
D22*
X216200000Y-64000000D03*
X216200000Y-62200000D03*
D23*
X215400000Y-62200000D03*
X214600000Y-62200000D03*
D22*
X213800000Y-62200000D03*
G04 #@! TD*
D15*
G04 #@! TO.C,R39*
X184720000Y-67137500D03*
X184720000Y-65487500D03*
G04 #@! TD*
D21*
G04 #@! TO.C,C1*
X180025000Y-140500000D03*
X178475000Y-140500000D03*
G04 #@! TD*
D15*
G04 #@! TO.C,R17*
X163500000Y-112637500D03*
X163500000Y-110987500D03*
G04 #@! TD*
D12*
G04 #@! TO.C,Q22*
X182920000Y-78125000D03*
X181020000Y-78125000D03*
X181970000Y-80000000D03*
G04 #@! TD*
D15*
G04 #@! TO.C,R30*
X192720000Y-67137500D03*
X192720000Y-65487500D03*
G04 #@! TD*
D12*
G04 #@! TO.C,Q12*
X174920000Y-114125000D03*
X173020000Y-114125000D03*
X173970000Y-116000000D03*
G04 #@! TD*
D15*
G04 #@! TO.C,R12*
X160720000Y-79137500D03*
X160720000Y-77487500D03*
G04 #@! TD*
D12*
G04 #@! TO.C,Q10*
X166950000Y-114125000D03*
X165050000Y-114125000D03*
X166000000Y-116000000D03*
G04 #@! TD*
G04 #@! TO.C,Q30*
X188920000Y-113125000D03*
X187020000Y-113125000D03*
X187970000Y-115000000D03*
G04 #@! TD*
D16*
G04 #@! TO.C,R28*
X171220000Y-102150000D03*
X171220000Y-103975000D03*
G04 #@! TD*
D12*
G04 #@! TO.C,Q24*
X182920000Y-66125000D03*
X181020000Y-66125000D03*
X181970000Y-68000000D03*
G04 #@! TD*
D16*
G04 #@! TO.C,R34*
X187220000Y-78150000D03*
X187220000Y-79975000D03*
G04 #@! TD*
D15*
G04 #@! TO.C,R45*
X198720000Y-114137500D03*
X198720000Y-112487500D03*
G04 #@! TD*
D16*
G04 #@! TO.C,R37*
X179220000Y-78150000D03*
X179220000Y-79975000D03*
G04 #@! TD*
D12*
G04 #@! TO.C,Q16*
X174920000Y-102125000D03*
X173020000Y-102125000D03*
X173970000Y-104000000D03*
G04 #@! TD*
D22*
G04 #@! TO.C,RN4*
X192800000Y-134150000D03*
D23*
X193600000Y-134150000D03*
X194400000Y-134150000D03*
D22*
X195200000Y-134150000D03*
X195200000Y-132350000D03*
D23*
X194400000Y-132350000D03*
X193600000Y-132350000D03*
D22*
X192800000Y-132350000D03*
G04 #@! TD*
D15*
G04 #@! TO.C,R33*
X192720000Y-79137500D03*
X192720000Y-77487500D03*
G04 #@! TD*
D13*
G04 #@! TO.C,D9*
X192720000Y-61962500D03*
X192720000Y-64162500D03*
G04 #@! TD*
D14*
G04 #@! TO.C,U2*
X187575000Y-140445000D03*
X187575000Y-139175000D03*
X187575000Y-137905000D03*
X187575000Y-136635000D03*
X187575000Y-135365000D03*
X187575000Y-134095000D03*
X187575000Y-132825000D03*
X187575000Y-131555000D03*
X182425000Y-131555000D03*
X182425000Y-132825000D03*
X182425000Y-134095000D03*
X182425000Y-135365000D03*
X182425000Y-136635000D03*
X182425000Y-137905000D03*
X182425000Y-139175000D03*
X182425000Y-140445000D03*
G04 #@! TD*
D15*
G04 #@! TO.C,R38*
X179470000Y-64637500D03*
X179470000Y-62987500D03*
G04 #@! TD*
D24*
G04 #@! TO.C,U6*
X187555000Y-128000000D03*
X188825000Y-128000000D03*
X190095000Y-128000000D03*
X191365000Y-128000000D03*
X192635000Y-128000000D03*
X193905000Y-128000000D03*
X195175000Y-128000000D03*
X196445000Y-128000000D03*
X196445000Y-121500000D03*
X195175000Y-121500000D03*
X193905000Y-121500000D03*
X192635000Y-121500000D03*
X191365000Y-121500000D03*
X190095000Y-121500000D03*
X188825000Y-121500000D03*
X187555000Y-121500000D03*
G04 #@! TD*
D16*
G04 #@! TO.C,R52*
X185220000Y-101150000D03*
X185220000Y-102975000D03*
G04 #@! TD*
D15*
G04 #@! TO.C,R18*
X168750000Y-115137500D03*
X168750000Y-113487500D03*
G04 #@! TD*
D17*
G04 #@! TO.C,RN9*
X223100000Y-88800000D03*
D18*
X223100000Y-89600000D03*
X223100000Y-90400000D03*
D17*
X223100000Y-91200000D03*
X224900000Y-91200000D03*
D18*
X224900000Y-90400000D03*
X224900000Y-89600000D03*
D17*
X224900000Y-88800000D03*
G04 #@! TD*
D15*
G04 #@! TO.C,R9*
X168720000Y-67137500D03*
X168720000Y-65487500D03*
G04 #@! TD*
D16*
G04 #@! TO.C,R40*
X179220000Y-66150000D03*
X179220000Y-67975000D03*
G04 #@! TD*
D10*
G04 #@! TO.C,Q33*
X187050000Y-98937500D03*
X188950000Y-98937500D03*
X188000000Y-97062500D03*
G04 #@! TD*
D15*
G04 #@! TO.C,R29*
X187470000Y-64637500D03*
X187470000Y-62987500D03*
G04 #@! TD*
D22*
G04 #@! TO.C,RN3*
X180050000Y-123900000D03*
D23*
X180850000Y-123900000D03*
X181650000Y-123900000D03*
D22*
X182450000Y-123900000D03*
X182450000Y-122100000D03*
D23*
X181650000Y-122100000D03*
X180850000Y-122100000D03*
D22*
X180050000Y-122100000D03*
G04 #@! TD*
D10*
G04 #@! TO.C,Q27*
X195050000Y-98937500D03*
X196950000Y-98937500D03*
X196000000Y-97062500D03*
G04 #@! TD*
D16*
G04 #@! TO.C,R49*
X185220000Y-113150000D03*
X185220000Y-114975000D03*
G04 #@! TD*
G04 #@! TO.C,R19*
X163250000Y-114150000D03*
X163250000Y-115975000D03*
G04 #@! TD*
D10*
G04 #@! TO.C,Q13*
X173050000Y-111937500D03*
X174950000Y-111937500D03*
X174000000Y-110062500D03*
G04 #@! TD*
D15*
G04 #@! TO.C,R15*
X168690000Y-79137500D03*
X168690000Y-77487500D03*
G04 #@! TD*
G04 #@! TO.C,R27*
X176720000Y-103137500D03*
X176720000Y-101487500D03*
G04 #@! TD*
D17*
G04 #@! TO.C,RN11*
X241900000Y-91200000D03*
D18*
X241900000Y-90400000D03*
X241900000Y-89600000D03*
D17*
X241900000Y-88800000D03*
X240100000Y-88800000D03*
D18*
X240100000Y-89600000D03*
X240100000Y-90400000D03*
D17*
X240100000Y-91200000D03*
G04 #@! TD*
D15*
G04 #@! TO.C,R36*
X184720000Y-79137500D03*
X184720000Y-77487500D03*
G04 #@! TD*
D13*
G04 #@! TO.C,D11*
X184720000Y-73962500D03*
X184720000Y-76162500D03*
G04 #@! TD*
D15*
G04 #@! TO.C,R50*
X185470000Y-99637500D03*
X185470000Y-97987500D03*
G04 #@! TD*
D22*
G04 #@! TO.C,RN2*
X171050000Y-133900000D03*
D23*
X171850000Y-133900000D03*
X172650000Y-133900000D03*
D22*
X173450000Y-133900000D03*
X173450000Y-132100000D03*
D23*
X172650000Y-132100000D03*
X171850000Y-132100000D03*
D22*
X171050000Y-132100000D03*
G04 #@! TD*
D24*
G04 #@! TO.C,U3*
X157555000Y-92250000D03*
X158825000Y-92250000D03*
X160095000Y-92250000D03*
X161365000Y-92250000D03*
X162635000Y-92250000D03*
X163905000Y-92250000D03*
X165175000Y-92250000D03*
X166445000Y-92250000D03*
X166445000Y-85750000D03*
X165175000Y-85750000D03*
X163905000Y-85750000D03*
X162635000Y-85750000D03*
X161365000Y-85750000D03*
X160095000Y-85750000D03*
X158825000Y-85750000D03*
X157555000Y-85750000D03*
G04 #@! TD*
D10*
G04 #@! TO.C,Q17*
X173050000Y-99937500D03*
X174950000Y-99937500D03*
X174000000Y-98062500D03*
G04 #@! TD*
D16*
G04 #@! TO.C,R31*
X187220000Y-66150000D03*
X187220000Y-67975000D03*
G04 #@! TD*
G04 #@! TO.C,R10*
X163220000Y-66150000D03*
X163220000Y-67975000D03*
G04 #@! TD*
D15*
G04 #@! TO.C,R26*
X171470000Y-100637500D03*
X171470000Y-98987500D03*
G04 #@! TD*
D19*
G04 #@! TO.C,U10*
X219445000Y-69850000D03*
X218175000Y-69850000D03*
X216905000Y-69850000D03*
X215635000Y-69850000D03*
X214365000Y-69850000D03*
X213095000Y-69850000D03*
X211825000Y-69850000D03*
X210555000Y-69850000D03*
X210555000Y-76350000D03*
X211825000Y-76350000D03*
X213095000Y-76350000D03*
X214365000Y-76350000D03*
X215635000Y-76350000D03*
X216905000Y-76350000D03*
X218175000Y-76350000D03*
X219445000Y-76350000D03*
G04 #@! TD*
D15*
G04 #@! TO.C,R32*
X187470000Y-76637500D03*
X187470000Y-74987500D03*
G04 #@! TD*
D10*
G04 #@! TO.C,Q7*
X157050000Y-75937500D03*
X158950000Y-75937500D03*
X158000000Y-74062500D03*
G04 #@! TD*
D13*
G04 #@! TO.C,D8*
X176720000Y-97962500D03*
X176720000Y-100162500D03*
G04 #@! TD*
D15*
G04 #@! TO.C,R51*
X190720000Y-102137500D03*
X190720000Y-100487500D03*
G04 #@! TD*
D10*
G04 #@! TO.C,Q29*
X195050000Y-110937500D03*
X196950000Y-110937500D03*
X196000000Y-109062500D03*
G04 #@! TD*
D14*
G04 #@! TO.C,U7*
X211575000Y-94445000D03*
X211575000Y-93175000D03*
X211575000Y-91905000D03*
X211575000Y-90635000D03*
X211575000Y-89365000D03*
X211575000Y-88095000D03*
X211575000Y-86825000D03*
X211575000Y-85555000D03*
X206425000Y-85555000D03*
X206425000Y-86825000D03*
X206425000Y-88095000D03*
X206425000Y-89365000D03*
X206425000Y-90635000D03*
X206425000Y-91905000D03*
X206425000Y-93175000D03*
X206425000Y-94445000D03*
G04 #@! TD*
D13*
G04 #@! TO.C,D14*
X198720000Y-108962500D03*
X198720000Y-111162500D03*
G04 #@! TD*
D15*
G04 #@! TO.C,R23*
X163470001Y-100637501D03*
X163470001Y-98987501D03*
G04 #@! TD*
G04 #@! TO.C,R20*
X171470000Y-112637500D03*
X171470000Y-110987500D03*
G04 #@! TD*
D24*
G04 #@! TO.C,U5*
X181555000Y-92250000D03*
X182825000Y-92250000D03*
X184095000Y-92250000D03*
X185365000Y-92250000D03*
X186635000Y-92250000D03*
X187905000Y-92250000D03*
X189175000Y-92250000D03*
X190445000Y-92250000D03*
X190445000Y-85750000D03*
X189175000Y-85750000D03*
X187905000Y-85750000D03*
X186635000Y-85750000D03*
X185365000Y-85750000D03*
X184095000Y-85750000D03*
X182825000Y-85750000D03*
X181555000Y-85750000D03*
G04 #@! TD*
D22*
G04 #@! TO.C,RN1*
X157800000Y-126900000D03*
D23*
X158600000Y-126900000D03*
X159400000Y-126900000D03*
D22*
X160200000Y-126900000D03*
X160200000Y-125100000D03*
D23*
X159400000Y-125100000D03*
X158600000Y-125100000D03*
D22*
X157800000Y-125100000D03*
G04 #@! TD*
D15*
G04 #@! TO.C,R5*
X155470000Y-64637500D03*
X155470000Y-62987500D03*
G04 #@! TD*
G04 #@! TO.C,R8*
X163470000Y-64637500D03*
X163470000Y-62987500D03*
G04 #@! TD*
D20*
G04 #@! TO.C,C3*
X230000000Y-96225000D03*
X230000000Y-97775000D03*
G04 #@! TD*
D13*
G04 #@! TO.C,D7*
X168720000Y-97962500D03*
X168720000Y-100162500D03*
G04 #@! TD*
D12*
G04 #@! TO.C,Q20*
X190920000Y-78125000D03*
X189020000Y-78125000D03*
X189970000Y-80000000D03*
G04 #@! TD*
D16*
G04 #@! TO.C,R43*
X193220000Y-101150000D03*
X193220000Y-102975000D03*
G04 #@! TD*
D10*
G04 #@! TO.C,Q19*
X189050000Y-63937500D03*
X190950000Y-63937500D03*
X190000000Y-62062500D03*
G04 #@! TD*
D12*
G04 #@! TO.C,Q2*
X158920000Y-66125000D03*
X157020000Y-66125000D03*
X157970000Y-68000000D03*
G04 #@! TD*
D16*
G04 #@! TO.C,R46*
X193220000Y-113150000D03*
X193220000Y-114975000D03*
G04 #@! TD*
D22*
G04 #@! TO.C,RN10*
X225800000Y-63900000D03*
D23*
X226600000Y-63900000D03*
X227400000Y-63900000D03*
D22*
X228200000Y-63900000D03*
X228200000Y-62100000D03*
D23*
X227400000Y-62100000D03*
X226600000Y-62100000D03*
D22*
X225800000Y-62100000D03*
G04 #@! TD*
D13*
G04 #@! TO.C,D16*
X190720000Y-96962500D03*
X190720000Y-99162500D03*
G04 #@! TD*
G04 #@! TO.C,D5*
X168750000Y-109962500D03*
X168750000Y-112162500D03*
G04 #@! TD*
D12*
G04 #@! TO.C,Q32*
X188920000Y-101125000D03*
X187020000Y-101125000D03*
X187970000Y-103000000D03*
G04 #@! TD*
D25*
G04 #@! TO.C,R4*
X178425000Y-132750000D03*
X180075000Y-132750000D03*
G04 #@! TD*
D13*
G04 #@! TO.C,D2*
X168720000Y-61962500D03*
X168720000Y-64162500D03*
G04 #@! TD*
D10*
G04 #@! TO.C,Q3*
X157050000Y-63937500D03*
X158950000Y-63937500D03*
X158000000Y-62062500D03*
G04 #@! TD*
D26*
G04 #@! TO.C,Q1*
X174500000Y-146150000D03*
X174500000Y-144850000D03*
X172500000Y-145500000D03*
G04 #@! TD*
D19*
G04 #@! TO.C,U12*
X242445000Y-69750000D03*
X241175000Y-69750000D03*
X239905000Y-69750000D03*
X238635000Y-69750000D03*
X237365000Y-69750000D03*
X236095000Y-69750000D03*
X234825000Y-69750000D03*
X233555000Y-69750000D03*
X233555000Y-76250000D03*
X234825000Y-76250000D03*
X236095000Y-76250000D03*
X237365000Y-76250000D03*
X238635000Y-76250000D03*
X239905000Y-76250000D03*
X241175000Y-76250000D03*
X242445000Y-76250000D03*
G04 #@! TD*
D17*
G04 #@! TO.C,RN5*
X201850000Y-88800000D03*
D18*
X201850000Y-89600000D03*
X201850000Y-90400000D03*
D17*
X201850000Y-91200000D03*
X203650000Y-91200000D03*
D18*
X203650000Y-90400000D03*
X203650000Y-89600000D03*
D17*
X203650000Y-88800000D03*
G04 #@! TD*
D16*
G04 #@! TO.C,R13*
X155220000Y-78150000D03*
X155220000Y-79975000D03*
G04 #@! TD*
D12*
G04 #@! TO.C,Q8*
X166890000Y-78125000D03*
X164990000Y-78125000D03*
X165940000Y-80000000D03*
G04 #@! TD*
D10*
G04 #@! TO.C,Q21*
X189050000Y-75937500D03*
X190950000Y-75937500D03*
X190000000Y-74062500D03*
G04 #@! TD*
D15*
G04 #@! TO.C,R44*
X193470000Y-111637500D03*
X193470000Y-109987500D03*
G04 #@! TD*
G04 #@! TO.C,R48*
X190720000Y-114137500D03*
X190720000Y-112487500D03*
G04 #@! TD*
D12*
G04 #@! TO.C,Q14*
X166920001Y-102125000D03*
X165020001Y-102125000D03*
X165970001Y-104000000D03*
G04 #@! TD*
D16*
G04 #@! TO.C,R25*
X163220001Y-102150000D03*
X163220001Y-103975000D03*
G04 #@! TD*
D13*
G04 #@! TO.C,D12*
X184720000Y-61962500D03*
X184720000Y-64162500D03*
G04 #@! TD*
D15*
G04 #@! TO.C,R1*
X176350000Y-146075000D03*
X176350000Y-144425000D03*
G04 #@! TD*
D22*
G04 #@! TO.C,RN12*
X236800000Y-63900000D03*
D23*
X237600000Y-63900000D03*
X238400000Y-63900000D03*
D22*
X239200000Y-63900000D03*
X239200000Y-62100000D03*
D23*
X238400000Y-62100000D03*
X237600000Y-62100000D03*
D22*
X236800000Y-62100000D03*
G04 #@! TD*
D15*
G04 #@! TO.C,R21*
X176720000Y-115137500D03*
X176720000Y-113487500D03*
G04 #@! TD*
D13*
G04 #@! TO.C,D10*
X192720000Y-73962500D03*
X192720000Y-76162500D03*
G04 #@! TD*
D12*
G04 #@! TO.C,Q26*
X196920000Y-101125000D03*
X195020000Y-101125000D03*
X195970000Y-103000000D03*
G04 #@! TD*
D15*
G04 #@! TO.C,R55*
X227000000Y-86825000D03*
X227000000Y-85175000D03*
G04 #@! TD*
D13*
G04 #@! TO.C,D13*
X198720000Y-96962500D03*
X198720000Y-99162500D03*
G04 #@! TD*
D25*
G04 #@! TO.C,R3*
X158500000Y-134000000D03*
X160150000Y-134000000D03*
G04 #@! TD*
D15*
G04 #@! TO.C,R6*
X160720000Y-67137500D03*
X160720000Y-65487500D03*
G04 #@! TD*
D10*
G04 #@! TO.C,Q15*
X165050000Y-99937500D03*
X166950000Y-99937500D03*
X166000000Y-98062500D03*
G04 #@! TD*
D16*
G04 #@! TO.C,R16*
X163190000Y-78150000D03*
X163190000Y-79975000D03*
G04 #@! TD*
D15*
G04 #@! TO.C,R42*
X198720000Y-102137500D03*
X198720000Y-100487500D03*
G04 #@! TD*
M02*
