G04 #@! TF.GenerationSoftware,KiCad,Pcbnew,8.0.5*
G04 #@! TF.CreationDate,2024-09-22T18:42:30+03:00*
G04 #@! TF.ProjectId,rioctrl-shiftio,72696f63-7472-46c2-9d73-68696674696f,rev?*
G04 #@! TF.SameCoordinates,Original*
G04 #@! TF.FileFunction,Soldermask,Bot*
G04 #@! TF.FilePolarity,Negative*
%FSLAX46Y46*%
G04 Gerber Fmt 4.6, Leading zero omitted, Abs format (unit mm)*
G04 Created by KiCad (PCBNEW 8.0.5) date 2024-09-22 18:42:30*
%MOMM*%
%LPD*%
G01*
G04 APERTURE LIST*
%ADD10R,1.700000X1.700000*%
%ADD11O,1.700000X1.700000*%
%ADD12C,1.700000*%
%ADD13C,0.800000*%
%ADD14C,6.400000*%
G04 APERTURE END LIST*
D10*
G04 #@! TO.C,J1*
X215240000Y-144000000D03*
D11*
X215240000Y-146540000D03*
X212700000Y-144000000D03*
X212700000Y-146540000D03*
X210160000Y-144000000D03*
X210160000Y-146540000D03*
X207620000Y-144000000D03*
X207620000Y-146540000D03*
X205080000Y-144000000D03*
X205080000Y-146540000D03*
X202540000Y-144000000D03*
X202540000Y-146540000D03*
X200000000Y-144000000D03*
X200000000Y-146540000D03*
X197460000Y-144000000D03*
X197460000Y-146540000D03*
X194920000Y-144000000D03*
X194920000Y-146540000D03*
X192380000Y-144000000D03*
X192380000Y-146540000D03*
X189840000Y-144000000D03*
X189840000Y-146540000D03*
X187300000Y-144000000D03*
X187300000Y-146540000D03*
X184760000Y-144000000D03*
X184760000Y-146540000D03*
G04 #@! TD*
D12*
G04 #@! TO.C,J3*
X196333333Y-57350000D03*
X196333333Y-54850000D03*
X192833333Y-57350000D03*
X192833333Y-54850000D03*
X189333333Y-57350000D03*
X189333333Y-54850000D03*
X185833333Y-57350000D03*
X185833333Y-54850000D03*
X182333333Y-57350000D03*
X182333333Y-54850000D03*
G04 #@! TD*
G04 #@! TO.C,J2*
X175000000Y-57350000D03*
X175000000Y-54850000D03*
X171500000Y-57350000D03*
X171500000Y-54850000D03*
X168000000Y-57350000D03*
X168000000Y-54850000D03*
X164500000Y-57350000D03*
X164500000Y-54850000D03*
X161000000Y-57350000D03*
X161000000Y-54850000D03*
G04 #@! TD*
D13*
G04 #@! TO.C,H1*
X151600000Y-54000000D03*
X152302944Y-52302944D03*
X152302944Y-55697056D03*
X154000000Y-51600000D03*
D14*
X154000000Y-54000000D03*
D13*
X154000000Y-56400000D03*
X155697056Y-52302944D03*
X155697056Y-55697056D03*
X156400000Y-54000000D03*
G04 #@! TD*
D12*
G04 #@! TO.C,J4*
X217666666Y-57350000D03*
X217666666Y-54850000D03*
X214166666Y-57350000D03*
X214166666Y-54850000D03*
X210666666Y-57350000D03*
X210666666Y-54850000D03*
X207166666Y-57350000D03*
X207166666Y-54850000D03*
X203666666Y-57350000D03*
X203666666Y-54850000D03*
G04 #@! TD*
D13*
G04 #@! TO.C,H3*
X151600000Y-146000000D03*
X152302944Y-144302944D03*
X152302944Y-147697056D03*
X154000000Y-143600000D03*
D14*
X154000000Y-146000000D03*
D13*
X154000000Y-148400000D03*
X155697056Y-144302944D03*
X155697056Y-147697056D03*
X156400000Y-146000000D03*
G04 #@! TD*
D12*
G04 #@! TO.C,J5*
X239000000Y-57350000D03*
X239000000Y-54850000D03*
X235500000Y-57350000D03*
X235500000Y-54850000D03*
X232000000Y-57350000D03*
X232000000Y-54850000D03*
X228500000Y-57350000D03*
X228500000Y-54850000D03*
X225000000Y-57350000D03*
X225000000Y-54850000D03*
G04 #@! TD*
D13*
G04 #@! TO.C,H2*
X243600000Y-54000000D03*
X244302944Y-52302944D03*
X244302944Y-55697056D03*
X246000000Y-51600000D03*
D14*
X246000000Y-54000000D03*
D13*
X246000000Y-56400000D03*
X247697056Y-52302944D03*
X247697056Y-55697056D03*
X248400000Y-54000000D03*
G04 #@! TD*
G04 #@! TO.C,H4*
X243600000Y-146000000D03*
X244302944Y-144302944D03*
X244302944Y-147697056D03*
X246000000Y-143600000D03*
D14*
X246000000Y-146000000D03*
D13*
X246000000Y-148400000D03*
X247697056Y-144302944D03*
X247697056Y-147697056D03*
X248400000Y-146000000D03*
G04 #@! TD*
M02*
