G04 #@! TF.GenerationSoftware,KiCad,Pcbnew,8.0.5*
G04 #@! TF.CreationDate,2024-09-22T18:42:30+03:00*
G04 #@! TF.ProjectId,rioctrl-shiftio,72696f63-7472-46c2-9d73-68696674696f,rev?*
G04 #@! TF.SameCoordinates,Original*
G04 #@! TF.FileFunction,Copper,L2,Bot*
G04 #@! TF.FilePolarity,Positive*
%FSLAX46Y46*%
G04 Gerber Fmt 4.6, Leading zero omitted, Abs format (unit mm)*
G04 Created by KiCad (PCBNEW 8.0.5) date 2024-09-22 18:42:30*
%MOMM*%
%LPD*%
G01*
G04 APERTURE LIST*
G04 #@! TA.AperFunction,ComponentPad*
%ADD10R,1.700000X1.700000*%
G04 #@! TD*
G04 #@! TA.AperFunction,ComponentPad*
%ADD11O,1.700000X1.700000*%
G04 #@! TD*
G04 #@! TA.AperFunction,ComponentPad*
%ADD12C,1.700000*%
G04 #@! TD*
G04 #@! TA.AperFunction,ComponentPad*
%ADD13C,0.800000*%
G04 #@! TD*
G04 #@! TA.AperFunction,ComponentPad*
%ADD14C,6.400000*%
G04 #@! TD*
G04 #@! TA.AperFunction,ViaPad*
%ADD15C,0.600000*%
G04 #@! TD*
G04 #@! TA.AperFunction,Conductor*
%ADD16C,0.600000*%
G04 #@! TD*
G04 #@! TA.AperFunction,Conductor*
%ADD17C,0.200000*%
G04 #@! TD*
G04 APERTURE END LIST*
D10*
G04 #@! TO.P,J1,1,Pin_1*
G04 #@! TO.N,GND*
X215240000Y-144000000D03*
D11*
G04 #@! TO.P,J1,2,Pin_2*
X215240000Y-146540000D03*
G04 #@! TO.P,J1,3,Pin_3*
G04 #@! TO.N,/Output shiftreg/DATA_IN*
X212700000Y-144000000D03*
G04 #@! TO.P,J1,4,Pin_4*
G04 #@! TO.N,/Slot/S6*
X212700000Y-146540000D03*
G04 #@! TO.P,J1,5,Pin_5*
G04 #@! TO.N,/Output shiftreg/CLOCK*
X210160000Y-144000000D03*
G04 #@! TO.P,J1,6,Pin_6*
G04 #@! TO.N,/Slot/S7*
X210160000Y-146540000D03*
G04 #@! TO.P,J1,7,Pin_7*
G04 #@! TO.N,/Output shiftreg/LOAD*
X207620000Y-144000000D03*
G04 #@! TO.P,J1,8,Pin_8*
G04 #@! TO.N,/Slot/S8*
X207620000Y-146540000D03*
G04 #@! TO.P,J1,9,Pin_9*
G04 #@! TO.N,/Input shiftreg/DATA_OUT*
X205080000Y-144000000D03*
G04 #@! TO.P,J1,10,Pin_10*
G04 #@! TO.N,/Slot/S9*
X205080000Y-146540000D03*
G04 #@! TO.P,J1,11,Pin_11*
G04 #@! TO.N,/Input shiftreg/CLK*
X202540000Y-144000000D03*
G04 #@! TO.P,J1,12,Pin_12*
G04 #@! TO.N,/Slot/S10*
X202540000Y-146540000D03*
G04 #@! TO.P,J1,13,Pin_13*
G04 #@! TO.N,/Input shiftreg/LOAD*
X200000000Y-144000000D03*
G04 #@! TO.P,J1,14,Pin_14*
G04 #@! TO.N,/Slot/S11*
X200000000Y-146540000D03*
G04 #@! TO.P,J1,15,Pin_15*
G04 #@! TO.N,GND*
X197460000Y-144000000D03*
G04 #@! TO.P,J1,16,Pin_16*
X197460000Y-146540000D03*
G04 #@! TO.P,J1,17,Pin_17*
G04 #@! TO.N,+3V3*
X194920000Y-144000000D03*
G04 #@! TO.P,J1,18,Pin_18*
X194920000Y-146540000D03*
G04 #@! TO.P,J1,19,Pin_19*
G04 #@! TO.N,+5V*
X192380000Y-144000000D03*
G04 #@! TO.P,J1,20,Pin_20*
X192380000Y-146540000D03*
G04 #@! TO.P,J1,21,Pin_21*
G04 #@! TO.N,+24V*
X189840000Y-144000000D03*
G04 #@! TO.P,J1,22,Pin_22*
X189840000Y-146540000D03*
G04 #@! TO.P,J1,23,Pin_23*
G04 #@! TO.N,/Slot/SlotEN*
X187300000Y-144000000D03*
G04 #@! TO.P,J1,24,Pin_24*
X187300000Y-146540000D03*
G04 #@! TO.P,J1,25,Pin_25*
G04 #@! TO.N,GND*
X184760000Y-144000000D03*
G04 #@! TO.P,J1,26,Pin_26*
X184760000Y-146540000D03*
G04 #@! TD*
D12*
G04 #@! TO.P,J3,1,Pin_1*
G04 #@! TO.N,/Output shiftreg/DO15*
X196333333Y-57350000D03*
G04 #@! TO.P,J3,2,Pin_2*
G04 #@! TO.N,/Output shiftreg/DO16*
X196333333Y-54850000D03*
G04 #@! TO.P,J3,3,Pin_3*
G04 #@! TO.N,/Output shiftreg/DO13*
X192833333Y-57350000D03*
G04 #@! TO.P,J3,4,Pin_4*
G04 #@! TO.N,/Output shiftreg/DO14*
X192833333Y-54850000D03*
G04 #@! TO.P,J3,5,Pin_5*
G04 #@! TO.N,/Output shiftreg/DO11*
X189333333Y-57350000D03*
G04 #@! TO.P,J3,6,Pin_6*
G04 #@! TO.N,/Output shiftreg/DO12*
X189333333Y-54850000D03*
G04 #@! TO.P,J3,7,Pin_7*
G04 #@! TO.N,/Output shiftreg/DO9*
X185833333Y-57350000D03*
G04 #@! TO.P,J3,8,Pin_8*
G04 #@! TO.N,/Output shiftreg/DO10*
X185833333Y-54850000D03*
G04 #@! TO.P,J3,9,Pin_9*
G04 #@! TO.N,/Output shiftreg/DOB_VIN*
X182333333Y-57350000D03*
G04 #@! TO.P,J3,10,Pin_10*
G04 #@! TO.N,/Output shiftreg/DOB_GND*
X182333333Y-54850000D03*
G04 #@! TD*
G04 #@! TO.P,J2,1,Pin_1*
G04 #@! TO.N,/Output shiftreg/DO7*
X175000000Y-57350000D03*
G04 #@! TO.P,J2,2,Pin_2*
G04 #@! TO.N,/Output shiftreg/DO8*
X175000000Y-54850000D03*
G04 #@! TO.P,J2,3,Pin_3*
G04 #@! TO.N,/Output shiftreg/DO5*
X171500000Y-57350000D03*
G04 #@! TO.P,J2,4,Pin_4*
G04 #@! TO.N,/Output shiftreg/DO6*
X171500000Y-54850000D03*
G04 #@! TO.P,J2,5,Pin_5*
G04 #@! TO.N,/Output shiftreg/DO3*
X168000000Y-57350000D03*
G04 #@! TO.P,J2,6,Pin_6*
G04 #@! TO.N,/Output shiftreg/DO4*
X168000000Y-54850000D03*
G04 #@! TO.P,J2,7,Pin_7*
G04 #@! TO.N,/Output shiftreg/DO1*
X164500000Y-57350000D03*
G04 #@! TO.P,J2,8,Pin_8*
G04 #@! TO.N,/Output shiftreg/DO2*
X164500000Y-54850000D03*
G04 #@! TO.P,J2,9,Pin_9*
G04 #@! TO.N,/Output shiftreg/DOA_VIN*
X161000000Y-57350000D03*
G04 #@! TO.P,J2,10,Pin_10*
G04 #@! TO.N,/Output shiftreg/DOA_GND*
X161000000Y-54850000D03*
G04 #@! TD*
D13*
G04 #@! TO.P,H1,1,1*
G04 #@! TO.N,unconnected-(H1-Pad1)_1*
X151600000Y-54000000D03*
G04 #@! TO.N,unconnected-(H1-Pad1)_5*
X152302944Y-52302944D03*
G04 #@! TO.N,unconnected-(H1-Pad1)*
X152302944Y-55697056D03*
G04 #@! TO.N,unconnected-(H1-Pad1)_7*
X154000000Y-51600000D03*
D14*
G04 #@! TO.N,unconnected-(H1-Pad1)_6*
X154000000Y-54000000D03*
D13*
G04 #@! TO.N,unconnected-(H1-Pad1)_8*
X154000000Y-56400000D03*
G04 #@! TO.N,unconnected-(H1-Pad1)_2*
X155697056Y-52302944D03*
G04 #@! TO.N,unconnected-(H1-Pad1)_4*
X155697056Y-55697056D03*
G04 #@! TO.N,unconnected-(H1-Pad1)_3*
X156400000Y-54000000D03*
G04 #@! TD*
D12*
G04 #@! TO.P,J4,1,Pin_1*
G04 #@! TO.N,/Input shiftreg/INA7*
X217666666Y-57350000D03*
G04 #@! TO.P,J4,2,Pin_2*
G04 #@! TO.N,/Input shiftreg/INA8*
X217666666Y-54850000D03*
G04 #@! TO.P,J4,3,Pin_3*
G04 #@! TO.N,/Input shiftreg/INA5*
X214166666Y-57350000D03*
G04 #@! TO.P,J4,4,Pin_4*
G04 #@! TO.N,/Input shiftreg/INA6*
X214166666Y-54850000D03*
G04 #@! TO.P,J4,5,Pin_5*
G04 #@! TO.N,/Input shiftreg/INA3*
X210666666Y-57350000D03*
G04 #@! TO.P,J4,6,Pin_6*
G04 #@! TO.N,/Input shiftreg/INA4*
X210666666Y-54850000D03*
G04 #@! TO.P,J4,7,Pin_7*
G04 #@! TO.N,/Input shiftreg/INA1*
X207166666Y-57350000D03*
G04 #@! TO.P,J4,8,Pin_8*
G04 #@! TO.N,/Input shiftreg/INA2*
X207166666Y-54850000D03*
G04 #@! TO.P,J4,9,Pin_9*
G04 #@! TO.N,unconnected-(J4-Pin_9-Pad9)*
X203666666Y-57350000D03*
G04 #@! TO.P,J4,10,Pin_10*
G04 #@! TO.N,/Input shiftreg/IN_A_COMMON*
X203666666Y-54850000D03*
G04 #@! TD*
D13*
G04 #@! TO.P,H3,1,1*
G04 #@! TO.N,GND*
X151600000Y-146000000D03*
X152302944Y-144302944D03*
X152302944Y-147697056D03*
X154000000Y-143600000D03*
D14*
X154000000Y-146000000D03*
D13*
X154000000Y-148400000D03*
X155697056Y-144302944D03*
X155697056Y-147697056D03*
X156400000Y-146000000D03*
G04 #@! TD*
D12*
G04 #@! TO.P,J5,1,Pin_1*
G04 #@! TO.N,/Input shiftreg/INB15*
X239000000Y-57350000D03*
G04 #@! TO.P,J5,2,Pin_2*
G04 #@! TO.N,/Input shiftreg/INB16*
X239000000Y-54850000D03*
G04 #@! TO.P,J5,3,Pin_3*
G04 #@! TO.N,/Input shiftreg/INB13*
X235500000Y-57350000D03*
G04 #@! TO.P,J5,4,Pin_4*
G04 #@! TO.N,/Input shiftreg/INB14*
X235500000Y-54850000D03*
G04 #@! TO.P,J5,5,Pin_5*
G04 #@! TO.N,/Input shiftreg/INB11*
X232000000Y-57350000D03*
G04 #@! TO.P,J5,6,Pin_6*
G04 #@! TO.N,/Input shiftreg/INB12*
X232000000Y-54850000D03*
G04 #@! TO.P,J5,7,Pin_7*
G04 #@! TO.N,/Input shiftreg/INB9*
X228500000Y-57350000D03*
G04 #@! TO.P,J5,8,Pin_8*
G04 #@! TO.N,/Input shiftreg/INB10*
X228500000Y-54850000D03*
G04 #@! TO.P,J5,9,Pin_9*
G04 #@! TO.N,unconnected-(J5-Pin_9-Pad9)*
X225000000Y-57350000D03*
G04 #@! TO.P,J5,10,Pin_10*
G04 #@! TO.N,/Input shiftreg/IN_B_COMMON*
X225000000Y-54850000D03*
G04 #@! TD*
D13*
G04 #@! TO.P,H2,1,1*
G04 #@! TO.N,unconnected-(H2-Pad1)_2*
X243600000Y-54000000D03*
G04 #@! TO.N,unconnected-(H2-Pad1)_3*
X244302944Y-52302944D03*
G04 #@! TO.N,unconnected-(H2-Pad1)*
X244302944Y-55697056D03*
G04 #@! TO.N,unconnected-(H2-Pad1)_1*
X246000000Y-51600000D03*
D14*
G04 #@! TO.N,unconnected-(H2-Pad1)_7*
X246000000Y-54000000D03*
D13*
G04 #@! TO.N,unconnected-(H2-Pad1)_4*
X246000000Y-56400000D03*
G04 #@! TO.N,unconnected-(H2-Pad1)_8*
X247697056Y-52302944D03*
G04 #@! TO.N,unconnected-(H2-Pad1)_5*
X247697056Y-55697056D03*
G04 #@! TO.N,unconnected-(H2-Pad1)_6*
X248400000Y-54000000D03*
G04 #@! TD*
G04 #@! TO.P,H4,1,1*
G04 #@! TO.N,GND*
X243600000Y-146000000D03*
X244302944Y-144302944D03*
X244302944Y-147697056D03*
X246000000Y-143600000D03*
D14*
X246000000Y-146000000D03*
D13*
X246000000Y-148400000D03*
X247697056Y-144302944D03*
X247697056Y-147697056D03*
X248400000Y-146000000D03*
G04 #@! TD*
D15*
G04 #@! TO.N,+3V3*
X181250000Y-141750000D03*
X172250000Y-143000000D03*
X168750000Y-147250000D03*
X207250000Y-135750000D03*
X208000000Y-96500000D03*
X210500000Y-100750000D03*
X201250000Y-136500000D03*
G04 #@! TO.N,GND*
X162750000Y-146500000D03*
X207250000Y-78750000D03*
X179000000Y-127000000D03*
X158750000Y-94250000D03*
X197000000Y-137250000D03*
X171750000Y-125750000D03*
X192500000Y-130000000D03*
X188750000Y-125750000D03*
X174500000Y-125750000D03*
X202000000Y-138750000D03*
X154500000Y-130000000D03*
X241000000Y-78500000D03*
X171250000Y-140250000D03*
X236000000Y-78500000D03*
X244750000Y-78250000D03*
X171000000Y-130000000D03*
X172750000Y-129750000D03*
X215750000Y-78500000D03*
X166750000Y-125750000D03*
X213250000Y-78500000D03*
X225000000Y-78250000D03*
X174750000Y-144000000D03*
X228000000Y-78250000D03*
X160250000Y-138500000D03*
X218250000Y-78500000D03*
X189750000Y-130000000D03*
X164000000Y-148000000D03*
X201500000Y-134000000D03*
X205250000Y-98000000D03*
X203000000Y-82750000D03*
X168518310Y-130100000D03*
X178250000Y-139500000D03*
X160000000Y-136500000D03*
X210500000Y-78500000D03*
X160500000Y-142250000D03*
X240750000Y-86500000D03*
X230000000Y-99000000D03*
X204500000Y-78500000D03*
X222500000Y-78250000D03*
X169250000Y-125750000D03*
X207750000Y-139000000D03*
X191500000Y-125750000D03*
X190000000Y-94000000D03*
X166500000Y-94250000D03*
X169250000Y-132750000D03*
X212500000Y-96500000D03*
X181750000Y-94250000D03*
X227000000Y-96000000D03*
X222000000Y-81250000D03*
X233750000Y-78250000D03*
X196500000Y-130000000D03*
X202750000Y-99250000D03*
X164000000Y-94250000D03*
X220250000Y-86500000D03*
X209750000Y-141000000D03*
X202500000Y-78250000D03*
X194000000Y-125750000D03*
X154750000Y-94500000D03*
X174500000Y-129750000D03*
X230250000Y-78500000D03*
X184500000Y-94000000D03*
X161500000Y-94250000D03*
X189250000Y-132000000D03*
X238500000Y-78500000D03*
X196500000Y-125750000D03*
G04 #@! TO.N,/Output shiftreg/DOA_GND*
X160720000Y-76162500D03*
X159750000Y-72250000D03*
X167750000Y-76162500D03*
X161800000Y-61250000D03*
X176720000Y-100162500D03*
X169500000Y-64500000D03*
X176720000Y-107000000D03*
X177000000Y-111250000D03*
X168720001Y-100750000D03*
G04 #@! TO.N,/Output shiftreg/DO3*
X164500000Y-60000000D03*
G04 #@! TO.N,/Output shiftreg/DO7*
X171000000Y-97250000D03*
X173750000Y-94500000D03*
G04 #@! TO.N,/Output shiftreg/DOB_GND*
X185000000Y-75000000D03*
X198750000Y-106750000D03*
X198750000Y-110250000D03*
X193750000Y-74500000D03*
X192750000Y-63250000D03*
X190750000Y-98250000D03*
X184000000Y-63000000D03*
X198750000Y-98000000D03*
G04 #@! TO.N,/Output shiftreg/DO11*
X186000000Y-61000000D03*
G04 #@! TO.N,/Output shiftreg/DO15*
X196750000Y-93000000D03*
X193500000Y-96000000D03*
G04 #@! TO.N,/Input shiftreg/DATA_OUT*
X206000000Y-102250000D03*
X203750000Y-85750000D03*
G04 #@! TO.N,/Input shiftreg/CLK*
X233250000Y-93000000D03*
X224250000Y-93500000D03*
G04 #@! TO.N,/Input shiftreg/LOAD*
X224000000Y-95250000D03*
X213000000Y-94500000D03*
X233750000Y-94500000D03*
X209750000Y-96500000D03*
G04 #@! TO.N,/Output shiftreg/CLOCK*
X179250000Y-134250000D03*
X163750000Y-135000000D03*
X183548863Y-134700060D03*
G04 #@! TO.N,/Output shiftreg/DATA_IN*
X165500000Y-146500000D03*
X164000000Y-139000000D03*
G04 #@! TO.N,/Output shiftreg/LOAD*
X164000000Y-136750000D03*
X179750000Y-135250000D03*
X183535589Y-135960894D03*
G04 #@! TO.N,/Output shiftreg/DOA_VIN*
X163440000Y-77250000D03*
X171470000Y-113250000D03*
X156250000Y-78750000D03*
X170750000Y-101250000D03*
X162500000Y-65250000D03*
X164000000Y-113500000D03*
X155000000Y-84750000D03*
X164250000Y-101500000D03*
G04 #@! TO.N,/Output shiftreg/DOB_VIN*
X188750000Y-67750000D03*
X181020000Y-67250000D03*
X188750000Y-70500000D03*
X186000000Y-102000000D03*
X194250000Y-112250000D03*
X194250000Y-100000000D03*
X186250000Y-112500000D03*
G04 #@! TO.N,/Output shiftreg/~{OE}*
X181000000Y-137000000D03*
X178250000Y-138000000D03*
X163750000Y-137750000D03*
X169750000Y-139000000D03*
G04 #@! TO.N,/Output shiftreg/DOA1/Digital output/COLLECTOR*
X156750000Y-82750000D03*
X157250000Y-68250000D03*
G04 #@! TO.N,/Output shiftreg/DOA1/Digital output1/COLLECTOR*
X160250000Y-83750000D03*
X165000000Y-68250000D03*
G04 #@! TO.N,/Output shiftreg/DOA1/Digital output2/COLLECTOR*
X160000000Y-81750000D03*
X157250000Y-80250000D03*
G04 #@! TO.N,/Output shiftreg/DOA1/Digital output3/COLLECTOR*
X165000000Y-80250000D03*
X165250000Y-83500000D03*
G04 #@! TO.N,/Output shiftreg/DOA2/Digital output2/COLLECTOR*
X165250000Y-116250000D03*
X168000000Y-116500000D03*
G04 #@! TO.N,/Output shiftreg/DOA2/Digital output3/COLLECTOR*
X173000000Y-116250000D03*
X173750000Y-119000000D03*
G04 #@! TO.N,/Output shiftreg/DOA2/Digital output/COLLECTOR*
X165000000Y-104250000D03*
X166750000Y-118500000D03*
G04 #@! TO.N,/Output shiftreg/DOA2/Digital output1/COLLECTOR*
X173000000Y-104250000D03*
X169000000Y-119000000D03*
G04 #@! TO.N,/Output shiftreg/DOB1/Digital output1/COLLECTOR*
X189970000Y-66750000D03*
X185000000Y-82750000D03*
G04 #@! TO.N,/Output shiftreg/DOB1/Digital output3/COLLECTOR*
X189250000Y-80250000D03*
X189500000Y-82750000D03*
G04 #@! TO.N,/Output shiftreg/DOB1/Digital output2/COLLECTOR*
X183750000Y-80250000D03*
X181250000Y-80000000D03*
G04 #@! TO.N,/Output shiftreg/DOB1/Digital output/COLLECTOR*
X180750000Y-68250000D03*
X182750000Y-82000000D03*
G04 #@! TO.N,/Output shiftreg/DOB2/Digital output1/COLLECTOR*
X191950735Y-117700735D03*
X195000000Y-103250000D03*
G04 #@! TO.N,/Output shiftreg/DOB2/Digital output3/COLLECTOR*
X195000000Y-115000000D03*
X195500000Y-118000000D03*
G04 #@! TO.N,/Output shiftreg/DOB2/Digital output2/COLLECTOR*
X186750000Y-115000000D03*
X190500000Y-115750000D03*
G04 #@! TO.N,/Output shiftreg/DOB2/Digital output/COLLECTOR*
X187250000Y-103250000D03*
X189500000Y-117250000D03*
G04 #@! TO.N,/Output shiftreg/DOA1/Digital output/EMITTER*
X160750000Y-70250000D03*
X158500000Y-82750000D03*
G04 #@! TO.N,/Output shiftreg/DOA1/Digital output1/EMITTER*
X161250000Y-84000000D03*
X168750000Y-71250000D03*
G04 #@! TO.N,/Output shiftreg/DOA2/Digital output/EMITTER*
X168750000Y-104250000D03*
X167750000Y-119250000D03*
G04 #@! TO.N,/Output shiftreg/DOA2/Digital output1/EMITTER*
X169750000Y-119500000D03*
X175500000Y-105750000D03*
G04 #@! TO.N,/Output shiftreg/DOB1/Digital output1/EMITTER*
X186000000Y-83000000D03*
X191500000Y-70250000D03*
G04 #@! TO.N,/Output shiftreg/DOB1/Digital output/EMITTER*
X183750000Y-82750000D03*
X185000000Y-70000000D03*
G04 #@! TO.N,/Output shiftreg/DOB2/Digital output1/EMITTER*
X192000000Y-118500000D03*
X196500000Y-105750000D03*
G04 #@! TO.N,/Output shiftreg/DOB2/Digital output/EMITTER*
X190750000Y-117500000D03*
X190750000Y-103500000D03*
G04 #@! TO.N,/Output shiftreg/DOA2/IN2*
X169250000Y-135000000D03*
X172250000Y-135500000D03*
G04 #@! TO.N,/Output shiftreg/DOA2/IN3*
X173250000Y-135000000D03*
X169250000Y-134000000D03*
G04 #@! TO.N,/Output shiftreg/DOB2/IN2*
X190750000Y-134750000D03*
X194250000Y-135250000D03*
G04 #@! TO.N,/Output shiftreg/DOB2/IN1*
X190250000Y-135500000D03*
X192250000Y-135750000D03*
G04 #@! TO.N,Net-(U1-QH')*
X164000000Y-132750000D03*
X179750000Y-137000000D03*
G04 #@! TO.N,Net-(U7-DS)*
X227500000Y-83750000D03*
X205250000Y-86825000D03*
G04 #@! TD*
D16*
G04 #@! TO.N,+3V3*
X210500000Y-100750000D02*
X210500000Y-99000000D01*
X193750000Y-147710000D02*
X194920000Y-146540000D01*
X193750000Y-148250000D02*
X193750000Y-147710000D01*
D17*
X194920000Y-146540000D02*
X194920000Y-144000000D01*
X172250000Y-143750000D02*
X168750000Y-147250000D01*
D16*
X210500000Y-99000000D02*
X208000000Y-96500000D01*
X168750000Y-147250000D02*
X169750000Y-148250000D01*
X182000000Y-148250000D02*
X181250000Y-147500000D01*
X206500000Y-136500000D02*
X207250000Y-135750000D01*
X181250000Y-147500000D02*
X181250000Y-141750000D01*
X201250000Y-136500000D02*
X206500000Y-136500000D01*
D17*
X172250000Y-143000000D02*
X172250000Y-143750000D01*
D16*
X169750000Y-148250000D02*
X193750000Y-148250000D01*
D17*
G04 #@! TO.N,GND*
X184760000Y-146540000D02*
X184760000Y-144000000D01*
D16*
G04 #@! TO.N,/Output shiftreg/DOA_GND*
X162350000Y-56200000D02*
X162350000Y-60700000D01*
X169890000Y-99580001D02*
X169890000Y-64890000D01*
X176720000Y-107000000D02*
X176720000Y-100162500D01*
X162350000Y-60700000D02*
X161800000Y-61250000D01*
X168720001Y-100750000D02*
X169890000Y-99580001D01*
X168720001Y-100750000D02*
X169307501Y-100162500D01*
X161800000Y-61250000D02*
X165050000Y-64500000D01*
X160720000Y-76162500D02*
X167750000Y-76162500D01*
X169307501Y-100162500D02*
X176720000Y-100162500D01*
X169890000Y-64890000D02*
X169500000Y-64500000D01*
X159750000Y-75192500D02*
X160720000Y-76162500D01*
X177000000Y-111250000D02*
X176720000Y-110970000D01*
X159750000Y-72250000D02*
X159750000Y-75192500D01*
X165050000Y-64500000D02*
X169500000Y-64500000D01*
X161000000Y-54850000D02*
X162350000Y-56200000D01*
X176720000Y-110970000D02*
X176720000Y-107000000D01*
G04 #@! TO.N,/Output shiftreg/DO3*
X164500000Y-60000000D02*
X165350000Y-60000000D01*
X165350000Y-60000000D02*
X168000000Y-57350000D01*
G04 #@! TO.N,/Output shiftreg/DO7*
X171000000Y-97250000D02*
X173750000Y-94500000D01*
G04 #@! TO.N,/Output shiftreg/DOB_GND*
X184000000Y-63000000D02*
X182750000Y-63000000D01*
X198750000Y-110250000D02*
X198750000Y-106750000D01*
X182000000Y-75000000D02*
X185000000Y-75000000D01*
X192500000Y-63250000D02*
X192250000Y-63000000D01*
X198750000Y-106750000D02*
X198750000Y-98000000D01*
X196168629Y-92200000D02*
X197081371Y-92200000D01*
X179750000Y-66000000D02*
X179750000Y-72750000D01*
X190750000Y-98250000D02*
X190750000Y-97618629D01*
X197081371Y-92200000D02*
X198750000Y-93868629D01*
X198750000Y-93868629D02*
X198750000Y-98000000D01*
X193750000Y-64500000D02*
X192500000Y-63250000D01*
X184000000Y-63000000D02*
X184000000Y-56516667D01*
X179750000Y-72750000D02*
X182000000Y-75000000D01*
X192750000Y-63250000D02*
X192500000Y-63250000D01*
X182750000Y-63000000D02*
X179750000Y-66000000D01*
X184000000Y-56516667D02*
X182333333Y-54850000D01*
X194983333Y-65483333D02*
X192750000Y-63250000D01*
X193750000Y-74500000D02*
X193750000Y-64500000D01*
X194983333Y-93385296D02*
X196168629Y-92200000D01*
X190750000Y-97618629D02*
X194983333Y-93385296D01*
X192250000Y-63000000D02*
X184000000Y-63000000D01*
X194983333Y-93385296D02*
X194983333Y-65483333D01*
G04 #@! TO.N,/Output shiftreg/DO11*
X186000000Y-61000000D02*
X186000000Y-60683333D01*
X186000000Y-60683333D02*
X189333333Y-57350000D01*
G04 #@! TO.N,/Output shiftreg/DO15*
X193500000Y-96000000D02*
X193750000Y-96000000D01*
X193750000Y-96000000D02*
X196750000Y-93000000D01*
D17*
G04 #@! TO.N,/Slot/SlotEN*
X187300000Y-144000000D02*
X187300000Y-146540000D01*
G04 #@! TO.N,/Input shiftreg/DATA_OUT*
X203750000Y-85750000D02*
X204000000Y-86000000D01*
X204000000Y-86000000D02*
X204000000Y-100250000D01*
X204000000Y-100250000D02*
X206000000Y-102250000D01*
G04 #@! TO.N,/Input shiftreg/CLK*
X224750000Y-93000000D02*
X224250000Y-93500000D01*
X233250000Y-93000000D02*
X224750000Y-93000000D01*
G04 #@! TO.N,/Input shiftreg/LOAD*
X224000000Y-95250000D02*
X224500000Y-94750000D01*
X210000000Y-96250000D02*
X211250000Y-96250000D01*
X209750000Y-96500000D02*
X210000000Y-96250000D01*
X224500000Y-94750000D02*
X233500000Y-94750000D01*
X233500000Y-94750000D02*
X233750000Y-94500000D01*
X211250000Y-96250000D02*
X213000000Y-94500000D01*
G04 #@! TO.N,+24V*
X189840000Y-146540000D02*
X189840000Y-144000000D01*
G04 #@! TO.N,/Output shiftreg/CLOCK*
X177400000Y-136100000D02*
X179250000Y-134250000D01*
X164850000Y-136100000D02*
X177400000Y-136100000D01*
X204750000Y-140250000D02*
X189098803Y-140250000D01*
X163750000Y-135000000D02*
X164850000Y-136100000D01*
X210160000Y-144000000D02*
X206410000Y-140250000D01*
X189098803Y-140250000D02*
X183548863Y-134700060D01*
X206410000Y-140250000D02*
X204750000Y-140250000D01*
G04 #@! TO.N,+5V*
X192380000Y-146540000D02*
X192380000Y-144000000D01*
G04 #@! TO.N,/Output shiftreg/DATA_IN*
X164000000Y-145000000D02*
X165500000Y-146500000D01*
X164000000Y-139000000D02*
X164000000Y-145000000D01*
G04 #@! TO.N,/Output shiftreg/LOAD*
X164250000Y-136500000D02*
X178500000Y-136500000D01*
X204370000Y-140750000D02*
X189500000Y-140750000D01*
X178500000Y-136500000D02*
X179750000Y-135250000D01*
X188324695Y-140750000D02*
X183535589Y-135960894D01*
X164000000Y-136750000D02*
X164250000Y-136500000D01*
X189500000Y-140750000D02*
X188324695Y-140750000D01*
X207620000Y-144000000D02*
X204370000Y-140750000D01*
D16*
G04 #@! TO.N,/Output shiftreg/DOA_VIN*
X164250000Y-101500000D02*
X168500000Y-97250000D01*
X171470000Y-113250000D02*
X164250000Y-113250000D01*
X164250000Y-113250000D02*
X164000000Y-113500000D01*
X155750000Y-85500000D02*
X155000000Y-84750000D01*
X168500000Y-91750000D02*
X168500000Y-88750000D01*
X168500000Y-88750000D02*
X167250000Y-87500000D01*
X170750000Y-101250000D02*
X170450000Y-101550000D01*
X167250000Y-87500000D02*
X165250000Y-85500000D01*
X156250000Y-78750000D02*
X157750000Y-77250000D01*
X161000000Y-63750000D02*
X162500000Y-65250000D01*
X165250000Y-85500000D02*
X155750000Y-85500000D01*
X168500000Y-97250000D02*
X168500000Y-91750000D01*
X170450000Y-101550000D02*
X164300000Y-101550000D01*
X161000000Y-57350000D02*
X161000000Y-63750000D01*
X157750000Y-77250000D02*
X163440000Y-77250000D01*
X164300000Y-101550000D02*
X164250000Y-101500000D01*
G04 #@! TO.N,/Output shiftreg/DOB_VIN*
X188750000Y-70500000D02*
X188750000Y-67750000D01*
X197300000Y-108700000D02*
X197300000Y-103050000D01*
X181020000Y-67250000D02*
X181520000Y-67750000D01*
X192750000Y-68398629D02*
X190301371Y-65950000D01*
X197250000Y-109250000D02*
X197250000Y-108750000D01*
X188000000Y-100000000D02*
X186000000Y-102000000D01*
X192750000Y-94487259D02*
X192750000Y-68398629D01*
X188750000Y-66838629D02*
X188750000Y-67750000D01*
X194250000Y-112250000D02*
X197250000Y-109250000D01*
X190301371Y-65950000D02*
X189638629Y-65950000D01*
X197300000Y-103050000D02*
X194250000Y-100000000D01*
X186000000Y-101237259D02*
X192750000Y-94487259D01*
X181520000Y-67750000D02*
X188750000Y-67750000D01*
X186000000Y-112250000D02*
X186250000Y-112500000D01*
X186000000Y-102000000D02*
X186000000Y-112250000D01*
X194250000Y-100000000D02*
X188000000Y-100000000D01*
X197250000Y-108750000D02*
X197300000Y-108700000D01*
X186000000Y-102000000D02*
X186000000Y-101237259D01*
X189638629Y-65950000D02*
X188750000Y-66838629D01*
D17*
G04 #@! TO.N,/Output shiftreg/~{OE}*
X181000000Y-137000000D02*
X180000000Y-138000000D01*
X180000000Y-138000000D02*
X178250000Y-138000000D01*
X163750000Y-137750000D02*
X168500000Y-137750000D01*
X168500000Y-137750000D02*
X169750000Y-139000000D01*
G04 #@! TO.N,/Output shiftreg/DOA1/Digital output/COLLECTOR*
X155250000Y-70250000D02*
X157250000Y-68250000D01*
X155250000Y-81250000D02*
X155250000Y-70250000D01*
X156750000Y-82750000D02*
X155250000Y-81250000D01*
G04 #@! TO.N,/Output shiftreg/DOA1/Digital output1/COLLECTOR*
X160250000Y-83750000D02*
X160250000Y-82434314D01*
X165000000Y-68348529D02*
X165000000Y-68250000D01*
X168500000Y-77250000D02*
X168500000Y-71848529D01*
X160250000Y-82434314D02*
X165434314Y-77250000D01*
X165434314Y-77250000D02*
X168500000Y-77250000D01*
X168500000Y-71848529D02*
X165000000Y-68348529D01*
G04 #@! TO.N,/Output shiftreg/DOA1/Digital output2/COLLECTOR*
X160000000Y-81750000D02*
X158750000Y-81750000D01*
X158750000Y-81750000D02*
X157250000Y-80250000D01*
G04 #@! TO.N,/Output shiftreg/DOA1/Digital output3/COLLECTOR*
X165250000Y-83500000D02*
X165250000Y-80500000D01*
X165250000Y-80500000D02*
X165000000Y-80250000D01*
G04 #@! TO.N,/Output shiftreg/DOA2/Digital output2/COLLECTOR*
X167750000Y-116250000D02*
X165250000Y-116250000D01*
X168000000Y-116500000D02*
X167750000Y-116250000D01*
G04 #@! TO.N,/Output shiftreg/DOA2/Digital output3/COLLECTOR*
X173000000Y-118250000D02*
X173000000Y-116250000D01*
X173750000Y-119000000D02*
X173000000Y-118250000D01*
G04 #@! TO.N,/Output shiftreg/DOA2/Digital output/COLLECTOR*
X171217157Y-114217157D02*
X171351371Y-114217157D01*
X171351371Y-114217157D02*
X172500000Y-113068528D01*
X172500000Y-113068528D02*
X172500000Y-113000000D01*
X166934314Y-118500000D02*
X171217157Y-114217157D01*
X167500000Y-104750000D02*
X165500000Y-104750000D01*
X165500000Y-104750000D02*
X165000000Y-104250000D01*
X166750000Y-118500000D02*
X166934314Y-118500000D01*
X172500000Y-113000000D02*
X172500000Y-109750000D01*
X172500000Y-109750000D02*
X167500000Y-104750000D01*
G04 #@! TO.N,/Output shiftreg/DOA2/Digital output1/COLLECTOR*
X174250000Y-107000000D02*
X173000000Y-105750000D01*
X174250000Y-113000000D02*
X174250000Y-107000000D01*
X173000000Y-105750000D02*
X173000000Y-104250000D01*
X169000000Y-119000000D02*
X169000000Y-118250000D01*
X169000000Y-118250000D02*
X174250000Y-113000000D01*
G04 #@! TO.N,/Output shiftreg/DOB1/Digital output1/COLLECTOR*
X185600000Y-82150000D02*
X185600000Y-82084314D01*
X190000000Y-77684314D02*
X190000000Y-66780000D01*
X190000000Y-66780000D02*
X189970000Y-66750000D01*
X185600000Y-82084314D02*
X190000000Y-77684314D01*
X185000000Y-82750000D02*
X185600000Y-82150000D01*
G04 #@! TO.N,/Output shiftreg/DOB1/Digital output3/COLLECTOR*
X189500000Y-80500000D02*
X189250000Y-80250000D01*
X189500000Y-82750000D02*
X189500000Y-80500000D01*
G04 #@! TO.N,/Output shiftreg/DOB1/Digital output2/COLLECTOR*
X183750000Y-80250000D02*
X181500000Y-80250000D01*
X181500000Y-80250000D02*
X181250000Y-80000000D01*
G04 #@! TO.N,/Output shiftreg/DOB1/Digital output/COLLECTOR*
X182750000Y-82000000D02*
X183250000Y-82000000D01*
X184450000Y-80800000D02*
X184450000Y-79800000D01*
X187000000Y-77250000D02*
X187000000Y-74000000D01*
X184450000Y-79800000D02*
X187000000Y-77250000D01*
X181250000Y-68750000D02*
X180750000Y-68250000D01*
X181750000Y-68750000D02*
X181250000Y-68750000D01*
X183250000Y-82000000D02*
X184450000Y-80800000D01*
X187000000Y-74000000D02*
X181750000Y-68750000D01*
G04 #@! TO.N,/Output shiftreg/DOB2/Digital output1/COLLECTOR*
X191950735Y-117700735D02*
X192500000Y-117151470D01*
X195500000Y-107000000D02*
X195500000Y-103750000D01*
X195500000Y-103750000D02*
X195000000Y-103250000D01*
X192500000Y-110000000D02*
X195500000Y-107000000D01*
X192500000Y-117151470D02*
X192500000Y-110000000D01*
G04 #@! TO.N,/Output shiftreg/DOB2/Digital output3/COLLECTOR*
X195500000Y-115500000D02*
X195000000Y-115000000D01*
X195500000Y-118000000D02*
X195500000Y-115500000D01*
G04 #@! TO.N,/Output shiftreg/DOB2/Digital output2/COLLECTOR*
X190250000Y-115500000D02*
X187250000Y-115500000D01*
X187250000Y-115500000D02*
X186750000Y-115000000D01*
X190500000Y-115750000D02*
X190250000Y-115500000D01*
G04 #@! TO.N,/Output shiftreg/DOB2/Digital output/COLLECTOR*
X189848529Y-117250000D02*
X189500000Y-117250000D01*
X191250000Y-107700000D02*
X191250000Y-115848529D01*
X187250000Y-103250000D02*
X187250000Y-103700000D01*
X191250000Y-115848529D02*
X189848529Y-117250000D01*
X187250000Y-103700000D02*
X191250000Y-107700000D01*
G04 #@! TO.N,/Output shiftreg/DOA1/Digital output/EMITTER*
X155650000Y-79900000D02*
X155650000Y-75350000D01*
X155650000Y-75350000D02*
X160750000Y-70250000D01*
X158500000Y-82750000D02*
X155650000Y-79900000D01*
G04 #@! TO.N,/Output shiftreg/DOA1/Digital output1/EMITTER*
X164000000Y-79250000D02*
X167750000Y-79250000D01*
X169290000Y-77710000D02*
X169290000Y-71790000D01*
X169290000Y-71790000D02*
X168750000Y-71250000D01*
X161250000Y-84000000D02*
X161250000Y-82000000D01*
X167750000Y-79250000D02*
X169290000Y-77710000D01*
X161250000Y-82000000D02*
X164000000Y-79250000D01*
G04 #@! TO.N,/Output shiftreg/DOA2/Digital output/EMITTER*
X167750000Y-118750000D02*
X173250000Y-113250000D01*
X173250000Y-109250000D02*
X168750000Y-104750000D01*
X167750000Y-119250000D02*
X167750000Y-118750000D01*
X168750000Y-104750000D02*
X168750000Y-104250000D01*
X173250000Y-113250000D02*
X173250000Y-109250000D01*
G04 #@! TO.N,/Output shiftreg/DOA2/Digital output1/EMITTER*
X170000000Y-118000000D02*
X175000000Y-113000000D01*
X170000000Y-119250000D02*
X170000000Y-118000000D01*
X175000000Y-106250000D02*
X175500000Y-105750000D01*
X169750000Y-119500000D02*
X170000000Y-119250000D01*
X175000000Y-113000000D02*
X175000000Y-106250000D01*
G04 #@! TO.N,/Output shiftreg/DOB1/Digital output1/EMITTER*
X190500000Y-77750000D02*
X190500000Y-71250000D01*
X186000000Y-83000000D02*
X186000000Y-82250000D01*
X190500000Y-71250000D02*
X191500000Y-70250000D01*
X186000000Y-82250000D02*
X190500000Y-77750000D01*
G04 #@! TO.N,/Output shiftreg/DOB1/Digital output/EMITTER*
X188250000Y-77000000D02*
X188250000Y-72500000D01*
X183750000Y-82750000D02*
X184850000Y-81650000D01*
X184850000Y-80400000D02*
X188250000Y-77000000D01*
X184850000Y-81650000D02*
X184850000Y-80400000D01*
X188250000Y-72500000D02*
X185750000Y-70000000D01*
X185750000Y-70000000D02*
X185000000Y-70000000D01*
G04 #@! TO.N,/Output shiftreg/DOB2/Digital output1/EMITTER*
X192900000Y-110600000D02*
X192900000Y-117600000D01*
X196500000Y-107000000D02*
X192900000Y-110600000D01*
X192900000Y-117600000D02*
X192000000Y-118500000D01*
X196500000Y-105750000D02*
X196500000Y-107000000D01*
G04 #@! TO.N,/Output shiftreg/DOB2/Digital output/EMITTER*
X191750000Y-106000000D02*
X190750000Y-105000000D01*
X190750000Y-105000000D02*
X190750000Y-103500000D01*
X190750000Y-117500000D02*
X191750000Y-116500000D01*
X191750000Y-116500000D02*
X191750000Y-106000000D01*
G04 #@! TO.N,/Output shiftreg/DOA2/IN2*
X172000000Y-135250000D02*
X172250000Y-135500000D01*
X169500000Y-135250000D02*
X172000000Y-135250000D01*
X169250000Y-135000000D02*
X169500000Y-135250000D01*
G04 #@! TO.N,/Output shiftreg/DOA2/IN3*
X172250000Y-134000000D02*
X173250000Y-135000000D01*
X169250000Y-134000000D02*
X172250000Y-134000000D01*
G04 #@! TO.N,/Output shiftreg/DOB2/IN2*
X190750000Y-134750000D02*
X193750000Y-134750000D01*
X193750000Y-134750000D02*
X194250000Y-135250000D01*
G04 #@! TO.N,/Output shiftreg/DOB2/IN1*
X192250000Y-135750000D02*
X190500000Y-135750000D01*
X190500000Y-135750000D02*
X190250000Y-135500000D01*
G04 #@! TO.N,Net-(U1-QH')*
X180350000Y-136400000D02*
X180350000Y-134501471D01*
X179750000Y-137000000D02*
X180350000Y-136400000D01*
X179198529Y-133350000D02*
X164600000Y-133350000D01*
X164600000Y-133350000D02*
X164000000Y-132750000D01*
X180350000Y-134501471D02*
X179198529Y-133350000D01*
G04 #@! TO.N,Net-(U7-DS)*
X205250000Y-86825000D02*
X206425000Y-86825000D01*
X209500000Y-83750000D02*
X227500000Y-83750000D01*
X206425000Y-86825000D02*
X209500000Y-83750000D01*
G04 #@! TD*
G04 #@! TA.AperFunction,Conductor*
G04 #@! TO.N,GND*
G36*
X185010000Y-146106988D02*
G01*
X184952993Y-146074075D01*
X184825826Y-146040000D01*
X184694174Y-146040000D01*
X184567007Y-146074075D01*
X184510000Y-146106988D01*
X184510000Y-144433012D01*
X184567007Y-144465925D01*
X184694174Y-144500000D01*
X184825826Y-144500000D01*
X184952993Y-144465925D01*
X185010000Y-144433012D01*
X185010000Y-146106988D01*
G37*
G04 #@! TD.AperFunction*
G04 #@! TA.AperFunction,Conductor*
G36*
X197710000Y-146106988D02*
G01*
X197652993Y-146074075D01*
X197525826Y-146040000D01*
X197394174Y-146040000D01*
X197267007Y-146074075D01*
X197210000Y-146106988D01*
X197210000Y-144433012D01*
X197267007Y-144465925D01*
X197394174Y-144500000D01*
X197525826Y-144500000D01*
X197652993Y-144465925D01*
X197710000Y-144433012D01*
X197710000Y-146106988D01*
G37*
G04 #@! TD.AperFunction*
G04 #@! TA.AperFunction,Conductor*
G36*
X215490000Y-146106988D02*
G01*
X215432993Y-146074075D01*
X215305826Y-146040000D01*
X215174174Y-146040000D01*
X215047007Y-146074075D01*
X214990000Y-146106988D01*
X214990000Y-144433012D01*
X215047007Y-144465925D01*
X215174174Y-144500000D01*
X215305826Y-144500000D01*
X215432993Y-144465925D01*
X215490000Y-144433012D01*
X215490000Y-146106988D01*
G37*
G04 #@! TD.AperFunction*
G04 #@! TA.AperFunction,Conductor*
G36*
X249442539Y-75019685D02*
G01*
X249488294Y-75072489D01*
X249499500Y-75124000D01*
X249499500Y-144201706D01*
X249479815Y-144268745D01*
X249427011Y-144314500D01*
X249357853Y-144324444D01*
X249294297Y-144295419D01*
X249265015Y-144258001D01*
X249208689Y-144147456D01*
X248997468Y-143822206D01*
X248788904Y-143564649D01*
X248788903Y-143564648D01*
X247294251Y-145059300D01*
X247220412Y-144957670D01*
X247042330Y-144779588D01*
X246940698Y-144705748D01*
X248435350Y-143211096D01*
X248435350Y-143211095D01*
X248177793Y-143002531D01*
X247852543Y-142791310D01*
X247506994Y-142615244D01*
X247144936Y-142476262D01*
X246770330Y-142375887D01*
X246770323Y-142375886D01*
X246387287Y-142315219D01*
X246000001Y-142294922D01*
X245999999Y-142294922D01*
X245612712Y-142315219D01*
X245229676Y-142375886D01*
X245229669Y-142375887D01*
X244855063Y-142476262D01*
X244493005Y-142615244D01*
X244147456Y-142791310D01*
X243822206Y-143002531D01*
X243564648Y-143211095D01*
X243564648Y-143211096D01*
X245059301Y-144705748D01*
X244957670Y-144779588D01*
X244779588Y-144957670D01*
X244705748Y-145059300D01*
X243211096Y-143564648D01*
X243211095Y-143564648D01*
X243002531Y-143822206D01*
X242791310Y-144147456D01*
X242615244Y-144493005D01*
X242476262Y-144855063D01*
X242375887Y-145229669D01*
X242375886Y-145229676D01*
X242315219Y-145612712D01*
X242294922Y-145999999D01*
X242294922Y-146000000D01*
X242315219Y-146387287D01*
X242375886Y-146770323D01*
X242375887Y-146770330D01*
X242476262Y-147144936D01*
X242615244Y-147506994D01*
X242791310Y-147852543D01*
X243002531Y-148177793D01*
X243211095Y-148435350D01*
X243211096Y-148435350D01*
X244705748Y-146940698D01*
X244779588Y-147042330D01*
X244957670Y-147220412D01*
X245059300Y-147294251D01*
X243564648Y-148788903D01*
X243564649Y-148788904D01*
X243822206Y-148997468D01*
X244147456Y-149208689D01*
X244258001Y-149265015D01*
X244308797Y-149312990D01*
X244325592Y-149380811D01*
X244303055Y-149446945D01*
X244248340Y-149490397D01*
X244201706Y-149499500D01*
X155798294Y-149499500D01*
X155731255Y-149479815D01*
X155685500Y-149427011D01*
X155675556Y-149357853D01*
X155704581Y-149294297D01*
X155741999Y-149265015D01*
X155852543Y-149208689D01*
X156177783Y-148997476D01*
X156177785Y-148997475D01*
X156435349Y-148788902D01*
X154940698Y-147294251D01*
X155042330Y-147220412D01*
X155220412Y-147042330D01*
X155294251Y-146940698D01*
X156788902Y-148435349D01*
X156997475Y-148177785D01*
X156997476Y-148177783D01*
X157208689Y-147852543D01*
X157384755Y-147506994D01*
X157523737Y-147144936D01*
X157624112Y-146770330D01*
X157624113Y-146770323D01*
X157684780Y-146387287D01*
X157705078Y-146000000D01*
X157705078Y-145999999D01*
X157684780Y-145612712D01*
X157624113Y-145229676D01*
X157624112Y-145229669D01*
X157523737Y-144855063D01*
X157384755Y-144493005D01*
X157208689Y-144147456D01*
X156997468Y-143822206D01*
X156788904Y-143564649D01*
X156788903Y-143564648D01*
X155294251Y-145059300D01*
X155220412Y-144957670D01*
X155042330Y-144779588D01*
X154940698Y-144705748D01*
X156435350Y-143211096D01*
X156435350Y-143211095D01*
X156177793Y-143002531D01*
X155852543Y-142791310D01*
X155506994Y-142615244D01*
X155144936Y-142476262D01*
X154770330Y-142375887D01*
X154770323Y-142375886D01*
X154387287Y-142315219D01*
X154000001Y-142294922D01*
X153999999Y-142294922D01*
X153612712Y-142315219D01*
X153229676Y-142375886D01*
X153229669Y-142375887D01*
X152855063Y-142476262D01*
X152493005Y-142615244D01*
X152147456Y-142791310D01*
X151822206Y-143002531D01*
X151564648Y-143211095D01*
X151564648Y-143211096D01*
X153059301Y-144705748D01*
X152957670Y-144779588D01*
X152779588Y-144957670D01*
X152705748Y-145059301D01*
X151211096Y-143564648D01*
X151211095Y-143564648D01*
X151002531Y-143822206D01*
X150791310Y-144147456D01*
X150734985Y-144258001D01*
X150687010Y-144308797D01*
X150619189Y-144325592D01*
X150553055Y-144303055D01*
X150509603Y-144248340D01*
X150500500Y-144201706D01*
X150500500Y-134999996D01*
X162944435Y-134999996D01*
X162944435Y-135000003D01*
X162964630Y-135179249D01*
X162964631Y-135179254D01*
X163024211Y-135349523D01*
X163098421Y-135467627D01*
X163120184Y-135502262D01*
X163247738Y-135629816D01*
X163400478Y-135725789D01*
X163570745Y-135785368D01*
X163609576Y-135789742D01*
X163673989Y-135816808D01*
X163713545Y-135874402D01*
X163715684Y-135944239D01*
X163679727Y-136004146D01*
X163656156Y-136020160D01*
X163656374Y-136020506D01*
X163497737Y-136120184D01*
X163370184Y-136247737D01*
X163274211Y-136400476D01*
X163214631Y-136570745D01*
X163214630Y-136570750D01*
X163194435Y-136749996D01*
X163194435Y-136750003D01*
X163214630Y-136929249D01*
X163214633Y-136929262D01*
X163246970Y-137021674D01*
X163250532Y-137091453D01*
X163217611Y-137150309D01*
X163120185Y-137247736D01*
X163120184Y-137247737D01*
X163024211Y-137400476D01*
X162964631Y-137570745D01*
X162964630Y-137570750D01*
X162944435Y-137749996D01*
X162944435Y-137750003D01*
X162964630Y-137929249D01*
X162964631Y-137929254D01*
X163024211Y-138099523D01*
X163087333Y-138199980D01*
X163120184Y-138252262D01*
X163247738Y-138379816D01*
X163283652Y-138402382D01*
X163329943Y-138454717D01*
X163340591Y-138523770D01*
X163322674Y-138573347D01*
X163274212Y-138650474D01*
X163214631Y-138820745D01*
X163214630Y-138820750D01*
X163194435Y-138999996D01*
X163194435Y-139000003D01*
X163214630Y-139179249D01*
X163214631Y-139179254D01*
X163274211Y-139349523D01*
X163370185Y-139502263D01*
X163372445Y-139505097D01*
X163373334Y-139507275D01*
X163373889Y-139508158D01*
X163373734Y-139508255D01*
X163398855Y-139569783D01*
X163399500Y-139582412D01*
X163399500Y-144913330D01*
X163399499Y-144913348D01*
X163399499Y-145079054D01*
X163399498Y-145079054D01*
X163399499Y-145079057D01*
X163440423Y-145231785D01*
X163460233Y-145266097D01*
X163511477Y-145354855D01*
X163519481Y-145368717D01*
X163638349Y-145487585D01*
X163638355Y-145487590D01*
X164669298Y-146518533D01*
X164702783Y-146579856D01*
X164704837Y-146592330D01*
X164714630Y-146679249D01*
X164774210Y-146849521D01*
X164787594Y-146870821D01*
X164870184Y-147002262D01*
X164997738Y-147129816D01*
X165080440Y-147181781D01*
X165149866Y-147225405D01*
X165150478Y-147225789D01*
X165219672Y-147250001D01*
X165320745Y-147285368D01*
X165320750Y-147285369D01*
X165499996Y-147305565D01*
X165500000Y-147305565D01*
X165500004Y-147305565D01*
X165679249Y-147285369D01*
X165679252Y-147285368D01*
X165679255Y-147285368D01*
X165780337Y-147249998D01*
X167944435Y-147249998D01*
X167944435Y-147250001D01*
X167948720Y-147288029D01*
X167949500Y-147301914D01*
X167949500Y-147328844D01*
X167957288Y-147368003D01*
X167958890Y-147378303D01*
X167964632Y-147429252D01*
X167964633Y-147429260D01*
X167972976Y-147453104D01*
X167977550Y-147469860D01*
X167980262Y-147483496D01*
X168000509Y-147532377D01*
X168002986Y-147538867D01*
X168016852Y-147578493D01*
X168024212Y-147599524D01*
X168030709Y-147609865D01*
X168040268Y-147628365D01*
X168040603Y-147629173D01*
X168040605Y-147629179D01*
X168077223Y-147683982D01*
X168079114Y-147686900D01*
X168120180Y-147752257D01*
X168120182Y-147752260D01*
X168128211Y-147760289D01*
X169239707Y-148871786D01*
X169239711Y-148871789D01*
X169370814Y-148959390D01*
X169370818Y-148959392D01*
X169370821Y-148959394D01*
X169516503Y-149019738D01*
X169671153Y-149050499D01*
X169671157Y-149050500D01*
X169671158Y-149050500D01*
X193828844Y-149050500D01*
X193828845Y-149050499D01*
X193983497Y-149019737D01*
X194129179Y-148959394D01*
X194260289Y-148871789D01*
X194371789Y-148760289D01*
X194459394Y-148629179D01*
X194519737Y-148483497D01*
X194550500Y-148328842D01*
X194550500Y-148092940D01*
X194570185Y-148025901D01*
X194586814Y-148005263D01*
X194673521Y-147918555D01*
X194734842Y-147885072D01*
X194772003Y-147882710D01*
X194920000Y-147895659D01*
X195155408Y-147875063D01*
X195383663Y-147813903D01*
X195597830Y-147714035D01*
X195791401Y-147578495D01*
X195958495Y-147411401D01*
X196088730Y-147225405D01*
X196143307Y-147181781D01*
X196212805Y-147174587D01*
X196275160Y-147206110D01*
X196291879Y-147225405D01*
X196421890Y-147411078D01*
X196588917Y-147578105D01*
X196782421Y-147713600D01*
X196996507Y-147813429D01*
X196996516Y-147813433D01*
X197210000Y-147870634D01*
X197210000Y-146973012D01*
X197267007Y-147005925D01*
X197394174Y-147040000D01*
X197525826Y-147040000D01*
X197652993Y-147005925D01*
X197710000Y-146973012D01*
X197710000Y-147870633D01*
X197923483Y-147813433D01*
X197923492Y-147813429D01*
X198137578Y-147713600D01*
X198331082Y-147578105D01*
X198498105Y-147411082D01*
X198628119Y-147225405D01*
X198682696Y-147181781D01*
X198752195Y-147174588D01*
X198814549Y-147206110D01*
X198831269Y-147225405D01*
X198961505Y-147411401D01*
X199128599Y-147578495D01*
X199173400Y-147609865D01*
X199322165Y-147714032D01*
X199322167Y-147714033D01*
X199322170Y-147714035D01*
X199536337Y-147813903D01*
X199764592Y-147875063D01*
X199952918Y-147891539D01*
X199999999Y-147895659D01*
X200000000Y-147895659D01*
X200000001Y-147895659D01*
X200039234Y-147892226D01*
X200235408Y-147875063D01*
X200463663Y-147813903D01*
X200677830Y-147714035D01*
X200871401Y-147578495D01*
X201038495Y-147411401D01*
X201168425Y-147225842D01*
X201223002Y-147182217D01*
X201292500Y-147175023D01*
X201354855Y-147206546D01*
X201371575Y-147225842D01*
X201501281Y-147411082D01*
X201501505Y-147411401D01*
X201668599Y-147578495D01*
X201713400Y-147609865D01*
X201862165Y-147714032D01*
X201862167Y-147714033D01*
X201862170Y-147714035D01*
X202076337Y-147813903D01*
X202304592Y-147875063D01*
X202492918Y-147891539D01*
X202539999Y-147895659D01*
X202540000Y-147895659D01*
X202540001Y-147895659D01*
X202579234Y-147892226D01*
X202775408Y-147875063D01*
X203003663Y-147813903D01*
X203217830Y-147714035D01*
X203411401Y-147578495D01*
X203578495Y-147411401D01*
X203708425Y-147225842D01*
X203763002Y-147182217D01*
X203832500Y-147175023D01*
X203894855Y-147206546D01*
X203911575Y-147225842D01*
X204041281Y-147411082D01*
X204041505Y-147411401D01*
X204208599Y-147578495D01*
X204253400Y-147609865D01*
X204402165Y-147714032D01*
X204402167Y-147714033D01*
X204402170Y-147714035D01*
X204616337Y-147813903D01*
X204844592Y-147875063D01*
X205032918Y-147891539D01*
X205079999Y-147895659D01*
X205080000Y-147895659D01*
X205080001Y-147895659D01*
X205119234Y-147892226D01*
X205315408Y-147875063D01*
X205543663Y-147813903D01*
X205757830Y-147714035D01*
X205951401Y-147578495D01*
X206118495Y-147411401D01*
X206248425Y-147225842D01*
X206303002Y-147182217D01*
X206372500Y-147175023D01*
X206434855Y-147206546D01*
X206451575Y-147225842D01*
X206581281Y-147411082D01*
X206581505Y-147411401D01*
X206748599Y-147578495D01*
X206793400Y-147609865D01*
X206942165Y-147714032D01*
X206942167Y-147714033D01*
X206942170Y-147714035D01*
X207156337Y-147813903D01*
X207384592Y-147875063D01*
X207572918Y-147891539D01*
X207619999Y-147895659D01*
X207620000Y-147895659D01*
X207620001Y-147895659D01*
X207659234Y-147892226D01*
X207855408Y-147875063D01*
X208083663Y-147813903D01*
X208297830Y-147714035D01*
X208491401Y-147578495D01*
X208658495Y-147411401D01*
X208788425Y-147225842D01*
X208843002Y-147182217D01*
X208912500Y-147175023D01*
X208974855Y-147206546D01*
X208991575Y-147225842D01*
X209121281Y-147411082D01*
X209121505Y-147411401D01*
X209288599Y-147578495D01*
X209333400Y-147609865D01*
X209482165Y-147714032D01*
X209482167Y-147714033D01*
X209482170Y-147714035D01*
X209696337Y-147813903D01*
X209924592Y-147875063D01*
X210112918Y-147891539D01*
X210159999Y-147895659D01*
X210160000Y-147895659D01*
X210160001Y-147895659D01*
X210199234Y-147892226D01*
X210395408Y-147875063D01*
X210623663Y-147813903D01*
X210837830Y-147714035D01*
X211031401Y-147578495D01*
X211198495Y-147411401D01*
X211328425Y-147225842D01*
X211383002Y-147182217D01*
X211452500Y-147175023D01*
X211514855Y-147206546D01*
X211531575Y-147225842D01*
X211661281Y-147411082D01*
X211661505Y-147411401D01*
X211828599Y-147578495D01*
X211873400Y-147609865D01*
X212022165Y-147714032D01*
X212022167Y-147714033D01*
X212022170Y-147714035D01*
X212236337Y-147813903D01*
X212464592Y-147875063D01*
X212652918Y-147891539D01*
X212699999Y-147895659D01*
X212700000Y-147895659D01*
X212700001Y-147895659D01*
X212739234Y-147892226D01*
X212935408Y-147875063D01*
X213163663Y-147813903D01*
X213377830Y-147714035D01*
X213571401Y-147578495D01*
X213738495Y-147411401D01*
X213868730Y-147225405D01*
X213923307Y-147181781D01*
X213992805Y-147174587D01*
X214055160Y-147206110D01*
X214071879Y-147225405D01*
X214201890Y-147411078D01*
X214368917Y-147578105D01*
X214562421Y-147713600D01*
X214776507Y-147813429D01*
X214776516Y-147813433D01*
X214990000Y-147870634D01*
X214990000Y-146973012D01*
X215047007Y-147005925D01*
X215174174Y-147040000D01*
X215305826Y-147040000D01*
X215432993Y-147005925D01*
X215490000Y-146973012D01*
X215490000Y-147870633D01*
X215703483Y-147813433D01*
X215703492Y-147813429D01*
X215917578Y-147713600D01*
X216111082Y-147578105D01*
X216278105Y-147411082D01*
X216413600Y-147217578D01*
X216513429Y-147003492D01*
X216513432Y-147003486D01*
X216570636Y-146790000D01*
X215673012Y-146790000D01*
X215705925Y-146732993D01*
X215740000Y-146605826D01*
X215740000Y-146474174D01*
X215705925Y-146347007D01*
X215673012Y-146290000D01*
X216570636Y-146290000D01*
X216570635Y-146289999D01*
X216513432Y-146076513D01*
X216513429Y-146076507D01*
X216413600Y-145862422D01*
X216413599Y-145862420D01*
X216278113Y-145668926D01*
X216278108Y-145668920D01*
X216155665Y-145546477D01*
X216122180Y-145485154D01*
X216127164Y-145415462D01*
X216169036Y-145359529D01*
X216200013Y-145342614D01*
X216332086Y-145293354D01*
X216332093Y-145293350D01*
X216447187Y-145207190D01*
X216447190Y-145207187D01*
X216533350Y-145092093D01*
X216533354Y-145092086D01*
X216583596Y-144957379D01*
X216583598Y-144957372D01*
X216589999Y-144897844D01*
X216590000Y-144897827D01*
X216590000Y-144250000D01*
X215673012Y-144250000D01*
X215705925Y-144192993D01*
X215740000Y-144065826D01*
X215740000Y-143934174D01*
X215705925Y-143807007D01*
X215673012Y-143750000D01*
X216590000Y-143750000D01*
X216590000Y-143102172D01*
X216589999Y-143102155D01*
X216583598Y-143042627D01*
X216583596Y-143042620D01*
X216533354Y-142907913D01*
X216533350Y-142907906D01*
X216447190Y-142792812D01*
X216447187Y-142792809D01*
X216332093Y-142706649D01*
X216332086Y-142706645D01*
X216197379Y-142656403D01*
X216197372Y-142656401D01*
X216137844Y-142650000D01*
X215490000Y-142650000D01*
X215490000Y-143566988D01*
X215432993Y-143534075D01*
X215305826Y-143500000D01*
X215174174Y-143500000D01*
X215047007Y-143534075D01*
X214990000Y-143566988D01*
X214990000Y-142650000D01*
X214342155Y-142650000D01*
X214282627Y-142656401D01*
X214282620Y-142656403D01*
X214147913Y-142706645D01*
X214147906Y-142706649D01*
X214032812Y-142792809D01*
X214032809Y-142792812D01*
X213946649Y-142907906D01*
X213946645Y-142907913D01*
X213897578Y-143039470D01*
X213855707Y-143095404D01*
X213790242Y-143119821D01*
X213721969Y-143104969D01*
X213693715Y-143083819D01*
X213649366Y-143039470D01*
X213571401Y-142961505D01*
X213571397Y-142961502D01*
X213571396Y-142961501D01*
X213377834Y-142825967D01*
X213377830Y-142825965D01*
X213303512Y-142791310D01*
X213163663Y-142726097D01*
X213163659Y-142726096D01*
X213163655Y-142726094D01*
X212935413Y-142664938D01*
X212935403Y-142664936D01*
X212700001Y-142644341D01*
X212699999Y-142644341D01*
X212464596Y-142664936D01*
X212464586Y-142664938D01*
X212236344Y-142726094D01*
X212236335Y-142726098D01*
X212022171Y-142825964D01*
X212022169Y-142825965D01*
X211828597Y-142961505D01*
X211661505Y-143128597D01*
X211531575Y-143314158D01*
X211476998Y-143357783D01*
X211407500Y-143364977D01*
X211345145Y-143333454D01*
X211328425Y-143314158D01*
X211198494Y-143128597D01*
X211031402Y-142961506D01*
X211031395Y-142961501D01*
X210837834Y-142825967D01*
X210837830Y-142825965D01*
X210763512Y-142791310D01*
X210623663Y-142726097D01*
X210623659Y-142726096D01*
X210623655Y-142726094D01*
X210395413Y-142664938D01*
X210395403Y-142664936D01*
X210160001Y-142644341D01*
X210159999Y-142644341D01*
X209924596Y-142664936D01*
X209924583Y-142664939D01*
X209796241Y-142699327D01*
X209726392Y-142697664D01*
X209676468Y-142667233D01*
X206897590Y-139888355D01*
X206897588Y-139888352D01*
X206778717Y-139769481D01*
X206778716Y-139769480D01*
X206691904Y-139719360D01*
X206691904Y-139719359D01*
X206691900Y-139719358D01*
X206641785Y-139690423D01*
X206489057Y-139649499D01*
X206330943Y-139649499D01*
X206323347Y-139649499D01*
X206323331Y-139649500D01*
X189398900Y-139649500D01*
X189331861Y-139629815D01*
X189311219Y-139613181D01*
X185198034Y-135499996D01*
X189444435Y-135499996D01*
X189444435Y-135500003D01*
X189464630Y-135679249D01*
X189464631Y-135679254D01*
X189524211Y-135849523D01*
X189608393Y-135983497D01*
X189620184Y-136002262D01*
X189747738Y-136129816D01*
X189781874Y-136151265D01*
X189887494Y-136217631D01*
X189900478Y-136225789D01*
X190016812Y-136266496D01*
X190070745Y-136285368D01*
X190070749Y-136285369D01*
X190151251Y-136294438D01*
X190246366Y-136305155D01*
X190264568Y-136308599D01*
X190268214Y-136309575D01*
X190268216Y-136309577D01*
X190351098Y-136331785D01*
X190420942Y-136350500D01*
X190420943Y-136350500D01*
X191667588Y-136350500D01*
X191734627Y-136370185D01*
X191744903Y-136377555D01*
X191747736Y-136379814D01*
X191747738Y-136379816D01*
X191856387Y-136448085D01*
X191878483Y-136461969D01*
X191900478Y-136475789D01*
X191969672Y-136500001D01*
X192070745Y-136535368D01*
X192070750Y-136535369D01*
X192249996Y-136555565D01*
X192250000Y-136555565D01*
X192250004Y-136555565D01*
X192429249Y-136535369D01*
X192429252Y-136535368D01*
X192429255Y-136535368D01*
X192530337Y-136499998D01*
X200444435Y-136499998D01*
X200444435Y-136500001D01*
X200448720Y-136538029D01*
X200449500Y-136551914D01*
X200449500Y-136578844D01*
X200457288Y-136618003D01*
X200458890Y-136628303D01*
X200464632Y-136679252D01*
X200464633Y-136679260D01*
X200472976Y-136703104D01*
X200477550Y-136719860D01*
X200480262Y-136733496D01*
X200500509Y-136782377D01*
X200502986Y-136788867D01*
X200503940Y-136791594D01*
X200524212Y-136849524D01*
X200530709Y-136859865D01*
X200540268Y-136878365D01*
X200540603Y-136879173D01*
X200540605Y-136879179D01*
X200577223Y-136933982D01*
X200579114Y-136936900D01*
X200620180Y-137002257D01*
X200620182Y-137002260D01*
X200620184Y-137002262D01*
X200747738Y-137129816D01*
X200813131Y-137170905D01*
X200816040Y-137172790D01*
X200870821Y-137209394D01*
X200871606Y-137209719D01*
X200890134Y-137219289D01*
X200900478Y-137225789D01*
X200961175Y-137247028D01*
X200967607Y-137249484D01*
X200996021Y-137261253D01*
X201016497Y-137269735D01*
X201016498Y-137269735D01*
X201016503Y-137269737D01*
X201030139Y-137272449D01*
X201046898Y-137277023D01*
X201070745Y-137285368D01*
X201121714Y-137291110D01*
X201131992Y-137292709D01*
X201159140Y-137298109D01*
X201171157Y-137300500D01*
X201171158Y-137300500D01*
X201198085Y-137300500D01*
X201211969Y-137301280D01*
X201249998Y-137305565D01*
X201250000Y-137305565D01*
X201250002Y-137305565D01*
X201288031Y-137301280D01*
X201301915Y-137300500D01*
X206578844Y-137300500D01*
X206578845Y-137300499D01*
X206733497Y-137269737D01*
X206879179Y-137209394D01*
X207010289Y-137121789D01*
X207871789Y-136260289D01*
X207879816Y-136252262D01*
X207920921Y-136186842D01*
X207922778Y-136183976D01*
X207959393Y-136129179D01*
X207959719Y-136128389D01*
X207969293Y-136109859D01*
X207975789Y-136099522D01*
X207997017Y-136038852D01*
X207999493Y-136032368D01*
X208002872Y-136024211D01*
X208019737Y-135983497D01*
X208022450Y-135969852D01*
X208027020Y-135953107D01*
X208035368Y-135929255D01*
X208041110Y-135878285D01*
X208042708Y-135868011D01*
X208050500Y-135828843D01*
X208050500Y-135801914D01*
X208051280Y-135788029D01*
X208052000Y-135781644D01*
X208055565Y-135750000D01*
X208051279Y-135711968D01*
X208050500Y-135698085D01*
X208050500Y-135671157D01*
X208042711Y-135632003D01*
X208041110Y-135621714D01*
X208035368Y-135570745D01*
X208027023Y-135546898D01*
X208022449Y-135530139D01*
X208019737Y-135516503D01*
X208019735Y-135516498D01*
X208019734Y-135516494D01*
X207999492Y-135467627D01*
X207997022Y-135461160D01*
X207975789Y-135400478D01*
X207969288Y-135390132D01*
X207959720Y-135371611D01*
X207959393Y-135370821D01*
X207922794Y-135316046D01*
X207920909Y-135313137D01*
X207879816Y-135247738D01*
X207752260Y-135120182D01*
X207752257Y-135120180D01*
X207686854Y-135079085D01*
X207683962Y-135077211D01*
X207642611Y-135049582D01*
X207629184Y-135040610D01*
X207629181Y-135040608D01*
X207629179Y-135040607D01*
X207629175Y-135040605D01*
X207629165Y-135040600D01*
X207628375Y-135040273D01*
X207609868Y-135030712D01*
X207599522Y-135024211D01*
X207569585Y-135013735D01*
X207538856Y-135002982D01*
X207532363Y-135000503D01*
X207483497Y-134980263D01*
X207483493Y-134980262D01*
X207469860Y-134977550D01*
X207453104Y-134972976D01*
X207429260Y-134964633D01*
X207429256Y-134964632D01*
X207429255Y-134964632D01*
X207408575Y-134962301D01*
X207378303Y-134958890D01*
X207368003Y-134957288D01*
X207328844Y-134949500D01*
X207328842Y-134949500D01*
X207301915Y-134949500D01*
X207288031Y-134948720D01*
X207250002Y-134944435D01*
X207249998Y-134944435D01*
X207211969Y-134948720D01*
X207198085Y-134949500D01*
X207171153Y-134949500D01*
X207131995Y-134957288D01*
X207121695Y-134958890D01*
X207070741Y-134964632D01*
X207046900Y-134972975D01*
X207030139Y-134977550D01*
X207016504Y-134980262D01*
X206967627Y-135000507D01*
X206961133Y-135002986D01*
X206900475Y-135024212D01*
X206890127Y-135030714D01*
X206871627Y-135040272D01*
X206870825Y-135040604D01*
X206870824Y-135040604D01*
X206816035Y-135077211D01*
X206813123Y-135079098D01*
X206747738Y-135120183D01*
X206747735Y-135120186D01*
X206204741Y-135663181D01*
X206143418Y-135696666D01*
X206117060Y-135699500D01*
X201301915Y-135699500D01*
X201288031Y-135698720D01*
X201250002Y-135694435D01*
X201249998Y-135694435D01*
X201211969Y-135698720D01*
X201198085Y-135699500D01*
X201171152Y-135699500D01*
X201131994Y-135707288D01*
X201121696Y-135708890D01*
X201070742Y-135714632D01*
X201070735Y-135714634D01*
X201046898Y-135722975D01*
X201030140Y-135727550D01*
X201016502Y-135730263D01*
X201016496Y-135730264D01*
X200967631Y-135750504D01*
X200961140Y-135752982D01*
X200900477Y-135774210D01*
X200900474Y-135774212D01*
X200890127Y-135780713D01*
X200871639Y-135790266D01*
X200870832Y-135790600D01*
X200870824Y-135790604D01*
X200816047Y-135827204D01*
X200813132Y-135829092D01*
X200747742Y-135870180D01*
X200747735Y-135870186D01*
X200620186Y-135997735D01*
X200620180Y-135997742D01*
X200579092Y-136063132D01*
X200577209Y-136066038D01*
X200554695Y-136099735D01*
X200540604Y-136120824D01*
X200540600Y-136120832D01*
X200540266Y-136121639D01*
X200530713Y-136140127D01*
X200524212Y-136150474D01*
X200524210Y-136150477D01*
X200502982Y-136211140D01*
X200500504Y-136217631D01*
X200480264Y-136266496D01*
X200480263Y-136266502D01*
X200477550Y-136280140D01*
X200472975Y-136296898D01*
X200464634Y-136320735D01*
X200464632Y-136320742D01*
X200458890Y-136371696D01*
X200457288Y-136381994D01*
X200449500Y-136421152D01*
X200449500Y-136448085D01*
X200448720Y-136461969D01*
X200444435Y-136499998D01*
X192530337Y-136499998D01*
X192599522Y-136475789D01*
X192752262Y-136379816D01*
X192879816Y-136252262D01*
X192975789Y-136099522D01*
X193035368Y-135929255D01*
X193035369Y-135929249D01*
X193055565Y-135750003D01*
X193055565Y-135749996D01*
X193035369Y-135570750D01*
X193035366Y-135570737D01*
X193016022Y-135515455D01*
X193012460Y-135445676D01*
X193047188Y-135385049D01*
X193109182Y-135352821D01*
X193133063Y-135350500D01*
X193349091Y-135350500D01*
X193416130Y-135370185D01*
X193461885Y-135422989D01*
X193466133Y-135433545D01*
X193514139Y-135570737D01*
X193524211Y-135599522D01*
X193620184Y-135752262D01*
X193747738Y-135879816D01*
X193826410Y-135929249D01*
X193882721Y-135964632D01*
X193900478Y-135975789D01*
X194070745Y-136035368D01*
X194070750Y-136035369D01*
X194249996Y-136055565D01*
X194250000Y-136055565D01*
X194250004Y-136055565D01*
X194429249Y-136035369D01*
X194429252Y-136035368D01*
X194429255Y-136035368D01*
X194599522Y-135975789D01*
X194752262Y-135879816D01*
X194879816Y-135752262D01*
X194975789Y-135599522D01*
X195035368Y-135429255D01*
X195038177Y-135404324D01*
X195055565Y-135250003D01*
X195055565Y-135249996D01*
X195035369Y-135070750D01*
X195035368Y-135070745D01*
X195023307Y-135036276D01*
X194975789Y-134900478D01*
X194962491Y-134879315D01*
X194936582Y-134838080D01*
X194879816Y-134747738D01*
X194752262Y-134620184D01*
X194673587Y-134570749D01*
X194599521Y-134524210D01*
X194429249Y-134464630D01*
X194342332Y-134454837D01*
X194277918Y-134427770D01*
X194268535Y-134419298D01*
X194230523Y-134381286D01*
X194230520Y-134381284D01*
X194118717Y-134269481D01*
X194118709Y-134269475D01*
X194016936Y-134210717D01*
X194016934Y-134210716D01*
X193981790Y-134190425D01*
X193981789Y-134190424D01*
X193940087Y-134179250D01*
X193829057Y-134149499D01*
X193670943Y-134149499D01*
X193663347Y-134149499D01*
X193663331Y-134149500D01*
X191332412Y-134149500D01*
X191265373Y-134129815D01*
X191255097Y-134122445D01*
X191252263Y-134120185D01*
X191252262Y-134120184D01*
X191195496Y-134084515D01*
X191099523Y-134024211D01*
X190929254Y-133964631D01*
X190929249Y-133964630D01*
X190750004Y-133944435D01*
X190749996Y-133944435D01*
X190570750Y-133964630D01*
X190570745Y-133964631D01*
X190400476Y-134024211D01*
X190247737Y-134120184D01*
X190120184Y-134247737D01*
X190024211Y-134400476D01*
X189964631Y-134570745D01*
X189964630Y-134570749D01*
X189951533Y-134686992D01*
X189924466Y-134751406D01*
X189894285Y-134778102D01*
X189747737Y-134870184D01*
X189620184Y-134997737D01*
X189524211Y-135150476D01*
X189464631Y-135320745D01*
X189464630Y-135320750D01*
X189444435Y-135499996D01*
X185198034Y-135499996D01*
X184379563Y-134681525D01*
X184346078Y-134620202D01*
X184344026Y-134607746D01*
X184334231Y-134520805D01*
X184274652Y-134350538D01*
X184178679Y-134197798D01*
X184051125Y-134070244D01*
X183977864Y-134024211D01*
X183898386Y-133974271D01*
X183728117Y-133914691D01*
X183728112Y-133914690D01*
X183548867Y-133894495D01*
X183548859Y-133894495D01*
X183369613Y-133914690D01*
X183369608Y-133914691D01*
X183199339Y-133974271D01*
X183046600Y-134070244D01*
X182919047Y-134197797D01*
X182823074Y-134350536D01*
X182763494Y-134520805D01*
X182763493Y-134520810D01*
X182743298Y-134700056D01*
X182743298Y-134700063D01*
X182763493Y-134879309D01*
X182763494Y-134879314D01*
X182823074Y-135049583D01*
X182919047Y-135202322D01*
X182952884Y-135236159D01*
X182986369Y-135297482D01*
X182981385Y-135367174D01*
X182952884Y-135411521D01*
X182905773Y-135458631D01*
X182809800Y-135611370D01*
X182750220Y-135781639D01*
X182750219Y-135781644D01*
X182730024Y-135960890D01*
X182730024Y-135960897D01*
X182750219Y-136140143D01*
X182750220Y-136140148D01*
X182809800Y-136310417D01*
X182866390Y-136400478D01*
X182905773Y-136463156D01*
X183033327Y-136590710D01*
X183186067Y-136686683D01*
X183356334Y-136746262D01*
X183443258Y-136756055D01*
X183507669Y-136783120D01*
X183517053Y-136791593D01*
X187955979Y-141230520D01*
X187955981Y-141230521D01*
X187955985Y-141230524D01*
X188092904Y-141309573D01*
X188092911Y-141309577D01*
X188245638Y-141350501D01*
X188245640Y-141350501D01*
X188411349Y-141350501D01*
X188411365Y-141350500D01*
X189420943Y-141350500D01*
X204069903Y-141350500D01*
X204136942Y-141370185D01*
X204157584Y-141386819D01*
X205206333Y-142435568D01*
X205239818Y-142496891D01*
X205234834Y-142566583D01*
X205192962Y-142622516D01*
X205127498Y-142646933D01*
X205107844Y-142646777D01*
X205080001Y-142644341D01*
X205079999Y-142644341D01*
X204844596Y-142664936D01*
X204844586Y-142664938D01*
X204616344Y-142726094D01*
X204616335Y-142726098D01*
X204402171Y-142825964D01*
X204402169Y-142825965D01*
X204208597Y-142961505D01*
X204041505Y-143128597D01*
X203911575Y-143314158D01*
X203856998Y-143357783D01*
X203787500Y-143364977D01*
X203725145Y-143333454D01*
X203708425Y-143314158D01*
X203578494Y-143128597D01*
X203411402Y-142961506D01*
X203411395Y-142961501D01*
X203217834Y-142825967D01*
X203217830Y-142825965D01*
X203143512Y-142791310D01*
X203003663Y-142726097D01*
X203003659Y-142726096D01*
X203003655Y-142726094D01*
X202775413Y-142664938D01*
X202775403Y-142664936D01*
X202540001Y-142644341D01*
X202539999Y-142644341D01*
X202304596Y-142664936D01*
X202304586Y-142664938D01*
X202076344Y-142726094D01*
X202076335Y-142726098D01*
X201862171Y-142825964D01*
X201862169Y-142825965D01*
X201668597Y-142961505D01*
X201501505Y-143128597D01*
X201371575Y-143314158D01*
X201316998Y-143357783D01*
X201247500Y-143364977D01*
X201185145Y-143333454D01*
X201168425Y-143314158D01*
X201038494Y-143128597D01*
X200871402Y-142961506D01*
X200871395Y-142961501D01*
X200677834Y-142825967D01*
X200677830Y-142825965D01*
X200603512Y-142791310D01*
X200463663Y-142726097D01*
X200463659Y-142726096D01*
X200463655Y-142726094D01*
X200235413Y-142664938D01*
X200235403Y-142664936D01*
X200000001Y-142644341D01*
X199999999Y-142644341D01*
X199764596Y-142664936D01*
X199764586Y-142664938D01*
X199536344Y-142726094D01*
X199536335Y-142726098D01*
X199322171Y-142825964D01*
X199322169Y-142825965D01*
X199128597Y-142961505D01*
X198961508Y-143128594D01*
X198831269Y-143314595D01*
X198776692Y-143358219D01*
X198707193Y-143365412D01*
X198644839Y-143333890D01*
X198628119Y-143314594D01*
X198498113Y-143128926D01*
X198498108Y-143128920D01*
X198331082Y-142961894D01*
X198137578Y-142826399D01*
X197923492Y-142726570D01*
X197923486Y-142726567D01*
X197710000Y-142669364D01*
X197710000Y-143566988D01*
X197652993Y-143534075D01*
X197525826Y-143500000D01*
X197394174Y-143500000D01*
X197267007Y-143534075D01*
X197210000Y-143566988D01*
X197210000Y-142669364D01*
X197209999Y-142669364D01*
X196996513Y-142726567D01*
X196996507Y-142726570D01*
X196782422Y-142826399D01*
X196782420Y-142826400D01*
X196588926Y-142961886D01*
X196588920Y-142961891D01*
X196421891Y-143128920D01*
X196421890Y-143128922D01*
X196291880Y-143314595D01*
X196237303Y-143358219D01*
X196167804Y-143365412D01*
X196105450Y-143333890D01*
X196088730Y-143314594D01*
X195958494Y-143128597D01*
X195791402Y-142961506D01*
X195791395Y-142961501D01*
X195597834Y-142825967D01*
X195597830Y-142825965D01*
X195523512Y-142791310D01*
X195383663Y-142726097D01*
X195383659Y-142726096D01*
X195383655Y-142726094D01*
X195155413Y-142664938D01*
X195155403Y-142664936D01*
X194920001Y-142644341D01*
X194919999Y-142644341D01*
X194684596Y-142664936D01*
X194684586Y-142664938D01*
X194456344Y-142726094D01*
X194456335Y-142726098D01*
X194242171Y-142825964D01*
X194242169Y-142825965D01*
X194048597Y-142961505D01*
X193881505Y-143128597D01*
X193751575Y-143314158D01*
X193696998Y-143357783D01*
X193627500Y-143364977D01*
X193565145Y-143333454D01*
X193548425Y-143314158D01*
X193418494Y-143128597D01*
X193251402Y-142961506D01*
X193251395Y-142961501D01*
X193057834Y-142825967D01*
X193057830Y-142825965D01*
X192983512Y-142791310D01*
X192843663Y-142726097D01*
X192843659Y-142726096D01*
X192843655Y-142726094D01*
X192615413Y-142664938D01*
X192615403Y-142664936D01*
X192380001Y-142644341D01*
X192379999Y-142644341D01*
X192144596Y-142664936D01*
X192144586Y-142664938D01*
X191916344Y-142726094D01*
X191916335Y-142726098D01*
X191702171Y-142825964D01*
X191702169Y-142825965D01*
X191508597Y-142961505D01*
X191341505Y-143128597D01*
X191211575Y-143314158D01*
X191156998Y-143357783D01*
X191087500Y-143364977D01*
X191025145Y-143333454D01*
X191008425Y-143314158D01*
X190878494Y-143128597D01*
X190711402Y-142961506D01*
X190711395Y-142961501D01*
X190517834Y-142825967D01*
X190517830Y-142825965D01*
X190443512Y-142791310D01*
X190303663Y-142726097D01*
X190303659Y-142726096D01*
X190303655Y-142726094D01*
X190075413Y-142664938D01*
X190075403Y-142664936D01*
X189840001Y-142644341D01*
X189839999Y-142644341D01*
X189604596Y-142664936D01*
X189604586Y-142664938D01*
X189376344Y-142726094D01*
X189376335Y-142726098D01*
X189162171Y-142825964D01*
X189162169Y-142825965D01*
X188968597Y-142961505D01*
X188801505Y-143128597D01*
X188671575Y-143314158D01*
X188616998Y-143357783D01*
X188547500Y-143364977D01*
X188485145Y-143333454D01*
X188468425Y-143314158D01*
X188338494Y-143128597D01*
X188171402Y-142961506D01*
X188171395Y-142961501D01*
X187977834Y-142825967D01*
X187977830Y-142825965D01*
X187903512Y-142791310D01*
X187763663Y-142726097D01*
X187763659Y-142726096D01*
X187763655Y-142726094D01*
X187535413Y-142664938D01*
X187535403Y-142664936D01*
X187300001Y-142644341D01*
X187299999Y-142644341D01*
X187064596Y-142664936D01*
X187064586Y-142664938D01*
X186836344Y-142726094D01*
X186836335Y-142726098D01*
X186622171Y-142825964D01*
X186622169Y-142825965D01*
X186428597Y-142961505D01*
X186261508Y-143128594D01*
X186131269Y-143314595D01*
X186076692Y-143358219D01*
X186007193Y-143365412D01*
X185944839Y-143333890D01*
X185928119Y-143314594D01*
X185798113Y-143128926D01*
X185798108Y-143128920D01*
X185631082Y-142961894D01*
X185437578Y-142826399D01*
X185223492Y-142726570D01*
X185223486Y-142726567D01*
X185010000Y-142669364D01*
X185010000Y-143566988D01*
X184952993Y-143534075D01*
X184825826Y-143500000D01*
X184694174Y-143500000D01*
X184567007Y-143534075D01*
X184510000Y-143566988D01*
X184510000Y-142669364D01*
X184509999Y-142669364D01*
X184296513Y-142726567D01*
X184296507Y-142726570D01*
X184082422Y-142826399D01*
X184082420Y-142826400D01*
X183888926Y-142961886D01*
X183888920Y-142961891D01*
X183721891Y-143128920D01*
X183721886Y-143128926D01*
X183586400Y-143322420D01*
X183586399Y-143322422D01*
X183486570Y-143536507D01*
X183486567Y-143536513D01*
X183429364Y-143749999D01*
X183429364Y-143750000D01*
X184326988Y-143750000D01*
X184294075Y-143807007D01*
X184260000Y-143934174D01*
X184260000Y-144065826D01*
X184294075Y-144192993D01*
X184326988Y-144250000D01*
X183429364Y-144250000D01*
X183486567Y-144463486D01*
X183486570Y-144463492D01*
X183586399Y-144677578D01*
X183721894Y-144871082D01*
X183888917Y-145038105D01*
X184075031Y-145168425D01*
X184118656Y-145223003D01*
X184125848Y-145292501D01*
X184094326Y-145354856D01*
X184075031Y-145371575D01*
X183888922Y-145501890D01*
X183888920Y-145501891D01*
X183721891Y-145668920D01*
X183721886Y-145668926D01*
X183586400Y-145862420D01*
X183586399Y-145862422D01*
X183486570Y-146076507D01*
X183486567Y-146076513D01*
X183429364Y-146289999D01*
X183429364Y-146290000D01*
X184326988Y-146290000D01*
X184294075Y-146347007D01*
X184260000Y-146474174D01*
X184260000Y-146605826D01*
X184294075Y-146732993D01*
X184326988Y-146790000D01*
X183429364Y-146790000D01*
X183486567Y-147003486D01*
X183486570Y-147003492D01*
X183586400Y-147217578D01*
X183612166Y-147254376D01*
X183634493Y-147320583D01*
X183617483Y-147388350D01*
X183566535Y-147436163D01*
X183510591Y-147449500D01*
X182382940Y-147449500D01*
X182315901Y-147429815D01*
X182295259Y-147413181D01*
X182086819Y-147204741D01*
X182053334Y-147143418D01*
X182050500Y-147117060D01*
X182050500Y-141801914D01*
X182051280Y-141788029D01*
X182055565Y-141750001D01*
X182055565Y-141749998D01*
X182051280Y-141711969D01*
X182050500Y-141698085D01*
X182050500Y-141671157D01*
X182042711Y-141632003D01*
X182041110Y-141621714D01*
X182035368Y-141570745D01*
X182027023Y-141546898D01*
X182022449Y-141530139D01*
X182019737Y-141516503D01*
X182019734Y-141516496D01*
X182011253Y-141496021D01*
X181999484Y-141467607D01*
X181997028Y-141461175D01*
X181975789Y-141400478D01*
X181969289Y-141390134D01*
X181959719Y-141371606D01*
X181959394Y-141370821D01*
X181922790Y-141316040D01*
X181920905Y-141313131D01*
X181918671Y-141309576D01*
X181879816Y-141247738D01*
X181752262Y-141120184D01*
X181752260Y-141120182D01*
X181752257Y-141120180D01*
X181686900Y-141079114D01*
X181683982Y-141077223D01*
X181629179Y-141040605D01*
X181629173Y-141040603D01*
X181628365Y-141040268D01*
X181609865Y-141030709D01*
X181599524Y-141024212D01*
X181599523Y-141024211D01*
X181599522Y-141024211D01*
X181538867Y-141002986D01*
X181532377Y-141000509D01*
X181483496Y-140980262D01*
X181469860Y-140977550D01*
X181453104Y-140972976D01*
X181429260Y-140964633D01*
X181429256Y-140964632D01*
X181429255Y-140964632D01*
X181408575Y-140962301D01*
X181378303Y-140958890D01*
X181368003Y-140957288D01*
X181328844Y-140949500D01*
X181328842Y-140949500D01*
X181301915Y-140949500D01*
X181288031Y-140948720D01*
X181250002Y-140944435D01*
X181249998Y-140944435D01*
X181211969Y-140948720D01*
X181198085Y-140949500D01*
X181171152Y-140949500D01*
X181131994Y-140957288D01*
X181121696Y-140958890D01*
X181070742Y-140964632D01*
X181070735Y-140964634D01*
X181046898Y-140972975D01*
X181030140Y-140977550D01*
X181016502Y-140980263D01*
X181016496Y-140980264D01*
X180967631Y-141000504D01*
X180961140Y-141002982D01*
X180900477Y-141024210D01*
X180900474Y-141024212D01*
X180890127Y-141030713D01*
X180871639Y-141040266D01*
X180870832Y-141040600D01*
X180870824Y-141040604D01*
X180816047Y-141077204D01*
X180813132Y-141079092D01*
X180747742Y-141120180D01*
X180747735Y-141120186D01*
X180620186Y-141247735D01*
X180620180Y-141247742D01*
X180579092Y-141313132D01*
X180577204Y-141316047D01*
X180540604Y-141370824D01*
X180540600Y-141370832D01*
X180540266Y-141371639D01*
X180530713Y-141390127D01*
X180524212Y-141400474D01*
X180524210Y-141400477D01*
X180502982Y-141461140D01*
X180500504Y-141467631D01*
X180480264Y-141516496D01*
X180480263Y-141516502D01*
X180477550Y-141530140D01*
X180472975Y-141546898D01*
X180464634Y-141570735D01*
X180464632Y-141570742D01*
X180458890Y-141621696D01*
X180457288Y-141631994D01*
X180449500Y-141671152D01*
X180449500Y-141698085D01*
X180448720Y-141711969D01*
X180444435Y-141749998D01*
X180444435Y-141750001D01*
X180448720Y-141788029D01*
X180449500Y-141801914D01*
X180449500Y-147325500D01*
X180429815Y-147392539D01*
X180377011Y-147438294D01*
X180325500Y-147449500D01*
X170132940Y-147449500D01*
X170065901Y-147429815D01*
X170045259Y-147413181D01*
X169828337Y-147196259D01*
X169794852Y-147134936D01*
X169799836Y-147065244D01*
X169828337Y-147020897D01*
X171202787Y-145646447D01*
X172608506Y-144240728D01*
X172608511Y-144240724D01*
X172618714Y-144230520D01*
X172618716Y-144230520D01*
X172730520Y-144118716D01*
X172809577Y-143981784D01*
X172850500Y-143829057D01*
X172850500Y-143582412D01*
X172870185Y-143515373D01*
X172877555Y-143505097D01*
X172879810Y-143502267D01*
X172879816Y-143502262D01*
X172975789Y-143349522D01*
X173035368Y-143179255D01*
X173041039Y-143128922D01*
X173055565Y-143000003D01*
X173055565Y-142999996D01*
X173035369Y-142820750D01*
X173035368Y-142820745D01*
X173002414Y-142726567D01*
X172975789Y-142650478D01*
X172879816Y-142497738D01*
X172752262Y-142370184D01*
X172664786Y-142315219D01*
X172599523Y-142274211D01*
X172429254Y-142214631D01*
X172429249Y-142214630D01*
X172250004Y-142194435D01*
X172249996Y-142194435D01*
X172070750Y-142214630D01*
X172070745Y-142214631D01*
X171900476Y-142274211D01*
X171747737Y-142370184D01*
X171620184Y-142497737D01*
X171524211Y-142650476D01*
X171464631Y-142820745D01*
X171464630Y-142820750D01*
X171444435Y-142999996D01*
X171444435Y-143000003D01*
X171464630Y-143179249D01*
X171464631Y-143179254D01*
X171524211Y-143349523D01*
X171578500Y-143435923D01*
X171597500Y-143503160D01*
X171577132Y-143569995D01*
X171561187Y-143589576D01*
X168735338Y-146415426D01*
X168674015Y-146448911D01*
X168671844Y-146449363D01*
X168631995Y-146457288D01*
X168621696Y-146458890D01*
X168570742Y-146464632D01*
X168570735Y-146464634D01*
X168546898Y-146472975D01*
X168530140Y-146477550D01*
X168516502Y-146480263D01*
X168516496Y-146480264D01*
X168467631Y-146500504D01*
X168461140Y-146502982D01*
X168400477Y-146524210D01*
X168400474Y-146524212D01*
X168390127Y-146530713D01*
X168371639Y-146540266D01*
X168370832Y-146540600D01*
X168370824Y-146540604D01*
X168316047Y-146577204D01*
X168313132Y-146579092D01*
X168247742Y-146620180D01*
X168247735Y-146620186D01*
X168120186Y-146747735D01*
X168120180Y-146747742D01*
X168079092Y-146813132D01*
X168077209Y-146816038D01*
X168040606Y-146870821D01*
X168040604Y-146870824D01*
X168040600Y-146870832D01*
X168040266Y-146871639D01*
X168030713Y-146890127D01*
X168024212Y-146900474D01*
X168024210Y-146900477D01*
X168002982Y-146961140D01*
X168000504Y-146967631D01*
X167980264Y-147016496D01*
X167980263Y-147016502D01*
X167977550Y-147030140D01*
X167972975Y-147046898D01*
X167964634Y-147070735D01*
X167964632Y-147070742D01*
X167958890Y-147121696D01*
X167957288Y-147131994D01*
X167949500Y-147171152D01*
X167949500Y-147198085D01*
X167948720Y-147211969D01*
X167944435Y-147249998D01*
X165780337Y-147249998D01*
X165849522Y-147225789D01*
X166002262Y-147129816D01*
X166129816Y-147002262D01*
X166225789Y-146849522D01*
X166285368Y-146679255D01*
X166285369Y-146679249D01*
X166305565Y-146500003D01*
X166305565Y-146499996D01*
X166285369Y-146320750D01*
X166285368Y-146320745D01*
X166274610Y-146290000D01*
X166225789Y-146150478D01*
X166129816Y-145997738D01*
X166002262Y-145870184D01*
X165976757Y-145854158D01*
X165849521Y-145774210D01*
X165679249Y-145714630D01*
X165592330Y-145704837D01*
X165527916Y-145677770D01*
X165518533Y-145669298D01*
X164636819Y-144787584D01*
X164603334Y-144726261D01*
X164600500Y-144699903D01*
X164600500Y-139582412D01*
X164620185Y-139515373D01*
X164627555Y-139505097D01*
X164629810Y-139502267D01*
X164629816Y-139502262D01*
X164725789Y-139349522D01*
X164785368Y-139179255D01*
X164795162Y-139092330D01*
X164805565Y-139000003D01*
X164805565Y-138999996D01*
X164785369Y-138820750D01*
X164785368Y-138820745D01*
X164725788Y-138650475D01*
X164656668Y-138540473D01*
X164637667Y-138473236D01*
X164658034Y-138406401D01*
X164711302Y-138361186D01*
X164761661Y-138350500D01*
X168199903Y-138350500D01*
X168266942Y-138370185D01*
X168287584Y-138386819D01*
X168919298Y-139018533D01*
X168952783Y-139079856D01*
X168954837Y-139092330D01*
X168964630Y-139179249D01*
X169024210Y-139349521D01*
X169120184Y-139502262D01*
X169247738Y-139629816D01*
X169279065Y-139649500D01*
X169390244Y-139719359D01*
X169400478Y-139725789D01*
X169525337Y-139769479D01*
X169570745Y-139785368D01*
X169570750Y-139785369D01*
X169749996Y-139805565D01*
X169750000Y-139805565D01*
X169750004Y-139805565D01*
X169929249Y-139785369D01*
X169929252Y-139785368D01*
X169929255Y-139785368D01*
X170099522Y-139725789D01*
X170252262Y-139629816D01*
X170379816Y-139502262D01*
X170475789Y-139349522D01*
X170535368Y-139179255D01*
X170545162Y-139092330D01*
X170555565Y-139000003D01*
X170555565Y-138999996D01*
X170535369Y-138820750D01*
X170535368Y-138820745D01*
X170475788Y-138650476D01*
X170396173Y-138523770D01*
X170379816Y-138497738D01*
X170252262Y-138370184D01*
X170219379Y-138349522D01*
X170099521Y-138274210D01*
X169929249Y-138214630D01*
X169842330Y-138204837D01*
X169777916Y-138177770D01*
X169768533Y-138169298D01*
X168987590Y-137388355D01*
X168987588Y-137388352D01*
X168911417Y-137312181D01*
X168877932Y-137250858D01*
X168882916Y-137181166D01*
X168924788Y-137125233D01*
X168990252Y-137100816D01*
X168999098Y-137100500D01*
X177746524Y-137100500D01*
X177813563Y-137120185D01*
X177859318Y-137172989D01*
X177869262Y-137242147D01*
X177840237Y-137305703D01*
X177812496Y-137329494D01*
X177747737Y-137370184D01*
X177620184Y-137497737D01*
X177524211Y-137650476D01*
X177464631Y-137820745D01*
X177464630Y-137820750D01*
X177444435Y-137999996D01*
X177444435Y-138000003D01*
X177464630Y-138179249D01*
X177464631Y-138179254D01*
X177524211Y-138349523D01*
X177617341Y-138497737D01*
X177620184Y-138502262D01*
X177747738Y-138629816D01*
X177900478Y-138725789D01*
X178070745Y-138785368D01*
X178070750Y-138785369D01*
X178249996Y-138805565D01*
X178250000Y-138805565D01*
X178250004Y-138805565D01*
X178429249Y-138785369D01*
X178429252Y-138785368D01*
X178429255Y-138785368D01*
X178599522Y-138725789D01*
X178752262Y-138629816D01*
X178752267Y-138629810D01*
X178755097Y-138627555D01*
X178757275Y-138626665D01*
X178758158Y-138626111D01*
X178758255Y-138626265D01*
X178819783Y-138601145D01*
X178832412Y-138600500D01*
X179913331Y-138600500D01*
X179913347Y-138600501D01*
X179920943Y-138600501D01*
X180079054Y-138600501D01*
X180079057Y-138600501D01*
X180231785Y-138559577D01*
X180281904Y-138530639D01*
X180368716Y-138480520D01*
X180480520Y-138368716D01*
X180480520Y-138368714D01*
X180490728Y-138358507D01*
X180490730Y-138358504D01*
X181018535Y-137830698D01*
X181079856Y-137797215D01*
X181092311Y-137795163D01*
X181179255Y-137785368D01*
X181349522Y-137725789D01*
X181502262Y-137629816D01*
X181629816Y-137502262D01*
X181725789Y-137349522D01*
X181785368Y-137179255D01*
X181786309Y-137170905D01*
X181805565Y-137000003D01*
X181805565Y-136999996D01*
X181785369Y-136820750D01*
X181785368Y-136820745D01*
X181759305Y-136746261D01*
X181725789Y-136650478D01*
X181629816Y-136497738D01*
X181502262Y-136370184D01*
X181470934Y-136350499D01*
X181349523Y-136274211D01*
X181179254Y-136214631D01*
X181179250Y-136214630D01*
X181060616Y-136201264D01*
X180996202Y-136174197D01*
X180956647Y-136116603D01*
X180950500Y-136078044D01*
X180950500Y-134590530D01*
X180950501Y-134590517D01*
X180950501Y-134422416D01*
X180950501Y-134422414D01*
X180909577Y-134269686D01*
X180868072Y-134197798D01*
X180830520Y-134132755D01*
X180718716Y-134020951D01*
X180718715Y-134020950D01*
X180714385Y-134016620D01*
X180714374Y-134016610D01*
X179686119Y-132988355D01*
X179686117Y-132988352D01*
X179567246Y-132869481D01*
X179567245Y-132869480D01*
X179480433Y-132819360D01*
X179480433Y-132819359D01*
X179480429Y-132819358D01*
X179430314Y-132790423D01*
X179277586Y-132749499D01*
X179119472Y-132749499D01*
X179111876Y-132749499D01*
X179111860Y-132749500D01*
X164916321Y-132749500D01*
X164849282Y-132729815D01*
X164803527Y-132677011D01*
X164793101Y-132639386D01*
X164785368Y-132570745D01*
X164725789Y-132400478D01*
X164629816Y-132247738D01*
X164502262Y-132120184D01*
X164349523Y-132024211D01*
X164179254Y-131964631D01*
X164179249Y-131964630D01*
X164000004Y-131944435D01*
X163999996Y-131944435D01*
X163820750Y-131964630D01*
X163820745Y-131964631D01*
X163650476Y-132024211D01*
X163497737Y-132120184D01*
X163370184Y-132247737D01*
X163274211Y-132400476D01*
X163214631Y-132570745D01*
X163214630Y-132570750D01*
X163194435Y-132749996D01*
X163194435Y-132750003D01*
X163214630Y-132929249D01*
X163214631Y-132929254D01*
X163274211Y-133099523D01*
X163370184Y-133252262D01*
X163497738Y-133379816D01*
X163650478Y-133475789D01*
X163820745Y-133535368D01*
X163907669Y-133545161D01*
X163972080Y-133572226D01*
X163981465Y-133580700D01*
X164115139Y-133714374D01*
X164115149Y-133714385D01*
X164119479Y-133718715D01*
X164119480Y-133718716D01*
X164231284Y-133830520D01*
X164318095Y-133880639D01*
X164318097Y-133880641D01*
X164342093Y-133894495D01*
X164368215Y-133909577D01*
X164520943Y-133950500D01*
X164679057Y-133950500D01*
X168328044Y-133950500D01*
X168395083Y-133970185D01*
X168440838Y-134022989D01*
X168451264Y-134060616D01*
X168464630Y-134179250D01*
X168464633Y-134179262D01*
X168524209Y-134349520D01*
X168577309Y-134434029D01*
X168596309Y-134501266D01*
X168577309Y-134565971D01*
X168524209Y-134650479D01*
X168464633Y-134820737D01*
X168464630Y-134820750D01*
X168444435Y-134999996D01*
X168444435Y-135000003D01*
X168464630Y-135179249D01*
X168464632Y-135179257D01*
X168518970Y-135334546D01*
X168522531Y-135404324D01*
X168487802Y-135464952D01*
X168425809Y-135497179D01*
X168401928Y-135499500D01*
X165150097Y-135499500D01*
X165083058Y-135479815D01*
X165062416Y-135463181D01*
X164580700Y-134981465D01*
X164547215Y-134920142D01*
X164545163Y-134907686D01*
X164535368Y-134820745D01*
X164475789Y-134650478D01*
X164379816Y-134497738D01*
X164252262Y-134370184D01*
X164220996Y-134350538D01*
X164099523Y-134274211D01*
X163929254Y-134214631D01*
X163929249Y-134214630D01*
X163750004Y-134194435D01*
X163749996Y-134194435D01*
X163570750Y-134214630D01*
X163570745Y-134214631D01*
X163400476Y-134274211D01*
X163247737Y-134370184D01*
X163120184Y-134497737D01*
X163024211Y-134650476D01*
X162964631Y-134820745D01*
X162964630Y-134820750D01*
X162944435Y-134999996D01*
X150500500Y-134999996D01*
X150500500Y-90624000D01*
X150520185Y-90556961D01*
X150572989Y-90511206D01*
X150624500Y-90500000D01*
X166626000Y-90500000D01*
X166693039Y-90519685D01*
X166738794Y-90572489D01*
X166750000Y-90624000D01*
X166750000Y-94916958D01*
X166730315Y-94983997D01*
X166677511Y-95029752D01*
X166673213Y-95031618D01*
X162500002Y-96749999D01*
X162499998Y-96750001D01*
X159250000Y-99999999D01*
X159250000Y-100000000D01*
X159250000Y-121000000D01*
X162250000Y-124500000D01*
X162250001Y-124500000D01*
X179000000Y-124500000D01*
X179000001Y-124500000D01*
X179000000Y-124499999D01*
X179750000Y-123250000D01*
X179750000Y-92796592D01*
X179769685Y-92729553D01*
X179780680Y-92714937D01*
X179837084Y-92650476D01*
X181462948Y-90792344D01*
X181521908Y-90754855D01*
X181556268Y-90750000D01*
X191126000Y-90750000D01*
X191193039Y-90769685D01*
X191238794Y-90822489D01*
X191250000Y-90874000D01*
X191250000Y-93683637D01*
X191230315Y-93750676D01*
X191194783Y-93786811D01*
X189776612Y-94732258D01*
X189718127Y-94752656D01*
X187944288Y-94900476D01*
X186750000Y-95000000D01*
X184750000Y-96000000D01*
X184749999Y-96000000D01*
X184749997Y-96000002D01*
X182750000Y-98749998D01*
X182750000Y-121250000D01*
X184749999Y-124749999D01*
X184750000Y-124750000D01*
X197500000Y-124750000D01*
X197500001Y-124750000D01*
X200200000Y-123250000D01*
X202000000Y-122250000D01*
X202000000Y-85749996D01*
X202944435Y-85749996D01*
X202944435Y-85750003D01*
X202964630Y-85929249D01*
X202964631Y-85929254D01*
X203024211Y-86099523D01*
X203120184Y-86252262D01*
X203247740Y-86379818D01*
X203341471Y-86438712D01*
X203387763Y-86491046D01*
X203399500Y-86543706D01*
X203399500Y-100163330D01*
X203399499Y-100163348D01*
X203399499Y-100329054D01*
X203399498Y-100329054D01*
X203435768Y-100464413D01*
X203440423Y-100481785D01*
X203452246Y-100502262D01*
X203473273Y-100538682D01*
X203519479Y-100618715D01*
X203638349Y-100737585D01*
X203638355Y-100737590D01*
X205169298Y-102268533D01*
X205202783Y-102329856D01*
X205204837Y-102342330D01*
X205214630Y-102429249D01*
X205274210Y-102599521D01*
X205333849Y-102694435D01*
X205370184Y-102752262D01*
X205497738Y-102879816D01*
X205650478Y-102975789D01*
X205713205Y-102997738D01*
X205820745Y-103035368D01*
X205820750Y-103035369D01*
X205999996Y-103055565D01*
X206000000Y-103055565D01*
X206000004Y-103055565D01*
X206179249Y-103035369D01*
X206179252Y-103035368D01*
X206179255Y-103035368D01*
X206349522Y-102975789D01*
X206502262Y-102879816D01*
X206629816Y-102752262D01*
X206725789Y-102599522D01*
X206785368Y-102429255D01*
X206785486Y-102428211D01*
X206805565Y-102250003D01*
X206805565Y-102249996D01*
X206785369Y-102070750D01*
X206785368Y-102070745D01*
X206776343Y-102044953D01*
X206725789Y-101900478D01*
X206705833Y-101868719D01*
X206637702Y-101760289D01*
X206629816Y-101747738D01*
X206502262Y-101620184D01*
X206378965Y-101542711D01*
X206349521Y-101524210D01*
X206179249Y-101464630D01*
X206092330Y-101454837D01*
X206027916Y-101427770D01*
X206018533Y-101419298D01*
X204636819Y-100037584D01*
X204603334Y-99976261D01*
X204600500Y-99949903D01*
X204600500Y-96499998D01*
X207194435Y-96499998D01*
X207194435Y-96500001D01*
X207198720Y-96538029D01*
X207199500Y-96551914D01*
X207199500Y-96578844D01*
X207207288Y-96618003D01*
X207208890Y-96628303D01*
X207214632Y-96679252D01*
X207214633Y-96679260D01*
X207222976Y-96703104D01*
X207227550Y-96719860D01*
X207230262Y-96733496D01*
X207250509Y-96782377D01*
X207252988Y-96788872D01*
X207274212Y-96849524D01*
X207280709Y-96859865D01*
X207290268Y-96878365D01*
X207290603Y-96879173D01*
X207290605Y-96879179D01*
X207327223Y-96933982D01*
X207329114Y-96936900D01*
X207370180Y-97002257D01*
X207370182Y-97002260D01*
X209663181Y-99295259D01*
X209696666Y-99356582D01*
X209699500Y-99382940D01*
X209699500Y-100698085D01*
X209698720Y-100711969D01*
X209694435Y-100749998D01*
X209694435Y-100750001D01*
X209698720Y-100788029D01*
X209699500Y-100801914D01*
X209699500Y-100828844D01*
X209707288Y-100868003D01*
X209708890Y-100878303D01*
X209714632Y-100929252D01*
X209714633Y-100929260D01*
X209722976Y-100953104D01*
X209727550Y-100969860D01*
X209730262Y-100983496D01*
X209750509Y-101032377D01*
X209752988Y-101038872D01*
X209774212Y-101099524D01*
X209780709Y-101109865D01*
X209790268Y-101128365D01*
X209790603Y-101129173D01*
X209790605Y-101129179D01*
X209827223Y-101183982D01*
X209829114Y-101186900D01*
X209870180Y-101252257D01*
X209870182Y-101252260D01*
X209870184Y-101252262D01*
X209997738Y-101379816D01*
X210060573Y-101419298D01*
X210063131Y-101420905D01*
X210066040Y-101422790D01*
X210120821Y-101459394D01*
X210121606Y-101459719D01*
X210140134Y-101469289D01*
X210150478Y-101475789D01*
X210211175Y-101497028D01*
X210217607Y-101499484D01*
X210246021Y-101511253D01*
X210266497Y-101519735D01*
X210266498Y-101519735D01*
X210266503Y-101519737D01*
X210280139Y-101522449D01*
X210296898Y-101527023D01*
X210320745Y-101535368D01*
X210371714Y-101541110D01*
X210381992Y-101542709D01*
X210409140Y-101548109D01*
X210421157Y-101550500D01*
X210421158Y-101550500D01*
X210448085Y-101550500D01*
X210461969Y-101551280D01*
X210499998Y-101555565D01*
X210500000Y-101555565D01*
X210500002Y-101555565D01*
X210538031Y-101551280D01*
X210551915Y-101550500D01*
X210578841Y-101550500D01*
X210578842Y-101550500D01*
X210618017Y-101542707D01*
X210628283Y-101541110D01*
X210679255Y-101535368D01*
X210703100Y-101527023D01*
X210719862Y-101522448D01*
X210733497Y-101519737D01*
X210782389Y-101499484D01*
X210788837Y-101497023D01*
X210849522Y-101475789D01*
X210859868Y-101469287D01*
X210878390Y-101459720D01*
X210879179Y-101459394D01*
X210933987Y-101422771D01*
X210936825Y-101420931D01*
X211002262Y-101379816D01*
X211129816Y-101252262D01*
X211170931Y-101186825D01*
X211172777Y-101183979D01*
X211209389Y-101129186D01*
X211209394Y-101129179D01*
X211209720Y-101128390D01*
X211219287Y-101109868D01*
X211225789Y-101099522D01*
X211247023Y-101038837D01*
X211249490Y-101032377D01*
X211269737Y-100983497D01*
X211272449Y-100969860D01*
X211277023Y-100953100D01*
X211285368Y-100929255D01*
X211291110Y-100878283D01*
X211292707Y-100868017D01*
X211300500Y-100828842D01*
X211300500Y-100801914D01*
X211301280Y-100788029D01*
X211305565Y-100750001D01*
X211305565Y-100749997D01*
X211301280Y-100711969D01*
X211300500Y-100698085D01*
X211300500Y-98921155D01*
X211300499Y-98921153D01*
X211269737Y-98766503D01*
X211263838Y-98752262D01*
X211209397Y-98620827D01*
X211209390Y-98620814D01*
X211121790Y-98489712D01*
X211093395Y-98461317D01*
X211010289Y-98378211D01*
X210059990Y-97427912D01*
X210026505Y-97366589D01*
X210031489Y-97296897D01*
X210073361Y-97240964D01*
X210093875Y-97228508D01*
X210099514Y-97225791D01*
X210099522Y-97225789D01*
X210252262Y-97129816D01*
X210379816Y-97002262D01*
X210438713Y-96908528D01*
X210491048Y-96862237D01*
X210543707Y-96850500D01*
X211163331Y-96850500D01*
X211163347Y-96850501D01*
X211170943Y-96850501D01*
X211329054Y-96850501D01*
X211329057Y-96850501D01*
X211481785Y-96809577D01*
X211531904Y-96780639D01*
X211618716Y-96730520D01*
X211730520Y-96618716D01*
X211730520Y-96618714D01*
X211740728Y-96608507D01*
X211740729Y-96608504D01*
X213018536Y-95330698D01*
X213079857Y-95297215D01*
X213092310Y-95295163D01*
X213179255Y-95285368D01*
X213280342Y-95249996D01*
X223194435Y-95249996D01*
X223194435Y-95250003D01*
X223214630Y-95429249D01*
X223214631Y-95429254D01*
X223274211Y-95599523D01*
X223346538Y-95714630D01*
X223370184Y-95752262D01*
X223497738Y-95879816D01*
X223650478Y-95975789D01*
X223719675Y-96000002D01*
X223820745Y-96035368D01*
X223820750Y-96035369D01*
X223999996Y-96055565D01*
X224000000Y-96055565D01*
X224000004Y-96055565D01*
X224179249Y-96035369D01*
X224179252Y-96035368D01*
X224179255Y-96035368D01*
X224349522Y-95975789D01*
X224502262Y-95879816D01*
X224629816Y-95752262D01*
X224725789Y-95599522D01*
X224783867Y-95433545D01*
X224824589Y-95376769D01*
X224889542Y-95351022D01*
X224900909Y-95350500D01*
X233413331Y-95350500D01*
X233413347Y-95350501D01*
X233420943Y-95350501D01*
X233579053Y-95350501D01*
X233579057Y-95350501D01*
X233731785Y-95309577D01*
X233731790Y-95309573D01*
X233735428Y-95308599D01*
X233753631Y-95305155D01*
X233876843Y-95291273D01*
X233929249Y-95285369D01*
X233929252Y-95285368D01*
X233929255Y-95285368D01*
X234099522Y-95225789D01*
X234252262Y-95129816D01*
X234379816Y-95002262D01*
X234475789Y-94849522D01*
X234535368Y-94679255D01*
X234535369Y-94679249D01*
X234555565Y-94500003D01*
X234555565Y-94499996D01*
X234535369Y-94320750D01*
X234535368Y-94320745D01*
X234493190Y-94200207D01*
X234475789Y-94150478D01*
X234475174Y-94149500D01*
X234421843Y-94064623D01*
X234379816Y-93997738D01*
X234252262Y-93870184D01*
X234219379Y-93849522D01*
X234099523Y-93774211D01*
X233922682Y-93712332D01*
X233923622Y-93709644D01*
X233873814Y-93681754D01*
X233840985Y-93620077D01*
X233846713Y-93550442D01*
X233874745Y-93507332D01*
X233879816Y-93502262D01*
X233975789Y-93349522D01*
X234035368Y-93179255D01*
X234035369Y-93179249D01*
X234055565Y-93000003D01*
X234055565Y-92999996D01*
X234035369Y-92820750D01*
X234035368Y-92820745D01*
X234019085Y-92774210D01*
X233975789Y-92650478D01*
X233879816Y-92497738D01*
X233752262Y-92370184D01*
X233599523Y-92274211D01*
X233429254Y-92214631D01*
X233429249Y-92214630D01*
X233250004Y-92194435D01*
X233249996Y-92194435D01*
X233070750Y-92214630D01*
X233070745Y-92214631D01*
X232900476Y-92274211D01*
X232747736Y-92370185D01*
X232744903Y-92372445D01*
X232742724Y-92373334D01*
X232741842Y-92373889D01*
X232741744Y-92373734D01*
X232680217Y-92398855D01*
X232667588Y-92399500D01*
X224836670Y-92399500D01*
X224836654Y-92399499D01*
X224829058Y-92399499D01*
X224670943Y-92399499D01*
X224594579Y-92419961D01*
X224518214Y-92440423D01*
X224518209Y-92440426D01*
X224381290Y-92519475D01*
X224381286Y-92519478D01*
X224231465Y-92669299D01*
X224170142Y-92702783D01*
X224157668Y-92704837D01*
X224070750Y-92714630D01*
X223900478Y-92774210D01*
X223747737Y-92870184D01*
X223620184Y-92997737D01*
X223524211Y-93150476D01*
X223464631Y-93320745D01*
X223464630Y-93320750D01*
X223444435Y-93499996D01*
X223444435Y-93500003D01*
X223464630Y-93679249D01*
X223464631Y-93679254D01*
X223524211Y-93849523D01*
X223593332Y-93959527D01*
X223620184Y-94002262D01*
X223747738Y-94129816D01*
X223788902Y-94155681D01*
X223906374Y-94229494D01*
X223905558Y-94230791D01*
X223951354Y-94272138D01*
X223969667Y-94339565D01*
X223948619Y-94406189D01*
X223894893Y-94450858D01*
X223859577Y-94460256D01*
X223820750Y-94464630D01*
X223650478Y-94524210D01*
X223497737Y-94620184D01*
X223370184Y-94747737D01*
X223274211Y-94900476D01*
X223214631Y-95070745D01*
X223214630Y-95070750D01*
X223194435Y-95249996D01*
X213280342Y-95249996D01*
X213349522Y-95225789D01*
X213502262Y-95129816D01*
X213629816Y-95002262D01*
X213725789Y-94849522D01*
X213785368Y-94679255D01*
X213785369Y-94679249D01*
X213805565Y-94500003D01*
X213805565Y-94499996D01*
X213785369Y-94320750D01*
X213785368Y-94320745D01*
X213743190Y-94200207D01*
X213725789Y-94150478D01*
X213725174Y-94149500D01*
X213671843Y-94064623D01*
X213629816Y-93997738D01*
X213502262Y-93870184D01*
X213469379Y-93849522D01*
X213349523Y-93774211D01*
X213179254Y-93714631D01*
X213179249Y-93714630D01*
X213000004Y-93694435D01*
X212999996Y-93694435D01*
X212820750Y-93714630D01*
X212820745Y-93714631D01*
X212650476Y-93774211D01*
X212497737Y-93870184D01*
X212370184Y-93997737D01*
X212274210Y-94150478D01*
X212214630Y-94320750D01*
X212204837Y-94407667D01*
X212177770Y-94472081D01*
X212169298Y-94481464D01*
X211037584Y-95613181D01*
X210976261Y-95646666D01*
X210949903Y-95649500D01*
X209920940Y-95649500D01*
X209880019Y-95660464D01*
X209880019Y-95660465D01*
X209768216Y-95690423D01*
X209764574Y-95691399D01*
X209746364Y-95694844D01*
X209570749Y-95714630D01*
X209570745Y-95714631D01*
X209400476Y-95774211D01*
X209247737Y-95870184D01*
X209120184Y-95997737D01*
X209024205Y-96150485D01*
X209021485Y-96156135D01*
X208974660Y-96207993D01*
X208907232Y-96226302D01*
X208840609Y-96205251D01*
X208822087Y-96190009D01*
X208502260Y-95870182D01*
X208502257Y-95870180D01*
X208436900Y-95829114D01*
X208433982Y-95827223D01*
X208379179Y-95790605D01*
X208379173Y-95790603D01*
X208378365Y-95790268D01*
X208359865Y-95780709D01*
X208349524Y-95774212D01*
X208349523Y-95774211D01*
X208349522Y-95774211D01*
X208288867Y-95752986D01*
X208282377Y-95750509D01*
X208233496Y-95730262D01*
X208219860Y-95727550D01*
X208203104Y-95722976D01*
X208179260Y-95714633D01*
X208179256Y-95714632D01*
X208179255Y-95714632D01*
X208158575Y-95712301D01*
X208128303Y-95708890D01*
X208118003Y-95707288D01*
X208078844Y-95699500D01*
X208078842Y-95699500D01*
X208051915Y-95699500D01*
X208038031Y-95698720D01*
X208000002Y-95694435D01*
X207999998Y-95694435D01*
X207961969Y-95698720D01*
X207948085Y-95699500D01*
X207921152Y-95699500D01*
X207881994Y-95707288D01*
X207871696Y-95708890D01*
X207820742Y-95714632D01*
X207820735Y-95714634D01*
X207796898Y-95722975D01*
X207780140Y-95727550D01*
X207766502Y-95730263D01*
X207766496Y-95730264D01*
X207717631Y-95750504D01*
X207711140Y-95752982D01*
X207650477Y-95774210D01*
X207650474Y-95774212D01*
X207640127Y-95780713D01*
X207621639Y-95790266D01*
X207620832Y-95790600D01*
X207620824Y-95790604D01*
X207566047Y-95827204D01*
X207563132Y-95829092D01*
X207497742Y-95870180D01*
X207497735Y-95870186D01*
X207370186Y-95997735D01*
X207370180Y-95997742D01*
X207329092Y-96063132D01*
X207327204Y-96066047D01*
X207290604Y-96120824D01*
X207290600Y-96120832D01*
X207290266Y-96121639D01*
X207280713Y-96140127D01*
X207274212Y-96150474D01*
X207274210Y-96150477D01*
X207252982Y-96211140D01*
X207250504Y-96217631D01*
X207230264Y-96266496D01*
X207230263Y-96266502D01*
X207227550Y-96280140D01*
X207222975Y-96296898D01*
X207214634Y-96320735D01*
X207214632Y-96320742D01*
X207208890Y-96371696D01*
X207207288Y-96381994D01*
X207199500Y-96421152D01*
X207199500Y-96448085D01*
X207198720Y-96461969D01*
X207194435Y-96499998D01*
X204600500Y-96499998D01*
X204600500Y-87586661D01*
X204620185Y-87519622D01*
X204672989Y-87473867D01*
X204742147Y-87463923D01*
X204790473Y-87481668D01*
X204900475Y-87550788D01*
X205070745Y-87610368D01*
X205070750Y-87610369D01*
X205249996Y-87630565D01*
X205250000Y-87630565D01*
X205250004Y-87630565D01*
X205429249Y-87610369D01*
X205429252Y-87610368D01*
X205429255Y-87610368D01*
X205599522Y-87550789D01*
X205752262Y-87454816D01*
X205752267Y-87454810D01*
X205755097Y-87452555D01*
X205757275Y-87451665D01*
X205758158Y-87451111D01*
X205758255Y-87451265D01*
X205819783Y-87426145D01*
X205832412Y-87425500D01*
X206338331Y-87425500D01*
X206338347Y-87425501D01*
X206345943Y-87425501D01*
X206504054Y-87425501D01*
X206504057Y-87425501D01*
X206656785Y-87384577D01*
X206706904Y-87355639D01*
X206793716Y-87305520D01*
X206905520Y-87193716D01*
X206905520Y-87193714D01*
X206915728Y-87183507D01*
X206915729Y-87183504D01*
X209712417Y-84386819D01*
X209773740Y-84353334D01*
X209800098Y-84350500D01*
X226917588Y-84350500D01*
X226984627Y-84370185D01*
X226994903Y-84377555D01*
X226997736Y-84379814D01*
X226997738Y-84379816D01*
X227150478Y-84475789D01*
X227266832Y-84516503D01*
X227320745Y-84535368D01*
X227320750Y-84535369D01*
X227499996Y-84555565D01*
X227500000Y-84555565D01*
X227500004Y-84555565D01*
X227679249Y-84535369D01*
X227679252Y-84535368D01*
X227679255Y-84535368D01*
X227849522Y-84475789D01*
X228002262Y-84379816D01*
X228129816Y-84252262D01*
X228225789Y-84099522D01*
X228285368Y-83929255D01*
X228297594Y-83820745D01*
X228305565Y-83750003D01*
X228305565Y-83749996D01*
X228285369Y-83570750D01*
X228285368Y-83570745D01*
X228251506Y-83473974D01*
X228225789Y-83400478D01*
X228129816Y-83247738D01*
X228002262Y-83120184D01*
X227969379Y-83099522D01*
X227849523Y-83024211D01*
X227679254Y-82964631D01*
X227679249Y-82964630D01*
X227500004Y-82944435D01*
X227499996Y-82944435D01*
X227320750Y-82964630D01*
X227320745Y-82964631D01*
X227150476Y-83024211D01*
X226997736Y-83120185D01*
X226994903Y-83122445D01*
X226992724Y-83123334D01*
X226991842Y-83123889D01*
X226991744Y-83123734D01*
X226930217Y-83148855D01*
X226917588Y-83149500D01*
X209586670Y-83149500D01*
X209586654Y-83149499D01*
X209579058Y-83149499D01*
X209420943Y-83149499D01*
X209344579Y-83169961D01*
X209268214Y-83190423D01*
X209268209Y-83190426D01*
X209131290Y-83269475D01*
X209131282Y-83269481D01*
X206212584Y-86188181D01*
X206151261Y-86221666D01*
X206124903Y-86224500D01*
X205832412Y-86224500D01*
X205765373Y-86204815D01*
X205755097Y-86197445D01*
X205752263Y-86195185D01*
X205752262Y-86195184D01*
X205622575Y-86113696D01*
X205599523Y-86099211D01*
X205429254Y-86039631D01*
X205429249Y-86039630D01*
X205250004Y-86019435D01*
X205249996Y-86019435D01*
X205070750Y-86039630D01*
X205070745Y-86039631D01*
X204900476Y-86099211D01*
X204790472Y-86168332D01*
X204723235Y-86187332D01*
X204656400Y-86166964D01*
X204611186Y-86113696D01*
X204600500Y-86063338D01*
X204600500Y-85920945D01*
X204600500Y-85920943D01*
X204559577Y-85768216D01*
X204559575Y-85768213D01*
X204558599Y-85764569D01*
X204555155Y-85746366D01*
X204535369Y-85570750D01*
X204535369Y-85570749D01*
X204535368Y-85570745D01*
X204475788Y-85400476D01*
X204387702Y-85260289D01*
X204379816Y-85247738D01*
X204252262Y-85120184D01*
X204219379Y-85099522D01*
X204099523Y-85024211D01*
X203929254Y-84964631D01*
X203929249Y-84964630D01*
X203750004Y-84944435D01*
X203749996Y-84944435D01*
X203570750Y-84964630D01*
X203570745Y-84964631D01*
X203400476Y-85024211D01*
X203247737Y-85120184D01*
X203120184Y-85247737D01*
X203024211Y-85400476D01*
X202964631Y-85570745D01*
X202964630Y-85570750D01*
X202944435Y-85749996D01*
X202000000Y-85749996D01*
X202000000Y-85250000D01*
X200004465Y-78016185D01*
X200000000Y-77983210D01*
X200000000Y-75124000D01*
X200019685Y-75056961D01*
X200072489Y-75011206D01*
X200124000Y-75000000D01*
X249375500Y-75000000D01*
X249442539Y-75019685D01*
G37*
G04 #@! TD.AperFunction*
G04 #@! TD*
M02*
