M48
; DRILL file {KiCad 8.0.4} date 2024-08-31T14:34:35+0300
; FORMAT={-:-/ absolute / metric / decimal}
; #@! TF.CreationDate,2024-08-31T14:34:35+03:00
; #@! TF.GenerationSoftware,Kicad,Pcbnew,8.0.4
; #@! TF.FileFunction,MixedPlating,1,2
FMAT,2
METRIC
; #@! TA.AperFunction,Plated,PTH,ViaDrill
T1C0.300
; #@! TA.AperFunction,Plated,PTH,ComponentDrill
T2C0.500
; #@! TA.AperFunction,Plated,PTH,ComponentDrill
T3C1.000
; #@! TA.AperFunction,Plated,PTH,ComponentDrill
T4C3.200
%
G90
G05
T1
X154.5Y-130.0
X154.75Y-94.5
X155.0Y-84.75
X156.25Y-78.75
X156.75Y-82.75
X157.25Y-68.25
X157.25Y-80.25
X158.5Y-82.75
X158.75Y-94.25
X159.75Y-72.25
X160.0Y-81.75
X160.0Y-136.5
X160.25Y-83.75
X160.25Y-138.5
X160.5Y-142.25
X160.72Y-76.162
X160.75Y-70.25
X161.25Y-84.0
X161.5Y-94.25
X161.8Y-61.25
X162.5Y-65.25
X162.75Y-146.5
X163.44Y-77.25
X163.75Y-135.0
X163.75Y-137.75
X164.0Y-94.25
X164.0Y-113.5
X164.0Y-132.75
X164.0Y-136.75
X164.0Y-139.0
X164.0Y-148.0
X164.25Y-101.5
X164.5Y-60.0
X165.0Y-68.25
X165.0Y-80.25
X165.0Y-104.25
X165.25Y-83.5
X165.25Y-116.25
X165.5Y-146.5
X166.5Y-94.25
X166.75Y-118.5
X166.75Y-125.75
X167.75Y-76.162
X167.75Y-119.25
X168.0Y-116.5
X168.518Y-130.1
X168.72Y-100.75
X168.75Y-71.25
X168.75Y-104.25
X168.75Y-147.25
X169.0Y-119.0
X169.25Y-125.75
X169.25Y-132.75
X169.25Y-134.0
X169.25Y-135.0
X169.5Y-64.5
X169.75Y-119.5
X169.75Y-139.0
X170.75Y-101.25
X171.0Y-97.25
X171.0Y-130.0
X171.25Y-140.25
X171.47Y-113.25
X171.75Y-125.75
X172.25Y-135.5
X172.25Y-143.0
X172.75Y-129.75
X173.0Y-104.25
X173.0Y-116.25
X173.25Y-135.0
X173.75Y-94.5
X173.75Y-119.0
X174.5Y-125.75
X174.5Y-129.75
X174.75Y-144.0
X175.5Y-105.75
X176.72Y-100.162
X176.72Y-107.0
X177.0Y-111.25
X178.25Y-138.0
X178.25Y-139.5
X179.0Y-127.0
X179.25Y-134.25
X179.75Y-135.25
X179.75Y-137.0
X180.75Y-68.25
X181.0Y-137.0
X181.02Y-67.25
X181.25Y-80.0
X181.25Y-141.75
X181.75Y-94.25
X182.75Y-82.0
X183.536Y-135.961
X183.549Y-134.7
X183.75Y-80.25
X183.75Y-82.75
X184.0Y-63.0
X184.5Y-94.0
X185.0Y-70.0
X185.0Y-75.0
X185.0Y-82.75
X186.0Y-61.0
X186.0Y-83.0
X186.0Y-102.0
X186.25Y-112.5
X186.75Y-115.0
X187.25Y-103.25
X188.75Y-67.75
X188.75Y-70.5
X188.75Y-125.75
X189.25Y-80.25
X189.25Y-132.0
X189.5Y-82.75
X189.5Y-117.25
X189.75Y-130.0
X189.97Y-66.75
X190.0Y-94.0
X190.25Y-135.5
X190.5Y-115.75
X190.75Y-98.25
X190.75Y-103.5
X190.75Y-117.5
X190.75Y-134.75
X191.5Y-70.25
X191.5Y-125.75
X191.951Y-117.701
X192.0Y-118.5
X192.25Y-135.75
X192.5Y-130.0
X192.75Y-63.25
X193.5Y-96.0
X193.75Y-74.5
X194.0Y-125.75
X194.25Y-100.0
X194.25Y-112.25
X194.25Y-135.25
X195.0Y-103.25
X195.0Y-115.0
X195.5Y-118.0
X196.5Y-105.75
X196.5Y-125.75
X196.5Y-130.0
X196.75Y-93.0
X197.0Y-137.25
X198.75Y-98.0
X198.75Y-106.75
X198.75Y-110.25
X201.25Y-136.5
X201.5Y-134.0
X202.0Y-138.75
X202.5Y-78.25
X202.75Y-99.25
X203.0Y-82.75
X203.75Y-85.75
X204.5Y-78.5
X205.25Y-86.825
X205.25Y-98.0
X206.0Y-102.25
X207.25Y-78.75
X207.25Y-135.75
X207.75Y-139.0
X208.0Y-96.5
X209.75Y-96.5
X209.75Y-141.0
X210.5Y-78.5
X210.5Y-100.75
X212.5Y-96.5
X213.0Y-94.5
X213.25Y-78.5
X215.75Y-78.5
X218.25Y-78.5
X220.25Y-86.5
X222.0Y-81.25
X222.5Y-78.25
X224.0Y-95.25
X224.25Y-93.5
X225.0Y-78.25
X227.0Y-96.0
X227.5Y-83.75
X228.0Y-78.25
X230.0Y-99.0
X230.25Y-78.5
X233.25Y-93.0
X233.75Y-78.25
X233.75Y-94.5
X236.0Y-78.5
X238.5Y-78.5
X240.75Y-86.5
X241.0Y-78.5
X244.75Y-78.25
T2
X151.6Y-54.0
X151.6Y-146.0
X152.303Y-52.303
X152.303Y-55.697
X152.303Y-144.303
X152.303Y-147.697
X154.0Y-51.6
X154.0Y-56.4
X154.0Y-143.6
X154.0Y-148.4
X155.697Y-52.303
X155.697Y-55.697
X155.697Y-144.303
X155.697Y-147.697
X156.4Y-54.0
X156.4Y-146.0
X243.6Y-54.0
X243.6Y-146.0
X244.303Y-52.303
X244.303Y-55.697
X244.303Y-144.303
X244.303Y-147.697
X246.0Y-51.6
X246.0Y-56.4
X246.0Y-143.6
X246.0Y-148.4
X247.697Y-52.303
X247.697Y-55.697
X247.697Y-144.303
X247.697Y-147.697
X248.4Y-54.0
X248.4Y-146.0
T3
X161.0Y-54.85
X161.0Y-57.35
X164.5Y-54.85
X164.5Y-57.35
X168.0Y-54.85
X168.0Y-57.35
X171.5Y-54.85
X171.5Y-57.35
X175.0Y-54.85
X175.0Y-57.35
X182.333Y-54.85
X182.333Y-57.35
X184.76Y-144.0
X184.76Y-146.54
X185.833Y-54.85
X185.833Y-57.35
X187.3Y-144.0
X187.3Y-146.54
X189.333Y-54.85
X189.333Y-57.35
X189.84Y-144.0
X189.84Y-146.54
X192.38Y-144.0
X192.38Y-146.54
X192.833Y-54.85
X192.833Y-57.35
X194.92Y-144.0
X194.92Y-146.54
X196.333Y-54.85
X196.333Y-57.35
X197.46Y-144.0
X197.46Y-146.54
X200.0Y-144.0
X200.0Y-146.54
X202.54Y-144.0
X202.54Y-146.54
X203.667Y-54.85
X203.667Y-57.35
X205.08Y-144.0
X205.08Y-146.54
X207.167Y-54.85
X207.167Y-57.35
X207.62Y-144.0
X207.62Y-146.54
X210.16Y-144.0
X210.16Y-146.54
X210.667Y-54.85
X210.667Y-57.35
X212.7Y-144.0
X212.7Y-146.54
X214.167Y-54.85
X214.167Y-57.35
X215.24Y-144.0
X215.24Y-146.54
X217.667Y-54.85
X217.667Y-57.35
X225.0Y-54.85
X225.0Y-57.35
X228.5Y-54.85
X228.5Y-57.35
X232.0Y-54.85
X232.0Y-57.35
X235.5Y-54.85
X235.5Y-57.35
X239.0Y-54.85
X239.0Y-57.35
T4
X154.0Y-54.0
X154.0Y-146.0
X246.0Y-54.0
X246.0Y-146.0
M30
