M48
; DRILL file {KiCad 8.0.5} date 2024-09-25T12:15:36+0300
; FORMAT={-:-/ absolute / metric / decimal}
; #@! TF.CreationDate,2024-09-25T12:15:36+03:00
; #@! TF.GenerationSoftware,Kicad,Pcbnew,8.0.5
; #@! TF.FileFunction,MixedPlating,1,4
FMAT,2
METRIC
; #@! TA.AperFunction,Plated,PTH,ViaDrill
T1C0.200
; #@! TA.AperFunction,Plated,PTH,ComponentDrill
T2C0.200
; #@! TA.AperFunction,Plated,PTH,ViaDrill
T3C0.300
; #@! TA.AperFunction,Plated,PTH,ComponentDrill
T4C0.350
; #@! TA.AperFunction,Plated,PTH,ViaDrill
T5C0.400
; #@! TA.AperFunction,Plated,PTH,ViaDrill
T6C0.500
; #@! TA.AperFunction,Plated,PTH,ComponentDrill
T7C0.500
; #@! TA.AperFunction,Plated,PTH,ComponentDrill
T8C0.600
; #@! TA.AperFunction,Plated,PTH,ComponentDrill
T9C0.900
; #@! TA.AperFunction,Plated,PTH,ComponentDrill
T10C1.000
; #@! TA.AperFunction,Plated,PTH,ComponentDrill
T11C1.100
; #@! TA.AperFunction,Plated,PTH,ComponentDrill
T12C1.200
; #@! TA.AperFunction,Plated,PTH,ComponentDrill
T13C1.600
; #@! TA.AperFunction,Plated,PTH,ComponentDrill
T14C3.200
; #@! TA.AperFunction,NonPlated,NPTH,ComponentDrill
T15C0.650
; #@! TA.AperFunction,NonPlated,NPTH,ComponentDrill
T16C3.200
%
G90
G05
T1
X75.188Y-75.688
X75.537Y-75.037
X75.987Y-77.888
X77.1Y-126.8
X78.1Y-126.95
X78.15Y-128.95
X78.888Y-76.438
X78.9Y-129.6
X79.087Y-82.587
X79.087Y-85.837
X79.287Y-83.037
X79.287Y-83.737
X80.388Y-84.087
X80.55Y-129.2
X80.95Y-129.75
X81.888Y-77.737
X82.888Y-83.888
X83.037Y-85.737
X83.438Y-83.837
X84.037Y-83.787
X84.037Y-85.737
X84.188Y-77.438
X84.9Y-78.6
X85.135Y-79.33
X85.45Y-79.75
X85.85Y-80.15
X86.0Y-100.75
X86.3Y-80.5
X86.55Y-63.7
X86.6Y-100.75
X86.7Y-81.2
X87.125Y-100.75
X87.15Y-86.2
X87.2Y-63.7
X87.45Y-93.0
X87.5Y-80.3
X87.55Y-100.0
X87.8Y-63.7
X88.25Y-83.45
X88.25Y-89.9
X88.4Y-60.8
X88.4Y-63.7
X88.9Y-83.3
X89.0Y-84.2
X89.003Y-90.648
X89.05Y-63.7
X89.05Y-82.55
X90.6Y-83.445
X90.65Y-93.75
X91.0Y-93.15
X91.3Y-81.05
X91.4Y-85.045
X91.403Y-85.848
X91.517Y-77.283
X92.15Y-81.05
X92.15Y-86.6
X92.2Y-85.4
X92.2Y-89.0
X92.225Y-90.6
X92.25Y-77.9
X92.25Y-89.75
X92.925Y-84.975
X92.972Y-85.879
X92.978Y-89.022
X93.0Y-89.8
X93.7Y-81.9
X93.8Y-82.65
X93.8Y-87.35
X93.8Y-88.95
X93.8Y-90.6
X93.8Y-92.245
X93.85Y-91.35
X93.94Y-85.732
X94.25Y-102.55
X94.345Y-96.3
X94.4Y-61.3
X94.5Y-81.9
X94.5Y-87.45
X94.6Y-82.6
X94.601Y-90.637
X94.645Y-84.2
X95.0Y-85.8
X95.0Y-86.6
X95.0Y-87.45
X95.279Y-90.543
X95.348Y-92.194
X95.35Y-88.95
X95.378Y-91.422
X95.43Y-89.814
X95.988Y-85.699
X96.0Y-56.75
X96.065Y-84.265
X96.1Y-86.6
X96.1Y-87.45
X96.106Y-81.897
X96.15Y-88.15
X96.152Y-92.197
X96.178Y-89.022
X96.2Y-82.65
X96.45Y-122.5
X96.6Y-93.1
X96.65Y-78.1
X96.885Y-77.63
X96.95Y-81.85
X97.0Y-82.6
X97.7Y-122.25
X97.75Y-82.6
X97.755Y-88.2
X97.755Y-89.8
X97.778Y-84.178
X97.8Y-83.4
X97.8Y-85.8
X97.8Y-86.6
X97.8Y-91.4
X97.8Y-88.955
X98.2Y-68.8
X98.3Y-122.4
X98.45Y-88.95
X98.467Y-77.967
X98.5Y-85.75
X98.5Y-121.4
X98.55Y-81.8
X98.55Y-84.2
X98.55Y-86.6
X98.55Y-89.7
X98.55Y-91.4
X98.6Y-82.6
X98.6Y-85.05
X98.6Y-88.2
X98.6Y-90.65
X98.65Y-87.4
X99.0Y-78.0
X99.2Y-90.5
X99.352Y-82.603
X99.4Y-91.4
X99.95Y-70.1
X100.25Y-70.55
X100.45Y-80.4
X100.55Y-86.2
X100.6Y-92.6
X101.4Y-90.2
X101.5Y-79.95
X101.903Y-90.049
X102.05Y-91.5
X102.05Y-93.85
X102.1Y-93.25
X102.25Y-67.15
X102.65Y-82.65
X102.75Y-80.3
X102.8Y-66.7
X102.8Y-79.7
X102.85Y-89.4
X103.25Y-64.0
X103.25Y-88.95
X103.4Y-82.25
X103.55Y-65.5
X103.75Y-78.75
X103.85Y-88.4
X103.95Y-64.25
X103.95Y-81.25
X104.163Y-80.77
X104.27Y-88.085
X104.5Y-112.0
X104.55Y-113.025
X104.55Y-113.55
X104.75Y-111.25
X104.85Y-87.5
X105.0Y-110.5
X105.25Y-109.5
X105.75Y-109.0
X106.0Y-108.25
X106.05Y-86.85
X106.15Y-87.55
X106.25Y-107.75
X106.5Y-107.0
X106.8Y-86.35
X107.0Y-105.75
X107.0Y-106.75
X107.05Y-83.55
X107.309Y-86.223
X107.75Y-85.4
X107.85Y-83.75
X108.05Y-84.95
X112.6Y-117.5
X112.6Y-118.7
X112.6Y-119.3
X112.6Y-119.825
X112.6Y-120.35
X112.6Y-120.925
X112.6Y-121.45
X112.65Y-116.95
X112.65Y-118.15
X112.7Y-115.7
X112.7Y-116.3
X113.75Y-115.0
X135.75Y-108.0
X136.5Y-108.0
X137.25Y-108.0
X138.0Y-108.0
X138.25Y-89.5
X138.5Y-96.75
X138.75Y-94.25
X138.75Y-99.75
X138.75Y-108.0
X138.8Y-91.5
X139.5Y-108.0
X142.25Y-101.8
X160.5Y-110.25
X161.25Y-110.25
X162.0Y-110.25
X162.75Y-110.25
X162.8Y-89.15
X163.15Y-91.55
X163.15Y-94.05
X163.5Y-96.5
X163.5Y-110.25
X163.75Y-99.25
X164.25Y-102.5
X164.25Y-110.25
X182.7Y-101.7
X182.75Y-88.95
X182.75Y-91.35
X182.75Y-93.9
X182.75Y-96.62
X182.75Y-99.16
X187.95Y-96.7
X188.3Y-94.1
X188.4Y-101.7
X188.5Y-88.9
X188.65Y-98.95
X188.75Y-91.55
X206.3Y-86.55
X206.85Y-85.9
X207.6Y-85.9
X207.7Y-84.95
X208.1Y-84.5
X208.15Y-83.75
X213.0Y-89.0
X213.3Y-91.5
X213.35Y-99.15
X213.4Y-94.15
X213.45Y-101.55
X213.5Y-96.75
X227.25Y-69.75
X227.85Y-69.75
X228.55Y-69.75
X229.2Y-69.75
X229.85Y-69.75
X229.875Y-101.55
X229.9Y-99.1
X230.4Y-96.15
X230.45Y-91.25
X230.5Y-94.05
X230.55Y-69.75
X231.05Y-88.95
X234.75Y-69.95
X235.5Y-69.9
X236.2Y-69.9
X237.0Y-69.95
X237.8Y-69.95
X237.9Y-99.2
X238.25Y-96.7
X238.5Y-94.05
X238.6Y-69.95
X238.65Y-101.7
X238.7Y-88.9
X239.0Y-90.75
T2
X62.095Y-89.375
X62.095Y-90.675
X62.25Y-106.6
X62.25Y-107.9
X63.095Y-89.375
X63.095Y-90.675
X63.25Y-106.6
X63.25Y-107.9
X64.095Y-89.375
X64.095Y-90.675
X64.25Y-106.6
X64.25Y-107.9
T3
X59.5Y-82.25
X60.15Y-89.95
X60.25Y-113.75
X60.5Y-83.5
X60.5Y-96.75
X60.5Y-100.5
X61.25Y-114.75
X61.25Y-115.75
X61.5Y-71.5
X61.75Y-97.5
X61.75Y-98.25
X62.0Y-83.0
X62.0Y-114.75
X62.0Y-115.75
X62.2Y-101.85
X62.25Y-98.75
X63.0Y-98.75
X63.75Y-83.25
X63.75Y-93.5
X63.75Y-94.25
X63.75Y-95.0
X63.75Y-111.0
X63.75Y-111.75
X63.75Y-112.5
X64.0Y-114.5
X64.25Y-96.75
X65.0Y-100.25
X65.25Y-68.5
X65.25Y-96.7
X65.25Y-114.25
X65.5Y-115.0
X65.5Y-115.75
X65.55Y-98.15
X65.6Y-119.5
X65.6Y-128.75
X65.7Y-126.05
X65.85Y-97.35
X66.5Y-83.25
X66.5Y-132.9
X66.6Y-127.6
X66.75Y-100.25
X66.85Y-118.75
X67.0Y-67.0
X67.0Y-79.75
X67.0Y-82.0
X67.0Y-129.5
X68.0Y-78.75
X68.25Y-82.0
X68.5Y-93.5
X68.5Y-94.25
X68.5Y-95.0
X68.5Y-95.75
X68.75Y-110.5
X68.75Y-111.5
X68.75Y-112.5
X68.75Y-113.5
X69.0Y-79.0
X69.0Y-82.0
X69.1Y-127.1
X69.25Y-86.75
X69.25Y-103.75
X69.55Y-43.75
X69.55Y-131.5
X69.75Y-41.5
X69.8Y-123.7
X70.0Y-72.0
X70.0Y-118.3
X70.1Y-84.7
X70.15Y-132.4
X70.5Y-127.0
X70.75Y-99.55
X70.75Y-102.0
X71.0Y-81.3
X71.0Y-82.1
X71.0Y-86.5
X71.0Y-87.25
X71.0Y-88.0
X71.0Y-88.75
X71.0Y-89.5
X71.0Y-122.425
X71.5Y-104.25
X71.5Y-105.25
X71.5Y-106.25
X71.5Y-107.175
X71.8Y-81.3
X71.8Y-82.1
X71.8Y-118.4
X71.863Y-121.186
X72.0Y-120.5
X72.05Y-132.15
X72.155Y-42.0
X72.75Y-136.0
X73.45Y-124.153
X73.462Y-84.287
X73.75Y-114.75
X73.75Y-115.5
X74.2Y-99.25
X74.5Y-114.75
X74.5Y-115.5
X75.05Y-127.8
X75.25Y-116.75
X75.55Y-96.35
X75.65Y-130.05
X75.75Y-133.2
X76.0Y-43.0
X76.15Y-96.1
X76.15Y-99.5
X76.45Y-118.75
X76.75Y-124.5
X77.05Y-96.45
X77.1Y-97.35
X77.3Y-42.8
X77.301Y-55.25
X77.301Y-58.25
X77.45Y-99.8
X77.551Y-56.75
X77.9Y-107.4
X78.05Y-95.25
X78.141Y-67.148
X78.551Y-64.0
X78.892Y-121.819
X79.051Y-70.0
X79.2Y-44.3
X79.2Y-107.75
X79.4Y-134.3
X79.701Y-54.55
X80.0Y-103.0
X80.1Y-47.2
X80.242Y-126.977
X80.25Y-115.5
X80.45Y-99.2
X80.704Y-122.022
X80.75Y-118.25
X80.8Y-107.85
X80.801Y-64.5
X81.15Y-133.1
X81.3Y-123.4
X81.326Y-122.526
X81.601Y-64.5
X81.602Y-124.141
X81.65Y-94.45
X82.301Y-67.5
X82.551Y-55.75
X82.551Y-63.75
X82.7Y-120.218
X82.801Y-58.25
X83.051Y-50.0
X83.15Y-56.901
X83.475Y-125.789
X83.701Y-63.75
X83.801Y-67.25
X84.0Y-133.0
X84.2Y-124.15
X84.301Y-55.0
X84.701Y-64.25
X84.801Y-49.75
X84.801Y-61.0
X85.7Y-126.6
X85.801Y-55.25
X85.948Y-121.948
X86.501Y-49.75
X86.551Y-55.75
X87.301Y-55.0
X88.0Y-99.1
X88.05Y-133.4
X88.463Y-101.4
X88.551Y-55.25
X88.551Y-70.25
X89.2Y-100.7
X90.45Y-121.9
X90.5Y-43.8
X91.4Y-111.6
X91.8Y-115.0
X91.8Y-118.35
X92.25Y-96.0
X92.25Y-109.05
X92.325Y-71.6
X93.1Y-121.65
X93.399Y-98.649
X93.401Y-55.1
X93.75Y-111.3
X93.863Y-101.589
X94.051Y-95.011
X94.587Y-101.25
X94.65Y-75.25
X95.9Y-71.05
X96.3Y-115.95
X96.35Y-94.543
X96.5Y-106.5
X96.95Y-124.45
X97.144Y-94.445
X97.25Y-98.1
X99.3Y-95.7
X99.9Y-103.4
X100.091Y-95.822
X100.2Y-116.3
X100.25Y-110.0
X100.35Y-71.35
X100.85Y-40.4
X101.7Y-104.25
X101.75Y-100.15
X101.8Y-98.1
X102.35Y-54.65
X102.45Y-57.3
X102.737Y-59.787
X103.6Y-44.55
X104.85Y-75.25
X105.25Y-115.25
X106.5Y-89.75
X107.3Y-95.1
X107.3Y-103.5
X107.5Y-67.75
X107.95Y-55.75
X108.75Y-127.5
X109.75Y-53.25
X112.25Y-63.0
X114.0Y-51.5
X114.65Y-114.1
X115.25Y-56.0
X117.25Y-60.75
X118.25Y-70.5
X119.25Y-105.25
X119.5Y-128.25
X119.65Y-88.05
X119.7Y-92.3
X119.7Y-93.3
X119.7Y-97.4
X119.7Y-98.4
X119.7Y-102.65
X120.55Y-75.2
X120.75Y-56.0
X123.25Y-70.0
X124.0Y-101.5
X124.05Y-107.5
X124.9Y-78.95
X125.0Y-82.2
X125.4Y-114.2
X125.5Y-92.75
X126.4Y-123.1
X128.3Y-125.7
X129.75Y-108.5
X129.85Y-76.65
X130.0Y-88.5
X131.5Y-94.3
X131.75Y-103.25
X132.5Y-90.25
X134.25Y-108.5
X136.25Y-51.75
X136.25Y-56.0
X136.25Y-61.0
X136.25Y-65.313
X139.7Y-113.05
X141.2Y-92.95
X143.75Y-113.75
X144.65Y-102.65
X144.7Y-88.15
X144.7Y-92.45
X144.7Y-93.3
X144.7Y-97.55
X144.7Y-98.5
X146.85Y-116.7
X149.5Y-117.5
X150.25Y-105.25
X155.1Y-94.6
X156.1Y-98.3
X156.75Y-88.0
X157.25Y-71.75
X157.75Y-86.5
X158.4Y-104.25
X158.5Y-107.5
X162.0Y-119.75
X163.25Y-56.0
X163.25Y-69.5
X163.5Y-51.25
X163.5Y-61.5
X166.25Y-108.0
X167.95Y-104.4
X168.7Y-73.45
X168.75Y-86.5
X169.7Y-102.55
X169.75Y-88.15
X169.75Y-93.45
X169.75Y-98.5
X169.8Y-92.5
X169.8Y-97.65
X180.1Y-97.9
X181.35Y-93.85
X181.95Y-91.75
X182.55Y-73.7
X182.7Y-90.15
X183.2Y-104.3
X183.35Y-86.5
X189.5Y-51.0
X189.5Y-61.0
X192.4Y-86.5
X193.2Y-104.55
X194.55Y-73.45
X194.8Y-88.0
X194.8Y-92.2
X194.8Y-93.2
X194.8Y-97.4
X194.8Y-98.4
X194.8Y-102.6
X196.55Y-75.25
X197.5Y-65.313
X200.25Y-87.25
X200.5Y-97.5
X204.75Y-66.0
X205.0Y-72.75
X205.25Y-86.5
X206.25Y-102.75
X206.4Y-97.75
X208.25Y-70.5
X208.6Y-73.8
X216.25Y-61.0
X217.5Y-56.0
X217.75Y-73.75
X219.8Y-75.25
X220.0Y-88.0
X220.0Y-92.2
X220.0Y-93.0
X220.0Y-97.4
X220.0Y-98.6
X220.0Y-102.8
X222.75Y-51.5
X223.15Y-72.9
X225.2Y-83.35
X225.55Y-80.15
X225.75Y-69.75
X225.75Y-119.75
X226.0Y-89.25
X226.5Y-62.5
X231.25Y-103.25
X232.75Y-69.75
X232.8Y-73.75
X238.25Y-64.75
X242.5Y-73.8
X242.9Y-104.35
X244.6Y-88.4
X244.6Y-92.6
X244.6Y-93.4
X244.6Y-97.4
X244.6Y-98.2
X244.6Y-102.6
T4
X77.825Y-123.162
X77.825Y-124.438
X77.825Y-125.712
X79.1Y-123.162
X79.1Y-124.438
X79.1Y-125.712
X80.375Y-123.162
X80.375Y-124.438
X80.375Y-125.712
T5
X107.75Y-75.25
X113.5Y-104.25
X115.52Y-86.46
X118.1Y-73.85
X118.15Y-104.25
X118.2Y-86.45
X132.85Y-73.7
X132.9Y-86.4
X133.35Y-104.5
X143.1Y-73.8
X143.3Y-104.35
X143.5Y-86.4
X149.565Y-80.1
X149.925Y-83.926
X149.95Y-85.6
X150.2Y-78.3
X150.45Y-81.9
X151.3Y-123.1
X151.4Y-76.85
X153.0Y-125.7
T6
X123.9Y-76.9
X124.3Y-80.65
X124.45Y-85.5
X124.7Y-83.95
X175.0Y-81.65
X175.1Y-84.8
X175.25Y-78.65
X177.0Y-123.15
X179.2Y-125.7
X199.6Y-83.4
X200.0Y-81.8
X200.2Y-78.6
X200.2Y-85.0
X201.8Y-123.15
X204.0Y-125.7
X225.6Y-85.0
X225.8Y-78.6
X225.8Y-81.8
X227.4Y-123.15
X229.0Y-125.7
T7
X59.6Y-43.0
X59.6Y-135.0
X60.303Y-41.303
X60.303Y-44.697
X60.303Y-133.303
X60.303Y-136.697
X62.0Y-40.6
X62.0Y-45.4
X62.0Y-132.6
X62.0Y-137.4
X63.697Y-41.303
X63.697Y-44.697
X63.697Y-133.303
X63.697Y-136.697
X64.4Y-43.0
X64.4Y-135.0
X110.6Y-43.0
X110.6Y-135.0
X111.303Y-41.303
X111.303Y-44.697
X111.303Y-133.303
X111.303Y-136.697
X113.0Y-40.6
X113.0Y-45.4
X113.0Y-132.6
X113.0Y-137.4
X114.697Y-41.303
X114.697Y-44.697
X114.697Y-133.303
X114.697Y-136.697
X115.4Y-43.0
X115.4Y-135.0
X160.6Y-43.0
X160.6Y-135.0
X161.303Y-41.303
X161.303Y-44.697
X161.303Y-133.303
X161.303Y-136.697
X163.0Y-40.6
X163.0Y-45.4
X163.0Y-132.6
X163.0Y-137.4
X164.697Y-41.303
X164.697Y-44.697
X164.697Y-133.303
X164.697Y-136.697
X165.4Y-43.0
X165.4Y-135.0
X235.6Y-43.0
X235.6Y-135.0
X236.303Y-41.303
X236.303Y-44.697
X236.303Y-133.303
X236.303Y-136.697
X238.0Y-40.6
X238.0Y-45.4
X238.0Y-132.6
X238.0Y-137.4
X239.697Y-41.303
X239.697Y-44.697
X239.697Y-133.303
X239.697Y-136.697
X240.4Y-43.0
X240.4Y-135.0
T9
X72.046Y-52.055
X72.046Y-54.595
X72.046Y-57.135
X72.046Y-59.675
X74.586Y-53.325
X74.586Y-55.865
X74.586Y-58.405
X74.586Y-60.945
T10
X81.62Y-135.7
X83.425Y-116.9
X84.16Y-135.7
X85.965Y-116.9
X86.7Y-135.7
X88.505Y-116.9
X92.485Y-126.415
X92.485Y-128.955
X92.485Y-131.495
X92.485Y-134.035
X92.485Y-136.575
X93.21Y-49.25
X93.21Y-51.79
X95.025Y-126.415
X95.025Y-128.955
X95.025Y-131.495
X95.025Y-134.035
X95.025Y-136.575
X95.75Y-49.25
X95.75Y-51.79
X98.29Y-49.25
X98.29Y-51.79
X100.83Y-49.25
X100.83Y-51.79
X100.998Y-122.67
X100.998Y-125.21
X100.998Y-127.75
X100.998Y-130.29
X100.998Y-132.83
X103.37Y-49.25
X103.37Y-51.79
X103.537Y-122.67
X103.537Y-125.21
X103.537Y-127.75
X103.537Y-130.29
X103.537Y-132.83
X105.91Y-49.25
X105.91Y-51.79
T11
X60.794Y-50.175
X60.794Y-60.285
X62.318Y-52.715
X62.318Y-62.825
T12
X62.932Y-75.055
X62.932Y-78.555
X83.195Y-43.932
X86.695Y-43.932
T13
X68.744Y-48.626
X68.744Y-64.374
T14
X62.0Y-43.0
X62.0Y-135.0
X113.0Y-43.0
X113.0Y-135.0
X163.0Y-43.0
X163.0Y-135.0
X238.0Y-43.0
X238.0Y-135.0
T15
X63.1Y-119.86
X63.1Y-125.64
T16
X65.696Y-50.785
X65.696Y-62.215
T8
X59.75Y-118.43G85X59.15Y-118.43
G05
X59.75Y-127.07G85X59.15Y-127.07
G05
X64.18Y-118.43G85X63.08Y-118.43
G05
X64.18Y-127.07G85X63.08Y-127.07
G05
M30
