G04 #@! TF.GenerationSoftware,KiCad,Pcbnew,8.0.5*
G04 #@! TF.CreationDate,2024-09-25T12:15:36+03:00*
G04 #@! TF.ProjectId,rioctrl-controller,72696f63-7472-46c2-9d63-6f6e74726f6c,rev?*
G04 #@! TF.SameCoordinates,Original*
G04 #@! TF.FileFunction,Legend,Bot*
G04 #@! TF.FilePolarity,Positive*
%FSLAX46Y46*%
G04 Gerber Fmt 4.6, Leading zero omitted, Abs format (unit mm)*
G04 Created by KiCad (PCBNEW 8.0.5) date 2024-09-25 12:15:36*
%MOMM*%
%LPD*%
G01*
G04 APERTURE LIST*
%ADD10C,0.175000*%
%ADD11C,0.120000*%
G04 APERTURE END LIST*
D10*
X99600000Y-86648066D02*
X99633333Y-86681400D01*
X99633333Y-86681400D02*
X99733333Y-86714733D01*
X99733333Y-86714733D02*
X99800000Y-86714733D01*
X99800000Y-86714733D02*
X99900000Y-86681400D01*
X99900000Y-86681400D02*
X99966667Y-86614733D01*
X99966667Y-86614733D02*
X100000000Y-86548066D01*
X100000000Y-86548066D02*
X100033333Y-86414733D01*
X100033333Y-86414733D02*
X100033333Y-86314733D01*
X100033333Y-86314733D02*
X100000000Y-86181400D01*
X100000000Y-86181400D02*
X99966667Y-86114733D01*
X99966667Y-86114733D02*
X99900000Y-86048066D01*
X99900000Y-86048066D02*
X99800000Y-86014733D01*
X99800000Y-86014733D02*
X99733333Y-86014733D01*
X99733333Y-86014733D02*
X99633333Y-86048066D01*
X99633333Y-86048066D02*
X99600000Y-86081400D01*
X99000000Y-86014733D02*
X99133333Y-86014733D01*
X99133333Y-86014733D02*
X99200000Y-86048066D01*
X99200000Y-86048066D02*
X99233333Y-86081400D01*
X99233333Y-86081400D02*
X99300000Y-86181400D01*
X99300000Y-86181400D02*
X99333333Y-86314733D01*
X99333333Y-86314733D02*
X99333333Y-86581400D01*
X99333333Y-86581400D02*
X99300000Y-86648066D01*
X99300000Y-86648066D02*
X99266667Y-86681400D01*
X99266667Y-86681400D02*
X99200000Y-86714733D01*
X99200000Y-86714733D02*
X99066667Y-86714733D01*
X99066667Y-86714733D02*
X99000000Y-86681400D01*
X99000000Y-86681400D02*
X98966667Y-86648066D01*
X98966667Y-86648066D02*
X98933333Y-86581400D01*
X98933333Y-86581400D02*
X98933333Y-86414733D01*
X98933333Y-86414733D02*
X98966667Y-86348066D01*
X98966667Y-86348066D02*
X99000000Y-86314733D01*
X99000000Y-86314733D02*
X99066667Y-86281400D01*
X99066667Y-86281400D02*
X99200000Y-86281400D01*
X99200000Y-86281400D02*
X99266667Y-86314733D01*
X99266667Y-86314733D02*
X99300000Y-86348066D01*
X99300000Y-86348066D02*
X99333333Y-86414733D01*
X98700000Y-86014733D02*
X98266666Y-86014733D01*
X98266666Y-86014733D02*
X98500000Y-86281400D01*
X98500000Y-86281400D02*
X98400000Y-86281400D01*
X98400000Y-86281400D02*
X98333333Y-86314733D01*
X98333333Y-86314733D02*
X98300000Y-86348066D01*
X98300000Y-86348066D02*
X98266666Y-86414733D01*
X98266666Y-86414733D02*
X98266666Y-86581400D01*
X98266666Y-86581400D02*
X98300000Y-86648066D01*
X98300000Y-86648066D02*
X98333333Y-86681400D01*
X98333333Y-86681400D02*
X98400000Y-86714733D01*
X98400000Y-86714733D02*
X98600000Y-86714733D01*
X98600000Y-86714733D02*
X98666666Y-86681400D01*
X98666666Y-86681400D02*
X98700000Y-86648066D01*
X92298066Y-81949999D02*
X92331400Y-81916666D01*
X92331400Y-81916666D02*
X92364733Y-81816666D01*
X92364733Y-81816666D02*
X92364733Y-81749999D01*
X92364733Y-81749999D02*
X92331400Y-81649999D01*
X92331400Y-81649999D02*
X92264733Y-81583333D01*
X92264733Y-81583333D02*
X92198066Y-81549999D01*
X92198066Y-81549999D02*
X92064733Y-81516666D01*
X92064733Y-81516666D02*
X91964733Y-81516666D01*
X91964733Y-81516666D02*
X91831400Y-81549999D01*
X91831400Y-81549999D02*
X91764733Y-81583333D01*
X91764733Y-81583333D02*
X91698066Y-81649999D01*
X91698066Y-81649999D02*
X91664733Y-81749999D01*
X91664733Y-81749999D02*
X91664733Y-81816666D01*
X91664733Y-81816666D02*
X91698066Y-81916666D01*
X91698066Y-81916666D02*
X91731400Y-81949999D01*
X91898066Y-82549999D02*
X92364733Y-82549999D01*
X91631400Y-82383333D02*
X92131400Y-82216666D01*
X92131400Y-82216666D02*
X92131400Y-82649999D01*
X91664733Y-82850000D02*
X91664733Y-83316666D01*
X91664733Y-83316666D02*
X92364733Y-83016666D01*
X94298066Y-81949999D02*
X94331400Y-81916666D01*
X94331400Y-81916666D02*
X94364733Y-81816666D01*
X94364733Y-81816666D02*
X94364733Y-81749999D01*
X94364733Y-81749999D02*
X94331400Y-81649999D01*
X94331400Y-81649999D02*
X94264733Y-81583333D01*
X94264733Y-81583333D02*
X94198066Y-81549999D01*
X94198066Y-81549999D02*
X94064733Y-81516666D01*
X94064733Y-81516666D02*
X93964733Y-81516666D01*
X93964733Y-81516666D02*
X93831400Y-81549999D01*
X93831400Y-81549999D02*
X93764733Y-81583333D01*
X93764733Y-81583333D02*
X93698066Y-81649999D01*
X93698066Y-81649999D02*
X93664733Y-81749999D01*
X93664733Y-81749999D02*
X93664733Y-81816666D01*
X93664733Y-81816666D02*
X93698066Y-81916666D01*
X93698066Y-81916666D02*
X93731400Y-81949999D01*
X93664733Y-82583333D02*
X93664733Y-82249999D01*
X93664733Y-82249999D02*
X93998066Y-82216666D01*
X93998066Y-82216666D02*
X93964733Y-82249999D01*
X93964733Y-82249999D02*
X93931400Y-82316666D01*
X93931400Y-82316666D02*
X93931400Y-82483333D01*
X93931400Y-82483333D02*
X93964733Y-82549999D01*
X93964733Y-82549999D02*
X93998066Y-82583333D01*
X93998066Y-82583333D02*
X94064733Y-82616666D01*
X94064733Y-82616666D02*
X94231400Y-82616666D01*
X94231400Y-82616666D02*
X94298066Y-82583333D01*
X94298066Y-82583333D02*
X94331400Y-82549999D01*
X94331400Y-82549999D02*
X94364733Y-82483333D01*
X94364733Y-82483333D02*
X94364733Y-82316666D01*
X94364733Y-82316666D02*
X94331400Y-82249999D01*
X94331400Y-82249999D02*
X94298066Y-82216666D01*
X94364733Y-82950000D02*
X94364733Y-83083333D01*
X94364733Y-83083333D02*
X94331400Y-83150000D01*
X94331400Y-83150000D02*
X94298066Y-83183333D01*
X94298066Y-83183333D02*
X94198066Y-83250000D01*
X94198066Y-83250000D02*
X94064733Y-83283333D01*
X94064733Y-83283333D02*
X93798066Y-83283333D01*
X93798066Y-83283333D02*
X93731400Y-83250000D01*
X93731400Y-83250000D02*
X93698066Y-83216666D01*
X93698066Y-83216666D02*
X93664733Y-83150000D01*
X93664733Y-83150000D02*
X93664733Y-83016666D01*
X93664733Y-83016666D02*
X93698066Y-82950000D01*
X93698066Y-82950000D02*
X93731400Y-82916666D01*
X93731400Y-82916666D02*
X93798066Y-82883333D01*
X93798066Y-82883333D02*
X93964733Y-82883333D01*
X93964733Y-82883333D02*
X94031400Y-82916666D01*
X94031400Y-82916666D02*
X94064733Y-82950000D01*
X94064733Y-82950000D02*
X94098066Y-83016666D01*
X94098066Y-83016666D02*
X94098066Y-83150000D01*
X94098066Y-83150000D02*
X94064733Y-83216666D01*
X94064733Y-83216666D02*
X94031400Y-83250000D01*
X94031400Y-83250000D02*
X93964733Y-83283333D01*
X90098066Y-86649999D02*
X90131400Y-86616666D01*
X90131400Y-86616666D02*
X90164733Y-86516666D01*
X90164733Y-86516666D02*
X90164733Y-86449999D01*
X90164733Y-86449999D02*
X90131400Y-86349999D01*
X90131400Y-86349999D02*
X90064733Y-86283333D01*
X90064733Y-86283333D02*
X89998066Y-86249999D01*
X89998066Y-86249999D02*
X89864733Y-86216666D01*
X89864733Y-86216666D02*
X89764733Y-86216666D01*
X89764733Y-86216666D02*
X89631400Y-86249999D01*
X89631400Y-86249999D02*
X89564733Y-86283333D01*
X89564733Y-86283333D02*
X89498066Y-86349999D01*
X89498066Y-86349999D02*
X89464733Y-86449999D01*
X89464733Y-86449999D02*
X89464733Y-86516666D01*
X89464733Y-86516666D02*
X89498066Y-86616666D01*
X89498066Y-86616666D02*
X89531400Y-86649999D01*
X89464733Y-87283333D02*
X89464733Y-86949999D01*
X89464733Y-86949999D02*
X89798066Y-86916666D01*
X89798066Y-86916666D02*
X89764733Y-86949999D01*
X89764733Y-86949999D02*
X89731400Y-87016666D01*
X89731400Y-87016666D02*
X89731400Y-87183333D01*
X89731400Y-87183333D02*
X89764733Y-87249999D01*
X89764733Y-87249999D02*
X89798066Y-87283333D01*
X89798066Y-87283333D02*
X89864733Y-87316666D01*
X89864733Y-87316666D02*
X90031400Y-87316666D01*
X90031400Y-87316666D02*
X90098066Y-87283333D01*
X90098066Y-87283333D02*
X90131400Y-87249999D01*
X90131400Y-87249999D02*
X90164733Y-87183333D01*
X90164733Y-87183333D02*
X90164733Y-87016666D01*
X90164733Y-87016666D02*
X90131400Y-86949999D01*
X90131400Y-86949999D02*
X90098066Y-86916666D01*
X89464733Y-87916666D02*
X89464733Y-87783333D01*
X89464733Y-87783333D02*
X89498066Y-87716666D01*
X89498066Y-87716666D02*
X89531400Y-87683333D01*
X89531400Y-87683333D02*
X89631400Y-87616666D01*
X89631400Y-87616666D02*
X89764733Y-87583333D01*
X89764733Y-87583333D02*
X90031400Y-87583333D01*
X90031400Y-87583333D02*
X90098066Y-87616666D01*
X90098066Y-87616666D02*
X90131400Y-87650000D01*
X90131400Y-87650000D02*
X90164733Y-87716666D01*
X90164733Y-87716666D02*
X90164733Y-87850000D01*
X90164733Y-87850000D02*
X90131400Y-87916666D01*
X90131400Y-87916666D02*
X90098066Y-87950000D01*
X90098066Y-87950000D02*
X90031400Y-87983333D01*
X90031400Y-87983333D02*
X89864733Y-87983333D01*
X89864733Y-87983333D02*
X89798066Y-87950000D01*
X89798066Y-87950000D02*
X89764733Y-87916666D01*
X89764733Y-87916666D02*
X89731400Y-87850000D01*
X89731400Y-87850000D02*
X89731400Y-87716666D01*
X89731400Y-87716666D02*
X89764733Y-87650000D01*
X89764733Y-87650000D02*
X89798066Y-87616666D01*
X89798066Y-87616666D02*
X89864733Y-87583333D01*
X99650000Y-87548066D02*
X99683333Y-87581400D01*
X99683333Y-87581400D02*
X99783333Y-87614733D01*
X99783333Y-87614733D02*
X99850000Y-87614733D01*
X99850000Y-87614733D02*
X99950000Y-87581400D01*
X99950000Y-87581400D02*
X100016667Y-87514733D01*
X100016667Y-87514733D02*
X100050000Y-87448066D01*
X100050000Y-87448066D02*
X100083333Y-87314733D01*
X100083333Y-87314733D02*
X100083333Y-87214733D01*
X100083333Y-87214733D02*
X100050000Y-87081400D01*
X100050000Y-87081400D02*
X100016667Y-87014733D01*
X100016667Y-87014733D02*
X99950000Y-86948066D01*
X99950000Y-86948066D02*
X99850000Y-86914733D01*
X99850000Y-86914733D02*
X99783333Y-86914733D01*
X99783333Y-86914733D02*
X99683333Y-86948066D01*
X99683333Y-86948066D02*
X99650000Y-86981400D01*
X99050000Y-86914733D02*
X99183333Y-86914733D01*
X99183333Y-86914733D02*
X99250000Y-86948066D01*
X99250000Y-86948066D02*
X99283333Y-86981400D01*
X99283333Y-86981400D02*
X99350000Y-87081400D01*
X99350000Y-87081400D02*
X99383333Y-87214733D01*
X99383333Y-87214733D02*
X99383333Y-87481400D01*
X99383333Y-87481400D02*
X99350000Y-87548066D01*
X99350000Y-87548066D02*
X99316667Y-87581400D01*
X99316667Y-87581400D02*
X99250000Y-87614733D01*
X99250000Y-87614733D02*
X99116667Y-87614733D01*
X99116667Y-87614733D02*
X99050000Y-87581400D01*
X99050000Y-87581400D02*
X99016667Y-87548066D01*
X99016667Y-87548066D02*
X98983333Y-87481400D01*
X98983333Y-87481400D02*
X98983333Y-87314733D01*
X98983333Y-87314733D02*
X99016667Y-87248066D01*
X99016667Y-87248066D02*
X99050000Y-87214733D01*
X99050000Y-87214733D02*
X99116667Y-87181400D01*
X99116667Y-87181400D02*
X99250000Y-87181400D01*
X99250000Y-87181400D02*
X99316667Y-87214733D01*
X99316667Y-87214733D02*
X99350000Y-87248066D01*
X99350000Y-87248066D02*
X99383333Y-87314733D01*
X98550000Y-86914733D02*
X98483333Y-86914733D01*
X98483333Y-86914733D02*
X98416666Y-86948066D01*
X98416666Y-86948066D02*
X98383333Y-86981400D01*
X98383333Y-86981400D02*
X98350000Y-87048066D01*
X98350000Y-87048066D02*
X98316666Y-87181400D01*
X98316666Y-87181400D02*
X98316666Y-87348066D01*
X98316666Y-87348066D02*
X98350000Y-87481400D01*
X98350000Y-87481400D02*
X98383333Y-87548066D01*
X98383333Y-87548066D02*
X98416666Y-87581400D01*
X98416666Y-87581400D02*
X98483333Y-87614733D01*
X98483333Y-87614733D02*
X98550000Y-87614733D01*
X98550000Y-87614733D02*
X98616666Y-87581400D01*
X98616666Y-87581400D02*
X98650000Y-87548066D01*
X98650000Y-87548066D02*
X98683333Y-87481400D01*
X98683333Y-87481400D02*
X98716666Y-87348066D01*
X98716666Y-87348066D02*
X98716666Y-87181400D01*
X98716666Y-87181400D02*
X98683333Y-87048066D01*
X98683333Y-87048066D02*
X98650000Y-86981400D01*
X98650000Y-86981400D02*
X98616666Y-86948066D01*
X98616666Y-86948066D02*
X98550000Y-86914733D01*
X91500000Y-89798066D02*
X91533333Y-89831400D01*
X91533333Y-89831400D02*
X91633333Y-89864733D01*
X91633333Y-89864733D02*
X91700000Y-89864733D01*
X91700000Y-89864733D02*
X91800000Y-89831400D01*
X91800000Y-89831400D02*
X91866667Y-89764733D01*
X91866667Y-89764733D02*
X91900000Y-89698066D01*
X91900000Y-89698066D02*
X91933333Y-89564733D01*
X91933333Y-89564733D02*
X91933333Y-89464733D01*
X91933333Y-89464733D02*
X91900000Y-89331400D01*
X91900000Y-89331400D02*
X91866667Y-89264733D01*
X91866667Y-89264733D02*
X91800000Y-89198066D01*
X91800000Y-89198066D02*
X91700000Y-89164733D01*
X91700000Y-89164733D02*
X91633333Y-89164733D01*
X91633333Y-89164733D02*
X91533333Y-89198066D01*
X91533333Y-89198066D02*
X91500000Y-89231400D01*
X90866667Y-89164733D02*
X91200000Y-89164733D01*
X91200000Y-89164733D02*
X91233333Y-89498066D01*
X91233333Y-89498066D02*
X91200000Y-89464733D01*
X91200000Y-89464733D02*
X91133333Y-89431400D01*
X91133333Y-89431400D02*
X90966667Y-89431400D01*
X90966667Y-89431400D02*
X90900000Y-89464733D01*
X90900000Y-89464733D02*
X90866667Y-89498066D01*
X90866667Y-89498066D02*
X90833333Y-89564733D01*
X90833333Y-89564733D02*
X90833333Y-89731400D01*
X90833333Y-89731400D02*
X90866667Y-89798066D01*
X90866667Y-89798066D02*
X90900000Y-89831400D01*
X90900000Y-89831400D02*
X90966667Y-89864733D01*
X90966667Y-89864733D02*
X91133333Y-89864733D01*
X91133333Y-89864733D02*
X91200000Y-89831400D01*
X91200000Y-89831400D02*
X91233333Y-89798066D01*
X90166666Y-89864733D02*
X90566666Y-89864733D01*
X90366666Y-89864733D02*
X90366666Y-89164733D01*
X90366666Y-89164733D02*
X90433333Y-89264733D01*
X90433333Y-89264733D02*
X90500000Y-89331400D01*
X90500000Y-89331400D02*
X90566666Y-89364733D01*
X89198066Y-86649999D02*
X89231400Y-86616666D01*
X89231400Y-86616666D02*
X89264733Y-86516666D01*
X89264733Y-86516666D02*
X89264733Y-86449999D01*
X89264733Y-86449999D02*
X89231400Y-86349999D01*
X89231400Y-86349999D02*
X89164733Y-86283333D01*
X89164733Y-86283333D02*
X89098066Y-86249999D01*
X89098066Y-86249999D02*
X88964733Y-86216666D01*
X88964733Y-86216666D02*
X88864733Y-86216666D01*
X88864733Y-86216666D02*
X88731400Y-86249999D01*
X88731400Y-86249999D02*
X88664733Y-86283333D01*
X88664733Y-86283333D02*
X88598066Y-86349999D01*
X88598066Y-86349999D02*
X88564733Y-86449999D01*
X88564733Y-86449999D02*
X88564733Y-86516666D01*
X88564733Y-86516666D02*
X88598066Y-86616666D01*
X88598066Y-86616666D02*
X88631400Y-86649999D01*
X88564733Y-87283333D02*
X88564733Y-86949999D01*
X88564733Y-86949999D02*
X88898066Y-86916666D01*
X88898066Y-86916666D02*
X88864733Y-86949999D01*
X88864733Y-86949999D02*
X88831400Y-87016666D01*
X88831400Y-87016666D02*
X88831400Y-87183333D01*
X88831400Y-87183333D02*
X88864733Y-87249999D01*
X88864733Y-87249999D02*
X88898066Y-87283333D01*
X88898066Y-87283333D02*
X88964733Y-87316666D01*
X88964733Y-87316666D02*
X89131400Y-87316666D01*
X89131400Y-87316666D02*
X89198066Y-87283333D01*
X89198066Y-87283333D02*
X89231400Y-87249999D01*
X89231400Y-87249999D02*
X89264733Y-87183333D01*
X89264733Y-87183333D02*
X89264733Y-87016666D01*
X89264733Y-87016666D02*
X89231400Y-86949999D01*
X89231400Y-86949999D02*
X89198066Y-86916666D01*
X88564733Y-87550000D02*
X88564733Y-88016666D01*
X88564733Y-88016666D02*
X89264733Y-87716666D01*
X95148066Y-86949999D02*
X95181400Y-86916666D01*
X95181400Y-86916666D02*
X95214733Y-86816666D01*
X95214733Y-86816666D02*
X95214733Y-86749999D01*
X95214733Y-86749999D02*
X95181400Y-86649999D01*
X95181400Y-86649999D02*
X95114733Y-86583333D01*
X95114733Y-86583333D02*
X95048066Y-86549999D01*
X95048066Y-86549999D02*
X94914733Y-86516666D01*
X94914733Y-86516666D02*
X94814733Y-86516666D01*
X94814733Y-86516666D02*
X94681400Y-86549999D01*
X94681400Y-86549999D02*
X94614733Y-86583333D01*
X94614733Y-86583333D02*
X94548066Y-86649999D01*
X94548066Y-86649999D02*
X94514733Y-86749999D01*
X94514733Y-86749999D02*
X94514733Y-86816666D01*
X94514733Y-86816666D02*
X94548066Y-86916666D01*
X94548066Y-86916666D02*
X94581400Y-86949999D01*
X94748066Y-87549999D02*
X95214733Y-87549999D01*
X94481400Y-87383333D02*
X94981400Y-87216666D01*
X94981400Y-87216666D02*
X94981400Y-87649999D01*
X95214733Y-87950000D02*
X95214733Y-88083333D01*
X95214733Y-88083333D02*
X95181400Y-88150000D01*
X95181400Y-88150000D02*
X95148066Y-88183333D01*
X95148066Y-88183333D02*
X95048066Y-88250000D01*
X95048066Y-88250000D02*
X94914733Y-88283333D01*
X94914733Y-88283333D02*
X94648066Y-88283333D01*
X94648066Y-88283333D02*
X94581400Y-88250000D01*
X94581400Y-88250000D02*
X94548066Y-88216666D01*
X94548066Y-88216666D02*
X94514733Y-88150000D01*
X94514733Y-88150000D02*
X94514733Y-88016666D01*
X94514733Y-88016666D02*
X94548066Y-87950000D01*
X94548066Y-87950000D02*
X94581400Y-87916666D01*
X94581400Y-87916666D02*
X94648066Y-87883333D01*
X94648066Y-87883333D02*
X94814733Y-87883333D01*
X94814733Y-87883333D02*
X94881400Y-87916666D01*
X94881400Y-87916666D02*
X94914733Y-87950000D01*
X94914733Y-87950000D02*
X94948066Y-88016666D01*
X94948066Y-88016666D02*
X94948066Y-88150000D01*
X94948066Y-88150000D02*
X94914733Y-88216666D01*
X94914733Y-88216666D02*
X94881400Y-88250000D01*
X94881400Y-88250000D02*
X94814733Y-88283333D01*
X99700000Y-89598066D02*
X99733333Y-89631400D01*
X99733333Y-89631400D02*
X99833333Y-89664733D01*
X99833333Y-89664733D02*
X99900000Y-89664733D01*
X99900000Y-89664733D02*
X100000000Y-89631400D01*
X100000000Y-89631400D02*
X100066667Y-89564733D01*
X100066667Y-89564733D02*
X100100000Y-89498066D01*
X100100000Y-89498066D02*
X100133333Y-89364733D01*
X100133333Y-89364733D02*
X100133333Y-89264733D01*
X100133333Y-89264733D02*
X100100000Y-89131400D01*
X100100000Y-89131400D02*
X100066667Y-89064733D01*
X100066667Y-89064733D02*
X100000000Y-88998066D01*
X100000000Y-88998066D02*
X99900000Y-88964733D01*
X99900000Y-88964733D02*
X99833333Y-88964733D01*
X99833333Y-88964733D02*
X99733333Y-88998066D01*
X99733333Y-88998066D02*
X99700000Y-89031400D01*
X99100000Y-88964733D02*
X99233333Y-88964733D01*
X99233333Y-88964733D02*
X99300000Y-88998066D01*
X99300000Y-88998066D02*
X99333333Y-89031400D01*
X99333333Y-89031400D02*
X99400000Y-89131400D01*
X99400000Y-89131400D02*
X99433333Y-89264733D01*
X99433333Y-89264733D02*
X99433333Y-89531400D01*
X99433333Y-89531400D02*
X99400000Y-89598066D01*
X99400000Y-89598066D02*
X99366667Y-89631400D01*
X99366667Y-89631400D02*
X99300000Y-89664733D01*
X99300000Y-89664733D02*
X99166667Y-89664733D01*
X99166667Y-89664733D02*
X99100000Y-89631400D01*
X99100000Y-89631400D02*
X99066667Y-89598066D01*
X99066667Y-89598066D02*
X99033333Y-89531400D01*
X99033333Y-89531400D02*
X99033333Y-89364733D01*
X99033333Y-89364733D02*
X99066667Y-89298066D01*
X99066667Y-89298066D02*
X99100000Y-89264733D01*
X99100000Y-89264733D02*
X99166667Y-89231400D01*
X99166667Y-89231400D02*
X99300000Y-89231400D01*
X99300000Y-89231400D02*
X99366667Y-89264733D01*
X99366667Y-89264733D02*
X99400000Y-89298066D01*
X99400000Y-89298066D02*
X99433333Y-89364733D01*
X98433333Y-89198066D02*
X98433333Y-89664733D01*
X98600000Y-88931400D02*
X98766666Y-89431400D01*
X98766666Y-89431400D02*
X98333333Y-89431400D01*
X97680000Y-91608066D02*
X97713333Y-91641400D01*
X97713333Y-91641400D02*
X97813333Y-91674733D01*
X97813333Y-91674733D02*
X97880000Y-91674733D01*
X97880000Y-91674733D02*
X97980000Y-91641400D01*
X97980000Y-91641400D02*
X98046667Y-91574733D01*
X98046667Y-91574733D02*
X98080000Y-91508066D01*
X98080000Y-91508066D02*
X98113333Y-91374733D01*
X98113333Y-91374733D02*
X98113333Y-91274733D01*
X98113333Y-91274733D02*
X98080000Y-91141400D01*
X98080000Y-91141400D02*
X98046667Y-91074733D01*
X98046667Y-91074733D02*
X97980000Y-91008066D01*
X97980000Y-91008066D02*
X97880000Y-90974733D01*
X97880000Y-90974733D02*
X97813333Y-90974733D01*
X97813333Y-90974733D02*
X97713333Y-91008066D01*
X97713333Y-91008066D02*
X97680000Y-91041400D01*
X97080000Y-90974733D02*
X97213333Y-90974733D01*
X97213333Y-90974733D02*
X97280000Y-91008066D01*
X97280000Y-91008066D02*
X97313333Y-91041400D01*
X97313333Y-91041400D02*
X97380000Y-91141400D01*
X97380000Y-91141400D02*
X97413333Y-91274733D01*
X97413333Y-91274733D02*
X97413333Y-91541400D01*
X97413333Y-91541400D02*
X97380000Y-91608066D01*
X97380000Y-91608066D02*
X97346667Y-91641400D01*
X97346667Y-91641400D02*
X97280000Y-91674733D01*
X97280000Y-91674733D02*
X97146667Y-91674733D01*
X97146667Y-91674733D02*
X97080000Y-91641400D01*
X97080000Y-91641400D02*
X97046667Y-91608066D01*
X97046667Y-91608066D02*
X97013333Y-91541400D01*
X97013333Y-91541400D02*
X97013333Y-91374733D01*
X97013333Y-91374733D02*
X97046667Y-91308066D01*
X97046667Y-91308066D02*
X97080000Y-91274733D01*
X97080000Y-91274733D02*
X97146667Y-91241400D01*
X97146667Y-91241400D02*
X97280000Y-91241400D01*
X97280000Y-91241400D02*
X97346667Y-91274733D01*
X97346667Y-91274733D02*
X97380000Y-91308066D01*
X97380000Y-91308066D02*
X97413333Y-91374733D01*
X96380000Y-90974733D02*
X96713333Y-90974733D01*
X96713333Y-90974733D02*
X96746666Y-91308066D01*
X96746666Y-91308066D02*
X96713333Y-91274733D01*
X96713333Y-91274733D02*
X96646666Y-91241400D01*
X96646666Y-91241400D02*
X96480000Y-91241400D01*
X96480000Y-91241400D02*
X96413333Y-91274733D01*
X96413333Y-91274733D02*
X96380000Y-91308066D01*
X96380000Y-91308066D02*
X96346666Y-91374733D01*
X96346666Y-91374733D02*
X96346666Y-91541400D01*
X96346666Y-91541400D02*
X96380000Y-91608066D01*
X96380000Y-91608066D02*
X96413333Y-91641400D01*
X96413333Y-91641400D02*
X96480000Y-91674733D01*
X96480000Y-91674733D02*
X96646666Y-91674733D01*
X96646666Y-91674733D02*
X96713333Y-91641400D01*
X96713333Y-91641400D02*
X96746666Y-91608066D01*
X93348066Y-81949999D02*
X93381400Y-81916666D01*
X93381400Y-81916666D02*
X93414733Y-81816666D01*
X93414733Y-81816666D02*
X93414733Y-81749999D01*
X93414733Y-81749999D02*
X93381400Y-81649999D01*
X93381400Y-81649999D02*
X93314733Y-81583333D01*
X93314733Y-81583333D02*
X93248066Y-81549999D01*
X93248066Y-81549999D02*
X93114733Y-81516666D01*
X93114733Y-81516666D02*
X93014733Y-81516666D01*
X93014733Y-81516666D02*
X92881400Y-81549999D01*
X92881400Y-81549999D02*
X92814733Y-81583333D01*
X92814733Y-81583333D02*
X92748066Y-81649999D01*
X92748066Y-81649999D02*
X92714733Y-81749999D01*
X92714733Y-81749999D02*
X92714733Y-81816666D01*
X92714733Y-81816666D02*
X92748066Y-81916666D01*
X92748066Y-81916666D02*
X92781400Y-81949999D01*
X92714733Y-82583333D02*
X92714733Y-82249999D01*
X92714733Y-82249999D02*
X93048066Y-82216666D01*
X93048066Y-82216666D02*
X93014733Y-82249999D01*
X93014733Y-82249999D02*
X92981400Y-82316666D01*
X92981400Y-82316666D02*
X92981400Y-82483333D01*
X92981400Y-82483333D02*
X93014733Y-82549999D01*
X93014733Y-82549999D02*
X93048066Y-82583333D01*
X93048066Y-82583333D02*
X93114733Y-82616666D01*
X93114733Y-82616666D02*
X93281400Y-82616666D01*
X93281400Y-82616666D02*
X93348066Y-82583333D01*
X93348066Y-82583333D02*
X93381400Y-82549999D01*
X93381400Y-82549999D02*
X93414733Y-82483333D01*
X93414733Y-82483333D02*
X93414733Y-82316666D01*
X93414733Y-82316666D02*
X93381400Y-82249999D01*
X93381400Y-82249999D02*
X93348066Y-82216666D01*
X93014733Y-83016666D02*
X92981400Y-82950000D01*
X92981400Y-82950000D02*
X92948066Y-82916666D01*
X92948066Y-82916666D02*
X92881400Y-82883333D01*
X92881400Y-82883333D02*
X92848066Y-82883333D01*
X92848066Y-82883333D02*
X92781400Y-82916666D01*
X92781400Y-82916666D02*
X92748066Y-82950000D01*
X92748066Y-82950000D02*
X92714733Y-83016666D01*
X92714733Y-83016666D02*
X92714733Y-83150000D01*
X92714733Y-83150000D02*
X92748066Y-83216666D01*
X92748066Y-83216666D02*
X92781400Y-83250000D01*
X92781400Y-83250000D02*
X92848066Y-83283333D01*
X92848066Y-83283333D02*
X92881400Y-83283333D01*
X92881400Y-83283333D02*
X92948066Y-83250000D01*
X92948066Y-83250000D02*
X92981400Y-83216666D01*
X92981400Y-83216666D02*
X93014733Y-83150000D01*
X93014733Y-83150000D02*
X93014733Y-83016666D01*
X93014733Y-83016666D02*
X93048066Y-82950000D01*
X93048066Y-82950000D02*
X93081400Y-82916666D01*
X93081400Y-82916666D02*
X93148066Y-82883333D01*
X93148066Y-82883333D02*
X93281400Y-82883333D01*
X93281400Y-82883333D02*
X93348066Y-82916666D01*
X93348066Y-82916666D02*
X93381400Y-82950000D01*
X93381400Y-82950000D02*
X93414733Y-83016666D01*
X93414733Y-83016666D02*
X93414733Y-83150000D01*
X93414733Y-83150000D02*
X93381400Y-83216666D01*
X93381400Y-83216666D02*
X93348066Y-83250000D01*
X93348066Y-83250000D02*
X93281400Y-83283333D01*
X93281400Y-83283333D02*
X93148066Y-83283333D01*
X93148066Y-83283333D02*
X93081400Y-83250000D01*
X93081400Y-83250000D02*
X93048066Y-83216666D01*
X93048066Y-83216666D02*
X93014733Y-83150000D01*
X84216666Y-90166733D02*
X83816666Y-90166733D01*
X84016666Y-90866733D02*
X84016666Y-90166733D01*
X83583333Y-90866733D02*
X83583333Y-90166733D01*
X83583333Y-90166733D02*
X83316666Y-90166733D01*
X83316666Y-90166733D02*
X83250000Y-90200066D01*
X83250000Y-90200066D02*
X83216666Y-90233400D01*
X83216666Y-90233400D02*
X83183333Y-90300066D01*
X83183333Y-90300066D02*
X83183333Y-90400066D01*
X83183333Y-90400066D02*
X83216666Y-90466733D01*
X83216666Y-90466733D02*
X83250000Y-90500066D01*
X83250000Y-90500066D02*
X83316666Y-90533400D01*
X83316666Y-90533400D02*
X83583333Y-90533400D01*
X82516666Y-90866733D02*
X82916666Y-90866733D01*
X82716666Y-90866733D02*
X82716666Y-90166733D01*
X82716666Y-90166733D02*
X82783333Y-90266733D01*
X82783333Y-90266733D02*
X82850000Y-90333400D01*
X82850000Y-90333400D02*
X82916666Y-90366733D01*
X81849999Y-90866733D02*
X82249999Y-90866733D01*
X82049999Y-90866733D02*
X82049999Y-90166733D01*
X82049999Y-90166733D02*
X82116666Y-90266733D01*
X82116666Y-90266733D02*
X82183333Y-90333400D01*
X82183333Y-90333400D02*
X82249999Y-90366733D01*
X84216666Y-87116733D02*
X83816666Y-87116733D01*
X84016666Y-87816733D02*
X84016666Y-87116733D01*
X83583333Y-87816733D02*
X83583333Y-87116733D01*
X83583333Y-87116733D02*
X83316666Y-87116733D01*
X83316666Y-87116733D02*
X83250000Y-87150066D01*
X83250000Y-87150066D02*
X83216666Y-87183400D01*
X83216666Y-87183400D02*
X83183333Y-87250066D01*
X83183333Y-87250066D02*
X83183333Y-87350066D01*
X83183333Y-87350066D02*
X83216666Y-87416733D01*
X83216666Y-87416733D02*
X83250000Y-87450066D01*
X83250000Y-87450066D02*
X83316666Y-87483400D01*
X83316666Y-87483400D02*
X83583333Y-87483400D01*
X82516666Y-87816733D02*
X82916666Y-87816733D01*
X82716666Y-87816733D02*
X82716666Y-87116733D01*
X82716666Y-87116733D02*
X82783333Y-87216733D01*
X82783333Y-87216733D02*
X82850000Y-87283400D01*
X82850000Y-87283400D02*
X82916666Y-87316733D01*
X82083333Y-87116733D02*
X82016666Y-87116733D01*
X82016666Y-87116733D02*
X81949999Y-87150066D01*
X81949999Y-87150066D02*
X81916666Y-87183400D01*
X81916666Y-87183400D02*
X81883333Y-87250066D01*
X81883333Y-87250066D02*
X81849999Y-87383400D01*
X81849999Y-87383400D02*
X81849999Y-87550066D01*
X81849999Y-87550066D02*
X81883333Y-87683400D01*
X81883333Y-87683400D02*
X81916666Y-87750066D01*
X81916666Y-87750066D02*
X81949999Y-87783400D01*
X81949999Y-87783400D02*
X82016666Y-87816733D01*
X82016666Y-87816733D02*
X82083333Y-87816733D01*
X82083333Y-87816733D02*
X82149999Y-87783400D01*
X82149999Y-87783400D02*
X82183333Y-87750066D01*
X82183333Y-87750066D02*
X82216666Y-87683400D01*
X82216666Y-87683400D02*
X82249999Y-87550066D01*
X82249999Y-87550066D02*
X82249999Y-87383400D01*
X82249999Y-87383400D02*
X82216666Y-87250066D01*
X82216666Y-87250066D02*
X82183333Y-87183400D01*
X82183333Y-87183400D02*
X82149999Y-87150066D01*
X82149999Y-87150066D02*
X82083333Y-87116733D01*
X88248066Y-86699999D02*
X88281400Y-86666666D01*
X88281400Y-86666666D02*
X88314733Y-86566666D01*
X88314733Y-86566666D02*
X88314733Y-86499999D01*
X88314733Y-86499999D02*
X88281400Y-86399999D01*
X88281400Y-86399999D02*
X88214733Y-86333333D01*
X88214733Y-86333333D02*
X88148066Y-86299999D01*
X88148066Y-86299999D02*
X88014733Y-86266666D01*
X88014733Y-86266666D02*
X87914733Y-86266666D01*
X87914733Y-86266666D02*
X87781400Y-86299999D01*
X87781400Y-86299999D02*
X87714733Y-86333333D01*
X87714733Y-86333333D02*
X87648066Y-86399999D01*
X87648066Y-86399999D02*
X87614733Y-86499999D01*
X87614733Y-86499999D02*
X87614733Y-86566666D01*
X87614733Y-86566666D02*
X87648066Y-86666666D01*
X87648066Y-86666666D02*
X87681400Y-86699999D01*
X87614733Y-87299999D02*
X87614733Y-87166666D01*
X87614733Y-87166666D02*
X87648066Y-87099999D01*
X87648066Y-87099999D02*
X87681400Y-87066666D01*
X87681400Y-87066666D02*
X87781400Y-86999999D01*
X87781400Y-86999999D02*
X87914733Y-86966666D01*
X87914733Y-86966666D02*
X88181400Y-86966666D01*
X88181400Y-86966666D02*
X88248066Y-86999999D01*
X88248066Y-86999999D02*
X88281400Y-87033333D01*
X88281400Y-87033333D02*
X88314733Y-87099999D01*
X88314733Y-87099999D02*
X88314733Y-87233333D01*
X88314733Y-87233333D02*
X88281400Y-87299999D01*
X88281400Y-87299999D02*
X88248066Y-87333333D01*
X88248066Y-87333333D02*
X88181400Y-87366666D01*
X88181400Y-87366666D02*
X88014733Y-87366666D01*
X88014733Y-87366666D02*
X87948066Y-87333333D01*
X87948066Y-87333333D02*
X87914733Y-87299999D01*
X87914733Y-87299999D02*
X87881400Y-87233333D01*
X87881400Y-87233333D02*
X87881400Y-87099999D01*
X87881400Y-87099999D02*
X87914733Y-87033333D01*
X87914733Y-87033333D02*
X87948066Y-86999999D01*
X87948066Y-86999999D02*
X88014733Y-86966666D01*
X87614733Y-87600000D02*
X87614733Y-88066666D01*
X87614733Y-88066666D02*
X88314733Y-87766666D01*
X95348066Y-81899999D02*
X95381400Y-81866666D01*
X95381400Y-81866666D02*
X95414733Y-81766666D01*
X95414733Y-81766666D02*
X95414733Y-81699999D01*
X95414733Y-81699999D02*
X95381400Y-81599999D01*
X95381400Y-81599999D02*
X95314733Y-81533333D01*
X95314733Y-81533333D02*
X95248066Y-81499999D01*
X95248066Y-81499999D02*
X95114733Y-81466666D01*
X95114733Y-81466666D02*
X95014733Y-81466666D01*
X95014733Y-81466666D02*
X94881400Y-81499999D01*
X94881400Y-81499999D02*
X94814733Y-81533333D01*
X94814733Y-81533333D02*
X94748066Y-81599999D01*
X94748066Y-81599999D02*
X94714733Y-81699999D01*
X94714733Y-81699999D02*
X94714733Y-81766666D01*
X94714733Y-81766666D02*
X94748066Y-81866666D01*
X94748066Y-81866666D02*
X94781400Y-81899999D01*
X94948066Y-82499999D02*
X95414733Y-82499999D01*
X94681400Y-82333333D02*
X95181400Y-82166666D01*
X95181400Y-82166666D02*
X95181400Y-82599999D01*
X95014733Y-82966666D02*
X94981400Y-82900000D01*
X94981400Y-82900000D02*
X94948066Y-82866666D01*
X94948066Y-82866666D02*
X94881400Y-82833333D01*
X94881400Y-82833333D02*
X94848066Y-82833333D01*
X94848066Y-82833333D02*
X94781400Y-82866666D01*
X94781400Y-82866666D02*
X94748066Y-82900000D01*
X94748066Y-82900000D02*
X94714733Y-82966666D01*
X94714733Y-82966666D02*
X94714733Y-83100000D01*
X94714733Y-83100000D02*
X94748066Y-83166666D01*
X94748066Y-83166666D02*
X94781400Y-83200000D01*
X94781400Y-83200000D02*
X94848066Y-83233333D01*
X94848066Y-83233333D02*
X94881400Y-83233333D01*
X94881400Y-83233333D02*
X94948066Y-83200000D01*
X94948066Y-83200000D02*
X94981400Y-83166666D01*
X94981400Y-83166666D02*
X95014733Y-83100000D01*
X95014733Y-83100000D02*
X95014733Y-82966666D01*
X95014733Y-82966666D02*
X95048066Y-82900000D01*
X95048066Y-82900000D02*
X95081400Y-82866666D01*
X95081400Y-82866666D02*
X95148066Y-82833333D01*
X95148066Y-82833333D02*
X95281400Y-82833333D01*
X95281400Y-82833333D02*
X95348066Y-82866666D01*
X95348066Y-82866666D02*
X95381400Y-82900000D01*
X95381400Y-82900000D02*
X95414733Y-82966666D01*
X95414733Y-82966666D02*
X95414733Y-83100000D01*
X95414733Y-83100000D02*
X95381400Y-83166666D01*
X95381400Y-83166666D02*
X95348066Y-83200000D01*
X95348066Y-83200000D02*
X95281400Y-83233333D01*
X95281400Y-83233333D02*
X95148066Y-83233333D01*
X95148066Y-83233333D02*
X95081400Y-83200000D01*
X95081400Y-83200000D02*
X95048066Y-83166666D01*
X95048066Y-83166666D02*
X95014733Y-83100000D01*
X99700000Y-88598066D02*
X99733333Y-88631400D01*
X99733333Y-88631400D02*
X99833333Y-88664733D01*
X99833333Y-88664733D02*
X99900000Y-88664733D01*
X99900000Y-88664733D02*
X100000000Y-88631400D01*
X100000000Y-88631400D02*
X100066667Y-88564733D01*
X100066667Y-88564733D02*
X100100000Y-88498066D01*
X100100000Y-88498066D02*
X100133333Y-88364733D01*
X100133333Y-88364733D02*
X100133333Y-88264733D01*
X100133333Y-88264733D02*
X100100000Y-88131400D01*
X100100000Y-88131400D02*
X100066667Y-88064733D01*
X100066667Y-88064733D02*
X100000000Y-87998066D01*
X100000000Y-87998066D02*
X99900000Y-87964733D01*
X99900000Y-87964733D02*
X99833333Y-87964733D01*
X99833333Y-87964733D02*
X99733333Y-87998066D01*
X99733333Y-87998066D02*
X99700000Y-88031400D01*
X99100000Y-87964733D02*
X99233333Y-87964733D01*
X99233333Y-87964733D02*
X99300000Y-87998066D01*
X99300000Y-87998066D02*
X99333333Y-88031400D01*
X99333333Y-88031400D02*
X99400000Y-88131400D01*
X99400000Y-88131400D02*
X99433333Y-88264733D01*
X99433333Y-88264733D02*
X99433333Y-88531400D01*
X99433333Y-88531400D02*
X99400000Y-88598066D01*
X99400000Y-88598066D02*
X99366667Y-88631400D01*
X99366667Y-88631400D02*
X99300000Y-88664733D01*
X99300000Y-88664733D02*
X99166667Y-88664733D01*
X99166667Y-88664733D02*
X99100000Y-88631400D01*
X99100000Y-88631400D02*
X99066667Y-88598066D01*
X99066667Y-88598066D02*
X99033333Y-88531400D01*
X99033333Y-88531400D02*
X99033333Y-88364733D01*
X99033333Y-88364733D02*
X99066667Y-88298066D01*
X99066667Y-88298066D02*
X99100000Y-88264733D01*
X99100000Y-88264733D02*
X99166667Y-88231400D01*
X99166667Y-88231400D02*
X99300000Y-88231400D01*
X99300000Y-88231400D02*
X99366667Y-88264733D01*
X99366667Y-88264733D02*
X99400000Y-88298066D01*
X99400000Y-88298066D02*
X99433333Y-88364733D01*
X98366666Y-88664733D02*
X98766666Y-88664733D01*
X98566666Y-88664733D02*
X98566666Y-87964733D01*
X98566666Y-87964733D02*
X98633333Y-88064733D01*
X98633333Y-88064733D02*
X98700000Y-88131400D01*
X98700000Y-88131400D02*
X98766666Y-88164733D01*
X93948066Y-91149999D02*
X93981400Y-91116666D01*
X93981400Y-91116666D02*
X94014733Y-91016666D01*
X94014733Y-91016666D02*
X94014733Y-90949999D01*
X94014733Y-90949999D02*
X93981400Y-90849999D01*
X93981400Y-90849999D02*
X93914733Y-90783333D01*
X93914733Y-90783333D02*
X93848066Y-90749999D01*
X93848066Y-90749999D02*
X93714733Y-90716666D01*
X93714733Y-90716666D02*
X93614733Y-90716666D01*
X93614733Y-90716666D02*
X93481400Y-90749999D01*
X93481400Y-90749999D02*
X93414733Y-90783333D01*
X93414733Y-90783333D02*
X93348066Y-90849999D01*
X93348066Y-90849999D02*
X93314733Y-90949999D01*
X93314733Y-90949999D02*
X93314733Y-91016666D01*
X93314733Y-91016666D02*
X93348066Y-91116666D01*
X93348066Y-91116666D02*
X93381400Y-91149999D01*
X93314733Y-91783333D02*
X93314733Y-91449999D01*
X93314733Y-91449999D02*
X93648066Y-91416666D01*
X93648066Y-91416666D02*
X93614733Y-91449999D01*
X93614733Y-91449999D02*
X93581400Y-91516666D01*
X93581400Y-91516666D02*
X93581400Y-91683333D01*
X93581400Y-91683333D02*
X93614733Y-91749999D01*
X93614733Y-91749999D02*
X93648066Y-91783333D01*
X93648066Y-91783333D02*
X93714733Y-91816666D01*
X93714733Y-91816666D02*
X93881400Y-91816666D01*
X93881400Y-91816666D02*
X93948066Y-91783333D01*
X93948066Y-91783333D02*
X93981400Y-91749999D01*
X93981400Y-91749999D02*
X94014733Y-91683333D01*
X94014733Y-91683333D02*
X94014733Y-91516666D01*
X94014733Y-91516666D02*
X93981400Y-91449999D01*
X93981400Y-91449999D02*
X93948066Y-91416666D01*
X93314733Y-92250000D02*
X93314733Y-92316666D01*
X93314733Y-92316666D02*
X93348066Y-92383333D01*
X93348066Y-92383333D02*
X93381400Y-92416666D01*
X93381400Y-92416666D02*
X93448066Y-92450000D01*
X93448066Y-92450000D02*
X93581400Y-92483333D01*
X93581400Y-92483333D02*
X93748066Y-92483333D01*
X93748066Y-92483333D02*
X93881400Y-92450000D01*
X93881400Y-92450000D02*
X93948066Y-92416666D01*
X93948066Y-92416666D02*
X93981400Y-92383333D01*
X93981400Y-92383333D02*
X94014733Y-92316666D01*
X94014733Y-92316666D02*
X94014733Y-92250000D01*
X94014733Y-92250000D02*
X93981400Y-92183333D01*
X93981400Y-92183333D02*
X93948066Y-92150000D01*
X93948066Y-92150000D02*
X93881400Y-92116666D01*
X93881400Y-92116666D02*
X93748066Y-92083333D01*
X93748066Y-92083333D02*
X93581400Y-92083333D01*
X93581400Y-92083333D02*
X93448066Y-92116666D01*
X93448066Y-92116666D02*
X93381400Y-92150000D01*
X93381400Y-92150000D02*
X93348066Y-92183333D01*
X93348066Y-92183333D02*
X93314733Y-92250000D01*
X99300000Y-85598066D02*
X99333333Y-85631400D01*
X99333333Y-85631400D02*
X99433333Y-85664733D01*
X99433333Y-85664733D02*
X99500000Y-85664733D01*
X99500000Y-85664733D02*
X99600000Y-85631400D01*
X99600000Y-85631400D02*
X99666667Y-85564733D01*
X99666667Y-85564733D02*
X99700000Y-85498066D01*
X99700000Y-85498066D02*
X99733333Y-85364733D01*
X99733333Y-85364733D02*
X99733333Y-85264733D01*
X99733333Y-85264733D02*
X99700000Y-85131400D01*
X99700000Y-85131400D02*
X99666667Y-85064733D01*
X99666667Y-85064733D02*
X99600000Y-84998066D01*
X99600000Y-84998066D02*
X99500000Y-84964733D01*
X99500000Y-84964733D02*
X99433333Y-84964733D01*
X99433333Y-84964733D02*
X99333333Y-84998066D01*
X99333333Y-84998066D02*
X99300000Y-85031400D01*
X98666667Y-84964733D02*
X99000000Y-84964733D01*
X99000000Y-84964733D02*
X99033333Y-85298066D01*
X99033333Y-85298066D02*
X99000000Y-85264733D01*
X99000000Y-85264733D02*
X98933333Y-85231400D01*
X98933333Y-85231400D02*
X98766667Y-85231400D01*
X98766667Y-85231400D02*
X98700000Y-85264733D01*
X98700000Y-85264733D02*
X98666667Y-85298066D01*
X98666667Y-85298066D02*
X98633333Y-85364733D01*
X98633333Y-85364733D02*
X98633333Y-85531400D01*
X98633333Y-85531400D02*
X98666667Y-85598066D01*
X98666667Y-85598066D02*
X98700000Y-85631400D01*
X98700000Y-85631400D02*
X98766667Y-85664733D01*
X98766667Y-85664733D02*
X98933333Y-85664733D01*
X98933333Y-85664733D02*
X99000000Y-85631400D01*
X99000000Y-85631400D02*
X99033333Y-85598066D01*
X98366666Y-85031400D02*
X98333333Y-84998066D01*
X98333333Y-84998066D02*
X98266666Y-84964733D01*
X98266666Y-84964733D02*
X98100000Y-84964733D01*
X98100000Y-84964733D02*
X98033333Y-84998066D01*
X98033333Y-84998066D02*
X98000000Y-85031400D01*
X98000000Y-85031400D02*
X97966666Y-85098066D01*
X97966666Y-85098066D02*
X97966666Y-85164733D01*
X97966666Y-85164733D02*
X98000000Y-85264733D01*
X98000000Y-85264733D02*
X98400000Y-85664733D01*
X98400000Y-85664733D02*
X97966666Y-85664733D01*
X93098066Y-88699999D02*
X93131400Y-88666666D01*
X93131400Y-88666666D02*
X93164733Y-88566666D01*
X93164733Y-88566666D02*
X93164733Y-88499999D01*
X93164733Y-88499999D02*
X93131400Y-88399999D01*
X93131400Y-88399999D02*
X93064733Y-88333333D01*
X93064733Y-88333333D02*
X92998066Y-88299999D01*
X92998066Y-88299999D02*
X92864733Y-88266666D01*
X92864733Y-88266666D02*
X92764733Y-88266666D01*
X92764733Y-88266666D02*
X92631400Y-88299999D01*
X92631400Y-88299999D02*
X92564733Y-88333333D01*
X92564733Y-88333333D02*
X92498066Y-88399999D01*
X92498066Y-88399999D02*
X92464733Y-88499999D01*
X92464733Y-88499999D02*
X92464733Y-88566666D01*
X92464733Y-88566666D02*
X92498066Y-88666666D01*
X92498066Y-88666666D02*
X92531400Y-88699999D01*
X92464733Y-89299999D02*
X92464733Y-89166666D01*
X92464733Y-89166666D02*
X92498066Y-89099999D01*
X92498066Y-89099999D02*
X92531400Y-89066666D01*
X92531400Y-89066666D02*
X92631400Y-88999999D01*
X92631400Y-88999999D02*
X92764733Y-88966666D01*
X92764733Y-88966666D02*
X93031400Y-88966666D01*
X93031400Y-88966666D02*
X93098066Y-88999999D01*
X93098066Y-88999999D02*
X93131400Y-89033333D01*
X93131400Y-89033333D02*
X93164733Y-89099999D01*
X93164733Y-89099999D02*
X93164733Y-89233333D01*
X93164733Y-89233333D02*
X93131400Y-89299999D01*
X93131400Y-89299999D02*
X93098066Y-89333333D01*
X93098066Y-89333333D02*
X93031400Y-89366666D01*
X93031400Y-89366666D02*
X92864733Y-89366666D01*
X92864733Y-89366666D02*
X92798066Y-89333333D01*
X92798066Y-89333333D02*
X92764733Y-89299999D01*
X92764733Y-89299999D02*
X92731400Y-89233333D01*
X92731400Y-89233333D02*
X92731400Y-89099999D01*
X92731400Y-89099999D02*
X92764733Y-89033333D01*
X92764733Y-89033333D02*
X92798066Y-88999999D01*
X92798066Y-88999999D02*
X92864733Y-88966666D01*
X92464733Y-89966666D02*
X92464733Y-89833333D01*
X92464733Y-89833333D02*
X92498066Y-89766666D01*
X92498066Y-89766666D02*
X92531400Y-89733333D01*
X92531400Y-89733333D02*
X92631400Y-89666666D01*
X92631400Y-89666666D02*
X92764733Y-89633333D01*
X92764733Y-89633333D02*
X93031400Y-89633333D01*
X93031400Y-89633333D02*
X93098066Y-89666666D01*
X93098066Y-89666666D02*
X93131400Y-89700000D01*
X93131400Y-89700000D02*
X93164733Y-89766666D01*
X93164733Y-89766666D02*
X93164733Y-89900000D01*
X93164733Y-89900000D02*
X93131400Y-89966666D01*
X93131400Y-89966666D02*
X93098066Y-90000000D01*
X93098066Y-90000000D02*
X93031400Y-90033333D01*
X93031400Y-90033333D02*
X92864733Y-90033333D01*
X92864733Y-90033333D02*
X92798066Y-90000000D01*
X92798066Y-90000000D02*
X92764733Y-89966666D01*
X92764733Y-89966666D02*
X92731400Y-89900000D01*
X92731400Y-89900000D02*
X92731400Y-89766666D01*
X92731400Y-89766666D02*
X92764733Y-89700000D01*
X92764733Y-89700000D02*
X92798066Y-89666666D01*
X92798066Y-89666666D02*
X92864733Y-89633333D01*
X91298066Y-81899999D02*
X91331400Y-81866666D01*
X91331400Y-81866666D02*
X91364733Y-81766666D01*
X91364733Y-81766666D02*
X91364733Y-81699999D01*
X91364733Y-81699999D02*
X91331400Y-81599999D01*
X91331400Y-81599999D02*
X91264733Y-81533333D01*
X91264733Y-81533333D02*
X91198066Y-81499999D01*
X91198066Y-81499999D02*
X91064733Y-81466666D01*
X91064733Y-81466666D02*
X90964733Y-81466666D01*
X90964733Y-81466666D02*
X90831400Y-81499999D01*
X90831400Y-81499999D02*
X90764733Y-81533333D01*
X90764733Y-81533333D02*
X90698066Y-81599999D01*
X90698066Y-81599999D02*
X90664733Y-81699999D01*
X90664733Y-81699999D02*
X90664733Y-81766666D01*
X90664733Y-81766666D02*
X90698066Y-81866666D01*
X90698066Y-81866666D02*
X90731400Y-81899999D01*
X90664733Y-82533333D02*
X90664733Y-82199999D01*
X90664733Y-82199999D02*
X90998066Y-82166666D01*
X90998066Y-82166666D02*
X90964733Y-82199999D01*
X90964733Y-82199999D02*
X90931400Y-82266666D01*
X90931400Y-82266666D02*
X90931400Y-82433333D01*
X90931400Y-82433333D02*
X90964733Y-82499999D01*
X90964733Y-82499999D02*
X90998066Y-82533333D01*
X90998066Y-82533333D02*
X91064733Y-82566666D01*
X91064733Y-82566666D02*
X91231400Y-82566666D01*
X91231400Y-82566666D02*
X91298066Y-82533333D01*
X91298066Y-82533333D02*
X91331400Y-82499999D01*
X91331400Y-82499999D02*
X91364733Y-82433333D01*
X91364733Y-82433333D02*
X91364733Y-82266666D01*
X91364733Y-82266666D02*
X91331400Y-82199999D01*
X91331400Y-82199999D02*
X91298066Y-82166666D01*
X90664733Y-82800000D02*
X90664733Y-83233333D01*
X90664733Y-83233333D02*
X90931400Y-83000000D01*
X90931400Y-83000000D02*
X90931400Y-83100000D01*
X90931400Y-83100000D02*
X90964733Y-83166666D01*
X90964733Y-83166666D02*
X90998066Y-83200000D01*
X90998066Y-83200000D02*
X91064733Y-83233333D01*
X91064733Y-83233333D02*
X91231400Y-83233333D01*
X91231400Y-83233333D02*
X91298066Y-83200000D01*
X91298066Y-83200000D02*
X91331400Y-83166666D01*
X91331400Y-83166666D02*
X91364733Y-83100000D01*
X91364733Y-83100000D02*
X91364733Y-82900000D01*
X91364733Y-82900000D02*
X91331400Y-82833333D01*
X91331400Y-82833333D02*
X91298066Y-82800000D01*
X99300000Y-84648066D02*
X99333333Y-84681400D01*
X99333333Y-84681400D02*
X99433333Y-84714733D01*
X99433333Y-84714733D02*
X99500000Y-84714733D01*
X99500000Y-84714733D02*
X99600000Y-84681400D01*
X99600000Y-84681400D02*
X99666667Y-84614733D01*
X99666667Y-84614733D02*
X99700000Y-84548066D01*
X99700000Y-84548066D02*
X99733333Y-84414733D01*
X99733333Y-84414733D02*
X99733333Y-84314733D01*
X99733333Y-84314733D02*
X99700000Y-84181400D01*
X99700000Y-84181400D02*
X99666667Y-84114733D01*
X99666667Y-84114733D02*
X99600000Y-84048066D01*
X99600000Y-84048066D02*
X99500000Y-84014733D01*
X99500000Y-84014733D02*
X99433333Y-84014733D01*
X99433333Y-84014733D02*
X99333333Y-84048066D01*
X99333333Y-84048066D02*
X99300000Y-84081400D01*
X98700000Y-84014733D02*
X98833333Y-84014733D01*
X98833333Y-84014733D02*
X98900000Y-84048066D01*
X98900000Y-84048066D02*
X98933333Y-84081400D01*
X98933333Y-84081400D02*
X99000000Y-84181400D01*
X99000000Y-84181400D02*
X99033333Y-84314733D01*
X99033333Y-84314733D02*
X99033333Y-84581400D01*
X99033333Y-84581400D02*
X99000000Y-84648066D01*
X99000000Y-84648066D02*
X98966667Y-84681400D01*
X98966667Y-84681400D02*
X98900000Y-84714733D01*
X98900000Y-84714733D02*
X98766667Y-84714733D01*
X98766667Y-84714733D02*
X98700000Y-84681400D01*
X98700000Y-84681400D02*
X98666667Y-84648066D01*
X98666667Y-84648066D02*
X98633333Y-84581400D01*
X98633333Y-84581400D02*
X98633333Y-84414733D01*
X98633333Y-84414733D02*
X98666667Y-84348066D01*
X98666667Y-84348066D02*
X98700000Y-84314733D01*
X98700000Y-84314733D02*
X98766667Y-84281400D01*
X98766667Y-84281400D02*
X98900000Y-84281400D01*
X98900000Y-84281400D02*
X98966667Y-84314733D01*
X98966667Y-84314733D02*
X99000000Y-84348066D01*
X99000000Y-84348066D02*
X99033333Y-84414733D01*
X98366666Y-84081400D02*
X98333333Y-84048066D01*
X98333333Y-84048066D02*
X98266666Y-84014733D01*
X98266666Y-84014733D02*
X98100000Y-84014733D01*
X98100000Y-84014733D02*
X98033333Y-84048066D01*
X98033333Y-84048066D02*
X98000000Y-84081400D01*
X98000000Y-84081400D02*
X97966666Y-84148066D01*
X97966666Y-84148066D02*
X97966666Y-84214733D01*
X97966666Y-84214733D02*
X98000000Y-84314733D01*
X98000000Y-84314733D02*
X98400000Y-84714733D01*
X98400000Y-84714733D02*
X97966666Y-84714733D01*
D11*
G04 #@! TO.C,C63*
X97337836Y-86040000D02*
X97122164Y-86040000D01*
X97337836Y-86760000D02*
X97122164Y-86760000D01*
G04 #@! TO.C,C47*
X91740000Y-84692164D02*
X91740000Y-84907836D01*
X92460000Y-84692164D02*
X92460000Y-84907836D01*
G04 #@! TO.C,C59*
X93640000Y-84322164D02*
X93640000Y-84537836D01*
X94360000Y-84322164D02*
X94360000Y-84537836D01*
G04 #@! TO.C,C56*
X92290000Y-87187836D02*
X92290000Y-86972164D01*
X93010000Y-87187836D02*
X93010000Y-86972164D01*
G04 #@! TO.C,C60*
X97337836Y-86990000D02*
X97122164Y-86990000D01*
X97337836Y-87710000D02*
X97122164Y-87710000D01*
G04 #@! TO.C,C51*
X91092164Y-88090000D02*
X91307836Y-88090000D01*
X91092164Y-88810000D02*
X91307836Y-88810000D01*
G04 #@! TO.C,C57*
X91340000Y-87187836D02*
X91340000Y-86972164D01*
X92060000Y-87187836D02*
X92060000Y-86972164D01*
G04 #@! TO.C,C49*
X94340000Y-89457836D02*
X94340000Y-89242164D01*
X95060000Y-89457836D02*
X95060000Y-89242164D01*
G04 #@! TO.C,C64*
X97337836Y-88890000D02*
X97122164Y-88890000D01*
X97337836Y-89610000D02*
X97122164Y-89610000D01*
G04 #@! TO.C,C65*
X97337836Y-89840000D02*
X97122164Y-89840000D01*
X97337836Y-90560000D02*
X97122164Y-90560000D01*
G04 #@! TO.C,C58*
X92690000Y-84322164D02*
X92690000Y-84537836D01*
X93410000Y-84322164D02*
X93410000Y-84537836D01*
G04 #@! TO.C,TP11*
X83700000Y-92000000D02*
G75*
G02*
X82300000Y-92000000I-700000J0D01*
G01*
X82300000Y-92000000D02*
G75*
G02*
X83700000Y-92000000I700000J0D01*
G01*
G04 #@! TO.C,TP10*
X83700000Y-88950000D02*
G75*
G02*
X82300000Y-88950000I-700000J0D01*
G01*
X82300000Y-88950000D02*
G75*
G02*
X83700000Y-88950000I700000J0D01*
G01*
G04 #@! TO.C,C67*
X90390000Y-87177836D02*
X90390000Y-86962164D01*
X91110000Y-87177836D02*
X91110000Y-86962164D01*
G04 #@! TO.C,C48*
X94590000Y-84322164D02*
X94590000Y-84537836D01*
X95310000Y-84322164D02*
X95310000Y-84537836D01*
G04 #@! TO.C,C61*
X97327836Y-87940000D02*
X97112164Y-87940000D01*
X97327836Y-88660000D02*
X97112164Y-88660000D01*
G04 #@! TO.C,C50*
X93390000Y-89657836D02*
X93390000Y-89442164D01*
X94110000Y-89657836D02*
X94110000Y-89442164D01*
G04 #@! TO.C,C52*
X96837836Y-85090000D02*
X96622164Y-85090000D01*
X96837836Y-85810000D02*
X96622164Y-85810000D01*
G04 #@! TO.C,C66*
X93220000Y-87177836D02*
X93220000Y-86962164D01*
X93940000Y-87177836D02*
X93940000Y-86962164D01*
G04 #@! TO.C,C53*
X90590000Y-84542164D02*
X90590000Y-84757836D01*
X91310000Y-84542164D02*
X91310000Y-84757836D01*
G04 #@! TO.C,C62*
X96837836Y-84090000D02*
X96622164Y-84090000D01*
X96837836Y-84810000D02*
X96622164Y-84810000D01*
G04 #@! TD*
M02*
