M48
; DRILL file {KiCad 8.0.5} date 2024-09-25T12:16:08+0300
; FORMAT={-:-/ absolute / metric / decimal}
; #@! TF.CreationDate,2024-09-25T12:16:08+03:00
; #@! TF.GenerationSoftware,Kicad,Pcbnew,8.0.5
; #@! TF.FileFunction,MixedPlating,1,2
FMAT,2
METRIC
; #@! TA.AperFunction,Plated,PTH,ViaDrill
T1C0.400
; #@! TA.AperFunction,Plated,PTH,ComponentDrill
T2C0.500
; #@! TA.AperFunction,Plated,PTH,ComponentDrill
T3C0.890
; #@! TA.AperFunction,Plated,PTH,ComponentDrill
T4C1.000
; #@! TA.AperFunction,Plated,PTH,ComponentDrill
T5C1.800
; #@! TA.AperFunction,Plated,PTH,ComponentDrill
T6C3.200
; #@! TA.AperFunction,NonPlated,NPTH,ComponentDrill
T7C3.250
%
G90
G05
T1
X158.5Y-104.5
X159.5Y-95.0
T2
X148.6Y-79.0
X148.6Y-108.0
X149.303Y-77.303
X149.303Y-80.697
X149.303Y-106.303
X149.303Y-109.697
X151.0Y-76.6
X151.0Y-81.4
X151.0Y-105.6
X151.0Y-110.4
X152.697Y-77.303
X152.697Y-80.697
X152.697Y-106.303
X152.697Y-109.697
X153.4Y-79.0
X153.4Y-108.0
T3
X153.29Y-90.95
X153.29Y-92.99
X153.29Y-95.03
X153.29Y-97.07
X155.07Y-89.93
X155.07Y-91.97
X155.07Y-94.01
X155.07Y-96.05
X159.88Y-86.64
X159.88Y-88.93
X159.88Y-98.07
X159.88Y-100.36
T4
X169.07Y-88.45
X169.07Y-91.22
X169.07Y-93.99
X169.07Y-96.76
X169.07Y-99.53
X171.91Y-89.835
X171.91Y-92.605
X171.91Y-95.375
X171.91Y-98.145
T5
X154.31Y-85.37
X154.31Y-101.63
T6
X151.0Y-79.0
X151.0Y-108.0
X170.49Y-81.49
X170.49Y-106.49
T7
X150.75Y-87.15
X150.75Y-99.85
M30
