G04 #@! TF.GenerationSoftware,KiCad,Pcbnew,8.0.5*
G04 #@! TF.CreationDate,2024-09-22T19:21:20+03:00*
G04 #@! TF.ProjectId,ditron-dc11-encoder,64697472-6f6e-42d6-9463-31312d656e63,rev?*
G04 #@! TF.SameCoordinates,Original*
G04 #@! TF.FileFunction,Copper,L1,Top*
G04 #@! TF.FilePolarity,Positive*
%FSLAX46Y46*%
G04 Gerber Fmt 4.6, Leading zero omitted, Abs format (unit mm)*
G04 Created by KiCad (PCBNEW 8.0.5) date 2024-09-22 19:21:20*
%MOMM*%
%LPD*%
G01*
G04 APERTURE LIST*
G04 Aperture macros list*
%AMRoundRect*
0 Rectangle with rounded corners*
0 $1 Rounding radius*
0 $2 $3 $4 $5 $6 $7 $8 $9 X,Y pos of 4 corners*
0 Add a 4 corners polygon primitive as box body*
4,1,4,$2,$3,$4,$5,$6,$7,$8,$9,$2,$3,0*
0 Add four circle primitives for the rounded corners*
1,1,$1+$1,$2,$3*
1,1,$1+$1,$4,$5*
1,1,$1+$1,$6,$7*
1,1,$1+$1,$8,$9*
0 Add four rect primitives between the rounded corners*
20,1,$1+$1,$2,$3,$4,$5,0*
20,1,$1+$1,$4,$5,$6,$7,0*
20,1,$1+$1,$6,$7,$8,$9,0*
20,1,$1+$1,$8,$9,$2,$3,0*%
G04 Aperture macros list end*
G04 #@! TA.AperFunction,ComponentPad*
%ADD10C,4.000000*%
G04 #@! TD*
G04 #@! TA.AperFunction,ComponentPad*
%ADD11R,1.600000X1.600000*%
G04 #@! TD*
G04 #@! TA.AperFunction,ComponentPad*
%ADD12C,1.600000*%
G04 #@! TD*
G04 #@! TA.AperFunction,SMDPad,CuDef*
%ADD13RoundRect,0.200000X0.200000X0.275000X-0.200000X0.275000X-0.200000X-0.275000X0.200000X-0.275000X0*%
G04 #@! TD*
G04 #@! TA.AperFunction,ComponentPad*
%ADD14C,1.500000*%
G04 #@! TD*
G04 #@! TA.AperFunction,ComponentPad*
%ADD15C,2.600000*%
G04 #@! TD*
G04 #@! TA.AperFunction,ComponentPad*
%ADD16C,0.800000*%
G04 #@! TD*
G04 #@! TA.AperFunction,ComponentPad*
%ADD17C,6.400000*%
G04 #@! TD*
G04 #@! TA.AperFunction,ViaPad*
%ADD18C,0.700000*%
G04 #@! TD*
G04 #@! TA.AperFunction,Conductor*
%ADD19C,0.300000*%
G04 #@! TD*
G04 #@! TA.AperFunction,Conductor*
%ADD20C,0.400000*%
G04 #@! TD*
G04 APERTURE END LIST*
D10*
G04 #@! TO.P,J1,0,PAD*
G04 #@! TO.N,/SHIELD*
X170489669Y-106490000D03*
X170489669Y-81490000D03*
D11*
G04 #@! TO.P,J1,1,1*
G04 #@! TO.N,/A_N*
X169069669Y-88450000D03*
D12*
G04 #@! TO.P,J1,2,2*
G04 #@! TO.N,GND*
X169069669Y-91220000D03*
G04 #@! TO.P,J1,3,3*
G04 #@! TO.N,/B_N*
X169069669Y-93990000D03*
G04 #@! TO.P,J1,4,4*
G04 #@! TO.N,/SHIELD*
X169069669Y-96760000D03*
G04 #@! TO.P,J1,5,5*
G04 #@! TO.N,/Z_N*
X169069669Y-99530000D03*
G04 #@! TO.P,J1,6,6*
G04 #@! TO.N,/A_P*
X171909669Y-89835000D03*
G04 #@! TO.P,J1,7,7*
G04 #@! TO.N,+5V*
X171909669Y-92605000D03*
G04 #@! TO.P,J1,8,8*
G04 #@! TO.N,/B_P*
X171909669Y-95375000D03*
G04 #@! TO.P,J1,9,9*
G04 #@! TO.N,/Z_P*
X171909669Y-98145000D03*
G04 #@! TD*
D13*
G04 #@! TO.P,R1,1*
G04 #@! TO.N,+5V*
X161325000Y-106000000D03*
G04 #@! TO.P,R1,2*
G04 #@! TO.N,Net-(J2-Pad10)*
X159675000Y-106000000D03*
G04 #@! TD*
D14*
G04 #@! TO.P,J2,1*
G04 #@! TO.N,/A_P*
X153290000Y-97070000D03*
G04 #@! TO.P,J2,2*
G04 #@! TO.N,/A_N*
X155070000Y-96050000D03*
G04 #@! TO.P,J2,3*
G04 #@! TO.N,/B_P*
X153290000Y-95030000D03*
G04 #@! TO.P,J2,4*
G04 #@! TO.N,/Z_P*
X155070000Y-94010000D03*
G04 #@! TO.P,J2,5*
G04 #@! TO.N,/Z_N*
X153290000Y-92990000D03*
G04 #@! TO.P,J2,6*
G04 #@! TO.N,/B_N*
X155070000Y-91970000D03*
G04 #@! TO.P,J2,7*
G04 #@! TO.N,+5V*
X153290000Y-90950000D03*
G04 #@! TO.P,J2,8*
G04 #@! TO.N,GND*
X155070000Y-89930000D03*
G04 #@! TO.P,J2,9*
X159880000Y-100360000D03*
G04 #@! TO.P,J2,10*
G04 #@! TO.N,Net-(J2-Pad10)*
X159880000Y-98070000D03*
G04 #@! TO.P,J2,11*
G04 #@! TO.N,unconnected-(J2-Pad11)*
X159880000Y-88930000D03*
G04 #@! TO.P,J2,12*
G04 #@! TO.N,unconnected-(J2-Pad12)*
X159880000Y-86640000D03*
D15*
G04 #@! TO.P,J2,SH*
G04 #@! TO.N,/SHIELD*
X154310000Y-85370000D03*
X154310000Y-101630000D03*
G04 #@! TD*
D16*
G04 #@! TO.P,H2,1,1*
G04 #@! TO.N,unconnected-(H2-Pad1)_5*
X148600000Y-79000000D03*
G04 #@! TO.N,unconnected-(H2-Pad1)_3*
X149302944Y-77302944D03*
G04 #@! TO.N,unconnected-(H2-Pad1)_2*
X149302944Y-80697056D03*
G04 #@! TO.N,unconnected-(H2-Pad1)_8*
X151000000Y-76600000D03*
D17*
G04 #@! TO.N,unconnected-(H2-Pad1)_6*
X151000000Y-79000000D03*
D16*
G04 #@! TO.N,unconnected-(H2-Pad1)_1*
X151000000Y-81400000D03*
G04 #@! TO.N,unconnected-(H2-Pad1)_4*
X152697056Y-77302944D03*
G04 #@! TO.N,unconnected-(H2-Pad1)_7*
X152697056Y-80697056D03*
G04 #@! TO.N,unconnected-(H2-Pad1)*
X153400000Y-79000000D03*
G04 #@! TD*
G04 #@! TO.P,H1,1,1*
G04 #@! TO.N,unconnected-(H1-Pad1)_6*
X148600000Y-108000000D03*
G04 #@! TO.N,unconnected-(H1-Pad1)*
X149302944Y-106302944D03*
G04 #@! TO.N,unconnected-(H1-Pad1)_1*
X149302944Y-109697056D03*
G04 #@! TO.N,unconnected-(H1-Pad1)_8*
X151000000Y-105600000D03*
D17*
G04 #@! TO.N,unconnected-(H1-Pad1)_5*
X151000000Y-108000000D03*
D16*
G04 #@! TO.N,unconnected-(H1-Pad1)_2*
X151000000Y-110400000D03*
G04 #@! TO.N,unconnected-(H1-Pad1)_4*
X152697056Y-106302944D03*
G04 #@! TO.N,unconnected-(H1-Pad1)_7*
X152697056Y-109697056D03*
G04 #@! TO.N,unconnected-(H1-Pad1)_3*
X153400000Y-108000000D03*
G04 #@! TD*
D18*
G04 #@! TO.N,/Z_P*
X159500000Y-95000000D03*
G04 #@! TO.N,Net-(J2-Pad10)*
X158500000Y-104500000D03*
G04 #@! TD*
D19*
G04 #@! TO.N,/Z_P*
X155070000Y-94010000D02*
X158510000Y-94010000D01*
X158510000Y-94010000D02*
X159500000Y-95000000D01*
G04 #@! TO.N,/A_P*
X171909669Y-89835000D02*
X168665000Y-89835000D01*
X156125635Y-96550000D02*
X155525635Y-97150000D01*
X161950000Y-96550000D02*
X156125635Y-96550000D01*
X168665000Y-89835000D02*
X161950000Y-96550000D01*
X153370000Y-97150000D02*
X153290000Y-97070000D01*
X155525635Y-97150000D02*
X153370000Y-97150000D01*
D20*
G04 #@! TO.N,+5V*
X173109669Y-98642057D02*
X173109669Y-93805000D01*
X161325000Y-106000000D02*
X162325000Y-106000000D01*
X158179340Y-85000000D02*
X171000000Y-85000000D01*
X153290000Y-90950000D02*
X153290000Y-89889340D01*
X173109669Y-93805000D02*
X171909669Y-92605000D01*
X164235000Y-104090000D02*
X167661726Y-104090000D01*
X153290000Y-89889340D02*
X158179340Y-85000000D01*
X167661726Y-104090000D02*
X173109669Y-98642057D01*
X162325000Y-106000000D02*
X164235000Y-104090000D01*
X171000000Y-85000000D02*
X173500000Y-87500000D01*
X173500000Y-87500000D02*
X173500000Y-91014669D01*
X173500000Y-91014669D02*
X171909669Y-92605000D01*
D19*
G04 #@! TO.N,/A_N*
X160450000Y-96050000D02*
X155070000Y-96050000D01*
X168050000Y-88450000D02*
X160450000Y-96050000D01*
X169069669Y-88450000D02*
X168050000Y-88450000D01*
G04 #@! TO.N,/Z_N*
X157944365Y-99980000D02*
X159464365Y-101500000D01*
X152190000Y-94090000D02*
X152190000Y-97525635D01*
X167099669Y-101500000D02*
X169069669Y-99530000D01*
X152190000Y-97525635D02*
X154644365Y-99980000D01*
X154644365Y-99980000D02*
X157944365Y-99980000D01*
X153290000Y-92990000D02*
X152190000Y-94090000D01*
X159464365Y-101500000D02*
X167099669Y-101500000D01*
D20*
G04 #@! TO.N,GND*
X159880000Y-100360000D02*
X169020000Y-91220000D01*
X169020000Y-91220000D02*
X169069669Y-91220000D01*
G04 #@! TO.N,Net-(J2-Pad10)*
X158500000Y-104500000D02*
X159675000Y-105675000D01*
X159675000Y-105675000D02*
X159675000Y-106000000D01*
G04 #@! TD*
M02*
