G04 #@! TF.GenerationSoftware,KiCad,Pcbnew,8.0.5*
G04 #@! TF.CreationDate,2024-09-22T19:13:33+03:00*
G04 #@! TF.ProjectId,ditron-dc11-encoder,64697472-6f6e-42d6-9463-31312d656e63,rev?*
G04 #@! TF.SameCoordinates,Original*
G04 #@! TF.FileFunction,Soldermask,Top*
G04 #@! TF.FilePolarity,Negative*
%FSLAX46Y46*%
G04 Gerber Fmt 4.6, Leading zero omitted, Abs format (unit mm)*
G04 Created by KiCad (PCBNEW 8.0.5) date 2024-09-22 19:13:33*
%MOMM*%
%LPD*%
G01*
G04 APERTURE LIST*
G04 Aperture macros list*
%AMRoundRect*
0 Rectangle with rounded corners*
0 $1 Rounding radius*
0 $2 $3 $4 $5 $6 $7 $8 $9 X,Y pos of 4 corners*
0 Add a 4 corners polygon primitive as box body*
4,1,4,$2,$3,$4,$5,$6,$7,$8,$9,$2,$3,0*
0 Add four circle primitives for the rounded corners*
1,1,$1+$1,$2,$3*
1,1,$1+$1,$4,$5*
1,1,$1+$1,$6,$7*
1,1,$1+$1,$8,$9*
0 Add four rect primitives between the rounded corners*
20,1,$1+$1,$2,$3,$4,$5,0*
20,1,$1+$1,$4,$5,$6,$7,0*
20,1,$1+$1,$6,$7,$8,$9,0*
20,1,$1+$1,$8,$9,$2,$3,0*%
G04 Aperture macros list end*
%ADD10C,4.000000*%
%ADD11R,1.600000X1.600000*%
%ADD12C,1.600000*%
%ADD13RoundRect,0.200000X0.200000X0.275000X-0.200000X0.275000X-0.200000X-0.275000X0.200000X-0.275000X0*%
%ADD14C,3.250000*%
%ADD15C,1.500000*%
%ADD16C,2.600000*%
%ADD17C,0.800000*%
%ADD18C,6.400000*%
G04 APERTURE END LIST*
D10*
G04 #@! TO.C,J1*
X170489669Y-106490000D03*
X170489669Y-81490000D03*
D11*
X169069669Y-88450000D03*
D12*
X169069669Y-91220000D03*
X169069669Y-93990000D03*
X169069669Y-96760000D03*
X169069669Y-99530000D03*
X171909669Y-89835000D03*
X171909669Y-92605000D03*
X171909669Y-95375000D03*
X171909669Y-98145000D03*
G04 #@! TD*
D13*
G04 #@! TO.C,R1*
X161325000Y-106000000D03*
X159675000Y-106000000D03*
G04 #@! TD*
D14*
G04 #@! TO.C,J2*
X150750000Y-87150000D03*
X150750000Y-99850000D03*
D15*
X153290000Y-97070000D03*
X155070000Y-96050000D03*
X153290000Y-95030000D03*
X155070000Y-94010000D03*
X153290000Y-92990000D03*
X155070000Y-91970000D03*
X153290000Y-90950000D03*
X155070000Y-89930000D03*
X159880000Y-100360000D03*
X159880000Y-98070000D03*
X159880000Y-88930000D03*
X159880000Y-86640000D03*
D16*
X154310000Y-85370000D03*
X154310000Y-101630000D03*
G04 #@! TD*
D17*
G04 #@! TO.C,H2*
X148600000Y-79000000D03*
X149302944Y-77302944D03*
X149302944Y-80697056D03*
X151000000Y-76600000D03*
D18*
X151000000Y-79000000D03*
D17*
X151000000Y-81400000D03*
X152697056Y-77302944D03*
X152697056Y-80697056D03*
X153400000Y-79000000D03*
G04 #@! TD*
G04 #@! TO.C,H1*
X148600000Y-108000000D03*
X149302944Y-106302944D03*
X149302944Y-109697056D03*
X151000000Y-105600000D03*
D18*
X151000000Y-108000000D03*
D17*
X151000000Y-110400000D03*
X152697056Y-106302944D03*
X152697056Y-109697056D03*
X153400000Y-108000000D03*
G04 #@! TD*
M02*
