G04 #@! TF.GenerationSoftware,KiCad,Pcbnew,8.0.4*
G04 #@! TF.CreationDate,2024-08-29T22:42:44+03:00*
G04 #@! TF.ProjectId,rioctrl-stepdir4,72696f63-7472-46c2-9d73-746570646972,rev?*
G04 #@! TF.SameCoordinates,Original*
G04 #@! TF.FileFunction,Paste,Top*
G04 #@! TF.FilePolarity,Positive*
%FSLAX46Y46*%
G04 Gerber Fmt 4.6, Leading zero omitted, Abs format (unit mm)*
G04 Created by KiCad (PCBNEW 8.0.4) date 2024-08-29 22:42:44*
%MOMM*%
%LPD*%
G01*
G04 APERTURE LIST*
G04 Aperture macros list*
%AMRoundRect*
0 Rectangle with rounded corners*
0 $1 Rounding radius*
0 $2 $3 $4 $5 $6 $7 $8 $9 X,Y pos of 4 corners*
0 Add a 4 corners polygon primitive as box body*
4,1,4,$2,$3,$4,$5,$6,$7,$8,$9,$2,$3,0*
0 Add four circle primitives for the rounded corners*
1,1,$1+$1,$2,$3*
1,1,$1+$1,$4,$5*
1,1,$1+$1,$6,$7*
1,1,$1+$1,$8,$9*
0 Add four rect primitives between the rounded corners*
20,1,$1+$1,$2,$3,$4,$5,0*
20,1,$1+$1,$4,$5,$6,$7,0*
20,1,$1+$1,$6,$7,$8,$9,0*
20,1,$1+$1,$8,$9,$2,$3,0*%
G04 Aperture macros list end*
%ADD10RoundRect,0.200000X0.275000X-0.200000X0.275000X0.200000X-0.275000X0.200000X-0.275000X-0.200000X0*%
%ADD11RoundRect,0.250000X-0.300000X-0.300000X0.300000X-0.300000X0.300000X0.300000X-0.300000X0.300000X0*%
%ADD12RoundRect,0.200000X-0.275000X0.200000X-0.275000X-0.200000X0.275000X-0.200000X0.275000X0.200000X0*%
%ADD13RoundRect,0.150000X0.150000X-0.825000X0.150000X0.825000X-0.150000X0.825000X-0.150000X-0.825000X0*%
%ADD14RoundRect,0.218750X0.256250X-0.218750X0.256250X0.218750X-0.256250X0.218750X-0.256250X-0.218750X0*%
%ADD15RoundRect,0.150000X0.150000X-0.587500X0.150000X0.587500X-0.150000X0.587500X-0.150000X-0.587500X0*%
%ADD16RoundRect,0.112500X-0.112500X-0.237500X0.112500X-0.237500X0.112500X0.237500X-0.112500X0.237500X0*%
%ADD17RoundRect,0.250000X0.250000X0.475000X-0.250000X0.475000X-0.250000X-0.475000X0.250000X-0.475000X0*%
%ADD18RoundRect,0.225000X-0.250000X0.225000X-0.250000X-0.225000X0.250000X-0.225000X0.250000X0.225000X0*%
%ADD19RoundRect,0.250000X0.375000X0.625000X-0.375000X0.625000X-0.375000X-0.625000X0.375000X-0.625000X0*%
%ADD20RoundRect,0.112500X0.187500X0.112500X-0.187500X0.112500X-0.187500X-0.112500X0.187500X-0.112500X0*%
%ADD21RoundRect,0.150000X-0.512500X-0.150000X0.512500X-0.150000X0.512500X0.150000X-0.512500X0.150000X0*%
%ADD22RoundRect,0.200000X0.200000X0.275000X-0.200000X0.275000X-0.200000X-0.275000X0.200000X-0.275000X0*%
%ADD23RoundRect,0.250000X0.300000X0.300000X-0.300000X0.300000X-0.300000X-0.300000X0.300000X-0.300000X0*%
G04 APERTURE END LIST*
D10*
G04 #@! TO.C,R18*
X131750000Y-72575000D03*
X131750000Y-70925000D03*
G04 #@! TD*
G04 #@! TO.C,R11*
X151387500Y-72575000D03*
X151387500Y-70925000D03*
G04 #@! TD*
D11*
G04 #@! TO.C,D4*
X154850000Y-88750000D03*
X157650000Y-88750000D03*
G04 #@! TD*
D12*
G04 #@! TO.C,R13*
X133750000Y-95175000D03*
X133750000Y-96825000D03*
G04 #@! TD*
D13*
G04 #@! TO.C,U1*
X150732500Y-80475000D03*
X152002500Y-80475000D03*
X153272500Y-80475000D03*
X154542500Y-80475000D03*
X154542500Y-75525000D03*
X153272500Y-75525000D03*
X152002500Y-75525000D03*
X150732500Y-75525000D03*
G04 #@! TD*
D10*
G04 #@! TO.C,R10*
X153137500Y-72575000D03*
X153137500Y-70925000D03*
G04 #@! TD*
D14*
G04 #@! TO.C,FB4*
X87250000Y-84537500D03*
X87250000Y-82962500D03*
G04 #@! TD*
D15*
G04 #@! TO.C,Q4*
X125300000Y-140187500D03*
X127200000Y-140187500D03*
X126250000Y-138312500D03*
G04 #@! TD*
D16*
G04 #@! TO.C,Q1*
X113850000Y-140250000D03*
X115150000Y-140250000D03*
X114500000Y-138250000D03*
G04 #@! TD*
D15*
G04 #@! TO.C,Q12*
X91550000Y-93187500D03*
X93450000Y-93187500D03*
X92500000Y-91312500D03*
G04 #@! TD*
G04 #@! TO.C,Q6*
X155550000Y-93187500D03*
X157450000Y-93187500D03*
X156500000Y-91312500D03*
G04 #@! TD*
D17*
G04 #@! TO.C,C2*
X126400000Y-136000000D03*
X124500000Y-136000000D03*
G04 #@! TD*
D16*
G04 #@! TO.C,Q5*
X152600000Y-93500000D03*
X153900000Y-93500000D03*
X153250000Y-91500000D03*
G04 #@! TD*
D15*
G04 #@! TO.C,Q10*
X113550000Y-93187500D03*
X115450000Y-93187500D03*
X114500000Y-91312500D03*
G04 #@! TD*
D18*
G04 #@! TO.C,C3*
X153137500Y-82725000D03*
X153137500Y-84275000D03*
G04 #@! TD*
D19*
G04 #@! TO.C,F2*
X134150000Y-88750000D03*
X131350000Y-88750000D03*
G04 #@! TD*
D18*
G04 #@! TO.C,C7*
X109250000Y-82975000D03*
X109250000Y-84525000D03*
G04 #@! TD*
D15*
G04 #@! TO.C,Q8*
X137300000Y-93187500D03*
X139200000Y-93187500D03*
X138250000Y-91312500D03*
G04 #@! TD*
D12*
G04 #@! TO.C,R21*
X110000000Y-95175000D03*
X110000000Y-96825000D03*
G04 #@! TD*
D14*
G04 #@! TO.C,FB2*
X129000000Y-84287500D03*
X129000000Y-82712500D03*
G04 #@! TD*
D20*
G04 #@! TO.C,D3*
X157550000Y-95500000D03*
X155450000Y-95500000D03*
G04 #@! TD*
D18*
G04 #@! TO.C,C5*
X130750000Y-82725000D03*
X130750000Y-84275000D03*
G04 #@! TD*
D11*
G04 #@! TO.C,D13*
X91100000Y-88750000D03*
X93900000Y-88750000D03*
G04 #@! TD*
D19*
G04 #@! TO.C,F3*
X110400000Y-88750000D03*
X107600000Y-88750000D03*
G04 #@! TD*
D13*
G04 #@! TO.C,U7*
X107595000Y-80475000D03*
X108865000Y-80475000D03*
X110135000Y-80475000D03*
X111405000Y-80475000D03*
X111405000Y-75525000D03*
X110135000Y-75525000D03*
X108865000Y-75525000D03*
X107595000Y-75525000D03*
G04 #@! TD*
D10*
G04 #@! TO.C,R17*
X140250000Y-72575000D03*
X140250000Y-70925000D03*
G04 #@! TD*
D20*
G04 #@! TO.C,D1*
X119050000Y-143500000D03*
X116950000Y-143500000D03*
G04 #@! TD*
D10*
G04 #@! TO.C,R26*
X111250000Y-72575000D03*
X111250000Y-70925000D03*
G04 #@! TD*
D21*
G04 #@! TO.C,U6*
X134862500Y-71050000D03*
X134862500Y-72000000D03*
X134862500Y-72950000D03*
X137137500Y-72950000D03*
X137137500Y-72000000D03*
X137137500Y-71050000D03*
G04 #@! TD*
D22*
G04 #@! TO.C,R14*
X139075000Y-97500000D03*
X137425000Y-97500000D03*
G04 #@! TD*
D20*
G04 #@! TO.C,D9*
X115550000Y-95500000D03*
X113450000Y-95500000D03*
G04 #@! TD*
D16*
G04 #@! TO.C,Q11*
X88350000Y-93500000D03*
X89650000Y-93500000D03*
X89000000Y-91500000D03*
G04 #@! TD*
D12*
G04 #@! TO.C,R29*
X88250000Y-95175000D03*
X88250000Y-96825000D03*
G04 #@! TD*
D16*
G04 #@! TO.C,Q9*
X110100000Y-93500000D03*
X111400000Y-93500000D03*
X110750000Y-91500000D03*
G04 #@! TD*
D15*
G04 #@! TO.C,Q3*
X117250000Y-139937500D03*
X119150000Y-139937500D03*
X118200000Y-138062500D03*
G04 #@! TD*
D18*
G04 #@! TO.C,C10*
X99250000Y-82975000D03*
X99250000Y-84525000D03*
G04 #@! TD*
D22*
G04 #@! TO.C,R6*
X157825000Y-97250000D03*
X156175000Y-97250000D03*
G04 #@! TD*
G04 #@! TO.C,R3*
X118825000Y-141750000D03*
X117175000Y-141750000D03*
G04 #@! TD*
D10*
G04 #@! TO.C,R16*
X141990000Y-72575000D03*
X141990000Y-70925000D03*
G04 #@! TD*
G04 #@! TO.C,R19*
X130000000Y-72575000D03*
X130000000Y-70925000D03*
G04 #@! TD*
D16*
G04 #@! TO.C,Q7*
X133850000Y-93500000D03*
X135150000Y-93500000D03*
X134500000Y-91500000D03*
G04 #@! TD*
D12*
G04 #@! TO.C,R20*
X128500000Y-70925000D03*
X128500000Y-72575000D03*
G04 #@! TD*
D18*
G04 #@! TO.C,C6*
X140500000Y-82725000D03*
X140500000Y-84275000D03*
G04 #@! TD*
D20*
G04 #@! TO.C,D6*
X139300000Y-95500000D03*
X137200000Y-95500000D03*
G04 #@! TD*
D11*
G04 #@! TO.C,D10*
X113350000Y-88750000D03*
X116150000Y-88750000D03*
G04 #@! TD*
D12*
G04 #@! TO.C,R36*
X86000000Y-70925000D03*
X86000000Y-72575000D03*
G04 #@! TD*
D13*
G04 #@! TO.C,U11*
X96845000Y-80475000D03*
X98115000Y-80475000D03*
X99385000Y-80475000D03*
X100655000Y-80475000D03*
X100655000Y-75525000D03*
X99385000Y-75525000D03*
X98115000Y-75525000D03*
X96845000Y-75525000D03*
G04 #@! TD*
D11*
G04 #@! TO.C,D7*
X136600000Y-88750000D03*
X139400000Y-88750000D03*
G04 #@! TD*
D10*
G04 #@! TO.C,R34*
X89500000Y-72575000D03*
X89500000Y-70925000D03*
G04 #@! TD*
G04 #@! TO.C,R27*
X109500000Y-72575000D03*
X109500000Y-70925000D03*
G04 #@! TD*
D12*
G04 #@! TO.C,R12*
X149637500Y-70925000D03*
X149637500Y-72575000D03*
G04 #@! TD*
G04 #@! TO.C,R2*
X122500000Y-143925000D03*
X122500000Y-145575000D03*
G04 #@! TD*
D22*
G04 #@! TO.C,R22*
X115325000Y-97750000D03*
X113675000Y-97750000D03*
G04 #@! TD*
D13*
G04 #@! TO.C,U10*
X86345000Y-80475000D03*
X87615000Y-80475000D03*
X88885000Y-80475000D03*
X90155000Y-80475000D03*
X90155000Y-75525000D03*
X88885000Y-75525000D03*
X87615000Y-75525000D03*
X86345000Y-75525000D03*
G04 #@! TD*
D16*
G04 #@! TO.C,Q2*
X122350000Y-140500000D03*
X123650000Y-140500000D03*
X123000000Y-138500000D03*
G04 #@! TD*
D18*
G04 #@! TO.C,C9*
X89000000Y-82975000D03*
X89000000Y-84525000D03*
G04 #@! TD*
D22*
G04 #@! TO.C,R30*
X93325000Y-97500000D03*
X91675000Y-97500000D03*
G04 #@! TD*
D10*
G04 #@! TO.C,R24*
X120750000Y-72575000D03*
X120750000Y-70925000D03*
G04 #@! TD*
D19*
G04 #@! TO.C,F4*
X88650000Y-88750000D03*
X85850000Y-88750000D03*
G04 #@! TD*
G04 #@! TO.C,F1*
X152400000Y-88750000D03*
X149600000Y-88750000D03*
G04 #@! TD*
D14*
G04 #@! TO.C,FB1*
X151387500Y-84287500D03*
X151387500Y-82712500D03*
G04 #@! TD*
D10*
G04 #@! TO.C,R32*
X99500000Y-72575000D03*
X99500000Y-70925000D03*
G04 #@! TD*
D13*
G04 #@! TO.C,U4*
X128845000Y-80475000D03*
X130115000Y-80475000D03*
X131385000Y-80475000D03*
X132655000Y-80475000D03*
X132655000Y-75525000D03*
X131385000Y-75525000D03*
X130115000Y-75525000D03*
X128845000Y-75525000D03*
G04 #@! TD*
D18*
G04 #@! TO.C,C8*
X120750000Y-82725000D03*
X120750000Y-84275000D03*
G04 #@! TD*
D10*
G04 #@! TO.C,R25*
X119000000Y-72575000D03*
X119000000Y-70925000D03*
G04 #@! TD*
D13*
G04 #@! TO.C,U2*
X159595000Y-80475000D03*
X160865000Y-80475000D03*
X162135000Y-80475000D03*
X163405000Y-80475000D03*
X163405000Y-75525000D03*
X162135000Y-75525000D03*
X160865000Y-75525000D03*
X159595000Y-75525000D03*
G04 #@! TD*
D18*
G04 #@! TO.C,C4*
X160750000Y-82725000D03*
X160750000Y-84275000D03*
G04 #@! TD*
D12*
G04 #@! TO.C,R28*
X107750000Y-70925000D03*
X107750000Y-72575000D03*
G04 #@! TD*
D14*
G04 #@! TO.C,FB3*
X107500000Y-84537500D03*
X107500000Y-82962500D03*
G04 #@! TD*
D10*
G04 #@! TO.C,R33*
X97750000Y-72575000D03*
X97750000Y-70925000D03*
G04 #@! TD*
D12*
G04 #@! TO.C,R1*
X115000000Y-143925000D03*
X115000000Y-145575000D03*
G04 #@! TD*
D10*
G04 #@! TO.C,R35*
X87750000Y-72575000D03*
X87750000Y-70925000D03*
G04 #@! TD*
D23*
G04 #@! TO.C,D2*
X119400000Y-133750000D03*
X116600000Y-133750000D03*
G04 #@! TD*
D13*
G04 #@! TO.C,U5*
X139095000Y-80475000D03*
X140365000Y-80475000D03*
X141635000Y-80475000D03*
X142905000Y-80475000D03*
X142905000Y-75525000D03*
X141635000Y-75525000D03*
X140365000Y-75525000D03*
X139095000Y-75525000D03*
G04 #@! TD*
D20*
G04 #@! TO.C,D12*
X93550000Y-95500000D03*
X91450000Y-95500000D03*
G04 #@! TD*
D12*
G04 #@! TO.C,R5*
X152500000Y-95175000D03*
X152500000Y-96825000D03*
G04 #@! TD*
D10*
G04 #@! TO.C,R8*
X162900000Y-72525000D03*
X162900000Y-70875000D03*
G04 #@! TD*
D22*
G04 #@! TO.C,R4*
X127075000Y-142250000D03*
X125425000Y-142250000D03*
G04 #@! TD*
D17*
G04 #@! TO.C,C1*
X118450000Y-136000000D03*
X116550000Y-136000000D03*
G04 #@! TD*
D21*
G04 #@! TO.C,U3*
X156000000Y-70300000D03*
X156000000Y-71250000D03*
X156000000Y-72200000D03*
X158275000Y-72200000D03*
X158275000Y-71250000D03*
X158275000Y-70300000D03*
G04 #@! TD*
D13*
G04 #@! TO.C,U8*
X118345000Y-80475000D03*
X119615000Y-80475000D03*
X120885000Y-80475000D03*
X122155000Y-80475000D03*
X122155000Y-75525000D03*
X120885000Y-75525000D03*
X119615000Y-75525000D03*
X118345000Y-75525000D03*
G04 #@! TD*
D21*
G04 #@! TO.C,U9*
X114112500Y-71050000D03*
X114112500Y-72000000D03*
X114112500Y-72950000D03*
X116387500Y-72950000D03*
X116387500Y-72000000D03*
X116387500Y-71050000D03*
G04 #@! TD*
G04 #@! TO.C,U12*
X92362500Y-71050000D03*
X92362500Y-72000000D03*
X92362500Y-72950000D03*
X94637500Y-72950000D03*
X94637500Y-72000000D03*
X94637500Y-71050000D03*
G04 #@! TD*
D10*
G04 #@! TO.C,R9*
X161300000Y-72575000D03*
X161300000Y-70925000D03*
G04 #@! TD*
M02*
