G04 #@! TF.GenerationSoftware,KiCad,Pcbnew,8.0.4*
G04 #@! TF.CreationDate,2024-08-29T22:42:44+03:00*
G04 #@! TF.ProjectId,rioctrl-stepdir4,72696f63-7472-46c2-9d73-746570646972,rev?*
G04 #@! TF.SameCoordinates,Original*
G04 #@! TF.FileFunction,Legend,Top*
G04 #@! TF.FilePolarity,Positive*
%FSLAX46Y46*%
G04 Gerber Fmt 4.6, Leading zero omitted, Abs format (unit mm)*
G04 Created by KiCad (PCBNEW 8.0.4) date 2024-08-29 22:42:44*
%MOMM*%
%LPD*%
G01*
G04 APERTURE LIST*
%ADD10C,0.200000*%
%ADD11C,0.250000*%
%ADD12C,0.400000*%
%ADD13C,0.150000*%
%ADD14C,0.120000*%
%ADD15C,0.100000*%
G04 APERTURE END LIST*
D10*
X129619600Y-145777945D02*
X129667219Y-145635088D01*
X129667219Y-145635088D02*
X129667219Y-145396993D01*
X129667219Y-145396993D02*
X129619600Y-145301755D01*
X129619600Y-145301755D02*
X129571980Y-145254136D01*
X129571980Y-145254136D02*
X129476742Y-145206517D01*
X129476742Y-145206517D02*
X129381504Y-145206517D01*
X129381504Y-145206517D02*
X129286266Y-145254136D01*
X129286266Y-145254136D02*
X129238647Y-145301755D01*
X129238647Y-145301755D02*
X129191028Y-145396993D01*
X129191028Y-145396993D02*
X129143409Y-145587469D01*
X129143409Y-145587469D02*
X129095790Y-145682707D01*
X129095790Y-145682707D02*
X129048171Y-145730326D01*
X129048171Y-145730326D02*
X128952933Y-145777945D01*
X128952933Y-145777945D02*
X128857695Y-145777945D01*
X128857695Y-145777945D02*
X128762457Y-145730326D01*
X128762457Y-145730326D02*
X128714838Y-145682707D01*
X128714838Y-145682707D02*
X128667219Y-145587469D01*
X128667219Y-145587469D02*
X128667219Y-145349374D01*
X128667219Y-145349374D02*
X128714838Y-145206517D01*
X129667219Y-144254136D02*
X129667219Y-144825564D01*
X129667219Y-144539850D02*
X128667219Y-144539850D01*
X128667219Y-144539850D02*
X128810076Y-144635088D01*
X128810076Y-144635088D02*
X128905314Y-144730326D01*
X128905314Y-144730326D02*
X128952933Y-144825564D01*
X129667219Y-143301755D02*
X129667219Y-143873183D01*
X129667219Y-143587469D02*
X128667219Y-143587469D01*
X128667219Y-143587469D02*
X128810076Y-143682707D01*
X128810076Y-143682707D02*
X128905314Y-143777945D01*
X128905314Y-143777945D02*
X128952933Y-143873183D01*
X129619600Y-142158897D02*
X129667219Y-142016040D01*
X129667219Y-142016040D02*
X129667219Y-141777945D01*
X129667219Y-141777945D02*
X129619600Y-141682707D01*
X129619600Y-141682707D02*
X129571980Y-141635088D01*
X129571980Y-141635088D02*
X129476742Y-141587469D01*
X129476742Y-141587469D02*
X129381504Y-141587469D01*
X129381504Y-141587469D02*
X129286266Y-141635088D01*
X129286266Y-141635088D02*
X129238647Y-141682707D01*
X129238647Y-141682707D02*
X129191028Y-141777945D01*
X129191028Y-141777945D02*
X129143409Y-141968421D01*
X129143409Y-141968421D02*
X129095790Y-142063659D01*
X129095790Y-142063659D02*
X129048171Y-142111278D01*
X129048171Y-142111278D02*
X128952933Y-142158897D01*
X128952933Y-142158897D02*
X128857695Y-142158897D01*
X128857695Y-142158897D02*
X128762457Y-142111278D01*
X128762457Y-142111278D02*
X128714838Y-142063659D01*
X128714838Y-142063659D02*
X128667219Y-141968421D01*
X128667219Y-141968421D02*
X128667219Y-141730326D01*
X128667219Y-141730326D02*
X128714838Y-141587469D01*
X128667219Y-140682707D02*
X128667219Y-141158897D01*
X128667219Y-141158897D02*
X129143409Y-141206516D01*
X129143409Y-141206516D02*
X129095790Y-141158897D01*
X129095790Y-141158897D02*
X129048171Y-141063659D01*
X129048171Y-141063659D02*
X129048171Y-140825564D01*
X129048171Y-140825564D02*
X129095790Y-140730326D01*
X129095790Y-140730326D02*
X129143409Y-140682707D01*
X129143409Y-140682707D02*
X129238647Y-140635088D01*
X129238647Y-140635088D02*
X129476742Y-140635088D01*
X129476742Y-140635088D02*
X129571980Y-140682707D01*
X129571980Y-140682707D02*
X129619600Y-140730326D01*
X129619600Y-140730326D02*
X129667219Y-140825564D01*
X129667219Y-140825564D02*
X129667219Y-141063659D01*
X129667219Y-141063659D02*
X129619600Y-141158897D01*
X129619600Y-141158897D02*
X129571980Y-141206516D01*
X143914838Y-145206517D02*
X143867219Y-145301755D01*
X143867219Y-145301755D02*
X143867219Y-145444612D01*
X143867219Y-145444612D02*
X143914838Y-145587469D01*
X143914838Y-145587469D02*
X144010076Y-145682707D01*
X144010076Y-145682707D02*
X144105314Y-145730326D01*
X144105314Y-145730326D02*
X144295790Y-145777945D01*
X144295790Y-145777945D02*
X144438647Y-145777945D01*
X144438647Y-145777945D02*
X144629123Y-145730326D01*
X144629123Y-145730326D02*
X144724361Y-145682707D01*
X144724361Y-145682707D02*
X144819600Y-145587469D01*
X144819600Y-145587469D02*
X144867219Y-145444612D01*
X144867219Y-145444612D02*
X144867219Y-145349374D01*
X144867219Y-145349374D02*
X144819600Y-145206517D01*
X144819600Y-145206517D02*
X144771980Y-145158898D01*
X144771980Y-145158898D02*
X144438647Y-145158898D01*
X144438647Y-145158898D02*
X144438647Y-145349374D01*
X144867219Y-144730326D02*
X143867219Y-144730326D01*
X143867219Y-144730326D02*
X144867219Y-144158898D01*
X144867219Y-144158898D02*
X143867219Y-144158898D01*
X144867219Y-143682707D02*
X143867219Y-143682707D01*
X143867219Y-143682707D02*
X143867219Y-143444612D01*
X143867219Y-143444612D02*
X143914838Y-143301755D01*
X143914838Y-143301755D02*
X144010076Y-143206517D01*
X144010076Y-143206517D02*
X144105314Y-143158898D01*
X144105314Y-143158898D02*
X144295790Y-143111279D01*
X144295790Y-143111279D02*
X144438647Y-143111279D01*
X144438647Y-143111279D02*
X144629123Y-143158898D01*
X144629123Y-143158898D02*
X144724361Y-143206517D01*
X144724361Y-143206517D02*
X144819600Y-143301755D01*
X144819600Y-143301755D02*
X144867219Y-143444612D01*
X144867219Y-143444612D02*
X144867219Y-143682707D01*
X113672054Y-85281504D02*
X114148244Y-85281504D01*
X113576816Y-85567219D02*
X113910149Y-84567219D01*
X113910149Y-84567219D02*
X114243482Y-85567219D01*
X114481578Y-85567219D02*
X115005387Y-84900552D01*
X114481578Y-84900552D02*
X115005387Y-85567219D01*
X115386340Y-85567219D02*
X115386340Y-84900552D01*
X115386340Y-84567219D02*
X115338721Y-84614838D01*
X115338721Y-84614838D02*
X115386340Y-84662457D01*
X115386340Y-84662457D02*
X115433959Y-84614838D01*
X115433959Y-84614838D02*
X115386340Y-84567219D01*
X115386340Y-84567219D02*
X115386340Y-84662457D01*
X115814911Y-85519600D02*
X115910149Y-85567219D01*
X115910149Y-85567219D02*
X116100625Y-85567219D01*
X116100625Y-85567219D02*
X116195863Y-85519600D01*
X116195863Y-85519600D02*
X116243482Y-85424361D01*
X116243482Y-85424361D02*
X116243482Y-85376742D01*
X116243482Y-85376742D02*
X116195863Y-85281504D01*
X116195863Y-85281504D02*
X116100625Y-85233885D01*
X116100625Y-85233885D02*
X115957768Y-85233885D01*
X115957768Y-85233885D02*
X115862530Y-85186266D01*
X115862530Y-85186266D02*
X115814911Y-85091028D01*
X115814911Y-85091028D02*
X115814911Y-85043409D01*
X115814911Y-85043409D02*
X115862530Y-84948171D01*
X115862530Y-84948171D02*
X115957768Y-84900552D01*
X115957768Y-84900552D02*
X116100625Y-84900552D01*
X116100625Y-84900552D02*
X116195863Y-84948171D01*
X117386340Y-84662457D02*
X117433959Y-84614838D01*
X117433959Y-84614838D02*
X117529197Y-84567219D01*
X117529197Y-84567219D02*
X117767292Y-84567219D01*
X117767292Y-84567219D02*
X117862530Y-84614838D01*
X117862530Y-84614838D02*
X117910149Y-84662457D01*
X117910149Y-84662457D02*
X117957768Y-84757695D01*
X117957768Y-84757695D02*
X117957768Y-84852933D01*
X117957768Y-84852933D02*
X117910149Y-84995790D01*
X117910149Y-84995790D02*
X117338721Y-85567219D01*
X117338721Y-85567219D02*
X117957768Y-85567219D01*
X134072054Y-85281504D02*
X134548244Y-85281504D01*
X133976816Y-85567219D02*
X134310149Y-84567219D01*
X134310149Y-84567219D02*
X134643482Y-85567219D01*
X134881578Y-85567219D02*
X135405387Y-84900552D01*
X134881578Y-84900552D02*
X135405387Y-85567219D01*
X135786340Y-85567219D02*
X135786340Y-84900552D01*
X135786340Y-84567219D02*
X135738721Y-84614838D01*
X135738721Y-84614838D02*
X135786340Y-84662457D01*
X135786340Y-84662457D02*
X135833959Y-84614838D01*
X135833959Y-84614838D02*
X135786340Y-84567219D01*
X135786340Y-84567219D02*
X135786340Y-84662457D01*
X136214911Y-85519600D02*
X136310149Y-85567219D01*
X136310149Y-85567219D02*
X136500625Y-85567219D01*
X136500625Y-85567219D02*
X136595863Y-85519600D01*
X136595863Y-85519600D02*
X136643482Y-85424361D01*
X136643482Y-85424361D02*
X136643482Y-85376742D01*
X136643482Y-85376742D02*
X136595863Y-85281504D01*
X136595863Y-85281504D02*
X136500625Y-85233885D01*
X136500625Y-85233885D02*
X136357768Y-85233885D01*
X136357768Y-85233885D02*
X136262530Y-85186266D01*
X136262530Y-85186266D02*
X136214911Y-85091028D01*
X136214911Y-85091028D02*
X136214911Y-85043409D01*
X136214911Y-85043409D02*
X136262530Y-84948171D01*
X136262530Y-84948171D02*
X136357768Y-84900552D01*
X136357768Y-84900552D02*
X136500625Y-84900552D01*
X136500625Y-84900552D02*
X136595863Y-84948171D01*
X137738721Y-84567219D02*
X138357768Y-84567219D01*
X138357768Y-84567219D02*
X138024435Y-84948171D01*
X138024435Y-84948171D02*
X138167292Y-84948171D01*
X138167292Y-84948171D02*
X138262530Y-84995790D01*
X138262530Y-84995790D02*
X138310149Y-85043409D01*
X138310149Y-85043409D02*
X138357768Y-85138647D01*
X138357768Y-85138647D02*
X138357768Y-85376742D01*
X138357768Y-85376742D02*
X138310149Y-85471980D01*
X138310149Y-85471980D02*
X138262530Y-85519600D01*
X138262530Y-85519600D02*
X138167292Y-85567219D01*
X138167292Y-85567219D02*
X137881578Y-85567219D01*
X137881578Y-85567219D02*
X137786340Y-85519600D01*
X137786340Y-85519600D02*
X137738721Y-85471980D01*
X142019600Y-145777945D02*
X142067219Y-145635088D01*
X142067219Y-145635088D02*
X142067219Y-145396993D01*
X142067219Y-145396993D02*
X142019600Y-145301755D01*
X142019600Y-145301755D02*
X141971980Y-145254136D01*
X141971980Y-145254136D02*
X141876742Y-145206517D01*
X141876742Y-145206517D02*
X141781504Y-145206517D01*
X141781504Y-145206517D02*
X141686266Y-145254136D01*
X141686266Y-145254136D02*
X141638647Y-145301755D01*
X141638647Y-145301755D02*
X141591028Y-145396993D01*
X141591028Y-145396993D02*
X141543409Y-145587469D01*
X141543409Y-145587469D02*
X141495790Y-145682707D01*
X141495790Y-145682707D02*
X141448171Y-145730326D01*
X141448171Y-145730326D02*
X141352933Y-145777945D01*
X141352933Y-145777945D02*
X141257695Y-145777945D01*
X141257695Y-145777945D02*
X141162457Y-145730326D01*
X141162457Y-145730326D02*
X141114838Y-145682707D01*
X141114838Y-145682707D02*
X141067219Y-145587469D01*
X141067219Y-145587469D02*
X141067219Y-145349374D01*
X141067219Y-145349374D02*
X141114838Y-145206517D01*
X141067219Y-144349374D02*
X141067219Y-144539850D01*
X141067219Y-144539850D02*
X141114838Y-144635088D01*
X141114838Y-144635088D02*
X141162457Y-144682707D01*
X141162457Y-144682707D02*
X141305314Y-144777945D01*
X141305314Y-144777945D02*
X141495790Y-144825564D01*
X141495790Y-144825564D02*
X141876742Y-144825564D01*
X141876742Y-144825564D02*
X141971980Y-144777945D01*
X141971980Y-144777945D02*
X142019600Y-144730326D01*
X142019600Y-144730326D02*
X142067219Y-144635088D01*
X142067219Y-144635088D02*
X142067219Y-144444612D01*
X142067219Y-144444612D02*
X142019600Y-144349374D01*
X142019600Y-144349374D02*
X141971980Y-144301755D01*
X141971980Y-144301755D02*
X141876742Y-144254136D01*
X141876742Y-144254136D02*
X141638647Y-144254136D01*
X141638647Y-144254136D02*
X141543409Y-144301755D01*
X141543409Y-144301755D02*
X141495790Y-144349374D01*
X141495790Y-144349374D02*
X141448171Y-144444612D01*
X141448171Y-144444612D02*
X141448171Y-144635088D01*
X141448171Y-144635088D02*
X141495790Y-144730326D01*
X141495790Y-144730326D02*
X141543409Y-144777945D01*
X141543409Y-144777945D02*
X141638647Y-144825564D01*
X142019600Y-143111278D02*
X142067219Y-142968421D01*
X142067219Y-142968421D02*
X142067219Y-142730326D01*
X142067219Y-142730326D02*
X142019600Y-142635088D01*
X142019600Y-142635088D02*
X141971980Y-142587469D01*
X141971980Y-142587469D02*
X141876742Y-142539850D01*
X141876742Y-142539850D02*
X141781504Y-142539850D01*
X141781504Y-142539850D02*
X141686266Y-142587469D01*
X141686266Y-142587469D02*
X141638647Y-142635088D01*
X141638647Y-142635088D02*
X141591028Y-142730326D01*
X141591028Y-142730326D02*
X141543409Y-142920802D01*
X141543409Y-142920802D02*
X141495790Y-143016040D01*
X141495790Y-143016040D02*
X141448171Y-143063659D01*
X141448171Y-143063659D02*
X141352933Y-143111278D01*
X141352933Y-143111278D02*
X141257695Y-143111278D01*
X141257695Y-143111278D02*
X141162457Y-143063659D01*
X141162457Y-143063659D02*
X141114838Y-143016040D01*
X141114838Y-143016040D02*
X141067219Y-142920802D01*
X141067219Y-142920802D02*
X141067219Y-142682707D01*
X141067219Y-142682707D02*
X141114838Y-142539850D01*
X141067219Y-141920802D02*
X141067219Y-141825564D01*
X141067219Y-141825564D02*
X141114838Y-141730326D01*
X141114838Y-141730326D02*
X141162457Y-141682707D01*
X141162457Y-141682707D02*
X141257695Y-141635088D01*
X141257695Y-141635088D02*
X141448171Y-141587469D01*
X141448171Y-141587469D02*
X141686266Y-141587469D01*
X141686266Y-141587469D02*
X141876742Y-141635088D01*
X141876742Y-141635088D02*
X141971980Y-141682707D01*
X141971980Y-141682707D02*
X142019600Y-141730326D01*
X142019600Y-141730326D02*
X142067219Y-141825564D01*
X142067219Y-141825564D02*
X142067219Y-141920802D01*
X142067219Y-141920802D02*
X142019600Y-142016040D01*
X142019600Y-142016040D02*
X141971980Y-142063659D01*
X141971980Y-142063659D02*
X141876742Y-142111278D01*
X141876742Y-142111278D02*
X141686266Y-142158897D01*
X141686266Y-142158897D02*
X141448171Y-142158897D01*
X141448171Y-142158897D02*
X141257695Y-142111278D01*
X141257695Y-142111278D02*
X141162457Y-142063659D01*
X141162457Y-142063659D02*
X141114838Y-142016040D01*
X141114838Y-142016040D02*
X141067219Y-141920802D01*
X92772054Y-85281504D02*
X93248244Y-85281504D01*
X92676816Y-85567219D02*
X93010149Y-84567219D01*
X93010149Y-84567219D02*
X93343482Y-85567219D01*
X93581578Y-85567219D02*
X94105387Y-84900552D01*
X93581578Y-84900552D02*
X94105387Y-85567219D01*
X94486340Y-85567219D02*
X94486340Y-84900552D01*
X94486340Y-84567219D02*
X94438721Y-84614838D01*
X94438721Y-84614838D02*
X94486340Y-84662457D01*
X94486340Y-84662457D02*
X94533959Y-84614838D01*
X94533959Y-84614838D02*
X94486340Y-84567219D01*
X94486340Y-84567219D02*
X94486340Y-84662457D01*
X94914911Y-85519600D02*
X95010149Y-85567219D01*
X95010149Y-85567219D02*
X95200625Y-85567219D01*
X95200625Y-85567219D02*
X95295863Y-85519600D01*
X95295863Y-85519600D02*
X95343482Y-85424361D01*
X95343482Y-85424361D02*
X95343482Y-85376742D01*
X95343482Y-85376742D02*
X95295863Y-85281504D01*
X95295863Y-85281504D02*
X95200625Y-85233885D01*
X95200625Y-85233885D02*
X95057768Y-85233885D01*
X95057768Y-85233885D02*
X94962530Y-85186266D01*
X94962530Y-85186266D02*
X94914911Y-85091028D01*
X94914911Y-85091028D02*
X94914911Y-85043409D01*
X94914911Y-85043409D02*
X94962530Y-84948171D01*
X94962530Y-84948171D02*
X95057768Y-84900552D01*
X95057768Y-84900552D02*
X95200625Y-84900552D01*
X95200625Y-84900552D02*
X95295863Y-84948171D01*
X97057768Y-85567219D02*
X96486340Y-85567219D01*
X96772054Y-85567219D02*
X96772054Y-84567219D01*
X96772054Y-84567219D02*
X96676816Y-84710076D01*
X96676816Y-84710076D02*
X96581578Y-84805314D01*
X96581578Y-84805314D02*
X96486340Y-84852933D01*
D11*
X114865662Y-118864619D02*
X114865662Y-117864619D01*
X115294233Y-118864619D02*
X115294233Y-118340809D01*
X115294233Y-118340809D02*
X115246614Y-118245571D01*
X115246614Y-118245571D02*
X115151376Y-118197952D01*
X115151376Y-118197952D02*
X115008519Y-118197952D01*
X115008519Y-118197952D02*
X114913281Y-118245571D01*
X114913281Y-118245571D02*
X114865662Y-118293190D01*
X115627567Y-118197952D02*
X116008519Y-118197952D01*
X115770424Y-117864619D02*
X115770424Y-118721761D01*
X115770424Y-118721761D02*
X115818043Y-118817000D01*
X115818043Y-118817000D02*
X115913281Y-118864619D01*
X115913281Y-118864619D02*
X116008519Y-118864619D01*
X116198996Y-118197952D02*
X116579948Y-118197952D01*
X116341853Y-117864619D02*
X116341853Y-118721761D01*
X116341853Y-118721761D02*
X116389472Y-118817000D01*
X116389472Y-118817000D02*
X116484710Y-118864619D01*
X116484710Y-118864619D02*
X116579948Y-118864619D01*
X116913282Y-118197952D02*
X116913282Y-119197952D01*
X116913282Y-118245571D02*
X117008520Y-118197952D01*
X117008520Y-118197952D02*
X117198996Y-118197952D01*
X117198996Y-118197952D02*
X117294234Y-118245571D01*
X117294234Y-118245571D02*
X117341853Y-118293190D01*
X117341853Y-118293190D02*
X117389472Y-118388428D01*
X117389472Y-118388428D02*
X117389472Y-118674142D01*
X117389472Y-118674142D02*
X117341853Y-118769380D01*
X117341853Y-118769380D02*
X117294234Y-118817000D01*
X117294234Y-118817000D02*
X117198996Y-118864619D01*
X117198996Y-118864619D02*
X117008520Y-118864619D01*
X117008520Y-118864619D02*
X116913282Y-118817000D01*
X117770425Y-118817000D02*
X117865663Y-118864619D01*
X117865663Y-118864619D02*
X118056139Y-118864619D01*
X118056139Y-118864619D02*
X118151377Y-118817000D01*
X118151377Y-118817000D02*
X118198996Y-118721761D01*
X118198996Y-118721761D02*
X118198996Y-118674142D01*
X118198996Y-118674142D02*
X118151377Y-118578904D01*
X118151377Y-118578904D02*
X118056139Y-118531285D01*
X118056139Y-118531285D02*
X117913282Y-118531285D01*
X117913282Y-118531285D02*
X117818044Y-118483666D01*
X117818044Y-118483666D02*
X117770425Y-118388428D01*
X117770425Y-118388428D02*
X117770425Y-118340809D01*
X117770425Y-118340809D02*
X117818044Y-118245571D01*
X117818044Y-118245571D02*
X117913282Y-118197952D01*
X117913282Y-118197952D02*
X118056139Y-118197952D01*
X118056139Y-118197952D02*
X118151377Y-118245571D01*
X118627568Y-118769380D02*
X118675187Y-118817000D01*
X118675187Y-118817000D02*
X118627568Y-118864619D01*
X118627568Y-118864619D02*
X118579949Y-118817000D01*
X118579949Y-118817000D02*
X118627568Y-118769380D01*
X118627568Y-118769380D02*
X118627568Y-118864619D01*
X118627568Y-118245571D02*
X118675187Y-118293190D01*
X118675187Y-118293190D02*
X118627568Y-118340809D01*
X118627568Y-118340809D02*
X118579949Y-118293190D01*
X118579949Y-118293190D02*
X118627568Y-118245571D01*
X118627568Y-118245571D02*
X118627568Y-118340809D01*
X119818043Y-117817000D02*
X118960901Y-119102714D01*
X120865662Y-117817000D02*
X120008520Y-119102714D01*
X121627567Y-118197952D02*
X121627567Y-119007476D01*
X121627567Y-119007476D02*
X121579948Y-119102714D01*
X121579948Y-119102714D02*
X121532329Y-119150333D01*
X121532329Y-119150333D02*
X121437091Y-119197952D01*
X121437091Y-119197952D02*
X121294234Y-119197952D01*
X121294234Y-119197952D02*
X121198996Y-119150333D01*
X121627567Y-118817000D02*
X121532329Y-118864619D01*
X121532329Y-118864619D02*
X121341853Y-118864619D01*
X121341853Y-118864619D02*
X121246615Y-118817000D01*
X121246615Y-118817000D02*
X121198996Y-118769380D01*
X121198996Y-118769380D02*
X121151377Y-118674142D01*
X121151377Y-118674142D02*
X121151377Y-118388428D01*
X121151377Y-118388428D02*
X121198996Y-118293190D01*
X121198996Y-118293190D02*
X121246615Y-118245571D01*
X121246615Y-118245571D02*
X121341853Y-118197952D01*
X121341853Y-118197952D02*
X121532329Y-118197952D01*
X121532329Y-118197952D02*
X121627567Y-118245571D01*
X122103758Y-118864619D02*
X122103758Y-118197952D01*
X122103758Y-117864619D02*
X122056139Y-117912238D01*
X122056139Y-117912238D02*
X122103758Y-117959857D01*
X122103758Y-117959857D02*
X122151377Y-117912238D01*
X122151377Y-117912238D02*
X122103758Y-117864619D01*
X122103758Y-117864619D02*
X122103758Y-117959857D01*
X122437091Y-118197952D02*
X122818043Y-118197952D01*
X122579948Y-117864619D02*
X122579948Y-118721761D01*
X122579948Y-118721761D02*
X122627567Y-118817000D01*
X122627567Y-118817000D02*
X122722805Y-118864619D01*
X122722805Y-118864619D02*
X122818043Y-118864619D01*
X123151377Y-118864619D02*
X123151377Y-117864619D01*
X123579948Y-118864619D02*
X123579948Y-118340809D01*
X123579948Y-118340809D02*
X123532329Y-118245571D01*
X123532329Y-118245571D02*
X123437091Y-118197952D01*
X123437091Y-118197952D02*
X123294234Y-118197952D01*
X123294234Y-118197952D02*
X123198996Y-118245571D01*
X123198996Y-118245571D02*
X123151377Y-118293190D01*
X124484710Y-118197952D02*
X124484710Y-118864619D01*
X124056139Y-118197952D02*
X124056139Y-118721761D01*
X124056139Y-118721761D02*
X124103758Y-118817000D01*
X124103758Y-118817000D02*
X124198996Y-118864619D01*
X124198996Y-118864619D02*
X124341853Y-118864619D01*
X124341853Y-118864619D02*
X124437091Y-118817000D01*
X124437091Y-118817000D02*
X124484710Y-118769380D01*
X124960901Y-118864619D02*
X124960901Y-117864619D01*
X124960901Y-118245571D02*
X125056139Y-118197952D01*
X125056139Y-118197952D02*
X125246615Y-118197952D01*
X125246615Y-118197952D02*
X125341853Y-118245571D01*
X125341853Y-118245571D02*
X125389472Y-118293190D01*
X125389472Y-118293190D02*
X125437091Y-118388428D01*
X125437091Y-118388428D02*
X125437091Y-118674142D01*
X125437091Y-118674142D02*
X125389472Y-118769380D01*
X125389472Y-118769380D02*
X125341853Y-118817000D01*
X125341853Y-118817000D02*
X125246615Y-118864619D01*
X125246615Y-118864619D02*
X125056139Y-118864619D01*
X125056139Y-118864619D02*
X124960901Y-118817000D01*
X125865663Y-118769380D02*
X125913282Y-118817000D01*
X125913282Y-118817000D02*
X125865663Y-118864619D01*
X125865663Y-118864619D02*
X125818044Y-118817000D01*
X125818044Y-118817000D02*
X125865663Y-118769380D01*
X125865663Y-118769380D02*
X125865663Y-118864619D01*
X126770424Y-118817000D02*
X126675186Y-118864619D01*
X126675186Y-118864619D02*
X126484710Y-118864619D01*
X126484710Y-118864619D02*
X126389472Y-118817000D01*
X126389472Y-118817000D02*
X126341853Y-118769380D01*
X126341853Y-118769380D02*
X126294234Y-118674142D01*
X126294234Y-118674142D02*
X126294234Y-118388428D01*
X126294234Y-118388428D02*
X126341853Y-118293190D01*
X126341853Y-118293190D02*
X126389472Y-118245571D01*
X126389472Y-118245571D02*
X126484710Y-118197952D01*
X126484710Y-118197952D02*
X126675186Y-118197952D01*
X126675186Y-118197952D02*
X126770424Y-118245571D01*
X127341853Y-118864619D02*
X127246615Y-118817000D01*
X127246615Y-118817000D02*
X127198996Y-118769380D01*
X127198996Y-118769380D02*
X127151377Y-118674142D01*
X127151377Y-118674142D02*
X127151377Y-118388428D01*
X127151377Y-118388428D02*
X127198996Y-118293190D01*
X127198996Y-118293190D02*
X127246615Y-118245571D01*
X127246615Y-118245571D02*
X127341853Y-118197952D01*
X127341853Y-118197952D02*
X127484710Y-118197952D01*
X127484710Y-118197952D02*
X127579948Y-118245571D01*
X127579948Y-118245571D02*
X127627567Y-118293190D01*
X127627567Y-118293190D02*
X127675186Y-118388428D01*
X127675186Y-118388428D02*
X127675186Y-118674142D01*
X127675186Y-118674142D02*
X127627567Y-118769380D01*
X127627567Y-118769380D02*
X127579948Y-118817000D01*
X127579948Y-118817000D02*
X127484710Y-118864619D01*
X127484710Y-118864619D02*
X127341853Y-118864619D01*
X128103758Y-118864619D02*
X128103758Y-118197952D01*
X128103758Y-118293190D02*
X128151377Y-118245571D01*
X128151377Y-118245571D02*
X128246615Y-118197952D01*
X128246615Y-118197952D02*
X128389472Y-118197952D01*
X128389472Y-118197952D02*
X128484710Y-118245571D01*
X128484710Y-118245571D02*
X128532329Y-118340809D01*
X128532329Y-118340809D02*
X128532329Y-118864619D01*
X128532329Y-118340809D02*
X128579948Y-118245571D01*
X128579948Y-118245571D02*
X128675186Y-118197952D01*
X128675186Y-118197952D02*
X128818043Y-118197952D01*
X128818043Y-118197952D02*
X128913282Y-118245571D01*
X128913282Y-118245571D02*
X128960901Y-118340809D01*
X128960901Y-118340809D02*
X128960901Y-118864619D01*
X130151376Y-117817000D02*
X129294234Y-119102714D01*
X130341853Y-118197952D02*
X130722805Y-118197952D01*
X130484710Y-118864619D02*
X130484710Y-118007476D01*
X130484710Y-118007476D02*
X130532329Y-117912238D01*
X130532329Y-117912238D02*
X130627567Y-117864619D01*
X130627567Y-117864619D02*
X130722805Y-117864619D01*
X131437091Y-118817000D02*
X131341853Y-118864619D01*
X131341853Y-118864619D02*
X131151377Y-118864619D01*
X131151377Y-118864619D02*
X131056139Y-118817000D01*
X131056139Y-118817000D02*
X131008520Y-118721761D01*
X131008520Y-118721761D02*
X131008520Y-118340809D01*
X131008520Y-118340809D02*
X131056139Y-118245571D01*
X131056139Y-118245571D02*
X131151377Y-118197952D01*
X131151377Y-118197952D02*
X131341853Y-118197952D01*
X131341853Y-118197952D02*
X131437091Y-118245571D01*
X131437091Y-118245571D02*
X131484710Y-118340809D01*
X131484710Y-118340809D02*
X131484710Y-118436047D01*
X131484710Y-118436047D02*
X131008520Y-118531285D01*
X131865663Y-118817000D02*
X131960901Y-118864619D01*
X131960901Y-118864619D02*
X132151377Y-118864619D01*
X132151377Y-118864619D02*
X132246615Y-118817000D01*
X132246615Y-118817000D02*
X132294234Y-118721761D01*
X132294234Y-118721761D02*
X132294234Y-118674142D01*
X132294234Y-118674142D02*
X132246615Y-118578904D01*
X132246615Y-118578904D02*
X132151377Y-118531285D01*
X132151377Y-118531285D02*
X132008520Y-118531285D01*
X132008520Y-118531285D02*
X131913282Y-118483666D01*
X131913282Y-118483666D02*
X131865663Y-118388428D01*
X131865663Y-118388428D02*
X131865663Y-118340809D01*
X131865663Y-118340809D02*
X131913282Y-118245571D01*
X131913282Y-118245571D02*
X132008520Y-118197952D01*
X132008520Y-118197952D02*
X132151377Y-118197952D01*
X132151377Y-118197952D02*
X132246615Y-118245571D01*
X132579949Y-118197952D02*
X132960901Y-118197952D01*
X132722806Y-117864619D02*
X132722806Y-118721761D01*
X132722806Y-118721761D02*
X132770425Y-118817000D01*
X132770425Y-118817000D02*
X132865663Y-118864619D01*
X132865663Y-118864619D02*
X132960901Y-118864619D01*
X133437092Y-118864619D02*
X133341854Y-118817000D01*
X133341854Y-118817000D02*
X133294235Y-118721761D01*
X133294235Y-118721761D02*
X133294235Y-117864619D01*
X133722807Y-118197952D02*
X133960902Y-118864619D01*
X133960902Y-118864619D02*
X134198997Y-118197952D01*
X135294235Y-117817000D02*
X134437093Y-119102714D01*
X135627569Y-118864619D02*
X135627569Y-118197952D01*
X135627569Y-118388428D02*
X135675188Y-118293190D01*
X135675188Y-118293190D02*
X135722807Y-118245571D01*
X135722807Y-118245571D02*
X135818045Y-118197952D01*
X135818045Y-118197952D02*
X135913283Y-118197952D01*
X136246617Y-118864619D02*
X136246617Y-118197952D01*
X136246617Y-117864619D02*
X136198998Y-117912238D01*
X136198998Y-117912238D02*
X136246617Y-117959857D01*
X136246617Y-117959857D02*
X136294236Y-117912238D01*
X136294236Y-117912238D02*
X136246617Y-117864619D01*
X136246617Y-117864619D02*
X136246617Y-117959857D01*
X136865664Y-118864619D02*
X136770426Y-118817000D01*
X136770426Y-118817000D02*
X136722807Y-118769380D01*
X136722807Y-118769380D02*
X136675188Y-118674142D01*
X136675188Y-118674142D02*
X136675188Y-118388428D01*
X136675188Y-118388428D02*
X136722807Y-118293190D01*
X136722807Y-118293190D02*
X136770426Y-118245571D01*
X136770426Y-118245571D02*
X136865664Y-118197952D01*
X136865664Y-118197952D02*
X137008521Y-118197952D01*
X137008521Y-118197952D02*
X137103759Y-118245571D01*
X137103759Y-118245571D02*
X137151378Y-118293190D01*
X137151378Y-118293190D02*
X137198997Y-118388428D01*
X137198997Y-118388428D02*
X137198997Y-118674142D01*
X137198997Y-118674142D02*
X137151378Y-118769380D01*
X137151378Y-118769380D02*
X137103759Y-118817000D01*
X137103759Y-118817000D02*
X137008521Y-118864619D01*
X137008521Y-118864619D02*
X136865664Y-118864619D01*
X138056140Y-118817000D02*
X137960902Y-118864619D01*
X137960902Y-118864619D02*
X137770426Y-118864619D01*
X137770426Y-118864619D02*
X137675188Y-118817000D01*
X137675188Y-118817000D02*
X137627569Y-118769380D01*
X137627569Y-118769380D02*
X137579950Y-118674142D01*
X137579950Y-118674142D02*
X137579950Y-118388428D01*
X137579950Y-118388428D02*
X137627569Y-118293190D01*
X137627569Y-118293190D02*
X137675188Y-118245571D01*
X137675188Y-118245571D02*
X137770426Y-118197952D01*
X137770426Y-118197952D02*
X137960902Y-118197952D01*
X137960902Y-118197952D02*
X138056140Y-118245571D01*
X138341855Y-118197952D02*
X138722807Y-118197952D01*
X138484712Y-117864619D02*
X138484712Y-118721761D01*
X138484712Y-118721761D02*
X138532331Y-118817000D01*
X138532331Y-118817000D02*
X138627569Y-118864619D01*
X138627569Y-118864619D02*
X138722807Y-118864619D01*
X139056141Y-118864619D02*
X139056141Y-118197952D01*
X139056141Y-118388428D02*
X139103760Y-118293190D01*
X139103760Y-118293190D02*
X139151379Y-118245571D01*
X139151379Y-118245571D02*
X139246617Y-118197952D01*
X139246617Y-118197952D02*
X139341855Y-118197952D01*
X139818046Y-118864619D02*
X139722808Y-118817000D01*
X139722808Y-118817000D02*
X139675189Y-118721761D01*
X139675189Y-118721761D02*
X139675189Y-117864619D01*
X140198999Y-118483666D02*
X140960904Y-118483666D01*
X141437094Y-118864619D02*
X141437094Y-117864619D01*
X141865665Y-118864619D02*
X141865665Y-118340809D01*
X141865665Y-118340809D02*
X141818046Y-118245571D01*
X141818046Y-118245571D02*
X141722808Y-118197952D01*
X141722808Y-118197952D02*
X141579951Y-118197952D01*
X141579951Y-118197952D02*
X141484713Y-118245571D01*
X141484713Y-118245571D02*
X141437094Y-118293190D01*
X142246618Y-118197952D02*
X142437094Y-118864619D01*
X142437094Y-118864619D02*
X142627570Y-118388428D01*
X142627570Y-118388428D02*
X142818046Y-118864619D01*
X142818046Y-118864619D02*
X143008522Y-118197952D01*
D12*
X114482204Y-114934438D02*
X114482204Y-113601104D01*
X114482204Y-113982057D02*
X114577442Y-113791580D01*
X114577442Y-113791580D02*
X114672680Y-113696342D01*
X114672680Y-113696342D02*
X114863156Y-113601104D01*
X114863156Y-113601104D02*
X115053633Y-113601104D01*
X115720299Y-114934438D02*
X115720299Y-113601104D01*
X115720299Y-112934438D02*
X115625061Y-113029676D01*
X115625061Y-113029676D02*
X115720299Y-113124914D01*
X115720299Y-113124914D02*
X115815537Y-113029676D01*
X115815537Y-113029676D02*
X115720299Y-112934438D01*
X115720299Y-112934438D02*
X115720299Y-113124914D01*
X116958394Y-114934438D02*
X116767918Y-114839200D01*
X116767918Y-114839200D02*
X116672680Y-114743961D01*
X116672680Y-114743961D02*
X116577442Y-114553485D01*
X116577442Y-114553485D02*
X116577442Y-113982057D01*
X116577442Y-113982057D02*
X116672680Y-113791580D01*
X116672680Y-113791580D02*
X116767918Y-113696342D01*
X116767918Y-113696342D02*
X116958394Y-113601104D01*
X116958394Y-113601104D02*
X117244109Y-113601104D01*
X117244109Y-113601104D02*
X117434585Y-113696342D01*
X117434585Y-113696342D02*
X117529823Y-113791580D01*
X117529823Y-113791580D02*
X117625061Y-113982057D01*
X117625061Y-113982057D02*
X117625061Y-114553485D01*
X117625061Y-114553485D02*
X117529823Y-114743961D01*
X117529823Y-114743961D02*
X117434585Y-114839200D01*
X117434585Y-114839200D02*
X117244109Y-114934438D01*
X117244109Y-114934438D02*
X116958394Y-114934438D01*
X119339347Y-114839200D02*
X119148871Y-114934438D01*
X119148871Y-114934438D02*
X118767918Y-114934438D01*
X118767918Y-114934438D02*
X118577442Y-114839200D01*
X118577442Y-114839200D02*
X118482204Y-114743961D01*
X118482204Y-114743961D02*
X118386966Y-114553485D01*
X118386966Y-114553485D02*
X118386966Y-113982057D01*
X118386966Y-113982057D02*
X118482204Y-113791580D01*
X118482204Y-113791580D02*
X118577442Y-113696342D01*
X118577442Y-113696342D02*
X118767918Y-113601104D01*
X118767918Y-113601104D02*
X119148871Y-113601104D01*
X119148871Y-113601104D02*
X119339347Y-113696342D01*
X119910776Y-113601104D02*
X120672680Y-113601104D01*
X120196490Y-112934438D02*
X120196490Y-114648723D01*
X120196490Y-114648723D02*
X120291728Y-114839200D01*
X120291728Y-114839200D02*
X120482204Y-114934438D01*
X120482204Y-114934438D02*
X120672680Y-114934438D01*
X121339347Y-114934438D02*
X121339347Y-113601104D01*
X121339347Y-113982057D02*
X121434585Y-113791580D01*
X121434585Y-113791580D02*
X121529823Y-113696342D01*
X121529823Y-113696342D02*
X121720299Y-113601104D01*
X121720299Y-113601104D02*
X121910776Y-113601104D01*
X122863156Y-114934438D02*
X122672680Y-114839200D01*
X122672680Y-114839200D02*
X122577442Y-114648723D01*
X122577442Y-114648723D02*
X122577442Y-112934438D01*
X123625061Y-114172533D02*
X125148871Y-114172533D01*
X126006013Y-114839200D02*
X126196489Y-114934438D01*
X126196489Y-114934438D02*
X126577441Y-114934438D01*
X126577441Y-114934438D02*
X126767918Y-114839200D01*
X126767918Y-114839200D02*
X126863156Y-114648723D01*
X126863156Y-114648723D02*
X126863156Y-114553485D01*
X126863156Y-114553485D02*
X126767918Y-114363009D01*
X126767918Y-114363009D02*
X126577441Y-114267771D01*
X126577441Y-114267771D02*
X126291727Y-114267771D01*
X126291727Y-114267771D02*
X126101251Y-114172533D01*
X126101251Y-114172533D02*
X126006013Y-113982057D01*
X126006013Y-113982057D02*
X126006013Y-113886819D01*
X126006013Y-113886819D02*
X126101251Y-113696342D01*
X126101251Y-113696342D02*
X126291727Y-113601104D01*
X126291727Y-113601104D02*
X126577441Y-113601104D01*
X126577441Y-113601104D02*
X126767918Y-113696342D01*
X127434585Y-113601104D02*
X128196489Y-113601104D01*
X127720299Y-112934438D02*
X127720299Y-114648723D01*
X127720299Y-114648723D02*
X127815537Y-114839200D01*
X127815537Y-114839200D02*
X128006013Y-114934438D01*
X128006013Y-114934438D02*
X128196489Y-114934438D01*
X129625061Y-114839200D02*
X129434585Y-114934438D01*
X129434585Y-114934438D02*
X129053632Y-114934438D01*
X129053632Y-114934438D02*
X128863156Y-114839200D01*
X128863156Y-114839200D02*
X128767918Y-114648723D01*
X128767918Y-114648723D02*
X128767918Y-113886819D01*
X128767918Y-113886819D02*
X128863156Y-113696342D01*
X128863156Y-113696342D02*
X129053632Y-113601104D01*
X129053632Y-113601104D02*
X129434585Y-113601104D01*
X129434585Y-113601104D02*
X129625061Y-113696342D01*
X129625061Y-113696342D02*
X129720299Y-113886819D01*
X129720299Y-113886819D02*
X129720299Y-114077295D01*
X129720299Y-114077295D02*
X128767918Y-114267771D01*
X130577442Y-113601104D02*
X130577442Y-115601104D01*
X130577442Y-113696342D02*
X130767918Y-113601104D01*
X130767918Y-113601104D02*
X131148871Y-113601104D01*
X131148871Y-113601104D02*
X131339347Y-113696342D01*
X131339347Y-113696342D02*
X131434585Y-113791580D01*
X131434585Y-113791580D02*
X131529823Y-113982057D01*
X131529823Y-113982057D02*
X131529823Y-114553485D01*
X131529823Y-114553485D02*
X131434585Y-114743961D01*
X131434585Y-114743961D02*
X131339347Y-114839200D01*
X131339347Y-114839200D02*
X131148871Y-114934438D01*
X131148871Y-114934438D02*
X130767918Y-114934438D01*
X130767918Y-114934438D02*
X130577442Y-114839200D01*
X133244109Y-114934438D02*
X133244109Y-112934438D01*
X133244109Y-114839200D02*
X133053633Y-114934438D01*
X133053633Y-114934438D02*
X132672680Y-114934438D01*
X132672680Y-114934438D02*
X132482204Y-114839200D01*
X132482204Y-114839200D02*
X132386966Y-114743961D01*
X132386966Y-114743961D02*
X132291728Y-114553485D01*
X132291728Y-114553485D02*
X132291728Y-113982057D01*
X132291728Y-113982057D02*
X132386966Y-113791580D01*
X132386966Y-113791580D02*
X132482204Y-113696342D01*
X132482204Y-113696342D02*
X132672680Y-113601104D01*
X132672680Y-113601104D02*
X133053633Y-113601104D01*
X133053633Y-113601104D02*
X133244109Y-113696342D01*
X134196490Y-114934438D02*
X134196490Y-113601104D01*
X134196490Y-112934438D02*
X134101252Y-113029676D01*
X134101252Y-113029676D02*
X134196490Y-113124914D01*
X134196490Y-113124914D02*
X134291728Y-113029676D01*
X134291728Y-113029676D02*
X134196490Y-112934438D01*
X134196490Y-112934438D02*
X134196490Y-113124914D01*
X135148871Y-114934438D02*
X135148871Y-113601104D01*
X135148871Y-113982057D02*
X135244109Y-113791580D01*
X135244109Y-113791580D02*
X135339347Y-113696342D01*
X135339347Y-113696342D02*
X135529823Y-113601104D01*
X135529823Y-113601104D02*
X135720300Y-113601104D01*
X137720300Y-113601104D02*
X138196490Y-114934438D01*
X138196490Y-114934438D02*
X138672681Y-113601104D01*
X140482205Y-114934438D02*
X139339348Y-114934438D01*
X139910776Y-114934438D02*
X139910776Y-112934438D01*
X139910776Y-112934438D02*
X139720300Y-113220152D01*
X139720300Y-113220152D02*
X139529824Y-113410628D01*
X139529824Y-113410628D02*
X139339348Y-113505866D01*
X141339348Y-114743961D02*
X141434586Y-114839200D01*
X141434586Y-114839200D02*
X141339348Y-114934438D01*
X141339348Y-114934438D02*
X141244110Y-114839200D01*
X141244110Y-114839200D02*
X141339348Y-114743961D01*
X141339348Y-114743961D02*
X141339348Y-114934438D01*
X142672681Y-112934438D02*
X142863158Y-112934438D01*
X142863158Y-112934438D02*
X143053634Y-113029676D01*
X143053634Y-113029676D02*
X143148872Y-113124914D01*
X143148872Y-113124914D02*
X143244110Y-113315390D01*
X143244110Y-113315390D02*
X143339348Y-113696342D01*
X143339348Y-113696342D02*
X143339348Y-114172533D01*
X143339348Y-114172533D02*
X143244110Y-114553485D01*
X143244110Y-114553485D02*
X143148872Y-114743961D01*
X143148872Y-114743961D02*
X143053634Y-114839200D01*
X143053634Y-114839200D02*
X142863158Y-114934438D01*
X142863158Y-114934438D02*
X142672681Y-114934438D01*
X142672681Y-114934438D02*
X142482205Y-114839200D01*
X142482205Y-114839200D02*
X142386967Y-114743961D01*
X142386967Y-114743961D02*
X142291729Y-114553485D01*
X142291729Y-114553485D02*
X142196491Y-114172533D01*
X142196491Y-114172533D02*
X142196491Y-113696342D01*
X142196491Y-113696342D02*
X142291729Y-113315390D01*
X142291729Y-113315390D02*
X142386967Y-113124914D01*
X142386967Y-113124914D02*
X142482205Y-113029676D01*
X142482205Y-113029676D02*
X142672681Y-112934438D01*
D10*
X155572054Y-85281504D02*
X156048244Y-85281504D01*
X155476816Y-85567219D02*
X155810149Y-84567219D01*
X155810149Y-84567219D02*
X156143482Y-85567219D01*
X156381578Y-85567219D02*
X156905387Y-84900552D01*
X156381578Y-84900552D02*
X156905387Y-85567219D01*
X157286340Y-85567219D02*
X157286340Y-84900552D01*
X157286340Y-84567219D02*
X157238721Y-84614838D01*
X157238721Y-84614838D02*
X157286340Y-84662457D01*
X157286340Y-84662457D02*
X157333959Y-84614838D01*
X157333959Y-84614838D02*
X157286340Y-84567219D01*
X157286340Y-84567219D02*
X157286340Y-84662457D01*
X157714911Y-85519600D02*
X157810149Y-85567219D01*
X157810149Y-85567219D02*
X158000625Y-85567219D01*
X158000625Y-85567219D02*
X158095863Y-85519600D01*
X158095863Y-85519600D02*
X158143482Y-85424361D01*
X158143482Y-85424361D02*
X158143482Y-85376742D01*
X158143482Y-85376742D02*
X158095863Y-85281504D01*
X158095863Y-85281504D02*
X158000625Y-85233885D01*
X158000625Y-85233885D02*
X157857768Y-85233885D01*
X157857768Y-85233885D02*
X157762530Y-85186266D01*
X157762530Y-85186266D02*
X157714911Y-85091028D01*
X157714911Y-85091028D02*
X157714911Y-85043409D01*
X157714911Y-85043409D02*
X157762530Y-84948171D01*
X157762530Y-84948171D02*
X157857768Y-84900552D01*
X157857768Y-84900552D02*
X158000625Y-84900552D01*
X158000625Y-84900552D02*
X158095863Y-84948171D01*
X159762530Y-84900552D02*
X159762530Y-85567219D01*
X159524435Y-84519600D02*
X159286340Y-85233885D01*
X159286340Y-85233885D02*
X159905387Y-85233885D01*
D13*
X132066033Y-69700000D02*
X131732700Y-69933333D01*
X132066033Y-70100000D02*
X131366033Y-70100000D01*
X131366033Y-70100000D02*
X131366033Y-69833333D01*
X131366033Y-69833333D02*
X131399366Y-69766667D01*
X131399366Y-69766667D02*
X131432700Y-69733333D01*
X131432700Y-69733333D02*
X131499366Y-69700000D01*
X131499366Y-69700000D02*
X131599366Y-69700000D01*
X131599366Y-69700000D02*
X131666033Y-69733333D01*
X131666033Y-69733333D02*
X131699366Y-69766667D01*
X131699366Y-69766667D02*
X131732700Y-69833333D01*
X131732700Y-69833333D02*
X131732700Y-70100000D01*
X132066033Y-69033333D02*
X132066033Y-69433333D01*
X132066033Y-69233333D02*
X131366033Y-69233333D01*
X131366033Y-69233333D02*
X131466033Y-69300000D01*
X131466033Y-69300000D02*
X131532700Y-69366667D01*
X131532700Y-69366667D02*
X131566033Y-69433333D01*
X131666033Y-68633333D02*
X131632700Y-68700000D01*
X131632700Y-68700000D02*
X131599366Y-68733333D01*
X131599366Y-68733333D02*
X131532700Y-68766666D01*
X131532700Y-68766666D02*
X131499366Y-68766666D01*
X131499366Y-68766666D02*
X131432700Y-68733333D01*
X131432700Y-68733333D02*
X131399366Y-68700000D01*
X131399366Y-68700000D02*
X131366033Y-68633333D01*
X131366033Y-68633333D02*
X131366033Y-68500000D01*
X131366033Y-68500000D02*
X131399366Y-68433333D01*
X131399366Y-68433333D02*
X131432700Y-68400000D01*
X131432700Y-68400000D02*
X131499366Y-68366666D01*
X131499366Y-68366666D02*
X131532700Y-68366666D01*
X131532700Y-68366666D02*
X131599366Y-68400000D01*
X131599366Y-68400000D02*
X131632700Y-68433333D01*
X131632700Y-68433333D02*
X131666033Y-68500000D01*
X131666033Y-68500000D02*
X131666033Y-68633333D01*
X131666033Y-68633333D02*
X131699366Y-68700000D01*
X131699366Y-68700000D02*
X131732700Y-68733333D01*
X131732700Y-68733333D02*
X131799366Y-68766666D01*
X131799366Y-68766666D02*
X131932700Y-68766666D01*
X131932700Y-68766666D02*
X131999366Y-68733333D01*
X131999366Y-68733333D02*
X132032700Y-68700000D01*
X132032700Y-68700000D02*
X132066033Y-68633333D01*
X132066033Y-68633333D02*
X132066033Y-68500000D01*
X132066033Y-68500000D02*
X132032700Y-68433333D01*
X132032700Y-68433333D02*
X131999366Y-68400000D01*
X131999366Y-68400000D02*
X131932700Y-68366666D01*
X131932700Y-68366666D02*
X131799366Y-68366666D01*
X131799366Y-68366666D02*
X131732700Y-68400000D01*
X131732700Y-68400000D02*
X131699366Y-68433333D01*
X131699366Y-68433333D02*
X131666033Y-68500000D01*
X151703533Y-69700000D02*
X151370200Y-69933333D01*
X151703533Y-70100000D02*
X151003533Y-70100000D01*
X151003533Y-70100000D02*
X151003533Y-69833333D01*
X151003533Y-69833333D02*
X151036866Y-69766667D01*
X151036866Y-69766667D02*
X151070200Y-69733333D01*
X151070200Y-69733333D02*
X151136866Y-69700000D01*
X151136866Y-69700000D02*
X151236866Y-69700000D01*
X151236866Y-69700000D02*
X151303533Y-69733333D01*
X151303533Y-69733333D02*
X151336866Y-69766667D01*
X151336866Y-69766667D02*
X151370200Y-69833333D01*
X151370200Y-69833333D02*
X151370200Y-70100000D01*
X151703533Y-69033333D02*
X151703533Y-69433333D01*
X151703533Y-69233333D02*
X151003533Y-69233333D01*
X151003533Y-69233333D02*
X151103533Y-69300000D01*
X151103533Y-69300000D02*
X151170200Y-69366667D01*
X151170200Y-69366667D02*
X151203533Y-69433333D01*
X151703533Y-68366666D02*
X151703533Y-68766666D01*
X151703533Y-68566666D02*
X151003533Y-68566666D01*
X151003533Y-68566666D02*
X151103533Y-68633333D01*
X151103533Y-68633333D02*
X151170200Y-68700000D01*
X151170200Y-68700000D02*
X151203533Y-68766666D01*
X155606333Y-87161033D02*
X155606333Y-86461033D01*
X155606333Y-86461033D02*
X155773000Y-86461033D01*
X155773000Y-86461033D02*
X155873000Y-86494366D01*
X155873000Y-86494366D02*
X155939667Y-86561033D01*
X155939667Y-86561033D02*
X155973000Y-86627700D01*
X155973000Y-86627700D02*
X156006333Y-86761033D01*
X156006333Y-86761033D02*
X156006333Y-86861033D01*
X156006333Y-86861033D02*
X155973000Y-86994366D01*
X155973000Y-86994366D02*
X155939667Y-87061033D01*
X155939667Y-87061033D02*
X155873000Y-87127700D01*
X155873000Y-87127700D02*
X155773000Y-87161033D01*
X155773000Y-87161033D02*
X155606333Y-87161033D01*
X156606333Y-86694366D02*
X156606333Y-87161033D01*
X156439667Y-86427700D02*
X156273000Y-86927700D01*
X156273000Y-86927700D02*
X156706333Y-86927700D01*
X135496033Y-96450000D02*
X135162700Y-96683333D01*
X135496033Y-96850000D02*
X134796033Y-96850000D01*
X134796033Y-96850000D02*
X134796033Y-96583333D01*
X134796033Y-96583333D02*
X134829366Y-96516667D01*
X134829366Y-96516667D02*
X134862700Y-96483333D01*
X134862700Y-96483333D02*
X134929366Y-96450000D01*
X134929366Y-96450000D02*
X135029366Y-96450000D01*
X135029366Y-96450000D02*
X135096033Y-96483333D01*
X135096033Y-96483333D02*
X135129366Y-96516667D01*
X135129366Y-96516667D02*
X135162700Y-96583333D01*
X135162700Y-96583333D02*
X135162700Y-96850000D01*
X135496033Y-95783333D02*
X135496033Y-96183333D01*
X135496033Y-95983333D02*
X134796033Y-95983333D01*
X134796033Y-95983333D02*
X134896033Y-96050000D01*
X134896033Y-96050000D02*
X134962700Y-96116667D01*
X134962700Y-96116667D02*
X134996033Y-96183333D01*
X134796033Y-95550000D02*
X134796033Y-95116666D01*
X134796033Y-95116666D02*
X135062700Y-95350000D01*
X135062700Y-95350000D02*
X135062700Y-95250000D01*
X135062700Y-95250000D02*
X135096033Y-95183333D01*
X135096033Y-95183333D02*
X135129366Y-95150000D01*
X135129366Y-95150000D02*
X135196033Y-95116666D01*
X135196033Y-95116666D02*
X135362700Y-95116666D01*
X135362700Y-95116666D02*
X135429366Y-95150000D01*
X135429366Y-95150000D02*
X135462700Y-95183333D01*
X135462700Y-95183333D02*
X135496033Y-95250000D01*
X135496033Y-95250000D02*
X135496033Y-95450000D01*
X135496033Y-95450000D02*
X135462700Y-95516666D01*
X135462700Y-95516666D02*
X135429366Y-95550000D01*
X148853533Y-78533333D02*
X149420200Y-78533333D01*
X149420200Y-78533333D02*
X149486866Y-78500000D01*
X149486866Y-78500000D02*
X149520200Y-78466666D01*
X149520200Y-78466666D02*
X149553533Y-78400000D01*
X149553533Y-78400000D02*
X149553533Y-78266666D01*
X149553533Y-78266666D02*
X149520200Y-78200000D01*
X149520200Y-78200000D02*
X149486866Y-78166666D01*
X149486866Y-78166666D02*
X149420200Y-78133333D01*
X149420200Y-78133333D02*
X148853533Y-78133333D01*
X149553533Y-77433333D02*
X149553533Y-77833333D01*
X149553533Y-77633333D02*
X148853533Y-77633333D01*
X148853533Y-77633333D02*
X148953533Y-77700000D01*
X148953533Y-77700000D02*
X149020200Y-77766667D01*
X149020200Y-77766667D02*
X149053533Y-77833333D01*
X153453533Y-69700000D02*
X153120200Y-69933333D01*
X153453533Y-70100000D02*
X152753533Y-70100000D01*
X152753533Y-70100000D02*
X152753533Y-69833333D01*
X152753533Y-69833333D02*
X152786866Y-69766667D01*
X152786866Y-69766667D02*
X152820200Y-69733333D01*
X152820200Y-69733333D02*
X152886866Y-69700000D01*
X152886866Y-69700000D02*
X152986866Y-69700000D01*
X152986866Y-69700000D02*
X153053533Y-69733333D01*
X153053533Y-69733333D02*
X153086866Y-69766667D01*
X153086866Y-69766667D02*
X153120200Y-69833333D01*
X153120200Y-69833333D02*
X153120200Y-70100000D01*
X153453533Y-69033333D02*
X153453533Y-69433333D01*
X153453533Y-69233333D02*
X152753533Y-69233333D01*
X152753533Y-69233333D02*
X152853533Y-69300000D01*
X152853533Y-69300000D02*
X152920200Y-69366667D01*
X152920200Y-69366667D02*
X152953533Y-69433333D01*
X152753533Y-68600000D02*
X152753533Y-68533333D01*
X152753533Y-68533333D02*
X152786866Y-68466666D01*
X152786866Y-68466666D02*
X152820200Y-68433333D01*
X152820200Y-68433333D02*
X152886866Y-68400000D01*
X152886866Y-68400000D02*
X153020200Y-68366666D01*
X153020200Y-68366666D02*
X153186866Y-68366666D01*
X153186866Y-68366666D02*
X153320200Y-68400000D01*
X153320200Y-68400000D02*
X153386866Y-68433333D01*
X153386866Y-68433333D02*
X153420200Y-68466666D01*
X153420200Y-68466666D02*
X153453533Y-68533333D01*
X153453533Y-68533333D02*
X153453533Y-68600000D01*
X153453533Y-68600000D02*
X153420200Y-68666666D01*
X153420200Y-68666666D02*
X153386866Y-68700000D01*
X153386866Y-68700000D02*
X153320200Y-68733333D01*
X153320200Y-68733333D02*
X153186866Y-68766666D01*
X153186866Y-68766666D02*
X153020200Y-68766666D01*
X153020200Y-68766666D02*
X152886866Y-68733333D01*
X152886866Y-68733333D02*
X152820200Y-68700000D01*
X152820200Y-68700000D02*
X152786866Y-68666666D01*
X152786866Y-68666666D02*
X152753533Y-68600000D01*
X85769366Y-84333333D02*
X85769366Y-84566666D01*
X86136033Y-84566666D02*
X85436033Y-84566666D01*
X85436033Y-84566666D02*
X85436033Y-84233333D01*
X85769366Y-83733333D02*
X85802700Y-83633333D01*
X85802700Y-83633333D02*
X85836033Y-83599999D01*
X85836033Y-83599999D02*
X85902700Y-83566666D01*
X85902700Y-83566666D02*
X86002700Y-83566666D01*
X86002700Y-83566666D02*
X86069366Y-83599999D01*
X86069366Y-83599999D02*
X86102700Y-83633333D01*
X86102700Y-83633333D02*
X86136033Y-83699999D01*
X86136033Y-83699999D02*
X86136033Y-83966666D01*
X86136033Y-83966666D02*
X85436033Y-83966666D01*
X85436033Y-83966666D02*
X85436033Y-83733333D01*
X85436033Y-83733333D02*
X85469366Y-83666666D01*
X85469366Y-83666666D02*
X85502700Y-83633333D01*
X85502700Y-83633333D02*
X85569366Y-83599999D01*
X85569366Y-83599999D02*
X85636033Y-83599999D01*
X85636033Y-83599999D02*
X85702700Y-83633333D01*
X85702700Y-83633333D02*
X85736033Y-83666666D01*
X85736033Y-83666666D02*
X85769366Y-83733333D01*
X85769366Y-83733333D02*
X85769366Y-83966666D01*
X85669366Y-82966666D02*
X86136033Y-82966666D01*
X85402700Y-83133333D02*
X85902700Y-83299999D01*
X85902700Y-83299999D02*
X85902700Y-82866666D01*
X146111033Y-154238333D02*
X146611033Y-154238333D01*
X146611033Y-154238333D02*
X146711033Y-154271666D01*
X146711033Y-154271666D02*
X146777700Y-154338333D01*
X146777700Y-154338333D02*
X146811033Y-154438333D01*
X146811033Y-154438333D02*
X146811033Y-154505000D01*
X146811033Y-153538333D02*
X146811033Y-153938333D01*
X146811033Y-153738333D02*
X146111033Y-153738333D01*
X146111033Y-153738333D02*
X146211033Y-153805000D01*
X146211033Y-153805000D02*
X146277700Y-153871667D01*
X146277700Y-153871667D02*
X146311033Y-153938333D01*
X129183333Y-139382700D02*
X129116666Y-139349366D01*
X129116666Y-139349366D02*
X129050000Y-139282700D01*
X129050000Y-139282700D02*
X128950000Y-139182700D01*
X128950000Y-139182700D02*
X128883333Y-139149366D01*
X128883333Y-139149366D02*
X128816666Y-139149366D01*
X128850000Y-139316033D02*
X128783333Y-139282700D01*
X128783333Y-139282700D02*
X128716666Y-139216033D01*
X128716666Y-139216033D02*
X128683333Y-139082700D01*
X128683333Y-139082700D02*
X128683333Y-138849366D01*
X128683333Y-138849366D02*
X128716666Y-138716033D01*
X128716666Y-138716033D02*
X128783333Y-138649366D01*
X128783333Y-138649366D02*
X128850000Y-138616033D01*
X128850000Y-138616033D02*
X128983333Y-138616033D01*
X128983333Y-138616033D02*
X129050000Y-138649366D01*
X129050000Y-138649366D02*
X129116666Y-138716033D01*
X129116666Y-138716033D02*
X129150000Y-138849366D01*
X129150000Y-138849366D02*
X129150000Y-139082700D01*
X129150000Y-139082700D02*
X129116666Y-139216033D01*
X129116666Y-139216033D02*
X129050000Y-139282700D01*
X129050000Y-139282700D02*
X128983333Y-139316033D01*
X128983333Y-139316033D02*
X128850000Y-139316033D01*
X129749999Y-138849366D02*
X129749999Y-139316033D01*
X129583333Y-138582700D02*
X129416666Y-139082700D01*
X129416666Y-139082700D02*
X129849999Y-139082700D01*
X147266666Y-66866033D02*
X147266666Y-67366033D01*
X147266666Y-67366033D02*
X147233333Y-67466033D01*
X147233333Y-67466033D02*
X147166666Y-67532700D01*
X147166666Y-67532700D02*
X147066666Y-67566033D01*
X147066666Y-67566033D02*
X147000000Y-67566033D01*
X147566666Y-66932700D02*
X147599999Y-66899366D01*
X147599999Y-66899366D02*
X147666666Y-66866033D01*
X147666666Y-66866033D02*
X147833333Y-66866033D01*
X147833333Y-66866033D02*
X147899999Y-66899366D01*
X147899999Y-66899366D02*
X147933333Y-66932700D01*
X147933333Y-66932700D02*
X147966666Y-66999366D01*
X147966666Y-66999366D02*
X147966666Y-67066033D01*
X147966666Y-67066033D02*
X147933333Y-67166033D01*
X147933333Y-67166033D02*
X147533333Y-67566033D01*
X147533333Y-67566033D02*
X147966666Y-67566033D01*
X112632700Y-139366666D02*
X112599366Y-139433333D01*
X112599366Y-139433333D02*
X112532700Y-139500000D01*
X112532700Y-139500000D02*
X112432700Y-139600000D01*
X112432700Y-139600000D02*
X112399366Y-139666666D01*
X112399366Y-139666666D02*
X112399366Y-139733333D01*
X112566033Y-139700000D02*
X112532700Y-139766666D01*
X112532700Y-139766666D02*
X112466033Y-139833333D01*
X112466033Y-139833333D02*
X112332700Y-139866666D01*
X112332700Y-139866666D02*
X112099366Y-139866666D01*
X112099366Y-139866666D02*
X111966033Y-139833333D01*
X111966033Y-139833333D02*
X111899366Y-139766666D01*
X111899366Y-139766666D02*
X111866033Y-139700000D01*
X111866033Y-139700000D02*
X111866033Y-139566666D01*
X111866033Y-139566666D02*
X111899366Y-139500000D01*
X111899366Y-139500000D02*
X111966033Y-139433333D01*
X111966033Y-139433333D02*
X112099366Y-139400000D01*
X112099366Y-139400000D02*
X112332700Y-139400000D01*
X112332700Y-139400000D02*
X112466033Y-139433333D01*
X112466033Y-139433333D02*
X112532700Y-139500000D01*
X112532700Y-139500000D02*
X112566033Y-139566666D01*
X112566033Y-139566666D02*
X112566033Y-139700000D01*
X112566033Y-138733333D02*
X112566033Y-139133333D01*
X112566033Y-138933333D02*
X111866033Y-138933333D01*
X111866033Y-138933333D02*
X111966033Y-139000000D01*
X111966033Y-139000000D02*
X112032700Y-139066667D01*
X112032700Y-139066667D02*
X112066033Y-139133333D01*
X95382700Y-92649999D02*
X95349366Y-92716666D01*
X95349366Y-92716666D02*
X95282700Y-92783333D01*
X95282700Y-92783333D02*
X95182700Y-92883333D01*
X95182700Y-92883333D02*
X95149366Y-92949999D01*
X95149366Y-92949999D02*
X95149366Y-93016666D01*
X95316033Y-92983333D02*
X95282700Y-93049999D01*
X95282700Y-93049999D02*
X95216033Y-93116666D01*
X95216033Y-93116666D02*
X95082700Y-93149999D01*
X95082700Y-93149999D02*
X94849366Y-93149999D01*
X94849366Y-93149999D02*
X94716033Y-93116666D01*
X94716033Y-93116666D02*
X94649366Y-93049999D01*
X94649366Y-93049999D02*
X94616033Y-92983333D01*
X94616033Y-92983333D02*
X94616033Y-92849999D01*
X94616033Y-92849999D02*
X94649366Y-92783333D01*
X94649366Y-92783333D02*
X94716033Y-92716666D01*
X94716033Y-92716666D02*
X94849366Y-92683333D01*
X94849366Y-92683333D02*
X95082700Y-92683333D01*
X95082700Y-92683333D02*
X95216033Y-92716666D01*
X95216033Y-92716666D02*
X95282700Y-92783333D01*
X95282700Y-92783333D02*
X95316033Y-92849999D01*
X95316033Y-92849999D02*
X95316033Y-92983333D01*
X95316033Y-92016666D02*
X95316033Y-92416666D01*
X95316033Y-92216666D02*
X94616033Y-92216666D01*
X94616033Y-92216666D02*
X94716033Y-92283333D01*
X94716033Y-92283333D02*
X94782700Y-92350000D01*
X94782700Y-92350000D02*
X94816033Y-92416666D01*
X94682700Y-91749999D02*
X94649366Y-91716666D01*
X94649366Y-91716666D02*
X94616033Y-91649999D01*
X94616033Y-91649999D02*
X94616033Y-91483333D01*
X94616033Y-91483333D02*
X94649366Y-91416666D01*
X94649366Y-91416666D02*
X94682700Y-91383333D01*
X94682700Y-91383333D02*
X94749366Y-91349999D01*
X94749366Y-91349999D02*
X94816033Y-91349999D01*
X94816033Y-91349999D02*
X94916033Y-91383333D01*
X94916033Y-91383333D02*
X95316033Y-91783333D01*
X95316033Y-91783333D02*
X95316033Y-91349999D01*
X158983333Y-91570200D02*
X158916666Y-91536866D01*
X158916666Y-91536866D02*
X158850000Y-91470200D01*
X158850000Y-91470200D02*
X158750000Y-91370200D01*
X158750000Y-91370200D02*
X158683333Y-91336866D01*
X158683333Y-91336866D02*
X158616666Y-91336866D01*
X158650000Y-91503533D02*
X158583333Y-91470200D01*
X158583333Y-91470200D02*
X158516666Y-91403533D01*
X158516666Y-91403533D02*
X158483333Y-91270200D01*
X158483333Y-91270200D02*
X158483333Y-91036866D01*
X158483333Y-91036866D02*
X158516666Y-90903533D01*
X158516666Y-90903533D02*
X158583333Y-90836866D01*
X158583333Y-90836866D02*
X158650000Y-90803533D01*
X158650000Y-90803533D02*
X158783333Y-90803533D01*
X158783333Y-90803533D02*
X158850000Y-90836866D01*
X158850000Y-90836866D02*
X158916666Y-90903533D01*
X158916666Y-90903533D02*
X158950000Y-91036866D01*
X158950000Y-91036866D02*
X158950000Y-91270200D01*
X158950000Y-91270200D02*
X158916666Y-91403533D01*
X158916666Y-91403533D02*
X158850000Y-91470200D01*
X158850000Y-91470200D02*
X158783333Y-91503533D01*
X158783333Y-91503533D02*
X158650000Y-91503533D01*
X159549999Y-90803533D02*
X159416666Y-90803533D01*
X159416666Y-90803533D02*
X159349999Y-90836866D01*
X159349999Y-90836866D02*
X159316666Y-90870200D01*
X159316666Y-90870200D02*
X159249999Y-90970200D01*
X159249999Y-90970200D02*
X159216666Y-91103533D01*
X159216666Y-91103533D02*
X159216666Y-91370200D01*
X159216666Y-91370200D02*
X159249999Y-91436866D01*
X159249999Y-91436866D02*
X159283333Y-91470200D01*
X159283333Y-91470200D02*
X159349999Y-91503533D01*
X159349999Y-91503533D02*
X159483333Y-91503533D01*
X159483333Y-91503533D02*
X159549999Y-91470200D01*
X159549999Y-91470200D02*
X159583333Y-91436866D01*
X159583333Y-91436866D02*
X159616666Y-91370200D01*
X159616666Y-91370200D02*
X159616666Y-91203533D01*
X159616666Y-91203533D02*
X159583333Y-91136866D01*
X159583333Y-91136866D02*
X159549999Y-91103533D01*
X159549999Y-91103533D02*
X159483333Y-91070200D01*
X159483333Y-91070200D02*
X159349999Y-91070200D01*
X159349999Y-91070200D02*
X159283333Y-91103533D01*
X159283333Y-91103533D02*
X159249999Y-91136866D01*
X159249999Y-91136866D02*
X159216666Y-91203533D01*
X128133333Y-136249366D02*
X128100000Y-136282700D01*
X128100000Y-136282700D02*
X128000000Y-136316033D01*
X128000000Y-136316033D02*
X127933333Y-136316033D01*
X127933333Y-136316033D02*
X127833333Y-136282700D01*
X127833333Y-136282700D02*
X127766667Y-136216033D01*
X127766667Y-136216033D02*
X127733333Y-136149366D01*
X127733333Y-136149366D02*
X127700000Y-136016033D01*
X127700000Y-136016033D02*
X127700000Y-135916033D01*
X127700000Y-135916033D02*
X127733333Y-135782700D01*
X127733333Y-135782700D02*
X127766667Y-135716033D01*
X127766667Y-135716033D02*
X127833333Y-135649366D01*
X127833333Y-135649366D02*
X127933333Y-135616033D01*
X127933333Y-135616033D02*
X128000000Y-135616033D01*
X128000000Y-135616033D02*
X128100000Y-135649366D01*
X128100000Y-135649366D02*
X128133333Y-135682700D01*
X128400000Y-135682700D02*
X128433333Y-135649366D01*
X128433333Y-135649366D02*
X128500000Y-135616033D01*
X128500000Y-135616033D02*
X128666667Y-135616033D01*
X128666667Y-135616033D02*
X128733333Y-135649366D01*
X128733333Y-135649366D02*
X128766667Y-135682700D01*
X128766667Y-135682700D02*
X128800000Y-135749366D01*
X128800000Y-135749366D02*
X128800000Y-135816033D01*
X128800000Y-135816033D02*
X128766667Y-135916033D01*
X128766667Y-135916033D02*
X128366667Y-136316033D01*
X128366667Y-136316033D02*
X128800000Y-136316033D01*
X152183333Y-91382700D02*
X152116666Y-91349366D01*
X152116666Y-91349366D02*
X152050000Y-91282700D01*
X152050000Y-91282700D02*
X151950000Y-91182700D01*
X151950000Y-91182700D02*
X151883333Y-91149366D01*
X151883333Y-91149366D02*
X151816666Y-91149366D01*
X151850000Y-91316033D02*
X151783333Y-91282700D01*
X151783333Y-91282700D02*
X151716666Y-91216033D01*
X151716666Y-91216033D02*
X151683333Y-91082700D01*
X151683333Y-91082700D02*
X151683333Y-90849366D01*
X151683333Y-90849366D02*
X151716666Y-90716033D01*
X151716666Y-90716033D02*
X151783333Y-90649366D01*
X151783333Y-90649366D02*
X151850000Y-90616033D01*
X151850000Y-90616033D02*
X151983333Y-90616033D01*
X151983333Y-90616033D02*
X152050000Y-90649366D01*
X152050000Y-90649366D02*
X152116666Y-90716033D01*
X152116666Y-90716033D02*
X152150000Y-90849366D01*
X152150000Y-90849366D02*
X152150000Y-91082700D01*
X152150000Y-91082700D02*
X152116666Y-91216033D01*
X152116666Y-91216033D02*
X152050000Y-91282700D01*
X152050000Y-91282700D02*
X151983333Y-91316033D01*
X151983333Y-91316033D02*
X151850000Y-91316033D01*
X152783333Y-90616033D02*
X152449999Y-90616033D01*
X152449999Y-90616033D02*
X152416666Y-90949366D01*
X152416666Y-90949366D02*
X152449999Y-90916033D01*
X152449999Y-90916033D02*
X152516666Y-90882700D01*
X152516666Y-90882700D02*
X152683333Y-90882700D01*
X152683333Y-90882700D02*
X152749999Y-90916033D01*
X152749999Y-90916033D02*
X152783333Y-90949366D01*
X152783333Y-90949366D02*
X152816666Y-91016033D01*
X152816666Y-91016033D02*
X152816666Y-91182700D01*
X152816666Y-91182700D02*
X152783333Y-91249366D01*
X152783333Y-91249366D02*
X152749999Y-91282700D01*
X152749999Y-91282700D02*
X152683333Y-91316033D01*
X152683333Y-91316033D02*
X152516666Y-91316033D01*
X152516666Y-91316033D02*
X152449999Y-91282700D01*
X152449999Y-91282700D02*
X152416666Y-91249366D01*
X117132700Y-92899999D02*
X117099366Y-92966666D01*
X117099366Y-92966666D02*
X117032700Y-93033333D01*
X117032700Y-93033333D02*
X116932700Y-93133333D01*
X116932700Y-93133333D02*
X116899366Y-93199999D01*
X116899366Y-93199999D02*
X116899366Y-93266666D01*
X117066033Y-93233333D02*
X117032700Y-93299999D01*
X117032700Y-93299999D02*
X116966033Y-93366666D01*
X116966033Y-93366666D02*
X116832700Y-93399999D01*
X116832700Y-93399999D02*
X116599366Y-93399999D01*
X116599366Y-93399999D02*
X116466033Y-93366666D01*
X116466033Y-93366666D02*
X116399366Y-93299999D01*
X116399366Y-93299999D02*
X116366033Y-93233333D01*
X116366033Y-93233333D02*
X116366033Y-93099999D01*
X116366033Y-93099999D02*
X116399366Y-93033333D01*
X116399366Y-93033333D02*
X116466033Y-92966666D01*
X116466033Y-92966666D02*
X116599366Y-92933333D01*
X116599366Y-92933333D02*
X116832700Y-92933333D01*
X116832700Y-92933333D02*
X116966033Y-92966666D01*
X116966033Y-92966666D02*
X117032700Y-93033333D01*
X117032700Y-93033333D02*
X117066033Y-93099999D01*
X117066033Y-93099999D02*
X117066033Y-93233333D01*
X117066033Y-92266666D02*
X117066033Y-92666666D01*
X117066033Y-92466666D02*
X116366033Y-92466666D01*
X116366033Y-92466666D02*
X116466033Y-92533333D01*
X116466033Y-92533333D02*
X116532700Y-92600000D01*
X116532700Y-92600000D02*
X116566033Y-92666666D01*
X116366033Y-91833333D02*
X116366033Y-91766666D01*
X116366033Y-91766666D02*
X116399366Y-91699999D01*
X116399366Y-91699999D02*
X116432700Y-91666666D01*
X116432700Y-91666666D02*
X116499366Y-91633333D01*
X116499366Y-91633333D02*
X116632700Y-91599999D01*
X116632700Y-91599999D02*
X116799366Y-91599999D01*
X116799366Y-91599999D02*
X116932700Y-91633333D01*
X116932700Y-91633333D02*
X116999366Y-91666666D01*
X116999366Y-91666666D02*
X117032700Y-91699999D01*
X117032700Y-91699999D02*
X117066033Y-91766666D01*
X117066033Y-91766666D02*
X117066033Y-91833333D01*
X117066033Y-91833333D02*
X117032700Y-91899999D01*
X117032700Y-91899999D02*
X116999366Y-91933333D01*
X116999366Y-91933333D02*
X116932700Y-91966666D01*
X116932700Y-91966666D02*
X116799366Y-91999999D01*
X116799366Y-91999999D02*
X116632700Y-91999999D01*
X116632700Y-91999999D02*
X116499366Y-91966666D01*
X116499366Y-91966666D02*
X116432700Y-91933333D01*
X116432700Y-91933333D02*
X116399366Y-91899999D01*
X116399366Y-91899999D02*
X116366033Y-91833333D01*
X154886866Y-83616666D02*
X154920200Y-83649999D01*
X154920200Y-83649999D02*
X154953533Y-83749999D01*
X154953533Y-83749999D02*
X154953533Y-83816666D01*
X154953533Y-83816666D02*
X154920200Y-83916666D01*
X154920200Y-83916666D02*
X154853533Y-83983333D01*
X154853533Y-83983333D02*
X154786866Y-84016666D01*
X154786866Y-84016666D02*
X154653533Y-84049999D01*
X154653533Y-84049999D02*
X154553533Y-84049999D01*
X154553533Y-84049999D02*
X154420200Y-84016666D01*
X154420200Y-84016666D02*
X154353533Y-83983333D01*
X154353533Y-83983333D02*
X154286866Y-83916666D01*
X154286866Y-83916666D02*
X154253533Y-83816666D01*
X154253533Y-83816666D02*
X154253533Y-83749999D01*
X154253533Y-83749999D02*
X154286866Y-83649999D01*
X154286866Y-83649999D02*
X154320200Y-83616666D01*
X154253533Y-83383333D02*
X154253533Y-82949999D01*
X154253533Y-82949999D02*
X154520200Y-83183333D01*
X154520200Y-83183333D02*
X154520200Y-83083333D01*
X154520200Y-83083333D02*
X154553533Y-83016666D01*
X154553533Y-83016666D02*
X154586866Y-82983333D01*
X154586866Y-82983333D02*
X154653533Y-82949999D01*
X154653533Y-82949999D02*
X154820200Y-82949999D01*
X154820200Y-82949999D02*
X154886866Y-82983333D01*
X154886866Y-82983333D02*
X154920200Y-83016666D01*
X154920200Y-83016666D02*
X154953533Y-83083333D01*
X154953533Y-83083333D02*
X154953533Y-83283333D01*
X154953533Y-83283333D02*
X154920200Y-83349999D01*
X154920200Y-83349999D02*
X154886866Y-83383333D01*
X132516667Y-90519366D02*
X132283333Y-90519366D01*
X132283333Y-90886033D02*
X132283333Y-90186033D01*
X132283333Y-90186033D02*
X132616667Y-90186033D01*
X132850000Y-90252700D02*
X132883333Y-90219366D01*
X132883333Y-90219366D02*
X132950000Y-90186033D01*
X132950000Y-90186033D02*
X133116667Y-90186033D01*
X133116667Y-90186033D02*
X133183333Y-90219366D01*
X133183333Y-90219366D02*
X133216667Y-90252700D01*
X133216667Y-90252700D02*
X133250000Y-90319366D01*
X133250000Y-90319366D02*
X133250000Y-90386033D01*
X133250000Y-90386033D02*
X133216667Y-90486033D01*
X133216667Y-90486033D02*
X132816667Y-90886033D01*
X132816667Y-90886033D02*
X133250000Y-90886033D01*
X110929366Y-83866666D02*
X110962700Y-83899999D01*
X110962700Y-83899999D02*
X110996033Y-83999999D01*
X110996033Y-83999999D02*
X110996033Y-84066666D01*
X110996033Y-84066666D02*
X110962700Y-84166666D01*
X110962700Y-84166666D02*
X110896033Y-84233333D01*
X110896033Y-84233333D02*
X110829366Y-84266666D01*
X110829366Y-84266666D02*
X110696033Y-84299999D01*
X110696033Y-84299999D02*
X110596033Y-84299999D01*
X110596033Y-84299999D02*
X110462700Y-84266666D01*
X110462700Y-84266666D02*
X110396033Y-84233333D01*
X110396033Y-84233333D02*
X110329366Y-84166666D01*
X110329366Y-84166666D02*
X110296033Y-84066666D01*
X110296033Y-84066666D02*
X110296033Y-83999999D01*
X110296033Y-83999999D02*
X110329366Y-83899999D01*
X110329366Y-83899999D02*
X110362700Y-83866666D01*
X110296033Y-83633333D02*
X110296033Y-83166666D01*
X110296033Y-83166666D02*
X110996033Y-83466666D01*
X140882700Y-92316666D02*
X140849366Y-92383333D01*
X140849366Y-92383333D02*
X140782700Y-92450000D01*
X140782700Y-92450000D02*
X140682700Y-92550000D01*
X140682700Y-92550000D02*
X140649366Y-92616666D01*
X140649366Y-92616666D02*
X140649366Y-92683333D01*
X140816033Y-92650000D02*
X140782700Y-92716666D01*
X140782700Y-92716666D02*
X140716033Y-92783333D01*
X140716033Y-92783333D02*
X140582700Y-92816666D01*
X140582700Y-92816666D02*
X140349366Y-92816666D01*
X140349366Y-92816666D02*
X140216033Y-92783333D01*
X140216033Y-92783333D02*
X140149366Y-92716666D01*
X140149366Y-92716666D02*
X140116033Y-92650000D01*
X140116033Y-92650000D02*
X140116033Y-92516666D01*
X140116033Y-92516666D02*
X140149366Y-92450000D01*
X140149366Y-92450000D02*
X140216033Y-92383333D01*
X140216033Y-92383333D02*
X140349366Y-92350000D01*
X140349366Y-92350000D02*
X140582700Y-92350000D01*
X140582700Y-92350000D02*
X140716033Y-92383333D01*
X140716033Y-92383333D02*
X140782700Y-92450000D01*
X140782700Y-92450000D02*
X140816033Y-92516666D01*
X140816033Y-92516666D02*
X140816033Y-92650000D01*
X140416033Y-91950000D02*
X140382700Y-92016667D01*
X140382700Y-92016667D02*
X140349366Y-92050000D01*
X140349366Y-92050000D02*
X140282700Y-92083333D01*
X140282700Y-92083333D02*
X140249366Y-92083333D01*
X140249366Y-92083333D02*
X140182700Y-92050000D01*
X140182700Y-92050000D02*
X140149366Y-92016667D01*
X140149366Y-92016667D02*
X140116033Y-91950000D01*
X140116033Y-91950000D02*
X140116033Y-91816667D01*
X140116033Y-91816667D02*
X140149366Y-91750000D01*
X140149366Y-91750000D02*
X140182700Y-91716667D01*
X140182700Y-91716667D02*
X140249366Y-91683333D01*
X140249366Y-91683333D02*
X140282700Y-91683333D01*
X140282700Y-91683333D02*
X140349366Y-91716667D01*
X140349366Y-91716667D02*
X140382700Y-91750000D01*
X140382700Y-91750000D02*
X140416033Y-91816667D01*
X140416033Y-91816667D02*
X140416033Y-91950000D01*
X140416033Y-91950000D02*
X140449366Y-92016667D01*
X140449366Y-92016667D02*
X140482700Y-92050000D01*
X140482700Y-92050000D02*
X140549366Y-92083333D01*
X140549366Y-92083333D02*
X140682700Y-92083333D01*
X140682700Y-92083333D02*
X140749366Y-92050000D01*
X140749366Y-92050000D02*
X140782700Y-92016667D01*
X140782700Y-92016667D02*
X140816033Y-91950000D01*
X140816033Y-91950000D02*
X140816033Y-91816667D01*
X140816033Y-91816667D02*
X140782700Y-91750000D01*
X140782700Y-91750000D02*
X140749366Y-91716667D01*
X140749366Y-91716667D02*
X140682700Y-91683333D01*
X140682700Y-91683333D02*
X140549366Y-91683333D01*
X140549366Y-91683333D02*
X140482700Y-91716667D01*
X140482700Y-91716667D02*
X140449366Y-91750000D01*
X140449366Y-91750000D02*
X140416033Y-91816667D01*
X111746033Y-96450000D02*
X111412700Y-96683333D01*
X111746033Y-96850000D02*
X111046033Y-96850000D01*
X111046033Y-96850000D02*
X111046033Y-96583333D01*
X111046033Y-96583333D02*
X111079366Y-96516667D01*
X111079366Y-96516667D02*
X111112700Y-96483333D01*
X111112700Y-96483333D02*
X111179366Y-96450000D01*
X111179366Y-96450000D02*
X111279366Y-96450000D01*
X111279366Y-96450000D02*
X111346033Y-96483333D01*
X111346033Y-96483333D02*
X111379366Y-96516667D01*
X111379366Y-96516667D02*
X111412700Y-96583333D01*
X111412700Y-96583333D02*
X111412700Y-96850000D01*
X111112700Y-96183333D02*
X111079366Y-96150000D01*
X111079366Y-96150000D02*
X111046033Y-96083333D01*
X111046033Y-96083333D02*
X111046033Y-95916667D01*
X111046033Y-95916667D02*
X111079366Y-95850000D01*
X111079366Y-95850000D02*
X111112700Y-95816667D01*
X111112700Y-95816667D02*
X111179366Y-95783333D01*
X111179366Y-95783333D02*
X111246033Y-95783333D01*
X111246033Y-95783333D02*
X111346033Y-95816667D01*
X111346033Y-95816667D02*
X111746033Y-96216667D01*
X111746033Y-96216667D02*
X111746033Y-95783333D01*
X111746033Y-95116666D02*
X111746033Y-95516666D01*
X111746033Y-95316666D02*
X111046033Y-95316666D01*
X111046033Y-95316666D02*
X111146033Y-95383333D01*
X111146033Y-95383333D02*
X111212700Y-95450000D01*
X111212700Y-95450000D02*
X111246033Y-95516666D01*
X127519366Y-84083333D02*
X127519366Y-84316666D01*
X127886033Y-84316666D02*
X127186033Y-84316666D01*
X127186033Y-84316666D02*
X127186033Y-83983333D01*
X127519366Y-83483333D02*
X127552700Y-83383333D01*
X127552700Y-83383333D02*
X127586033Y-83349999D01*
X127586033Y-83349999D02*
X127652700Y-83316666D01*
X127652700Y-83316666D02*
X127752700Y-83316666D01*
X127752700Y-83316666D02*
X127819366Y-83349999D01*
X127819366Y-83349999D02*
X127852700Y-83383333D01*
X127852700Y-83383333D02*
X127886033Y-83449999D01*
X127886033Y-83449999D02*
X127886033Y-83716666D01*
X127886033Y-83716666D02*
X127186033Y-83716666D01*
X127186033Y-83716666D02*
X127186033Y-83483333D01*
X127186033Y-83483333D02*
X127219366Y-83416666D01*
X127219366Y-83416666D02*
X127252700Y-83383333D01*
X127252700Y-83383333D02*
X127319366Y-83349999D01*
X127319366Y-83349999D02*
X127386033Y-83349999D01*
X127386033Y-83349999D02*
X127452700Y-83383333D01*
X127452700Y-83383333D02*
X127486033Y-83416666D01*
X127486033Y-83416666D02*
X127519366Y-83483333D01*
X127519366Y-83483333D02*
X127519366Y-83716666D01*
X127252700Y-83049999D02*
X127219366Y-83016666D01*
X127219366Y-83016666D02*
X127186033Y-82949999D01*
X127186033Y-82949999D02*
X127186033Y-82783333D01*
X127186033Y-82783333D02*
X127219366Y-82716666D01*
X127219366Y-82716666D02*
X127252700Y-82683333D01*
X127252700Y-82683333D02*
X127319366Y-82649999D01*
X127319366Y-82649999D02*
X127386033Y-82649999D01*
X127386033Y-82649999D02*
X127486033Y-82683333D01*
X127486033Y-82683333D02*
X127886033Y-83083333D01*
X127886033Y-83083333D02*
X127886033Y-82649999D01*
X158533333Y-96566033D02*
X158533333Y-95866033D01*
X158533333Y-95866033D02*
X158700000Y-95866033D01*
X158700000Y-95866033D02*
X158800000Y-95899366D01*
X158800000Y-95899366D02*
X158866667Y-95966033D01*
X158866667Y-95966033D02*
X158900000Y-96032700D01*
X158900000Y-96032700D02*
X158933333Y-96166033D01*
X158933333Y-96166033D02*
X158933333Y-96266033D01*
X158933333Y-96266033D02*
X158900000Y-96399366D01*
X158900000Y-96399366D02*
X158866667Y-96466033D01*
X158866667Y-96466033D02*
X158800000Y-96532700D01*
X158800000Y-96532700D02*
X158700000Y-96566033D01*
X158700000Y-96566033D02*
X158533333Y-96566033D01*
X159166667Y-95866033D02*
X159600000Y-95866033D01*
X159600000Y-95866033D02*
X159366667Y-96132700D01*
X159366667Y-96132700D02*
X159466667Y-96132700D01*
X159466667Y-96132700D02*
X159533333Y-96166033D01*
X159533333Y-96166033D02*
X159566667Y-96199366D01*
X159566667Y-96199366D02*
X159600000Y-96266033D01*
X159600000Y-96266033D02*
X159600000Y-96432700D01*
X159600000Y-96432700D02*
X159566667Y-96499366D01*
X159566667Y-96499366D02*
X159533333Y-96532700D01*
X159533333Y-96532700D02*
X159466667Y-96566033D01*
X159466667Y-96566033D02*
X159266667Y-96566033D01*
X159266667Y-96566033D02*
X159200000Y-96532700D01*
X159200000Y-96532700D02*
X159166667Y-96499366D01*
X132429366Y-83616666D02*
X132462700Y-83649999D01*
X132462700Y-83649999D02*
X132496033Y-83749999D01*
X132496033Y-83749999D02*
X132496033Y-83816666D01*
X132496033Y-83816666D02*
X132462700Y-83916666D01*
X132462700Y-83916666D02*
X132396033Y-83983333D01*
X132396033Y-83983333D02*
X132329366Y-84016666D01*
X132329366Y-84016666D02*
X132196033Y-84049999D01*
X132196033Y-84049999D02*
X132096033Y-84049999D01*
X132096033Y-84049999D02*
X131962700Y-84016666D01*
X131962700Y-84016666D02*
X131896033Y-83983333D01*
X131896033Y-83983333D02*
X131829366Y-83916666D01*
X131829366Y-83916666D02*
X131796033Y-83816666D01*
X131796033Y-83816666D02*
X131796033Y-83749999D01*
X131796033Y-83749999D02*
X131829366Y-83649999D01*
X131829366Y-83649999D02*
X131862700Y-83616666D01*
X131796033Y-82983333D02*
X131796033Y-83316666D01*
X131796033Y-83316666D02*
X132129366Y-83349999D01*
X132129366Y-83349999D02*
X132096033Y-83316666D01*
X132096033Y-83316666D02*
X132062700Y-83249999D01*
X132062700Y-83249999D02*
X132062700Y-83083333D01*
X132062700Y-83083333D02*
X132096033Y-83016666D01*
X132096033Y-83016666D02*
X132129366Y-82983333D01*
X132129366Y-82983333D02*
X132196033Y-82949999D01*
X132196033Y-82949999D02*
X132362700Y-82949999D01*
X132362700Y-82949999D02*
X132429366Y-82983333D01*
X132429366Y-82983333D02*
X132462700Y-83016666D01*
X132462700Y-83016666D02*
X132496033Y-83083333D01*
X132496033Y-83083333D02*
X132496033Y-83249999D01*
X132496033Y-83249999D02*
X132462700Y-83316666D01*
X132462700Y-83316666D02*
X132429366Y-83349999D01*
X91522999Y-87161033D02*
X91522999Y-86461033D01*
X91522999Y-86461033D02*
X91689666Y-86461033D01*
X91689666Y-86461033D02*
X91789666Y-86494366D01*
X91789666Y-86494366D02*
X91856333Y-86561033D01*
X91856333Y-86561033D02*
X91889666Y-86627700D01*
X91889666Y-86627700D02*
X91922999Y-86761033D01*
X91922999Y-86761033D02*
X91922999Y-86861033D01*
X91922999Y-86861033D02*
X91889666Y-86994366D01*
X91889666Y-86994366D02*
X91856333Y-87061033D01*
X91856333Y-87061033D02*
X91789666Y-87127700D01*
X91789666Y-87127700D02*
X91689666Y-87161033D01*
X91689666Y-87161033D02*
X91522999Y-87161033D01*
X92589666Y-87161033D02*
X92189666Y-87161033D01*
X92389666Y-87161033D02*
X92389666Y-86461033D01*
X92389666Y-86461033D02*
X92322999Y-86561033D01*
X92322999Y-86561033D02*
X92256333Y-86627700D01*
X92256333Y-86627700D02*
X92189666Y-86661033D01*
X92823000Y-86461033D02*
X93256333Y-86461033D01*
X93256333Y-86461033D02*
X93023000Y-86727700D01*
X93023000Y-86727700D02*
X93123000Y-86727700D01*
X93123000Y-86727700D02*
X93189666Y-86761033D01*
X93189666Y-86761033D02*
X93223000Y-86794366D01*
X93223000Y-86794366D02*
X93256333Y-86861033D01*
X93256333Y-86861033D02*
X93256333Y-87027700D01*
X93256333Y-87027700D02*
X93223000Y-87094366D01*
X93223000Y-87094366D02*
X93189666Y-87127700D01*
X93189666Y-87127700D02*
X93123000Y-87161033D01*
X93123000Y-87161033D02*
X92923000Y-87161033D01*
X92923000Y-87161033D02*
X92856333Y-87127700D01*
X92856333Y-87127700D02*
X92823000Y-87094366D01*
X108766667Y-90519366D02*
X108533333Y-90519366D01*
X108533333Y-90886033D02*
X108533333Y-90186033D01*
X108533333Y-90186033D02*
X108866667Y-90186033D01*
X109066667Y-90186033D02*
X109500000Y-90186033D01*
X109500000Y-90186033D02*
X109266667Y-90452700D01*
X109266667Y-90452700D02*
X109366667Y-90452700D01*
X109366667Y-90452700D02*
X109433333Y-90486033D01*
X109433333Y-90486033D02*
X109466667Y-90519366D01*
X109466667Y-90519366D02*
X109500000Y-90586033D01*
X109500000Y-90586033D02*
X109500000Y-90752700D01*
X109500000Y-90752700D02*
X109466667Y-90819366D01*
X109466667Y-90819366D02*
X109433333Y-90852700D01*
X109433333Y-90852700D02*
X109366667Y-90886033D01*
X109366667Y-90886033D02*
X109166667Y-90886033D01*
X109166667Y-90886033D02*
X109100000Y-90852700D01*
X109100000Y-90852700D02*
X109066667Y-90819366D01*
X105716033Y-78533333D02*
X106282700Y-78533333D01*
X106282700Y-78533333D02*
X106349366Y-78500000D01*
X106349366Y-78500000D02*
X106382700Y-78466666D01*
X106382700Y-78466666D02*
X106416033Y-78400000D01*
X106416033Y-78400000D02*
X106416033Y-78266666D01*
X106416033Y-78266666D02*
X106382700Y-78200000D01*
X106382700Y-78200000D02*
X106349366Y-78166666D01*
X106349366Y-78166666D02*
X106282700Y-78133333D01*
X106282700Y-78133333D02*
X105716033Y-78133333D01*
X105716033Y-77866667D02*
X105716033Y-77400000D01*
X105716033Y-77400000D02*
X106416033Y-77700000D01*
X140566033Y-69700000D02*
X140232700Y-69933333D01*
X140566033Y-70100000D02*
X139866033Y-70100000D01*
X139866033Y-70100000D02*
X139866033Y-69833333D01*
X139866033Y-69833333D02*
X139899366Y-69766667D01*
X139899366Y-69766667D02*
X139932700Y-69733333D01*
X139932700Y-69733333D02*
X139999366Y-69700000D01*
X139999366Y-69700000D02*
X140099366Y-69700000D01*
X140099366Y-69700000D02*
X140166033Y-69733333D01*
X140166033Y-69733333D02*
X140199366Y-69766667D01*
X140199366Y-69766667D02*
X140232700Y-69833333D01*
X140232700Y-69833333D02*
X140232700Y-70100000D01*
X140566033Y-69033333D02*
X140566033Y-69433333D01*
X140566033Y-69233333D02*
X139866033Y-69233333D01*
X139866033Y-69233333D02*
X139966033Y-69300000D01*
X139966033Y-69300000D02*
X140032700Y-69366667D01*
X140032700Y-69366667D02*
X140066033Y-69433333D01*
X139866033Y-68800000D02*
X139866033Y-68333333D01*
X139866033Y-68333333D02*
X140566033Y-68633333D01*
X119983333Y-143566033D02*
X119983333Y-142866033D01*
X119983333Y-142866033D02*
X120150000Y-142866033D01*
X120150000Y-142866033D02*
X120250000Y-142899366D01*
X120250000Y-142899366D02*
X120316667Y-142966033D01*
X120316667Y-142966033D02*
X120350000Y-143032700D01*
X120350000Y-143032700D02*
X120383333Y-143166033D01*
X120383333Y-143166033D02*
X120383333Y-143266033D01*
X120383333Y-143266033D02*
X120350000Y-143399366D01*
X120350000Y-143399366D02*
X120316667Y-143466033D01*
X120316667Y-143466033D02*
X120250000Y-143532700D01*
X120250000Y-143532700D02*
X120150000Y-143566033D01*
X120150000Y-143566033D02*
X119983333Y-143566033D01*
X121050000Y-143566033D02*
X120650000Y-143566033D01*
X120850000Y-143566033D02*
X120850000Y-142866033D01*
X120850000Y-142866033D02*
X120783333Y-142966033D01*
X120783333Y-142966033D02*
X120716667Y-143032700D01*
X120716667Y-143032700D02*
X120650000Y-143066033D01*
X111566033Y-69700000D02*
X111232700Y-69933333D01*
X111566033Y-70100000D02*
X110866033Y-70100000D01*
X110866033Y-70100000D02*
X110866033Y-69833333D01*
X110866033Y-69833333D02*
X110899366Y-69766667D01*
X110899366Y-69766667D02*
X110932700Y-69733333D01*
X110932700Y-69733333D02*
X110999366Y-69700000D01*
X110999366Y-69700000D02*
X111099366Y-69700000D01*
X111099366Y-69700000D02*
X111166033Y-69733333D01*
X111166033Y-69733333D02*
X111199366Y-69766667D01*
X111199366Y-69766667D02*
X111232700Y-69833333D01*
X111232700Y-69833333D02*
X111232700Y-70100000D01*
X110932700Y-69433333D02*
X110899366Y-69400000D01*
X110899366Y-69400000D02*
X110866033Y-69333333D01*
X110866033Y-69333333D02*
X110866033Y-69166667D01*
X110866033Y-69166667D02*
X110899366Y-69100000D01*
X110899366Y-69100000D02*
X110932700Y-69066667D01*
X110932700Y-69066667D02*
X110999366Y-69033333D01*
X110999366Y-69033333D02*
X111066033Y-69033333D01*
X111066033Y-69033333D02*
X111166033Y-69066667D01*
X111166033Y-69066667D02*
X111566033Y-69466667D01*
X111566033Y-69466667D02*
X111566033Y-69033333D01*
X110866033Y-68433333D02*
X110866033Y-68566666D01*
X110866033Y-68566666D02*
X110899366Y-68633333D01*
X110899366Y-68633333D02*
X110932700Y-68666666D01*
X110932700Y-68666666D02*
X111032700Y-68733333D01*
X111032700Y-68733333D02*
X111166033Y-68766666D01*
X111166033Y-68766666D02*
X111432700Y-68766666D01*
X111432700Y-68766666D02*
X111499366Y-68733333D01*
X111499366Y-68733333D02*
X111532700Y-68700000D01*
X111532700Y-68700000D02*
X111566033Y-68633333D01*
X111566033Y-68633333D02*
X111566033Y-68500000D01*
X111566033Y-68500000D02*
X111532700Y-68433333D01*
X111532700Y-68433333D02*
X111499366Y-68400000D01*
X111499366Y-68400000D02*
X111432700Y-68366666D01*
X111432700Y-68366666D02*
X111266033Y-68366666D01*
X111266033Y-68366666D02*
X111199366Y-68400000D01*
X111199366Y-68400000D02*
X111166033Y-68433333D01*
X111166033Y-68433333D02*
X111132700Y-68500000D01*
X111132700Y-68500000D02*
X111132700Y-68633333D01*
X111132700Y-68633333D02*
X111166033Y-68700000D01*
X111166033Y-68700000D02*
X111199366Y-68733333D01*
X111199366Y-68733333D02*
X111266033Y-68766666D01*
X135466666Y-69216033D02*
X135466666Y-69782700D01*
X135466666Y-69782700D02*
X135500000Y-69849366D01*
X135500000Y-69849366D02*
X135533333Y-69882700D01*
X135533333Y-69882700D02*
X135600000Y-69916033D01*
X135600000Y-69916033D02*
X135733333Y-69916033D01*
X135733333Y-69916033D02*
X135800000Y-69882700D01*
X135800000Y-69882700D02*
X135833333Y-69849366D01*
X135833333Y-69849366D02*
X135866666Y-69782700D01*
X135866666Y-69782700D02*
X135866666Y-69216033D01*
X136499999Y-69216033D02*
X136366666Y-69216033D01*
X136366666Y-69216033D02*
X136299999Y-69249366D01*
X136299999Y-69249366D02*
X136266666Y-69282700D01*
X136266666Y-69282700D02*
X136199999Y-69382700D01*
X136199999Y-69382700D02*
X136166666Y-69516033D01*
X136166666Y-69516033D02*
X136166666Y-69782700D01*
X136166666Y-69782700D02*
X136199999Y-69849366D01*
X136199999Y-69849366D02*
X136233333Y-69882700D01*
X136233333Y-69882700D02*
X136299999Y-69916033D01*
X136299999Y-69916033D02*
X136433333Y-69916033D01*
X136433333Y-69916033D02*
X136499999Y-69882700D01*
X136499999Y-69882700D02*
X136533333Y-69849366D01*
X136533333Y-69849366D02*
X136566666Y-69782700D01*
X136566666Y-69782700D02*
X136566666Y-69616033D01*
X136566666Y-69616033D02*
X136533333Y-69549366D01*
X136533333Y-69549366D02*
X136499999Y-69516033D01*
X136499999Y-69516033D02*
X136433333Y-69482700D01*
X136433333Y-69482700D02*
X136299999Y-69482700D01*
X136299999Y-69482700D02*
X136233333Y-69516033D01*
X136233333Y-69516033D02*
X136199999Y-69549366D01*
X136199999Y-69549366D02*
X136166666Y-69616033D01*
X140299999Y-97816033D02*
X140066666Y-97482700D01*
X139899999Y-97816033D02*
X139899999Y-97116033D01*
X139899999Y-97116033D02*
X140166666Y-97116033D01*
X140166666Y-97116033D02*
X140233333Y-97149366D01*
X140233333Y-97149366D02*
X140266666Y-97182700D01*
X140266666Y-97182700D02*
X140299999Y-97249366D01*
X140299999Y-97249366D02*
X140299999Y-97349366D01*
X140299999Y-97349366D02*
X140266666Y-97416033D01*
X140266666Y-97416033D02*
X140233333Y-97449366D01*
X140233333Y-97449366D02*
X140166666Y-97482700D01*
X140166666Y-97482700D02*
X139899999Y-97482700D01*
X140966666Y-97816033D02*
X140566666Y-97816033D01*
X140766666Y-97816033D02*
X140766666Y-97116033D01*
X140766666Y-97116033D02*
X140699999Y-97216033D01*
X140699999Y-97216033D02*
X140633333Y-97282700D01*
X140633333Y-97282700D02*
X140566666Y-97316033D01*
X141566666Y-97349366D02*
X141566666Y-97816033D01*
X141400000Y-97082700D02*
X141233333Y-97582700D01*
X141233333Y-97582700D02*
X141666666Y-97582700D01*
X104516666Y-67116033D02*
X104516666Y-67616033D01*
X104516666Y-67616033D02*
X104483333Y-67716033D01*
X104483333Y-67716033D02*
X104416666Y-67782700D01*
X104416666Y-67782700D02*
X104316666Y-67816033D01*
X104316666Y-67816033D02*
X104250000Y-67816033D01*
X105149999Y-67349366D02*
X105149999Y-67816033D01*
X104983333Y-67082700D02*
X104816666Y-67582700D01*
X104816666Y-67582700D02*
X105249999Y-67582700D01*
X116483333Y-95816033D02*
X116483333Y-95116033D01*
X116483333Y-95116033D02*
X116650000Y-95116033D01*
X116650000Y-95116033D02*
X116750000Y-95149366D01*
X116750000Y-95149366D02*
X116816667Y-95216033D01*
X116816667Y-95216033D02*
X116850000Y-95282700D01*
X116850000Y-95282700D02*
X116883333Y-95416033D01*
X116883333Y-95416033D02*
X116883333Y-95516033D01*
X116883333Y-95516033D02*
X116850000Y-95649366D01*
X116850000Y-95649366D02*
X116816667Y-95716033D01*
X116816667Y-95716033D02*
X116750000Y-95782700D01*
X116750000Y-95782700D02*
X116650000Y-95816033D01*
X116650000Y-95816033D02*
X116483333Y-95816033D01*
X117216667Y-95816033D02*
X117350000Y-95816033D01*
X117350000Y-95816033D02*
X117416667Y-95782700D01*
X117416667Y-95782700D02*
X117450000Y-95749366D01*
X117450000Y-95749366D02*
X117516667Y-95649366D01*
X117516667Y-95649366D02*
X117550000Y-95516033D01*
X117550000Y-95516033D02*
X117550000Y-95249366D01*
X117550000Y-95249366D02*
X117516667Y-95182700D01*
X117516667Y-95182700D02*
X117483333Y-95149366D01*
X117483333Y-95149366D02*
X117416667Y-95116033D01*
X117416667Y-95116033D02*
X117283333Y-95116033D01*
X117283333Y-95116033D02*
X117216667Y-95149366D01*
X117216667Y-95149366D02*
X117183333Y-95182700D01*
X117183333Y-95182700D02*
X117150000Y-95249366D01*
X117150000Y-95249366D02*
X117150000Y-95416033D01*
X117150000Y-95416033D02*
X117183333Y-95482700D01*
X117183333Y-95482700D02*
X117216667Y-95516033D01*
X117216667Y-95516033D02*
X117283333Y-95549366D01*
X117283333Y-95549366D02*
X117416667Y-95549366D01*
X117416667Y-95549366D02*
X117483333Y-95516033D01*
X117483333Y-95516033D02*
X117516667Y-95482700D01*
X117516667Y-95482700D02*
X117550000Y-95416033D01*
X87132700Y-92949999D02*
X87099366Y-93016666D01*
X87099366Y-93016666D02*
X87032700Y-93083333D01*
X87032700Y-93083333D02*
X86932700Y-93183333D01*
X86932700Y-93183333D02*
X86899366Y-93249999D01*
X86899366Y-93249999D02*
X86899366Y-93316666D01*
X87066033Y-93283333D02*
X87032700Y-93349999D01*
X87032700Y-93349999D02*
X86966033Y-93416666D01*
X86966033Y-93416666D02*
X86832700Y-93449999D01*
X86832700Y-93449999D02*
X86599366Y-93449999D01*
X86599366Y-93449999D02*
X86466033Y-93416666D01*
X86466033Y-93416666D02*
X86399366Y-93349999D01*
X86399366Y-93349999D02*
X86366033Y-93283333D01*
X86366033Y-93283333D02*
X86366033Y-93149999D01*
X86366033Y-93149999D02*
X86399366Y-93083333D01*
X86399366Y-93083333D02*
X86466033Y-93016666D01*
X86466033Y-93016666D02*
X86599366Y-92983333D01*
X86599366Y-92983333D02*
X86832700Y-92983333D01*
X86832700Y-92983333D02*
X86966033Y-93016666D01*
X86966033Y-93016666D02*
X87032700Y-93083333D01*
X87032700Y-93083333D02*
X87066033Y-93149999D01*
X87066033Y-93149999D02*
X87066033Y-93283333D01*
X87066033Y-92316666D02*
X87066033Y-92716666D01*
X87066033Y-92516666D02*
X86366033Y-92516666D01*
X86366033Y-92516666D02*
X86466033Y-92583333D01*
X86466033Y-92583333D02*
X86532700Y-92650000D01*
X86532700Y-92650000D02*
X86566033Y-92716666D01*
X87066033Y-91649999D02*
X87066033Y-92049999D01*
X87066033Y-91849999D02*
X86366033Y-91849999D01*
X86366033Y-91849999D02*
X86466033Y-91916666D01*
X86466033Y-91916666D02*
X86532700Y-91983333D01*
X86532700Y-91983333D02*
X86566033Y-92049999D01*
X89996033Y-96450000D02*
X89662700Y-96683333D01*
X89996033Y-96850000D02*
X89296033Y-96850000D01*
X89296033Y-96850000D02*
X89296033Y-96583333D01*
X89296033Y-96583333D02*
X89329366Y-96516667D01*
X89329366Y-96516667D02*
X89362700Y-96483333D01*
X89362700Y-96483333D02*
X89429366Y-96450000D01*
X89429366Y-96450000D02*
X89529366Y-96450000D01*
X89529366Y-96450000D02*
X89596033Y-96483333D01*
X89596033Y-96483333D02*
X89629366Y-96516667D01*
X89629366Y-96516667D02*
X89662700Y-96583333D01*
X89662700Y-96583333D02*
X89662700Y-96850000D01*
X89362700Y-96183333D02*
X89329366Y-96150000D01*
X89329366Y-96150000D02*
X89296033Y-96083333D01*
X89296033Y-96083333D02*
X89296033Y-95916667D01*
X89296033Y-95916667D02*
X89329366Y-95850000D01*
X89329366Y-95850000D02*
X89362700Y-95816667D01*
X89362700Y-95816667D02*
X89429366Y-95783333D01*
X89429366Y-95783333D02*
X89496033Y-95783333D01*
X89496033Y-95783333D02*
X89596033Y-95816667D01*
X89596033Y-95816667D02*
X89996033Y-96216667D01*
X89996033Y-96216667D02*
X89996033Y-95783333D01*
X89996033Y-95450000D02*
X89996033Y-95316666D01*
X89996033Y-95316666D02*
X89962700Y-95250000D01*
X89962700Y-95250000D02*
X89929366Y-95216666D01*
X89929366Y-95216666D02*
X89829366Y-95150000D01*
X89829366Y-95150000D02*
X89696033Y-95116666D01*
X89696033Y-95116666D02*
X89429366Y-95116666D01*
X89429366Y-95116666D02*
X89362700Y-95150000D01*
X89362700Y-95150000D02*
X89329366Y-95183333D01*
X89329366Y-95183333D02*
X89296033Y-95250000D01*
X89296033Y-95250000D02*
X89296033Y-95383333D01*
X89296033Y-95383333D02*
X89329366Y-95450000D01*
X89329366Y-95450000D02*
X89362700Y-95483333D01*
X89362700Y-95483333D02*
X89429366Y-95516666D01*
X89429366Y-95516666D02*
X89596033Y-95516666D01*
X89596033Y-95516666D02*
X89662700Y-95483333D01*
X89662700Y-95483333D02*
X89696033Y-95450000D01*
X89696033Y-95450000D02*
X89729366Y-95383333D01*
X89729366Y-95383333D02*
X89729366Y-95250000D01*
X89729366Y-95250000D02*
X89696033Y-95183333D01*
X89696033Y-95183333D02*
X89662700Y-95150000D01*
X89662700Y-95150000D02*
X89596033Y-95116666D01*
X108882700Y-92616666D02*
X108849366Y-92683333D01*
X108849366Y-92683333D02*
X108782700Y-92750000D01*
X108782700Y-92750000D02*
X108682700Y-92850000D01*
X108682700Y-92850000D02*
X108649366Y-92916666D01*
X108649366Y-92916666D02*
X108649366Y-92983333D01*
X108816033Y-92950000D02*
X108782700Y-93016666D01*
X108782700Y-93016666D02*
X108716033Y-93083333D01*
X108716033Y-93083333D02*
X108582700Y-93116666D01*
X108582700Y-93116666D02*
X108349366Y-93116666D01*
X108349366Y-93116666D02*
X108216033Y-93083333D01*
X108216033Y-93083333D02*
X108149366Y-93016666D01*
X108149366Y-93016666D02*
X108116033Y-92950000D01*
X108116033Y-92950000D02*
X108116033Y-92816666D01*
X108116033Y-92816666D02*
X108149366Y-92750000D01*
X108149366Y-92750000D02*
X108216033Y-92683333D01*
X108216033Y-92683333D02*
X108349366Y-92650000D01*
X108349366Y-92650000D02*
X108582700Y-92650000D01*
X108582700Y-92650000D02*
X108716033Y-92683333D01*
X108716033Y-92683333D02*
X108782700Y-92750000D01*
X108782700Y-92750000D02*
X108816033Y-92816666D01*
X108816033Y-92816666D02*
X108816033Y-92950000D01*
X108816033Y-92316667D02*
X108816033Y-92183333D01*
X108816033Y-92183333D02*
X108782700Y-92116667D01*
X108782700Y-92116667D02*
X108749366Y-92083333D01*
X108749366Y-92083333D02*
X108649366Y-92016667D01*
X108649366Y-92016667D02*
X108516033Y-91983333D01*
X108516033Y-91983333D02*
X108249366Y-91983333D01*
X108249366Y-91983333D02*
X108182700Y-92016667D01*
X108182700Y-92016667D02*
X108149366Y-92050000D01*
X108149366Y-92050000D02*
X108116033Y-92116667D01*
X108116033Y-92116667D02*
X108116033Y-92250000D01*
X108116033Y-92250000D02*
X108149366Y-92316667D01*
X108149366Y-92316667D02*
X108182700Y-92350000D01*
X108182700Y-92350000D02*
X108249366Y-92383333D01*
X108249366Y-92383333D02*
X108416033Y-92383333D01*
X108416033Y-92383333D02*
X108482700Y-92350000D01*
X108482700Y-92350000D02*
X108516033Y-92316667D01*
X108516033Y-92316667D02*
X108549366Y-92250000D01*
X108549366Y-92250000D02*
X108549366Y-92116667D01*
X108549366Y-92116667D02*
X108516033Y-92050000D01*
X108516033Y-92050000D02*
X108482700Y-92016667D01*
X108482700Y-92016667D02*
X108416033Y-91983333D01*
X125766666Y-66866033D02*
X125766666Y-67366033D01*
X125766666Y-67366033D02*
X125733333Y-67466033D01*
X125733333Y-67466033D02*
X125666666Y-67532700D01*
X125666666Y-67532700D02*
X125566666Y-67566033D01*
X125566666Y-67566033D02*
X125500000Y-67566033D01*
X126033333Y-66866033D02*
X126466666Y-66866033D01*
X126466666Y-66866033D02*
X126233333Y-67132700D01*
X126233333Y-67132700D02*
X126333333Y-67132700D01*
X126333333Y-67132700D02*
X126399999Y-67166033D01*
X126399999Y-67166033D02*
X126433333Y-67199366D01*
X126433333Y-67199366D02*
X126466666Y-67266033D01*
X126466666Y-67266033D02*
X126466666Y-67432700D01*
X126466666Y-67432700D02*
X126433333Y-67499366D01*
X126433333Y-67499366D02*
X126399999Y-67532700D01*
X126399999Y-67532700D02*
X126333333Y-67566033D01*
X126333333Y-67566033D02*
X126133333Y-67566033D01*
X126133333Y-67566033D02*
X126066666Y-67532700D01*
X126066666Y-67532700D02*
X126033333Y-67499366D01*
X120883333Y-138132700D02*
X120816666Y-138099366D01*
X120816666Y-138099366D02*
X120750000Y-138032700D01*
X120750000Y-138032700D02*
X120650000Y-137932700D01*
X120650000Y-137932700D02*
X120583333Y-137899366D01*
X120583333Y-137899366D02*
X120516666Y-137899366D01*
X120550000Y-138066033D02*
X120483333Y-138032700D01*
X120483333Y-138032700D02*
X120416666Y-137966033D01*
X120416666Y-137966033D02*
X120383333Y-137832700D01*
X120383333Y-137832700D02*
X120383333Y-137599366D01*
X120383333Y-137599366D02*
X120416666Y-137466033D01*
X120416666Y-137466033D02*
X120483333Y-137399366D01*
X120483333Y-137399366D02*
X120550000Y-137366033D01*
X120550000Y-137366033D02*
X120683333Y-137366033D01*
X120683333Y-137366033D02*
X120750000Y-137399366D01*
X120750000Y-137399366D02*
X120816666Y-137466033D01*
X120816666Y-137466033D02*
X120850000Y-137599366D01*
X120850000Y-137599366D02*
X120850000Y-137832700D01*
X120850000Y-137832700D02*
X120816666Y-137966033D01*
X120816666Y-137966033D02*
X120750000Y-138032700D01*
X120750000Y-138032700D02*
X120683333Y-138066033D01*
X120683333Y-138066033D02*
X120550000Y-138066033D01*
X121083333Y-137366033D02*
X121516666Y-137366033D01*
X121516666Y-137366033D02*
X121283333Y-137632700D01*
X121283333Y-137632700D02*
X121383333Y-137632700D01*
X121383333Y-137632700D02*
X121449999Y-137666033D01*
X121449999Y-137666033D02*
X121483333Y-137699366D01*
X121483333Y-137699366D02*
X121516666Y-137766033D01*
X121516666Y-137766033D02*
X121516666Y-137932700D01*
X121516666Y-137932700D02*
X121483333Y-137999366D01*
X121483333Y-137999366D02*
X121449999Y-138032700D01*
X121449999Y-138032700D02*
X121383333Y-138066033D01*
X121383333Y-138066033D02*
X121183333Y-138066033D01*
X121183333Y-138066033D02*
X121116666Y-138032700D01*
X121116666Y-138032700D02*
X121083333Y-137999366D01*
X100929366Y-84200000D02*
X100962700Y-84233333D01*
X100962700Y-84233333D02*
X100996033Y-84333333D01*
X100996033Y-84333333D02*
X100996033Y-84400000D01*
X100996033Y-84400000D02*
X100962700Y-84500000D01*
X100962700Y-84500000D02*
X100896033Y-84566667D01*
X100896033Y-84566667D02*
X100829366Y-84600000D01*
X100829366Y-84600000D02*
X100696033Y-84633333D01*
X100696033Y-84633333D02*
X100596033Y-84633333D01*
X100596033Y-84633333D02*
X100462700Y-84600000D01*
X100462700Y-84600000D02*
X100396033Y-84566667D01*
X100396033Y-84566667D02*
X100329366Y-84500000D01*
X100329366Y-84500000D02*
X100296033Y-84400000D01*
X100296033Y-84400000D02*
X100296033Y-84333333D01*
X100296033Y-84333333D02*
X100329366Y-84233333D01*
X100329366Y-84233333D02*
X100362700Y-84200000D01*
X100996033Y-83533333D02*
X100996033Y-83933333D01*
X100996033Y-83733333D02*
X100296033Y-83733333D01*
X100296033Y-83733333D02*
X100396033Y-83800000D01*
X100396033Y-83800000D02*
X100462700Y-83866667D01*
X100462700Y-83866667D02*
X100496033Y-83933333D01*
X100296033Y-83100000D02*
X100296033Y-83033333D01*
X100296033Y-83033333D02*
X100329366Y-82966666D01*
X100329366Y-82966666D02*
X100362700Y-82933333D01*
X100362700Y-82933333D02*
X100429366Y-82900000D01*
X100429366Y-82900000D02*
X100562700Y-82866666D01*
X100562700Y-82866666D02*
X100729366Y-82866666D01*
X100729366Y-82866666D02*
X100862700Y-82900000D01*
X100862700Y-82900000D02*
X100929366Y-82933333D01*
X100929366Y-82933333D02*
X100962700Y-82966666D01*
X100962700Y-82966666D02*
X100996033Y-83033333D01*
X100996033Y-83033333D02*
X100996033Y-83100000D01*
X100996033Y-83100000D02*
X100962700Y-83166666D01*
X100962700Y-83166666D02*
X100929366Y-83200000D01*
X100929366Y-83200000D02*
X100862700Y-83233333D01*
X100862700Y-83233333D02*
X100729366Y-83266666D01*
X100729366Y-83266666D02*
X100562700Y-83266666D01*
X100562700Y-83266666D02*
X100429366Y-83233333D01*
X100429366Y-83233333D02*
X100362700Y-83200000D01*
X100362700Y-83200000D02*
X100329366Y-83166666D01*
X100329366Y-83166666D02*
X100296033Y-83100000D01*
X159383333Y-98316033D02*
X159150000Y-97982700D01*
X158983333Y-98316033D02*
X158983333Y-97616033D01*
X158983333Y-97616033D02*
X159250000Y-97616033D01*
X159250000Y-97616033D02*
X159316667Y-97649366D01*
X159316667Y-97649366D02*
X159350000Y-97682700D01*
X159350000Y-97682700D02*
X159383333Y-97749366D01*
X159383333Y-97749366D02*
X159383333Y-97849366D01*
X159383333Y-97849366D02*
X159350000Y-97916033D01*
X159350000Y-97916033D02*
X159316667Y-97949366D01*
X159316667Y-97949366D02*
X159250000Y-97982700D01*
X159250000Y-97982700D02*
X158983333Y-97982700D01*
X159983333Y-97616033D02*
X159850000Y-97616033D01*
X159850000Y-97616033D02*
X159783333Y-97649366D01*
X159783333Y-97649366D02*
X159750000Y-97682700D01*
X159750000Y-97682700D02*
X159683333Y-97782700D01*
X159683333Y-97782700D02*
X159650000Y-97916033D01*
X159650000Y-97916033D02*
X159650000Y-98182700D01*
X159650000Y-98182700D02*
X159683333Y-98249366D01*
X159683333Y-98249366D02*
X159716667Y-98282700D01*
X159716667Y-98282700D02*
X159783333Y-98316033D01*
X159783333Y-98316033D02*
X159916667Y-98316033D01*
X159916667Y-98316033D02*
X159983333Y-98282700D01*
X159983333Y-98282700D02*
X160016667Y-98249366D01*
X160016667Y-98249366D02*
X160050000Y-98182700D01*
X160050000Y-98182700D02*
X160050000Y-98016033D01*
X160050000Y-98016033D02*
X160016667Y-97949366D01*
X160016667Y-97949366D02*
X159983333Y-97916033D01*
X159983333Y-97916033D02*
X159916667Y-97882700D01*
X159916667Y-97882700D02*
X159783333Y-97882700D01*
X159783333Y-97882700D02*
X159716667Y-97916033D01*
X159716667Y-97916033D02*
X159683333Y-97949366D01*
X159683333Y-97949366D02*
X159650000Y-98016033D01*
X120383333Y-142316033D02*
X120150000Y-141982700D01*
X119983333Y-142316033D02*
X119983333Y-141616033D01*
X119983333Y-141616033D02*
X120250000Y-141616033D01*
X120250000Y-141616033D02*
X120316667Y-141649366D01*
X120316667Y-141649366D02*
X120350000Y-141682700D01*
X120350000Y-141682700D02*
X120383333Y-141749366D01*
X120383333Y-141749366D02*
X120383333Y-141849366D01*
X120383333Y-141849366D02*
X120350000Y-141916033D01*
X120350000Y-141916033D02*
X120316667Y-141949366D01*
X120316667Y-141949366D02*
X120250000Y-141982700D01*
X120250000Y-141982700D02*
X119983333Y-141982700D01*
X120616667Y-141616033D02*
X121050000Y-141616033D01*
X121050000Y-141616033D02*
X120816667Y-141882700D01*
X120816667Y-141882700D02*
X120916667Y-141882700D01*
X120916667Y-141882700D02*
X120983333Y-141916033D01*
X120983333Y-141916033D02*
X121016667Y-141949366D01*
X121016667Y-141949366D02*
X121050000Y-142016033D01*
X121050000Y-142016033D02*
X121050000Y-142182700D01*
X121050000Y-142182700D02*
X121016667Y-142249366D01*
X121016667Y-142249366D02*
X120983333Y-142282700D01*
X120983333Y-142282700D02*
X120916667Y-142316033D01*
X120916667Y-142316033D02*
X120716667Y-142316033D01*
X120716667Y-142316033D02*
X120650000Y-142282700D01*
X120650000Y-142282700D02*
X120616667Y-142249366D01*
X142316033Y-69700000D02*
X141982700Y-69933333D01*
X142316033Y-70100000D02*
X141616033Y-70100000D01*
X141616033Y-70100000D02*
X141616033Y-69833333D01*
X141616033Y-69833333D02*
X141649366Y-69766667D01*
X141649366Y-69766667D02*
X141682700Y-69733333D01*
X141682700Y-69733333D02*
X141749366Y-69700000D01*
X141749366Y-69700000D02*
X141849366Y-69700000D01*
X141849366Y-69700000D02*
X141916033Y-69733333D01*
X141916033Y-69733333D02*
X141949366Y-69766667D01*
X141949366Y-69766667D02*
X141982700Y-69833333D01*
X141982700Y-69833333D02*
X141982700Y-70100000D01*
X142316033Y-69033333D02*
X142316033Y-69433333D01*
X142316033Y-69233333D02*
X141616033Y-69233333D01*
X141616033Y-69233333D02*
X141716033Y-69300000D01*
X141716033Y-69300000D02*
X141782700Y-69366667D01*
X141782700Y-69366667D02*
X141816033Y-69433333D01*
X141616033Y-68433333D02*
X141616033Y-68566666D01*
X141616033Y-68566666D02*
X141649366Y-68633333D01*
X141649366Y-68633333D02*
X141682700Y-68666666D01*
X141682700Y-68666666D02*
X141782700Y-68733333D01*
X141782700Y-68733333D02*
X141916033Y-68766666D01*
X141916033Y-68766666D02*
X142182700Y-68766666D01*
X142182700Y-68766666D02*
X142249366Y-68733333D01*
X142249366Y-68733333D02*
X142282700Y-68700000D01*
X142282700Y-68700000D02*
X142316033Y-68633333D01*
X142316033Y-68633333D02*
X142316033Y-68500000D01*
X142316033Y-68500000D02*
X142282700Y-68433333D01*
X142282700Y-68433333D02*
X142249366Y-68400000D01*
X142249366Y-68400000D02*
X142182700Y-68366666D01*
X142182700Y-68366666D02*
X142016033Y-68366666D01*
X142016033Y-68366666D02*
X141949366Y-68400000D01*
X141949366Y-68400000D02*
X141916033Y-68433333D01*
X141916033Y-68433333D02*
X141882700Y-68500000D01*
X141882700Y-68500000D02*
X141882700Y-68633333D01*
X141882700Y-68633333D02*
X141916033Y-68700000D01*
X141916033Y-68700000D02*
X141949366Y-68733333D01*
X141949366Y-68733333D02*
X142016033Y-68766666D01*
X130316033Y-69700000D02*
X129982700Y-69933333D01*
X130316033Y-70100000D02*
X129616033Y-70100000D01*
X129616033Y-70100000D02*
X129616033Y-69833333D01*
X129616033Y-69833333D02*
X129649366Y-69766667D01*
X129649366Y-69766667D02*
X129682700Y-69733333D01*
X129682700Y-69733333D02*
X129749366Y-69700000D01*
X129749366Y-69700000D02*
X129849366Y-69700000D01*
X129849366Y-69700000D02*
X129916033Y-69733333D01*
X129916033Y-69733333D02*
X129949366Y-69766667D01*
X129949366Y-69766667D02*
X129982700Y-69833333D01*
X129982700Y-69833333D02*
X129982700Y-70100000D01*
X130316033Y-69033333D02*
X130316033Y-69433333D01*
X130316033Y-69233333D02*
X129616033Y-69233333D01*
X129616033Y-69233333D02*
X129716033Y-69300000D01*
X129716033Y-69300000D02*
X129782700Y-69366667D01*
X129782700Y-69366667D02*
X129816033Y-69433333D01*
X130316033Y-68700000D02*
X130316033Y-68566666D01*
X130316033Y-68566666D02*
X130282700Y-68500000D01*
X130282700Y-68500000D02*
X130249366Y-68466666D01*
X130249366Y-68466666D02*
X130149366Y-68400000D01*
X130149366Y-68400000D02*
X130016033Y-68366666D01*
X130016033Y-68366666D02*
X129749366Y-68366666D01*
X129749366Y-68366666D02*
X129682700Y-68400000D01*
X129682700Y-68400000D02*
X129649366Y-68433333D01*
X129649366Y-68433333D02*
X129616033Y-68500000D01*
X129616033Y-68500000D02*
X129616033Y-68633333D01*
X129616033Y-68633333D02*
X129649366Y-68700000D01*
X129649366Y-68700000D02*
X129682700Y-68733333D01*
X129682700Y-68733333D02*
X129749366Y-68766666D01*
X129749366Y-68766666D02*
X129916033Y-68766666D01*
X129916033Y-68766666D02*
X129982700Y-68733333D01*
X129982700Y-68733333D02*
X130016033Y-68700000D01*
X130016033Y-68700000D02*
X130049366Y-68633333D01*
X130049366Y-68633333D02*
X130049366Y-68500000D01*
X130049366Y-68500000D02*
X130016033Y-68433333D01*
X130016033Y-68433333D02*
X129982700Y-68400000D01*
X129982700Y-68400000D02*
X129916033Y-68366666D01*
X132632700Y-92616666D02*
X132599366Y-92683333D01*
X132599366Y-92683333D02*
X132532700Y-92750000D01*
X132532700Y-92750000D02*
X132432700Y-92850000D01*
X132432700Y-92850000D02*
X132399366Y-92916666D01*
X132399366Y-92916666D02*
X132399366Y-92983333D01*
X132566033Y-92950000D02*
X132532700Y-93016666D01*
X132532700Y-93016666D02*
X132466033Y-93083333D01*
X132466033Y-93083333D02*
X132332700Y-93116666D01*
X132332700Y-93116666D02*
X132099366Y-93116666D01*
X132099366Y-93116666D02*
X131966033Y-93083333D01*
X131966033Y-93083333D02*
X131899366Y-93016666D01*
X131899366Y-93016666D02*
X131866033Y-92950000D01*
X131866033Y-92950000D02*
X131866033Y-92816666D01*
X131866033Y-92816666D02*
X131899366Y-92750000D01*
X131899366Y-92750000D02*
X131966033Y-92683333D01*
X131966033Y-92683333D02*
X132099366Y-92650000D01*
X132099366Y-92650000D02*
X132332700Y-92650000D01*
X132332700Y-92650000D02*
X132466033Y-92683333D01*
X132466033Y-92683333D02*
X132532700Y-92750000D01*
X132532700Y-92750000D02*
X132566033Y-92816666D01*
X132566033Y-92816666D02*
X132566033Y-92950000D01*
X131866033Y-92416667D02*
X131866033Y-91950000D01*
X131866033Y-91950000D02*
X132566033Y-92250000D01*
X128716033Y-69650000D02*
X128382700Y-69883333D01*
X128716033Y-70050000D02*
X128016033Y-70050000D01*
X128016033Y-70050000D02*
X128016033Y-69783333D01*
X128016033Y-69783333D02*
X128049366Y-69716667D01*
X128049366Y-69716667D02*
X128082700Y-69683333D01*
X128082700Y-69683333D02*
X128149366Y-69650000D01*
X128149366Y-69650000D02*
X128249366Y-69650000D01*
X128249366Y-69650000D02*
X128316033Y-69683333D01*
X128316033Y-69683333D02*
X128349366Y-69716667D01*
X128349366Y-69716667D02*
X128382700Y-69783333D01*
X128382700Y-69783333D02*
X128382700Y-70050000D01*
X128082700Y-69383333D02*
X128049366Y-69350000D01*
X128049366Y-69350000D02*
X128016033Y-69283333D01*
X128016033Y-69283333D02*
X128016033Y-69116667D01*
X128016033Y-69116667D02*
X128049366Y-69050000D01*
X128049366Y-69050000D02*
X128082700Y-69016667D01*
X128082700Y-69016667D02*
X128149366Y-68983333D01*
X128149366Y-68983333D02*
X128216033Y-68983333D01*
X128216033Y-68983333D02*
X128316033Y-69016667D01*
X128316033Y-69016667D02*
X128716033Y-69416667D01*
X128716033Y-69416667D02*
X128716033Y-68983333D01*
X128016033Y-68550000D02*
X128016033Y-68483333D01*
X128016033Y-68483333D02*
X128049366Y-68416666D01*
X128049366Y-68416666D02*
X128082700Y-68383333D01*
X128082700Y-68383333D02*
X128149366Y-68350000D01*
X128149366Y-68350000D02*
X128282700Y-68316666D01*
X128282700Y-68316666D02*
X128449366Y-68316666D01*
X128449366Y-68316666D02*
X128582700Y-68350000D01*
X128582700Y-68350000D02*
X128649366Y-68383333D01*
X128649366Y-68383333D02*
X128682700Y-68416666D01*
X128682700Y-68416666D02*
X128716033Y-68483333D01*
X128716033Y-68483333D02*
X128716033Y-68550000D01*
X128716033Y-68550000D02*
X128682700Y-68616666D01*
X128682700Y-68616666D02*
X128649366Y-68650000D01*
X128649366Y-68650000D02*
X128582700Y-68683333D01*
X128582700Y-68683333D02*
X128449366Y-68716666D01*
X128449366Y-68716666D02*
X128282700Y-68716666D01*
X128282700Y-68716666D02*
X128149366Y-68683333D01*
X128149366Y-68683333D02*
X128082700Y-68650000D01*
X128082700Y-68650000D02*
X128049366Y-68616666D01*
X128049366Y-68616666D02*
X128016033Y-68550000D01*
X142179366Y-83616666D02*
X142212700Y-83649999D01*
X142212700Y-83649999D02*
X142246033Y-83749999D01*
X142246033Y-83749999D02*
X142246033Y-83816666D01*
X142246033Y-83816666D02*
X142212700Y-83916666D01*
X142212700Y-83916666D02*
X142146033Y-83983333D01*
X142146033Y-83983333D02*
X142079366Y-84016666D01*
X142079366Y-84016666D02*
X141946033Y-84049999D01*
X141946033Y-84049999D02*
X141846033Y-84049999D01*
X141846033Y-84049999D02*
X141712700Y-84016666D01*
X141712700Y-84016666D02*
X141646033Y-83983333D01*
X141646033Y-83983333D02*
X141579366Y-83916666D01*
X141579366Y-83916666D02*
X141546033Y-83816666D01*
X141546033Y-83816666D02*
X141546033Y-83749999D01*
X141546033Y-83749999D02*
X141579366Y-83649999D01*
X141579366Y-83649999D02*
X141612700Y-83616666D01*
X141546033Y-83016666D02*
X141546033Y-83149999D01*
X141546033Y-83149999D02*
X141579366Y-83216666D01*
X141579366Y-83216666D02*
X141612700Y-83249999D01*
X141612700Y-83249999D02*
X141712700Y-83316666D01*
X141712700Y-83316666D02*
X141846033Y-83349999D01*
X141846033Y-83349999D02*
X142112700Y-83349999D01*
X142112700Y-83349999D02*
X142179366Y-83316666D01*
X142179366Y-83316666D02*
X142212700Y-83283333D01*
X142212700Y-83283333D02*
X142246033Y-83216666D01*
X142246033Y-83216666D02*
X142246033Y-83083333D01*
X142246033Y-83083333D02*
X142212700Y-83016666D01*
X142212700Y-83016666D02*
X142179366Y-82983333D01*
X142179366Y-82983333D02*
X142112700Y-82949999D01*
X142112700Y-82949999D02*
X141946033Y-82949999D01*
X141946033Y-82949999D02*
X141879366Y-82983333D01*
X141879366Y-82983333D02*
X141846033Y-83016666D01*
X141846033Y-83016666D02*
X141812700Y-83083333D01*
X141812700Y-83083333D02*
X141812700Y-83216666D01*
X141812700Y-83216666D02*
X141846033Y-83283333D01*
X141846033Y-83283333D02*
X141879366Y-83316666D01*
X141879366Y-83316666D02*
X141946033Y-83349999D01*
X140233333Y-95816033D02*
X140233333Y-95116033D01*
X140233333Y-95116033D02*
X140400000Y-95116033D01*
X140400000Y-95116033D02*
X140500000Y-95149366D01*
X140500000Y-95149366D02*
X140566667Y-95216033D01*
X140566667Y-95216033D02*
X140600000Y-95282700D01*
X140600000Y-95282700D02*
X140633333Y-95416033D01*
X140633333Y-95416033D02*
X140633333Y-95516033D01*
X140633333Y-95516033D02*
X140600000Y-95649366D01*
X140600000Y-95649366D02*
X140566667Y-95716033D01*
X140566667Y-95716033D02*
X140500000Y-95782700D01*
X140500000Y-95782700D02*
X140400000Y-95816033D01*
X140400000Y-95816033D02*
X140233333Y-95816033D01*
X141233333Y-95116033D02*
X141100000Y-95116033D01*
X141100000Y-95116033D02*
X141033333Y-95149366D01*
X141033333Y-95149366D02*
X141000000Y-95182700D01*
X141000000Y-95182700D02*
X140933333Y-95282700D01*
X140933333Y-95282700D02*
X140900000Y-95416033D01*
X140900000Y-95416033D02*
X140900000Y-95682700D01*
X140900000Y-95682700D02*
X140933333Y-95749366D01*
X140933333Y-95749366D02*
X140966667Y-95782700D01*
X140966667Y-95782700D02*
X141033333Y-95816033D01*
X141033333Y-95816033D02*
X141166667Y-95816033D01*
X141166667Y-95816033D02*
X141233333Y-95782700D01*
X141233333Y-95782700D02*
X141266667Y-95749366D01*
X141266667Y-95749366D02*
X141300000Y-95682700D01*
X141300000Y-95682700D02*
X141300000Y-95516033D01*
X141300000Y-95516033D02*
X141266667Y-95449366D01*
X141266667Y-95449366D02*
X141233333Y-95416033D01*
X141233333Y-95416033D02*
X141166667Y-95382700D01*
X141166667Y-95382700D02*
X141033333Y-95382700D01*
X141033333Y-95382700D02*
X140966667Y-95416033D01*
X140966667Y-95416033D02*
X140933333Y-95449366D01*
X140933333Y-95449366D02*
X140900000Y-95516033D01*
X113772999Y-87161033D02*
X113772999Y-86461033D01*
X113772999Y-86461033D02*
X113939666Y-86461033D01*
X113939666Y-86461033D02*
X114039666Y-86494366D01*
X114039666Y-86494366D02*
X114106333Y-86561033D01*
X114106333Y-86561033D02*
X114139666Y-86627700D01*
X114139666Y-86627700D02*
X114172999Y-86761033D01*
X114172999Y-86761033D02*
X114172999Y-86861033D01*
X114172999Y-86861033D02*
X114139666Y-86994366D01*
X114139666Y-86994366D02*
X114106333Y-87061033D01*
X114106333Y-87061033D02*
X114039666Y-87127700D01*
X114039666Y-87127700D02*
X113939666Y-87161033D01*
X113939666Y-87161033D02*
X113772999Y-87161033D01*
X114839666Y-87161033D02*
X114439666Y-87161033D01*
X114639666Y-87161033D02*
X114639666Y-86461033D01*
X114639666Y-86461033D02*
X114572999Y-86561033D01*
X114572999Y-86561033D02*
X114506333Y-86627700D01*
X114506333Y-86627700D02*
X114439666Y-86661033D01*
X115273000Y-86461033D02*
X115339666Y-86461033D01*
X115339666Y-86461033D02*
X115406333Y-86494366D01*
X115406333Y-86494366D02*
X115439666Y-86527700D01*
X115439666Y-86527700D02*
X115473000Y-86594366D01*
X115473000Y-86594366D02*
X115506333Y-86727700D01*
X115506333Y-86727700D02*
X115506333Y-86894366D01*
X115506333Y-86894366D02*
X115473000Y-87027700D01*
X115473000Y-87027700D02*
X115439666Y-87094366D01*
X115439666Y-87094366D02*
X115406333Y-87127700D01*
X115406333Y-87127700D02*
X115339666Y-87161033D01*
X115339666Y-87161033D02*
X115273000Y-87161033D01*
X115273000Y-87161033D02*
X115206333Y-87127700D01*
X115206333Y-87127700D02*
X115173000Y-87094366D01*
X115173000Y-87094366D02*
X115139666Y-87027700D01*
X115139666Y-87027700D02*
X115106333Y-86894366D01*
X115106333Y-86894366D02*
X115106333Y-86727700D01*
X115106333Y-86727700D02*
X115139666Y-86594366D01*
X115139666Y-86594366D02*
X115173000Y-86527700D01*
X115173000Y-86527700D02*
X115206333Y-86494366D01*
X115206333Y-86494366D02*
X115273000Y-86461033D01*
X86316033Y-69700000D02*
X85982700Y-69933333D01*
X86316033Y-70100000D02*
X85616033Y-70100000D01*
X85616033Y-70100000D02*
X85616033Y-69833333D01*
X85616033Y-69833333D02*
X85649366Y-69766667D01*
X85649366Y-69766667D02*
X85682700Y-69733333D01*
X85682700Y-69733333D02*
X85749366Y-69700000D01*
X85749366Y-69700000D02*
X85849366Y-69700000D01*
X85849366Y-69700000D02*
X85916033Y-69733333D01*
X85916033Y-69733333D02*
X85949366Y-69766667D01*
X85949366Y-69766667D02*
X85982700Y-69833333D01*
X85982700Y-69833333D02*
X85982700Y-70100000D01*
X85616033Y-69466667D02*
X85616033Y-69033333D01*
X85616033Y-69033333D02*
X85882700Y-69266667D01*
X85882700Y-69266667D02*
X85882700Y-69166667D01*
X85882700Y-69166667D02*
X85916033Y-69100000D01*
X85916033Y-69100000D02*
X85949366Y-69066667D01*
X85949366Y-69066667D02*
X86016033Y-69033333D01*
X86016033Y-69033333D02*
X86182700Y-69033333D01*
X86182700Y-69033333D02*
X86249366Y-69066667D01*
X86249366Y-69066667D02*
X86282700Y-69100000D01*
X86282700Y-69100000D02*
X86316033Y-69166667D01*
X86316033Y-69166667D02*
X86316033Y-69366667D01*
X86316033Y-69366667D02*
X86282700Y-69433333D01*
X86282700Y-69433333D02*
X86249366Y-69466667D01*
X85616033Y-68433333D02*
X85616033Y-68566666D01*
X85616033Y-68566666D02*
X85649366Y-68633333D01*
X85649366Y-68633333D02*
X85682700Y-68666666D01*
X85682700Y-68666666D02*
X85782700Y-68733333D01*
X85782700Y-68733333D02*
X85916033Y-68766666D01*
X85916033Y-68766666D02*
X86182700Y-68766666D01*
X86182700Y-68766666D02*
X86249366Y-68733333D01*
X86249366Y-68733333D02*
X86282700Y-68700000D01*
X86282700Y-68700000D02*
X86316033Y-68633333D01*
X86316033Y-68633333D02*
X86316033Y-68500000D01*
X86316033Y-68500000D02*
X86282700Y-68433333D01*
X86282700Y-68433333D02*
X86249366Y-68400000D01*
X86249366Y-68400000D02*
X86182700Y-68366666D01*
X86182700Y-68366666D02*
X86016033Y-68366666D01*
X86016033Y-68366666D02*
X85949366Y-68400000D01*
X85949366Y-68400000D02*
X85916033Y-68433333D01*
X85916033Y-68433333D02*
X85882700Y-68500000D01*
X85882700Y-68500000D02*
X85882700Y-68633333D01*
X85882700Y-68633333D02*
X85916033Y-68700000D01*
X85916033Y-68700000D02*
X85949366Y-68733333D01*
X85949366Y-68733333D02*
X86016033Y-68766666D01*
X94966033Y-78866666D02*
X95532700Y-78866666D01*
X95532700Y-78866666D02*
X95599366Y-78833333D01*
X95599366Y-78833333D02*
X95632700Y-78799999D01*
X95632700Y-78799999D02*
X95666033Y-78733333D01*
X95666033Y-78733333D02*
X95666033Y-78599999D01*
X95666033Y-78599999D02*
X95632700Y-78533333D01*
X95632700Y-78533333D02*
X95599366Y-78499999D01*
X95599366Y-78499999D02*
X95532700Y-78466666D01*
X95532700Y-78466666D02*
X94966033Y-78466666D01*
X95666033Y-77766666D02*
X95666033Y-78166666D01*
X95666033Y-77966666D02*
X94966033Y-77966666D01*
X94966033Y-77966666D02*
X95066033Y-78033333D01*
X95066033Y-78033333D02*
X95132700Y-78100000D01*
X95132700Y-78100000D02*
X95166033Y-78166666D01*
X95666033Y-77099999D02*
X95666033Y-77499999D01*
X95666033Y-77299999D02*
X94966033Y-77299999D01*
X94966033Y-77299999D02*
X95066033Y-77366666D01*
X95066033Y-77366666D02*
X95132700Y-77433333D01*
X95132700Y-77433333D02*
X95166033Y-77499999D01*
X137356333Y-87161033D02*
X137356333Y-86461033D01*
X137356333Y-86461033D02*
X137523000Y-86461033D01*
X137523000Y-86461033D02*
X137623000Y-86494366D01*
X137623000Y-86494366D02*
X137689667Y-86561033D01*
X137689667Y-86561033D02*
X137723000Y-86627700D01*
X137723000Y-86627700D02*
X137756333Y-86761033D01*
X137756333Y-86761033D02*
X137756333Y-86861033D01*
X137756333Y-86861033D02*
X137723000Y-86994366D01*
X137723000Y-86994366D02*
X137689667Y-87061033D01*
X137689667Y-87061033D02*
X137623000Y-87127700D01*
X137623000Y-87127700D02*
X137523000Y-87161033D01*
X137523000Y-87161033D02*
X137356333Y-87161033D01*
X137989667Y-86461033D02*
X138456333Y-86461033D01*
X138456333Y-86461033D02*
X138156333Y-87161033D01*
X89816033Y-69700000D02*
X89482700Y-69933333D01*
X89816033Y-70100000D02*
X89116033Y-70100000D01*
X89116033Y-70100000D02*
X89116033Y-69833333D01*
X89116033Y-69833333D02*
X89149366Y-69766667D01*
X89149366Y-69766667D02*
X89182700Y-69733333D01*
X89182700Y-69733333D02*
X89249366Y-69700000D01*
X89249366Y-69700000D02*
X89349366Y-69700000D01*
X89349366Y-69700000D02*
X89416033Y-69733333D01*
X89416033Y-69733333D02*
X89449366Y-69766667D01*
X89449366Y-69766667D02*
X89482700Y-69833333D01*
X89482700Y-69833333D02*
X89482700Y-70100000D01*
X89116033Y-69466667D02*
X89116033Y-69033333D01*
X89116033Y-69033333D02*
X89382700Y-69266667D01*
X89382700Y-69266667D02*
X89382700Y-69166667D01*
X89382700Y-69166667D02*
X89416033Y-69100000D01*
X89416033Y-69100000D02*
X89449366Y-69066667D01*
X89449366Y-69066667D02*
X89516033Y-69033333D01*
X89516033Y-69033333D02*
X89682700Y-69033333D01*
X89682700Y-69033333D02*
X89749366Y-69066667D01*
X89749366Y-69066667D02*
X89782700Y-69100000D01*
X89782700Y-69100000D02*
X89816033Y-69166667D01*
X89816033Y-69166667D02*
X89816033Y-69366667D01*
X89816033Y-69366667D02*
X89782700Y-69433333D01*
X89782700Y-69433333D02*
X89749366Y-69466667D01*
X89349366Y-68433333D02*
X89816033Y-68433333D01*
X89082700Y-68600000D02*
X89582700Y-68766666D01*
X89582700Y-68766666D02*
X89582700Y-68333333D01*
X109816033Y-69700000D02*
X109482700Y-69933333D01*
X109816033Y-70100000D02*
X109116033Y-70100000D01*
X109116033Y-70100000D02*
X109116033Y-69833333D01*
X109116033Y-69833333D02*
X109149366Y-69766667D01*
X109149366Y-69766667D02*
X109182700Y-69733333D01*
X109182700Y-69733333D02*
X109249366Y-69700000D01*
X109249366Y-69700000D02*
X109349366Y-69700000D01*
X109349366Y-69700000D02*
X109416033Y-69733333D01*
X109416033Y-69733333D02*
X109449366Y-69766667D01*
X109449366Y-69766667D02*
X109482700Y-69833333D01*
X109482700Y-69833333D02*
X109482700Y-70100000D01*
X109182700Y-69433333D02*
X109149366Y-69400000D01*
X109149366Y-69400000D02*
X109116033Y-69333333D01*
X109116033Y-69333333D02*
X109116033Y-69166667D01*
X109116033Y-69166667D02*
X109149366Y-69100000D01*
X109149366Y-69100000D02*
X109182700Y-69066667D01*
X109182700Y-69066667D02*
X109249366Y-69033333D01*
X109249366Y-69033333D02*
X109316033Y-69033333D01*
X109316033Y-69033333D02*
X109416033Y-69066667D01*
X109416033Y-69066667D02*
X109816033Y-69466667D01*
X109816033Y-69466667D02*
X109816033Y-69033333D01*
X109116033Y-68800000D02*
X109116033Y-68333333D01*
X109116033Y-68333333D02*
X109816033Y-68633333D01*
X149953533Y-69700000D02*
X149620200Y-69933333D01*
X149953533Y-70100000D02*
X149253533Y-70100000D01*
X149253533Y-70100000D02*
X149253533Y-69833333D01*
X149253533Y-69833333D02*
X149286866Y-69766667D01*
X149286866Y-69766667D02*
X149320200Y-69733333D01*
X149320200Y-69733333D02*
X149386866Y-69700000D01*
X149386866Y-69700000D02*
X149486866Y-69700000D01*
X149486866Y-69700000D02*
X149553533Y-69733333D01*
X149553533Y-69733333D02*
X149586866Y-69766667D01*
X149586866Y-69766667D02*
X149620200Y-69833333D01*
X149620200Y-69833333D02*
X149620200Y-70100000D01*
X149953533Y-69033333D02*
X149953533Y-69433333D01*
X149953533Y-69233333D02*
X149253533Y-69233333D01*
X149253533Y-69233333D02*
X149353533Y-69300000D01*
X149353533Y-69300000D02*
X149420200Y-69366667D01*
X149420200Y-69366667D02*
X149453533Y-69433333D01*
X149320200Y-68766666D02*
X149286866Y-68733333D01*
X149286866Y-68733333D02*
X149253533Y-68666666D01*
X149253533Y-68666666D02*
X149253533Y-68500000D01*
X149253533Y-68500000D02*
X149286866Y-68433333D01*
X149286866Y-68433333D02*
X149320200Y-68400000D01*
X149320200Y-68400000D02*
X149386866Y-68366666D01*
X149386866Y-68366666D02*
X149453533Y-68366666D01*
X149453533Y-68366666D02*
X149553533Y-68400000D01*
X149553533Y-68400000D02*
X149953533Y-68800000D01*
X149953533Y-68800000D02*
X149953533Y-68366666D01*
X124246033Y-144866666D02*
X123912700Y-145099999D01*
X124246033Y-145266666D02*
X123546033Y-145266666D01*
X123546033Y-145266666D02*
X123546033Y-144999999D01*
X123546033Y-144999999D02*
X123579366Y-144933333D01*
X123579366Y-144933333D02*
X123612700Y-144899999D01*
X123612700Y-144899999D02*
X123679366Y-144866666D01*
X123679366Y-144866666D02*
X123779366Y-144866666D01*
X123779366Y-144866666D02*
X123846033Y-144899999D01*
X123846033Y-144899999D02*
X123879366Y-144933333D01*
X123879366Y-144933333D02*
X123912700Y-144999999D01*
X123912700Y-144999999D02*
X123912700Y-145266666D01*
X123612700Y-144599999D02*
X123579366Y-144566666D01*
X123579366Y-144566666D02*
X123546033Y-144499999D01*
X123546033Y-144499999D02*
X123546033Y-144333333D01*
X123546033Y-144333333D02*
X123579366Y-144266666D01*
X123579366Y-144266666D02*
X123612700Y-144233333D01*
X123612700Y-144233333D02*
X123679366Y-144199999D01*
X123679366Y-144199999D02*
X123746033Y-144199999D01*
X123746033Y-144199999D02*
X123846033Y-144233333D01*
X123846033Y-144233333D02*
X124246033Y-144633333D01*
X124246033Y-144633333D02*
X124246033Y-144199999D01*
X116799999Y-98066033D02*
X116566666Y-97732700D01*
X116399999Y-98066033D02*
X116399999Y-97366033D01*
X116399999Y-97366033D02*
X116666666Y-97366033D01*
X116666666Y-97366033D02*
X116733333Y-97399366D01*
X116733333Y-97399366D02*
X116766666Y-97432700D01*
X116766666Y-97432700D02*
X116799999Y-97499366D01*
X116799999Y-97499366D02*
X116799999Y-97599366D01*
X116799999Y-97599366D02*
X116766666Y-97666033D01*
X116766666Y-97666033D02*
X116733333Y-97699366D01*
X116733333Y-97699366D02*
X116666666Y-97732700D01*
X116666666Y-97732700D02*
X116399999Y-97732700D01*
X117066666Y-97432700D02*
X117099999Y-97399366D01*
X117099999Y-97399366D02*
X117166666Y-97366033D01*
X117166666Y-97366033D02*
X117333333Y-97366033D01*
X117333333Y-97366033D02*
X117399999Y-97399366D01*
X117399999Y-97399366D02*
X117433333Y-97432700D01*
X117433333Y-97432700D02*
X117466666Y-97499366D01*
X117466666Y-97499366D02*
X117466666Y-97566033D01*
X117466666Y-97566033D02*
X117433333Y-97666033D01*
X117433333Y-97666033D02*
X117033333Y-98066033D01*
X117033333Y-98066033D02*
X117466666Y-98066033D01*
X117733333Y-97432700D02*
X117766666Y-97399366D01*
X117766666Y-97399366D02*
X117833333Y-97366033D01*
X117833333Y-97366033D02*
X118000000Y-97366033D01*
X118000000Y-97366033D02*
X118066666Y-97399366D01*
X118066666Y-97399366D02*
X118100000Y-97432700D01*
X118100000Y-97432700D02*
X118133333Y-97499366D01*
X118133333Y-97499366D02*
X118133333Y-97566033D01*
X118133333Y-97566033D02*
X118100000Y-97666033D01*
X118100000Y-97666033D02*
X117700000Y-98066033D01*
X117700000Y-98066033D02*
X118133333Y-98066033D01*
X84466033Y-78866666D02*
X85032700Y-78866666D01*
X85032700Y-78866666D02*
X85099366Y-78833333D01*
X85099366Y-78833333D02*
X85132700Y-78799999D01*
X85132700Y-78799999D02*
X85166033Y-78733333D01*
X85166033Y-78733333D02*
X85166033Y-78599999D01*
X85166033Y-78599999D02*
X85132700Y-78533333D01*
X85132700Y-78533333D02*
X85099366Y-78499999D01*
X85099366Y-78499999D02*
X85032700Y-78466666D01*
X85032700Y-78466666D02*
X84466033Y-78466666D01*
X85166033Y-77766666D02*
X85166033Y-78166666D01*
X85166033Y-77966666D02*
X84466033Y-77966666D01*
X84466033Y-77966666D02*
X84566033Y-78033333D01*
X84566033Y-78033333D02*
X84632700Y-78100000D01*
X84632700Y-78100000D02*
X84666033Y-78166666D01*
X84466033Y-77333333D02*
X84466033Y-77266666D01*
X84466033Y-77266666D02*
X84499366Y-77199999D01*
X84499366Y-77199999D02*
X84532700Y-77166666D01*
X84532700Y-77166666D02*
X84599366Y-77133333D01*
X84599366Y-77133333D02*
X84732700Y-77099999D01*
X84732700Y-77099999D02*
X84899366Y-77099999D01*
X84899366Y-77099999D02*
X85032700Y-77133333D01*
X85032700Y-77133333D02*
X85099366Y-77166666D01*
X85099366Y-77166666D02*
X85132700Y-77199999D01*
X85132700Y-77199999D02*
X85166033Y-77266666D01*
X85166033Y-77266666D02*
X85166033Y-77333333D01*
X85166033Y-77333333D02*
X85132700Y-77399999D01*
X85132700Y-77399999D02*
X85099366Y-77433333D01*
X85099366Y-77433333D02*
X85032700Y-77466666D01*
X85032700Y-77466666D02*
X84899366Y-77499999D01*
X84899366Y-77499999D02*
X84732700Y-77499999D01*
X84732700Y-77499999D02*
X84599366Y-77466666D01*
X84599366Y-77466666D02*
X84532700Y-77433333D01*
X84532700Y-77433333D02*
X84499366Y-77399999D01*
X84499366Y-77399999D02*
X84466033Y-77333333D01*
X122683333Y-137132700D02*
X122616666Y-137099366D01*
X122616666Y-137099366D02*
X122550000Y-137032700D01*
X122550000Y-137032700D02*
X122450000Y-136932700D01*
X122450000Y-136932700D02*
X122383333Y-136899366D01*
X122383333Y-136899366D02*
X122316666Y-136899366D01*
X122350000Y-137066033D02*
X122283333Y-137032700D01*
X122283333Y-137032700D02*
X122216666Y-136966033D01*
X122216666Y-136966033D02*
X122183333Y-136832700D01*
X122183333Y-136832700D02*
X122183333Y-136599366D01*
X122183333Y-136599366D02*
X122216666Y-136466033D01*
X122216666Y-136466033D02*
X122283333Y-136399366D01*
X122283333Y-136399366D02*
X122350000Y-136366033D01*
X122350000Y-136366033D02*
X122483333Y-136366033D01*
X122483333Y-136366033D02*
X122550000Y-136399366D01*
X122550000Y-136399366D02*
X122616666Y-136466033D01*
X122616666Y-136466033D02*
X122650000Y-136599366D01*
X122650000Y-136599366D02*
X122650000Y-136832700D01*
X122650000Y-136832700D02*
X122616666Y-136966033D01*
X122616666Y-136966033D02*
X122550000Y-137032700D01*
X122550000Y-137032700D02*
X122483333Y-137066033D01*
X122483333Y-137066033D02*
X122350000Y-137066033D01*
X122916666Y-136432700D02*
X122949999Y-136399366D01*
X122949999Y-136399366D02*
X123016666Y-136366033D01*
X123016666Y-136366033D02*
X123183333Y-136366033D01*
X123183333Y-136366033D02*
X123249999Y-136399366D01*
X123249999Y-136399366D02*
X123283333Y-136432700D01*
X123283333Y-136432700D02*
X123316666Y-136499366D01*
X123316666Y-136499366D02*
X123316666Y-136566033D01*
X123316666Y-136566033D02*
X123283333Y-136666033D01*
X123283333Y-136666033D02*
X122883333Y-137066033D01*
X122883333Y-137066033D02*
X123316666Y-137066033D01*
X90679366Y-83866666D02*
X90712700Y-83899999D01*
X90712700Y-83899999D02*
X90746033Y-83999999D01*
X90746033Y-83999999D02*
X90746033Y-84066666D01*
X90746033Y-84066666D02*
X90712700Y-84166666D01*
X90712700Y-84166666D02*
X90646033Y-84233333D01*
X90646033Y-84233333D02*
X90579366Y-84266666D01*
X90579366Y-84266666D02*
X90446033Y-84299999D01*
X90446033Y-84299999D02*
X90346033Y-84299999D01*
X90346033Y-84299999D02*
X90212700Y-84266666D01*
X90212700Y-84266666D02*
X90146033Y-84233333D01*
X90146033Y-84233333D02*
X90079366Y-84166666D01*
X90079366Y-84166666D02*
X90046033Y-84066666D01*
X90046033Y-84066666D02*
X90046033Y-83999999D01*
X90046033Y-83999999D02*
X90079366Y-83899999D01*
X90079366Y-83899999D02*
X90112700Y-83866666D01*
X90746033Y-83533333D02*
X90746033Y-83399999D01*
X90746033Y-83399999D02*
X90712700Y-83333333D01*
X90712700Y-83333333D02*
X90679366Y-83299999D01*
X90679366Y-83299999D02*
X90579366Y-83233333D01*
X90579366Y-83233333D02*
X90446033Y-83199999D01*
X90446033Y-83199999D02*
X90179366Y-83199999D01*
X90179366Y-83199999D02*
X90112700Y-83233333D01*
X90112700Y-83233333D02*
X90079366Y-83266666D01*
X90079366Y-83266666D02*
X90046033Y-83333333D01*
X90046033Y-83333333D02*
X90046033Y-83466666D01*
X90046033Y-83466666D02*
X90079366Y-83533333D01*
X90079366Y-83533333D02*
X90112700Y-83566666D01*
X90112700Y-83566666D02*
X90179366Y-83599999D01*
X90179366Y-83599999D02*
X90346033Y-83599999D01*
X90346033Y-83599999D02*
X90412700Y-83566666D01*
X90412700Y-83566666D02*
X90446033Y-83533333D01*
X90446033Y-83533333D02*
X90479366Y-83466666D01*
X90479366Y-83466666D02*
X90479366Y-83333333D01*
X90479366Y-83333333D02*
X90446033Y-83266666D01*
X90446033Y-83266666D02*
X90412700Y-83233333D01*
X90412700Y-83233333D02*
X90346033Y-83199999D01*
X94549999Y-97816033D02*
X94316666Y-97482700D01*
X94149999Y-97816033D02*
X94149999Y-97116033D01*
X94149999Y-97116033D02*
X94416666Y-97116033D01*
X94416666Y-97116033D02*
X94483333Y-97149366D01*
X94483333Y-97149366D02*
X94516666Y-97182700D01*
X94516666Y-97182700D02*
X94549999Y-97249366D01*
X94549999Y-97249366D02*
X94549999Y-97349366D01*
X94549999Y-97349366D02*
X94516666Y-97416033D01*
X94516666Y-97416033D02*
X94483333Y-97449366D01*
X94483333Y-97449366D02*
X94416666Y-97482700D01*
X94416666Y-97482700D02*
X94149999Y-97482700D01*
X94783333Y-97116033D02*
X95216666Y-97116033D01*
X95216666Y-97116033D02*
X94983333Y-97382700D01*
X94983333Y-97382700D02*
X95083333Y-97382700D01*
X95083333Y-97382700D02*
X95149999Y-97416033D01*
X95149999Y-97416033D02*
X95183333Y-97449366D01*
X95183333Y-97449366D02*
X95216666Y-97516033D01*
X95216666Y-97516033D02*
X95216666Y-97682700D01*
X95216666Y-97682700D02*
X95183333Y-97749366D01*
X95183333Y-97749366D02*
X95149999Y-97782700D01*
X95149999Y-97782700D02*
X95083333Y-97816033D01*
X95083333Y-97816033D02*
X94883333Y-97816033D01*
X94883333Y-97816033D02*
X94816666Y-97782700D01*
X94816666Y-97782700D02*
X94783333Y-97749366D01*
X95650000Y-97116033D02*
X95716666Y-97116033D01*
X95716666Y-97116033D02*
X95783333Y-97149366D01*
X95783333Y-97149366D02*
X95816666Y-97182700D01*
X95816666Y-97182700D02*
X95850000Y-97249366D01*
X95850000Y-97249366D02*
X95883333Y-97382700D01*
X95883333Y-97382700D02*
X95883333Y-97549366D01*
X95883333Y-97549366D02*
X95850000Y-97682700D01*
X95850000Y-97682700D02*
X95816666Y-97749366D01*
X95816666Y-97749366D02*
X95783333Y-97782700D01*
X95783333Y-97782700D02*
X95716666Y-97816033D01*
X95716666Y-97816033D02*
X95650000Y-97816033D01*
X95650000Y-97816033D02*
X95583333Y-97782700D01*
X95583333Y-97782700D02*
X95550000Y-97749366D01*
X95550000Y-97749366D02*
X95516666Y-97682700D01*
X95516666Y-97682700D02*
X95483333Y-97549366D01*
X95483333Y-97549366D02*
X95483333Y-97382700D01*
X95483333Y-97382700D02*
X95516666Y-97249366D01*
X95516666Y-97249366D02*
X95550000Y-97182700D01*
X95550000Y-97182700D02*
X95583333Y-97149366D01*
X95583333Y-97149366D02*
X95650000Y-97116033D01*
X121066033Y-69700000D02*
X120732700Y-69933333D01*
X121066033Y-70100000D02*
X120366033Y-70100000D01*
X120366033Y-70100000D02*
X120366033Y-69833333D01*
X120366033Y-69833333D02*
X120399366Y-69766667D01*
X120399366Y-69766667D02*
X120432700Y-69733333D01*
X120432700Y-69733333D02*
X120499366Y-69700000D01*
X120499366Y-69700000D02*
X120599366Y-69700000D01*
X120599366Y-69700000D02*
X120666033Y-69733333D01*
X120666033Y-69733333D02*
X120699366Y-69766667D01*
X120699366Y-69766667D02*
X120732700Y-69833333D01*
X120732700Y-69833333D02*
X120732700Y-70100000D01*
X120432700Y-69433333D02*
X120399366Y-69400000D01*
X120399366Y-69400000D02*
X120366033Y-69333333D01*
X120366033Y-69333333D02*
X120366033Y-69166667D01*
X120366033Y-69166667D02*
X120399366Y-69100000D01*
X120399366Y-69100000D02*
X120432700Y-69066667D01*
X120432700Y-69066667D02*
X120499366Y-69033333D01*
X120499366Y-69033333D02*
X120566033Y-69033333D01*
X120566033Y-69033333D02*
X120666033Y-69066667D01*
X120666033Y-69066667D02*
X121066033Y-69466667D01*
X121066033Y-69466667D02*
X121066033Y-69033333D01*
X120599366Y-68433333D02*
X121066033Y-68433333D01*
X120332700Y-68600000D02*
X120832700Y-68766666D01*
X120832700Y-68766666D02*
X120832700Y-68333333D01*
X87016667Y-90519366D02*
X86783333Y-90519366D01*
X86783333Y-90886033D02*
X86783333Y-90186033D01*
X86783333Y-90186033D02*
X87116667Y-90186033D01*
X87683333Y-90419366D02*
X87683333Y-90886033D01*
X87516667Y-90152700D02*
X87350000Y-90652700D01*
X87350000Y-90652700D02*
X87783333Y-90652700D01*
X149516667Y-90519366D02*
X149283333Y-90519366D01*
X149283333Y-90886033D02*
X149283333Y-90186033D01*
X149283333Y-90186033D02*
X149616667Y-90186033D01*
X150250000Y-90886033D02*
X149850000Y-90886033D01*
X150050000Y-90886033D02*
X150050000Y-90186033D01*
X150050000Y-90186033D02*
X149983333Y-90286033D01*
X149983333Y-90286033D02*
X149916667Y-90352700D01*
X149916667Y-90352700D02*
X149850000Y-90386033D01*
X149906866Y-84083333D02*
X149906866Y-84316666D01*
X150273533Y-84316666D02*
X149573533Y-84316666D01*
X149573533Y-84316666D02*
X149573533Y-83983333D01*
X149906866Y-83483333D02*
X149940200Y-83383333D01*
X149940200Y-83383333D02*
X149973533Y-83349999D01*
X149973533Y-83349999D02*
X150040200Y-83316666D01*
X150040200Y-83316666D02*
X150140200Y-83316666D01*
X150140200Y-83316666D02*
X150206866Y-83349999D01*
X150206866Y-83349999D02*
X150240200Y-83383333D01*
X150240200Y-83383333D02*
X150273533Y-83449999D01*
X150273533Y-83449999D02*
X150273533Y-83716666D01*
X150273533Y-83716666D02*
X149573533Y-83716666D01*
X149573533Y-83716666D02*
X149573533Y-83483333D01*
X149573533Y-83483333D02*
X149606866Y-83416666D01*
X149606866Y-83416666D02*
X149640200Y-83383333D01*
X149640200Y-83383333D02*
X149706866Y-83349999D01*
X149706866Y-83349999D02*
X149773533Y-83349999D01*
X149773533Y-83349999D02*
X149840200Y-83383333D01*
X149840200Y-83383333D02*
X149873533Y-83416666D01*
X149873533Y-83416666D02*
X149906866Y-83483333D01*
X149906866Y-83483333D02*
X149906866Y-83716666D01*
X150273533Y-82649999D02*
X150273533Y-83049999D01*
X150273533Y-82849999D02*
X149573533Y-82849999D01*
X149573533Y-82849999D02*
X149673533Y-82916666D01*
X149673533Y-82916666D02*
X149740200Y-82983333D01*
X149740200Y-82983333D02*
X149773533Y-83049999D01*
X99816033Y-69700000D02*
X99482700Y-69933333D01*
X99816033Y-70100000D02*
X99116033Y-70100000D01*
X99116033Y-70100000D02*
X99116033Y-69833333D01*
X99116033Y-69833333D02*
X99149366Y-69766667D01*
X99149366Y-69766667D02*
X99182700Y-69733333D01*
X99182700Y-69733333D02*
X99249366Y-69700000D01*
X99249366Y-69700000D02*
X99349366Y-69700000D01*
X99349366Y-69700000D02*
X99416033Y-69733333D01*
X99416033Y-69733333D02*
X99449366Y-69766667D01*
X99449366Y-69766667D02*
X99482700Y-69833333D01*
X99482700Y-69833333D02*
X99482700Y-70100000D01*
X99116033Y-69466667D02*
X99116033Y-69033333D01*
X99116033Y-69033333D02*
X99382700Y-69266667D01*
X99382700Y-69266667D02*
X99382700Y-69166667D01*
X99382700Y-69166667D02*
X99416033Y-69100000D01*
X99416033Y-69100000D02*
X99449366Y-69066667D01*
X99449366Y-69066667D02*
X99516033Y-69033333D01*
X99516033Y-69033333D02*
X99682700Y-69033333D01*
X99682700Y-69033333D02*
X99749366Y-69066667D01*
X99749366Y-69066667D02*
X99782700Y-69100000D01*
X99782700Y-69100000D02*
X99816033Y-69166667D01*
X99816033Y-69166667D02*
X99816033Y-69366667D01*
X99816033Y-69366667D02*
X99782700Y-69433333D01*
X99782700Y-69433333D02*
X99749366Y-69466667D01*
X99182700Y-68766666D02*
X99149366Y-68733333D01*
X99149366Y-68733333D02*
X99116033Y-68666666D01*
X99116033Y-68666666D02*
X99116033Y-68500000D01*
X99116033Y-68500000D02*
X99149366Y-68433333D01*
X99149366Y-68433333D02*
X99182700Y-68400000D01*
X99182700Y-68400000D02*
X99249366Y-68366666D01*
X99249366Y-68366666D02*
X99316033Y-68366666D01*
X99316033Y-68366666D02*
X99416033Y-68400000D01*
X99416033Y-68400000D02*
X99816033Y-68800000D01*
X99816033Y-68800000D02*
X99816033Y-68366666D01*
X126966033Y-78533333D02*
X127532700Y-78533333D01*
X127532700Y-78533333D02*
X127599366Y-78500000D01*
X127599366Y-78500000D02*
X127632700Y-78466666D01*
X127632700Y-78466666D02*
X127666033Y-78400000D01*
X127666033Y-78400000D02*
X127666033Y-78266666D01*
X127666033Y-78266666D02*
X127632700Y-78200000D01*
X127632700Y-78200000D02*
X127599366Y-78166666D01*
X127599366Y-78166666D02*
X127532700Y-78133333D01*
X127532700Y-78133333D02*
X126966033Y-78133333D01*
X127199366Y-77500000D02*
X127666033Y-77500000D01*
X126932700Y-77666667D02*
X127432700Y-77833333D01*
X127432700Y-77833333D02*
X127432700Y-77400000D01*
X122429366Y-83616666D02*
X122462700Y-83649999D01*
X122462700Y-83649999D02*
X122496033Y-83749999D01*
X122496033Y-83749999D02*
X122496033Y-83816666D01*
X122496033Y-83816666D02*
X122462700Y-83916666D01*
X122462700Y-83916666D02*
X122396033Y-83983333D01*
X122396033Y-83983333D02*
X122329366Y-84016666D01*
X122329366Y-84016666D02*
X122196033Y-84049999D01*
X122196033Y-84049999D02*
X122096033Y-84049999D01*
X122096033Y-84049999D02*
X121962700Y-84016666D01*
X121962700Y-84016666D02*
X121896033Y-83983333D01*
X121896033Y-83983333D02*
X121829366Y-83916666D01*
X121829366Y-83916666D02*
X121796033Y-83816666D01*
X121796033Y-83816666D02*
X121796033Y-83749999D01*
X121796033Y-83749999D02*
X121829366Y-83649999D01*
X121829366Y-83649999D02*
X121862700Y-83616666D01*
X122096033Y-83216666D02*
X122062700Y-83283333D01*
X122062700Y-83283333D02*
X122029366Y-83316666D01*
X122029366Y-83316666D02*
X121962700Y-83349999D01*
X121962700Y-83349999D02*
X121929366Y-83349999D01*
X121929366Y-83349999D02*
X121862700Y-83316666D01*
X121862700Y-83316666D02*
X121829366Y-83283333D01*
X121829366Y-83283333D02*
X121796033Y-83216666D01*
X121796033Y-83216666D02*
X121796033Y-83083333D01*
X121796033Y-83083333D02*
X121829366Y-83016666D01*
X121829366Y-83016666D02*
X121862700Y-82983333D01*
X121862700Y-82983333D02*
X121929366Y-82949999D01*
X121929366Y-82949999D02*
X121962700Y-82949999D01*
X121962700Y-82949999D02*
X122029366Y-82983333D01*
X122029366Y-82983333D02*
X122062700Y-83016666D01*
X122062700Y-83016666D02*
X122096033Y-83083333D01*
X122096033Y-83083333D02*
X122096033Y-83216666D01*
X122096033Y-83216666D02*
X122129366Y-83283333D01*
X122129366Y-83283333D02*
X122162700Y-83316666D01*
X122162700Y-83316666D02*
X122229366Y-83349999D01*
X122229366Y-83349999D02*
X122362700Y-83349999D01*
X122362700Y-83349999D02*
X122429366Y-83316666D01*
X122429366Y-83316666D02*
X122462700Y-83283333D01*
X122462700Y-83283333D02*
X122496033Y-83216666D01*
X122496033Y-83216666D02*
X122496033Y-83083333D01*
X122496033Y-83083333D02*
X122462700Y-83016666D01*
X122462700Y-83016666D02*
X122429366Y-82983333D01*
X122429366Y-82983333D02*
X122362700Y-82949999D01*
X122362700Y-82949999D02*
X122229366Y-82949999D01*
X122229366Y-82949999D02*
X122162700Y-82983333D01*
X122162700Y-82983333D02*
X122129366Y-83016666D01*
X122129366Y-83016666D02*
X122096033Y-83083333D01*
X119316033Y-69700000D02*
X118982700Y-69933333D01*
X119316033Y-70100000D02*
X118616033Y-70100000D01*
X118616033Y-70100000D02*
X118616033Y-69833333D01*
X118616033Y-69833333D02*
X118649366Y-69766667D01*
X118649366Y-69766667D02*
X118682700Y-69733333D01*
X118682700Y-69733333D02*
X118749366Y-69700000D01*
X118749366Y-69700000D02*
X118849366Y-69700000D01*
X118849366Y-69700000D02*
X118916033Y-69733333D01*
X118916033Y-69733333D02*
X118949366Y-69766667D01*
X118949366Y-69766667D02*
X118982700Y-69833333D01*
X118982700Y-69833333D02*
X118982700Y-70100000D01*
X118682700Y-69433333D02*
X118649366Y-69400000D01*
X118649366Y-69400000D02*
X118616033Y-69333333D01*
X118616033Y-69333333D02*
X118616033Y-69166667D01*
X118616033Y-69166667D02*
X118649366Y-69100000D01*
X118649366Y-69100000D02*
X118682700Y-69066667D01*
X118682700Y-69066667D02*
X118749366Y-69033333D01*
X118749366Y-69033333D02*
X118816033Y-69033333D01*
X118816033Y-69033333D02*
X118916033Y-69066667D01*
X118916033Y-69066667D02*
X119316033Y-69466667D01*
X119316033Y-69466667D02*
X119316033Y-69033333D01*
X118616033Y-68400000D02*
X118616033Y-68733333D01*
X118616033Y-68733333D02*
X118949366Y-68766666D01*
X118949366Y-68766666D02*
X118916033Y-68733333D01*
X118916033Y-68733333D02*
X118882700Y-68666666D01*
X118882700Y-68666666D02*
X118882700Y-68500000D01*
X118882700Y-68500000D02*
X118916033Y-68433333D01*
X118916033Y-68433333D02*
X118949366Y-68400000D01*
X118949366Y-68400000D02*
X119016033Y-68366666D01*
X119016033Y-68366666D02*
X119182700Y-68366666D01*
X119182700Y-68366666D02*
X119249366Y-68400000D01*
X119249366Y-68400000D02*
X119282700Y-68433333D01*
X119282700Y-68433333D02*
X119316033Y-68500000D01*
X119316033Y-68500000D02*
X119316033Y-68666666D01*
X119316033Y-68666666D02*
X119282700Y-68733333D01*
X119282700Y-68733333D02*
X119249366Y-68766666D01*
X157716033Y-78533333D02*
X158282700Y-78533333D01*
X158282700Y-78533333D02*
X158349366Y-78500000D01*
X158349366Y-78500000D02*
X158382700Y-78466666D01*
X158382700Y-78466666D02*
X158416033Y-78400000D01*
X158416033Y-78400000D02*
X158416033Y-78266666D01*
X158416033Y-78266666D02*
X158382700Y-78200000D01*
X158382700Y-78200000D02*
X158349366Y-78166666D01*
X158349366Y-78166666D02*
X158282700Y-78133333D01*
X158282700Y-78133333D02*
X157716033Y-78133333D01*
X157782700Y-77833333D02*
X157749366Y-77800000D01*
X157749366Y-77800000D02*
X157716033Y-77733333D01*
X157716033Y-77733333D02*
X157716033Y-77566667D01*
X157716033Y-77566667D02*
X157749366Y-77500000D01*
X157749366Y-77500000D02*
X157782700Y-77466667D01*
X157782700Y-77466667D02*
X157849366Y-77433333D01*
X157849366Y-77433333D02*
X157916033Y-77433333D01*
X157916033Y-77433333D02*
X158016033Y-77466667D01*
X158016033Y-77466667D02*
X158416033Y-77866667D01*
X158416033Y-77866667D02*
X158416033Y-77433333D01*
X162429366Y-83616666D02*
X162462700Y-83649999D01*
X162462700Y-83649999D02*
X162496033Y-83749999D01*
X162496033Y-83749999D02*
X162496033Y-83816666D01*
X162496033Y-83816666D02*
X162462700Y-83916666D01*
X162462700Y-83916666D02*
X162396033Y-83983333D01*
X162396033Y-83983333D02*
X162329366Y-84016666D01*
X162329366Y-84016666D02*
X162196033Y-84049999D01*
X162196033Y-84049999D02*
X162096033Y-84049999D01*
X162096033Y-84049999D02*
X161962700Y-84016666D01*
X161962700Y-84016666D02*
X161896033Y-83983333D01*
X161896033Y-83983333D02*
X161829366Y-83916666D01*
X161829366Y-83916666D02*
X161796033Y-83816666D01*
X161796033Y-83816666D02*
X161796033Y-83749999D01*
X161796033Y-83749999D02*
X161829366Y-83649999D01*
X161829366Y-83649999D02*
X161862700Y-83616666D01*
X162029366Y-83016666D02*
X162496033Y-83016666D01*
X161762700Y-83183333D02*
X162262700Y-83349999D01*
X162262700Y-83349999D02*
X162262700Y-82916666D01*
X108066033Y-69700000D02*
X107732700Y-69933333D01*
X108066033Y-70100000D02*
X107366033Y-70100000D01*
X107366033Y-70100000D02*
X107366033Y-69833333D01*
X107366033Y-69833333D02*
X107399366Y-69766667D01*
X107399366Y-69766667D02*
X107432700Y-69733333D01*
X107432700Y-69733333D02*
X107499366Y-69700000D01*
X107499366Y-69700000D02*
X107599366Y-69700000D01*
X107599366Y-69700000D02*
X107666033Y-69733333D01*
X107666033Y-69733333D02*
X107699366Y-69766667D01*
X107699366Y-69766667D02*
X107732700Y-69833333D01*
X107732700Y-69833333D02*
X107732700Y-70100000D01*
X107432700Y-69433333D02*
X107399366Y-69400000D01*
X107399366Y-69400000D02*
X107366033Y-69333333D01*
X107366033Y-69333333D02*
X107366033Y-69166667D01*
X107366033Y-69166667D02*
X107399366Y-69100000D01*
X107399366Y-69100000D02*
X107432700Y-69066667D01*
X107432700Y-69066667D02*
X107499366Y-69033333D01*
X107499366Y-69033333D02*
X107566033Y-69033333D01*
X107566033Y-69033333D02*
X107666033Y-69066667D01*
X107666033Y-69066667D02*
X108066033Y-69466667D01*
X108066033Y-69466667D02*
X108066033Y-69033333D01*
X107666033Y-68633333D02*
X107632700Y-68700000D01*
X107632700Y-68700000D02*
X107599366Y-68733333D01*
X107599366Y-68733333D02*
X107532700Y-68766666D01*
X107532700Y-68766666D02*
X107499366Y-68766666D01*
X107499366Y-68766666D02*
X107432700Y-68733333D01*
X107432700Y-68733333D02*
X107399366Y-68700000D01*
X107399366Y-68700000D02*
X107366033Y-68633333D01*
X107366033Y-68633333D02*
X107366033Y-68500000D01*
X107366033Y-68500000D02*
X107399366Y-68433333D01*
X107399366Y-68433333D02*
X107432700Y-68400000D01*
X107432700Y-68400000D02*
X107499366Y-68366666D01*
X107499366Y-68366666D02*
X107532700Y-68366666D01*
X107532700Y-68366666D02*
X107599366Y-68400000D01*
X107599366Y-68400000D02*
X107632700Y-68433333D01*
X107632700Y-68433333D02*
X107666033Y-68500000D01*
X107666033Y-68500000D02*
X107666033Y-68633333D01*
X107666033Y-68633333D02*
X107699366Y-68700000D01*
X107699366Y-68700000D02*
X107732700Y-68733333D01*
X107732700Y-68733333D02*
X107799366Y-68766666D01*
X107799366Y-68766666D02*
X107932700Y-68766666D01*
X107932700Y-68766666D02*
X107999366Y-68733333D01*
X107999366Y-68733333D02*
X108032700Y-68700000D01*
X108032700Y-68700000D02*
X108066033Y-68633333D01*
X108066033Y-68633333D02*
X108066033Y-68500000D01*
X108066033Y-68500000D02*
X108032700Y-68433333D01*
X108032700Y-68433333D02*
X107999366Y-68400000D01*
X107999366Y-68400000D02*
X107932700Y-68366666D01*
X107932700Y-68366666D02*
X107799366Y-68366666D01*
X107799366Y-68366666D02*
X107732700Y-68400000D01*
X107732700Y-68400000D02*
X107699366Y-68433333D01*
X107699366Y-68433333D02*
X107666033Y-68500000D01*
X106019366Y-84333333D02*
X106019366Y-84566666D01*
X106386033Y-84566666D02*
X105686033Y-84566666D01*
X105686033Y-84566666D02*
X105686033Y-84233333D01*
X106019366Y-83733333D02*
X106052700Y-83633333D01*
X106052700Y-83633333D02*
X106086033Y-83599999D01*
X106086033Y-83599999D02*
X106152700Y-83566666D01*
X106152700Y-83566666D02*
X106252700Y-83566666D01*
X106252700Y-83566666D02*
X106319366Y-83599999D01*
X106319366Y-83599999D02*
X106352700Y-83633333D01*
X106352700Y-83633333D02*
X106386033Y-83699999D01*
X106386033Y-83699999D02*
X106386033Y-83966666D01*
X106386033Y-83966666D02*
X105686033Y-83966666D01*
X105686033Y-83966666D02*
X105686033Y-83733333D01*
X105686033Y-83733333D02*
X105719366Y-83666666D01*
X105719366Y-83666666D02*
X105752700Y-83633333D01*
X105752700Y-83633333D02*
X105819366Y-83599999D01*
X105819366Y-83599999D02*
X105886033Y-83599999D01*
X105886033Y-83599999D02*
X105952700Y-83633333D01*
X105952700Y-83633333D02*
X105986033Y-83666666D01*
X105986033Y-83666666D02*
X106019366Y-83733333D01*
X106019366Y-83733333D02*
X106019366Y-83966666D01*
X105686033Y-83333333D02*
X105686033Y-82899999D01*
X105686033Y-82899999D02*
X105952700Y-83133333D01*
X105952700Y-83133333D02*
X105952700Y-83033333D01*
X105952700Y-83033333D02*
X105986033Y-82966666D01*
X105986033Y-82966666D02*
X106019366Y-82933333D01*
X106019366Y-82933333D02*
X106086033Y-82899999D01*
X106086033Y-82899999D02*
X106252700Y-82899999D01*
X106252700Y-82899999D02*
X106319366Y-82933333D01*
X106319366Y-82933333D02*
X106352700Y-82966666D01*
X106352700Y-82966666D02*
X106386033Y-83033333D01*
X106386033Y-83033333D02*
X106386033Y-83233333D01*
X106386033Y-83233333D02*
X106352700Y-83299999D01*
X106352700Y-83299999D02*
X106319366Y-83333333D01*
X98066033Y-69700000D02*
X97732700Y-69933333D01*
X98066033Y-70100000D02*
X97366033Y-70100000D01*
X97366033Y-70100000D02*
X97366033Y-69833333D01*
X97366033Y-69833333D02*
X97399366Y-69766667D01*
X97399366Y-69766667D02*
X97432700Y-69733333D01*
X97432700Y-69733333D02*
X97499366Y-69700000D01*
X97499366Y-69700000D02*
X97599366Y-69700000D01*
X97599366Y-69700000D02*
X97666033Y-69733333D01*
X97666033Y-69733333D02*
X97699366Y-69766667D01*
X97699366Y-69766667D02*
X97732700Y-69833333D01*
X97732700Y-69833333D02*
X97732700Y-70100000D01*
X97366033Y-69466667D02*
X97366033Y-69033333D01*
X97366033Y-69033333D02*
X97632700Y-69266667D01*
X97632700Y-69266667D02*
X97632700Y-69166667D01*
X97632700Y-69166667D02*
X97666033Y-69100000D01*
X97666033Y-69100000D02*
X97699366Y-69066667D01*
X97699366Y-69066667D02*
X97766033Y-69033333D01*
X97766033Y-69033333D02*
X97932700Y-69033333D01*
X97932700Y-69033333D02*
X97999366Y-69066667D01*
X97999366Y-69066667D02*
X98032700Y-69100000D01*
X98032700Y-69100000D02*
X98066033Y-69166667D01*
X98066033Y-69166667D02*
X98066033Y-69366667D01*
X98066033Y-69366667D02*
X98032700Y-69433333D01*
X98032700Y-69433333D02*
X97999366Y-69466667D01*
X97366033Y-68800000D02*
X97366033Y-68366666D01*
X97366033Y-68366666D02*
X97632700Y-68600000D01*
X97632700Y-68600000D02*
X97632700Y-68500000D01*
X97632700Y-68500000D02*
X97666033Y-68433333D01*
X97666033Y-68433333D02*
X97699366Y-68400000D01*
X97699366Y-68400000D02*
X97766033Y-68366666D01*
X97766033Y-68366666D02*
X97932700Y-68366666D01*
X97932700Y-68366666D02*
X97999366Y-68400000D01*
X97999366Y-68400000D02*
X98032700Y-68433333D01*
X98032700Y-68433333D02*
X98066033Y-68500000D01*
X98066033Y-68500000D02*
X98066033Y-68700000D01*
X98066033Y-68700000D02*
X98032700Y-68766666D01*
X98032700Y-68766666D02*
X97999366Y-68800000D01*
X113816033Y-144616666D02*
X113482700Y-144849999D01*
X113816033Y-145016666D02*
X113116033Y-145016666D01*
X113116033Y-145016666D02*
X113116033Y-144749999D01*
X113116033Y-144749999D02*
X113149366Y-144683333D01*
X113149366Y-144683333D02*
X113182700Y-144649999D01*
X113182700Y-144649999D02*
X113249366Y-144616666D01*
X113249366Y-144616666D02*
X113349366Y-144616666D01*
X113349366Y-144616666D02*
X113416033Y-144649999D01*
X113416033Y-144649999D02*
X113449366Y-144683333D01*
X113449366Y-144683333D02*
X113482700Y-144749999D01*
X113482700Y-144749999D02*
X113482700Y-145016666D01*
X113816033Y-143949999D02*
X113816033Y-144349999D01*
X113816033Y-144149999D02*
X113116033Y-144149999D01*
X113116033Y-144149999D02*
X113216033Y-144216666D01*
X113216033Y-144216666D02*
X113282700Y-144283333D01*
X113282700Y-144283333D02*
X113316033Y-144349999D01*
X88066033Y-69700000D02*
X87732700Y-69933333D01*
X88066033Y-70100000D02*
X87366033Y-70100000D01*
X87366033Y-70100000D02*
X87366033Y-69833333D01*
X87366033Y-69833333D02*
X87399366Y-69766667D01*
X87399366Y-69766667D02*
X87432700Y-69733333D01*
X87432700Y-69733333D02*
X87499366Y-69700000D01*
X87499366Y-69700000D02*
X87599366Y-69700000D01*
X87599366Y-69700000D02*
X87666033Y-69733333D01*
X87666033Y-69733333D02*
X87699366Y-69766667D01*
X87699366Y-69766667D02*
X87732700Y-69833333D01*
X87732700Y-69833333D02*
X87732700Y-70100000D01*
X87366033Y-69466667D02*
X87366033Y-69033333D01*
X87366033Y-69033333D02*
X87632700Y-69266667D01*
X87632700Y-69266667D02*
X87632700Y-69166667D01*
X87632700Y-69166667D02*
X87666033Y-69100000D01*
X87666033Y-69100000D02*
X87699366Y-69066667D01*
X87699366Y-69066667D02*
X87766033Y-69033333D01*
X87766033Y-69033333D02*
X87932700Y-69033333D01*
X87932700Y-69033333D02*
X87999366Y-69066667D01*
X87999366Y-69066667D02*
X88032700Y-69100000D01*
X88032700Y-69100000D02*
X88066033Y-69166667D01*
X88066033Y-69166667D02*
X88066033Y-69366667D01*
X88066033Y-69366667D02*
X88032700Y-69433333D01*
X88032700Y-69433333D02*
X87999366Y-69466667D01*
X87366033Y-68400000D02*
X87366033Y-68733333D01*
X87366033Y-68733333D02*
X87699366Y-68766666D01*
X87699366Y-68766666D02*
X87666033Y-68733333D01*
X87666033Y-68733333D02*
X87632700Y-68666666D01*
X87632700Y-68666666D02*
X87632700Y-68500000D01*
X87632700Y-68500000D02*
X87666033Y-68433333D01*
X87666033Y-68433333D02*
X87699366Y-68400000D01*
X87699366Y-68400000D02*
X87766033Y-68366666D01*
X87766033Y-68366666D02*
X87932700Y-68366666D01*
X87932700Y-68366666D02*
X87999366Y-68400000D01*
X87999366Y-68400000D02*
X88032700Y-68433333D01*
X88032700Y-68433333D02*
X88066033Y-68500000D01*
X88066033Y-68500000D02*
X88066033Y-68666666D01*
X88066033Y-68666666D02*
X88032700Y-68733333D01*
X88032700Y-68733333D02*
X87999366Y-68766666D01*
X113983333Y-134066033D02*
X113983333Y-133366033D01*
X113983333Y-133366033D02*
X114150000Y-133366033D01*
X114150000Y-133366033D02*
X114250000Y-133399366D01*
X114250000Y-133399366D02*
X114316667Y-133466033D01*
X114316667Y-133466033D02*
X114350000Y-133532700D01*
X114350000Y-133532700D02*
X114383333Y-133666033D01*
X114383333Y-133666033D02*
X114383333Y-133766033D01*
X114383333Y-133766033D02*
X114350000Y-133899366D01*
X114350000Y-133899366D02*
X114316667Y-133966033D01*
X114316667Y-133966033D02*
X114250000Y-134032700D01*
X114250000Y-134032700D02*
X114150000Y-134066033D01*
X114150000Y-134066033D02*
X113983333Y-134066033D01*
X114650000Y-133432700D02*
X114683333Y-133399366D01*
X114683333Y-133399366D02*
X114750000Y-133366033D01*
X114750000Y-133366033D02*
X114916667Y-133366033D01*
X114916667Y-133366033D02*
X114983333Y-133399366D01*
X114983333Y-133399366D02*
X115016667Y-133432700D01*
X115016667Y-133432700D02*
X115050000Y-133499366D01*
X115050000Y-133499366D02*
X115050000Y-133566033D01*
X115050000Y-133566033D02*
X115016667Y-133666033D01*
X115016667Y-133666033D02*
X114616667Y-134066033D01*
X114616667Y-134066033D02*
X115050000Y-134066033D01*
X137216033Y-78533333D02*
X137782700Y-78533333D01*
X137782700Y-78533333D02*
X137849366Y-78500000D01*
X137849366Y-78500000D02*
X137882700Y-78466666D01*
X137882700Y-78466666D02*
X137916033Y-78400000D01*
X137916033Y-78400000D02*
X137916033Y-78266666D01*
X137916033Y-78266666D02*
X137882700Y-78200000D01*
X137882700Y-78200000D02*
X137849366Y-78166666D01*
X137849366Y-78166666D02*
X137782700Y-78133333D01*
X137782700Y-78133333D02*
X137216033Y-78133333D01*
X137216033Y-77466667D02*
X137216033Y-77800000D01*
X137216033Y-77800000D02*
X137549366Y-77833333D01*
X137549366Y-77833333D02*
X137516033Y-77800000D01*
X137516033Y-77800000D02*
X137482700Y-77733333D01*
X137482700Y-77733333D02*
X137482700Y-77566667D01*
X137482700Y-77566667D02*
X137516033Y-77500000D01*
X137516033Y-77500000D02*
X137549366Y-77466667D01*
X137549366Y-77466667D02*
X137616033Y-77433333D01*
X137616033Y-77433333D02*
X137782700Y-77433333D01*
X137782700Y-77433333D02*
X137849366Y-77466667D01*
X137849366Y-77466667D02*
X137882700Y-77500000D01*
X137882700Y-77500000D02*
X137916033Y-77566667D01*
X137916033Y-77566667D02*
X137916033Y-77733333D01*
X137916033Y-77733333D02*
X137882700Y-77800000D01*
X137882700Y-77800000D02*
X137849366Y-77833333D01*
X94399999Y-95816033D02*
X94399999Y-95116033D01*
X94399999Y-95116033D02*
X94566666Y-95116033D01*
X94566666Y-95116033D02*
X94666666Y-95149366D01*
X94666666Y-95149366D02*
X94733333Y-95216033D01*
X94733333Y-95216033D02*
X94766666Y-95282700D01*
X94766666Y-95282700D02*
X94799999Y-95416033D01*
X94799999Y-95416033D02*
X94799999Y-95516033D01*
X94799999Y-95516033D02*
X94766666Y-95649366D01*
X94766666Y-95649366D02*
X94733333Y-95716033D01*
X94733333Y-95716033D02*
X94666666Y-95782700D01*
X94666666Y-95782700D02*
X94566666Y-95816033D01*
X94566666Y-95816033D02*
X94399999Y-95816033D01*
X95466666Y-95816033D02*
X95066666Y-95816033D01*
X95266666Y-95816033D02*
X95266666Y-95116033D01*
X95266666Y-95116033D02*
X95199999Y-95216033D01*
X95199999Y-95216033D02*
X95133333Y-95282700D01*
X95133333Y-95282700D02*
X95066666Y-95316033D01*
X95733333Y-95182700D02*
X95766666Y-95149366D01*
X95766666Y-95149366D02*
X95833333Y-95116033D01*
X95833333Y-95116033D02*
X96000000Y-95116033D01*
X96000000Y-95116033D02*
X96066666Y-95149366D01*
X96066666Y-95149366D02*
X96100000Y-95182700D01*
X96100000Y-95182700D02*
X96133333Y-95249366D01*
X96133333Y-95249366D02*
X96133333Y-95316033D01*
X96133333Y-95316033D02*
X96100000Y-95416033D01*
X96100000Y-95416033D02*
X95700000Y-95816033D01*
X95700000Y-95816033D02*
X96133333Y-95816033D01*
X154066033Y-96116666D02*
X153732700Y-96349999D01*
X154066033Y-96516666D02*
X153366033Y-96516666D01*
X153366033Y-96516666D02*
X153366033Y-96249999D01*
X153366033Y-96249999D02*
X153399366Y-96183333D01*
X153399366Y-96183333D02*
X153432700Y-96149999D01*
X153432700Y-96149999D02*
X153499366Y-96116666D01*
X153499366Y-96116666D02*
X153599366Y-96116666D01*
X153599366Y-96116666D02*
X153666033Y-96149999D01*
X153666033Y-96149999D02*
X153699366Y-96183333D01*
X153699366Y-96183333D02*
X153732700Y-96249999D01*
X153732700Y-96249999D02*
X153732700Y-96516666D01*
X153366033Y-95483333D02*
X153366033Y-95816666D01*
X153366033Y-95816666D02*
X153699366Y-95849999D01*
X153699366Y-95849999D02*
X153666033Y-95816666D01*
X153666033Y-95816666D02*
X153632700Y-95749999D01*
X153632700Y-95749999D02*
X153632700Y-95583333D01*
X153632700Y-95583333D02*
X153666033Y-95516666D01*
X153666033Y-95516666D02*
X153699366Y-95483333D01*
X153699366Y-95483333D02*
X153766033Y-95449999D01*
X153766033Y-95449999D02*
X153932700Y-95449999D01*
X153932700Y-95449999D02*
X153999366Y-95483333D01*
X153999366Y-95483333D02*
X154032700Y-95516666D01*
X154032700Y-95516666D02*
X154066033Y-95583333D01*
X154066033Y-95583333D02*
X154066033Y-95749999D01*
X154066033Y-95749999D02*
X154032700Y-95816666D01*
X154032700Y-95816666D02*
X153999366Y-95849999D01*
X163216033Y-69566666D02*
X162882700Y-69799999D01*
X163216033Y-69966666D02*
X162516033Y-69966666D01*
X162516033Y-69966666D02*
X162516033Y-69699999D01*
X162516033Y-69699999D02*
X162549366Y-69633333D01*
X162549366Y-69633333D02*
X162582700Y-69599999D01*
X162582700Y-69599999D02*
X162649366Y-69566666D01*
X162649366Y-69566666D02*
X162749366Y-69566666D01*
X162749366Y-69566666D02*
X162816033Y-69599999D01*
X162816033Y-69599999D02*
X162849366Y-69633333D01*
X162849366Y-69633333D02*
X162882700Y-69699999D01*
X162882700Y-69699999D02*
X162882700Y-69966666D01*
X162816033Y-69166666D02*
X162782700Y-69233333D01*
X162782700Y-69233333D02*
X162749366Y-69266666D01*
X162749366Y-69266666D02*
X162682700Y-69299999D01*
X162682700Y-69299999D02*
X162649366Y-69299999D01*
X162649366Y-69299999D02*
X162582700Y-69266666D01*
X162582700Y-69266666D02*
X162549366Y-69233333D01*
X162549366Y-69233333D02*
X162516033Y-69166666D01*
X162516033Y-69166666D02*
X162516033Y-69033333D01*
X162516033Y-69033333D02*
X162549366Y-68966666D01*
X162549366Y-68966666D02*
X162582700Y-68933333D01*
X162582700Y-68933333D02*
X162649366Y-68899999D01*
X162649366Y-68899999D02*
X162682700Y-68899999D01*
X162682700Y-68899999D02*
X162749366Y-68933333D01*
X162749366Y-68933333D02*
X162782700Y-68966666D01*
X162782700Y-68966666D02*
X162816033Y-69033333D01*
X162816033Y-69033333D02*
X162816033Y-69166666D01*
X162816033Y-69166666D02*
X162849366Y-69233333D01*
X162849366Y-69233333D02*
X162882700Y-69266666D01*
X162882700Y-69266666D02*
X162949366Y-69299999D01*
X162949366Y-69299999D02*
X163082700Y-69299999D01*
X163082700Y-69299999D02*
X163149366Y-69266666D01*
X163149366Y-69266666D02*
X163182700Y-69233333D01*
X163182700Y-69233333D02*
X163216033Y-69166666D01*
X163216033Y-69166666D02*
X163216033Y-69033333D01*
X163216033Y-69033333D02*
X163182700Y-68966666D01*
X163182700Y-68966666D02*
X163149366Y-68933333D01*
X163149366Y-68933333D02*
X163082700Y-68899999D01*
X163082700Y-68899999D02*
X162949366Y-68899999D01*
X162949366Y-68899999D02*
X162882700Y-68933333D01*
X162882700Y-68933333D02*
X162849366Y-68966666D01*
X162849366Y-68966666D02*
X162816033Y-69033333D01*
X83266666Y-67616033D02*
X83266666Y-68116033D01*
X83266666Y-68116033D02*
X83233333Y-68216033D01*
X83233333Y-68216033D02*
X83166666Y-68282700D01*
X83166666Y-68282700D02*
X83066666Y-68316033D01*
X83066666Y-68316033D02*
X83000000Y-68316033D01*
X83933333Y-67616033D02*
X83599999Y-67616033D01*
X83599999Y-67616033D02*
X83566666Y-67949366D01*
X83566666Y-67949366D02*
X83599999Y-67916033D01*
X83599999Y-67916033D02*
X83666666Y-67882700D01*
X83666666Y-67882700D02*
X83833333Y-67882700D01*
X83833333Y-67882700D02*
X83899999Y-67916033D01*
X83899999Y-67916033D02*
X83933333Y-67949366D01*
X83933333Y-67949366D02*
X83966666Y-68016033D01*
X83966666Y-68016033D02*
X83966666Y-68182700D01*
X83966666Y-68182700D02*
X83933333Y-68249366D01*
X83933333Y-68249366D02*
X83899999Y-68282700D01*
X83899999Y-68282700D02*
X83833333Y-68316033D01*
X83833333Y-68316033D02*
X83666666Y-68316033D01*
X83666666Y-68316033D02*
X83599999Y-68282700D01*
X83599999Y-68282700D02*
X83566666Y-68249366D01*
X126183333Y-144016033D02*
X125950000Y-143682700D01*
X125783333Y-144016033D02*
X125783333Y-143316033D01*
X125783333Y-143316033D02*
X126050000Y-143316033D01*
X126050000Y-143316033D02*
X126116667Y-143349366D01*
X126116667Y-143349366D02*
X126150000Y-143382700D01*
X126150000Y-143382700D02*
X126183333Y-143449366D01*
X126183333Y-143449366D02*
X126183333Y-143549366D01*
X126183333Y-143549366D02*
X126150000Y-143616033D01*
X126150000Y-143616033D02*
X126116667Y-143649366D01*
X126116667Y-143649366D02*
X126050000Y-143682700D01*
X126050000Y-143682700D02*
X125783333Y-143682700D01*
X126783333Y-143549366D02*
X126783333Y-144016033D01*
X126616667Y-143282700D02*
X126450000Y-143782700D01*
X126450000Y-143782700D02*
X126883333Y-143782700D01*
X114383333Y-136249366D02*
X114350000Y-136282700D01*
X114350000Y-136282700D02*
X114250000Y-136316033D01*
X114250000Y-136316033D02*
X114183333Y-136316033D01*
X114183333Y-136316033D02*
X114083333Y-136282700D01*
X114083333Y-136282700D02*
X114016667Y-136216033D01*
X114016667Y-136216033D02*
X113983333Y-136149366D01*
X113983333Y-136149366D02*
X113950000Y-136016033D01*
X113950000Y-136016033D02*
X113950000Y-135916033D01*
X113950000Y-135916033D02*
X113983333Y-135782700D01*
X113983333Y-135782700D02*
X114016667Y-135716033D01*
X114016667Y-135716033D02*
X114083333Y-135649366D01*
X114083333Y-135649366D02*
X114183333Y-135616033D01*
X114183333Y-135616033D02*
X114250000Y-135616033D01*
X114250000Y-135616033D02*
X114350000Y-135649366D01*
X114350000Y-135649366D02*
X114383333Y-135682700D01*
X115050000Y-136316033D02*
X114650000Y-136316033D01*
X114850000Y-136316033D02*
X114850000Y-135616033D01*
X114850000Y-135616033D02*
X114783333Y-135716033D01*
X114783333Y-135716033D02*
X114716667Y-135782700D01*
X114716667Y-135782700D02*
X114650000Y-135816033D01*
X156604166Y-68466033D02*
X156604166Y-69032700D01*
X156604166Y-69032700D02*
X156637500Y-69099366D01*
X156637500Y-69099366D02*
X156670833Y-69132700D01*
X156670833Y-69132700D02*
X156737500Y-69166033D01*
X156737500Y-69166033D02*
X156870833Y-69166033D01*
X156870833Y-69166033D02*
X156937500Y-69132700D01*
X156937500Y-69132700D02*
X156970833Y-69099366D01*
X156970833Y-69099366D02*
X157004166Y-69032700D01*
X157004166Y-69032700D02*
X157004166Y-68466033D01*
X157270833Y-68466033D02*
X157704166Y-68466033D01*
X157704166Y-68466033D02*
X157470833Y-68732700D01*
X157470833Y-68732700D02*
X157570833Y-68732700D01*
X157570833Y-68732700D02*
X157637499Y-68766033D01*
X157637499Y-68766033D02*
X157670833Y-68799366D01*
X157670833Y-68799366D02*
X157704166Y-68866033D01*
X157704166Y-68866033D02*
X157704166Y-69032700D01*
X157704166Y-69032700D02*
X157670833Y-69099366D01*
X157670833Y-69099366D02*
X157637499Y-69132700D01*
X157637499Y-69132700D02*
X157570833Y-69166033D01*
X157570833Y-69166033D02*
X157370833Y-69166033D01*
X157370833Y-69166033D02*
X157304166Y-69132700D01*
X157304166Y-69132700D02*
X157270833Y-69099366D01*
X116466033Y-78533333D02*
X117032700Y-78533333D01*
X117032700Y-78533333D02*
X117099366Y-78500000D01*
X117099366Y-78500000D02*
X117132700Y-78466666D01*
X117132700Y-78466666D02*
X117166033Y-78400000D01*
X117166033Y-78400000D02*
X117166033Y-78266666D01*
X117166033Y-78266666D02*
X117132700Y-78200000D01*
X117132700Y-78200000D02*
X117099366Y-78166666D01*
X117099366Y-78166666D02*
X117032700Y-78133333D01*
X117032700Y-78133333D02*
X116466033Y-78133333D01*
X116766033Y-77700000D02*
X116732700Y-77766667D01*
X116732700Y-77766667D02*
X116699366Y-77800000D01*
X116699366Y-77800000D02*
X116632700Y-77833333D01*
X116632700Y-77833333D02*
X116599366Y-77833333D01*
X116599366Y-77833333D02*
X116532700Y-77800000D01*
X116532700Y-77800000D02*
X116499366Y-77766667D01*
X116499366Y-77766667D02*
X116466033Y-77700000D01*
X116466033Y-77700000D02*
X116466033Y-77566667D01*
X116466033Y-77566667D02*
X116499366Y-77500000D01*
X116499366Y-77500000D02*
X116532700Y-77466667D01*
X116532700Y-77466667D02*
X116599366Y-77433333D01*
X116599366Y-77433333D02*
X116632700Y-77433333D01*
X116632700Y-77433333D02*
X116699366Y-77466667D01*
X116699366Y-77466667D02*
X116732700Y-77500000D01*
X116732700Y-77500000D02*
X116766033Y-77566667D01*
X116766033Y-77566667D02*
X116766033Y-77700000D01*
X116766033Y-77700000D02*
X116799366Y-77766667D01*
X116799366Y-77766667D02*
X116832700Y-77800000D01*
X116832700Y-77800000D02*
X116899366Y-77833333D01*
X116899366Y-77833333D02*
X117032700Y-77833333D01*
X117032700Y-77833333D02*
X117099366Y-77800000D01*
X117099366Y-77800000D02*
X117132700Y-77766667D01*
X117132700Y-77766667D02*
X117166033Y-77700000D01*
X117166033Y-77700000D02*
X117166033Y-77566667D01*
X117166033Y-77566667D02*
X117132700Y-77500000D01*
X117132700Y-77500000D02*
X117099366Y-77466667D01*
X117099366Y-77466667D02*
X117032700Y-77433333D01*
X117032700Y-77433333D02*
X116899366Y-77433333D01*
X116899366Y-77433333D02*
X116832700Y-77466667D01*
X116832700Y-77466667D02*
X116799366Y-77500000D01*
X116799366Y-77500000D02*
X116766033Y-77566667D01*
X114716666Y-69216033D02*
X114716666Y-69782700D01*
X114716666Y-69782700D02*
X114750000Y-69849366D01*
X114750000Y-69849366D02*
X114783333Y-69882700D01*
X114783333Y-69882700D02*
X114850000Y-69916033D01*
X114850000Y-69916033D02*
X114983333Y-69916033D01*
X114983333Y-69916033D02*
X115050000Y-69882700D01*
X115050000Y-69882700D02*
X115083333Y-69849366D01*
X115083333Y-69849366D02*
X115116666Y-69782700D01*
X115116666Y-69782700D02*
X115116666Y-69216033D01*
X115483333Y-69916033D02*
X115616666Y-69916033D01*
X115616666Y-69916033D02*
X115683333Y-69882700D01*
X115683333Y-69882700D02*
X115716666Y-69849366D01*
X115716666Y-69849366D02*
X115783333Y-69749366D01*
X115783333Y-69749366D02*
X115816666Y-69616033D01*
X115816666Y-69616033D02*
X115816666Y-69349366D01*
X115816666Y-69349366D02*
X115783333Y-69282700D01*
X115783333Y-69282700D02*
X115749999Y-69249366D01*
X115749999Y-69249366D02*
X115683333Y-69216033D01*
X115683333Y-69216033D02*
X115549999Y-69216033D01*
X115549999Y-69216033D02*
X115483333Y-69249366D01*
X115483333Y-69249366D02*
X115449999Y-69282700D01*
X115449999Y-69282700D02*
X115416666Y-69349366D01*
X115416666Y-69349366D02*
X115416666Y-69516033D01*
X115416666Y-69516033D02*
X115449999Y-69582700D01*
X115449999Y-69582700D02*
X115483333Y-69616033D01*
X115483333Y-69616033D02*
X115549999Y-69649366D01*
X115549999Y-69649366D02*
X115683333Y-69649366D01*
X115683333Y-69649366D02*
X115749999Y-69616033D01*
X115749999Y-69616033D02*
X115783333Y-69582700D01*
X115783333Y-69582700D02*
X115816666Y-69516033D01*
X92633333Y-69216033D02*
X92633333Y-69782700D01*
X92633333Y-69782700D02*
X92666667Y-69849366D01*
X92666667Y-69849366D02*
X92700000Y-69882700D01*
X92700000Y-69882700D02*
X92766667Y-69916033D01*
X92766667Y-69916033D02*
X92900000Y-69916033D01*
X92900000Y-69916033D02*
X92966667Y-69882700D01*
X92966667Y-69882700D02*
X93000000Y-69849366D01*
X93000000Y-69849366D02*
X93033333Y-69782700D01*
X93033333Y-69782700D02*
X93033333Y-69216033D01*
X93733333Y-69916033D02*
X93333333Y-69916033D01*
X93533333Y-69916033D02*
X93533333Y-69216033D01*
X93533333Y-69216033D02*
X93466666Y-69316033D01*
X93466666Y-69316033D02*
X93400000Y-69382700D01*
X93400000Y-69382700D02*
X93333333Y-69416033D01*
X94000000Y-69282700D02*
X94033333Y-69249366D01*
X94033333Y-69249366D02*
X94100000Y-69216033D01*
X94100000Y-69216033D02*
X94266667Y-69216033D01*
X94266667Y-69216033D02*
X94333333Y-69249366D01*
X94333333Y-69249366D02*
X94366667Y-69282700D01*
X94366667Y-69282700D02*
X94400000Y-69349366D01*
X94400000Y-69349366D02*
X94400000Y-69416033D01*
X94400000Y-69416033D02*
X94366667Y-69516033D01*
X94366667Y-69516033D02*
X93966667Y-69916033D01*
X93966667Y-69916033D02*
X94400000Y-69916033D01*
X161616033Y-69616666D02*
X161282700Y-69849999D01*
X161616033Y-70016666D02*
X160916033Y-70016666D01*
X160916033Y-70016666D02*
X160916033Y-69749999D01*
X160916033Y-69749999D02*
X160949366Y-69683333D01*
X160949366Y-69683333D02*
X160982700Y-69649999D01*
X160982700Y-69649999D02*
X161049366Y-69616666D01*
X161049366Y-69616666D02*
X161149366Y-69616666D01*
X161149366Y-69616666D02*
X161216033Y-69649999D01*
X161216033Y-69649999D02*
X161249366Y-69683333D01*
X161249366Y-69683333D02*
X161282700Y-69749999D01*
X161282700Y-69749999D02*
X161282700Y-70016666D01*
X161616033Y-69283333D02*
X161616033Y-69149999D01*
X161616033Y-69149999D02*
X161582700Y-69083333D01*
X161582700Y-69083333D02*
X161549366Y-69049999D01*
X161549366Y-69049999D02*
X161449366Y-68983333D01*
X161449366Y-68983333D02*
X161316033Y-68949999D01*
X161316033Y-68949999D02*
X161049366Y-68949999D01*
X161049366Y-68949999D02*
X160982700Y-68983333D01*
X160982700Y-68983333D02*
X160949366Y-69016666D01*
X160949366Y-69016666D02*
X160916033Y-69083333D01*
X160916033Y-69083333D02*
X160916033Y-69216666D01*
X160916033Y-69216666D02*
X160949366Y-69283333D01*
X160949366Y-69283333D02*
X160982700Y-69316666D01*
X160982700Y-69316666D02*
X161049366Y-69349999D01*
X161049366Y-69349999D02*
X161216033Y-69349999D01*
X161216033Y-69349999D02*
X161282700Y-69316666D01*
X161282700Y-69316666D02*
X161316033Y-69283333D01*
X161316033Y-69283333D02*
X161349366Y-69216666D01*
X161349366Y-69216666D02*
X161349366Y-69083333D01*
X161349366Y-69083333D02*
X161316033Y-69016666D01*
X161316033Y-69016666D02*
X161282700Y-68983333D01*
X161282700Y-68983333D02*
X161216033Y-68949999D01*
D14*
G04 #@! TO.C,R18*
X131227500Y-71987258D02*
X131227500Y-71512742D01*
X132272500Y-71987258D02*
X132272500Y-71512742D01*
G04 #@! TO.C,R11*
X150865000Y-71987258D02*
X150865000Y-71512742D01*
X151910000Y-71987258D02*
X151910000Y-71512742D01*
G04 #@! TO.C,D4*
X154040000Y-87750000D02*
X154040000Y-89750000D01*
X154040000Y-87750000D02*
X157900000Y-87750000D01*
X154040000Y-89750000D02*
X157900000Y-89750000D01*
G04 #@! TO.C,R13*
X133227500Y-95762742D02*
X133227500Y-96237258D01*
X134272500Y-95762742D02*
X134272500Y-96237258D01*
G04 #@! TO.C,U1*
X150077500Y-78000000D02*
X150077500Y-76050000D01*
X150077500Y-78000000D02*
X150077500Y-79950000D01*
X155197500Y-78000000D02*
X155197500Y-76050000D01*
X155197500Y-78000000D02*
X155197500Y-79950000D01*
X150172500Y-80700000D02*
X149842500Y-80940000D01*
X149842500Y-80460000D01*
X150172500Y-80700000D01*
G36*
X150172500Y-80700000D02*
G01*
X149842500Y-80940000D01*
X149842500Y-80460000D01*
X150172500Y-80700000D01*
G37*
G04 #@! TO.C,R10*
X152615000Y-71987258D02*
X152615000Y-71512742D01*
X153660000Y-71987258D02*
X153660000Y-71512742D01*
G04 #@! TO.C,FB4*
X86740000Y-83912779D02*
X86740000Y-83587221D01*
X87760000Y-83912779D02*
X87760000Y-83587221D01*
G04 #@! TO.C,J1*
X112415000Y-152330000D02*
X112415000Y-154990000D01*
X112415000Y-154990000D02*
X145555000Y-154990000D01*
X113365000Y-149392929D02*
X113365000Y-149847071D01*
X113365000Y-151932929D02*
X113365000Y-152330000D01*
X113365000Y-160990000D02*
X113365000Y-154990000D01*
X114125000Y-149392929D02*
X114125000Y-149847071D01*
X114125000Y-151932929D02*
X114125000Y-152330000D01*
X114125000Y-154990000D02*
X114125000Y-160990000D01*
X114125000Y-160990000D02*
X113365000Y-160990000D01*
X115015000Y-152330000D02*
X115015000Y-154990000D01*
X115905000Y-149392929D02*
X115905000Y-149847071D01*
X115905000Y-151932929D02*
X115905000Y-152330000D01*
X115905000Y-160990000D02*
X115905000Y-154990000D01*
X116665000Y-149392929D02*
X116665000Y-149847071D01*
X116665000Y-151932929D02*
X116665000Y-152330000D01*
X116665000Y-154990000D02*
X116665000Y-160990000D01*
X116665000Y-160990000D02*
X115905000Y-160990000D01*
X117555000Y-152330000D02*
X117555000Y-154990000D01*
X118445000Y-149392929D02*
X118445000Y-149847071D01*
X118445000Y-151932929D02*
X118445000Y-152330000D01*
X118445000Y-160990000D02*
X118445000Y-154990000D01*
X119205000Y-149392929D02*
X119205000Y-149847071D01*
X119205000Y-151932929D02*
X119205000Y-152330000D01*
X119205000Y-154990000D02*
X119205000Y-160990000D01*
X119205000Y-160990000D02*
X118445000Y-160990000D01*
X120095000Y-152330000D02*
X120095000Y-154990000D01*
X120985000Y-149392929D02*
X120985000Y-149847071D01*
X120985000Y-151932929D02*
X120985000Y-152330000D01*
X120985000Y-160990000D02*
X120985000Y-154990000D01*
X121745000Y-149392929D02*
X121745000Y-149847071D01*
X121745000Y-151932929D02*
X121745000Y-152330000D01*
X121745000Y-154990000D02*
X121745000Y-160990000D01*
X121745000Y-160990000D02*
X120985000Y-160990000D01*
X122635000Y-152330000D02*
X122635000Y-154990000D01*
X123525000Y-149392929D02*
X123525000Y-149847071D01*
X123525000Y-151932929D02*
X123525000Y-152330000D01*
X123525000Y-160990000D02*
X123525000Y-154990000D01*
X124285000Y-149392929D02*
X124285000Y-149847071D01*
X124285000Y-151932929D02*
X124285000Y-152330000D01*
X124285000Y-154990000D02*
X124285000Y-160990000D01*
X124285000Y-160990000D02*
X123525000Y-160990000D01*
X125175000Y-152330000D02*
X125175000Y-154990000D01*
X126065000Y-149392929D02*
X126065000Y-149847071D01*
X126065000Y-151932929D02*
X126065000Y-152330000D01*
X126065000Y-160990000D02*
X126065000Y-154990000D01*
X126825000Y-149392929D02*
X126825000Y-149847071D01*
X126825000Y-151932929D02*
X126825000Y-152330000D01*
X126825000Y-154990000D02*
X126825000Y-160990000D01*
X126825000Y-160990000D02*
X126065000Y-160990000D01*
X127715000Y-152330000D02*
X127715000Y-154990000D01*
X128605000Y-149392929D02*
X128605000Y-149847071D01*
X128605000Y-151932929D02*
X128605000Y-152330000D01*
X128605000Y-160990000D02*
X128605000Y-154990000D01*
X129365000Y-149392929D02*
X129365000Y-149847071D01*
X129365000Y-151932929D02*
X129365000Y-152330000D01*
X129365000Y-154990000D02*
X129365000Y-160990000D01*
X129365000Y-160990000D02*
X128605000Y-160990000D01*
X130255000Y-152330000D02*
X130255000Y-154990000D01*
X131145000Y-149392929D02*
X131145000Y-149847071D01*
X131145000Y-151932929D02*
X131145000Y-152330000D01*
X131145000Y-160990000D02*
X131145000Y-154990000D01*
X131905000Y-149392929D02*
X131905000Y-149847071D01*
X131905000Y-151932929D02*
X131905000Y-152330000D01*
X131905000Y-154990000D02*
X131905000Y-160990000D01*
X131905000Y-160990000D02*
X131145000Y-160990000D01*
X132795000Y-152330000D02*
X132795000Y-154990000D01*
X133685000Y-149392929D02*
X133685000Y-149847071D01*
X133685000Y-151932929D02*
X133685000Y-152330000D01*
X133685000Y-160990000D02*
X133685000Y-154990000D01*
X134445000Y-149392929D02*
X134445000Y-149847071D01*
X134445000Y-151932929D02*
X134445000Y-152330000D01*
X134445000Y-154990000D02*
X134445000Y-160990000D01*
X134445000Y-160990000D02*
X133685000Y-160990000D01*
X135335000Y-152330000D02*
X135335000Y-154990000D01*
X136225000Y-149392929D02*
X136225000Y-149847071D01*
X136225000Y-151932929D02*
X136225000Y-152330000D01*
X136225000Y-160990000D02*
X136225000Y-154990000D01*
X136985000Y-149392929D02*
X136985000Y-149847071D01*
X136985000Y-151932929D02*
X136985000Y-152330000D01*
X136985000Y-154990000D02*
X136985000Y-160990000D01*
X136985000Y-160990000D02*
X136225000Y-160990000D01*
X137875000Y-152330000D02*
X137875000Y-154990000D01*
X138765000Y-149392929D02*
X138765000Y-149847071D01*
X138765000Y-151932929D02*
X138765000Y-152330000D01*
X138765000Y-160990000D02*
X138765000Y-154990000D01*
X139525000Y-149392929D02*
X139525000Y-149847071D01*
X139525000Y-151932929D02*
X139525000Y-152330000D01*
X139525000Y-154990000D02*
X139525000Y-160990000D01*
X139525000Y-160990000D02*
X138765000Y-160990000D01*
X140415000Y-152330000D02*
X140415000Y-154990000D01*
X141305000Y-149392929D02*
X141305000Y-149847071D01*
X141305000Y-151932929D02*
X141305000Y-152330000D01*
X141305000Y-160990000D02*
X141305000Y-154990000D01*
X142065000Y-149392929D02*
X142065000Y-149847071D01*
X142065000Y-151932929D02*
X142065000Y-152330000D01*
X142065000Y-154990000D02*
X142065000Y-160990000D01*
X142065000Y-160990000D02*
X141305000Y-160990000D01*
X142955000Y-152330000D02*
X142955000Y-154990000D01*
X143845000Y-149460000D02*
X143845000Y-149847071D01*
X143845000Y-151932929D02*
X143845000Y-152330000D01*
X143845000Y-160990000D02*
X143845000Y-154990000D01*
X143945000Y-154990000D02*
X143945000Y-160990000D01*
X144065000Y-154990000D02*
X144065000Y-160990000D01*
X144185000Y-154990000D02*
X144185000Y-160990000D01*
X144225000Y-147080000D02*
X145495000Y-147080000D01*
X144305000Y-154990000D02*
X144305000Y-160990000D01*
X144425000Y-154990000D02*
X144425000Y-160990000D01*
X144545000Y-154990000D02*
X144545000Y-160990000D01*
X144605000Y-149460000D02*
X144605000Y-149847071D01*
X144605000Y-151932929D02*
X144605000Y-152330000D01*
X144605000Y-154990000D02*
X144605000Y-160990000D01*
X144605000Y-160990000D02*
X143845000Y-160990000D01*
X145495000Y-147080000D02*
X145495000Y-148350000D01*
X145555000Y-152330000D02*
X112415000Y-152330000D01*
X145555000Y-154990000D02*
X145555000Y-152330000D01*
G04 #@! TO.C,Q4*
X124690000Y-139250000D02*
X124690000Y-138600000D01*
X124690000Y-139250000D02*
X124690000Y-139900000D01*
X127810000Y-139250000D02*
X127810000Y-138600000D01*
X127810000Y-139250000D02*
X127810000Y-139900000D01*
X124740000Y-140412500D02*
X124410000Y-140652500D01*
X124410000Y-140172500D01*
X124740000Y-140412500D01*
G36*
X124740000Y-140412500D02*
G01*
X124410000Y-140652500D01*
X124410000Y-140172500D01*
X124740000Y-140412500D01*
G37*
D15*
G04 #@! TO.C,J2*
X148872000Y-59492000D02*
X148875000Y-52125000D01*
X148875000Y-52125000D02*
X165125000Y-52125000D01*
X148875000Y-67875000D02*
X148872000Y-63048000D01*
X154000000Y-53250000D02*
X154000000Y-52250000D01*
X160250000Y-52250000D02*
X160250000Y-53250000D01*
X160250000Y-53250000D02*
X154000000Y-53250000D01*
X165125000Y-52125000D02*
X165128000Y-59746000D01*
X165125000Y-67875000D02*
X148875000Y-67875000D01*
X165125000Y-67875000D02*
X165128000Y-63048000D01*
D14*
G04 #@! TO.C,Q1*
X113340000Y-138520000D02*
X114000000Y-138520000D01*
X113340000Y-139930000D02*
X113340000Y-138520000D01*
X115000000Y-138520000D02*
X115660000Y-138520000D01*
X115660000Y-139930000D02*
X115660000Y-138520000D01*
X113360000Y-140300000D02*
X113030000Y-140540000D01*
X113030000Y-140060000D01*
X113360000Y-140300000D01*
G36*
X113360000Y-140300000D02*
G01*
X113030000Y-140540000D01*
X113030000Y-140060000D01*
X113360000Y-140300000D01*
G37*
G04 #@! TO.C,Q12*
X90940000Y-92250000D02*
X90940000Y-91600000D01*
X90940000Y-92250000D02*
X90940000Y-92900000D01*
X94060000Y-92250000D02*
X94060000Y-91600000D01*
X94060000Y-92250000D02*
X94060000Y-92900000D01*
X90990000Y-93412500D02*
X90660000Y-93652500D01*
X90660000Y-93172500D01*
X90990000Y-93412500D01*
G36*
X90990000Y-93412500D02*
G01*
X90660000Y-93652500D01*
X90660000Y-93172500D01*
X90990000Y-93412500D01*
G37*
G04 #@! TO.C,Q6*
X154940000Y-92250000D02*
X154940000Y-91600000D01*
X154940000Y-92250000D02*
X154940000Y-92900000D01*
X158060000Y-92250000D02*
X158060000Y-91600000D01*
X158060000Y-92250000D02*
X158060000Y-92900000D01*
X154990000Y-93412500D02*
X154660000Y-93652500D01*
X154660000Y-93172500D01*
X154990000Y-93412500D01*
G36*
X154990000Y-93412500D02*
G01*
X154660000Y-93652500D01*
X154660000Y-93172500D01*
X154990000Y-93412500D01*
G37*
G04 #@! TO.C,C2*
X125711252Y-135265000D02*
X125188748Y-135265000D01*
X125711252Y-136735000D02*
X125188748Y-136735000D01*
G04 #@! TO.C,Q5*
X152090000Y-91770000D02*
X152750000Y-91770000D01*
X152090000Y-93180000D02*
X152090000Y-91770000D01*
X153750000Y-91770000D02*
X154410000Y-91770000D01*
X154410000Y-93180000D02*
X154410000Y-91770000D01*
X152110000Y-93550000D02*
X151780000Y-93790000D01*
X151780000Y-93310000D01*
X152110000Y-93550000D01*
G36*
X152110000Y-93550000D02*
G01*
X151780000Y-93790000D01*
X151780000Y-93310000D01*
X152110000Y-93550000D01*
G37*
G04 #@! TO.C,Q10*
X112940000Y-92250000D02*
X112940000Y-91600000D01*
X112940000Y-92250000D02*
X112940000Y-92900000D01*
X116060000Y-92250000D02*
X116060000Y-91600000D01*
X116060000Y-92250000D02*
X116060000Y-92900000D01*
X112990000Y-93412500D02*
X112660000Y-93652500D01*
X112660000Y-93172500D01*
X112990000Y-93412500D01*
G36*
X112990000Y-93412500D02*
G01*
X112660000Y-93652500D01*
X112660000Y-93172500D01*
X112990000Y-93412500D01*
G37*
G04 #@! TO.C,C3*
X152627500Y-83359420D02*
X152627500Y-83640580D01*
X153647500Y-83359420D02*
X153647500Y-83640580D01*
G04 #@! TO.C,F2*
X133352064Y-87840000D02*
X132147936Y-87840000D01*
X133352064Y-89660000D02*
X132147936Y-89660000D01*
G04 #@! TO.C,C7*
X108740000Y-83609420D02*
X108740000Y-83890580D01*
X109760000Y-83609420D02*
X109760000Y-83890580D01*
G04 #@! TO.C,Q8*
X136690000Y-92250000D02*
X136690000Y-91600000D01*
X136690000Y-92250000D02*
X136690000Y-92900000D01*
X139810000Y-92250000D02*
X139810000Y-91600000D01*
X139810000Y-92250000D02*
X139810000Y-92900000D01*
X136740000Y-93412500D02*
X136410000Y-93652500D01*
X136410000Y-93172500D01*
X136740000Y-93412500D01*
G36*
X136740000Y-93412500D02*
G01*
X136410000Y-93652500D01*
X136410000Y-93172500D01*
X136740000Y-93412500D01*
G37*
G04 #@! TO.C,R21*
X109477500Y-95762742D02*
X109477500Y-96237258D01*
X110522500Y-95762742D02*
X110522500Y-96237258D01*
G04 #@! TO.C,FB2*
X128490000Y-83662779D02*
X128490000Y-83337221D01*
X129510000Y-83662779D02*
X129510000Y-83337221D01*
G04 #@! TO.C,D3*
X158110000Y-94650000D02*
X155450000Y-94650000D01*
X158110000Y-96350000D02*
X155450000Y-96350000D01*
X158110000Y-96350000D02*
X158110000Y-94650000D01*
G04 #@! TO.C,C5*
X130240000Y-83359420D02*
X130240000Y-83640580D01*
X131260000Y-83359420D02*
X131260000Y-83640580D01*
G04 #@! TO.C,D13*
X90290000Y-87750000D02*
X90290000Y-89750000D01*
X90290000Y-87750000D02*
X94150000Y-87750000D01*
X90290000Y-89750000D02*
X94150000Y-89750000D01*
G04 #@! TO.C,F3*
X109602064Y-87840000D02*
X108397936Y-87840000D01*
X109602064Y-89660000D02*
X108397936Y-89660000D01*
G04 #@! TO.C,U7*
X106940000Y-78000000D02*
X106940000Y-76050000D01*
X106940000Y-78000000D02*
X106940000Y-79950000D01*
X112060000Y-78000000D02*
X112060000Y-76050000D01*
X112060000Y-78000000D02*
X112060000Y-79950000D01*
X107035000Y-80700000D02*
X106705000Y-80940000D01*
X106705000Y-80460000D01*
X107035000Y-80700000D01*
G36*
X107035000Y-80700000D02*
G01*
X106705000Y-80940000D01*
X106705000Y-80460000D01*
X107035000Y-80700000D01*
G37*
G04 #@! TO.C,R17*
X139727500Y-71987258D02*
X139727500Y-71512742D01*
X140772500Y-71987258D02*
X140772500Y-71512742D01*
G04 #@! TO.C,D1*
X119610000Y-142650000D02*
X116950000Y-142650000D01*
X119610000Y-144350000D02*
X116950000Y-144350000D01*
X119610000Y-144350000D02*
X119610000Y-142650000D01*
G04 #@! TO.C,R26*
X110727500Y-71987258D02*
X110727500Y-71512742D01*
X111772500Y-71987258D02*
X111772500Y-71512742D01*
G04 #@! TO.C,U6*
X136000000Y-70440000D02*
X135200000Y-70440000D01*
X136000000Y-70440000D02*
X136800000Y-70440000D01*
X136000000Y-73560000D02*
X135200000Y-73560000D01*
X136000000Y-73560000D02*
X136800000Y-73560000D01*
X134700000Y-70490000D02*
X134460000Y-70160000D01*
X134940000Y-70160000D01*
X134700000Y-70490000D01*
G36*
X134700000Y-70490000D02*
G01*
X134460000Y-70160000D01*
X134940000Y-70160000D01*
X134700000Y-70490000D01*
G37*
G04 #@! TO.C,R14*
X138487258Y-96977500D02*
X138012742Y-96977500D01*
X138487258Y-98022500D02*
X138012742Y-98022500D01*
D15*
G04 #@! TO.C,J4*
X106205333Y-59492000D02*
X106208333Y-52125000D01*
X106208333Y-52125000D02*
X122458333Y-52125000D01*
X106208333Y-67875000D02*
X106205333Y-63048000D01*
X111333333Y-53250000D02*
X111333333Y-52250000D01*
X117583333Y-52250000D02*
X117583333Y-53250000D01*
X117583333Y-53250000D02*
X111333333Y-53250000D01*
X122458333Y-52125000D02*
X122461333Y-59746000D01*
X122458333Y-67875000D02*
X106208333Y-67875000D01*
X122458333Y-67875000D02*
X122461333Y-63048000D01*
D14*
G04 #@! TO.C,D9*
X116110000Y-94650000D02*
X113450000Y-94650000D01*
X116110000Y-96350000D02*
X113450000Y-96350000D01*
X116110000Y-96350000D02*
X116110000Y-94650000D01*
G04 #@! TO.C,Q11*
X87840000Y-91770000D02*
X88500000Y-91770000D01*
X87840000Y-93180000D02*
X87840000Y-91770000D01*
X89500000Y-91770000D02*
X90160000Y-91770000D01*
X90160000Y-93180000D02*
X90160000Y-91770000D01*
X87860000Y-93550000D02*
X87530000Y-93790000D01*
X87530000Y-93310000D01*
X87860000Y-93550000D01*
G36*
X87860000Y-93550000D02*
G01*
X87530000Y-93790000D01*
X87530000Y-93310000D01*
X87860000Y-93550000D01*
G37*
G04 #@! TO.C,R29*
X87727500Y-95762742D02*
X87727500Y-96237258D01*
X88772500Y-95762742D02*
X88772500Y-96237258D01*
G04 #@! TO.C,Q9*
X109590000Y-91770000D02*
X110250000Y-91770000D01*
X109590000Y-93180000D02*
X109590000Y-91770000D01*
X111250000Y-91770000D02*
X111910000Y-91770000D01*
X111910000Y-93180000D02*
X111910000Y-91770000D01*
X109610000Y-93550000D02*
X109280000Y-93790000D01*
X109280000Y-93310000D01*
X109610000Y-93550000D01*
G36*
X109610000Y-93550000D02*
G01*
X109280000Y-93790000D01*
X109280000Y-93310000D01*
X109610000Y-93550000D01*
G37*
D15*
G04 #@! TO.C,J3*
X127538666Y-59492000D02*
X127541666Y-52125000D01*
X127541666Y-52125000D02*
X143791666Y-52125000D01*
X127541666Y-67875000D02*
X127538666Y-63048000D01*
X132666666Y-53250000D02*
X132666666Y-52250000D01*
X138916666Y-52250000D02*
X138916666Y-53250000D01*
X138916666Y-53250000D02*
X132666666Y-53250000D01*
X143791666Y-52125000D02*
X143794666Y-59746000D01*
X143791666Y-67875000D02*
X127541666Y-67875000D01*
X143791666Y-67875000D02*
X143794666Y-63048000D01*
D14*
G04 #@! TO.C,Q3*
X116640000Y-139000000D02*
X116640000Y-138350000D01*
X116640000Y-139000000D02*
X116640000Y-139650000D01*
X119760000Y-139000000D02*
X119760000Y-138350000D01*
X119760000Y-139000000D02*
X119760000Y-139650000D01*
X116690000Y-140162500D02*
X116360000Y-140402500D01*
X116360000Y-139922500D01*
X116690000Y-140162500D01*
G36*
X116690000Y-140162500D02*
G01*
X116360000Y-140402500D01*
X116360000Y-139922500D01*
X116690000Y-140162500D01*
G37*
G04 #@! TO.C,C10*
X98740000Y-83609420D02*
X98740000Y-83890580D01*
X99760000Y-83609420D02*
X99760000Y-83890580D01*
G04 #@! TO.C,R6*
X157237258Y-96727500D02*
X156762742Y-96727500D01*
X157237258Y-97772500D02*
X156762742Y-97772500D01*
G04 #@! TO.C,R3*
X118237258Y-141227500D02*
X117762742Y-141227500D01*
X118237258Y-142272500D02*
X117762742Y-142272500D01*
G04 #@! TO.C,R16*
X141467500Y-71987258D02*
X141467500Y-71512742D01*
X142512500Y-71987258D02*
X142512500Y-71512742D01*
G04 #@! TO.C,R19*
X129477500Y-71987258D02*
X129477500Y-71512742D01*
X130522500Y-71987258D02*
X130522500Y-71512742D01*
G04 #@! TO.C,Q7*
X133340000Y-91770000D02*
X134000000Y-91770000D01*
X133340000Y-93180000D02*
X133340000Y-91770000D01*
X135000000Y-91770000D02*
X135660000Y-91770000D01*
X135660000Y-93180000D02*
X135660000Y-91770000D01*
X133360000Y-93550000D02*
X133030000Y-93790000D01*
X133030000Y-93310000D01*
X133360000Y-93550000D01*
G36*
X133360000Y-93550000D02*
G01*
X133030000Y-93790000D01*
X133030000Y-93310000D01*
X133360000Y-93550000D01*
G37*
G04 #@! TO.C,R20*
X127977500Y-71512742D02*
X127977500Y-71987258D01*
X129022500Y-71512742D02*
X129022500Y-71987258D01*
G04 #@! TO.C,C6*
X139990000Y-83359420D02*
X139990000Y-83640580D01*
X141010000Y-83359420D02*
X141010000Y-83640580D01*
G04 #@! TO.C,D6*
X139860000Y-94650000D02*
X137200000Y-94650000D01*
X139860000Y-96350000D02*
X137200000Y-96350000D01*
X139860000Y-96350000D02*
X139860000Y-94650000D01*
G04 #@! TO.C,D10*
X112540000Y-87750000D02*
X112540000Y-89750000D01*
X112540000Y-87750000D02*
X116400000Y-87750000D01*
X112540000Y-89750000D02*
X116400000Y-89750000D01*
G04 #@! TO.C,R36*
X85477500Y-71512742D02*
X85477500Y-71987258D01*
X86522500Y-71512742D02*
X86522500Y-71987258D01*
G04 #@! TO.C,U11*
X96190000Y-78000000D02*
X96190000Y-76050000D01*
X96190000Y-78000000D02*
X96190000Y-79950000D01*
X101310000Y-78000000D02*
X101310000Y-76050000D01*
X101310000Y-78000000D02*
X101310000Y-79950000D01*
X96285000Y-80700000D02*
X95955000Y-80940000D01*
X95955000Y-80460000D01*
X96285000Y-80700000D01*
G36*
X96285000Y-80700000D02*
G01*
X95955000Y-80940000D01*
X95955000Y-80460000D01*
X96285000Y-80700000D01*
G37*
G04 #@! TO.C,D7*
X135790000Y-87750000D02*
X135790000Y-89750000D01*
X135790000Y-87750000D02*
X139650000Y-87750000D01*
X135790000Y-89750000D02*
X139650000Y-89750000D01*
G04 #@! TO.C,R34*
X88977500Y-71987258D02*
X88977500Y-71512742D01*
X90022500Y-71987258D02*
X90022500Y-71512742D01*
G04 #@! TO.C,R27*
X108977500Y-71987258D02*
X108977500Y-71512742D01*
X110022500Y-71987258D02*
X110022500Y-71512742D01*
G04 #@! TO.C,R12*
X149115000Y-71512742D02*
X149115000Y-71987258D01*
X150160000Y-71512742D02*
X150160000Y-71987258D01*
G04 #@! TO.C,R2*
X121977500Y-144512742D02*
X121977500Y-144987258D01*
X123022500Y-144512742D02*
X123022500Y-144987258D01*
G04 #@! TO.C,R22*
X114737258Y-97227500D02*
X114262742Y-97227500D01*
X114737258Y-98272500D02*
X114262742Y-98272500D01*
G04 #@! TO.C,U10*
X85690000Y-78000000D02*
X85690000Y-76050000D01*
X85690000Y-78000000D02*
X85690000Y-79950000D01*
X90810000Y-78000000D02*
X90810000Y-76050000D01*
X90810000Y-78000000D02*
X90810000Y-79950000D01*
X85785000Y-80700000D02*
X85455000Y-80940000D01*
X85455000Y-80460000D01*
X85785000Y-80700000D01*
G36*
X85785000Y-80700000D02*
G01*
X85455000Y-80940000D01*
X85455000Y-80460000D01*
X85785000Y-80700000D01*
G37*
G04 #@! TO.C,Q2*
X121840000Y-138770000D02*
X122500000Y-138770000D01*
X121840000Y-140180000D02*
X121840000Y-138770000D01*
X123500000Y-138770000D02*
X124160000Y-138770000D01*
X124160000Y-140180000D02*
X124160000Y-138770000D01*
X121860000Y-140550000D02*
X121530000Y-140790000D01*
X121530000Y-140310000D01*
X121860000Y-140550000D01*
G36*
X121860000Y-140550000D02*
G01*
X121530000Y-140790000D01*
X121530000Y-140310000D01*
X121860000Y-140550000D01*
G37*
G04 #@! TO.C,C9*
X88490000Y-83609420D02*
X88490000Y-83890580D01*
X89510000Y-83609420D02*
X89510000Y-83890580D01*
G04 #@! TO.C,R30*
X92737258Y-96977500D02*
X92262742Y-96977500D01*
X92737258Y-98022500D02*
X92262742Y-98022500D01*
G04 #@! TO.C,R24*
X120227500Y-71987258D02*
X120227500Y-71512742D01*
X121272500Y-71987258D02*
X121272500Y-71512742D01*
G04 #@! TO.C,F4*
X87852064Y-87840000D02*
X86647936Y-87840000D01*
X87852064Y-89660000D02*
X86647936Y-89660000D01*
G04 #@! TO.C,F1*
X151602064Y-87840000D02*
X150397936Y-87840000D01*
X151602064Y-89660000D02*
X150397936Y-89660000D01*
G04 #@! TO.C,FB1*
X150877500Y-83662779D02*
X150877500Y-83337221D01*
X151897500Y-83662779D02*
X151897500Y-83337221D01*
G04 #@! TO.C,R32*
X98977500Y-71987258D02*
X98977500Y-71512742D01*
X100022500Y-71987258D02*
X100022500Y-71512742D01*
G04 #@! TO.C,U4*
X128190000Y-78000000D02*
X128190000Y-76050000D01*
X128190000Y-78000000D02*
X128190000Y-79950000D01*
X133310000Y-78000000D02*
X133310000Y-76050000D01*
X133310000Y-78000000D02*
X133310000Y-79950000D01*
X128285000Y-80700000D02*
X127955000Y-80940000D01*
X127955000Y-80460000D01*
X128285000Y-80700000D01*
G36*
X128285000Y-80700000D02*
G01*
X127955000Y-80940000D01*
X127955000Y-80460000D01*
X128285000Y-80700000D01*
G37*
G04 #@! TO.C,C8*
X120240000Y-83359420D02*
X120240000Y-83640580D01*
X121260000Y-83359420D02*
X121260000Y-83640580D01*
G04 #@! TO.C,R25*
X118477500Y-71987258D02*
X118477500Y-71512742D01*
X119522500Y-71987258D02*
X119522500Y-71512742D01*
G04 #@! TO.C,U2*
X158940000Y-78000000D02*
X158940000Y-76050000D01*
X158940000Y-78000000D02*
X158940000Y-79950000D01*
X164060000Y-78000000D02*
X164060000Y-76050000D01*
X164060000Y-78000000D02*
X164060000Y-79950000D01*
X159035000Y-80700000D02*
X158705000Y-80940000D01*
X158705000Y-80460000D01*
X159035000Y-80700000D01*
G36*
X159035000Y-80700000D02*
G01*
X158705000Y-80940000D01*
X158705000Y-80460000D01*
X159035000Y-80700000D01*
G37*
G04 #@! TO.C,C4*
X160240000Y-83359420D02*
X160240000Y-83640580D01*
X161260000Y-83359420D02*
X161260000Y-83640580D01*
G04 #@! TO.C,R28*
X107227500Y-71512742D02*
X107227500Y-71987258D01*
X108272500Y-71512742D02*
X108272500Y-71987258D01*
G04 #@! TO.C,FB3*
X106990000Y-83912779D02*
X106990000Y-83587221D01*
X108010000Y-83912779D02*
X108010000Y-83587221D01*
G04 #@! TO.C,R33*
X97227500Y-71987258D02*
X97227500Y-71512742D01*
X98272500Y-71987258D02*
X98272500Y-71512742D01*
G04 #@! TO.C,R1*
X114477500Y-144512742D02*
X114477500Y-144987258D01*
X115522500Y-144512742D02*
X115522500Y-144987258D01*
G04 #@! TO.C,R35*
X87227500Y-71987258D02*
X87227500Y-71512742D01*
X88272500Y-71987258D02*
X88272500Y-71512742D01*
G04 #@! TO.C,D2*
X120210000Y-132750000D02*
X116350000Y-132750000D01*
X120210000Y-134750000D02*
X116350000Y-134750000D01*
X120210000Y-134750000D02*
X120210000Y-132750000D01*
G04 #@! TO.C,U5*
X138440000Y-78000000D02*
X138440000Y-76050000D01*
X138440000Y-78000000D02*
X138440000Y-79950000D01*
X143560000Y-78000000D02*
X143560000Y-76050000D01*
X143560000Y-78000000D02*
X143560000Y-79950000D01*
X138535000Y-80700000D02*
X138205000Y-80940000D01*
X138205000Y-80460000D01*
X138535000Y-80700000D01*
G36*
X138535000Y-80700000D02*
G01*
X138205000Y-80940000D01*
X138205000Y-80460000D01*
X138535000Y-80700000D01*
G37*
G04 #@! TO.C,D12*
X94110000Y-94650000D02*
X91450000Y-94650000D01*
X94110000Y-96350000D02*
X91450000Y-96350000D01*
X94110000Y-96350000D02*
X94110000Y-94650000D01*
G04 #@! TO.C,R5*
X151977500Y-95762742D02*
X151977500Y-96237258D01*
X153022500Y-95762742D02*
X153022500Y-96237258D01*
G04 #@! TO.C,R8*
X162377500Y-71937258D02*
X162377500Y-71462742D01*
X163422500Y-71937258D02*
X163422500Y-71462742D01*
D15*
G04 #@! TO.C,J5*
X84872000Y-59492000D02*
X84875000Y-52125000D01*
X84875000Y-52125000D02*
X101125000Y-52125000D01*
X84875000Y-67875000D02*
X84872000Y-63048000D01*
X90000000Y-53250000D02*
X90000000Y-52250000D01*
X96250000Y-52250000D02*
X96250000Y-53250000D01*
X96250000Y-53250000D02*
X90000000Y-53250000D01*
X101125000Y-52125000D02*
X101128000Y-59746000D01*
X101125000Y-67875000D02*
X84875000Y-67875000D01*
X101125000Y-67875000D02*
X101128000Y-63048000D01*
D14*
G04 #@! TO.C,R4*
X126487258Y-141727500D02*
X126012742Y-141727500D01*
X126487258Y-142772500D02*
X126012742Y-142772500D01*
G04 #@! TO.C,C1*
X117761252Y-135265000D02*
X117238748Y-135265000D01*
X117761252Y-136735000D02*
X117238748Y-136735000D01*
G04 #@! TO.C,U3*
X157137500Y-69690000D02*
X156337500Y-69690000D01*
X157137500Y-69690000D02*
X157937500Y-69690000D01*
X157137500Y-72810000D02*
X156337500Y-72810000D01*
X157137500Y-72810000D02*
X157937500Y-72810000D01*
X155837500Y-69740000D02*
X155597500Y-69410000D01*
X156077500Y-69410000D01*
X155837500Y-69740000D01*
G36*
X155837500Y-69740000D02*
G01*
X155597500Y-69410000D01*
X156077500Y-69410000D01*
X155837500Y-69740000D01*
G37*
G04 #@! TO.C,U8*
X117690000Y-78000000D02*
X117690000Y-76050000D01*
X117690000Y-78000000D02*
X117690000Y-79950000D01*
X122810000Y-78000000D02*
X122810000Y-76050000D01*
X122810000Y-78000000D02*
X122810000Y-79950000D01*
X117785000Y-80700000D02*
X117455000Y-80940000D01*
X117455000Y-80460000D01*
X117785000Y-80700000D01*
G36*
X117785000Y-80700000D02*
G01*
X117455000Y-80940000D01*
X117455000Y-80460000D01*
X117785000Y-80700000D01*
G37*
G04 #@! TO.C,U9*
X115250000Y-70440000D02*
X114450000Y-70440000D01*
X115250000Y-70440000D02*
X116050000Y-70440000D01*
X115250000Y-73560000D02*
X114450000Y-73560000D01*
X115250000Y-73560000D02*
X116050000Y-73560000D01*
X113950000Y-70490000D02*
X113710000Y-70160000D01*
X114190000Y-70160000D01*
X113950000Y-70490000D01*
G36*
X113950000Y-70490000D02*
G01*
X113710000Y-70160000D01*
X114190000Y-70160000D01*
X113950000Y-70490000D01*
G37*
G04 #@! TO.C,U12*
X93500000Y-70440000D02*
X92700000Y-70440000D01*
X93500000Y-70440000D02*
X94300000Y-70440000D01*
X93500000Y-73560000D02*
X92700000Y-73560000D01*
X93500000Y-73560000D02*
X94300000Y-73560000D01*
X92200000Y-70490000D02*
X91960000Y-70160000D01*
X92440000Y-70160000D01*
X92200000Y-70490000D01*
G36*
X92200000Y-70490000D02*
G01*
X91960000Y-70160000D01*
X92440000Y-70160000D01*
X92200000Y-70490000D01*
G37*
G04 #@! TO.C,R9*
X160777500Y-71987258D02*
X160777500Y-71512742D01*
X161822500Y-71987258D02*
X161822500Y-71512742D01*
G04 #@! TD*
M02*
