G04 #@! TF.GenerationSoftware,KiCad,Pcbnew,8.0.4*
G04 #@! TF.CreationDate,2024-08-31T21:54:03+03:00*
G04 #@! TF.ProjectId,rioctrl-controller,72696f63-7472-46c2-9d63-6f6e74726f6c,rev?*
G04 #@! TF.SameCoordinates,Original*
G04 #@! TF.FileFunction,Paste,Top*
G04 #@! TF.FilePolarity,Positive*
%FSLAX46Y46*%
G04 Gerber Fmt 4.6, Leading zero omitted, Abs format (unit mm)*
G04 Created by KiCad (PCBNEW 8.0.4) date 2024-08-31 21:54:03*
%MOMM*%
%LPD*%
G01*
G04 APERTURE LIST*
G04 Aperture macros list*
%AMRoundRect*
0 Rectangle with rounded corners*
0 $1 Rounding radius*
0 $2 $3 $4 $5 $6 $7 $8 $9 X,Y pos of 4 corners*
0 Add a 4 corners polygon primitive as box body*
4,1,4,$2,$3,$4,$5,$6,$7,$8,$9,$2,$3,0*
0 Add four circle primitives for the rounded corners*
1,1,$1+$1,$2,$3*
1,1,$1+$1,$4,$5*
1,1,$1+$1,$6,$7*
1,1,$1+$1,$8,$9*
0 Add four rect primitives between the rounded corners*
20,1,$1+$1,$2,$3,$4,$5,0*
20,1,$1+$1,$4,$5,$6,$7,0*
20,1,$1+$1,$6,$7,$8,$9,0*
20,1,$1+$1,$8,$9,$2,$3,0*%
G04 Aperture macros list end*
%ADD10RoundRect,0.225000X0.225000X0.250000X-0.225000X0.250000X-0.225000X-0.250000X0.225000X-0.250000X0*%
%ADD11RoundRect,0.200000X0.200000X0.275000X-0.200000X0.275000X-0.200000X-0.275000X0.200000X-0.275000X0*%
%ADD12RoundRect,0.200000X-0.200000X-0.275000X0.200000X-0.275000X0.200000X0.275000X-0.200000X0.275000X0*%
%ADD13RoundRect,0.218750X0.218750X0.256250X-0.218750X0.256250X-0.218750X-0.256250X0.218750X-0.256250X0*%
%ADD14RoundRect,0.150000X-0.150000X-0.200000X0.150000X-0.200000X0.150000X0.200000X-0.150000X0.200000X0*%
%ADD15RoundRect,0.250000X0.300000X-0.300000X0.300000X0.300000X-0.300000X0.300000X-0.300000X-0.300000X0*%
%ADD16RoundRect,0.250000X0.250000X0.475000X-0.250000X0.475000X-0.250000X-0.475000X0.250000X-0.475000X0*%
%ADD17R,3.000000X1.000000*%
%ADD18RoundRect,0.243750X0.243750X0.456250X-0.243750X0.456250X-0.243750X-0.456250X0.243750X-0.456250X0*%
%ADD19RoundRect,0.250000X0.292217X-0.292217X0.292217X0.292217X-0.292217X0.292217X-0.292217X-0.292217X0*%
%ADD20RoundRect,0.050000X0.050000X-0.387500X0.050000X0.387500X-0.050000X0.387500X-0.050000X-0.387500X0*%
%ADD21RoundRect,0.050000X0.387500X-0.050000X0.387500X0.050000X-0.387500X0.050000X-0.387500X-0.050000X0*%
%ADD22RoundRect,0.150000X-0.150000X0.512500X-0.150000X-0.512500X0.150000X-0.512500X0.150000X0.512500X0*%
%ADD23RoundRect,0.150000X0.150000X-0.512500X0.150000X0.512500X-0.150000X0.512500X-0.150000X-0.512500X0*%
%ADD24RoundRect,0.200000X0.275000X-0.200000X0.275000X0.200000X-0.275000X0.200000X-0.275000X-0.200000X0*%
%ADD25RoundRect,0.200000X-0.275000X0.200000X-0.275000X-0.200000X0.275000X-0.200000X0.275000X0.200000X0*%
%ADD26RoundRect,0.225000X-0.225000X-0.250000X0.225000X-0.250000X0.225000X0.250000X-0.225000X0.250000X0*%
%ADD27RoundRect,0.243750X-0.243750X-0.456250X0.243750X-0.456250X0.243750X0.456250X-0.243750X0.456250X0*%
%ADD28RoundRect,0.218750X-0.218750X-0.256250X0.218750X-0.256250X0.218750X0.256250X-0.218750X0.256250X0*%
%ADD29RoundRect,0.225000X-0.250000X0.225000X-0.250000X-0.225000X0.250000X-0.225000X0.250000X0.225000X0*%
%ADD30RoundRect,0.150000X0.200000X-0.150000X0.200000X0.150000X-0.200000X0.150000X-0.200000X-0.150000X0*%
%ADD31RoundRect,0.250000X-0.300000X-0.300000X0.300000X-0.300000X0.300000X0.300000X-0.300000X0.300000X0*%
%ADD32RoundRect,0.225000X0.250000X-0.225000X0.250000X0.225000X-0.250000X0.225000X-0.250000X-0.225000X0*%
%ADD33RoundRect,0.150000X-0.200000X0.150000X-0.200000X-0.150000X0.200000X-0.150000X0.200000X0.150000X0*%
%ADD34RoundRect,0.218750X-0.256250X0.218750X-0.256250X-0.218750X0.256250X-0.218750X0.256250X0.218750X0*%
%ADD35RoundRect,0.240000X0.385000X-0.240000X0.385000X0.240000X-0.385000X0.240000X-0.385000X-0.240000X0*%
%ADD36RoundRect,0.150000X0.150000X-0.825000X0.150000X0.825000X-0.150000X0.825000X-0.150000X-0.825000X0*%
%ADD37R,1.350000X1.800000*%
%ADD38RoundRect,0.218750X0.256250X-0.218750X0.256250X0.218750X-0.256250X0.218750X-0.256250X-0.218750X0*%
%ADD39RoundRect,0.150000X0.150000X0.200000X-0.150000X0.200000X-0.150000X-0.200000X0.150000X-0.200000X0*%
%ADD40RoundRect,0.075000X-0.075000X0.662500X-0.075000X-0.662500X0.075000X-0.662500X0.075000X0.662500X0*%
%ADD41RoundRect,0.075000X-0.662500X0.075000X-0.662500X-0.075000X0.662500X-0.075000X0.662500X0.075000X0*%
%ADD42RoundRect,0.150000X0.512500X0.150000X-0.512500X0.150000X-0.512500X-0.150000X0.512500X-0.150000X0*%
%ADD43R,1.450000X0.600000*%
%ADD44R,1.450000X0.300000*%
%ADD45RoundRect,0.250000X-0.250000X-0.475000X0.250000X-0.475000X0.250000X0.475000X-0.250000X0.475000X0*%
%ADD46RoundRect,0.140000X0.170000X-0.140000X0.170000X0.140000X-0.170000X0.140000X-0.170000X-0.140000X0*%
%ADD47RoundRect,0.218750X-0.218750X-0.381250X0.218750X-0.381250X0.218750X0.381250X-0.218750X0.381250X0*%
%ADD48RoundRect,0.112500X0.112500X0.237500X-0.112500X0.237500X-0.112500X-0.237500X0.112500X-0.237500X0*%
%ADD49RoundRect,0.250000X-0.475000X0.250000X-0.475000X-0.250000X0.475000X-0.250000X0.475000X0.250000X0*%
%ADD50R,2.400000X3.500000*%
%ADD51RoundRect,0.150000X-0.512500X-0.150000X0.512500X-0.150000X0.512500X0.150000X-0.512500X0.150000X0*%
%ADD52RoundRect,0.150000X0.150000X-0.650000X0.150000X0.650000X-0.150000X0.650000X-0.150000X-0.650000X0*%
%ADD53RoundRect,0.112500X0.237500X-0.112500X0.237500X0.112500X-0.237500X0.112500X-0.237500X-0.112500X0*%
%ADD54R,1.000000X0.900000*%
%ADD55RoundRect,0.150000X-0.150000X0.650000X-0.150000X-0.650000X0.150000X-0.650000X0.150000X0.650000X0*%
%ADD56R,1.150000X1.000000*%
%ADD57C,0.320000*%
%ADD58RoundRect,0.112500X-0.112500X-0.237500X0.112500X-0.237500X0.112500X0.237500X-0.112500X0.237500X0*%
%ADD59R,1.000000X1.150000*%
G04 APERTURE END LIST*
D10*
G04 #@! TO.C,C41*
X79576295Y-58935000D03*
X78026295Y-58935000D03*
G04 #@! TD*
G04 #@! TO.C,C25*
X72425000Y-125950000D03*
X70875000Y-125950000D03*
G04 #@! TD*
D11*
G04 #@! TO.C,R22*
X61525000Y-129300000D03*
X59875000Y-129300000D03*
G04 #@! TD*
D12*
G04 #@! TO.C,R41*
X70505000Y-42750000D03*
X72155000Y-42750000D03*
G04 #@! TD*
D13*
G04 #@! TO.C,D11*
X96437500Y-104200000D03*
X94862500Y-104200000D03*
G04 #@! TD*
D12*
G04 #@! TO.C,R23*
X62925000Y-129300000D03*
X64575000Y-129300000D03*
G04 #@! TD*
D14*
G04 #@! TO.C,D6*
X83150000Y-133050000D03*
X81750000Y-133050000D03*
G04 #@! TD*
D15*
G04 #@! TO.C,D27*
X223200000Y-76800000D03*
X223200000Y-74000000D03*
G04 #@! TD*
D16*
G04 #@! TO.C,C11*
X81662500Y-85037500D03*
X79762500Y-85037500D03*
G04 #@! TD*
D17*
G04 #@! TO.C,J14*
X210480000Y-104240000D03*
X215520000Y-104240000D03*
X210480000Y-101700000D03*
X215520000Y-101700000D03*
X210480000Y-99160000D03*
X215520000Y-99160000D03*
X210480000Y-96620000D03*
X215520000Y-96620000D03*
X210480000Y-94080000D03*
X215520000Y-94080000D03*
X210480000Y-91540000D03*
X215520000Y-91540000D03*
X210480000Y-89000000D03*
X215520000Y-89000000D03*
X210480000Y-86460000D03*
X215520000Y-86460000D03*
X210480000Y-83920000D03*
X215520000Y-83920000D03*
X210480000Y-81380000D03*
X215520000Y-81380000D03*
X210480000Y-78840000D03*
X215520000Y-78840000D03*
X210480000Y-76300000D03*
X215520000Y-76300000D03*
X210480000Y-73760000D03*
X215520000Y-73760000D03*
G04 #@! TD*
D18*
G04 #@! TO.C,F4*
X145587500Y-83900000D03*
X143712500Y-83900000D03*
G04 #@! TD*
D19*
G04 #@! TO.C,U7*
X78462500Y-125075000D03*
X79737500Y-125075000D03*
X78462500Y-123800000D03*
X79737500Y-123800000D03*
D20*
X76500000Y-127875000D03*
X76900000Y-127875000D03*
X77300000Y-127875000D03*
X77700000Y-127875000D03*
X78100000Y-127875000D03*
X78500000Y-127875000D03*
X78900000Y-127875000D03*
X79300000Y-127875000D03*
X79700000Y-127875000D03*
X80100000Y-127875000D03*
X80500000Y-127875000D03*
X80900000Y-127875000D03*
X81300000Y-127875000D03*
X81700000Y-127875000D03*
D21*
X82537500Y-127037500D03*
X82537500Y-126637500D03*
X82537500Y-126237500D03*
X82537500Y-125837500D03*
X82537500Y-125437500D03*
X82537500Y-125037500D03*
X82537500Y-124637500D03*
X82537500Y-124237500D03*
X82537500Y-123837500D03*
X82537500Y-123437500D03*
X82537500Y-123037500D03*
X82537500Y-122637500D03*
X82537500Y-122237500D03*
X82537500Y-121837500D03*
D20*
X81700000Y-121000000D03*
X81300000Y-121000000D03*
X80900000Y-121000000D03*
X80500000Y-121000000D03*
X80100000Y-121000000D03*
X79700000Y-121000000D03*
X79300000Y-121000000D03*
X78900000Y-121000000D03*
X78500000Y-121000000D03*
X78100000Y-121000000D03*
X77700000Y-121000000D03*
X77300000Y-121000000D03*
X76900000Y-121000000D03*
X76500000Y-121000000D03*
D21*
X75662500Y-121837500D03*
X75662500Y-122237500D03*
X75662500Y-122637500D03*
X75662500Y-123037500D03*
X75662500Y-123437500D03*
X75662500Y-123837500D03*
X75662500Y-124237500D03*
X75662500Y-124637500D03*
X75662500Y-125037500D03*
X75662500Y-125437500D03*
X75662500Y-125837500D03*
X75662500Y-126237500D03*
X75662500Y-126637500D03*
X75662500Y-127037500D03*
G04 #@! TD*
D22*
G04 #@! TO.C,U6*
X70950000Y-119412500D03*
X70000000Y-119412500D03*
X69050000Y-119412500D03*
X69050000Y-121687500D03*
X70000000Y-121687500D03*
X70950000Y-121687500D03*
G04 #@! TD*
D11*
G04 #@! TO.C,R61*
X220625000Y-76400000D03*
X218975000Y-76400000D03*
G04 #@! TD*
D23*
G04 #@! TO.C,U27*
X118750000Y-101587500D03*
X119700000Y-101587500D03*
X120650000Y-101587500D03*
X120650000Y-99312500D03*
X119700000Y-99312500D03*
X118750000Y-99312500D03*
G04 #@! TD*
G04 #@! TO.C,U21*
X193850000Y-101637500D03*
X194800000Y-101637500D03*
X195750000Y-101637500D03*
X195750000Y-99362500D03*
X194800000Y-99362500D03*
X193850000Y-99362500D03*
G04 #@! TD*
D17*
G04 #@! TO.C,J11*
X135480000Y-104240000D03*
X140520000Y-104240000D03*
X135480000Y-101700000D03*
X140520000Y-101700000D03*
X135480000Y-99160000D03*
X140520000Y-99160000D03*
X135480000Y-96620000D03*
X140520000Y-96620000D03*
X135480000Y-94080000D03*
X140520000Y-94080000D03*
X135480000Y-91540000D03*
X140520000Y-91540000D03*
X135480000Y-89000000D03*
X140520000Y-89000000D03*
X135480000Y-86460000D03*
X140520000Y-86460000D03*
X135480000Y-83920000D03*
X140520000Y-83920000D03*
X135480000Y-81380000D03*
X140520000Y-81380000D03*
X135480000Y-78840000D03*
X140520000Y-78840000D03*
X135480000Y-76300000D03*
X140520000Y-76300000D03*
X135480000Y-73760000D03*
X140520000Y-73760000D03*
G04 #@! TD*
D18*
G04 #@! TO.C,F13*
X220937500Y-84000000D03*
X219062500Y-84000000D03*
G04 #@! TD*
D24*
G04 #@! TO.C,R46*
X99450000Y-102725000D03*
X99450000Y-101075000D03*
G04 #@! TD*
D25*
G04 #@! TO.C,R42*
X79051295Y-67650000D03*
X79051295Y-69300000D03*
G04 #@! TD*
D18*
G04 #@! TO.C,F14*
X220937500Y-78800000D03*
X219062500Y-78800000D03*
G04 #@! TD*
D24*
G04 #@! TO.C,R3*
X61250000Y-102825000D03*
X61250000Y-101175000D03*
G04 #@! TD*
D26*
G04 #@! TO.C,C23*
X87000000Y-122525000D03*
X88550000Y-122525000D03*
G04 #@! TD*
D27*
G04 #@! TO.C,F9*
X168712500Y-81400000D03*
X170587500Y-81400000D03*
G04 #@! TD*
D23*
G04 #@! TO.C,U26*
X219050000Y-91337500D03*
X220000000Y-91337500D03*
X220950000Y-91337500D03*
X220950000Y-89062500D03*
X220000000Y-89062500D03*
X219050000Y-89062500D03*
G04 #@! TD*
D11*
G04 #@! TO.C,R10*
X77787500Y-85037500D03*
X76137500Y-85037500D03*
G04 #@! TD*
D23*
G04 #@! TO.C,U28*
X243650000Y-96537500D03*
X244600000Y-96537500D03*
X245550000Y-96537500D03*
X245550000Y-94262500D03*
X244600000Y-94262500D03*
X243650000Y-94262500D03*
G04 #@! TD*
D11*
G04 #@! TO.C,R14*
X68325000Y-105750000D03*
X66675000Y-105750000D03*
G04 #@! TD*
D24*
G04 #@! TO.C,R27*
X74550000Y-101775000D03*
X74550000Y-100125000D03*
G04 #@! TD*
D13*
G04 #@! TO.C,FB17*
X198987500Y-85000000D03*
X197412500Y-85000000D03*
G04 #@! TD*
D28*
G04 #@! TO.C,FB6*
X72662500Y-117100000D03*
X74237500Y-117100000D03*
G04 #@! TD*
D29*
G04 #@! TO.C,C36*
X83051295Y-64910000D03*
X83051295Y-66460000D03*
G04 #@! TD*
D28*
G04 #@! TO.C,FB24*
X227212500Y-78600000D03*
X228787500Y-78600000D03*
G04 #@! TD*
D17*
G04 #@! TO.C,J12*
X160480000Y-104240000D03*
X165520000Y-104240000D03*
X160480000Y-101700000D03*
X165520000Y-101700000D03*
X160480000Y-99160000D03*
X165520000Y-99160000D03*
X160480000Y-96620000D03*
X165520000Y-96620000D03*
X160480000Y-94080000D03*
X165520000Y-94080000D03*
X160480000Y-91540000D03*
X165520000Y-91540000D03*
X160480000Y-89000000D03*
X165520000Y-89000000D03*
X160480000Y-86460000D03*
X165520000Y-86460000D03*
X160480000Y-83920000D03*
X165520000Y-83920000D03*
X160480000Y-81380000D03*
X165520000Y-81380000D03*
X160480000Y-78840000D03*
X165520000Y-78840000D03*
X160480000Y-76300000D03*
X165520000Y-76300000D03*
X160480000Y-73760000D03*
X165520000Y-73760000D03*
G04 #@! TD*
D30*
G04 #@! TO.C,D8*
X76100000Y-100350000D03*
X76100000Y-101750000D03*
G04 #@! TD*
D24*
G04 #@! TO.C,R18*
X79700000Y-110225000D03*
X79700000Y-108575000D03*
G04 #@! TD*
D31*
G04 #@! TO.C,D13*
X122250000Y-76900000D03*
X125050000Y-76900000D03*
G04 #@! TD*
D32*
G04 #@! TO.C,C29*
X75950000Y-118075000D03*
X75950000Y-116525000D03*
G04 #@! TD*
D14*
G04 #@! TO.C,D7*
X87200000Y-133100000D03*
X85800000Y-133100000D03*
G04 #@! TD*
D11*
G04 #@! TO.C,R58*
X145275000Y-76300000D03*
X143625000Y-76300000D03*
G04 #@! TD*
D23*
G04 #@! TO.C,U15*
X143737500Y-101687500D03*
X144687500Y-101687500D03*
X145637500Y-101687500D03*
X145637500Y-99412500D03*
X144687500Y-99412500D03*
X143737500Y-99412500D03*
G04 #@! TD*
D33*
G04 #@! TO.C,D16*
X90250000Y-51950000D03*
X90250000Y-50550000D03*
G04 #@! TD*
D14*
G04 #@! TO.C,D32*
X228900000Y-80200000D03*
X227500000Y-80200000D03*
G04 #@! TD*
D15*
G04 #@! TO.C,D9*
X69000000Y-128150000D03*
X69000000Y-125350000D03*
G04 #@! TD*
D23*
G04 #@! TO.C,U12*
X118750000Y-96487500D03*
X119700000Y-96487500D03*
X120650000Y-96487500D03*
X120650000Y-94212500D03*
X119700000Y-94212500D03*
X118750000Y-94212500D03*
G04 #@! TD*
D12*
G04 #@! TO.C,R40*
X70505000Y-44250000D03*
X72155000Y-44250000D03*
G04 #@! TD*
D14*
G04 #@! TO.C,D19*
X148650000Y-83450000D03*
X147250000Y-83450000D03*
G04 #@! TD*
D11*
G04 #@! TO.C,R59*
X170275000Y-76300000D03*
X168625000Y-76300000D03*
G04 #@! TD*
D25*
G04 #@! TO.C,R4*
X62620000Y-83850000D03*
X62620000Y-85500000D03*
G04 #@! TD*
D32*
G04 #@! TO.C,C42*
X103250000Y-56675000D03*
X103250000Y-55125000D03*
G04 #@! TD*
G04 #@! TO.C,C32*
X80000000Y-117975000D03*
X80000000Y-116425000D03*
G04 #@! TD*
D15*
G04 #@! TO.C,D30*
X228800000Y-76800000D03*
X228800000Y-74000000D03*
G04 #@! TD*
D11*
G04 #@! TO.C,R32*
X93376295Y-60435000D03*
X91726295Y-60435000D03*
G04 #@! TD*
D34*
G04 #@! TO.C,D3*
X79700000Y-111672500D03*
X79700000Y-113247500D03*
G04 #@! TD*
D35*
G04 #@! TO.C,U2*
X62345000Y-90595000D03*
X63845000Y-90595000D03*
X62345000Y-89455000D03*
X63845000Y-89455000D03*
D36*
X61190000Y-92500000D03*
X62460000Y-92500000D03*
X63730000Y-92500000D03*
X65000000Y-92500000D03*
X65000000Y-87550000D03*
X63730000Y-87550000D03*
X62460000Y-87550000D03*
X61190000Y-87550000D03*
G04 #@! TD*
D26*
G04 #@! TO.C,C4*
X63120000Y-95925000D03*
X64670000Y-95925000D03*
G04 #@! TD*
D16*
G04 #@! TO.C,C15*
X74095000Y-88925000D03*
X72195000Y-88925000D03*
G04 #@! TD*
D27*
G04 #@! TO.C,F15*
X219062500Y-81400000D03*
X220937500Y-81400000D03*
G04 #@! TD*
D18*
G04 #@! TO.C,F1*
X120537500Y-83900000D03*
X118662500Y-83900000D03*
G04 #@! TD*
D23*
G04 #@! TO.C,U17*
X143750000Y-91437500D03*
X144700000Y-91437500D03*
X145650000Y-91437500D03*
X145650000Y-89162500D03*
X144700000Y-89162500D03*
X143750000Y-89162500D03*
G04 #@! TD*
G04 #@! TO.C,U11*
X243650000Y-101537500D03*
X244600000Y-101537500D03*
X245550000Y-101537500D03*
X245550000Y-99262500D03*
X244600000Y-99262500D03*
X243650000Y-99262500D03*
G04 #@! TD*
D37*
G04 #@! TO.C,SW1*
X78850000Y-135750000D03*
X74700000Y-135750000D03*
G04 #@! TD*
D27*
G04 #@! TO.C,F6*
X143712500Y-81400000D03*
X145587500Y-81400000D03*
G04 #@! TD*
D10*
G04 #@! TO.C,C33*
X87851295Y-69685000D03*
X86301295Y-69685000D03*
G04 #@! TD*
D29*
G04 #@! TO.C,C31*
X76200000Y-130775000D03*
X76200000Y-132325000D03*
G04 #@! TD*
D25*
G04 #@! TO.C,R6*
X62750000Y-101175000D03*
X62750000Y-102825000D03*
G04 #@! TD*
D24*
G04 #@! TO.C,R5*
X64120000Y-85500000D03*
X64120000Y-83850000D03*
G04 #@! TD*
D25*
G04 #@! TO.C,R52*
X59500000Y-94175000D03*
X59500000Y-95825000D03*
G04 #@! TD*
D11*
G04 #@! TO.C,R51*
X96525000Y-105800000D03*
X94875000Y-105800000D03*
G04 #@! TD*
D24*
G04 #@! TO.C,R28*
X81330000Y-110227500D03*
X81330000Y-108577500D03*
G04 #@! TD*
D34*
G04 #@! TO.C,FB3*
X76000000Y-111212500D03*
X76000000Y-112787500D03*
G04 #@! TD*
D31*
G04 #@! TO.C,D24*
X197400000Y-76600000D03*
X200200000Y-76600000D03*
G04 #@! TD*
D11*
G04 #@! TO.C,R36*
X75150000Y-46000000D03*
X73500000Y-46000000D03*
G04 #@! TD*
D10*
G04 #@! TO.C,C10*
X77737500Y-86537500D03*
X76187500Y-86537500D03*
G04 #@! TD*
G04 #@! TO.C,C28*
X74225000Y-120100000D03*
X72675000Y-120100000D03*
G04 #@! TD*
D11*
G04 #@! TO.C,R60*
X195625000Y-76200000D03*
X193975000Y-76200000D03*
G04 #@! TD*
D38*
G04 #@! TO.C,D17*
X79000000Y-41787500D03*
X79000000Y-40212500D03*
G04 #@! TD*
D29*
G04 #@! TO.C,C21*
X66950000Y-130500000D03*
X66950000Y-132050000D03*
G04 #@! TD*
D34*
G04 #@! TO.C,FB5*
X83212500Y-81500000D03*
X83212500Y-83075000D03*
G04 #@! TD*
D25*
G04 #@! TO.C,R16*
X74700000Y-131700000D03*
X74700000Y-133350000D03*
G04 #@! TD*
D39*
G04 #@! TO.C,D26*
X197300000Y-80200000D03*
X198700000Y-80200000D03*
G04 #@! TD*
D40*
G04 #@! TO.C,U8*
X88301295Y-53837500D03*
X87801295Y-53837500D03*
X87301295Y-53837500D03*
X86801295Y-53837500D03*
X86301295Y-53837500D03*
X85801295Y-53837500D03*
X85301295Y-53837500D03*
X84801295Y-53837500D03*
X84301295Y-53837500D03*
X83801295Y-53837500D03*
X83301295Y-53837500D03*
X82801295Y-53837500D03*
D41*
X81388795Y-55250000D03*
X81388795Y-55750000D03*
X81388795Y-56250000D03*
X81388795Y-56750000D03*
X81388795Y-57250000D03*
X81388795Y-57750000D03*
X81388795Y-58250000D03*
X81388795Y-58750000D03*
X81388795Y-59250000D03*
X81388795Y-59750000D03*
X81388795Y-60250000D03*
X81388795Y-60750000D03*
D40*
X82801295Y-62162500D03*
X83301295Y-62162500D03*
X83801295Y-62162500D03*
X84301295Y-62162500D03*
X84801295Y-62162500D03*
X85301295Y-62162500D03*
X85801295Y-62162500D03*
X86301295Y-62162500D03*
X86801295Y-62162500D03*
X87301295Y-62162500D03*
X87801295Y-62162500D03*
X88301295Y-62162500D03*
D41*
X89713795Y-60750000D03*
X89713795Y-60250000D03*
X89713795Y-59750000D03*
X89713795Y-59250000D03*
X89713795Y-58750000D03*
X89713795Y-58250000D03*
X89713795Y-57750000D03*
X89713795Y-57250000D03*
X89713795Y-56750000D03*
X89713795Y-56250000D03*
X89713795Y-55750000D03*
X89713795Y-55250000D03*
G04 #@! TD*
D29*
G04 #@! TO.C,C55*
X93100000Y-108825000D03*
X93100000Y-110375000D03*
G04 #@! TD*
D11*
G04 #@! TO.C,R30*
X93376295Y-57435000D03*
X91726295Y-57435000D03*
G04 #@! TD*
D23*
G04 #@! TO.C,U13*
X118750000Y-91337500D03*
X119700000Y-91337500D03*
X120650000Y-91337500D03*
X120650000Y-89062500D03*
X119700000Y-89062500D03*
X118750000Y-89062500D03*
G04 #@! TD*
D10*
G04 #@! TO.C,C40*
X79576295Y-55935000D03*
X78026295Y-55935000D03*
G04 #@! TD*
D12*
G04 #@! TO.C,R62*
X230775000Y-76200000D03*
X232425000Y-76200000D03*
G04 #@! TD*
D13*
G04 #@! TO.C,FB20*
X224387500Y-85000000D03*
X222812500Y-85000000D03*
G04 #@! TD*
D34*
G04 #@! TO.C,D2*
X59000000Y-69212500D03*
X59000000Y-70787500D03*
G04 #@! TD*
D18*
G04 #@! TO.C,F11*
X195737500Y-78800000D03*
X193862500Y-78800000D03*
G04 #@! TD*
D23*
G04 #@! TO.C,U25*
X219050000Y-96337500D03*
X220000000Y-96337500D03*
X220950000Y-96337500D03*
X220950000Y-94062500D03*
X220000000Y-94062500D03*
X219050000Y-94062500D03*
G04 #@! TD*
D25*
G04 #@! TO.C,R50*
X59500000Y-84000000D03*
X59500000Y-85650000D03*
G04 #@! TD*
D24*
G04 #@! TO.C,R17*
X67000000Y-137225000D03*
X67000000Y-135575000D03*
G04 #@! TD*
D13*
G04 #@! TO.C,FB15*
X174037500Y-78650000D03*
X172462500Y-78650000D03*
G04 #@! TD*
D31*
G04 #@! TO.C,D21*
X172550000Y-76700000D03*
X175350000Y-76700000D03*
G04 #@! TD*
D11*
G04 #@! TO.C,R29*
X93376295Y-55935000D03*
X91726295Y-55935000D03*
G04 #@! TD*
D42*
G04 #@! TO.C,U1*
X77850000Y-83237500D03*
X77850000Y-82287500D03*
X77850000Y-81337500D03*
X75575000Y-81337500D03*
X75575000Y-83237500D03*
G04 #@! TD*
D18*
G04 #@! TO.C,F5*
X145587500Y-78850000D03*
X143712500Y-78850000D03*
G04 #@! TD*
D16*
G04 #@! TO.C,C17*
X74095000Y-86925000D03*
X72195000Y-86925000D03*
G04 #@! TD*
D32*
G04 #@! TO.C,C20*
X82137500Y-76975000D03*
X82137500Y-75425000D03*
G04 #@! TD*
D11*
G04 #@! TO.C,R35*
X75150000Y-44250000D03*
X73500000Y-44250000D03*
G04 #@! TD*
D32*
G04 #@! TO.C,C46*
X79051295Y-66275000D03*
X79051295Y-64725000D03*
G04 #@! TD*
D11*
G04 #@! TO.C,R53*
X120325000Y-76300000D03*
X118675000Y-76300000D03*
G04 #@! TD*
G04 #@! TO.C,R31*
X93376295Y-58935000D03*
X91726295Y-58935000D03*
G04 #@! TD*
D43*
G04 #@! TO.C,J3*
X64545000Y-119500000D03*
X64545000Y-120300000D03*
D44*
X64545000Y-121500000D03*
X64545000Y-122500000D03*
X64545000Y-123000000D03*
X64545000Y-124000000D03*
D43*
X64545000Y-125200000D03*
X64545000Y-126000000D03*
X64545000Y-126000000D03*
X64545000Y-125200000D03*
D44*
X64545000Y-124500000D03*
X64545000Y-123500000D03*
X64545000Y-122000000D03*
X64545000Y-121000000D03*
D43*
X64545000Y-120300000D03*
X64545000Y-119500000D03*
G04 #@! TD*
D25*
G04 #@! TO.C,R21*
X67000000Y-124725000D03*
X67000000Y-126375000D03*
G04 #@! TD*
D12*
G04 #@! TO.C,R39*
X70505000Y-46000000D03*
X72155000Y-46000000D03*
G04 #@! TD*
D45*
G04 #@! TO.C,C3*
X62800000Y-115250000D03*
X64700000Y-115250000D03*
G04 #@! TD*
D11*
G04 #@! TO.C,R49*
X95275000Y-123600000D03*
X93625000Y-123600000D03*
G04 #@! TD*
D46*
G04 #@! TO.C,C54*
X95800000Y-73930000D03*
X95800000Y-72970000D03*
G04 #@! TD*
D13*
G04 #@! TO.C,FB9*
X123737500Y-78900000D03*
X122162500Y-78900000D03*
G04 #@! TD*
D47*
G04 #@! TO.C,L1*
X79650000Y-81537500D03*
X81775000Y-81537500D03*
G04 #@! TD*
D32*
G04 #@! TO.C,C6*
X67120000Y-85450000D03*
X67120000Y-83900000D03*
G04 #@! TD*
D27*
G04 #@! TO.C,F3*
X118662500Y-81400000D03*
X120537500Y-81400000D03*
G04 #@! TD*
D25*
G04 #@! TO.C,R37*
X80801295Y-68925000D03*
X80801295Y-70575000D03*
G04 #@! TD*
D34*
G04 #@! TO.C,FB4*
X83637500Y-75412500D03*
X83637500Y-76987500D03*
G04 #@! TD*
D25*
G04 #@! TO.C,R44*
X102450000Y-101100000D03*
X102450000Y-102750000D03*
G04 #@! TD*
D38*
G04 #@! TO.C,D10*
X59500000Y-88787500D03*
X59500000Y-87212500D03*
G04 #@! TD*
D10*
G04 #@! TO.C,C27*
X74225000Y-118600000D03*
X72675000Y-118600000D03*
G04 #@! TD*
G04 #@! TO.C,C30*
X72600000Y-124450000D03*
X71050000Y-124450000D03*
G04 #@! TD*
D18*
G04 #@! TO.C,F18*
X232337500Y-81400000D03*
X230462500Y-81400000D03*
G04 #@! TD*
D10*
G04 #@! TO.C,C45*
X77601295Y-70725000D03*
X76051295Y-70725000D03*
G04 #@! TD*
D18*
G04 #@! TO.C,F2*
X120537500Y-78850000D03*
X118662500Y-78850000D03*
G04 #@! TD*
D12*
G04 #@! TO.C,R54*
X103375000Y-59150000D03*
X105025000Y-59150000D03*
G04 #@! TD*
D29*
G04 #@! TO.C,C35*
X84551295Y-64910000D03*
X84551295Y-66460000D03*
G04 #@! TD*
D24*
G04 #@! TO.C,R9*
X65750000Y-102825000D03*
X65750000Y-101175000D03*
G04 #@! TD*
D32*
G04 #@! TO.C,C7*
X67250000Y-102775000D03*
X67250000Y-101225000D03*
G04 #@! TD*
D17*
G04 #@! TO.C,J13*
X185480000Y-104240000D03*
X190520000Y-104240000D03*
X185480000Y-101700000D03*
X190520000Y-101700000D03*
X185480000Y-99160000D03*
X190520000Y-99160000D03*
X185480000Y-96620000D03*
X190520000Y-96620000D03*
X185480000Y-94080000D03*
X190520000Y-94080000D03*
X185480000Y-91540000D03*
X190520000Y-91540000D03*
X185480000Y-89000000D03*
X190520000Y-89000000D03*
X185480000Y-86460000D03*
X190520000Y-86460000D03*
X185480000Y-83920000D03*
X190520000Y-83920000D03*
X185480000Y-81380000D03*
X190520000Y-81380000D03*
X185480000Y-78840000D03*
X190520000Y-78840000D03*
X185480000Y-76300000D03*
X190520000Y-76300000D03*
X185480000Y-73760000D03*
X190520000Y-73760000D03*
G04 #@! TD*
D10*
G04 #@! TO.C,C38*
X79576295Y-57435000D03*
X78026295Y-57435000D03*
G04 #@! TD*
D27*
G04 #@! TO.C,F16*
X230462500Y-84000000D03*
X232337500Y-84000000D03*
G04 #@! TD*
D11*
G04 #@! TO.C,R12*
X68470000Y-88675000D03*
X66820000Y-88675000D03*
G04 #@! TD*
D48*
G04 #@! TO.C,Q2*
X96550000Y-100600000D03*
X95250000Y-100600000D03*
X95900000Y-102600000D03*
G04 #@! TD*
D12*
G04 #@! TO.C,R15*
X66675000Y-104250000D03*
X68325000Y-104250000D03*
G04 #@! TD*
D13*
G04 #@! TO.C,FB18*
X198987500Y-78600000D03*
X197412500Y-78600000D03*
G04 #@! TD*
G04 #@! TO.C,FB14*
X173987500Y-84750000D03*
X172412500Y-84750000D03*
G04 #@! TD*
D49*
G04 #@! TO.C,C1*
X73462500Y-81587500D03*
X73462500Y-83487500D03*
G04 #@! TD*
D38*
G04 #@! TO.C,D12*
X59500000Y-98787500D03*
X59500000Y-97212500D03*
G04 #@! TD*
D26*
G04 #@! TO.C,C24*
X84025000Y-123150000D03*
X85575000Y-123150000D03*
G04 #@! TD*
D28*
G04 #@! TO.C,FB16*
X172462500Y-81650000D03*
X174037500Y-81650000D03*
G04 #@! TD*
D13*
G04 #@! TO.C,FB25*
X228787500Y-81800000D03*
X227212500Y-81800000D03*
G04 #@! TD*
D50*
G04 #@! TO.C,L2*
X66945000Y-94425000D03*
X73845000Y-94425000D03*
G04 #@! TD*
D24*
G04 #@! TO.C,R43*
X79051295Y-72300000D03*
X79051295Y-70650000D03*
G04 #@! TD*
D18*
G04 #@! TO.C,F7*
X170587500Y-83900000D03*
X168712500Y-83900000D03*
G04 #@! TD*
G04 #@! TO.C,F10*
X195737500Y-83900000D03*
X193862500Y-83900000D03*
G04 #@! TD*
D14*
G04 #@! TO.C,D22*
X173700000Y-83200000D03*
X172300000Y-83200000D03*
G04 #@! TD*
D15*
G04 #@! TO.C,D1*
X67000000Y-75350000D03*
X67000000Y-72550000D03*
G04 #@! TD*
D51*
G04 #@! TO.C,U4*
X78000000Y-75500000D03*
X78000000Y-76450000D03*
X78000000Y-77400000D03*
X80275000Y-77400000D03*
X80275000Y-75500000D03*
G04 #@! TD*
D52*
G04 #@! TO.C,U5*
X68895000Y-137450000D03*
X70165000Y-137450000D03*
X71435000Y-137450000D03*
X72705000Y-137450000D03*
X72705000Y-130250000D03*
X71435000Y-130250000D03*
X70165000Y-130250000D03*
X68895000Y-130250000D03*
G04 #@! TD*
D23*
G04 #@! TO.C,U16*
X143750000Y-96637500D03*
X144700000Y-96637500D03*
X145650000Y-96637500D03*
X145650000Y-94362500D03*
X144700000Y-94362500D03*
X143750000Y-94362500D03*
G04 #@! TD*
D29*
G04 #@! TO.C,C14*
X61250000Y-111725000D03*
X61250000Y-113275000D03*
G04 #@! TD*
D25*
G04 #@! TO.C,R45*
X100940000Y-101100000D03*
X100940000Y-102750000D03*
G04 #@! TD*
D12*
G04 #@! TO.C,R13*
X66820000Y-87175000D03*
X68470000Y-87175000D03*
G04 #@! TD*
D32*
G04 #@! TO.C,C39*
X85551295Y-51775000D03*
X85551295Y-50225000D03*
G04 #@! TD*
D28*
G04 #@! TO.C,FB19*
X197412500Y-81800000D03*
X198987500Y-81800000D03*
G04 #@! TD*
D26*
G04 #@! TO.C,C8*
X68620000Y-83925000D03*
X70170000Y-83925000D03*
G04 #@! TD*
D39*
G04 #@! TO.C,D15*
X122050000Y-80650000D03*
X123450000Y-80650000D03*
G04 #@! TD*
D25*
G04 #@! TO.C,R33*
X64250000Y-66675000D03*
X64250000Y-68325000D03*
G04 #@! TD*
D29*
G04 #@! TO.C,C13*
X61145000Y-94650000D03*
X61145000Y-96200000D03*
G04 #@! TD*
D23*
G04 #@! TO.C,U20*
X168800000Y-91337500D03*
X169750000Y-91337500D03*
X170700000Y-91337500D03*
X170700000Y-89062500D03*
X169750000Y-89062500D03*
X168800000Y-89062500D03*
G04 #@! TD*
D10*
G04 #@! TO.C,C22*
X88525000Y-127775000D03*
X86975000Y-127775000D03*
G04 #@! TD*
D24*
G04 #@! TO.C,R2*
X61120000Y-85500000D03*
X61120000Y-83850000D03*
G04 #@! TD*
D23*
G04 #@! TO.C,U14*
X105050000Y-57237500D03*
X106000000Y-57237500D03*
X106950000Y-57237500D03*
X106950000Y-54962500D03*
X105050000Y-54962500D03*
G04 #@! TD*
D53*
G04 #@! TO.C,Q3*
X81250000Y-99697500D03*
X81250000Y-98397500D03*
X79250000Y-99047500D03*
G04 #@! TD*
D23*
G04 #@! TO.C,U29*
X243650000Y-91537500D03*
X244600000Y-91537500D03*
X245550000Y-91537500D03*
X245550000Y-89262500D03*
X244600000Y-89262500D03*
X243650000Y-89262500D03*
G04 #@! TD*
D10*
G04 #@! TO.C,C26*
X73975000Y-121600000D03*
X72425000Y-121600000D03*
G04 #@! TD*
D25*
G04 #@! TO.C,R47*
X91200000Y-108775000D03*
X91200000Y-110425000D03*
G04 #@! TD*
D27*
G04 #@! TO.C,F12*
X193862500Y-81400000D03*
X195737500Y-81400000D03*
G04 #@! TD*
D28*
G04 #@! TO.C,FB13*
X147412500Y-81900000D03*
X148987500Y-81900000D03*
G04 #@! TD*
D24*
G04 #@! TO.C,R26*
X72950000Y-101825000D03*
X72950000Y-100175000D03*
G04 #@! TD*
G04 #@! TO.C,R24*
X89826295Y-69510000D03*
X89826295Y-67860000D03*
G04 #@! TD*
D25*
G04 #@! TO.C,R20*
X66900000Y-119525000D03*
X66900000Y-121175000D03*
G04 #@! TD*
D34*
G04 #@! TO.C,D4*
X78050000Y-111662500D03*
X78050000Y-113237500D03*
G04 #@! TD*
D12*
G04 #@! TO.C,R48*
X93600000Y-122050000D03*
X95250000Y-122050000D03*
G04 #@! TD*
D25*
G04 #@! TO.C,R38*
X80801295Y-65675000D03*
X80801295Y-67325000D03*
G04 #@! TD*
D24*
G04 #@! TO.C,R19*
X78040000Y-110215000D03*
X78040000Y-108565000D03*
G04 #@! TD*
D39*
G04 #@! TO.C,D20*
X147250000Y-80400000D03*
X148650000Y-80400000D03*
G04 #@! TD*
D10*
G04 #@! TO.C,C37*
X79576295Y-60435000D03*
X78026295Y-60435000D03*
G04 #@! TD*
D34*
G04 #@! TO.C,D5*
X81350000Y-111650000D03*
X81350000Y-113225000D03*
G04 #@! TD*
D24*
G04 #@! TO.C,R7*
X64250000Y-102825000D03*
X64250000Y-101175000D03*
G04 #@! TD*
D35*
G04 #@! TO.C,U3*
X62500000Y-107820000D03*
X64000000Y-107820000D03*
X62500000Y-106680000D03*
X64000000Y-106680000D03*
D36*
X61345000Y-109725000D03*
X62615000Y-109725000D03*
X63885000Y-109725000D03*
X65155000Y-109725000D03*
X65155000Y-104775000D03*
X63885000Y-104775000D03*
X62615000Y-104775000D03*
X61345000Y-104775000D03*
G04 #@! TD*
D32*
G04 #@! TO.C,C19*
X76137500Y-77225000D03*
X76137500Y-75675000D03*
G04 #@! TD*
D13*
G04 #@! TO.C,FB11*
X148937500Y-84950000D03*
X147362500Y-84950000D03*
G04 #@! TD*
D11*
G04 #@! TO.C,R11*
X74787500Y-85037500D03*
X73137500Y-85037500D03*
G04 #@! TD*
D31*
G04 #@! TO.C,D18*
X147550000Y-76900000D03*
X150350000Y-76900000D03*
G04 #@! TD*
D16*
G04 #@! TO.C,C18*
X74200000Y-104750000D03*
X72300000Y-104750000D03*
G04 #@! TD*
D14*
G04 #@! TO.C,D28*
X224100000Y-83400000D03*
X222700000Y-83400000D03*
G04 #@! TD*
D23*
G04 #@! TO.C,U19*
X168800000Y-96637500D03*
X169750000Y-96637500D03*
X170700000Y-96637500D03*
X170700000Y-94362500D03*
X169750000Y-94362500D03*
X168800000Y-94362500D03*
G04 #@! TD*
D26*
G04 #@! TO.C,C9*
X68725000Y-101250000D03*
X70275000Y-101250000D03*
G04 #@! TD*
D23*
G04 #@! TO.C,U22*
X193850000Y-96437500D03*
X194800000Y-96437500D03*
X195750000Y-96437500D03*
X195750000Y-94162500D03*
X194800000Y-94162500D03*
X193850000Y-94162500D03*
G04 #@! TD*
G04 #@! TO.C,U23*
X193850000Y-91337500D03*
X194800000Y-91337500D03*
X195750000Y-91337500D03*
X195750000Y-89062500D03*
X194800000Y-89062500D03*
X193850000Y-89062500D03*
G04 #@! TD*
D28*
G04 #@! TO.C,FB10*
X122162500Y-82150000D03*
X123737500Y-82150000D03*
G04 #@! TD*
D54*
G04 #@! TO.C,X1*
X94475000Y-72725000D03*
X92325000Y-72725000D03*
X92325000Y-74275000D03*
X94475000Y-74275000D03*
G04 #@! TD*
D28*
G04 #@! TO.C,FB22*
X222812500Y-81800000D03*
X224387500Y-81800000D03*
G04 #@! TD*
D25*
G04 #@! TO.C,R1*
X60750000Y-69175000D03*
X60750000Y-70825000D03*
G04 #@! TD*
D50*
G04 #@! TO.C,L3*
X67050000Y-112000000D03*
X73950000Y-112000000D03*
G04 #@! TD*
D34*
G04 #@! TO.C,FB7*
X87051295Y-50212500D03*
X87051295Y-51787500D03*
G04 #@! TD*
D55*
G04 #@! TO.C,U10*
X93090000Y-99750000D03*
X91820000Y-99750000D03*
X90550000Y-99750000D03*
X89280000Y-99750000D03*
X89280000Y-106950000D03*
X90550000Y-106950000D03*
X91820000Y-106950000D03*
X93090000Y-106950000D03*
G04 #@! TD*
D16*
G04 #@! TO.C,C16*
X74200000Y-106750000D03*
X72300000Y-106750000D03*
G04 #@! TD*
D39*
G04 #@! TO.C,D23*
X172350000Y-80150000D03*
X173750000Y-80150000D03*
G04 #@! TD*
D24*
G04 #@! TO.C,R8*
X65620000Y-85500000D03*
X65620000Y-83850000D03*
G04 #@! TD*
G04 #@! TO.C,R56*
X77500000Y-41825000D03*
X77500000Y-40175000D03*
G04 #@! TD*
D27*
G04 #@! TO.C,F17*
X230462500Y-78800000D03*
X232337500Y-78800000D03*
G04 #@! TD*
D56*
G04 #@! TO.C,Y2*
X86326295Y-68135000D03*
X88076295Y-68135000D03*
X88076295Y-66735000D03*
X86326295Y-66735000D03*
G04 #@! TD*
D13*
G04 #@! TO.C,FB12*
X148987500Y-78900000D03*
X147412500Y-78900000D03*
G04 #@! TD*
D10*
G04 #@! TO.C,C12*
X81737500Y-83287500D03*
X80187500Y-83287500D03*
G04 #@! TD*
D39*
G04 #@! TO.C,D31*
X227500000Y-83400000D03*
X228900000Y-83400000D03*
G04 #@! TD*
D10*
G04 #@! TO.C,C34*
X87851295Y-65185000D03*
X86301295Y-65185000D03*
G04 #@! TD*
D24*
G04 #@! TO.C,R25*
X83801295Y-52075000D03*
X83801295Y-50425000D03*
G04 #@! TD*
D34*
G04 #@! TO.C,FB1*
X67000000Y-77212500D03*
X67000000Y-78787500D03*
G04 #@! TD*
D57*
G04 #@! TO.C,U9*
X87800000Y-80600000D03*
X88600000Y-80600000D03*
X89400000Y-80600000D03*
X90200000Y-80600000D03*
X91000000Y-80600000D03*
X91800000Y-80600000D03*
X92600000Y-80600000D03*
X93400000Y-80600000D03*
X94200000Y-80600000D03*
X95000000Y-80600000D03*
X95800000Y-80600000D03*
X96600000Y-80600000D03*
X97400000Y-80600000D03*
X98200000Y-80600000D03*
X99000000Y-80600000D03*
X99800000Y-80600000D03*
X87800000Y-81400000D03*
X88600000Y-81400000D03*
X89400000Y-81400000D03*
X90200000Y-81400000D03*
X91000000Y-81400000D03*
X91800000Y-81400000D03*
X92600000Y-81400000D03*
X93400000Y-81400000D03*
X94200000Y-81400000D03*
X95000000Y-81400000D03*
X95800000Y-81400000D03*
X96600000Y-81400000D03*
X97400000Y-81400000D03*
X98200000Y-81400000D03*
X99000000Y-81400000D03*
X99800000Y-81400000D03*
X87800000Y-82200000D03*
X88600000Y-82200000D03*
X89400000Y-82200000D03*
X90200000Y-82200000D03*
X91000000Y-82200000D03*
X91800000Y-82200000D03*
X92600000Y-82200000D03*
X93400000Y-82200000D03*
X94200000Y-82200000D03*
X95000000Y-82200000D03*
X95800000Y-82200000D03*
X96600000Y-82200000D03*
X97400000Y-82200000D03*
X98200000Y-82200000D03*
X99000000Y-82200000D03*
X99800000Y-82200000D03*
X87800000Y-83000000D03*
X88600000Y-83000000D03*
X89400000Y-83000000D03*
X90200000Y-83000000D03*
X91000000Y-83000000D03*
X91800000Y-83000000D03*
X92600000Y-83000000D03*
X93400000Y-83000000D03*
X94200000Y-83000000D03*
X95000000Y-83000000D03*
X95800000Y-83000000D03*
X96600000Y-83000000D03*
X97400000Y-83000000D03*
X98200000Y-83000000D03*
X99000000Y-83000000D03*
X99800000Y-83000000D03*
X87800000Y-83800000D03*
X88600000Y-83800000D03*
X89400000Y-83800000D03*
X90200000Y-83800000D03*
X91000000Y-83800000D03*
X91800000Y-83800000D03*
X92600000Y-83800000D03*
X93400000Y-83800000D03*
X94200000Y-83800000D03*
X95000000Y-83800000D03*
X95800000Y-83800000D03*
X96600000Y-83800000D03*
X97400000Y-83800000D03*
X98200000Y-83800000D03*
X99000000Y-83800000D03*
X99800000Y-83800000D03*
X87800000Y-84600000D03*
X88600000Y-84600000D03*
X89400000Y-84600000D03*
X90200000Y-84600000D03*
X91000000Y-84600000D03*
X91800000Y-84600000D03*
X92600000Y-84600000D03*
X93400000Y-84600000D03*
X94200000Y-84600000D03*
X95000000Y-84600000D03*
X95800000Y-84600000D03*
X96600000Y-84600000D03*
X97400000Y-84600000D03*
X98200000Y-84600000D03*
X99000000Y-84600000D03*
X99800000Y-84600000D03*
X87800000Y-85400000D03*
X88600000Y-85400000D03*
X89400000Y-85400000D03*
X90200000Y-85400000D03*
X91000000Y-85400000D03*
X91800000Y-85400000D03*
X92600000Y-85400000D03*
X93400000Y-85400000D03*
X94200000Y-85400000D03*
X95000000Y-85400000D03*
X95800000Y-85400000D03*
X96600000Y-85400000D03*
X97400000Y-85400000D03*
X98200000Y-85400000D03*
X99000000Y-85400000D03*
X99800000Y-85400000D03*
X87800000Y-86200000D03*
X88600000Y-86200000D03*
X89400000Y-86200000D03*
X90200000Y-86200000D03*
X91000000Y-86200000D03*
X91800000Y-86200000D03*
X92600000Y-86200000D03*
X93400000Y-86200000D03*
X94200000Y-86200000D03*
X95000000Y-86200000D03*
X95800000Y-86200000D03*
X96600000Y-86200000D03*
X97400000Y-86200000D03*
X98200000Y-86200000D03*
X99000000Y-86200000D03*
X99800000Y-86200000D03*
X87800000Y-87000000D03*
X88600000Y-87000000D03*
X89400000Y-87000000D03*
X90200000Y-87000000D03*
X91000000Y-87000000D03*
X91800000Y-87000000D03*
X92600000Y-87000000D03*
X93400000Y-87000000D03*
X94200000Y-87000000D03*
X95000000Y-87000000D03*
X95800000Y-87000000D03*
X96600000Y-87000000D03*
X97400000Y-87000000D03*
X98200000Y-87000000D03*
X99000000Y-87000000D03*
X99800000Y-87000000D03*
X87800000Y-87800000D03*
X88600000Y-87800000D03*
X89400000Y-87800000D03*
X90200000Y-87800000D03*
X91000000Y-87800000D03*
X91800000Y-87800000D03*
X92600000Y-87800000D03*
X93400000Y-87800000D03*
X94200000Y-87800000D03*
X95000000Y-87800000D03*
X95800000Y-87800000D03*
X96600000Y-87800000D03*
X97400000Y-87800000D03*
X98200000Y-87800000D03*
X99000000Y-87800000D03*
X99800000Y-87800000D03*
X87800000Y-88600000D03*
X88600000Y-88600000D03*
X89400000Y-88600000D03*
X90200000Y-88600000D03*
X91000000Y-88600000D03*
X91800000Y-88600000D03*
X92600000Y-88600000D03*
X93400000Y-88600000D03*
X94200000Y-88600000D03*
X95000000Y-88600000D03*
X95800000Y-88600000D03*
X96600000Y-88600000D03*
X97400000Y-88600000D03*
X98200000Y-88600000D03*
X99000000Y-88600000D03*
X99800000Y-88600000D03*
X87800000Y-89400000D03*
X88600000Y-89400000D03*
X89400000Y-89400000D03*
X90200000Y-89400000D03*
X91000000Y-89400000D03*
X91800000Y-89400000D03*
X92600000Y-89400000D03*
X93400000Y-89400000D03*
X94200000Y-89400000D03*
X95000000Y-89400000D03*
X95800000Y-89400000D03*
X96600000Y-89400000D03*
X97400000Y-89400000D03*
X98200000Y-89400000D03*
X99000000Y-89400000D03*
X99800000Y-89400000D03*
X87800000Y-90200000D03*
X88600000Y-90200000D03*
X89400000Y-90200000D03*
X90200000Y-90200000D03*
X91000000Y-90200000D03*
X91800000Y-90200000D03*
X92600000Y-90200000D03*
X93400000Y-90200000D03*
X94200000Y-90200000D03*
X95000000Y-90200000D03*
X95800000Y-90200000D03*
X96600000Y-90200000D03*
X97400000Y-90200000D03*
X98200000Y-90200000D03*
X99000000Y-90200000D03*
X99800000Y-90200000D03*
X87800000Y-91000000D03*
X88600000Y-91000000D03*
X89400000Y-91000000D03*
X90200000Y-91000000D03*
X91000000Y-91000000D03*
X91800000Y-91000000D03*
X92600000Y-91000000D03*
X93400000Y-91000000D03*
X94200000Y-91000000D03*
X95000000Y-91000000D03*
X95800000Y-91000000D03*
X96600000Y-91000000D03*
X97400000Y-91000000D03*
X98200000Y-91000000D03*
X99000000Y-91000000D03*
X99800000Y-91000000D03*
X87800000Y-91800000D03*
X88600000Y-91800000D03*
X89400000Y-91800000D03*
X90200000Y-91800000D03*
X91000000Y-91800000D03*
X91800000Y-91800000D03*
X92600000Y-91800000D03*
X93400000Y-91800000D03*
X94200000Y-91800000D03*
X95000000Y-91800000D03*
X95800000Y-91800000D03*
X96600000Y-91800000D03*
X97400000Y-91800000D03*
X98200000Y-91800000D03*
X99000000Y-91800000D03*
X99800000Y-91800000D03*
X87800000Y-92600000D03*
X88600000Y-92600000D03*
X89400000Y-92600000D03*
X90200000Y-92600000D03*
X91000000Y-92600000D03*
X91800000Y-92600000D03*
X92600000Y-92600000D03*
X93400000Y-92600000D03*
X94200000Y-92600000D03*
X95000000Y-92600000D03*
X95800000Y-92600000D03*
X96600000Y-92600000D03*
X97400000Y-92600000D03*
X98200000Y-92600000D03*
X99000000Y-92600000D03*
X99800000Y-92600000D03*
G04 #@! TD*
D10*
G04 #@! TO.C,C43*
X72100000Y-41000000D03*
X70550000Y-41000000D03*
G04 #@! TD*
D25*
G04 #@! TO.C,R34*
X62500000Y-66675000D03*
X62500000Y-68325000D03*
G04 #@! TD*
D17*
G04 #@! TO.C,J9*
X110480000Y-104240000D03*
X115520000Y-104240000D03*
X110480000Y-101700000D03*
X115520000Y-101700000D03*
X110480000Y-99160000D03*
X115520000Y-99160000D03*
X110480000Y-96620000D03*
X115520000Y-96620000D03*
X110480000Y-94080000D03*
X115520000Y-94080000D03*
X110480000Y-91540000D03*
X115520000Y-91540000D03*
X110480000Y-89000000D03*
X115520000Y-89000000D03*
X110480000Y-86460000D03*
X115520000Y-86460000D03*
X110480000Y-83920000D03*
X115520000Y-83920000D03*
X110480000Y-81380000D03*
X115520000Y-81380000D03*
X110480000Y-78840000D03*
X115520000Y-78840000D03*
X110480000Y-76300000D03*
X115520000Y-76300000D03*
X110480000Y-73760000D03*
X115520000Y-73760000D03*
G04 #@! TD*
D13*
G04 #@! TO.C,FB21*
X224387500Y-78600000D03*
X222812500Y-78600000D03*
G04 #@! TD*
G04 #@! TO.C,FB8*
X123737500Y-83950000D03*
X122162500Y-83950000D03*
G04 #@! TD*
D14*
G04 #@! TO.C,D25*
X198700000Y-83400000D03*
X197300000Y-83400000D03*
G04 #@! TD*
D39*
G04 #@! TO.C,D29*
X222700000Y-80200000D03*
X224100000Y-80200000D03*
G04 #@! TD*
D58*
G04 #@! TO.C,Q4*
X77850000Y-45250000D03*
X79150000Y-45250000D03*
X78500000Y-43250000D03*
G04 #@! TD*
D26*
G04 #@! TO.C,C5*
X62725000Y-113500000D03*
X64275000Y-113500000D03*
G04 #@! TD*
D14*
G04 #@! TO.C,D14*
X123650000Y-85500000D03*
X122250000Y-85500000D03*
G04 #@! TD*
D11*
G04 #@! TO.C,R57*
X79325000Y-46750000D03*
X77675000Y-46750000D03*
G04 #@! TD*
D23*
G04 #@! TO.C,U24*
X219050000Y-101737500D03*
X220000000Y-101737500D03*
X220950000Y-101737500D03*
X220950000Y-99462500D03*
X220000000Y-99462500D03*
X219050000Y-99462500D03*
G04 #@! TD*
D53*
G04 #@! TO.C,Q1*
X81300000Y-96600000D03*
X81300000Y-95300000D03*
X79300000Y-95950000D03*
G04 #@! TD*
D12*
G04 #@! TO.C,R63*
X99350000Y-59000000D03*
X101000000Y-59000000D03*
G04 #@! TD*
D25*
G04 #@! TO.C,R55*
X90250000Y-47425000D03*
X90250000Y-49075000D03*
G04 #@! TD*
D45*
G04 #@! TO.C,C2*
X62695000Y-97675000D03*
X64595000Y-97675000D03*
G04 #@! TD*
D18*
G04 #@! TO.C,F8*
X170587500Y-78850000D03*
X168712500Y-78850000D03*
G04 #@! TD*
D23*
G04 #@! TO.C,U18*
X168787500Y-101637500D03*
X169737500Y-101637500D03*
X170687500Y-101637500D03*
X170687500Y-99362500D03*
X169737500Y-99362500D03*
X168787500Y-99362500D03*
G04 #@! TD*
D10*
G04 #@! TO.C,C44*
X77576295Y-69225000D03*
X76026295Y-69225000D03*
G04 #@! TD*
D59*
G04 #@! TO.C,Y1*
X87100000Y-124275000D03*
X87100000Y-126025000D03*
X88500000Y-126025000D03*
X88500000Y-124275000D03*
G04 #@! TD*
D34*
G04 #@! TO.C,FB2*
X76145000Y-93637500D03*
X76145000Y-95212500D03*
G04 #@! TD*
D17*
G04 #@! TO.C,J15*
X235480000Y-104240000D03*
X240520000Y-104240000D03*
X235480000Y-101700000D03*
X240520000Y-101700000D03*
X235480000Y-99160000D03*
X240520000Y-99160000D03*
X235480000Y-96620000D03*
X240520000Y-96620000D03*
X235480000Y-94080000D03*
X240520000Y-94080000D03*
X235480000Y-91540000D03*
X240520000Y-91540000D03*
X235480000Y-89000000D03*
X240520000Y-89000000D03*
X235480000Y-86460000D03*
X240520000Y-86460000D03*
X235480000Y-83920000D03*
X240520000Y-83920000D03*
X235480000Y-81380000D03*
X240520000Y-81380000D03*
X235480000Y-78840000D03*
X240520000Y-78840000D03*
X235480000Y-76300000D03*
X240520000Y-76300000D03*
X235480000Y-73760000D03*
X240520000Y-73760000D03*
G04 #@! TD*
D28*
G04 #@! TO.C,FB23*
X227212500Y-85000000D03*
X228787500Y-85000000D03*
G04 #@! TD*
M02*
