G04 #@! TF.GenerationSoftware,KiCad,Pcbnew,8.0.5*
G04 #@! TF.CreationDate,2024-09-22T17:44:13+03:00*
G04 #@! TF.ProjectId,rj45-screw-terminals,726a3435-2d73-4637-9265-772d7465726d,rev?*
G04 #@! TF.SameCoordinates,Original*
G04 #@! TF.FileFunction,Copper,L2,Bot*
G04 #@! TF.FilePolarity,Positive*
%FSLAX46Y46*%
G04 Gerber Fmt 4.6, Leading zero omitted, Abs format (unit mm)*
G04 Created by KiCad (PCBNEW 8.0.5) date 2024-09-22 17:44:13*
%MOMM*%
%LPD*%
G01*
G04 APERTURE LIST*
G04 #@! TA.AperFunction,ComponentPad*
%ADD10C,1.500000*%
G04 #@! TD*
G04 #@! TA.AperFunction,ComponentPad*
%ADD11C,2.600000*%
G04 #@! TD*
G04 #@! TA.AperFunction,ComponentPad*
%ADD12C,0.800000*%
G04 #@! TD*
G04 #@! TA.AperFunction,ComponentPad*
%ADD13C,6.400000*%
G04 #@! TD*
G04 #@! TA.AperFunction,ComponentPad*
%ADD14R,1.700000X1.700000*%
G04 #@! TD*
G04 #@! TA.AperFunction,ComponentPad*
%ADD15O,1.700000X1.700000*%
G04 #@! TD*
G04 #@! TA.AperFunction,ComponentPad*
%ADD16C,1.800000*%
G04 #@! TD*
G04 #@! TA.AperFunction,ViaPad*
%ADD17C,0.800000*%
G04 #@! TD*
G04 #@! TA.AperFunction,Conductor*
%ADD18C,0.800000*%
G04 #@! TD*
G04 APERTURE END LIST*
D10*
G04 #@! TO.P,J1,1*
G04 #@! TO.N,Net-(J3-Pin_1)*
X74290000Y-111570000D03*
G04 #@! TO.P,J1,2*
G04 #@! TO.N,Net-(J3-Pin_2)*
X76070000Y-110550000D03*
G04 #@! TO.P,J1,3*
G04 #@! TO.N,Net-(J3-Pin_3)*
X74290000Y-109530000D03*
G04 #@! TO.P,J1,4*
G04 #@! TO.N,Net-(J3-Pin_4)*
X76070000Y-108510000D03*
G04 #@! TO.P,J1,5*
G04 #@! TO.N,Net-(J3-Pin_5)*
X74290000Y-107490000D03*
G04 #@! TO.P,J1,6*
G04 #@! TO.N,Net-(J3-Pin_6)*
X76070000Y-106470000D03*
G04 #@! TO.P,J1,7*
G04 #@! TO.N,Net-(J3-Pin_7)*
X74290000Y-105450000D03*
G04 #@! TO.P,J1,8*
G04 #@! TO.N,GND*
X76070000Y-104430000D03*
G04 #@! TO.P,J1,9*
G04 #@! TO.N,unconnected-(J1-Pad9)*
X80880000Y-114860000D03*
G04 #@! TO.P,J1,10*
G04 #@! TO.N,unconnected-(J1-Pad10)*
X80880000Y-112570000D03*
G04 #@! TO.P,J1,11*
G04 #@! TO.N,unconnected-(J1-Pad11)*
X80880000Y-103430000D03*
G04 #@! TO.P,J1,12*
G04 #@! TO.N,unconnected-(J1-Pad12)*
X80880000Y-101140000D03*
D11*
G04 #@! TO.P,J1,SH*
G04 #@! TO.N,Net-(J2-Pin_1)*
X75310000Y-99870000D03*
X75310000Y-116130000D03*
G04 #@! TD*
D12*
G04 #@! TO.P,H4,1,1*
G04 #@! TO.N,unconnected-(H4-Pad1)_3*
X69600000Y-93000000D03*
G04 #@! TO.N,unconnected-(H4-Pad1)_1*
X70302944Y-91302944D03*
G04 #@! TO.N,unconnected-(H4-Pad1)*
X70302944Y-94697056D03*
G04 #@! TO.N,unconnected-(H4-Pad1)_4*
X72000000Y-90600000D03*
D13*
G04 #@! TO.N,unconnected-(H4-Pad1)_7*
X72000000Y-93000000D03*
D12*
G04 #@! TO.N,unconnected-(H4-Pad1)_2*
X72000000Y-95400000D03*
G04 #@! TO.N,unconnected-(H4-Pad1)_8*
X73697056Y-91302944D03*
G04 #@! TO.N,unconnected-(H4-Pad1)_6*
X73697056Y-94697056D03*
G04 #@! TO.N,unconnected-(H4-Pad1)_5*
X74400000Y-93000000D03*
G04 #@! TD*
D14*
G04 #@! TO.P,J2,1,Pin_1*
G04 #@! TO.N,Net-(J2-Pin_1)*
X77460000Y-96000000D03*
D15*
G04 #@! TO.P,J2,2,Pin_2*
G04 #@! TO.N,GND*
X80000000Y-96000000D03*
G04 #@! TD*
D16*
G04 #@! TO.P,J3,1,Pin_1*
G04 #@! TO.N,Net-(J3-Pin_1)*
X97400000Y-118000000D03*
G04 #@! TO.P,J3,2,Pin_2*
G04 #@! TO.N,Net-(J3-Pin_2)*
X92300000Y-114500000D03*
G04 #@! TO.P,J3,3,Pin_3*
G04 #@! TO.N,Net-(J3-Pin_3)*
X97400000Y-111000000D03*
G04 #@! TO.P,J3,4,Pin_4*
G04 #@! TO.N,Net-(J3-Pin_4)*
X92300000Y-107500000D03*
G04 #@! TO.P,J3,5,Pin_5*
G04 #@! TO.N,Net-(J3-Pin_5)*
X97400000Y-104000000D03*
G04 #@! TO.P,J3,6,Pin_6*
G04 #@! TO.N,Net-(J3-Pin_6)*
X92300000Y-100500000D03*
G04 #@! TO.P,J3,7,Pin_7*
G04 #@! TO.N,Net-(J3-Pin_7)*
X97400000Y-97000000D03*
G04 #@! TO.P,J3,8,Pin_8*
G04 #@! TO.N,GND*
X92300000Y-93500000D03*
G04 #@! TD*
D12*
G04 #@! TO.P,H3,1,1*
G04 #@! TO.N,unconnected-(H3-Pad1)_1*
X69600000Y-122000000D03*
G04 #@! TO.N,unconnected-(H3-Pad1)_6*
X70302944Y-120302944D03*
G04 #@! TO.N,unconnected-(H3-Pad1)_8*
X70302944Y-123697056D03*
G04 #@! TO.N,unconnected-(H3-Pad1)_3*
X72000000Y-119600000D03*
D13*
G04 #@! TO.N,unconnected-(H3-Pad1)_4*
X72000000Y-122000000D03*
D12*
G04 #@! TO.N,unconnected-(H3-Pad1)_7*
X72000000Y-124400000D03*
G04 #@! TO.N,unconnected-(H3-Pad1)_2*
X73697056Y-120302944D03*
G04 #@! TO.N,unconnected-(H3-Pad1)_5*
X73697056Y-123697056D03*
G04 #@! TO.N,unconnected-(H3-Pad1)*
X74400000Y-122000000D03*
G04 #@! TD*
D17*
G04 #@! TO.N,Net-(J3-Pin_7)*
X77250000Y-101250000D03*
G04 #@! TD*
D18*
G04 #@! TO.N,Net-(J3-Pin_7)*
X81500000Y-97000000D02*
X97400000Y-97000000D01*
X77250000Y-101250000D02*
X81500000Y-97000000D01*
G04 #@! TO.N,Net-(J3-Pin_5)*
X74830811Y-103000000D02*
X72940000Y-104890811D01*
X97400000Y-104000000D02*
X96500000Y-104900000D01*
X78449189Y-104900000D02*
X76549189Y-103000000D01*
X72940000Y-104890811D02*
X72940000Y-106140000D01*
X72940000Y-106140000D02*
X74290000Y-107490000D01*
X76549189Y-103000000D02*
X74830811Y-103000000D01*
X96500000Y-104900000D02*
X78449189Y-104900000D01*
G04 #@! TO.N,Net-(J3-Pin_3)*
X73810811Y-113000000D02*
X72940000Y-112129189D01*
X72940000Y-110880000D02*
X74290000Y-109530000D01*
X75529189Y-113000000D02*
X73810811Y-113000000D01*
X77529189Y-111000000D02*
X75529189Y-113000000D01*
X97400000Y-111000000D02*
X77529189Y-111000000D01*
X72940000Y-112129189D02*
X72940000Y-110880000D01*
G04 #@! TD*
M02*
