M48
; DRILL file {KiCad 8.0.4} date 2024-08-31T14:34:19+0300
; FORMAT={-:-/ absolute / metric / decimal}
; #@! TF.CreationDate,2024-08-31T14:34:19+03:00
; #@! TF.GenerationSoftware,Kicad,Pcbnew,8.0.4
; #@! TF.FileFunction,MixedPlating,1,2
FMAT,2
METRIC
; #@! TA.AperFunction,Plated,PTH,ViaDrill
T1C0.300
; #@! TA.AperFunction,Plated,PTH,ViaDrill
T2C0.400
; #@! TA.AperFunction,Plated,PTH,ViaDrill
T3C0.500
; #@! TA.AperFunction,Plated,PTH,ComponentDrill
T4C0.500
; #@! TA.AperFunction,Plated,PTH,ComponentDrill
T5C0.890
; #@! TA.AperFunction,Plated,PTH,ComponentDrill
T6C1.000
; #@! TA.AperFunction,Plated,PTH,ComponentDrill
T7C1.800
; #@! TA.AperFunction,Plated,PTH,ComponentDrill
T8C3.200
; #@! TA.AperFunction,NonPlated,NPTH,ComponentDrill
T9C3.250
%
G90
G05
T1
X107.5Y-85.0
X111.0Y-63.25
X112.0Y-70.25
X112.564Y-57.064
X113.5Y-72.75
X114.025Y-70.0
X114.5Y-85.0
X118.175Y-62.675
X120.0Y-84.0
X121.25Y-85.0
X126.0Y-62.75
X126.5Y-60.75
X129.0Y-85.0
X132.5Y-63.25
X133.5Y-70.25
X134.064Y-57.064
X135.0Y-72.75
X135.525Y-70.0
X136.0Y-85.0
X139.675Y-62.675
X141.5Y-84.0
X142.75Y-85.0
X143.5Y-137.0
X144.5Y-135.5
X145.0Y-133.25
X146.0Y-130.5
X147.5Y-62.75
X147.5Y-128.5
X148.0Y-60.75
X149.0Y-126.5
X150.5Y-85.0
X154.0Y-63.25
X155.0Y-70.25
X155.564Y-57.064
X156.5Y-72.75
X157.025Y-70.0
X157.5Y-85.0
X161.175Y-62.675
X163.0Y-84.0
X164.25Y-85.0
X169.0Y-62.75
X169.5Y-60.75
X172.0Y-85.0
X175.5Y-63.25
X176.25Y-89.0
X176.5Y-70.25
X177.064Y-57.064
X178.0Y-72.75
X178.525Y-70.0
X179.0Y-85.0
X182.5Y-89.0
X182.675Y-62.675
X184.5Y-84.0
X185.75Y-85.0
X190.5Y-62.75
X191.0Y-60.75
T2
X107.9Y-81.35
X108.75Y-77.75
X111.5Y-89.0
X115.75Y-77.75
X116.75Y-84.5
X118.5Y-89.5
X119.5Y-70.0
X120.0Y-61.75
X120.5Y-72.75
X120.5Y-77.5
X121.0Y-58.5
X121.5Y-81.5
X121.75Y-70.0
X122.55Y-77.55
X125.5Y-89.0
X127.5Y-74.6
X127.5Y-78.0
X127.65Y-65.65
X127.75Y-82.25
X128.75Y-60.0
X129.4Y-81.35
X129.65Y-67.45
X129.75Y-60.5
X130.25Y-77.75
X133.0Y-89.5
X137.25Y-77.75
X138.25Y-84.5
X139.0Y-89.0
X141.0Y-70.0
X141.5Y-61.75
X142.0Y-72.75
X142.0Y-77.5
X142.5Y-58.5
X143.0Y-81.5
X143.25Y-70.0
X144.05Y-77.55
X147.0Y-89.0
X149.0Y-74.6
X149.0Y-78.0
X149.15Y-65.65
X149.25Y-82.25
X150.25Y-60.0
X150.9Y-81.35
X151.15Y-67.45
X151.25Y-60.5
X151.75Y-77.75
X154.5Y-89.0
X158.75Y-77.75
X159.75Y-84.5
X161.5Y-89.0
X162.5Y-70.0
X163.0Y-61.75
X163.5Y-72.75
X163.5Y-77.5
X164.0Y-58.5
X164.5Y-81.5
X164.75Y-70.0
X165.55Y-77.55
X167.5Y-89.0
X170.5Y-74.6
X170.5Y-78.0
X170.65Y-65.65
X170.75Y-82.25
X171.75Y-60.0
X172.4Y-81.35
X172.65Y-67.45
X172.75Y-60.5
X173.25Y-77.75
X180.25Y-77.75
X181.25Y-84.5
X184.0Y-70.0
X184.5Y-61.75
X185.0Y-72.75
X185.0Y-77.5
X185.5Y-58.5
X186.0Y-81.5
X186.25Y-70.0
X187.05Y-77.55
X189.25Y-89.0
X192.0Y-74.6
X192.0Y-78.0
X192.15Y-65.65
X192.25Y-82.25
X193.25Y-60.0
X194.15Y-67.45
X194.25Y-60.5
T3
X106.0Y-95.0
X108.0Y-65.0
X108.0Y-75.0
X108.5Y-51.5
X112.0Y-75.0
X113.0Y-95.0
X114.0Y-65.0
X115.5Y-75.0
X117.0Y-51.5
X119.0Y-75.0
X119.5Y-95.0
X121.5Y-65.0
X122.5Y-75.0
X124.0Y-120.5
X127.0Y-72.5
X127.0Y-95.0
X128.0Y-52.5
X128.5Y-120.5
X129.5Y-75.0
X130.0Y-144.5
X131.0Y-120.5
X133.5Y-75.0
X134.0Y-95.0
X134.0Y-120.5
X135.0Y-139.5
X135.0Y-148.5
X136.0Y-65.0
X137.0Y-75.0
X137.5Y-72.0
X138.0Y-120.5
X138.5Y-51.5
X141.0Y-75.0
X141.0Y-95.0
X141.5Y-140.0
X142.5Y-120.5
X143.0Y-65.0
X144.0Y-72.0
X144.0Y-75.0
X148.5Y-72.0
X148.5Y-95.0
X148.5Y-120.5
X149.5Y-51.5
X151.5Y-72.0
X151.5Y-75.0
X155.0Y-75.0
X155.0Y-95.0
X155.0Y-121.0
X157.0Y-65.0
X158.5Y-75.0
X159.0Y-72.0
X160.0Y-51.5
X160.0Y-133.0
X162.0Y-75.0
X162.5Y-95.0
X162.5Y-121.0
X164.0Y-65.0
X165.5Y-72.0
X165.5Y-75.0
X168.5Y-140.0
X170.0Y-72.0
X170.0Y-95.0
X170.0Y-121.0
X171.0Y-51.5
X173.0Y-72.0
X175.5Y-130.5
X176.0Y-121.0
X176.5Y-75.0
X177.0Y-140.0
X177.5Y-95.0
X178.5Y-65.0
X179.0Y-147.0
X180.0Y-75.0
X182.0Y-118.0
X182.5Y-51.5
X183.5Y-75.0
X186.0Y-65.0
X186.0Y-114.5
X187.0Y-75.0
X187.5Y-118.5
X188.0Y-129.0
X191.0Y-51.5
X191.0Y-95.0
X191.0Y-140.0
X191.5Y-67.0
X195.5Y-69.5
X196.0Y-75.0
X196.0Y-95.0
X196.5Y-129.0
T4
X101.6Y-54.0
X101.6Y-146.0
X102.303Y-52.303
X102.303Y-55.697
X102.303Y-144.303
X102.303Y-147.697
X104.0Y-51.6
X104.0Y-56.4
X104.0Y-143.6
X104.0Y-148.4
X105.697Y-52.303
X105.697Y-55.697
X105.697Y-144.303
X105.697Y-147.697
X106.4Y-54.0
X106.4Y-146.0
X193.6Y-54.0
X193.6Y-146.0
X194.303Y-52.303
X194.303Y-55.697
X194.303Y-144.303
X194.303Y-147.697
X196.0Y-51.6
X196.0Y-56.4
X196.0Y-143.6
X196.0Y-148.4
X197.697Y-52.303
X197.697Y-55.697
X197.697Y-144.303
X197.697Y-147.697
X198.4Y-54.0
X198.4Y-146.0
T5
X110.51Y-61.57
X112.8Y-61.57
X113.8Y-54.98
X114.82Y-56.76
X115.84Y-54.98
X116.86Y-56.76
X117.88Y-54.98
X118.9Y-56.76
X119.92Y-54.98
X120.94Y-56.76
X121.94Y-61.57
X124.23Y-61.57
X132.01Y-61.57
X134.3Y-61.57
X135.3Y-54.98
X136.32Y-56.76
X137.34Y-54.98
X138.36Y-56.76
X139.38Y-54.98
X140.4Y-56.76
X141.42Y-54.98
X142.44Y-56.76
X143.44Y-61.57
X145.73Y-61.57
X153.51Y-61.57
X155.8Y-61.57
X156.8Y-54.98
X157.82Y-56.76
X158.84Y-54.98
X159.86Y-56.76
X160.88Y-54.98
X161.9Y-56.76
X162.92Y-54.98
X163.94Y-56.76
X164.94Y-61.57
X167.23Y-61.57
X175.01Y-61.57
X177.3Y-61.57
X178.3Y-54.98
X179.32Y-56.76
X180.34Y-54.98
X181.36Y-56.76
X182.38Y-54.98
X183.4Y-56.76
X184.42Y-54.98
X185.44Y-56.76
X186.44Y-61.57
X188.73Y-61.57
T6
X134.76Y-143.0
X134.76Y-145.54
X137.3Y-143.0
X137.3Y-145.54
X139.84Y-143.0
X139.84Y-145.54
X142.38Y-143.0
X142.38Y-145.54
X144.92Y-143.0
X144.92Y-145.54
X147.46Y-143.0
X147.46Y-145.54
X150.0Y-143.0
X150.0Y-145.54
X152.54Y-143.0
X152.54Y-145.54
X155.08Y-143.0
X155.08Y-145.54
X157.62Y-143.0
X157.62Y-145.54
X160.16Y-143.0
X160.16Y-145.54
X162.7Y-143.0
X162.7Y-145.54
X165.24Y-143.0
X165.24Y-145.54
T7
X109.24Y-56.0
X125.5Y-56.0
X130.74Y-56.0
X147.0Y-56.0
X152.24Y-56.0
X168.5Y-56.0
X173.74Y-56.0
X190.0Y-56.0
T8
X104.0Y-54.0
X104.0Y-146.0
X196.0Y-54.0
X196.0Y-146.0
T9
X111.02Y-52.44
X123.72Y-52.44
X132.52Y-52.44
X145.22Y-52.44
X154.02Y-52.44
X166.72Y-52.44
X175.52Y-52.44
X188.22Y-52.44
M30
