G04 #@! TF.GenerationSoftware,KiCad,Pcbnew,8.0.5*
G04 #@! TF.CreationDate,2024-09-25T12:15:44+03:00*
G04 #@! TF.ProjectId,rioctrl-quadenc4,72696f63-7472-46c2-9d71-756164656e63,rev?*
G04 #@! TF.SameCoordinates,Original*
G04 #@! TF.FileFunction,Soldermask,Bot*
G04 #@! TF.FilePolarity,Negative*
%FSLAX46Y46*%
G04 Gerber Fmt 4.6, Leading zero omitted, Abs format (unit mm)*
G04 Created by KiCad (PCBNEW 8.0.5) date 2024-09-25 12:15:44*
%MOMM*%
%LPD*%
G01*
G04 APERTURE LIST*
%ADD10R,1.700000X1.700000*%
%ADD11O,1.700000X1.700000*%
%ADD12C,0.800000*%
%ADD13C,6.400000*%
%ADD14C,3.250000*%
%ADD15C,1.500000*%
%ADD16C,2.600000*%
G04 APERTURE END LIST*
D10*
G04 #@! TO.C,J2*
X165240000Y-143000000D03*
D11*
X165240000Y-145540000D03*
X162700000Y-143000000D03*
X162700000Y-145540000D03*
X160160000Y-143000000D03*
X160160000Y-145540000D03*
X157620000Y-143000000D03*
X157620000Y-145540000D03*
X155080000Y-143000000D03*
X155080000Y-145540000D03*
X152540000Y-143000000D03*
X152540000Y-145540000D03*
X150000000Y-143000000D03*
X150000000Y-145540000D03*
X147460000Y-143000000D03*
X147460000Y-145540000D03*
X144920000Y-143000000D03*
X144920000Y-145540000D03*
X142380000Y-143000000D03*
X142380000Y-145540000D03*
X139840000Y-143000000D03*
X139840000Y-145540000D03*
X137300000Y-143000000D03*
X137300000Y-145540000D03*
X134760000Y-143000000D03*
X134760000Y-145540000D03*
G04 #@! TD*
D12*
G04 #@! TO.C,H4*
X101600000Y-146000000D03*
X102302944Y-144302944D03*
X102302944Y-147697056D03*
X104000000Y-143600000D03*
D13*
X104000000Y-146000000D03*
D12*
X104000000Y-148400000D03*
X105697056Y-144302944D03*
X105697056Y-147697056D03*
X106400000Y-146000000D03*
G04 #@! TD*
D14*
G04 #@! TO.C,J3*
X166720000Y-52440000D03*
X154020000Y-52440000D03*
D15*
X156800000Y-54980000D03*
X157820000Y-56760000D03*
X158840000Y-54980000D03*
X159860000Y-56760000D03*
X160880000Y-54980000D03*
X161900000Y-56760000D03*
X162920000Y-54980000D03*
X163940000Y-56760000D03*
X153510000Y-61570000D03*
X155800000Y-61570000D03*
X164940000Y-61570000D03*
X167230000Y-61570000D03*
D16*
X168500000Y-56000000D03*
X152240000Y-56000000D03*
G04 #@! TD*
D14*
G04 #@! TO.C,J1*
X188220000Y-52440000D03*
X175520000Y-52440000D03*
D15*
X178300000Y-54980000D03*
X179320000Y-56760000D03*
X180340000Y-54980000D03*
X181360000Y-56760000D03*
X182380000Y-54980000D03*
X183400000Y-56760000D03*
X184420000Y-54980000D03*
X185440000Y-56760000D03*
X175010000Y-61570000D03*
X177300000Y-61570000D03*
X186440000Y-61570000D03*
X188730000Y-61570000D03*
D16*
X190000000Y-56000000D03*
X173740000Y-56000000D03*
G04 #@! TD*
D14*
G04 #@! TO.C,J4*
X145220000Y-52440000D03*
X132520000Y-52440000D03*
D15*
X135300000Y-54980000D03*
X136320000Y-56760000D03*
X137340000Y-54980000D03*
X138360000Y-56760000D03*
X139380000Y-54980000D03*
X140400000Y-56760000D03*
X141420000Y-54980000D03*
X142440000Y-56760000D03*
X132010000Y-61570000D03*
X134300000Y-61570000D03*
X143440000Y-61570000D03*
X145730000Y-61570000D03*
D16*
X147000000Y-56000000D03*
X130740000Y-56000000D03*
G04 #@! TD*
D12*
G04 #@! TO.C,H1*
X101600000Y-54000000D03*
X102302944Y-52302944D03*
X102302944Y-55697056D03*
X104000000Y-51600000D03*
D13*
X104000000Y-54000000D03*
D12*
X104000000Y-56400000D03*
X105697056Y-52302944D03*
X105697056Y-55697056D03*
X106400000Y-54000000D03*
G04 #@! TD*
D14*
G04 #@! TO.C,J5*
X123720000Y-52440000D03*
X111020000Y-52440000D03*
D15*
X113800000Y-54980000D03*
X114820000Y-56760000D03*
X115840000Y-54980000D03*
X116860000Y-56760000D03*
X117880000Y-54980000D03*
X118900000Y-56760000D03*
X119920000Y-54980000D03*
X120940000Y-56760000D03*
X110510000Y-61570000D03*
X112800000Y-61570000D03*
X121940000Y-61570000D03*
X124230000Y-61570000D03*
D16*
X125500000Y-56000000D03*
X109240000Y-56000000D03*
G04 #@! TD*
D12*
G04 #@! TO.C,H3*
X193600000Y-146000000D03*
X194302944Y-144302944D03*
X194302944Y-147697056D03*
X196000000Y-143600000D03*
D13*
X196000000Y-146000000D03*
D12*
X196000000Y-148400000D03*
X197697056Y-144302944D03*
X197697056Y-147697056D03*
X198400000Y-146000000D03*
G04 #@! TD*
G04 #@! TO.C,H2*
X193600000Y-54000000D03*
X194302944Y-52302944D03*
X194302944Y-55697056D03*
X196000000Y-51600000D03*
D13*
X196000000Y-54000000D03*
D12*
X196000000Y-56400000D03*
X197697056Y-52302944D03*
X197697056Y-55697056D03*
X198400000Y-54000000D03*
G04 #@! TD*
M02*
