G04 #@! TF.GenerationSoftware,KiCad,Pcbnew,8.0.5*
G04 #@! TF.CreationDate,2024-09-22T17:43:48+03:00*
G04 #@! TF.ProjectId,rioctrl-quadenc4,72696f63-7472-46c2-9d71-756164656e63,rev?*
G04 #@! TF.SameCoordinates,Original*
G04 #@! TF.FileFunction,Copper,L2,Bot*
G04 #@! TF.FilePolarity,Positive*
%FSLAX46Y46*%
G04 Gerber Fmt 4.6, Leading zero omitted, Abs format (unit mm)*
G04 Created by KiCad (PCBNEW 8.0.5) date 2024-09-22 17:43:48*
%MOMM*%
%LPD*%
G01*
G04 APERTURE LIST*
G04 #@! TA.AperFunction,ComponentPad*
%ADD10R,1.700000X1.700000*%
G04 #@! TD*
G04 #@! TA.AperFunction,ComponentPad*
%ADD11O,1.700000X1.700000*%
G04 #@! TD*
G04 #@! TA.AperFunction,ComponentPad*
%ADD12C,0.800000*%
G04 #@! TD*
G04 #@! TA.AperFunction,ComponentPad*
%ADD13C,6.400000*%
G04 #@! TD*
G04 #@! TA.AperFunction,ComponentPad*
%ADD14C,1.500000*%
G04 #@! TD*
G04 #@! TA.AperFunction,ComponentPad*
%ADD15C,2.600000*%
G04 #@! TD*
G04 #@! TA.AperFunction,ViaPad*
%ADD16C,0.700000*%
G04 #@! TD*
G04 #@! TA.AperFunction,ViaPad*
%ADD17C,0.600000*%
G04 #@! TD*
G04 #@! TA.AperFunction,ViaPad*
%ADD18C,0.800000*%
G04 #@! TD*
G04 #@! TA.AperFunction,Conductor*
%ADD19C,0.500000*%
G04 #@! TD*
G04 #@! TA.AperFunction,Conductor*
%ADD20C,1.000000*%
G04 #@! TD*
G04 #@! TA.AperFunction,Conductor*
%ADD21C,0.200000*%
G04 #@! TD*
G04 APERTURE END LIST*
D10*
G04 #@! TO.P,J2,1,Pin_1*
G04 #@! TO.N,GND*
X165240000Y-143000000D03*
D11*
G04 #@! TO.P,J2,2,Pin_2*
X165240000Y-145540000D03*
G04 #@! TO.P,J2,3,Pin_3*
G04 #@! TO.N,/Quadenc/Z*
X162700000Y-143000000D03*
G04 #@! TO.P,J2,4,Pin_4*
G04 #@! TO.N,/Quadenc2/Z*
X162700000Y-145540000D03*
G04 #@! TO.P,J2,5,Pin_5*
G04 #@! TO.N,/Quadenc/B*
X160160000Y-143000000D03*
G04 #@! TO.P,J2,6,Pin_6*
G04 #@! TO.N,/Quadenc2/B*
X160160000Y-145540000D03*
G04 #@! TO.P,J2,7,Pin_7*
G04 #@! TO.N,/Quadenc/A*
X157620000Y-143000000D03*
G04 #@! TO.P,J2,8,Pin_8*
G04 #@! TO.N,/Quadenc2/A*
X157620000Y-145540000D03*
G04 #@! TO.P,J2,9,Pin_9*
G04 #@! TO.N,/Quadenc1/Z*
X155080000Y-143000000D03*
G04 #@! TO.P,J2,10,Pin_10*
G04 #@! TO.N,/Quadenc3/Z*
X155080000Y-145540000D03*
G04 #@! TO.P,J2,11,Pin_11*
G04 #@! TO.N,/Quadenc1/B*
X152540000Y-143000000D03*
G04 #@! TO.P,J2,12,Pin_12*
G04 #@! TO.N,/Quadenc3/B*
X152540000Y-145540000D03*
G04 #@! TO.P,J2,13,Pin_13*
G04 #@! TO.N,/Quadenc1/A*
X150000000Y-143000000D03*
G04 #@! TO.P,J2,14,Pin_14*
G04 #@! TO.N,/Quadenc3/A*
X150000000Y-145540000D03*
G04 #@! TO.P,J2,15,Pin_15*
G04 #@! TO.N,GND*
X147460000Y-143000000D03*
G04 #@! TO.P,J2,16,Pin_16*
X147460000Y-145540000D03*
G04 #@! TO.P,J2,17,Pin_17*
G04 #@! TO.N,+3V3*
X144920000Y-143000000D03*
G04 #@! TO.P,J2,18,Pin_18*
X144920000Y-145540000D03*
G04 #@! TO.P,J2,19,Pin_19*
G04 #@! TO.N,+5V*
X142380000Y-143000000D03*
G04 #@! TO.P,J2,20,Pin_20*
X142380000Y-145540000D03*
G04 #@! TO.P,J2,21,Pin_21*
G04 #@! TO.N,+24V*
X139840000Y-143000000D03*
G04 #@! TO.P,J2,22,Pin_22*
X139840000Y-145540000D03*
G04 #@! TO.P,J2,23,Pin_23*
G04 #@! TO.N,/Slot/SlotEN*
X137300000Y-143000000D03*
G04 #@! TO.P,J2,24,Pin_24*
X137300000Y-145540000D03*
G04 #@! TO.P,J2,25,Pin_25*
G04 #@! TO.N,GND*
X134760000Y-143000000D03*
G04 #@! TO.P,J2,26,Pin_26*
X134760000Y-145540000D03*
G04 #@! TD*
D12*
G04 #@! TO.P,H4,1,1*
G04 #@! TO.N,GND*
X101600000Y-146000000D03*
X102302944Y-144302944D03*
X102302944Y-147697056D03*
X104000000Y-143600000D03*
D13*
X104000000Y-146000000D03*
D12*
X104000000Y-148400000D03*
X105697056Y-144302944D03*
X105697056Y-147697056D03*
X106400000Y-146000000D03*
G04 #@! TD*
D14*
G04 #@! TO.P,J3,1*
G04 #@! TO.N,Net-(J3-Pad1)*
X156800000Y-54980000D03*
G04 #@! TO.P,J3,2*
G04 #@! TO.N,Net-(J3-Pad2)*
X157820000Y-56760000D03*
G04 #@! TO.P,J3,3*
G04 #@! TO.N,Net-(J3-Pad3)*
X158840000Y-54980000D03*
G04 #@! TO.P,J3,4*
G04 #@! TO.N,Net-(J3-Pad4)*
X159860000Y-56760000D03*
G04 #@! TO.P,J3,5*
G04 #@! TO.N,Net-(J3-Pad5)*
X160880000Y-54980000D03*
G04 #@! TO.P,J3,6*
G04 #@! TO.N,Net-(J3-Pad6)*
X161900000Y-56760000D03*
G04 #@! TO.P,J3,7*
G04 #@! TO.N,Net-(FB2-Pad2)*
X162920000Y-54980000D03*
G04 #@! TO.P,J3,8*
G04 #@! TO.N,GND*
X163940000Y-56760000D03*
G04 #@! TO.P,J3,9*
G04 #@! TO.N,unconnected-(J3-Pad9)*
X153510000Y-61570000D03*
G04 #@! TO.P,J3,10*
G04 #@! TO.N,unconnected-(J3-Pad10)*
X155800000Y-61570000D03*
G04 #@! TO.P,J3,11*
G04 #@! TO.N,unconnected-(J3-Pad11)*
X164940000Y-61570000D03*
G04 #@! TO.P,J3,12*
G04 #@! TO.N,unconnected-(J3-Pad12)*
X167230000Y-61570000D03*
D15*
G04 #@! TO.P,J3,SH*
G04 #@! TO.N,Net-(J3-PadSH)*
X168500000Y-56000000D03*
X152240000Y-56000000D03*
G04 #@! TD*
D14*
G04 #@! TO.P,J1,1*
G04 #@! TO.N,Net-(J1-Pad1)*
X178300000Y-54980000D03*
G04 #@! TO.P,J1,2*
G04 #@! TO.N,Net-(J1-Pad2)*
X179320000Y-56760000D03*
G04 #@! TO.P,J1,3*
G04 #@! TO.N,Net-(J1-Pad3)*
X180340000Y-54980000D03*
G04 #@! TO.P,J1,4*
G04 #@! TO.N,Net-(J1-Pad4)*
X181360000Y-56760000D03*
G04 #@! TO.P,J1,5*
G04 #@! TO.N,Net-(J1-Pad5)*
X182380000Y-54980000D03*
G04 #@! TO.P,J1,6*
G04 #@! TO.N,Net-(J1-Pad6)*
X183400000Y-56760000D03*
G04 #@! TO.P,J1,7*
G04 #@! TO.N,Net-(FB1-Pad2)*
X184420000Y-54980000D03*
G04 #@! TO.P,J1,8*
G04 #@! TO.N,GND*
X185440000Y-56760000D03*
G04 #@! TO.P,J1,9*
G04 #@! TO.N,unconnected-(J1-Pad9)*
X175010000Y-61570000D03*
G04 #@! TO.P,J1,10*
G04 #@! TO.N,unconnected-(J1-Pad10)*
X177300000Y-61570000D03*
G04 #@! TO.P,J1,11*
G04 #@! TO.N,unconnected-(J1-Pad11)*
X186440000Y-61570000D03*
G04 #@! TO.P,J1,12*
G04 #@! TO.N,unconnected-(J1-Pad12)*
X188730000Y-61570000D03*
D15*
G04 #@! TO.P,J1,SH*
G04 #@! TO.N,Net-(J1-PadSH)*
X190000000Y-56000000D03*
X173740000Y-56000000D03*
G04 #@! TD*
D14*
G04 #@! TO.P,J4,1*
G04 #@! TO.N,Net-(J4-Pad1)*
X135300000Y-54980000D03*
G04 #@! TO.P,J4,2*
G04 #@! TO.N,Net-(J4-Pad2)*
X136320000Y-56760000D03*
G04 #@! TO.P,J4,3*
G04 #@! TO.N,Net-(J4-Pad3)*
X137340000Y-54980000D03*
G04 #@! TO.P,J4,4*
G04 #@! TO.N,Net-(J4-Pad4)*
X138360000Y-56760000D03*
G04 #@! TO.P,J4,5*
G04 #@! TO.N,Net-(J4-Pad5)*
X139380000Y-54980000D03*
G04 #@! TO.P,J4,6*
G04 #@! TO.N,Net-(J4-Pad6)*
X140400000Y-56760000D03*
G04 #@! TO.P,J4,7*
G04 #@! TO.N,Net-(FB3-Pad2)*
X141420000Y-54980000D03*
G04 #@! TO.P,J4,8*
G04 #@! TO.N,GND*
X142440000Y-56760000D03*
G04 #@! TO.P,J4,9*
G04 #@! TO.N,unconnected-(J4-Pad9)*
X132010000Y-61570000D03*
G04 #@! TO.P,J4,10*
G04 #@! TO.N,unconnected-(J4-Pad10)*
X134300000Y-61570000D03*
G04 #@! TO.P,J4,11*
G04 #@! TO.N,unconnected-(J4-Pad11)*
X143440000Y-61570000D03*
G04 #@! TO.P,J4,12*
G04 #@! TO.N,unconnected-(J4-Pad12)*
X145730000Y-61570000D03*
D15*
G04 #@! TO.P,J4,SH*
G04 #@! TO.N,Net-(J4-PadSH)*
X147000000Y-56000000D03*
X130740000Y-56000000D03*
G04 #@! TD*
D12*
G04 #@! TO.P,H1,1,1*
G04 #@! TO.N,GND*
X101600000Y-54000000D03*
X102302944Y-52302944D03*
X102302944Y-55697056D03*
X104000000Y-51600000D03*
D13*
X104000000Y-54000000D03*
D12*
X104000000Y-56400000D03*
X105697056Y-52302944D03*
X105697056Y-55697056D03*
X106400000Y-54000000D03*
G04 #@! TD*
D14*
G04 #@! TO.P,J5,1*
G04 #@! TO.N,Net-(J5-Pad1)*
X113800000Y-54980000D03*
G04 #@! TO.P,J5,2*
G04 #@! TO.N,Net-(J5-Pad2)*
X114820000Y-56760000D03*
G04 #@! TO.P,J5,3*
G04 #@! TO.N,Net-(J5-Pad3)*
X115840000Y-54980000D03*
G04 #@! TO.P,J5,4*
G04 #@! TO.N,Net-(J5-Pad4)*
X116860000Y-56760000D03*
G04 #@! TO.P,J5,5*
G04 #@! TO.N,Net-(J5-Pad5)*
X117880000Y-54980000D03*
G04 #@! TO.P,J5,6*
G04 #@! TO.N,Net-(J5-Pad6)*
X118900000Y-56760000D03*
G04 #@! TO.P,J5,7*
G04 #@! TO.N,Net-(FB4-Pad2)*
X119920000Y-54980000D03*
G04 #@! TO.P,J5,8*
G04 #@! TO.N,GND*
X120940000Y-56760000D03*
G04 #@! TO.P,J5,9*
G04 #@! TO.N,unconnected-(J5-Pad9)*
X110510000Y-61570000D03*
G04 #@! TO.P,J5,10*
G04 #@! TO.N,unconnected-(J5-Pad10)*
X112800000Y-61570000D03*
G04 #@! TO.P,J5,11*
G04 #@! TO.N,unconnected-(J5-Pad11)*
X121940000Y-61570000D03*
G04 #@! TO.P,J5,12*
G04 #@! TO.N,unconnected-(J5-Pad12)*
X124230000Y-61570000D03*
D15*
G04 #@! TO.P,J5,SH*
G04 #@! TO.N,Net-(J5-PadSH)*
X125500000Y-56000000D03*
X109240000Y-56000000D03*
G04 #@! TD*
D12*
G04 #@! TO.P,H3,1,1*
G04 #@! TO.N,GND*
X193600000Y-146000000D03*
X194302944Y-144302944D03*
X194302944Y-147697056D03*
X196000000Y-143600000D03*
D13*
X196000000Y-146000000D03*
D12*
X196000000Y-148400000D03*
X197697056Y-144302944D03*
X197697056Y-147697056D03*
X198400000Y-146000000D03*
G04 #@! TD*
G04 #@! TO.P,H2,1,1*
G04 #@! TO.N,GND*
X193600000Y-54000000D03*
X194302944Y-52302944D03*
X194302944Y-55697056D03*
X196000000Y-51600000D03*
D13*
X196000000Y-54000000D03*
D12*
X196000000Y-56400000D03*
X197697056Y-52302944D03*
X197697056Y-55697056D03*
X198400000Y-54000000D03*
G04 #@! TD*
D16*
G04 #@! TO.N,+3V3*
X192000000Y-78000000D03*
X143250000Y-70000000D03*
X181250000Y-84500000D03*
X121750000Y-70000000D03*
X185000000Y-72750000D03*
X127500000Y-78000000D03*
D17*
X114025000Y-70000000D03*
X157025000Y-70000000D03*
X113500000Y-72750000D03*
D16*
X149000000Y-78000000D03*
X138250000Y-84500000D03*
X170500000Y-78000000D03*
X121500000Y-81500000D03*
X150900000Y-81350000D03*
X186250000Y-70000000D03*
X107900000Y-81350000D03*
X164750000Y-70000000D03*
X120500000Y-77500000D03*
X172400000Y-81350000D03*
D17*
X135525000Y-70000000D03*
D16*
X159750000Y-84500000D03*
X164500000Y-81500000D03*
D17*
X178000000Y-72750000D03*
X178525000Y-70000000D03*
D16*
X143000000Y-81500000D03*
X185000000Y-77500000D03*
X142000000Y-72750000D03*
X142000000Y-77500000D03*
X163500000Y-77500000D03*
X116750000Y-84500000D03*
X186000000Y-81500000D03*
X129400000Y-81350000D03*
D17*
X135000000Y-72750000D03*
D16*
X120500000Y-72750000D03*
X163500000Y-72750000D03*
D17*
X156500000Y-72750000D03*
G04 #@! TO.N,GND*
X182500000Y-89000000D03*
D18*
X170000000Y-95000000D03*
X112000000Y-75000000D03*
D16*
X129750000Y-60500000D03*
D17*
X179000000Y-85000000D03*
D18*
X144000000Y-75000000D03*
D17*
X129000000Y-85000000D03*
D18*
X137500000Y-72000000D03*
X127000000Y-95000000D03*
X160000000Y-51500000D03*
D16*
X154500000Y-89000000D03*
X161500000Y-89000000D03*
D18*
X178500000Y-65000000D03*
X128500000Y-120500000D03*
D17*
X150500000Y-85000000D03*
D18*
X136000000Y-65000000D03*
X186000000Y-65000000D03*
X187500000Y-118500000D03*
X138500000Y-51500000D03*
X108000000Y-65000000D03*
X124000000Y-120500000D03*
X160000000Y-133000000D03*
D17*
X164250000Y-85000000D03*
D16*
X184500000Y-61750000D03*
X137250000Y-77750000D03*
X141500000Y-61750000D03*
D18*
X182500000Y-51500000D03*
X106000000Y-95000000D03*
D17*
X184500000Y-84000000D03*
D18*
X155000000Y-95000000D03*
X177500000Y-95000000D03*
X191000000Y-95000000D03*
D17*
X163000000Y-84000000D03*
D18*
X138000000Y-120500000D03*
X117000000Y-51500000D03*
D16*
X172650000Y-67450000D03*
X118500000Y-89500000D03*
D18*
X141500000Y-140000000D03*
D16*
X194150000Y-67450000D03*
X158750000Y-77750000D03*
X167500000Y-89000000D03*
D18*
X134000000Y-120500000D03*
X195500000Y-69500000D03*
D16*
X139000000Y-89000000D03*
X151150000Y-67450000D03*
D18*
X151500000Y-72000000D03*
X108500000Y-51500000D03*
X135000000Y-148500000D03*
D16*
X189250000Y-89000000D03*
D18*
X127000000Y-72500000D03*
X183500000Y-75000000D03*
X164000000Y-65000000D03*
X191000000Y-140000000D03*
D16*
X164000000Y-58500000D03*
X144050000Y-77550000D03*
D18*
X148500000Y-120500000D03*
X177000000Y-140000000D03*
D16*
X129650000Y-67450000D03*
D18*
X196000000Y-75000000D03*
D16*
X108750000Y-77750000D03*
D17*
X121250000Y-85000000D03*
D18*
X122500000Y-75000000D03*
D16*
X120000000Y-61750000D03*
X172750000Y-60500000D03*
X192000000Y-74600000D03*
D17*
X114500000Y-85000000D03*
D16*
X185500000Y-58500000D03*
D18*
X159000000Y-72000000D03*
D16*
X133000000Y-89500000D03*
X173250000Y-77750000D03*
D18*
X155000000Y-121000000D03*
X119500000Y-95000000D03*
D16*
X141000000Y-70000000D03*
D18*
X191000000Y-51500000D03*
D16*
X163000000Y-61750000D03*
D18*
X129500000Y-75000000D03*
X144000000Y-72000000D03*
X162500000Y-95000000D03*
D17*
X136000000Y-85000000D03*
D16*
X128750000Y-60000000D03*
D18*
X173000000Y-72000000D03*
X165500000Y-75000000D03*
D17*
X141500000Y-84000000D03*
D18*
X158500000Y-75000000D03*
X141000000Y-95000000D03*
X182000000Y-118000000D03*
X196000000Y-95000000D03*
D16*
X170500000Y-74600000D03*
X130250000Y-77750000D03*
D17*
X176250000Y-89000000D03*
D16*
X121000000Y-58500000D03*
D18*
X108000000Y-75000000D03*
X191500000Y-67000000D03*
X148500000Y-95000000D03*
X157000000Y-65000000D03*
D16*
X193250000Y-60000000D03*
D18*
X176500000Y-75000000D03*
X187000000Y-75000000D03*
D17*
X176500000Y-70250000D03*
D18*
X186000000Y-114500000D03*
X162000000Y-75000000D03*
X115500000Y-75000000D03*
D16*
X150250000Y-60000000D03*
D18*
X141000000Y-75000000D03*
D16*
X125500000Y-89000000D03*
D17*
X157500000Y-85000000D03*
D18*
X131000000Y-120500000D03*
X170000000Y-72000000D03*
X196500000Y-129000000D03*
X170000000Y-121000000D03*
D16*
X187050000Y-77550000D03*
D18*
X130000000Y-144500000D03*
X171000000Y-51500000D03*
D17*
X185750000Y-85000000D03*
D18*
X137000000Y-75000000D03*
D16*
X122550000Y-77550000D03*
D18*
X135000000Y-139500000D03*
D17*
X112000000Y-70250000D03*
D18*
X162500000Y-121000000D03*
D16*
X151250000Y-60500000D03*
X162500000Y-70000000D03*
D17*
X133500000Y-70250000D03*
D16*
X119500000Y-70000000D03*
D18*
X121500000Y-65000000D03*
D16*
X170750000Y-82250000D03*
D18*
X114000000Y-65000000D03*
X133500000Y-75000000D03*
X142500000Y-120500000D03*
X134000000Y-95000000D03*
D17*
X155000000Y-70250000D03*
D16*
X171750000Y-60000000D03*
X147000000Y-89000000D03*
D18*
X168500000Y-140000000D03*
D17*
X172000000Y-85000000D03*
X120000000Y-84000000D03*
D16*
X184000000Y-70000000D03*
X127750000Y-82250000D03*
D18*
X165500000Y-72000000D03*
D16*
X194250000Y-60500000D03*
X149250000Y-82250000D03*
X127500000Y-74600000D03*
D18*
X155000000Y-75000000D03*
X188000000Y-129000000D03*
X128000000Y-52500000D03*
X176000000Y-121000000D03*
X180000000Y-75000000D03*
D16*
X115750000Y-77750000D03*
X111500000Y-89000000D03*
X151750000Y-77750000D03*
X180250000Y-77750000D03*
D17*
X142750000Y-85000000D03*
D18*
X148500000Y-72000000D03*
D16*
X142500000Y-58500000D03*
X165550000Y-77550000D03*
X149000000Y-74600000D03*
D18*
X143000000Y-65000000D03*
X149500000Y-51500000D03*
X113000000Y-95000000D03*
D16*
X192250000Y-82250000D03*
D17*
X107500000Y-85000000D03*
D18*
X175500000Y-130500000D03*
X119000000Y-75000000D03*
X151500000Y-75000000D03*
G04 #@! TO.N,+5V*
X179000000Y-147000000D03*
D16*
X170650000Y-65650000D03*
X192150000Y-65650000D03*
X127650000Y-65650000D03*
X149150000Y-65650000D03*
D17*
G04 #@! TO.N,Net-(FB1-Pad2)*
X191000000Y-60750000D03*
G04 #@! TO.N,Net-(FB3-Pad2)*
X148000000Y-60750000D03*
G04 #@! TO.N,Net-(FB4-Pad2)*
X126500000Y-60750000D03*
G04 #@! TO.N,/Quadenc2/B*
X147500000Y-128500000D03*
G04 #@! TO.N,/Quadenc3/A*
X143500000Y-137000000D03*
G04 #@! TO.N,/Quadenc2/Z*
X149000000Y-126500000D03*
G04 #@! TO.N,/Quadenc3/B*
X144500000Y-135500000D03*
G04 #@! TO.N,/Quadenc3/Z*
X145000000Y-133250000D03*
G04 #@! TO.N,/Quadenc2/A*
X146000000Y-130500000D03*
G04 #@! TO.N,Net-(J3-Pad3)*
X161175000Y-62675000D03*
X155564265Y-57064265D03*
G04 #@! TO.N,Net-(J3-Pad4)*
X169000000Y-62750000D03*
G04 #@! TO.N,Net-(J3-Pad1)*
X154000000Y-63250000D03*
G04 #@! TO.N,Net-(J4-Pad1)*
X132500000Y-63250000D03*
G04 #@! TO.N,Net-(J4-Pad4)*
X147500000Y-62750000D03*
G04 #@! TO.N,Net-(J4-Pad3)*
X139675000Y-62675000D03*
X134064265Y-57064265D03*
G04 #@! TO.N,Net-(J5-Pad1)*
X111000000Y-63250000D03*
G04 #@! TO.N,Net-(J5-Pad4)*
X126000000Y-62750000D03*
G04 #@! TO.N,Net-(J5-Pad3)*
X112564265Y-57064265D03*
X118175000Y-62675000D03*
G04 #@! TO.N,Net-(FB2-Pad2)*
X169500000Y-60750000D03*
G04 #@! TO.N,Net-(J1-Pad3)*
X177064265Y-57064265D03*
X182675000Y-62675000D03*
G04 #@! TO.N,Net-(J1-Pad4)*
X190500000Y-62750000D03*
G04 #@! TO.N,Net-(J1-Pad1)*
X175500000Y-63250000D03*
G04 #@! TD*
D19*
G04 #@! TO.N,+3V3*
X135000000Y-72750000D02*
X135000000Y-70525000D01*
X186000000Y-81500000D02*
X186000000Y-78750000D01*
X192000000Y-79810661D02*
X192000000Y-78000000D01*
X144920000Y-145540000D02*
X144920000Y-143000000D01*
X144920000Y-145540000D02*
X144920000Y-146720000D01*
X164500000Y-81500000D02*
X164500000Y-78750000D01*
X113500000Y-81250000D02*
X113400000Y-81350000D01*
X113400000Y-81350000D02*
X107900000Y-81350000D01*
X118000000Y-85750000D02*
X118000000Y-84939339D01*
X162250000Y-87000000D02*
X161000000Y-85750000D01*
X161000000Y-85750000D02*
X159750000Y-84500000D01*
X138250000Y-84500000D02*
X135000000Y-81250000D01*
X156400000Y-81350000D02*
X150900000Y-81350000D01*
D20*
X124250000Y-92000000D02*
X119250000Y-87000000D01*
D19*
X141810661Y-87000000D02*
X149000000Y-79810661D01*
X143000000Y-81500000D02*
X143000000Y-78750000D01*
X162250000Y-87000000D02*
X162500000Y-87000000D01*
X185000000Y-77750000D02*
X185000000Y-77500000D01*
X163500000Y-77750000D02*
X163500000Y-77500000D01*
X161000000Y-84939339D02*
X164439339Y-81500000D01*
X163310661Y-87000000D02*
X170500000Y-79810661D01*
X140750000Y-87000000D02*
X141400000Y-87000000D01*
D20*
X147000000Y-92000000D02*
X146400000Y-92000000D01*
D19*
X120500000Y-72750000D02*
X120500000Y-71250000D01*
D20*
X147000000Y-92000000D02*
X124250000Y-92000000D01*
D19*
X163500000Y-72750000D02*
X163500000Y-71250000D01*
X183750000Y-87000000D02*
X183625000Y-86875000D01*
X139500000Y-85750000D02*
X139500000Y-84939339D01*
X162500000Y-87000000D02*
X162900000Y-87000000D01*
X139500000Y-85750000D02*
X138250000Y-84500000D01*
X164500000Y-78750000D02*
X163500000Y-77750000D01*
X156500000Y-81250000D02*
X156400000Y-81350000D01*
X164439339Y-81500000D02*
X164500000Y-81500000D01*
X184810661Y-87000000D02*
X192000000Y-79810661D01*
X143000000Y-78750000D02*
X142000000Y-77750000D01*
D20*
X146400000Y-92000000D02*
X141400000Y-87000000D01*
D19*
X163500000Y-71250000D02*
X164750000Y-70000000D01*
X156500000Y-72750000D02*
X156500000Y-70525000D01*
X135000000Y-81250000D02*
X134900000Y-81350000D01*
X159750000Y-84500000D02*
X156500000Y-81250000D01*
X113500000Y-70525000D02*
X114025000Y-70000000D01*
X178000000Y-81250000D02*
X177900000Y-81350000D01*
X118000000Y-84939339D02*
X121439339Y-81500000D01*
X120500000Y-71250000D02*
X121750000Y-70000000D01*
X185000000Y-72750000D02*
X185000000Y-71250000D01*
X120310661Y-87000000D02*
X127500000Y-79810661D01*
X142939339Y-81500000D02*
X143000000Y-81500000D01*
D20*
X183625000Y-92000000D02*
X167500000Y-92000000D01*
D19*
X134900000Y-81350000D02*
X129400000Y-81350000D01*
D20*
X183625000Y-92000000D02*
X183625000Y-86875000D01*
D19*
X121439339Y-81500000D02*
X121500000Y-81500000D01*
X185939339Y-81500000D02*
X186000000Y-81500000D01*
X149000000Y-79810661D02*
X149000000Y-78000000D01*
X182500000Y-84939339D02*
X185939339Y-81500000D01*
X181250000Y-84500000D02*
X178000000Y-81250000D01*
X177900000Y-81350000D02*
X172400000Y-81350000D01*
X142000000Y-72750000D02*
X142000000Y-71250000D01*
X142000000Y-77750000D02*
X142000000Y-77500000D01*
X116750000Y-84500000D02*
X113500000Y-81250000D01*
D20*
X183625000Y-137125000D02*
X183625000Y-92000000D01*
D19*
X142000000Y-71250000D02*
X143250000Y-70000000D01*
X141400000Y-87000000D02*
X141810661Y-87000000D01*
X127500000Y-79810661D02*
X127500000Y-78000000D01*
X118000000Y-85750000D02*
X116750000Y-84500000D01*
X162900000Y-87000000D02*
X163310661Y-87000000D01*
X185000000Y-71250000D02*
X186250000Y-70000000D01*
D20*
X144920000Y-146720000D02*
X145950000Y-147750000D01*
D19*
X121500000Y-78750000D02*
X120500000Y-77750000D01*
X182500000Y-85750000D02*
X182500000Y-84939339D01*
X139500000Y-84939339D02*
X142939339Y-81500000D01*
X178000000Y-70525000D02*
X178525000Y-70000000D01*
X121500000Y-81500000D02*
X121500000Y-78750000D01*
D20*
X167500000Y-92000000D02*
X162500000Y-87000000D01*
D19*
X113500000Y-72750000D02*
X113500000Y-70525000D01*
X161000000Y-85750000D02*
X161000000Y-84939339D01*
X119900000Y-87000000D02*
X120310661Y-87000000D01*
X183625000Y-86875000D02*
X182500000Y-85750000D01*
X140750000Y-87000000D02*
X139500000Y-85750000D01*
X182500000Y-85750000D02*
X181250000Y-84500000D01*
X156500000Y-70525000D02*
X157025000Y-70000000D01*
D20*
X145950000Y-147750000D02*
X173000000Y-147750000D01*
D19*
X186000000Y-78750000D02*
X185000000Y-77750000D01*
D20*
X173000000Y-147750000D02*
X183625000Y-137125000D01*
D19*
X184400000Y-87000000D02*
X184810661Y-87000000D01*
X178000000Y-72750000D02*
X178000000Y-70525000D01*
X119250000Y-87000000D02*
X118000000Y-85750000D01*
X135000000Y-70525000D02*
X135525000Y-70000000D01*
X183750000Y-87000000D02*
X184400000Y-87000000D01*
D20*
X167500000Y-92000000D02*
X147000000Y-92000000D01*
D19*
X119250000Y-87000000D02*
X119900000Y-87000000D01*
X170500000Y-79810661D02*
X170500000Y-78000000D01*
X120500000Y-77750000D02*
X120500000Y-77500000D01*
G04 #@! TO.N,GND*
X185440000Y-58440000D02*
X185500000Y-58500000D01*
X120940000Y-56760000D02*
X120940000Y-58440000D01*
X163940000Y-56760000D02*
X163940000Y-58440000D01*
X142440000Y-56760000D02*
X142440000Y-58440000D01*
X185440000Y-56760000D02*
X185440000Y-58440000D01*
X142440000Y-58440000D02*
X142500000Y-58500000D01*
X163940000Y-58440000D02*
X164000000Y-58500000D01*
X120940000Y-58440000D02*
X121000000Y-58500000D01*
G04 #@! TO.N,+5V*
X149150000Y-65650000D02*
X149850000Y-66350000D01*
X129900000Y-73550000D02*
X128350000Y-72000000D01*
X192850000Y-72500000D02*
X192850000Y-66350000D01*
X188450000Y-73550000D02*
X171900000Y-73550000D01*
X189500000Y-72500000D02*
X188450000Y-73550000D01*
X150400000Y-73550000D02*
X149850000Y-73000000D01*
X142380000Y-146380000D02*
X142380000Y-145540000D01*
X151000000Y-73550000D02*
X150400000Y-73550000D01*
X171900000Y-73550000D02*
X151000000Y-73550000D01*
X127650000Y-65650000D02*
X128350000Y-66350000D01*
D20*
X192850000Y-72500000D02*
X193500000Y-73150000D01*
D19*
X151000000Y-73550000D02*
X129900000Y-73550000D01*
X192850000Y-66350000D02*
X192150000Y-65650000D01*
X192850000Y-72500000D02*
X189500000Y-72500000D01*
D20*
X193500000Y-132500000D02*
X179000000Y-147000000D01*
D19*
X170650000Y-65650000D02*
X171350000Y-66350000D01*
D20*
X193500000Y-73150000D02*
X193500000Y-132500000D01*
D19*
X171900000Y-73550000D02*
X171350000Y-73000000D01*
X171350000Y-66350000D02*
X171350000Y-73000000D01*
X128350000Y-66350000D02*
X128350000Y-72000000D01*
X149850000Y-66350000D02*
X149850000Y-73000000D01*
G04 #@! TO.N,Net-(FB1-Pad2)*
X191000000Y-60499340D02*
X191000000Y-60750000D01*
X184420000Y-54980000D02*
X185480660Y-54980000D01*
X185480660Y-54980000D02*
X191000000Y-60499340D01*
G04 #@! TO.N,Net-(FB3-Pad2)*
X141420000Y-54980000D02*
X142480660Y-54980000D01*
X142480660Y-54980000D02*
X148000000Y-60499340D01*
X148000000Y-60499340D02*
X148000000Y-60750000D01*
G04 #@! TO.N,Net-(FB4-Pad2)*
X126500000Y-60499340D02*
X126500000Y-60750000D01*
X119920000Y-54980000D02*
X120980660Y-54980000D01*
X120980660Y-54980000D02*
X126500000Y-60499340D01*
D21*
G04 #@! TO.N,/Quadenc2/B*
X158770000Y-139770000D02*
X158770000Y-144150000D01*
X147500000Y-128500000D02*
X158770000Y-139770000D01*
X158770000Y-144150000D02*
X160160000Y-145540000D01*
G04 #@! TO.N,/Quadenc3/A*
X143875000Y-137000000D02*
X148850000Y-141975000D01*
X148850000Y-141975000D02*
X148850000Y-144390000D01*
X143500000Y-137000000D02*
X143875000Y-137000000D01*
X148850000Y-144390000D02*
X150000000Y-145540000D01*
G04 #@! TO.N,+24V*
X139840000Y-145540000D02*
X139840000Y-143000000D01*
G04 #@! TO.N,/Slot/SlotEN*
X137300000Y-145540000D02*
X137300000Y-143000000D01*
G04 #@! TO.N,/Quadenc2/Z*
X161310000Y-144150000D02*
X162700000Y-145540000D01*
X161310000Y-138810000D02*
X161310000Y-144150000D01*
X149000000Y-126500000D02*
X161310000Y-138810000D01*
G04 #@! TO.N,/Quadenc3/B*
X144500000Y-135500000D02*
X151390000Y-142390000D01*
X151390000Y-142390000D02*
X151390000Y-144390000D01*
X151390000Y-144390000D02*
X152540000Y-145540000D01*
G04 #@! TO.N,/Quadenc3/Z*
X153690000Y-144150000D02*
X155080000Y-145540000D01*
X145250000Y-133250000D02*
X153690000Y-141690000D01*
X153690000Y-141690000D02*
X153690000Y-144150000D01*
X145000000Y-133250000D02*
X145250000Y-133250000D01*
G04 #@! TO.N,/Quadenc2/A*
X156470000Y-144390000D02*
X157620000Y-145540000D01*
X146000000Y-130500000D02*
X156470000Y-140970000D01*
X156470000Y-140970000D02*
X156470000Y-144390000D01*
G04 #@! TO.N,Net-(J3-Pad3)*
X155564265Y-57064265D02*
X161175000Y-62675000D01*
G04 #@! TO.N,Net-(J3-Pad4)*
X159860000Y-56760000D02*
X163620000Y-60520000D01*
X163620000Y-60520000D02*
X167770000Y-60520000D01*
X169000000Y-61750000D02*
X169000000Y-62750000D01*
X167770000Y-60520000D02*
X169000000Y-61750000D01*
D19*
G04 #@! TO.N,Net-(J3-PadSH)*
X153465204Y-56000000D02*
X152240000Y-56000000D01*
X163500000Y-53250000D02*
X156215204Y-53250000D01*
X166250000Y-56000000D02*
X163500000Y-53250000D01*
X156215204Y-53250000D02*
X153465204Y-56000000D01*
X168500000Y-56000000D02*
X166250000Y-56000000D01*
D21*
G04 #@! TO.N,Net-(J3-Pad1)*
X154750000Y-57030000D02*
X154750000Y-62500000D01*
X156800000Y-54980000D02*
X154750000Y-57030000D01*
X154750000Y-62500000D02*
X154000000Y-63250000D01*
G04 #@! TO.N,Net-(J4-Pad1)*
X133250000Y-62500000D02*
X132500000Y-63250000D01*
X133250000Y-57030000D02*
X133250000Y-62500000D01*
X135300000Y-54980000D02*
X133250000Y-57030000D01*
G04 #@! TO.N,Net-(J4-Pad4)*
X146270000Y-60520000D02*
X147500000Y-61750000D01*
X142120000Y-60520000D02*
X146270000Y-60520000D01*
X147500000Y-61750000D02*
X147500000Y-62750000D01*
X138360000Y-56760000D02*
X142120000Y-60520000D01*
D19*
G04 #@! TO.N,Net-(J4-PadSH)*
X147000000Y-56000000D02*
X144750000Y-56000000D01*
X134715204Y-53250000D02*
X131965204Y-56000000D01*
X131965204Y-56000000D02*
X130740000Y-56000000D01*
X144750000Y-56000000D02*
X142000000Y-53250000D01*
X142000000Y-53250000D02*
X134715204Y-53250000D01*
D21*
G04 #@! TO.N,Net-(J4-Pad3)*
X134064265Y-57064265D02*
X139675000Y-62675000D01*
G04 #@! TO.N,Net-(J5-Pad1)*
X111750000Y-57030000D02*
X111750000Y-62500000D01*
X113800000Y-54980000D02*
X111750000Y-57030000D01*
X111750000Y-62500000D02*
X111000000Y-63250000D01*
D19*
G04 #@! TO.N,Net-(J5-PadSH)*
X113215204Y-53250000D02*
X110465204Y-56000000D01*
X123250000Y-56000000D02*
X120500000Y-53250000D01*
X110465204Y-56000000D02*
X109240000Y-56000000D01*
X125500000Y-56000000D02*
X123250000Y-56000000D01*
X120500000Y-53250000D02*
X113215204Y-53250000D01*
D21*
G04 #@! TO.N,Net-(J5-Pad4)*
X120620000Y-60520000D02*
X124770000Y-60520000D01*
X124770000Y-60520000D02*
X126000000Y-61750000D01*
X116860000Y-56760000D02*
X120620000Y-60520000D01*
X126000000Y-61750000D02*
X126000000Y-62750000D01*
G04 #@! TO.N,Net-(J5-Pad3)*
X112564265Y-57064265D02*
X118175000Y-62675000D01*
D19*
G04 #@! TO.N,Net-(FB2-Pad2)*
X163980660Y-54980000D02*
X169500000Y-60499340D01*
X162920000Y-54980000D02*
X163980660Y-54980000D01*
X169500000Y-60499340D02*
X169500000Y-60750000D01*
D21*
G04 #@! TO.N,Net-(J1-Pad3)*
X177064265Y-57064265D02*
X182675000Y-62675000D01*
D19*
G04 #@! TO.N,Net-(J1-PadSH)*
X187750000Y-56000000D02*
X185000000Y-53250000D01*
X174965204Y-56000000D02*
X173740000Y-56000000D01*
X185000000Y-53250000D02*
X177715204Y-53250000D01*
X190000000Y-56000000D02*
X187750000Y-56000000D01*
X177715204Y-53250000D02*
X174965204Y-56000000D01*
D21*
G04 #@! TO.N,Net-(J1-Pad4)*
X185120000Y-60520000D02*
X189270000Y-60520000D01*
X189270000Y-60520000D02*
X190500000Y-61750000D01*
X181360000Y-56760000D02*
X185120000Y-60520000D01*
X190500000Y-61750000D02*
X190500000Y-62750000D01*
G04 #@! TO.N,Net-(J1-Pad1)*
X176250000Y-57030000D02*
X176250000Y-62500000D01*
X178300000Y-54980000D02*
X176250000Y-57030000D01*
X176250000Y-62500000D02*
X175500000Y-63250000D01*
G04 #@! TD*
G04 #@! TA.AperFunction,Conductor*
G04 #@! TO.N,GND*
G36*
X135010000Y-145106988D02*
G01*
X134952993Y-145074075D01*
X134825826Y-145040000D01*
X134694174Y-145040000D01*
X134567007Y-145074075D01*
X134510000Y-145106988D01*
X134510000Y-143433012D01*
X134567007Y-143465925D01*
X134694174Y-143500000D01*
X134825826Y-143500000D01*
X134952993Y-143465925D01*
X135010000Y-143433012D01*
X135010000Y-145106988D01*
G37*
G04 #@! TD.AperFunction*
G04 #@! TA.AperFunction,Conductor*
G36*
X147710000Y-145106988D02*
G01*
X147652993Y-145074075D01*
X147525826Y-145040000D01*
X147394174Y-145040000D01*
X147267007Y-145074075D01*
X147210000Y-145106988D01*
X147210000Y-143433012D01*
X147267007Y-143465925D01*
X147394174Y-143500000D01*
X147525826Y-143500000D01*
X147652993Y-143465925D01*
X147710000Y-143433012D01*
X147710000Y-145106988D01*
G37*
G04 #@! TD.AperFunction*
G04 #@! TA.AperFunction,Conductor*
G36*
X165490000Y-145106988D02*
G01*
X165432993Y-145074075D01*
X165305826Y-145040000D01*
X165174174Y-145040000D01*
X165047007Y-145074075D01*
X164990000Y-145106988D01*
X164990000Y-143433012D01*
X165047007Y-143465925D01*
X165174174Y-143500000D01*
X165305826Y-143500000D01*
X165432993Y-143465925D01*
X165490000Y-143433012D01*
X165490000Y-145106988D01*
G37*
G04 #@! TD.AperFunction*
G04 #@! TA.AperFunction,Conductor*
G36*
X131745098Y-50520185D02*
G01*
X131790853Y-50572989D01*
X131800797Y-50642147D01*
X131771772Y-50705703D01*
X131725512Y-50739061D01*
X131688714Y-50754303D01*
X131688705Y-50754307D01*
X131475787Y-50877236D01*
X131280745Y-51026897D01*
X131280738Y-51026903D01*
X131106903Y-51200738D01*
X131106897Y-51200745D01*
X130957236Y-51395787D01*
X130834307Y-51608705D01*
X130834303Y-51608714D01*
X130740225Y-51835837D01*
X130740222Y-51835847D01*
X130676592Y-52073320D01*
X130676590Y-52073331D01*
X130644500Y-52317065D01*
X130644500Y-52562934D01*
X130671227Y-52765939D01*
X130676591Y-52806677D01*
X130740222Y-53044152D01*
X130740225Y-53044162D01*
X130788794Y-53161417D01*
X130834306Y-53271292D01*
X130957233Y-53484208D01*
X130957235Y-53484211D01*
X130957236Y-53484212D01*
X131106897Y-53679254D01*
X131106903Y-53679261D01*
X131280738Y-53853096D01*
X131280744Y-53853101D01*
X131475792Y-54002767D01*
X131688708Y-54125694D01*
X131915847Y-54219778D01*
X132153323Y-54283409D01*
X132316791Y-54304930D01*
X132380686Y-54333197D01*
X132419157Y-54391521D01*
X132419988Y-54461386D01*
X132388285Y-54515550D01*
X132183481Y-54720354D01*
X132122158Y-54753839D01*
X132052466Y-54748855D01*
X132011459Y-54723571D01*
X131865745Y-54588368D01*
X131758941Y-54515550D01*
X131642775Y-54436349D01*
X131642769Y-54436346D01*
X131642768Y-54436345D01*
X131642767Y-54436344D01*
X131399643Y-54319263D01*
X131399645Y-54319263D01*
X131141773Y-54239720D01*
X131141767Y-54239718D01*
X130874936Y-54199500D01*
X130874929Y-54199500D01*
X130605071Y-54199500D01*
X130605063Y-54199500D01*
X130338232Y-54239718D01*
X130338226Y-54239720D01*
X130080358Y-54319262D01*
X129837230Y-54436346D01*
X129614258Y-54588365D01*
X129416442Y-54771910D01*
X129248185Y-54982898D01*
X129113258Y-55216599D01*
X129113256Y-55216603D01*
X129014666Y-55467804D01*
X129014664Y-55467811D01*
X128954616Y-55730898D01*
X128934451Y-55999995D01*
X128934451Y-56000004D01*
X128954616Y-56269101D01*
X129014664Y-56532188D01*
X129014666Y-56532195D01*
X129113256Y-56783396D01*
X129113258Y-56783400D01*
X129129964Y-56812335D01*
X129248185Y-57017102D01*
X129373845Y-57174674D01*
X129416442Y-57228089D01*
X129552615Y-57354438D01*
X129614259Y-57411635D01*
X129837226Y-57563651D01*
X130080359Y-57680738D01*
X130338228Y-57760280D01*
X130338229Y-57760280D01*
X130338232Y-57760281D01*
X130605063Y-57800499D01*
X130605068Y-57800499D01*
X130605071Y-57800500D01*
X130605072Y-57800500D01*
X130874928Y-57800500D01*
X130874929Y-57800500D01*
X130939139Y-57790822D01*
X131141767Y-57760281D01*
X131141768Y-57760280D01*
X131141772Y-57760280D01*
X131399641Y-57680738D01*
X131642775Y-57563651D01*
X131865741Y-57411635D01*
X132063561Y-57228085D01*
X132231815Y-57017102D01*
X132366743Y-56783398D01*
X132437119Y-56604081D01*
X132464863Y-56561707D01*
X133862223Y-55164346D01*
X133923544Y-55130863D01*
X133993236Y-55135847D01*
X134049169Y-55177719D01*
X134069677Y-55219937D01*
X134080976Y-55262107D01*
X134079313Y-55331956D01*
X134048882Y-55381880D01*
X132881286Y-56549478D01*
X132769481Y-56661282D01*
X132769480Y-56661284D01*
X132727485Y-56734022D01*
X132690423Y-56798215D01*
X132649499Y-56950943D01*
X132649499Y-56950945D01*
X132649499Y-57119046D01*
X132649500Y-57119059D01*
X132649500Y-60293788D01*
X132629815Y-60360827D01*
X132577011Y-60406582D01*
X132507853Y-60416526D01*
X132473095Y-60406170D01*
X132439330Y-60390425D01*
X132439326Y-60390424D01*
X132439322Y-60390422D01*
X132227977Y-60333793D01*
X132010002Y-60314723D01*
X132009998Y-60314723D01*
X131864682Y-60327436D01*
X131792023Y-60333793D01*
X131792020Y-60333793D01*
X131580677Y-60390422D01*
X131580668Y-60390426D01*
X131382361Y-60482898D01*
X131382357Y-60482900D01*
X131203121Y-60608402D01*
X131048402Y-60763121D01*
X130922900Y-60942357D01*
X130922898Y-60942361D01*
X130830426Y-61140668D01*
X130830422Y-61140677D01*
X130773793Y-61352020D01*
X130773793Y-61352023D01*
X130769025Y-61406517D01*
X130754723Y-61569997D01*
X130754723Y-61570002D01*
X130773793Y-61787975D01*
X130773793Y-61787979D01*
X130830422Y-61999322D01*
X130830424Y-61999326D01*
X130830425Y-61999330D01*
X130840500Y-62020935D01*
X130922897Y-62197638D01*
X130937450Y-62218422D01*
X131048402Y-62376877D01*
X131203123Y-62531598D01*
X131382361Y-62657102D01*
X131580670Y-62749575D01*
X131676810Y-62775335D01*
X131736469Y-62811699D01*
X131766999Y-62874546D01*
X131761758Y-62936064D01*
X131714632Y-63070742D01*
X131714630Y-63070750D01*
X131694435Y-63249996D01*
X131694435Y-63250003D01*
X131714630Y-63429249D01*
X131714631Y-63429254D01*
X131774211Y-63599523D01*
X131870184Y-63752262D01*
X131997738Y-63879816D01*
X132150478Y-63975789D01*
X132320745Y-64035368D01*
X132320750Y-64035369D01*
X132499996Y-64055565D01*
X132500000Y-64055565D01*
X132500004Y-64055565D01*
X132679249Y-64035369D01*
X132679252Y-64035368D01*
X132679255Y-64035368D01*
X132849522Y-63975789D01*
X133002262Y-63879816D01*
X133129816Y-63752262D01*
X133225789Y-63599522D01*
X133285368Y-63429255D01*
X133295161Y-63342329D01*
X133322226Y-63277918D01*
X133330690Y-63268543D01*
X133618713Y-62980521D01*
X133618716Y-62980520D01*
X133730520Y-62868716D01*
X133761292Y-62815414D01*
X133811855Y-62767201D01*
X133880462Y-62753976D01*
X133900762Y-62757638D01*
X134082023Y-62806207D01*
X134269787Y-62822633D01*
X134299998Y-62825277D01*
X134300000Y-62825277D01*
X134300002Y-62825277D01*
X134328254Y-62822805D01*
X134517977Y-62806207D01*
X134729330Y-62749575D01*
X134927639Y-62657102D01*
X135106877Y-62531598D01*
X135261598Y-62376877D01*
X135387102Y-62197639D01*
X135479575Y-61999330D01*
X135536207Y-61787977D01*
X135555277Y-61570000D01*
X135536207Y-61352023D01*
X135479575Y-61140670D01*
X135387102Y-60942362D01*
X135387100Y-60942359D01*
X135387099Y-60942357D01*
X135261599Y-60763124D01*
X135248471Y-60749996D01*
X135106877Y-60608402D01*
X134927639Y-60482898D01*
X134927640Y-60482898D01*
X134927638Y-60482897D01*
X134804375Y-60425419D01*
X134729330Y-60390425D01*
X134729326Y-60390424D01*
X134729322Y-60390422D01*
X134517977Y-60333793D01*
X134300002Y-60314723D01*
X134299998Y-60314723D01*
X134154682Y-60327436D01*
X134082023Y-60333793D01*
X134082020Y-60333793D01*
X134006593Y-60354004D01*
X133936743Y-60352341D01*
X133878881Y-60313178D01*
X133851377Y-60248949D01*
X133850500Y-60234229D01*
X133850500Y-57999097D01*
X133870185Y-57932058D01*
X133922989Y-57886303D01*
X133992147Y-57876359D01*
X134055703Y-57905384D01*
X134062181Y-57911416D01*
X138844298Y-62693534D01*
X138877783Y-62754857D01*
X138879837Y-62767331D01*
X138889630Y-62854249D01*
X138889631Y-62854254D01*
X138889632Y-62854255D01*
X138896732Y-62874546D01*
X138949210Y-63024521D01*
X138996337Y-63099523D01*
X139045184Y-63177262D01*
X139172738Y-63304816D01*
X139325478Y-63400789D01*
X139495745Y-63460368D01*
X139495750Y-63460369D01*
X139674996Y-63480565D01*
X139675000Y-63480565D01*
X139675004Y-63480565D01*
X139854249Y-63460369D01*
X139854252Y-63460368D01*
X139854255Y-63460368D01*
X140024522Y-63400789D01*
X140177262Y-63304816D01*
X140304816Y-63177262D01*
X140400789Y-63024522D01*
X140460368Y-62854255D01*
X140471254Y-62757640D01*
X140480565Y-62675003D01*
X140480565Y-62674996D01*
X140460369Y-62495750D01*
X140460368Y-62495745D01*
X140400789Y-62325478D01*
X140304816Y-62172738D01*
X140177262Y-62045184D01*
X140138670Y-62020935D01*
X140024521Y-61949210D01*
X139854249Y-61889630D01*
X139767331Y-61879837D01*
X139702917Y-61852770D01*
X139693534Y-61844298D01*
X137993074Y-60143838D01*
X136061742Y-58212507D01*
X136028258Y-58151185D01*
X136033242Y-58081493D01*
X136075114Y-58025560D01*
X136140578Y-58001143D01*
X136160225Y-58001298D01*
X136271566Y-58011039D01*
X136319998Y-58015277D01*
X136320000Y-58015277D01*
X136320002Y-58015277D01*
X136348254Y-58012805D01*
X136537977Y-57996207D01*
X136749330Y-57939575D01*
X136947639Y-57847102D01*
X137126877Y-57721598D01*
X137252319Y-57596156D01*
X137313642Y-57562671D01*
X137383334Y-57567655D01*
X137427681Y-57596156D01*
X137553123Y-57721598D01*
X137732361Y-57847102D01*
X137930670Y-57939575D01*
X138142023Y-57996207D01*
X138312450Y-58011117D01*
X138359998Y-58015277D01*
X138360000Y-58015277D01*
X138360002Y-58015277D01*
X138388254Y-58012805D01*
X138577977Y-57996207D01*
X138642108Y-57979023D01*
X138711957Y-57980686D01*
X138761882Y-58011117D01*
X141635139Y-60884374D01*
X141635149Y-60884385D01*
X141639479Y-60888715D01*
X141639480Y-60888716D01*
X141751284Y-61000520D01*
X141838095Y-61050639D01*
X141838097Y-61050641D01*
X141876151Y-61072611D01*
X141888215Y-61079577D01*
X142040943Y-61120501D01*
X142040946Y-61120501D01*
X142104229Y-61120501D01*
X142171268Y-61140186D01*
X142217023Y-61192990D01*
X142226967Y-61262148D01*
X142224004Y-61276594D01*
X142203793Y-61352020D01*
X142203793Y-61352023D01*
X142199025Y-61406517D01*
X142184723Y-61569997D01*
X142184723Y-61570002D01*
X142203793Y-61787975D01*
X142203793Y-61787979D01*
X142260422Y-61999322D01*
X142260424Y-61999326D01*
X142260425Y-61999330D01*
X142270500Y-62020935D01*
X142352897Y-62197638D01*
X142367450Y-62218422D01*
X142478402Y-62376877D01*
X142633123Y-62531598D01*
X142812361Y-62657102D01*
X143010670Y-62749575D01*
X143010676Y-62749576D01*
X143010677Y-62749577D01*
X143040769Y-62757640D01*
X143222023Y-62806207D01*
X143404926Y-62822208D01*
X143439998Y-62825277D01*
X143440000Y-62825277D01*
X143440002Y-62825277D01*
X143468254Y-62822805D01*
X143657977Y-62806207D01*
X143869330Y-62749575D01*
X144067639Y-62657102D01*
X144246877Y-62531598D01*
X144401598Y-62376877D01*
X144483426Y-62260013D01*
X144538002Y-62216390D01*
X144607501Y-62209198D01*
X144669855Y-62240720D01*
X144686570Y-62260010D01*
X144768402Y-62376877D01*
X144923123Y-62531598D01*
X145102361Y-62657102D01*
X145300670Y-62749575D01*
X145300676Y-62749576D01*
X145300677Y-62749577D01*
X145330769Y-62757640D01*
X145512023Y-62806207D01*
X145694926Y-62822208D01*
X145729998Y-62825277D01*
X145730000Y-62825277D01*
X145730002Y-62825277D01*
X145758254Y-62822805D01*
X145947977Y-62806207D01*
X146159330Y-62749575D01*
X146357639Y-62657102D01*
X146509535Y-62550742D01*
X146575738Y-62528416D01*
X146643505Y-62545426D01*
X146691318Y-62596373D01*
X146703997Y-62665083D01*
X146703876Y-62666201D01*
X146694435Y-62749995D01*
X146694435Y-62750003D01*
X146714630Y-62929249D01*
X146714631Y-62929254D01*
X146774211Y-63099523D01*
X146823058Y-63177262D01*
X146870184Y-63252262D01*
X146997738Y-63379816D01*
X147076410Y-63429249D01*
X147125935Y-63460368D01*
X147150478Y-63475789D01*
X147320745Y-63535368D01*
X147320750Y-63535369D01*
X147499996Y-63555565D01*
X147500000Y-63555565D01*
X147500004Y-63555565D01*
X147679249Y-63535369D01*
X147679252Y-63535368D01*
X147679255Y-63535368D01*
X147849522Y-63475789D01*
X148002262Y-63379816D01*
X148129816Y-63252262D01*
X148225789Y-63099522D01*
X148285368Y-62929255D01*
X148285369Y-62929249D01*
X148305565Y-62750003D01*
X148305565Y-62749996D01*
X148285369Y-62570750D01*
X148285368Y-62570745D01*
X148225788Y-62400476D01*
X148129813Y-62247734D01*
X148127550Y-62244896D01*
X148126659Y-62242715D01*
X148126111Y-62241842D01*
X148126264Y-62241745D01*
X148101144Y-62180209D01*
X148100500Y-62167587D01*
X148100500Y-61839060D01*
X148100501Y-61839047D01*
X148100501Y-61670947D01*
X148100501Y-61670943D01*
X148100499Y-61670939D01*
X148100063Y-61667621D01*
X148100501Y-61664811D01*
X148100501Y-61662815D01*
X148100812Y-61662815D01*
X148110827Y-61598586D01*
X148157205Y-61546328D01*
X148182042Y-61534392D01*
X148349522Y-61475789D01*
X148502262Y-61379816D01*
X148629816Y-61252262D01*
X148725789Y-61099522D01*
X148785368Y-60929255D01*
X148790425Y-60884374D01*
X148805565Y-60750003D01*
X148805565Y-60749996D01*
X148785368Y-60570747D01*
X148785368Y-60570745D01*
X148757458Y-60490982D01*
X148750500Y-60450028D01*
X148750500Y-60425419D01*
X148721659Y-60280432D01*
X148721658Y-60280431D01*
X148721658Y-60280427D01*
X148721656Y-60280422D01*
X148665087Y-60143851D01*
X148665080Y-60143838D01*
X148582952Y-60020925D01*
X148582951Y-60020924D01*
X148478416Y-59916389D01*
X146539797Y-57977770D01*
X146506312Y-57916447D01*
X146511296Y-57846755D01*
X146553168Y-57790822D01*
X146618632Y-57766405D01*
X146645956Y-57767473D01*
X146865071Y-57800500D01*
X146865072Y-57800500D01*
X147134928Y-57800500D01*
X147134929Y-57800500D01*
X147199139Y-57790822D01*
X147401767Y-57760281D01*
X147401768Y-57760280D01*
X147401772Y-57760280D01*
X147659641Y-57680738D01*
X147902775Y-57563651D01*
X148125741Y-57411635D01*
X148323561Y-57228085D01*
X148491815Y-57017102D01*
X148626743Y-56783398D01*
X148725334Y-56532195D01*
X148785383Y-56269103D01*
X148805549Y-56000000D01*
X148801172Y-55941598D01*
X148785383Y-55730898D01*
X148775021Y-55685499D01*
X148725334Y-55467805D01*
X148626743Y-55216602D01*
X148491815Y-54982898D01*
X148323561Y-54771915D01*
X148323560Y-54771914D01*
X148323557Y-54771910D01*
X148125741Y-54588365D01*
X147939497Y-54461386D01*
X147902775Y-54436349D01*
X147902769Y-54436346D01*
X147902768Y-54436345D01*
X147902767Y-54436344D01*
X147659643Y-54319263D01*
X147659645Y-54319263D01*
X147401773Y-54239720D01*
X147401767Y-54239718D01*
X147134936Y-54199500D01*
X147134929Y-54199500D01*
X146865071Y-54199500D01*
X146865063Y-54199500D01*
X146598232Y-54239718D01*
X146598226Y-54239720D01*
X146340358Y-54319262D01*
X146097230Y-54436346D01*
X145874258Y-54588365D01*
X145676442Y-54771910D01*
X145508185Y-54982898D01*
X145390059Y-55187500D01*
X145339492Y-55235715D01*
X145282672Y-55249500D01*
X145112229Y-55249500D01*
X145045190Y-55229815D01*
X145024548Y-55213181D01*
X143959189Y-54147821D01*
X143925704Y-54086498D01*
X143930688Y-54016806D01*
X143972560Y-53960873D01*
X144038024Y-53936456D01*
X144106297Y-53951308D01*
X144122350Y-53961759D01*
X144175792Y-54002767D01*
X144388708Y-54125694D01*
X144615847Y-54219778D01*
X144853323Y-54283409D01*
X145097073Y-54315500D01*
X145097080Y-54315500D01*
X145342920Y-54315500D01*
X145342927Y-54315500D01*
X145586677Y-54283409D01*
X145824153Y-54219778D01*
X146051292Y-54125694D01*
X146264208Y-54002767D01*
X146459256Y-53853101D01*
X146633101Y-53679256D01*
X146782767Y-53484208D01*
X146905694Y-53271292D01*
X146999778Y-53044153D01*
X147063409Y-52806677D01*
X147095500Y-52562927D01*
X147095500Y-52317073D01*
X147063409Y-52073323D01*
X146999778Y-51835847D01*
X146905694Y-51608708D01*
X146782767Y-51395792D01*
X146721030Y-51315335D01*
X146633102Y-51200745D01*
X146633096Y-51200738D01*
X146459261Y-51026903D01*
X146459254Y-51026897D01*
X146264212Y-50877236D01*
X146264211Y-50877235D01*
X146264208Y-50877233D01*
X146051292Y-50754306D01*
X146051285Y-50754303D01*
X146014488Y-50739061D01*
X145960085Y-50695220D01*
X145938020Y-50628926D01*
X145955299Y-50561227D01*
X146006436Y-50513616D01*
X146061941Y-50500500D01*
X153178059Y-50500500D01*
X153245098Y-50520185D01*
X153290853Y-50572989D01*
X153300797Y-50642147D01*
X153271772Y-50705703D01*
X153225512Y-50739061D01*
X153188714Y-50754303D01*
X153188705Y-50754307D01*
X152975787Y-50877236D01*
X152780745Y-51026897D01*
X152780738Y-51026903D01*
X152606903Y-51200738D01*
X152606897Y-51200745D01*
X152457236Y-51395787D01*
X152334307Y-51608705D01*
X152334303Y-51608714D01*
X152240225Y-51835837D01*
X152240222Y-51835847D01*
X152176592Y-52073320D01*
X152176590Y-52073331D01*
X152144500Y-52317065D01*
X152144500Y-52562934D01*
X152171227Y-52765939D01*
X152176591Y-52806677D01*
X152240222Y-53044152D01*
X152240225Y-53044162D01*
X152288794Y-53161417D01*
X152334306Y-53271292D01*
X152457233Y-53484208D01*
X152457235Y-53484211D01*
X152457236Y-53484212D01*
X152606897Y-53679254D01*
X152606903Y-53679261D01*
X152780738Y-53853096D01*
X152780744Y-53853101D01*
X152975792Y-54002767D01*
X153188708Y-54125694D01*
X153415847Y-54219778D01*
X153653323Y-54283409D01*
X153816791Y-54304930D01*
X153880686Y-54333197D01*
X153919157Y-54391521D01*
X153919988Y-54461386D01*
X153888285Y-54515550D01*
X153683481Y-54720354D01*
X153622158Y-54753839D01*
X153552466Y-54748855D01*
X153511459Y-54723571D01*
X153365745Y-54588368D01*
X153258941Y-54515550D01*
X153142775Y-54436349D01*
X153142769Y-54436346D01*
X153142768Y-54436345D01*
X153142767Y-54436344D01*
X152899643Y-54319263D01*
X152899645Y-54319263D01*
X152641773Y-54239720D01*
X152641767Y-54239718D01*
X152374936Y-54199500D01*
X152374929Y-54199500D01*
X152105071Y-54199500D01*
X152105063Y-54199500D01*
X151838232Y-54239718D01*
X151838226Y-54239720D01*
X151580358Y-54319262D01*
X151337230Y-54436346D01*
X151114258Y-54588365D01*
X150916442Y-54771910D01*
X150748185Y-54982898D01*
X150613258Y-55216599D01*
X150613256Y-55216603D01*
X150514666Y-55467804D01*
X150514664Y-55467811D01*
X150454616Y-55730898D01*
X150434451Y-55999995D01*
X150434451Y-56000004D01*
X150454616Y-56269101D01*
X150514664Y-56532188D01*
X150514666Y-56532195D01*
X150613256Y-56783396D01*
X150613258Y-56783400D01*
X150629964Y-56812335D01*
X150748185Y-57017102D01*
X150873845Y-57174674D01*
X150916442Y-57228089D01*
X151052615Y-57354438D01*
X151114259Y-57411635D01*
X151337226Y-57563651D01*
X151580359Y-57680738D01*
X151838228Y-57760280D01*
X151838229Y-57760280D01*
X151838232Y-57760281D01*
X152105063Y-57800499D01*
X152105068Y-57800499D01*
X152105071Y-57800500D01*
X152105072Y-57800500D01*
X152374928Y-57800500D01*
X152374929Y-57800500D01*
X152439139Y-57790822D01*
X152641767Y-57760281D01*
X152641768Y-57760280D01*
X152641772Y-57760280D01*
X152899641Y-57680738D01*
X153142775Y-57563651D01*
X153365741Y-57411635D01*
X153563561Y-57228085D01*
X153731815Y-57017102D01*
X153866743Y-56783398D01*
X153937119Y-56604081D01*
X153964863Y-56561707D01*
X155362223Y-55164346D01*
X155423544Y-55130863D01*
X155493236Y-55135847D01*
X155549169Y-55177719D01*
X155569677Y-55219937D01*
X155580976Y-55262107D01*
X155579313Y-55331956D01*
X155548882Y-55381880D01*
X154381286Y-56549478D01*
X154269481Y-56661282D01*
X154269480Y-56661284D01*
X154227485Y-56734022D01*
X154190423Y-56798215D01*
X154149499Y-56950943D01*
X154149499Y-56950945D01*
X154149499Y-57119046D01*
X154149500Y-57119059D01*
X154149500Y-60293788D01*
X154129815Y-60360827D01*
X154077011Y-60406582D01*
X154007853Y-60416526D01*
X153973095Y-60406170D01*
X153939330Y-60390425D01*
X153939326Y-60390424D01*
X153939322Y-60390422D01*
X153727977Y-60333793D01*
X153510002Y-60314723D01*
X153509998Y-60314723D01*
X153364682Y-60327436D01*
X153292023Y-60333793D01*
X153292020Y-60333793D01*
X153080677Y-60390422D01*
X153080668Y-60390426D01*
X152882361Y-60482898D01*
X152882357Y-60482900D01*
X152703121Y-60608402D01*
X152548402Y-60763121D01*
X152422900Y-60942357D01*
X152422898Y-60942361D01*
X152330426Y-61140668D01*
X152330422Y-61140677D01*
X152273793Y-61352020D01*
X152273793Y-61352023D01*
X152269025Y-61406517D01*
X152254723Y-61569997D01*
X152254723Y-61570002D01*
X152273793Y-61787975D01*
X152273793Y-61787979D01*
X152330422Y-61999322D01*
X152330424Y-61999326D01*
X152330425Y-61999330D01*
X152340500Y-62020935D01*
X152422897Y-62197638D01*
X152437450Y-62218422D01*
X152548402Y-62376877D01*
X152703123Y-62531598D01*
X152882361Y-62657102D01*
X153080670Y-62749575D01*
X153176810Y-62775335D01*
X153236469Y-62811699D01*
X153266999Y-62874546D01*
X153261758Y-62936064D01*
X153214632Y-63070742D01*
X153214630Y-63070750D01*
X153194435Y-63249996D01*
X153194435Y-63250003D01*
X153214630Y-63429249D01*
X153214631Y-63429254D01*
X153274211Y-63599523D01*
X153370184Y-63752262D01*
X153497738Y-63879816D01*
X153650478Y-63975789D01*
X153820745Y-64035368D01*
X153820750Y-64035369D01*
X153999996Y-64055565D01*
X154000000Y-64055565D01*
X154000004Y-64055565D01*
X154179249Y-64035369D01*
X154179252Y-64035368D01*
X154179255Y-64035368D01*
X154349522Y-63975789D01*
X154502262Y-63879816D01*
X154629816Y-63752262D01*
X154725789Y-63599522D01*
X154785368Y-63429255D01*
X154795161Y-63342329D01*
X154822226Y-63277918D01*
X154830690Y-63268543D01*
X155118713Y-62980521D01*
X155118716Y-62980520D01*
X155230520Y-62868716D01*
X155261292Y-62815414D01*
X155311855Y-62767201D01*
X155380462Y-62753976D01*
X155400762Y-62757638D01*
X155582023Y-62806207D01*
X155769787Y-62822633D01*
X155799998Y-62825277D01*
X155800000Y-62825277D01*
X155800002Y-62825277D01*
X155828254Y-62822805D01*
X156017977Y-62806207D01*
X156229330Y-62749575D01*
X156427639Y-62657102D01*
X156606877Y-62531598D01*
X156761598Y-62376877D01*
X156887102Y-62197639D01*
X156979575Y-61999330D01*
X157036207Y-61787977D01*
X157055277Y-61570000D01*
X157036207Y-61352023D01*
X156979575Y-61140670D01*
X156887102Y-60942362D01*
X156887100Y-60942359D01*
X156887099Y-60942357D01*
X156761599Y-60763124D01*
X156748471Y-60749996D01*
X156606877Y-60608402D01*
X156427639Y-60482898D01*
X156427640Y-60482898D01*
X156427638Y-60482897D01*
X156304375Y-60425419D01*
X156229330Y-60390425D01*
X156229326Y-60390424D01*
X156229322Y-60390422D01*
X156017977Y-60333793D01*
X155800002Y-60314723D01*
X155799998Y-60314723D01*
X155654682Y-60327436D01*
X155582023Y-60333793D01*
X155582020Y-60333793D01*
X155506593Y-60354004D01*
X155436743Y-60352341D01*
X155378881Y-60313178D01*
X155351377Y-60248949D01*
X155350500Y-60234229D01*
X155350500Y-57999097D01*
X155370185Y-57932058D01*
X155422989Y-57886303D01*
X155492147Y-57876359D01*
X155555703Y-57905384D01*
X155562181Y-57911416D01*
X160344298Y-62693534D01*
X160377783Y-62754857D01*
X160379837Y-62767331D01*
X160389630Y-62854249D01*
X160389631Y-62854254D01*
X160389632Y-62854255D01*
X160396732Y-62874546D01*
X160449210Y-63024521D01*
X160496337Y-63099523D01*
X160545184Y-63177262D01*
X160672738Y-63304816D01*
X160825478Y-63400789D01*
X160995745Y-63460368D01*
X160995750Y-63460369D01*
X161174996Y-63480565D01*
X161175000Y-63480565D01*
X161175004Y-63480565D01*
X161354249Y-63460369D01*
X161354252Y-63460368D01*
X161354255Y-63460368D01*
X161524522Y-63400789D01*
X161677262Y-63304816D01*
X161804816Y-63177262D01*
X161900789Y-63024522D01*
X161960368Y-62854255D01*
X161971254Y-62757640D01*
X161980565Y-62675003D01*
X161980565Y-62674996D01*
X161960369Y-62495750D01*
X161960368Y-62495745D01*
X161900789Y-62325478D01*
X161804816Y-62172738D01*
X161677262Y-62045184D01*
X161638670Y-62020935D01*
X161524521Y-61949210D01*
X161354249Y-61889630D01*
X161267331Y-61879837D01*
X161202917Y-61852770D01*
X161193534Y-61844298D01*
X159493074Y-60143838D01*
X157561742Y-58212507D01*
X157528258Y-58151185D01*
X157533242Y-58081493D01*
X157575114Y-58025560D01*
X157640578Y-58001143D01*
X157660225Y-58001298D01*
X157771566Y-58011039D01*
X157819998Y-58015277D01*
X157820000Y-58015277D01*
X157820002Y-58015277D01*
X157848254Y-58012805D01*
X158037977Y-57996207D01*
X158249330Y-57939575D01*
X158447639Y-57847102D01*
X158626877Y-57721598D01*
X158752319Y-57596156D01*
X158813642Y-57562671D01*
X158883334Y-57567655D01*
X158927681Y-57596156D01*
X159053123Y-57721598D01*
X159232361Y-57847102D01*
X159430670Y-57939575D01*
X159642023Y-57996207D01*
X159812450Y-58011117D01*
X159859998Y-58015277D01*
X159860000Y-58015277D01*
X159860002Y-58015277D01*
X159888254Y-58012805D01*
X160077977Y-57996207D01*
X160142108Y-57979023D01*
X160211957Y-57980686D01*
X160261882Y-58011117D01*
X163135139Y-60884374D01*
X163135149Y-60884385D01*
X163139479Y-60888715D01*
X163139480Y-60888716D01*
X163251284Y-61000520D01*
X163338095Y-61050639D01*
X163338097Y-61050641D01*
X163376151Y-61072611D01*
X163388215Y-61079577D01*
X163540943Y-61120501D01*
X163540946Y-61120501D01*
X163604229Y-61120501D01*
X163671268Y-61140186D01*
X163717023Y-61192990D01*
X163726967Y-61262148D01*
X163724004Y-61276594D01*
X163703793Y-61352020D01*
X163703793Y-61352023D01*
X163699025Y-61406517D01*
X163684723Y-61569997D01*
X163684723Y-61570002D01*
X163703793Y-61787975D01*
X163703793Y-61787979D01*
X163760422Y-61999322D01*
X163760424Y-61999326D01*
X163760425Y-61999330D01*
X163770500Y-62020935D01*
X163852897Y-62197638D01*
X163867450Y-62218422D01*
X163978402Y-62376877D01*
X164133123Y-62531598D01*
X164312361Y-62657102D01*
X164510670Y-62749575D01*
X164510676Y-62749576D01*
X164510677Y-62749577D01*
X164540769Y-62757640D01*
X164722023Y-62806207D01*
X164904926Y-62822208D01*
X164939998Y-62825277D01*
X164940000Y-62825277D01*
X164940002Y-62825277D01*
X164968254Y-62822805D01*
X165157977Y-62806207D01*
X165369330Y-62749575D01*
X165567639Y-62657102D01*
X165746877Y-62531598D01*
X165901598Y-62376877D01*
X165983426Y-62260013D01*
X166038002Y-62216390D01*
X166107501Y-62209198D01*
X166169855Y-62240720D01*
X166186570Y-62260010D01*
X166268402Y-62376877D01*
X166423123Y-62531598D01*
X166602361Y-62657102D01*
X166800670Y-62749575D01*
X166800676Y-62749576D01*
X166800677Y-62749577D01*
X166830769Y-62757640D01*
X167012023Y-62806207D01*
X167194926Y-62822208D01*
X167229998Y-62825277D01*
X167230000Y-62825277D01*
X167230002Y-62825277D01*
X167258254Y-62822805D01*
X167447977Y-62806207D01*
X167659330Y-62749575D01*
X167857639Y-62657102D01*
X168009535Y-62550742D01*
X168075738Y-62528416D01*
X168143505Y-62545426D01*
X168191318Y-62596373D01*
X168203997Y-62665083D01*
X168203876Y-62666201D01*
X168194435Y-62749995D01*
X168194435Y-62750003D01*
X168214630Y-62929249D01*
X168214631Y-62929254D01*
X168274211Y-63099523D01*
X168323058Y-63177262D01*
X168370184Y-63252262D01*
X168497738Y-63379816D01*
X168576410Y-63429249D01*
X168625935Y-63460368D01*
X168650478Y-63475789D01*
X168820745Y-63535368D01*
X168820750Y-63535369D01*
X168999996Y-63555565D01*
X169000000Y-63555565D01*
X169000004Y-63555565D01*
X169179249Y-63535369D01*
X169179252Y-63535368D01*
X169179255Y-63535368D01*
X169349522Y-63475789D01*
X169502262Y-63379816D01*
X169629816Y-63252262D01*
X169725789Y-63099522D01*
X169785368Y-62929255D01*
X169785369Y-62929249D01*
X169805565Y-62750003D01*
X169805565Y-62749996D01*
X169785369Y-62570750D01*
X169785368Y-62570745D01*
X169725788Y-62400476D01*
X169629813Y-62247734D01*
X169627550Y-62244896D01*
X169626659Y-62242715D01*
X169626111Y-62241842D01*
X169626264Y-62241745D01*
X169601144Y-62180209D01*
X169600500Y-62167587D01*
X169600500Y-61839060D01*
X169600501Y-61839047D01*
X169600501Y-61670947D01*
X169600501Y-61670943D01*
X169600499Y-61670939D01*
X169600063Y-61667621D01*
X169600501Y-61664811D01*
X169600501Y-61662815D01*
X169600812Y-61662815D01*
X169610827Y-61598586D01*
X169657205Y-61546328D01*
X169682042Y-61534392D01*
X169849522Y-61475789D01*
X170002262Y-61379816D01*
X170129816Y-61252262D01*
X170225789Y-61099522D01*
X170285368Y-60929255D01*
X170290425Y-60884374D01*
X170305565Y-60750003D01*
X170305565Y-60749996D01*
X170285368Y-60570747D01*
X170285368Y-60570745D01*
X170257458Y-60490982D01*
X170250500Y-60450028D01*
X170250500Y-60425419D01*
X170221659Y-60280432D01*
X170221658Y-60280431D01*
X170221658Y-60280427D01*
X170221656Y-60280422D01*
X170165087Y-60143851D01*
X170165080Y-60143838D01*
X170082952Y-60020925D01*
X170082951Y-60020924D01*
X169978416Y-59916389D01*
X168039797Y-57977770D01*
X168006312Y-57916447D01*
X168011296Y-57846755D01*
X168053168Y-57790822D01*
X168118632Y-57766405D01*
X168145956Y-57767473D01*
X168365071Y-57800500D01*
X168365072Y-57800500D01*
X168634928Y-57800500D01*
X168634929Y-57800500D01*
X168699139Y-57790822D01*
X168901767Y-57760281D01*
X168901768Y-57760280D01*
X168901772Y-57760280D01*
X169159641Y-57680738D01*
X169402775Y-57563651D01*
X169625741Y-57411635D01*
X169823561Y-57228085D01*
X169991815Y-57017102D01*
X170126743Y-56783398D01*
X170225334Y-56532195D01*
X170285383Y-56269103D01*
X170305549Y-56000000D01*
X170301172Y-55941598D01*
X170285383Y-55730898D01*
X170275021Y-55685499D01*
X170225334Y-55467805D01*
X170126743Y-55216602D01*
X169991815Y-54982898D01*
X169823561Y-54771915D01*
X169823560Y-54771914D01*
X169823557Y-54771910D01*
X169625741Y-54588365D01*
X169439497Y-54461386D01*
X169402775Y-54436349D01*
X169402769Y-54436346D01*
X169402768Y-54436345D01*
X169402767Y-54436344D01*
X169159643Y-54319263D01*
X169159645Y-54319263D01*
X168901773Y-54239720D01*
X168901767Y-54239718D01*
X168634936Y-54199500D01*
X168634929Y-54199500D01*
X168365071Y-54199500D01*
X168365063Y-54199500D01*
X168098232Y-54239718D01*
X168098226Y-54239720D01*
X167840358Y-54319262D01*
X167597230Y-54436346D01*
X167374258Y-54588365D01*
X167176442Y-54771910D01*
X167008185Y-54982898D01*
X166890059Y-55187500D01*
X166839492Y-55235715D01*
X166782672Y-55249500D01*
X166612229Y-55249500D01*
X166545190Y-55229815D01*
X166524548Y-55213181D01*
X165459189Y-54147821D01*
X165425704Y-54086498D01*
X165430688Y-54016806D01*
X165472560Y-53960873D01*
X165538024Y-53936456D01*
X165606297Y-53951308D01*
X165622350Y-53961759D01*
X165675792Y-54002767D01*
X165888708Y-54125694D01*
X166115847Y-54219778D01*
X166353323Y-54283409D01*
X166597073Y-54315500D01*
X166597080Y-54315500D01*
X166842920Y-54315500D01*
X166842927Y-54315500D01*
X167086677Y-54283409D01*
X167324153Y-54219778D01*
X167551292Y-54125694D01*
X167764208Y-54002767D01*
X167959256Y-53853101D01*
X168133101Y-53679256D01*
X168282767Y-53484208D01*
X168405694Y-53271292D01*
X168499778Y-53044153D01*
X168563409Y-52806677D01*
X168595500Y-52562927D01*
X168595500Y-52317073D01*
X168563409Y-52073323D01*
X168499778Y-51835847D01*
X168405694Y-51608708D01*
X168282767Y-51395792D01*
X168221030Y-51315335D01*
X168133102Y-51200745D01*
X168133096Y-51200738D01*
X167959261Y-51026903D01*
X167959254Y-51026897D01*
X167764212Y-50877236D01*
X167764211Y-50877235D01*
X167764208Y-50877233D01*
X167551292Y-50754306D01*
X167551285Y-50754303D01*
X167514488Y-50739061D01*
X167460085Y-50695220D01*
X167438020Y-50628926D01*
X167455299Y-50561227D01*
X167506436Y-50513616D01*
X167561941Y-50500500D01*
X174678059Y-50500500D01*
X174745098Y-50520185D01*
X174790853Y-50572989D01*
X174800797Y-50642147D01*
X174771772Y-50705703D01*
X174725512Y-50739061D01*
X174688714Y-50754303D01*
X174688705Y-50754307D01*
X174475787Y-50877236D01*
X174280745Y-51026897D01*
X174280738Y-51026903D01*
X174106903Y-51200738D01*
X174106897Y-51200745D01*
X173957236Y-51395787D01*
X173834307Y-51608705D01*
X173834303Y-51608714D01*
X173740225Y-51835837D01*
X173740222Y-51835847D01*
X173676592Y-52073320D01*
X173676590Y-52073331D01*
X173644500Y-52317065D01*
X173644500Y-52562934D01*
X173671227Y-52765939D01*
X173676591Y-52806677D01*
X173740222Y-53044152D01*
X173740225Y-53044162D01*
X173788794Y-53161417D01*
X173834306Y-53271292D01*
X173957233Y-53484208D01*
X173957235Y-53484211D01*
X173957236Y-53484212D01*
X174106897Y-53679254D01*
X174106903Y-53679261D01*
X174280738Y-53853096D01*
X174280744Y-53853101D01*
X174475792Y-54002767D01*
X174688708Y-54125694D01*
X174915847Y-54219778D01*
X175153323Y-54283409D01*
X175316791Y-54304930D01*
X175380686Y-54333197D01*
X175419157Y-54391521D01*
X175419988Y-54461386D01*
X175388285Y-54515550D01*
X175183481Y-54720354D01*
X175122158Y-54753839D01*
X175052466Y-54748855D01*
X175011459Y-54723571D01*
X174865745Y-54588368D01*
X174758941Y-54515550D01*
X174642775Y-54436349D01*
X174642769Y-54436346D01*
X174642768Y-54436345D01*
X174642767Y-54436344D01*
X174399643Y-54319263D01*
X174399645Y-54319263D01*
X174141773Y-54239720D01*
X174141767Y-54239718D01*
X173874936Y-54199500D01*
X173874929Y-54199500D01*
X173605071Y-54199500D01*
X173605063Y-54199500D01*
X173338232Y-54239718D01*
X173338226Y-54239720D01*
X173080358Y-54319262D01*
X172837230Y-54436346D01*
X172614258Y-54588365D01*
X172416442Y-54771910D01*
X172248185Y-54982898D01*
X172113258Y-55216599D01*
X172113256Y-55216603D01*
X172014666Y-55467804D01*
X172014664Y-55467811D01*
X171954616Y-55730898D01*
X171934451Y-55999995D01*
X171934451Y-56000004D01*
X171954616Y-56269101D01*
X172014664Y-56532188D01*
X172014666Y-56532195D01*
X172113256Y-56783396D01*
X172113258Y-56783400D01*
X172129964Y-56812335D01*
X172248185Y-57017102D01*
X172373845Y-57174674D01*
X172416442Y-57228089D01*
X172552615Y-57354438D01*
X172614259Y-57411635D01*
X172837226Y-57563651D01*
X173080359Y-57680738D01*
X173338228Y-57760280D01*
X173338229Y-57760280D01*
X173338232Y-57760281D01*
X173605063Y-57800499D01*
X173605068Y-57800499D01*
X173605071Y-57800500D01*
X173605072Y-57800500D01*
X173874928Y-57800500D01*
X173874929Y-57800500D01*
X173939139Y-57790822D01*
X174141767Y-57760281D01*
X174141768Y-57760280D01*
X174141772Y-57760280D01*
X174399641Y-57680738D01*
X174642775Y-57563651D01*
X174865741Y-57411635D01*
X175063561Y-57228085D01*
X175231815Y-57017102D01*
X175366743Y-56783398D01*
X175437119Y-56604081D01*
X175464863Y-56561707D01*
X176862223Y-55164346D01*
X176923544Y-55130863D01*
X176993236Y-55135847D01*
X177049169Y-55177719D01*
X177069677Y-55219937D01*
X177080976Y-55262107D01*
X177079313Y-55331956D01*
X177048882Y-55381880D01*
X175881286Y-56549478D01*
X175769481Y-56661282D01*
X175769480Y-56661284D01*
X175727485Y-56734022D01*
X175690423Y-56798215D01*
X175649499Y-56950943D01*
X175649499Y-56950945D01*
X175649499Y-57119046D01*
X175649500Y-57119059D01*
X175649500Y-60293788D01*
X175629815Y-60360827D01*
X175577011Y-60406582D01*
X175507853Y-60416526D01*
X175473095Y-60406170D01*
X175439330Y-60390425D01*
X175439326Y-60390424D01*
X175439322Y-60390422D01*
X175227977Y-60333793D01*
X175010002Y-60314723D01*
X175009998Y-60314723D01*
X174864682Y-60327436D01*
X174792023Y-60333793D01*
X174792020Y-60333793D01*
X174580677Y-60390422D01*
X174580668Y-60390426D01*
X174382361Y-60482898D01*
X174382357Y-60482900D01*
X174203121Y-60608402D01*
X174048402Y-60763121D01*
X173922900Y-60942357D01*
X173922898Y-60942361D01*
X173830426Y-61140668D01*
X173830422Y-61140677D01*
X173773793Y-61352020D01*
X173773793Y-61352023D01*
X173769025Y-61406517D01*
X173754723Y-61569997D01*
X173754723Y-61570002D01*
X173773793Y-61787975D01*
X173773793Y-61787979D01*
X173830422Y-61999322D01*
X173830424Y-61999326D01*
X173830425Y-61999330D01*
X173840500Y-62020935D01*
X173922897Y-62197638D01*
X173937450Y-62218422D01*
X174048402Y-62376877D01*
X174203123Y-62531598D01*
X174382361Y-62657102D01*
X174580670Y-62749575D01*
X174676810Y-62775335D01*
X174736469Y-62811699D01*
X174766999Y-62874546D01*
X174761758Y-62936064D01*
X174714632Y-63070742D01*
X174714630Y-63070750D01*
X174694435Y-63249996D01*
X174694435Y-63250003D01*
X174714630Y-63429249D01*
X174714631Y-63429254D01*
X174774211Y-63599523D01*
X174870184Y-63752262D01*
X174997738Y-63879816D01*
X175150478Y-63975789D01*
X175320745Y-64035368D01*
X175320750Y-64035369D01*
X175499996Y-64055565D01*
X175500000Y-64055565D01*
X175500004Y-64055565D01*
X175679249Y-64035369D01*
X175679252Y-64035368D01*
X175679255Y-64035368D01*
X175849522Y-63975789D01*
X176002262Y-63879816D01*
X176129816Y-63752262D01*
X176225789Y-63599522D01*
X176285368Y-63429255D01*
X176295161Y-63342329D01*
X176322226Y-63277918D01*
X176330690Y-63268543D01*
X176618713Y-62980521D01*
X176618716Y-62980520D01*
X176730520Y-62868716D01*
X176761292Y-62815414D01*
X176811855Y-62767201D01*
X176880462Y-62753976D01*
X176900762Y-62757638D01*
X177082023Y-62806207D01*
X177269787Y-62822633D01*
X177299998Y-62825277D01*
X177300000Y-62825277D01*
X177300002Y-62825277D01*
X177328254Y-62822805D01*
X177517977Y-62806207D01*
X177729330Y-62749575D01*
X177927639Y-62657102D01*
X178106877Y-62531598D01*
X178261598Y-62376877D01*
X178387102Y-62197639D01*
X178479575Y-61999330D01*
X178536207Y-61787977D01*
X178555277Y-61570000D01*
X178536207Y-61352023D01*
X178479575Y-61140670D01*
X178387102Y-60942362D01*
X178387100Y-60942359D01*
X178387099Y-60942357D01*
X178261599Y-60763124D01*
X178248471Y-60749996D01*
X178106877Y-60608402D01*
X177927639Y-60482898D01*
X177927640Y-60482898D01*
X177927638Y-60482897D01*
X177804375Y-60425419D01*
X177729330Y-60390425D01*
X177729326Y-60390424D01*
X177729322Y-60390422D01*
X177517977Y-60333793D01*
X177300002Y-60314723D01*
X177299998Y-60314723D01*
X177154682Y-60327436D01*
X177082023Y-60333793D01*
X177082020Y-60333793D01*
X177006593Y-60354004D01*
X176936743Y-60352341D01*
X176878881Y-60313178D01*
X176851377Y-60248949D01*
X176850500Y-60234229D01*
X176850500Y-57999097D01*
X176870185Y-57932058D01*
X176922989Y-57886303D01*
X176992147Y-57876359D01*
X177055703Y-57905384D01*
X177062181Y-57911416D01*
X181844298Y-62693534D01*
X181877783Y-62754857D01*
X181879837Y-62767331D01*
X181889630Y-62854249D01*
X181889631Y-62854254D01*
X181889632Y-62854255D01*
X181896732Y-62874546D01*
X181949210Y-63024521D01*
X181996337Y-63099523D01*
X182045184Y-63177262D01*
X182172738Y-63304816D01*
X182325478Y-63400789D01*
X182495745Y-63460368D01*
X182495750Y-63460369D01*
X182674996Y-63480565D01*
X182675000Y-63480565D01*
X182675004Y-63480565D01*
X182854249Y-63460369D01*
X182854252Y-63460368D01*
X182854255Y-63460368D01*
X183024522Y-63400789D01*
X183177262Y-63304816D01*
X183304816Y-63177262D01*
X183400789Y-63024522D01*
X183460368Y-62854255D01*
X183471254Y-62757640D01*
X183480565Y-62675003D01*
X183480565Y-62674996D01*
X183460369Y-62495750D01*
X183460368Y-62495745D01*
X183400789Y-62325478D01*
X183304816Y-62172738D01*
X183177262Y-62045184D01*
X183138670Y-62020935D01*
X183024521Y-61949210D01*
X182854249Y-61889630D01*
X182767331Y-61879837D01*
X182702917Y-61852770D01*
X182693534Y-61844298D01*
X180993074Y-60143838D01*
X179061742Y-58212507D01*
X179028258Y-58151185D01*
X179033242Y-58081493D01*
X179075114Y-58025560D01*
X179140578Y-58001143D01*
X179160225Y-58001298D01*
X179271566Y-58011039D01*
X179319998Y-58015277D01*
X179320000Y-58015277D01*
X179320002Y-58015277D01*
X179348254Y-58012805D01*
X179537977Y-57996207D01*
X179749330Y-57939575D01*
X179947639Y-57847102D01*
X180126877Y-57721598D01*
X180252319Y-57596156D01*
X180313642Y-57562671D01*
X180383334Y-57567655D01*
X180427681Y-57596156D01*
X180553123Y-57721598D01*
X180732361Y-57847102D01*
X180930670Y-57939575D01*
X181142023Y-57996207D01*
X181312450Y-58011117D01*
X181359998Y-58015277D01*
X181360000Y-58015277D01*
X181360002Y-58015277D01*
X181388254Y-58012805D01*
X181577977Y-57996207D01*
X181642108Y-57979023D01*
X181711957Y-57980686D01*
X181761882Y-58011117D01*
X184635139Y-60884374D01*
X184635149Y-60884385D01*
X184639479Y-60888715D01*
X184639480Y-60888716D01*
X184751284Y-61000520D01*
X184838095Y-61050639D01*
X184838097Y-61050641D01*
X184876151Y-61072611D01*
X184888215Y-61079577D01*
X185040943Y-61120501D01*
X185040946Y-61120501D01*
X185104229Y-61120501D01*
X185171268Y-61140186D01*
X185217023Y-61192990D01*
X185226967Y-61262148D01*
X185224004Y-61276594D01*
X185203793Y-61352020D01*
X185203793Y-61352023D01*
X185199025Y-61406517D01*
X185184723Y-61569997D01*
X185184723Y-61570002D01*
X185203793Y-61787975D01*
X185203793Y-61787979D01*
X185260422Y-61999322D01*
X185260424Y-61999326D01*
X185260425Y-61999330D01*
X185270500Y-62020935D01*
X185352897Y-62197638D01*
X185367450Y-62218422D01*
X185478402Y-62376877D01*
X185633123Y-62531598D01*
X185812361Y-62657102D01*
X186010670Y-62749575D01*
X186010676Y-62749576D01*
X186010677Y-62749577D01*
X186040769Y-62757640D01*
X186222023Y-62806207D01*
X186404926Y-62822208D01*
X186439998Y-62825277D01*
X186440000Y-62825277D01*
X186440002Y-62825277D01*
X186468254Y-62822805D01*
X186657977Y-62806207D01*
X186869330Y-62749575D01*
X187067639Y-62657102D01*
X187246877Y-62531598D01*
X187401598Y-62376877D01*
X187483426Y-62260013D01*
X187538002Y-62216390D01*
X187607501Y-62209198D01*
X187669855Y-62240720D01*
X187686570Y-62260010D01*
X187768402Y-62376877D01*
X187923123Y-62531598D01*
X188102361Y-62657102D01*
X188300670Y-62749575D01*
X188300676Y-62749576D01*
X188300677Y-62749577D01*
X188330769Y-62757640D01*
X188512023Y-62806207D01*
X188694926Y-62822208D01*
X188729998Y-62825277D01*
X188730000Y-62825277D01*
X188730002Y-62825277D01*
X188758254Y-62822805D01*
X188947977Y-62806207D01*
X189159330Y-62749575D01*
X189357639Y-62657102D01*
X189509535Y-62550742D01*
X189575738Y-62528416D01*
X189643505Y-62545426D01*
X189691318Y-62596373D01*
X189703997Y-62665083D01*
X189703876Y-62666201D01*
X189694435Y-62749995D01*
X189694435Y-62750003D01*
X189714630Y-62929249D01*
X189714631Y-62929254D01*
X189774211Y-63099523D01*
X189823058Y-63177262D01*
X189870184Y-63252262D01*
X189997738Y-63379816D01*
X190076410Y-63429249D01*
X190125935Y-63460368D01*
X190150478Y-63475789D01*
X190320745Y-63535368D01*
X190320750Y-63535369D01*
X190499996Y-63555565D01*
X190500000Y-63555565D01*
X190500004Y-63555565D01*
X190679249Y-63535369D01*
X190679252Y-63535368D01*
X190679255Y-63535368D01*
X190849522Y-63475789D01*
X191002262Y-63379816D01*
X191129816Y-63252262D01*
X191225789Y-63099522D01*
X191285368Y-62929255D01*
X191285369Y-62929249D01*
X191305565Y-62750003D01*
X191305565Y-62749996D01*
X191285369Y-62570750D01*
X191285368Y-62570745D01*
X191225788Y-62400476D01*
X191129813Y-62247734D01*
X191127550Y-62244896D01*
X191126659Y-62242715D01*
X191126111Y-62241842D01*
X191126264Y-62241745D01*
X191101144Y-62180209D01*
X191100500Y-62167587D01*
X191100500Y-61839060D01*
X191100501Y-61839047D01*
X191100501Y-61670947D01*
X191100501Y-61670943D01*
X191100499Y-61670939D01*
X191100063Y-61667621D01*
X191100501Y-61664811D01*
X191100501Y-61662815D01*
X191100812Y-61662815D01*
X191110827Y-61598586D01*
X191157205Y-61546328D01*
X191182042Y-61534392D01*
X191349522Y-61475789D01*
X191502262Y-61379816D01*
X191629816Y-61252262D01*
X191725789Y-61099522D01*
X191785368Y-60929255D01*
X191790425Y-60884374D01*
X191805565Y-60750003D01*
X191805565Y-60749996D01*
X191785368Y-60570747D01*
X191785368Y-60570745D01*
X191757458Y-60490982D01*
X191750500Y-60450028D01*
X191750500Y-60425419D01*
X191721659Y-60280432D01*
X191721658Y-60280431D01*
X191721658Y-60280427D01*
X191721656Y-60280422D01*
X191665087Y-60143851D01*
X191665080Y-60143838D01*
X191582952Y-60020925D01*
X191582951Y-60020924D01*
X191478416Y-59916389D01*
X189539797Y-57977770D01*
X189506312Y-57916447D01*
X189511296Y-57846755D01*
X189553168Y-57790822D01*
X189618632Y-57766405D01*
X189645956Y-57767473D01*
X189865071Y-57800500D01*
X189865072Y-57800500D01*
X190134928Y-57800500D01*
X190134929Y-57800500D01*
X190199139Y-57790822D01*
X190401767Y-57760281D01*
X190401768Y-57760280D01*
X190401772Y-57760280D01*
X190659641Y-57680738D01*
X190902775Y-57563651D01*
X191125741Y-57411635D01*
X191323561Y-57228085D01*
X191491815Y-57017102D01*
X191626743Y-56783398D01*
X191725334Y-56532195D01*
X191785383Y-56269103D01*
X191805549Y-56000000D01*
X191801172Y-55941598D01*
X191785383Y-55730898D01*
X191775021Y-55685499D01*
X191725334Y-55467805D01*
X191626743Y-55216602D01*
X191491815Y-54982898D01*
X191323561Y-54771915D01*
X191323560Y-54771914D01*
X191323557Y-54771910D01*
X191125741Y-54588365D01*
X190939497Y-54461386D01*
X190902775Y-54436349D01*
X190902769Y-54436346D01*
X190902768Y-54436345D01*
X190902767Y-54436344D01*
X190659643Y-54319263D01*
X190659645Y-54319263D01*
X190401773Y-54239720D01*
X190401767Y-54239718D01*
X190134936Y-54199500D01*
X190134929Y-54199500D01*
X189865071Y-54199500D01*
X189865063Y-54199500D01*
X189598232Y-54239718D01*
X189598226Y-54239720D01*
X189340358Y-54319262D01*
X189097230Y-54436346D01*
X188874258Y-54588365D01*
X188676442Y-54771910D01*
X188508185Y-54982898D01*
X188390059Y-55187500D01*
X188339492Y-55235715D01*
X188282672Y-55249500D01*
X188112229Y-55249500D01*
X188045190Y-55229815D01*
X188024548Y-55213181D01*
X186959189Y-54147821D01*
X186925704Y-54086498D01*
X186930688Y-54016806D01*
X186972560Y-53960873D01*
X187038024Y-53936456D01*
X187106297Y-53951308D01*
X187122350Y-53961759D01*
X187175792Y-54002767D01*
X187388708Y-54125694D01*
X187615847Y-54219778D01*
X187853323Y-54283409D01*
X188097073Y-54315500D01*
X188097080Y-54315500D01*
X188342920Y-54315500D01*
X188342927Y-54315500D01*
X188586677Y-54283409D01*
X188824153Y-54219778D01*
X189051292Y-54125694D01*
X189264208Y-54002767D01*
X189459256Y-53853101D01*
X189633101Y-53679256D01*
X189782767Y-53484208D01*
X189905694Y-53271292D01*
X189999778Y-53044153D01*
X190063409Y-52806677D01*
X190095500Y-52562927D01*
X190095500Y-52317073D01*
X190063409Y-52073323D01*
X189999778Y-51835847D01*
X189905694Y-51608708D01*
X189782767Y-51395792D01*
X189721030Y-51315335D01*
X189633102Y-51200745D01*
X189633096Y-51200738D01*
X189459261Y-51026903D01*
X189459254Y-51026897D01*
X189264212Y-50877236D01*
X189264211Y-50877235D01*
X189264208Y-50877233D01*
X189051292Y-50754306D01*
X189051285Y-50754303D01*
X189014488Y-50739061D01*
X188960085Y-50695220D01*
X188938020Y-50628926D01*
X188955299Y-50561227D01*
X189006436Y-50513616D01*
X189061941Y-50500500D01*
X194201706Y-50500500D01*
X194268745Y-50520185D01*
X194314500Y-50572989D01*
X194324444Y-50642147D01*
X194295419Y-50705703D01*
X194258001Y-50734985D01*
X194147456Y-50791310D01*
X193822206Y-51002531D01*
X193564648Y-51211095D01*
X193564648Y-51211096D01*
X195059301Y-52705748D01*
X194957670Y-52779588D01*
X194779588Y-52957670D01*
X194705748Y-53059300D01*
X193211096Y-51564648D01*
X193211095Y-51564648D01*
X193002531Y-51822206D01*
X192791310Y-52147456D01*
X192615244Y-52493005D01*
X192476262Y-52855063D01*
X192375887Y-53229669D01*
X192375886Y-53229676D01*
X192315219Y-53612712D01*
X192294922Y-53999999D01*
X192294922Y-54000000D01*
X192315219Y-54387287D01*
X192375886Y-54770323D01*
X192375887Y-54770330D01*
X192476262Y-55144936D01*
X192615244Y-55506994D01*
X192791310Y-55852543D01*
X193002531Y-56177793D01*
X193211095Y-56435350D01*
X193211096Y-56435350D01*
X194705748Y-54940698D01*
X194779588Y-55042330D01*
X194957670Y-55220412D01*
X195059300Y-55294251D01*
X193564648Y-56788903D01*
X193564649Y-56788904D01*
X193822206Y-56997468D01*
X194147456Y-57208689D01*
X194493005Y-57384755D01*
X194855063Y-57523737D01*
X195229669Y-57624112D01*
X195229676Y-57624113D01*
X195612712Y-57684780D01*
X195999999Y-57705078D01*
X196000001Y-57705078D01*
X196387287Y-57684780D01*
X196770323Y-57624113D01*
X196770330Y-57624112D01*
X197144936Y-57523737D01*
X197506994Y-57384755D01*
X197852543Y-57208689D01*
X198177783Y-56997476D01*
X198177785Y-56997475D01*
X198435349Y-56788902D01*
X196940698Y-55294251D01*
X197042330Y-55220412D01*
X197220412Y-55042330D01*
X197294251Y-54940698D01*
X198788902Y-56435349D01*
X198997475Y-56177785D01*
X198997476Y-56177783D01*
X199208691Y-55852541D01*
X199208692Y-55852538D01*
X199265015Y-55741999D01*
X199312989Y-55691202D01*
X199380810Y-55674407D01*
X199446945Y-55696944D01*
X199490397Y-55751659D01*
X199499500Y-55798293D01*
X199499500Y-144201706D01*
X199479815Y-144268745D01*
X199427011Y-144314500D01*
X199357853Y-144324444D01*
X199294297Y-144295419D01*
X199265015Y-144258001D01*
X199208689Y-144147456D01*
X198997468Y-143822206D01*
X198788904Y-143564649D01*
X198788903Y-143564648D01*
X197294251Y-145059300D01*
X197220412Y-144957670D01*
X197042330Y-144779588D01*
X196940698Y-144705748D01*
X198435350Y-143211096D01*
X198435350Y-143211095D01*
X198177793Y-143002531D01*
X197852543Y-142791310D01*
X197506994Y-142615244D01*
X197144936Y-142476262D01*
X196770330Y-142375887D01*
X196770323Y-142375886D01*
X196387287Y-142315219D01*
X196000001Y-142294922D01*
X195999999Y-142294922D01*
X195612712Y-142315219D01*
X195229676Y-142375886D01*
X195229669Y-142375887D01*
X194855063Y-142476262D01*
X194493005Y-142615244D01*
X194147456Y-142791310D01*
X193822206Y-143002531D01*
X193564648Y-143211095D01*
X193564648Y-143211096D01*
X195059301Y-144705748D01*
X194957670Y-144779588D01*
X194779588Y-144957670D01*
X194705748Y-145059300D01*
X193211096Y-143564648D01*
X193211095Y-143564648D01*
X193002531Y-143822206D01*
X192791310Y-144147456D01*
X192615244Y-144493005D01*
X192476262Y-144855063D01*
X192375887Y-145229669D01*
X192375886Y-145229676D01*
X192315219Y-145612712D01*
X192294922Y-145999999D01*
X192294922Y-146000000D01*
X192315219Y-146387287D01*
X192375886Y-146770323D01*
X192375887Y-146770330D01*
X192476262Y-147144936D01*
X192615244Y-147506994D01*
X192791310Y-147852543D01*
X193002531Y-148177793D01*
X193211095Y-148435350D01*
X193211096Y-148435350D01*
X194705748Y-146940698D01*
X194779588Y-147042330D01*
X194957670Y-147220412D01*
X195059300Y-147294251D01*
X193564648Y-148788903D01*
X193564649Y-148788904D01*
X193822206Y-148997468D01*
X194147456Y-149208689D01*
X194258001Y-149265015D01*
X194308797Y-149312990D01*
X194325592Y-149380811D01*
X194303055Y-149446945D01*
X194248340Y-149490397D01*
X194201706Y-149499500D01*
X105798294Y-149499500D01*
X105731255Y-149479815D01*
X105685500Y-149427011D01*
X105675556Y-149357853D01*
X105704581Y-149294297D01*
X105741999Y-149265015D01*
X105852543Y-149208689D01*
X106177783Y-148997476D01*
X106177785Y-148997475D01*
X106435349Y-148788902D01*
X104940698Y-147294251D01*
X105042330Y-147220412D01*
X105220412Y-147042330D01*
X105294251Y-146940698D01*
X106788902Y-148435349D01*
X106997475Y-148177785D01*
X106997476Y-148177783D01*
X107208689Y-147852543D01*
X107384755Y-147506994D01*
X107523737Y-147144936D01*
X107624112Y-146770330D01*
X107624113Y-146770323D01*
X107684780Y-146387287D01*
X107705078Y-146000000D01*
X107705078Y-145999999D01*
X107684780Y-145612712D01*
X107624113Y-145229676D01*
X107624112Y-145229669D01*
X107523737Y-144855063D01*
X107384755Y-144493005D01*
X107208689Y-144147456D01*
X106997468Y-143822206D01*
X106788904Y-143564649D01*
X106788903Y-143564648D01*
X105294251Y-145059300D01*
X105220412Y-144957670D01*
X105042330Y-144779588D01*
X104940698Y-144705748D01*
X106435350Y-143211096D01*
X106435350Y-143211095D01*
X106177793Y-143002531D01*
X105852543Y-142791310D01*
X105506994Y-142615244D01*
X105144936Y-142476262D01*
X104770330Y-142375887D01*
X104770323Y-142375886D01*
X104387287Y-142315219D01*
X104000001Y-142294922D01*
X103999999Y-142294922D01*
X103612712Y-142315219D01*
X103229676Y-142375886D01*
X103229669Y-142375887D01*
X102855063Y-142476262D01*
X102493005Y-142615244D01*
X102147456Y-142791310D01*
X101822206Y-143002531D01*
X101564648Y-143211095D01*
X101564648Y-143211096D01*
X103059301Y-144705748D01*
X102957670Y-144779588D01*
X102779588Y-144957670D01*
X102705748Y-145059301D01*
X101211096Y-143564648D01*
X101211095Y-143564648D01*
X101002531Y-143822206D01*
X100791310Y-144147456D01*
X100734985Y-144258001D01*
X100687010Y-144308797D01*
X100619189Y-144325592D01*
X100553055Y-144303055D01*
X100509603Y-144248340D01*
X100500500Y-144201706D01*
X100500500Y-81350000D01*
X107044815Y-81350000D01*
X107063503Y-81527805D01*
X107063504Y-81527807D01*
X107118747Y-81697829D01*
X107118750Y-81697835D01*
X107208141Y-81852665D01*
X107249812Y-81898946D01*
X107327764Y-81985521D01*
X107327767Y-81985523D01*
X107327770Y-81985526D01*
X107472407Y-82090612D01*
X107635733Y-82163329D01*
X107810609Y-82200500D01*
X107810610Y-82200500D01*
X107989389Y-82200500D01*
X107989391Y-82200500D01*
X108164267Y-82163329D01*
X108281306Y-82111219D01*
X108331741Y-82100500D01*
X113237770Y-82100500D01*
X113304809Y-82120185D01*
X113325451Y-82136819D01*
X115915106Y-84726474D01*
X115945356Y-84775837D01*
X115968747Y-84847828D01*
X115968750Y-84847835D01*
X116058141Y-85002665D01*
X116099812Y-85048946D01*
X116177764Y-85135521D01*
X116177767Y-85135523D01*
X116177770Y-85135526D01*
X116322407Y-85240612D01*
X116485733Y-85313329D01*
X116485734Y-85313329D01*
X116491670Y-85315972D01*
X116490890Y-85317723D01*
X116530822Y-85342190D01*
X118214010Y-87025378D01*
X118247495Y-87086701D01*
X118248831Y-87095181D01*
X118287947Y-87291828D01*
X118287949Y-87291836D01*
X118363367Y-87473910D01*
X118363372Y-87473920D01*
X118472860Y-87637780D01*
X118472863Y-87637784D01*
X123469735Y-92634655D01*
X123469764Y-92634686D01*
X123612214Y-92777136D01*
X123612218Y-92777139D01*
X123776079Y-92886628D01*
X123776092Y-92886635D01*
X123904833Y-92939961D01*
X123947744Y-92957735D01*
X123958164Y-92962051D01*
X124054812Y-92981275D01*
X124103135Y-92990887D01*
X124151458Y-93000500D01*
X124151459Y-93000500D01*
X124151460Y-93000500D01*
X124348540Y-93000500D01*
X146301459Y-93000500D01*
X146301460Y-93000500D01*
X146498540Y-93000500D01*
X146901459Y-93000500D01*
X167401459Y-93000500D01*
X167401460Y-93000500D01*
X167598540Y-93000500D01*
X182500500Y-93000500D01*
X182567539Y-93020185D01*
X182613294Y-93072989D01*
X182624500Y-93124500D01*
X182624500Y-136659218D01*
X182604815Y-136726257D01*
X182588181Y-136746899D01*
X172621899Y-146713181D01*
X172560576Y-146746666D01*
X172534218Y-146749500D01*
X166239050Y-146749500D01*
X166172011Y-146729815D01*
X166126256Y-146677011D01*
X166116312Y-146607853D01*
X166145337Y-146544297D01*
X166151369Y-146537819D01*
X166278105Y-146411082D01*
X166413600Y-146217578D01*
X166513429Y-146003492D01*
X166513432Y-146003486D01*
X166570636Y-145790000D01*
X165673012Y-145790000D01*
X165705925Y-145732993D01*
X165740000Y-145605826D01*
X165740000Y-145474174D01*
X165705925Y-145347007D01*
X165673012Y-145290000D01*
X166570636Y-145290000D01*
X166570635Y-145289999D01*
X166513432Y-145076513D01*
X166513429Y-145076507D01*
X166413600Y-144862422D01*
X166413599Y-144862420D01*
X166278113Y-144668926D01*
X166278108Y-144668920D01*
X166155665Y-144546477D01*
X166122180Y-144485154D01*
X166127164Y-144415462D01*
X166169036Y-144359529D01*
X166200013Y-144342614D01*
X166332086Y-144293354D01*
X166332093Y-144293350D01*
X166447187Y-144207190D01*
X166447190Y-144207187D01*
X166533350Y-144092093D01*
X166533354Y-144092086D01*
X166583596Y-143957379D01*
X166583598Y-143957372D01*
X166589999Y-143897844D01*
X166590000Y-143897827D01*
X166590000Y-143250000D01*
X165673012Y-143250000D01*
X165705925Y-143192993D01*
X165740000Y-143065826D01*
X165740000Y-142934174D01*
X165705925Y-142807007D01*
X165673012Y-142750000D01*
X166590000Y-142750000D01*
X166590000Y-142102172D01*
X166589999Y-142102155D01*
X166583598Y-142042627D01*
X166583596Y-142042620D01*
X166533354Y-141907913D01*
X166533350Y-141907906D01*
X166447190Y-141792812D01*
X166447187Y-141792809D01*
X166332093Y-141706649D01*
X166332086Y-141706645D01*
X166197379Y-141656403D01*
X166197372Y-141656401D01*
X166137844Y-141650000D01*
X165490000Y-141650000D01*
X165490000Y-142566988D01*
X165432993Y-142534075D01*
X165305826Y-142500000D01*
X165174174Y-142500000D01*
X165047007Y-142534075D01*
X164990000Y-142566988D01*
X164990000Y-141650000D01*
X164342155Y-141650000D01*
X164282627Y-141656401D01*
X164282620Y-141656403D01*
X164147913Y-141706645D01*
X164147906Y-141706649D01*
X164032812Y-141792809D01*
X164032809Y-141792812D01*
X163946649Y-141907906D01*
X163946645Y-141907913D01*
X163897578Y-142039470D01*
X163855707Y-142095404D01*
X163790242Y-142119821D01*
X163721969Y-142104969D01*
X163693715Y-142083819D01*
X163649366Y-142039470D01*
X163571401Y-141961505D01*
X163571397Y-141961502D01*
X163571396Y-141961501D01*
X163377834Y-141825967D01*
X163377830Y-141825965D01*
X163280420Y-141780542D01*
X163163663Y-141726097D01*
X163163659Y-141726096D01*
X163163655Y-141726094D01*
X162935413Y-141664938D01*
X162935403Y-141664936D01*
X162700001Y-141644341D01*
X162699999Y-141644341D01*
X162464596Y-141664936D01*
X162464586Y-141664938D01*
X162236344Y-141726094D01*
X162236335Y-141726097D01*
X162125565Y-141777751D01*
X162093268Y-141792812D01*
X162086905Y-141795779D01*
X162017828Y-141806271D01*
X161954044Y-141777751D01*
X161915804Y-141719275D01*
X161910500Y-141683397D01*
X161910500Y-138899059D01*
X161910501Y-138899046D01*
X161910501Y-138730945D01*
X161910501Y-138730943D01*
X161869577Y-138578215D01*
X161840639Y-138528095D01*
X161790520Y-138441284D01*
X161678716Y-138329480D01*
X161678715Y-138329479D01*
X161674385Y-138325149D01*
X161674374Y-138325139D01*
X149830700Y-126481465D01*
X149797215Y-126420142D01*
X149795163Y-126407686D01*
X149785368Y-126320745D01*
X149725789Y-126150478D01*
X149629816Y-125997738D01*
X149502262Y-125870184D01*
X149349523Y-125774211D01*
X149179254Y-125714631D01*
X149179249Y-125714630D01*
X149000004Y-125694435D01*
X148999996Y-125694435D01*
X148820750Y-125714630D01*
X148820745Y-125714631D01*
X148650476Y-125774211D01*
X148497737Y-125870184D01*
X148370184Y-125997737D01*
X148274211Y-126150476D01*
X148214631Y-126320745D01*
X148214630Y-126320750D01*
X148194435Y-126499996D01*
X148194435Y-126500003D01*
X148214630Y-126679249D01*
X148214631Y-126679254D01*
X148274211Y-126849523D01*
X148370184Y-127002262D01*
X148497738Y-127129816D01*
X148650478Y-127225789D01*
X148820745Y-127285368D01*
X148907669Y-127295161D01*
X148972080Y-127322226D01*
X148981465Y-127330700D01*
X160673181Y-139022416D01*
X160706666Y-139083739D01*
X160709500Y-139110097D01*
X160709500Y-141587496D01*
X160689815Y-141654535D01*
X160637011Y-141700290D01*
X160567853Y-141710234D01*
X160553408Y-141707271D01*
X160395416Y-141664939D01*
X160395412Y-141664938D01*
X160395408Y-141664937D01*
X160395406Y-141664936D01*
X160395403Y-141664936D01*
X160160001Y-141644341D01*
X160159999Y-141644341D01*
X159924596Y-141664936D01*
X159924586Y-141664938D01*
X159696344Y-141726094D01*
X159696335Y-141726097D01*
X159585565Y-141777751D01*
X159553268Y-141792812D01*
X159546905Y-141795779D01*
X159477828Y-141806271D01*
X159414044Y-141777751D01*
X159375804Y-141719275D01*
X159370500Y-141683397D01*
X159370500Y-139859059D01*
X159370501Y-139859046D01*
X159370501Y-139690945D01*
X159370501Y-139690943D01*
X159329577Y-139538215D01*
X159300639Y-139488095D01*
X159250520Y-139401284D01*
X159138716Y-139289480D01*
X159138715Y-139289479D01*
X159134385Y-139285149D01*
X159134374Y-139285139D01*
X148330700Y-128481465D01*
X148297215Y-128420142D01*
X148295163Y-128407686D01*
X148285368Y-128320745D01*
X148225789Y-128150478D01*
X148129816Y-127997738D01*
X148002262Y-127870184D01*
X147849523Y-127774211D01*
X147679254Y-127714631D01*
X147679249Y-127714630D01*
X147500004Y-127694435D01*
X147499996Y-127694435D01*
X147320750Y-127714630D01*
X147320745Y-127714631D01*
X147150476Y-127774211D01*
X146997737Y-127870184D01*
X146870184Y-127997737D01*
X146774211Y-128150476D01*
X146714631Y-128320745D01*
X146714630Y-128320750D01*
X146694435Y-128499996D01*
X146694435Y-128500003D01*
X146714630Y-128679249D01*
X146714631Y-128679254D01*
X146774211Y-128849523D01*
X146870184Y-129002262D01*
X146997738Y-129129816D01*
X147150478Y-129225789D01*
X147320745Y-129285368D01*
X147407669Y-129295161D01*
X147472080Y-129322226D01*
X147481465Y-129330700D01*
X158133181Y-139982416D01*
X158166666Y-140043739D01*
X158169500Y-140070097D01*
X158169500Y-141587496D01*
X158149815Y-141654535D01*
X158097011Y-141700290D01*
X158027853Y-141710234D01*
X158013408Y-141707271D01*
X157855416Y-141664939D01*
X157855412Y-141664938D01*
X157855408Y-141664937D01*
X157855406Y-141664936D01*
X157855403Y-141664936D01*
X157620001Y-141644341D01*
X157619999Y-141644341D01*
X157384596Y-141664936D01*
X157384583Y-141664939D01*
X157226592Y-141707271D01*
X157156742Y-141705608D01*
X157098880Y-141666445D01*
X157071377Y-141602216D01*
X157070500Y-141587496D01*
X157070500Y-141059059D01*
X157070501Y-141059046D01*
X157070501Y-140890945D01*
X157070501Y-140890943D01*
X157029577Y-140738215D01*
X157000639Y-140688095D01*
X156950520Y-140601284D01*
X156838716Y-140489480D01*
X156838715Y-140489479D01*
X156834385Y-140485149D01*
X156834374Y-140485139D01*
X146830700Y-130481465D01*
X146797215Y-130420142D01*
X146795163Y-130407686D01*
X146785368Y-130320745D01*
X146725789Y-130150478D01*
X146629816Y-129997738D01*
X146502262Y-129870184D01*
X146349523Y-129774211D01*
X146179254Y-129714631D01*
X146179249Y-129714630D01*
X146000004Y-129694435D01*
X145999996Y-129694435D01*
X145820750Y-129714630D01*
X145820745Y-129714631D01*
X145650476Y-129774211D01*
X145497737Y-129870184D01*
X145370184Y-129997737D01*
X145274211Y-130150476D01*
X145214631Y-130320745D01*
X145214630Y-130320750D01*
X145194435Y-130499996D01*
X145194435Y-130500003D01*
X145214630Y-130679249D01*
X145214631Y-130679254D01*
X145274211Y-130849523D01*
X145370184Y-131002262D01*
X145497738Y-131129816D01*
X145650478Y-131225789D01*
X145820745Y-131285368D01*
X145907669Y-131295161D01*
X145972080Y-131322226D01*
X145981465Y-131330700D01*
X155833181Y-141182416D01*
X155866666Y-141243739D01*
X155869500Y-141270097D01*
X155869500Y-141683396D01*
X155849815Y-141750435D01*
X155797011Y-141796190D01*
X155727853Y-141806134D01*
X155693096Y-141795778D01*
X155543669Y-141726099D01*
X155543655Y-141726094D01*
X155315413Y-141664938D01*
X155315403Y-141664936D01*
X155080001Y-141644341D01*
X155079999Y-141644341D01*
X154844596Y-141664936D01*
X154844586Y-141664938D01*
X154616344Y-141726094D01*
X154616335Y-141726097D01*
X154505565Y-141777751D01*
X154473268Y-141792812D01*
X154466905Y-141795779D01*
X154397828Y-141806271D01*
X154334044Y-141777751D01*
X154295804Y-141719275D01*
X154290500Y-141683397D01*
X154290500Y-141610945D01*
X154290500Y-141610943D01*
X154249577Y-141458216D01*
X154236626Y-141435784D01*
X154170524Y-141321290D01*
X154170521Y-141321286D01*
X154170520Y-141321284D01*
X154058716Y-141209480D01*
X154058715Y-141209479D01*
X154054385Y-141205149D01*
X154054374Y-141205139D01*
X145737590Y-132888355D01*
X145737588Y-132888352D01*
X145695220Y-132845984D01*
X145677907Y-132824275D01*
X145629815Y-132747737D01*
X145502262Y-132620184D01*
X145349523Y-132524211D01*
X145179254Y-132464631D01*
X145179249Y-132464630D01*
X145000004Y-132444435D01*
X144999996Y-132444435D01*
X144820750Y-132464630D01*
X144820745Y-132464631D01*
X144650476Y-132524211D01*
X144497737Y-132620184D01*
X144370184Y-132747737D01*
X144274211Y-132900476D01*
X144214631Y-133070745D01*
X144214630Y-133070750D01*
X144194435Y-133249996D01*
X144194435Y-133250003D01*
X144214630Y-133429249D01*
X144214631Y-133429254D01*
X144274211Y-133599523D01*
X144370184Y-133752262D01*
X144497738Y-133879816D01*
X144650478Y-133975789D01*
X144820745Y-134035368D01*
X144820750Y-134035369D01*
X144999996Y-134055565D01*
X145000000Y-134055565D01*
X145000002Y-134055565D01*
X145037865Y-134051298D01*
X145126097Y-134041357D01*
X145194918Y-134053411D01*
X145227661Y-134076896D01*
X152586549Y-141435784D01*
X152620034Y-141497107D01*
X152615050Y-141566799D01*
X152573178Y-141622732D01*
X152509676Y-141646993D01*
X152304596Y-141664936D01*
X152304586Y-141664938D01*
X152076344Y-141726094D01*
X152076335Y-141726097D01*
X151862172Y-141825964D01*
X151862166Y-141825968D01*
X151837430Y-141843288D01*
X151771224Y-141865615D01*
X151703457Y-141848603D01*
X151678628Y-141829393D01*
X145330700Y-135481465D01*
X145297215Y-135420142D01*
X145295163Y-135407686D01*
X145285368Y-135320745D01*
X145225789Y-135150478D01*
X145129816Y-134997738D01*
X145002262Y-134870184D01*
X144849523Y-134774211D01*
X144679254Y-134714631D01*
X144679249Y-134714630D01*
X144500004Y-134694435D01*
X144499996Y-134694435D01*
X144320750Y-134714630D01*
X144320745Y-134714631D01*
X144150476Y-134774211D01*
X143997737Y-134870184D01*
X143870184Y-134997737D01*
X143774211Y-135150476D01*
X143714631Y-135320745D01*
X143714630Y-135320750D01*
X143694435Y-135499996D01*
X143694435Y-135500003D01*
X143714630Y-135679249D01*
X143714631Y-135679254D01*
X143774211Y-135849523D01*
X143870184Y-136002262D01*
X143915476Y-136047554D01*
X143948961Y-136108877D01*
X143943977Y-136178569D01*
X143902105Y-136234502D01*
X143836641Y-136258919D01*
X143786841Y-136252277D01*
X143679257Y-136214632D01*
X143679249Y-136214630D01*
X143500004Y-136194435D01*
X143499996Y-136194435D01*
X143320750Y-136214630D01*
X143320745Y-136214631D01*
X143150476Y-136274211D01*
X142997737Y-136370184D01*
X142870184Y-136497737D01*
X142774211Y-136650476D01*
X142714631Y-136820745D01*
X142714630Y-136820750D01*
X142694435Y-136999996D01*
X142694435Y-137000003D01*
X142714630Y-137179249D01*
X142714631Y-137179254D01*
X142774211Y-137349523D01*
X142816509Y-137416839D01*
X142870184Y-137502262D01*
X142997738Y-137629816D01*
X143150478Y-137725789D01*
X143320745Y-137785368D01*
X143320750Y-137785369D01*
X143499996Y-137805565D01*
X143500000Y-137805565D01*
X143500004Y-137805565D01*
X143679247Y-137785369D01*
X143679247Y-137785368D01*
X143679255Y-137785368D01*
X143703407Y-137776916D01*
X143773179Y-137773352D01*
X143832041Y-137806276D01*
X147673681Y-141647916D01*
X147707166Y-141709239D01*
X147710000Y-141735597D01*
X147710000Y-142566988D01*
X147652993Y-142534075D01*
X147525826Y-142500000D01*
X147394174Y-142500000D01*
X147267007Y-142534075D01*
X147210000Y-142566988D01*
X147210000Y-141669364D01*
X147209999Y-141669364D01*
X146996513Y-141726567D01*
X146996507Y-141726570D01*
X146782422Y-141826399D01*
X146782420Y-141826400D01*
X146588926Y-141961886D01*
X146588920Y-141961891D01*
X146421891Y-142128920D01*
X146421890Y-142128922D01*
X146291880Y-142314595D01*
X146237303Y-142358219D01*
X146167804Y-142365412D01*
X146105450Y-142333890D01*
X146088730Y-142314594D01*
X145958494Y-142128597D01*
X145791402Y-141961506D01*
X145791395Y-141961501D01*
X145597834Y-141825967D01*
X145597830Y-141825965D01*
X145500420Y-141780542D01*
X145383663Y-141726097D01*
X145383659Y-141726096D01*
X145383655Y-141726094D01*
X145155413Y-141664938D01*
X145155403Y-141664936D01*
X144920001Y-141644341D01*
X144919999Y-141644341D01*
X144684596Y-141664936D01*
X144684586Y-141664938D01*
X144456344Y-141726094D01*
X144456335Y-141726098D01*
X144242171Y-141825964D01*
X144242169Y-141825965D01*
X144048597Y-141961505D01*
X143881505Y-142128597D01*
X143751575Y-142314158D01*
X143696998Y-142357783D01*
X143627500Y-142364977D01*
X143565145Y-142333454D01*
X143548425Y-142314158D01*
X143418494Y-142128597D01*
X143251402Y-141961506D01*
X143251395Y-141961501D01*
X143057834Y-141825967D01*
X143057830Y-141825965D01*
X142960420Y-141780542D01*
X142843663Y-141726097D01*
X142843659Y-141726096D01*
X142843655Y-141726094D01*
X142615413Y-141664938D01*
X142615403Y-141664936D01*
X142380001Y-141644341D01*
X142379999Y-141644341D01*
X142144596Y-141664936D01*
X142144586Y-141664938D01*
X141916344Y-141726094D01*
X141916335Y-141726098D01*
X141702171Y-141825964D01*
X141702169Y-141825965D01*
X141508597Y-141961505D01*
X141341505Y-142128597D01*
X141211575Y-142314158D01*
X141156998Y-142357783D01*
X141087500Y-142364977D01*
X141025145Y-142333454D01*
X141008425Y-142314158D01*
X140878494Y-142128597D01*
X140711402Y-141961506D01*
X140711395Y-141961501D01*
X140517834Y-141825967D01*
X140517830Y-141825965D01*
X140420420Y-141780542D01*
X140303663Y-141726097D01*
X140303659Y-141726096D01*
X140303655Y-141726094D01*
X140075413Y-141664938D01*
X140075403Y-141664936D01*
X139840001Y-141644341D01*
X139839999Y-141644341D01*
X139604596Y-141664936D01*
X139604586Y-141664938D01*
X139376344Y-141726094D01*
X139376335Y-141726098D01*
X139162171Y-141825964D01*
X139162169Y-141825965D01*
X138968597Y-141961505D01*
X138801505Y-142128597D01*
X138671575Y-142314158D01*
X138616998Y-142357783D01*
X138547500Y-142364977D01*
X138485145Y-142333454D01*
X138468425Y-142314158D01*
X138338494Y-142128597D01*
X138171402Y-141961506D01*
X138171395Y-141961501D01*
X137977834Y-141825967D01*
X137977830Y-141825965D01*
X137880420Y-141780542D01*
X137763663Y-141726097D01*
X137763659Y-141726096D01*
X137763655Y-141726094D01*
X137535413Y-141664938D01*
X137535403Y-141664936D01*
X137300001Y-141644341D01*
X137299999Y-141644341D01*
X137064596Y-141664936D01*
X137064586Y-141664938D01*
X136836344Y-141726094D01*
X136836335Y-141726098D01*
X136622171Y-141825964D01*
X136622169Y-141825965D01*
X136428597Y-141961505D01*
X136261508Y-142128594D01*
X136131269Y-142314595D01*
X136076692Y-142358219D01*
X136007193Y-142365412D01*
X135944839Y-142333890D01*
X135928119Y-142314594D01*
X135798113Y-142128926D01*
X135798108Y-142128920D01*
X135631082Y-141961894D01*
X135437578Y-141826399D01*
X135223492Y-141726570D01*
X135223486Y-141726567D01*
X135010000Y-141669364D01*
X135010000Y-142566988D01*
X134952993Y-142534075D01*
X134825826Y-142500000D01*
X134694174Y-142500000D01*
X134567007Y-142534075D01*
X134510000Y-142566988D01*
X134510000Y-141669364D01*
X134509999Y-141669364D01*
X134296513Y-141726567D01*
X134296507Y-141726570D01*
X134082422Y-141826399D01*
X134082420Y-141826400D01*
X133888926Y-141961886D01*
X133888920Y-141961891D01*
X133721891Y-142128920D01*
X133721886Y-142128926D01*
X133586400Y-142322420D01*
X133586399Y-142322422D01*
X133486570Y-142536507D01*
X133486567Y-142536513D01*
X133429364Y-142749999D01*
X133429364Y-142750000D01*
X134326988Y-142750000D01*
X134294075Y-142807007D01*
X134260000Y-142934174D01*
X134260000Y-143065826D01*
X134294075Y-143192993D01*
X134326988Y-143250000D01*
X133429364Y-143250000D01*
X133486567Y-143463486D01*
X133486570Y-143463492D01*
X133586399Y-143677578D01*
X133721894Y-143871082D01*
X133888917Y-144038105D01*
X134075031Y-144168425D01*
X134118656Y-144223003D01*
X134125848Y-144292501D01*
X134094326Y-144354856D01*
X134075031Y-144371575D01*
X133888922Y-144501890D01*
X133888920Y-144501891D01*
X133721891Y-144668920D01*
X133721886Y-144668926D01*
X133586400Y-144862420D01*
X133586399Y-144862422D01*
X133486570Y-145076507D01*
X133486567Y-145076513D01*
X133429364Y-145289999D01*
X133429364Y-145290000D01*
X134326988Y-145290000D01*
X134294075Y-145347007D01*
X134260000Y-145474174D01*
X134260000Y-145605826D01*
X134294075Y-145732993D01*
X134326988Y-145790000D01*
X133429364Y-145790000D01*
X133486567Y-146003486D01*
X133486570Y-146003492D01*
X133586399Y-146217578D01*
X133721894Y-146411082D01*
X133888917Y-146578105D01*
X134082421Y-146713600D01*
X134296507Y-146813429D01*
X134296516Y-146813433D01*
X134510000Y-146870634D01*
X134510000Y-145973012D01*
X134567007Y-146005925D01*
X134694174Y-146040000D01*
X134825826Y-146040000D01*
X134952993Y-146005925D01*
X135010000Y-145973012D01*
X135010000Y-146870633D01*
X135223483Y-146813433D01*
X135223492Y-146813429D01*
X135437578Y-146713600D01*
X135631082Y-146578105D01*
X135798105Y-146411082D01*
X135928119Y-146225405D01*
X135982696Y-146181781D01*
X136052195Y-146174588D01*
X136114549Y-146206110D01*
X136131269Y-146225405D01*
X136261505Y-146411401D01*
X136428599Y-146578495D01*
X136489961Y-146621461D01*
X136622165Y-146714032D01*
X136622167Y-146714033D01*
X136622170Y-146714035D01*
X136836337Y-146813903D01*
X136836343Y-146813904D01*
X136836344Y-146813905D01*
X136891285Y-146828626D01*
X137064592Y-146875063D01*
X137252918Y-146891539D01*
X137299999Y-146895659D01*
X137300000Y-146895659D01*
X137300001Y-146895659D01*
X137339234Y-146892226D01*
X137535408Y-146875063D01*
X137763663Y-146813903D01*
X137977830Y-146714035D01*
X138171401Y-146578495D01*
X138338495Y-146411401D01*
X138468425Y-146225842D01*
X138523002Y-146182217D01*
X138592500Y-146175023D01*
X138654855Y-146206546D01*
X138671575Y-146225842D01*
X138801281Y-146411082D01*
X138801505Y-146411401D01*
X138968599Y-146578495D01*
X139029961Y-146621461D01*
X139162165Y-146714032D01*
X139162167Y-146714033D01*
X139162170Y-146714035D01*
X139376337Y-146813903D01*
X139376343Y-146813904D01*
X139376344Y-146813905D01*
X139431285Y-146828626D01*
X139604592Y-146875063D01*
X139792918Y-146891539D01*
X139839999Y-146895659D01*
X139840000Y-146895659D01*
X139840001Y-146895659D01*
X139879234Y-146892226D01*
X140075408Y-146875063D01*
X140303663Y-146813903D01*
X140517830Y-146714035D01*
X140711401Y-146578495D01*
X140878495Y-146411401D01*
X141008425Y-146225842D01*
X141063002Y-146182217D01*
X141132500Y-146175023D01*
X141194855Y-146206546D01*
X141211575Y-146225842D01*
X141341501Y-146411396D01*
X141341506Y-146411402D01*
X141508597Y-146578493D01*
X141508603Y-146578498D01*
X141559572Y-146614187D01*
X141680119Y-146698595D01*
X141680121Y-146698596D01*
X141712101Y-146731281D01*
X141714914Y-146735492D01*
X141714916Y-146735495D01*
X141738192Y-146770330D01*
X141797050Y-146858418D01*
X141901580Y-146962948D01*
X141901584Y-146962951D01*
X142024498Y-147045080D01*
X142024511Y-147045087D01*
X142153559Y-147098540D01*
X142161087Y-147101658D01*
X142161091Y-147101658D01*
X142161092Y-147101659D01*
X142306079Y-147130500D01*
X142306082Y-147130500D01*
X142453920Y-147130500D01*
X142551462Y-147111096D01*
X142598913Y-147101658D01*
X142735495Y-147045084D01*
X142858416Y-146962951D01*
X142962951Y-146858416D01*
X143045084Y-146735495D01*
X143045086Y-146735489D01*
X143047899Y-146731280D01*
X143079875Y-146698598D01*
X143251401Y-146578495D01*
X143418495Y-146411401D01*
X143548425Y-146225842D01*
X143603002Y-146182217D01*
X143672500Y-146175023D01*
X143734855Y-146206546D01*
X143751575Y-146225842D01*
X143881501Y-146411396D01*
X143881506Y-146411402D01*
X143901180Y-146431076D01*
X143934665Y-146492399D01*
X143935117Y-146542947D01*
X143919500Y-146621461D01*
X143919500Y-146818544D01*
X143957947Y-147011828D01*
X143957949Y-147011836D01*
X144033367Y-147193910D01*
X144033372Y-147193920D01*
X144142860Y-147357780D01*
X144142863Y-147357784D01*
X145169735Y-148384655D01*
X145169764Y-148384686D01*
X145312214Y-148527136D01*
X145312218Y-148527139D01*
X145476079Y-148636628D01*
X145476092Y-148636635D01*
X145604833Y-148689961D01*
X145647744Y-148707735D01*
X145658164Y-148712051D01*
X145754812Y-148731275D01*
X145803135Y-148740887D01*
X145851458Y-148750500D01*
X145851459Y-148750500D01*
X173098542Y-148750500D01*
X173117870Y-148746655D01*
X173195188Y-148731275D01*
X173291836Y-148712051D01*
X173345165Y-148689961D01*
X173473914Y-148636632D01*
X173637782Y-148527139D01*
X173777139Y-148387782D01*
X173777140Y-148387779D01*
X173784206Y-148380714D01*
X173784209Y-148380710D01*
X184262778Y-137902141D01*
X184262782Y-137902139D01*
X184402139Y-137762782D01*
X184511632Y-137598914D01*
X184587051Y-137416835D01*
X184625500Y-137223541D01*
X184625500Y-91901459D01*
X184625500Y-87874500D01*
X184645185Y-87807461D01*
X184697989Y-87761706D01*
X184749500Y-87750500D01*
X184884581Y-87750500D01*
X184982123Y-87731096D01*
X185029574Y-87721658D01*
X185166156Y-87665084D01*
X185225398Y-87625500D01*
X185225398Y-87625499D01*
X185225400Y-87625499D01*
X185257237Y-87604226D01*
X185289077Y-87582952D01*
X192287819Y-80584210D01*
X192349142Y-80550725D01*
X192418834Y-80555709D01*
X192474767Y-80597581D01*
X192499184Y-80663045D01*
X192499500Y-80671891D01*
X192499500Y-132034217D01*
X192479815Y-132101256D01*
X192463181Y-132121898D01*
X178222863Y-146362215D01*
X178222860Y-146362219D01*
X178113372Y-146526079D01*
X178113367Y-146526089D01*
X178037949Y-146708163D01*
X178037947Y-146708171D01*
X177999500Y-146901455D01*
X177999500Y-147098544D01*
X178037947Y-147291828D01*
X178037949Y-147291836D01*
X178113367Y-147473910D01*
X178113372Y-147473920D01*
X178222860Y-147637780D01*
X178222863Y-147637784D01*
X178362215Y-147777136D01*
X178362219Y-147777139D01*
X178526079Y-147886627D01*
X178526083Y-147886629D01*
X178526086Y-147886631D01*
X178708164Y-147962051D01*
X178901455Y-148000499D01*
X178901458Y-148000500D01*
X178901460Y-148000500D01*
X179098542Y-148000500D01*
X179098543Y-148000499D01*
X179291836Y-147962051D01*
X179473914Y-147886631D01*
X179637781Y-147777139D01*
X194277140Y-133137781D01*
X194386632Y-132973914D01*
X194462052Y-132791835D01*
X194500500Y-132598540D01*
X194500500Y-132401459D01*
X194500500Y-73051459D01*
X194500500Y-73051456D01*
X194462052Y-72858170D01*
X194462051Y-72858169D01*
X194462051Y-72858165D01*
X194462049Y-72858160D01*
X194386635Y-72676092D01*
X194386628Y-72676079D01*
X194277139Y-72512218D01*
X194277136Y-72512214D01*
X194134686Y-72369764D01*
X194134655Y-72369735D01*
X193636819Y-71871899D01*
X193603334Y-71810576D01*
X193600500Y-71784218D01*
X193600500Y-66276079D01*
X193571659Y-66131092D01*
X193571658Y-66131091D01*
X193571658Y-66131087D01*
X193571656Y-66131082D01*
X193515087Y-65994511D01*
X193515080Y-65994498D01*
X193432952Y-65871585D01*
X193389170Y-65827803D01*
X193328416Y-65767049D01*
X192984892Y-65423525D01*
X192954643Y-65374163D01*
X192931250Y-65302165D01*
X192931249Y-65302163D01*
X192931248Y-65302160D01*
X192877108Y-65208389D01*
X192841859Y-65147335D01*
X192722235Y-65014478D01*
X192722232Y-65014476D01*
X192722231Y-65014475D01*
X192722230Y-65014474D01*
X192577593Y-64909388D01*
X192414267Y-64836671D01*
X192414265Y-64836670D01*
X192286594Y-64809533D01*
X192239391Y-64799500D01*
X192060609Y-64799500D01*
X192029954Y-64806015D01*
X191885733Y-64836670D01*
X191885728Y-64836672D01*
X191722408Y-64909387D01*
X191577768Y-65014475D01*
X191458140Y-65147336D01*
X191368750Y-65302164D01*
X191368747Y-65302170D01*
X191313504Y-65472192D01*
X191313503Y-65472194D01*
X191294815Y-65650000D01*
X191313503Y-65827805D01*
X191313504Y-65827807D01*
X191368747Y-65997829D01*
X191368750Y-65997835D01*
X191458141Y-66152665D01*
X191499812Y-66198946D01*
X191577764Y-66285521D01*
X191577767Y-66285523D01*
X191577770Y-66285526D01*
X191722407Y-66390612D01*
X191885733Y-66463329D01*
X191885734Y-66463329D01*
X191891670Y-66465972D01*
X191890890Y-66467723D01*
X191930819Y-66492187D01*
X192063182Y-66624549D01*
X192096666Y-66685870D01*
X192099500Y-66712229D01*
X192099500Y-71625500D01*
X192079815Y-71692539D01*
X192027011Y-71738294D01*
X191975500Y-71749500D01*
X189426080Y-71749500D01*
X189281092Y-71778340D01*
X189281082Y-71778343D01*
X189144511Y-71834912D01*
X189144498Y-71834919D01*
X189021584Y-71917048D01*
X189021580Y-71917051D01*
X188175451Y-72763181D01*
X188114128Y-72796666D01*
X188087770Y-72799500D01*
X185972038Y-72799500D01*
X185904999Y-72779815D01*
X185859244Y-72727011D01*
X185848717Y-72688462D01*
X185847416Y-72676086D01*
X185836497Y-72572197D01*
X185781250Y-72402165D01*
X185767113Y-72377678D01*
X185750500Y-72315678D01*
X185750500Y-71612229D01*
X185770185Y-71545190D01*
X185786815Y-71524552D01*
X186469178Y-70842188D01*
X186509112Y-70817729D01*
X186508330Y-70815972D01*
X186514265Y-70813329D01*
X186514267Y-70813329D01*
X186677593Y-70740612D01*
X186822230Y-70635526D01*
X186827372Y-70629816D01*
X186848148Y-70606741D01*
X186941859Y-70502665D01*
X187031250Y-70347835D01*
X187086497Y-70177803D01*
X187105185Y-70000000D01*
X187086497Y-69822197D01*
X187031250Y-69652165D01*
X186941859Y-69497335D01*
X186895003Y-69445296D01*
X186822235Y-69364478D01*
X186822232Y-69364476D01*
X186822231Y-69364475D01*
X186822230Y-69364474D01*
X186677593Y-69259388D01*
X186514267Y-69186671D01*
X186514265Y-69186670D01*
X186386594Y-69159533D01*
X186339391Y-69149500D01*
X186160609Y-69149500D01*
X186129954Y-69156015D01*
X185985733Y-69186670D01*
X185985728Y-69186672D01*
X185822408Y-69259387D01*
X185677768Y-69364475D01*
X185558140Y-69497336D01*
X185468750Y-69652164D01*
X185468746Y-69652174D01*
X185445354Y-69724164D01*
X185415105Y-69773525D01*
X184417049Y-70771582D01*
X184389155Y-70813330D01*
X184389154Y-70813331D01*
X184334919Y-70894498D01*
X184334912Y-70894511D01*
X184278343Y-71031082D01*
X184278340Y-71031092D01*
X184249500Y-71176079D01*
X184249500Y-72315678D01*
X184232887Y-72377678D01*
X184218750Y-72402163D01*
X184163504Y-72572192D01*
X184163503Y-72572195D01*
X184151283Y-72688462D01*
X184124698Y-72753077D01*
X184067400Y-72793061D01*
X184027962Y-72799500D01*
X178921956Y-72799500D01*
X178854917Y-72779815D01*
X178809162Y-72727011D01*
X178798736Y-72689384D01*
X178788556Y-72599044D01*
X178785368Y-72570745D01*
X178757458Y-72490982D01*
X178750500Y-72450028D01*
X178750500Y-70887229D01*
X178770185Y-70820190D01*
X178786818Y-70799549D01*
X178833060Y-70753306D01*
X178869134Y-70730650D01*
X178868248Y-70728810D01*
X178874510Y-70725792D01*
X178874522Y-70725789D01*
X179027262Y-70629816D01*
X179154816Y-70502262D01*
X179250789Y-70349522D01*
X179310368Y-70179255D01*
X179310531Y-70177807D01*
X179330565Y-70000003D01*
X179330565Y-69999996D01*
X179310369Y-69820750D01*
X179310368Y-69820745D01*
X179258294Y-69671926D01*
X179250789Y-69650478D01*
X179154816Y-69497738D01*
X179027262Y-69370184D01*
X179018175Y-69364474D01*
X178874523Y-69274211D01*
X178704254Y-69214631D01*
X178704249Y-69214630D01*
X178525004Y-69194435D01*
X178524996Y-69194435D01*
X178345750Y-69214630D01*
X178345745Y-69214631D01*
X178175476Y-69274211D01*
X178022737Y-69370184D01*
X177895184Y-69497737D01*
X177799212Y-69650475D01*
X177796191Y-69656750D01*
X177794370Y-69655873D01*
X177771693Y-69691937D01*
X177417049Y-70046581D01*
X177367812Y-70120271D01*
X177334921Y-70169496D01*
X177334914Y-70169508D01*
X177278342Y-70306086D01*
X177278340Y-70306092D01*
X177249500Y-70451079D01*
X177249500Y-72450028D01*
X177242542Y-72490982D01*
X177214631Y-72570747D01*
X177201264Y-72689384D01*
X177174197Y-72753798D01*
X177116603Y-72793353D01*
X177078044Y-72799500D01*
X172262230Y-72799500D01*
X172195191Y-72779815D01*
X172174548Y-72763180D01*
X172136818Y-72725449D01*
X172103333Y-72664125D01*
X172100500Y-72637769D01*
X172100500Y-66276079D01*
X172071659Y-66131092D01*
X172071658Y-66131091D01*
X172071658Y-66131087D01*
X172071656Y-66131082D01*
X172015087Y-65994511D01*
X172015080Y-65994498D01*
X171932952Y-65871585D01*
X171889170Y-65827803D01*
X171828416Y-65767049D01*
X171484892Y-65423525D01*
X171454643Y-65374163D01*
X171431250Y-65302165D01*
X171431249Y-65302163D01*
X171431248Y-65302160D01*
X171377108Y-65208389D01*
X171341859Y-65147335D01*
X171222235Y-65014478D01*
X171222232Y-65014476D01*
X171222231Y-65014475D01*
X171222230Y-65014474D01*
X171077593Y-64909388D01*
X170914267Y-64836671D01*
X170914265Y-64836670D01*
X170786594Y-64809533D01*
X170739391Y-64799500D01*
X170560609Y-64799500D01*
X170529954Y-64806015D01*
X170385733Y-64836670D01*
X170385728Y-64836672D01*
X170222408Y-64909387D01*
X170077768Y-65014475D01*
X169958140Y-65147336D01*
X169868750Y-65302164D01*
X169868747Y-65302170D01*
X169813504Y-65472192D01*
X169813503Y-65472194D01*
X169794815Y-65650000D01*
X169813503Y-65827805D01*
X169813504Y-65827807D01*
X169868747Y-65997829D01*
X169868750Y-65997835D01*
X169958141Y-66152665D01*
X169999812Y-66198946D01*
X170077764Y-66285521D01*
X170077767Y-66285523D01*
X170077770Y-66285526D01*
X170222407Y-66390612D01*
X170385733Y-66463329D01*
X170385734Y-66463329D01*
X170391670Y-66465972D01*
X170390890Y-66467723D01*
X170430819Y-66492187D01*
X170563182Y-66624549D01*
X170596666Y-66685870D01*
X170599500Y-66712229D01*
X170599500Y-72675500D01*
X170579815Y-72742539D01*
X170527011Y-72788294D01*
X170475500Y-72799500D01*
X164472038Y-72799500D01*
X164404999Y-72779815D01*
X164359244Y-72727011D01*
X164348717Y-72688462D01*
X164347416Y-72676086D01*
X164336497Y-72572197D01*
X164281250Y-72402165D01*
X164267113Y-72377678D01*
X164250500Y-72315678D01*
X164250500Y-71612229D01*
X164270185Y-71545190D01*
X164286815Y-71524552D01*
X164969178Y-70842188D01*
X165009112Y-70817729D01*
X165008330Y-70815972D01*
X165014265Y-70813329D01*
X165014267Y-70813329D01*
X165177593Y-70740612D01*
X165322230Y-70635526D01*
X165327372Y-70629816D01*
X165348148Y-70606741D01*
X165441859Y-70502665D01*
X165531250Y-70347835D01*
X165586497Y-70177803D01*
X165605185Y-70000000D01*
X165586497Y-69822197D01*
X165531250Y-69652165D01*
X165441859Y-69497335D01*
X165395003Y-69445296D01*
X165322235Y-69364478D01*
X165322232Y-69364476D01*
X165322231Y-69364475D01*
X165322230Y-69364474D01*
X165177593Y-69259388D01*
X165014267Y-69186671D01*
X165014265Y-69186670D01*
X164886594Y-69159533D01*
X164839391Y-69149500D01*
X164660609Y-69149500D01*
X164629954Y-69156015D01*
X164485733Y-69186670D01*
X164485728Y-69186672D01*
X164322408Y-69259387D01*
X164177768Y-69364475D01*
X164058140Y-69497336D01*
X163968750Y-69652164D01*
X163968746Y-69652174D01*
X163945354Y-69724164D01*
X163915105Y-69773525D01*
X162917049Y-70771582D01*
X162889155Y-70813330D01*
X162889154Y-70813331D01*
X162834919Y-70894498D01*
X162834912Y-70894511D01*
X162778343Y-71031082D01*
X162778340Y-71031092D01*
X162749500Y-71176079D01*
X162749500Y-72315678D01*
X162732887Y-72377678D01*
X162718750Y-72402163D01*
X162663504Y-72572192D01*
X162663503Y-72572195D01*
X162651283Y-72688462D01*
X162624698Y-72753077D01*
X162567400Y-72793061D01*
X162527962Y-72799500D01*
X157421956Y-72799500D01*
X157354917Y-72779815D01*
X157309162Y-72727011D01*
X157298736Y-72689384D01*
X157288556Y-72599044D01*
X157285368Y-72570745D01*
X157257458Y-72490982D01*
X157250500Y-72450028D01*
X157250500Y-70887229D01*
X157270185Y-70820190D01*
X157286818Y-70799549D01*
X157333060Y-70753306D01*
X157369134Y-70730650D01*
X157368248Y-70728810D01*
X157374510Y-70725792D01*
X157374522Y-70725789D01*
X157527262Y-70629816D01*
X157654816Y-70502262D01*
X157750789Y-70349522D01*
X157810368Y-70179255D01*
X157810531Y-70177807D01*
X157830565Y-70000003D01*
X157830565Y-69999996D01*
X157810369Y-69820750D01*
X157810368Y-69820745D01*
X157758294Y-69671926D01*
X157750789Y-69650478D01*
X157654816Y-69497738D01*
X157527262Y-69370184D01*
X157518175Y-69364474D01*
X157374523Y-69274211D01*
X157204254Y-69214631D01*
X157204249Y-69214630D01*
X157025004Y-69194435D01*
X157024996Y-69194435D01*
X156845750Y-69214630D01*
X156845745Y-69214631D01*
X156675476Y-69274211D01*
X156522737Y-69370184D01*
X156395184Y-69497737D01*
X156299212Y-69650475D01*
X156296191Y-69656750D01*
X156294370Y-69655873D01*
X156271693Y-69691937D01*
X155917049Y-70046581D01*
X155867812Y-70120271D01*
X155834921Y-70169496D01*
X155834914Y-70169508D01*
X155778342Y-70306086D01*
X155778340Y-70306092D01*
X155749500Y-70451079D01*
X155749500Y-72450028D01*
X155742542Y-72490982D01*
X155714631Y-72570747D01*
X155701264Y-72689384D01*
X155674197Y-72753798D01*
X155616603Y-72793353D01*
X155578044Y-72799500D01*
X150762230Y-72799500D01*
X150695191Y-72779815D01*
X150674548Y-72763180D01*
X150636818Y-72725449D01*
X150603333Y-72664125D01*
X150600500Y-72637769D01*
X150600500Y-66276079D01*
X150571659Y-66131092D01*
X150571658Y-66131091D01*
X150571658Y-66131087D01*
X150571656Y-66131082D01*
X150515087Y-65994511D01*
X150515080Y-65994498D01*
X150432952Y-65871585D01*
X150389170Y-65827803D01*
X150328416Y-65767049D01*
X149984892Y-65423525D01*
X149954643Y-65374163D01*
X149931250Y-65302165D01*
X149931249Y-65302163D01*
X149931248Y-65302160D01*
X149877108Y-65208389D01*
X149841859Y-65147335D01*
X149722235Y-65014478D01*
X149722232Y-65014476D01*
X149722231Y-65014475D01*
X149722230Y-65014474D01*
X149577593Y-64909388D01*
X149414267Y-64836671D01*
X149414265Y-64836670D01*
X149286594Y-64809533D01*
X149239391Y-64799500D01*
X149060609Y-64799500D01*
X149029954Y-64806015D01*
X148885733Y-64836670D01*
X148885728Y-64836672D01*
X148722408Y-64909387D01*
X148577768Y-65014475D01*
X148458140Y-65147336D01*
X148368750Y-65302164D01*
X148368747Y-65302170D01*
X148313504Y-65472192D01*
X148313503Y-65472194D01*
X148294815Y-65650000D01*
X148313503Y-65827805D01*
X148313504Y-65827807D01*
X148368747Y-65997829D01*
X148368750Y-65997835D01*
X148458141Y-66152665D01*
X148499812Y-66198946D01*
X148577764Y-66285521D01*
X148577767Y-66285523D01*
X148577770Y-66285526D01*
X148722407Y-66390612D01*
X148885733Y-66463329D01*
X148885734Y-66463329D01*
X148891670Y-66465972D01*
X148890890Y-66467723D01*
X148930819Y-66492187D01*
X149063182Y-66624549D01*
X149096666Y-66685870D01*
X149099500Y-66712229D01*
X149099500Y-72675500D01*
X149079815Y-72742539D01*
X149027011Y-72788294D01*
X148975500Y-72799500D01*
X142972038Y-72799500D01*
X142904999Y-72779815D01*
X142859244Y-72727011D01*
X142848717Y-72688462D01*
X142847416Y-72676086D01*
X142836497Y-72572197D01*
X142781250Y-72402165D01*
X142767113Y-72377678D01*
X142750500Y-72315678D01*
X142750500Y-71612229D01*
X142770185Y-71545190D01*
X142786815Y-71524552D01*
X143469178Y-70842188D01*
X143509112Y-70817729D01*
X143508330Y-70815972D01*
X143514265Y-70813329D01*
X143514267Y-70813329D01*
X143677593Y-70740612D01*
X143822230Y-70635526D01*
X143827372Y-70629816D01*
X143848148Y-70606741D01*
X143941859Y-70502665D01*
X144031250Y-70347835D01*
X144086497Y-70177803D01*
X144105185Y-70000000D01*
X144086497Y-69822197D01*
X144031250Y-69652165D01*
X143941859Y-69497335D01*
X143895003Y-69445296D01*
X143822235Y-69364478D01*
X143822232Y-69364476D01*
X143822231Y-69364475D01*
X143822230Y-69364474D01*
X143677593Y-69259388D01*
X143514267Y-69186671D01*
X143514265Y-69186670D01*
X143386594Y-69159533D01*
X143339391Y-69149500D01*
X143160609Y-69149500D01*
X143129954Y-69156015D01*
X142985733Y-69186670D01*
X142985728Y-69186672D01*
X142822408Y-69259387D01*
X142677768Y-69364475D01*
X142558140Y-69497336D01*
X142468750Y-69652164D01*
X142468746Y-69652174D01*
X142445354Y-69724164D01*
X142415105Y-69773525D01*
X141417049Y-70771582D01*
X141389155Y-70813330D01*
X141389154Y-70813331D01*
X141334919Y-70894498D01*
X141334912Y-70894511D01*
X141278343Y-71031082D01*
X141278340Y-71031092D01*
X141249500Y-71176079D01*
X141249500Y-72315678D01*
X141232887Y-72377678D01*
X141218750Y-72402163D01*
X141163504Y-72572192D01*
X141163503Y-72572195D01*
X141151283Y-72688462D01*
X141124698Y-72753077D01*
X141067400Y-72793061D01*
X141027962Y-72799500D01*
X135921956Y-72799500D01*
X135854917Y-72779815D01*
X135809162Y-72727011D01*
X135798736Y-72689384D01*
X135788556Y-72599044D01*
X135785368Y-72570745D01*
X135757458Y-72490982D01*
X135750500Y-72450028D01*
X135750500Y-70887229D01*
X135770185Y-70820190D01*
X135786818Y-70799549D01*
X135833060Y-70753306D01*
X135869134Y-70730650D01*
X135868248Y-70728810D01*
X135874510Y-70725792D01*
X135874522Y-70725789D01*
X136027262Y-70629816D01*
X136154816Y-70502262D01*
X136250789Y-70349522D01*
X136310368Y-70179255D01*
X136310531Y-70177807D01*
X136330565Y-70000003D01*
X136330565Y-69999996D01*
X136310369Y-69820750D01*
X136310368Y-69820745D01*
X136258294Y-69671926D01*
X136250789Y-69650478D01*
X136154816Y-69497738D01*
X136027262Y-69370184D01*
X136018175Y-69364474D01*
X135874523Y-69274211D01*
X135704254Y-69214631D01*
X135704249Y-69214630D01*
X135525004Y-69194435D01*
X135524996Y-69194435D01*
X135345750Y-69214630D01*
X135345745Y-69214631D01*
X135175476Y-69274211D01*
X135022737Y-69370184D01*
X134895184Y-69497737D01*
X134799212Y-69650475D01*
X134796191Y-69656750D01*
X134794370Y-69655873D01*
X134771693Y-69691937D01*
X134417049Y-70046581D01*
X134367812Y-70120271D01*
X134334921Y-70169496D01*
X134334914Y-70169508D01*
X134278342Y-70306086D01*
X134278340Y-70306092D01*
X134249500Y-70451079D01*
X134249500Y-72450028D01*
X134242542Y-72490982D01*
X134214631Y-72570747D01*
X134201264Y-72689384D01*
X134174197Y-72753798D01*
X134116603Y-72793353D01*
X134078044Y-72799500D01*
X130262230Y-72799500D01*
X130195191Y-72779815D01*
X130174549Y-72763181D01*
X129136819Y-71725451D01*
X129103334Y-71664128D01*
X129100500Y-71637770D01*
X129100500Y-66276079D01*
X129071659Y-66131092D01*
X129071658Y-66131091D01*
X129071658Y-66131087D01*
X129071656Y-66131082D01*
X129015087Y-65994511D01*
X129015080Y-65994498D01*
X128932952Y-65871585D01*
X128889170Y-65827803D01*
X128828416Y-65767049D01*
X128484892Y-65423525D01*
X128454643Y-65374163D01*
X128431250Y-65302165D01*
X128431249Y-65302163D01*
X128431248Y-65302160D01*
X128377108Y-65208389D01*
X128341859Y-65147335D01*
X128222235Y-65014478D01*
X128222232Y-65014476D01*
X128222231Y-65014475D01*
X128222230Y-65014474D01*
X128077593Y-64909388D01*
X127914267Y-64836671D01*
X127914265Y-64836670D01*
X127786594Y-64809533D01*
X127739391Y-64799500D01*
X127560609Y-64799500D01*
X127529954Y-64806015D01*
X127385733Y-64836670D01*
X127385728Y-64836672D01*
X127222408Y-64909387D01*
X127077768Y-65014475D01*
X126958140Y-65147336D01*
X126868750Y-65302164D01*
X126868747Y-65302170D01*
X126813504Y-65472192D01*
X126813503Y-65472194D01*
X126794815Y-65650000D01*
X126813503Y-65827805D01*
X126813504Y-65827807D01*
X126868747Y-65997829D01*
X126868750Y-65997835D01*
X126958141Y-66152665D01*
X126999812Y-66198946D01*
X127077764Y-66285521D01*
X127077767Y-66285523D01*
X127077770Y-66285526D01*
X127222407Y-66390612D01*
X127385733Y-66463329D01*
X127385734Y-66463329D01*
X127391670Y-66465972D01*
X127390890Y-66467723D01*
X127430819Y-66492187D01*
X127563182Y-66624549D01*
X127596666Y-66685870D01*
X127599500Y-66712229D01*
X127599500Y-72073918D01*
X127599500Y-72073920D01*
X127599499Y-72073920D01*
X127628340Y-72218907D01*
X127628343Y-72218917D01*
X127684913Y-72355490D01*
X127684916Y-72355495D01*
X127696517Y-72372856D01*
X127696518Y-72372861D01*
X127696520Y-72372861D01*
X127767051Y-72478420D01*
X127767052Y-72478421D01*
X129421584Y-74132952D01*
X129421586Y-74132954D01*
X129451058Y-74152645D01*
X129495270Y-74182186D01*
X129544505Y-74215084D01*
X129544506Y-74215084D01*
X129544507Y-74215085D01*
X129544509Y-74215086D01*
X129681082Y-74271656D01*
X129681087Y-74271658D01*
X129681091Y-74271658D01*
X129681092Y-74271659D01*
X129826079Y-74300500D01*
X129826082Y-74300500D01*
X188523920Y-74300500D01*
X188621462Y-74281096D01*
X188668913Y-74271658D01*
X188805495Y-74215084D01*
X188854729Y-74182186D01*
X188854734Y-74182183D01*
X188879071Y-74165921D01*
X188928416Y-74132952D01*
X189774548Y-73286818D01*
X189835871Y-73253334D01*
X189862229Y-73250500D01*
X192134218Y-73250500D01*
X192201257Y-73270185D01*
X192221899Y-73286819D01*
X192463181Y-73528101D01*
X192496666Y-73589424D01*
X192499500Y-73615782D01*
X192499500Y-77100460D01*
X192479815Y-77167499D01*
X192427011Y-77213254D01*
X192357853Y-77223198D01*
X192325065Y-77213740D01*
X192264267Y-77186671D01*
X192264265Y-77186670D01*
X192101952Y-77152170D01*
X192089391Y-77149500D01*
X191910609Y-77149500D01*
X191898048Y-77152170D01*
X191735733Y-77186670D01*
X191735728Y-77186672D01*
X191572408Y-77259387D01*
X191427768Y-77364475D01*
X191308140Y-77497336D01*
X191218750Y-77652164D01*
X191218747Y-77652170D01*
X191163504Y-77822192D01*
X191163503Y-77822194D01*
X191144815Y-78000000D01*
X191163503Y-78177805D01*
X191163504Y-78177807D01*
X191218747Y-78347829D01*
X191218748Y-78347830D01*
X191218750Y-78347835D01*
X191232887Y-78372322D01*
X191249500Y-78434320D01*
X191249500Y-79448431D01*
X191229815Y-79515470D01*
X191213181Y-79536112D01*
X184544788Y-86204504D01*
X184483465Y-86237989D01*
X184413773Y-86233005D01*
X184369426Y-86204504D01*
X184262785Y-86097863D01*
X184262781Y-86097860D01*
X184098920Y-85988371D01*
X184098907Y-85988364D01*
X183916839Y-85912950D01*
X183916829Y-85912947D01*
X183717566Y-85873311D01*
X183717923Y-85871513D01*
X183661102Y-85848559D01*
X183650377Y-85839010D01*
X183286819Y-85475451D01*
X183253334Y-85414128D01*
X183250500Y-85387770D01*
X183250500Y-85301568D01*
X183270185Y-85234529D01*
X183286814Y-85213892D01*
X186140651Y-82360054D01*
X186201972Y-82326571D01*
X186202334Y-82326492D01*
X186264267Y-82313329D01*
X186427593Y-82240612D01*
X186572230Y-82135526D01*
X186691859Y-82002665D01*
X186781250Y-81847835D01*
X186836497Y-81677803D01*
X186855185Y-81500000D01*
X186836497Y-81322197D01*
X186781250Y-81152165D01*
X186767113Y-81127678D01*
X186750500Y-81065678D01*
X186750500Y-78676079D01*
X186731534Y-78580735D01*
X186731534Y-78580734D01*
X186721659Y-78531088D01*
X186667408Y-78400117D01*
X186665764Y-78395522D01*
X186582954Y-78271588D01*
X186582953Y-78271587D01*
X186582951Y-78271584D01*
X186478416Y-78167049D01*
X185891381Y-77580013D01*
X185857896Y-77518690D01*
X185855741Y-77505294D01*
X185854905Y-77497336D01*
X185836497Y-77322197D01*
X185792462Y-77186671D01*
X185781252Y-77152170D01*
X185781249Y-77152164D01*
X185751398Y-77100460D01*
X185691859Y-76997335D01*
X185645003Y-76945296D01*
X185572235Y-76864478D01*
X185572232Y-76864476D01*
X185572231Y-76864475D01*
X185572230Y-76864474D01*
X185427593Y-76759388D01*
X185264267Y-76686671D01*
X185264265Y-76686670D01*
X185136594Y-76659533D01*
X185089391Y-76649500D01*
X184910609Y-76649500D01*
X184879954Y-76656015D01*
X184735733Y-76686670D01*
X184735728Y-76686672D01*
X184572408Y-76759387D01*
X184427768Y-76864475D01*
X184308140Y-76997336D01*
X184218750Y-77152164D01*
X184218747Y-77152170D01*
X184163504Y-77322192D01*
X184163503Y-77322194D01*
X184144815Y-77500000D01*
X184163503Y-77677805D01*
X184163504Y-77677807D01*
X184218747Y-77847829D01*
X184218749Y-77847832D01*
X184218750Y-77847835D01*
X184254590Y-77909911D01*
X184262685Y-77923933D01*
X184276913Y-77961735D01*
X184278339Y-77968904D01*
X184278342Y-77968915D01*
X184334914Y-78105492D01*
X184354981Y-78135524D01*
X184354982Y-78135527D01*
X184417046Y-78228414D01*
X184417052Y-78228421D01*
X185213181Y-79024548D01*
X185246666Y-79085871D01*
X185249500Y-79112229D01*
X185249500Y-81065678D01*
X185232887Y-81127678D01*
X185217275Y-81154719D01*
X185197569Y-81180400D01*
X182216730Y-84161239D01*
X182155407Y-84194724D01*
X182085715Y-84189740D01*
X182029782Y-84147868D01*
X182021662Y-84135558D01*
X182016410Y-84126461D01*
X181941859Y-83997335D01*
X181895003Y-83945296D01*
X181822235Y-83864478D01*
X181822232Y-83864476D01*
X181822231Y-83864475D01*
X181822230Y-83864474D01*
X181677593Y-83759388D01*
X181514267Y-83686671D01*
X181514265Y-83686670D01*
X181508330Y-83684028D01*
X181509108Y-83682279D01*
X181469177Y-83657809D01*
X178478421Y-80667052D01*
X178478417Y-80667049D01*
X178478416Y-80667048D01*
X178355494Y-80584916D01*
X178355492Y-80584915D01*
X178355490Y-80584914D01*
X178218912Y-80528342D01*
X178218906Y-80528340D01*
X178073919Y-80499500D01*
X178073917Y-80499500D01*
X177926082Y-80499500D01*
X177926080Y-80499500D01*
X177781092Y-80528340D01*
X177781086Y-80528342D01*
X177715017Y-80555709D01*
X177646210Y-80584210D01*
X177638878Y-80587247D01*
X177638520Y-80586385D01*
X177586160Y-80599500D01*
X172831741Y-80599500D01*
X172781306Y-80588780D01*
X172772632Y-80584918D01*
X172664267Y-80536671D01*
X172664265Y-80536670D01*
X172536594Y-80509533D01*
X172489391Y-80499500D01*
X172310609Y-80499500D01*
X172279954Y-80506015D01*
X172135733Y-80536670D01*
X172135728Y-80536672D01*
X171972408Y-80609387D01*
X171827768Y-80714475D01*
X171708140Y-80847336D01*
X171618750Y-81002164D01*
X171618747Y-81002170D01*
X171563504Y-81172192D01*
X171563503Y-81172194D01*
X171544815Y-81350000D01*
X171563503Y-81527805D01*
X171563504Y-81527807D01*
X171618747Y-81697829D01*
X171618750Y-81697835D01*
X171708141Y-81852665D01*
X171749812Y-81898946D01*
X171827764Y-81985521D01*
X171827767Y-81985523D01*
X171827770Y-81985526D01*
X171972407Y-82090612D01*
X172135733Y-82163329D01*
X172310609Y-82200500D01*
X172310610Y-82200500D01*
X172489389Y-82200500D01*
X172489391Y-82200500D01*
X172664267Y-82163329D01*
X172781306Y-82111219D01*
X172831741Y-82100500D01*
X177737770Y-82100500D01*
X177804809Y-82120185D01*
X177825451Y-82136819D01*
X180415106Y-84726474D01*
X180445356Y-84775837D01*
X180468747Y-84847828D01*
X180468750Y-84847835D01*
X180558141Y-85002665D01*
X180599812Y-85048946D01*
X180677764Y-85135521D01*
X180677767Y-85135523D01*
X180677770Y-85135526D01*
X180822407Y-85240612D01*
X180985733Y-85313329D01*
X180985734Y-85313329D01*
X180991670Y-85315972D01*
X180990890Y-85317723D01*
X181030822Y-85342190D01*
X181917048Y-86228416D01*
X182588181Y-86899548D01*
X182621666Y-86960871D01*
X182624500Y-86987229D01*
X182624500Y-90875500D01*
X182604815Y-90942539D01*
X182552011Y-90988294D01*
X182500500Y-90999500D01*
X167965782Y-90999500D01*
X167898743Y-90979815D01*
X167878101Y-90963181D01*
X164231155Y-87316235D01*
X164197670Y-87254912D01*
X164202654Y-87185220D01*
X164231155Y-87140873D01*
X167612640Y-83759388D01*
X171082952Y-80289077D01*
X171132186Y-80215390D01*
X171165084Y-80166156D01*
X171188518Y-80109581D01*
X171221659Y-80029573D01*
X171250500Y-79884578D01*
X171250500Y-79736743D01*
X171250500Y-78434320D01*
X171267112Y-78372322D01*
X171281250Y-78347835D01*
X171336497Y-78177803D01*
X171355185Y-78000000D01*
X171336497Y-77822197D01*
X171289581Y-77677805D01*
X171281252Y-77652170D01*
X171281249Y-77652164D01*
X171239593Y-77580013D01*
X171191859Y-77497335D01*
X171145003Y-77445296D01*
X171072235Y-77364478D01*
X171072232Y-77364476D01*
X171072231Y-77364475D01*
X171072230Y-77364474D01*
X170927593Y-77259388D01*
X170764267Y-77186671D01*
X170764265Y-77186670D01*
X170601952Y-77152170D01*
X170589391Y-77149500D01*
X170410609Y-77149500D01*
X170398048Y-77152170D01*
X170235733Y-77186670D01*
X170235728Y-77186672D01*
X170072408Y-77259387D01*
X169927768Y-77364475D01*
X169808140Y-77497336D01*
X169718750Y-77652164D01*
X169718747Y-77652170D01*
X169663504Y-77822192D01*
X169663503Y-77822194D01*
X169644815Y-78000000D01*
X169663503Y-78177805D01*
X169663504Y-78177807D01*
X169718747Y-78347829D01*
X169718748Y-78347830D01*
X169718750Y-78347835D01*
X169732887Y-78372322D01*
X169749500Y-78434320D01*
X169749500Y-79448430D01*
X169729815Y-79515469D01*
X169713181Y-79536111D01*
X163142989Y-86106302D01*
X163081666Y-86139787D01*
X163011974Y-86134803D01*
X162986418Y-86121724D01*
X162973918Y-86113372D01*
X162973914Y-86113369D01*
X162973909Y-86113367D01*
X162791836Y-86037949D01*
X162791828Y-86037947D01*
X162598543Y-85999500D01*
X162598540Y-85999500D01*
X162401460Y-85999500D01*
X162401459Y-85999500D01*
X162390900Y-86001600D01*
X162321309Y-85995371D01*
X162279031Y-85967663D01*
X161786819Y-85475451D01*
X161753334Y-85414128D01*
X161750500Y-85387770D01*
X161750500Y-85301568D01*
X161770185Y-85234529D01*
X161786814Y-85213892D01*
X164640651Y-82360054D01*
X164701972Y-82326571D01*
X164702334Y-82326492D01*
X164764267Y-82313329D01*
X164927593Y-82240612D01*
X165072230Y-82135526D01*
X165191859Y-82002665D01*
X165281250Y-81847835D01*
X165336497Y-81677803D01*
X165355185Y-81500000D01*
X165336497Y-81322197D01*
X165281250Y-81152165D01*
X165267113Y-81127678D01*
X165250500Y-81065678D01*
X165250500Y-78676079D01*
X165231534Y-78580735D01*
X165231534Y-78580734D01*
X165221659Y-78531088D01*
X165167408Y-78400117D01*
X165165764Y-78395522D01*
X165082954Y-78271588D01*
X165082953Y-78271587D01*
X165082951Y-78271584D01*
X164978416Y-78167049D01*
X164391381Y-77580013D01*
X164357896Y-77518690D01*
X164355741Y-77505294D01*
X164354905Y-77497336D01*
X164336497Y-77322197D01*
X164292462Y-77186671D01*
X164281252Y-77152170D01*
X164281249Y-77152164D01*
X164251398Y-77100460D01*
X164191859Y-76997335D01*
X164145003Y-76945296D01*
X164072235Y-76864478D01*
X164072232Y-76864476D01*
X164072231Y-76864475D01*
X164072230Y-76864474D01*
X163927593Y-76759388D01*
X163764267Y-76686671D01*
X163764265Y-76686670D01*
X163636594Y-76659533D01*
X163589391Y-76649500D01*
X163410609Y-76649500D01*
X163379954Y-76656015D01*
X163235733Y-76686670D01*
X163235728Y-76686672D01*
X163072408Y-76759387D01*
X162927768Y-76864475D01*
X162808140Y-76997336D01*
X162718750Y-77152164D01*
X162718747Y-77152170D01*
X162663504Y-77322192D01*
X162663503Y-77322194D01*
X162644815Y-77500000D01*
X162663503Y-77677805D01*
X162663504Y-77677807D01*
X162718747Y-77847829D01*
X162718749Y-77847832D01*
X162718750Y-77847835D01*
X162754590Y-77909911D01*
X162762685Y-77923933D01*
X162776913Y-77961735D01*
X162778339Y-77968904D01*
X162778342Y-77968915D01*
X162834914Y-78105492D01*
X162854981Y-78135524D01*
X162854982Y-78135527D01*
X162917046Y-78228414D01*
X162917052Y-78228421D01*
X163713181Y-79024548D01*
X163746666Y-79085871D01*
X163749500Y-79112229D01*
X163749500Y-81065678D01*
X163732887Y-81127678D01*
X163717275Y-81154719D01*
X163697569Y-81180400D01*
X160716730Y-84161239D01*
X160655407Y-84194724D01*
X160585715Y-84189740D01*
X160529782Y-84147868D01*
X160521662Y-84135558D01*
X160516410Y-84126461D01*
X160441859Y-83997335D01*
X160395003Y-83945296D01*
X160322235Y-83864478D01*
X160322232Y-83864476D01*
X160322231Y-83864475D01*
X160322230Y-83864474D01*
X160177593Y-83759388D01*
X160014267Y-83686671D01*
X160014265Y-83686670D01*
X160008330Y-83684028D01*
X160009108Y-83682279D01*
X159969177Y-83657809D01*
X156978421Y-80667052D01*
X156978417Y-80667049D01*
X156978416Y-80667048D01*
X156855494Y-80584916D01*
X156855492Y-80584915D01*
X156855490Y-80584914D01*
X156718912Y-80528342D01*
X156718906Y-80528340D01*
X156573919Y-80499500D01*
X156573917Y-80499500D01*
X156426082Y-80499500D01*
X156426080Y-80499500D01*
X156281092Y-80528340D01*
X156281086Y-80528342D01*
X156215017Y-80555709D01*
X156146210Y-80584210D01*
X156138878Y-80587247D01*
X156138520Y-80586385D01*
X156086160Y-80599500D01*
X151331741Y-80599500D01*
X151281306Y-80588780D01*
X151272632Y-80584918D01*
X151164267Y-80536671D01*
X151164265Y-80536670D01*
X151036594Y-80509533D01*
X150989391Y-80499500D01*
X150810609Y-80499500D01*
X150779954Y-80506015D01*
X150635733Y-80536670D01*
X150635728Y-80536672D01*
X150472408Y-80609387D01*
X150327768Y-80714475D01*
X150208140Y-80847336D01*
X150118750Y-81002164D01*
X150118747Y-81002170D01*
X150063504Y-81172192D01*
X150063503Y-81172194D01*
X150044815Y-81350000D01*
X150063503Y-81527805D01*
X150063504Y-81527807D01*
X150118747Y-81697829D01*
X150118750Y-81697835D01*
X150208141Y-81852665D01*
X150249812Y-81898946D01*
X150327764Y-81985521D01*
X150327767Y-81985523D01*
X150327770Y-81985526D01*
X150472407Y-82090612D01*
X150635733Y-82163329D01*
X150810609Y-82200500D01*
X150810610Y-82200500D01*
X150989389Y-82200500D01*
X150989391Y-82200500D01*
X151164267Y-82163329D01*
X151281306Y-82111219D01*
X151331741Y-82100500D01*
X156237770Y-82100500D01*
X156304809Y-82120185D01*
X156325451Y-82136819D01*
X158915106Y-84726474D01*
X158945356Y-84775837D01*
X158968747Y-84847828D01*
X158968750Y-84847835D01*
X159058141Y-85002665D01*
X159099812Y-85048946D01*
X159177764Y-85135521D01*
X159177767Y-85135523D01*
X159177770Y-85135526D01*
X159322407Y-85240612D01*
X159485733Y-85313329D01*
X159485734Y-85313329D01*
X159491670Y-85315972D01*
X159490890Y-85317723D01*
X159530822Y-85342190D01*
X161561152Y-87372520D01*
X161588031Y-87412746D01*
X161613368Y-87473912D01*
X161613373Y-87473921D01*
X161722860Y-87637780D01*
X161722863Y-87637784D01*
X164872899Y-90787819D01*
X164906384Y-90849142D01*
X164901400Y-90918834D01*
X164859528Y-90974767D01*
X164794064Y-90999184D01*
X164785218Y-90999500D01*
X146865782Y-90999500D01*
X146798743Y-90979815D01*
X146778101Y-90963181D01*
X142931155Y-87116235D01*
X142897670Y-87054912D01*
X142902654Y-86985220D01*
X142931155Y-86940873D01*
X146189749Y-83682279D01*
X149582952Y-80289077D01*
X149632186Y-80215390D01*
X149665084Y-80166156D01*
X149688518Y-80109581D01*
X149721659Y-80029573D01*
X149750500Y-79884578D01*
X149750500Y-79736743D01*
X149750500Y-78434320D01*
X149767112Y-78372322D01*
X149781250Y-78347835D01*
X149836497Y-78177803D01*
X149855185Y-78000000D01*
X149836497Y-77822197D01*
X149789581Y-77677805D01*
X149781252Y-77652170D01*
X149781249Y-77652164D01*
X149739593Y-77580013D01*
X149691859Y-77497335D01*
X149645003Y-77445296D01*
X149572235Y-77364478D01*
X149572232Y-77364476D01*
X149572231Y-77364475D01*
X149572230Y-77364474D01*
X149427593Y-77259388D01*
X149264267Y-77186671D01*
X149264265Y-77186670D01*
X149101952Y-77152170D01*
X149089391Y-77149500D01*
X148910609Y-77149500D01*
X148898048Y-77152170D01*
X148735733Y-77186670D01*
X148735728Y-77186672D01*
X148572408Y-77259387D01*
X148427768Y-77364475D01*
X148308140Y-77497336D01*
X148218750Y-77652164D01*
X148218747Y-77652170D01*
X148163504Y-77822192D01*
X148163503Y-77822194D01*
X148144815Y-78000000D01*
X148163503Y-78177805D01*
X148163504Y-78177807D01*
X148218747Y-78347829D01*
X148218748Y-78347830D01*
X148218750Y-78347835D01*
X148232887Y-78372322D01*
X148249500Y-78434320D01*
X148249500Y-79448430D01*
X148229815Y-79515469D01*
X148213181Y-79536111D01*
X141754973Y-85994318D01*
X141693650Y-86027803D01*
X141643101Y-86028254D01*
X141498544Y-85999500D01*
X141498540Y-85999500D01*
X141301460Y-85999500D01*
X141301457Y-85999500D01*
X141108171Y-86037947D01*
X141108163Y-86037949D01*
X141001679Y-86082057D01*
X140932210Y-86089526D01*
X140869730Y-86058251D01*
X140866545Y-86055177D01*
X140286819Y-85475451D01*
X140253334Y-85414128D01*
X140250500Y-85387770D01*
X140250500Y-85301568D01*
X140270185Y-85234529D01*
X140286814Y-85213892D01*
X143140651Y-82360054D01*
X143201972Y-82326571D01*
X143202334Y-82326492D01*
X143264267Y-82313329D01*
X143427593Y-82240612D01*
X143572230Y-82135526D01*
X143691859Y-82002665D01*
X143781250Y-81847835D01*
X143836497Y-81677803D01*
X143855185Y-81500000D01*
X143836497Y-81322197D01*
X143781250Y-81152165D01*
X143767113Y-81127678D01*
X143750500Y-81065678D01*
X143750500Y-78676079D01*
X143731534Y-78580735D01*
X143731534Y-78580734D01*
X143721659Y-78531088D01*
X143667408Y-78400117D01*
X143665764Y-78395522D01*
X143582954Y-78271588D01*
X143582953Y-78271587D01*
X143582951Y-78271584D01*
X143478416Y-78167049D01*
X142891381Y-77580013D01*
X142857896Y-77518690D01*
X142855741Y-77505294D01*
X142854905Y-77497336D01*
X142836497Y-77322197D01*
X142792462Y-77186671D01*
X142781252Y-77152170D01*
X142781249Y-77152164D01*
X142751398Y-77100460D01*
X142691859Y-76997335D01*
X142645003Y-76945296D01*
X142572235Y-76864478D01*
X142572232Y-76864476D01*
X142572231Y-76864475D01*
X142572230Y-76864474D01*
X142427593Y-76759388D01*
X142264267Y-76686671D01*
X142264265Y-76686670D01*
X142136594Y-76659533D01*
X142089391Y-76649500D01*
X141910609Y-76649500D01*
X141879954Y-76656015D01*
X141735733Y-76686670D01*
X141735728Y-76686672D01*
X141572408Y-76759387D01*
X141427768Y-76864475D01*
X141308140Y-76997336D01*
X141218750Y-77152164D01*
X141218747Y-77152170D01*
X141163504Y-77322192D01*
X141163503Y-77322194D01*
X141144815Y-77500000D01*
X141163503Y-77677805D01*
X141163504Y-77677807D01*
X141218747Y-77847829D01*
X141218749Y-77847832D01*
X141218750Y-77847835D01*
X141254590Y-77909911D01*
X141262685Y-77923933D01*
X141276913Y-77961735D01*
X141278339Y-77968904D01*
X141278342Y-77968915D01*
X141334914Y-78105492D01*
X141354981Y-78135524D01*
X141354982Y-78135527D01*
X141417046Y-78228414D01*
X141417052Y-78228421D01*
X142213181Y-79024548D01*
X142246666Y-79085871D01*
X142249500Y-79112229D01*
X142249500Y-81065678D01*
X142232887Y-81127678D01*
X142217275Y-81154719D01*
X142197569Y-81180400D01*
X139216730Y-84161239D01*
X139155407Y-84194724D01*
X139085715Y-84189740D01*
X139029782Y-84147868D01*
X139021662Y-84135558D01*
X139016410Y-84126461D01*
X138941859Y-83997335D01*
X138895003Y-83945296D01*
X138822235Y-83864478D01*
X138822232Y-83864476D01*
X138822231Y-83864475D01*
X138822230Y-83864474D01*
X138677593Y-83759388D01*
X138514267Y-83686671D01*
X138514265Y-83686670D01*
X138508330Y-83684028D01*
X138509108Y-83682279D01*
X138469177Y-83657809D01*
X135478421Y-80667052D01*
X135478417Y-80667049D01*
X135478416Y-80667048D01*
X135355494Y-80584916D01*
X135355492Y-80584915D01*
X135355490Y-80584914D01*
X135218912Y-80528342D01*
X135218906Y-80528340D01*
X135073919Y-80499500D01*
X135073917Y-80499500D01*
X134926082Y-80499500D01*
X134926080Y-80499500D01*
X134781092Y-80528340D01*
X134781086Y-80528342D01*
X134715017Y-80555709D01*
X134646210Y-80584210D01*
X134638878Y-80587247D01*
X134638520Y-80586385D01*
X134586160Y-80599500D01*
X129831741Y-80599500D01*
X129781306Y-80588780D01*
X129772632Y-80584918D01*
X129664267Y-80536671D01*
X129664265Y-80536670D01*
X129536594Y-80509533D01*
X129489391Y-80499500D01*
X129310609Y-80499500D01*
X129279954Y-80506015D01*
X129135733Y-80536670D01*
X129135728Y-80536672D01*
X128972408Y-80609387D01*
X128827768Y-80714475D01*
X128708140Y-80847336D01*
X128618750Y-81002164D01*
X128618747Y-81002170D01*
X128563504Y-81172192D01*
X128563503Y-81172194D01*
X128544815Y-81350000D01*
X128563503Y-81527805D01*
X128563504Y-81527807D01*
X128618747Y-81697829D01*
X128618750Y-81697835D01*
X128708141Y-81852665D01*
X128749812Y-81898946D01*
X128827764Y-81985521D01*
X128827767Y-81985523D01*
X128827770Y-81985526D01*
X128972407Y-82090612D01*
X129135733Y-82163329D01*
X129310609Y-82200500D01*
X129310610Y-82200500D01*
X129489389Y-82200500D01*
X129489391Y-82200500D01*
X129664267Y-82163329D01*
X129781306Y-82111219D01*
X129831741Y-82100500D01*
X134737770Y-82100500D01*
X134804809Y-82120185D01*
X134825451Y-82136819D01*
X137415106Y-84726474D01*
X137445356Y-84775837D01*
X137468747Y-84847828D01*
X137468750Y-84847835D01*
X137558141Y-85002665D01*
X137599812Y-85048946D01*
X137677764Y-85135521D01*
X137677767Y-85135523D01*
X137677770Y-85135526D01*
X137822407Y-85240612D01*
X137985733Y-85313329D01*
X137985734Y-85313329D01*
X137991670Y-85315972D01*
X137990890Y-85317723D01*
X138030822Y-85342190D01*
X138917048Y-86228416D01*
X140271578Y-87582947D01*
X140271585Y-87582953D01*
X140335258Y-87625497D01*
X140335260Y-87625498D01*
X140335263Y-87625500D01*
X140394505Y-87665084D01*
X140531087Y-87721658D01*
X140531091Y-87721658D01*
X140531092Y-87721659D01*
X140676079Y-87750500D01*
X140676082Y-87750500D01*
X140676083Y-87750500D01*
X140684218Y-87750500D01*
X140751257Y-87770185D01*
X140771899Y-87786819D01*
X143772899Y-90787819D01*
X143806384Y-90849142D01*
X143801400Y-90918834D01*
X143759528Y-90974767D01*
X143694064Y-90999184D01*
X143685218Y-90999500D01*
X124715782Y-90999500D01*
X124648743Y-90979815D01*
X124628101Y-90963181D01*
X121106155Y-87441235D01*
X121072670Y-87379912D01*
X121077654Y-87310220D01*
X121106155Y-87265873D01*
X124507554Y-83864474D01*
X128082952Y-80289077D01*
X128132186Y-80215390D01*
X128165084Y-80166156D01*
X128188518Y-80109581D01*
X128221659Y-80029573D01*
X128250500Y-79884578D01*
X128250500Y-79736743D01*
X128250500Y-78434320D01*
X128267112Y-78372322D01*
X128281250Y-78347835D01*
X128336497Y-78177803D01*
X128355185Y-78000000D01*
X128336497Y-77822197D01*
X128289581Y-77677805D01*
X128281252Y-77652170D01*
X128281249Y-77652164D01*
X128239593Y-77580013D01*
X128191859Y-77497335D01*
X128145003Y-77445296D01*
X128072235Y-77364478D01*
X128072232Y-77364476D01*
X128072231Y-77364475D01*
X128072230Y-77364474D01*
X127927593Y-77259388D01*
X127764267Y-77186671D01*
X127764265Y-77186670D01*
X127601952Y-77152170D01*
X127589391Y-77149500D01*
X127410609Y-77149500D01*
X127398048Y-77152170D01*
X127235733Y-77186670D01*
X127235728Y-77186672D01*
X127072408Y-77259387D01*
X126927768Y-77364475D01*
X126808140Y-77497336D01*
X126718750Y-77652164D01*
X126718747Y-77652170D01*
X126663504Y-77822192D01*
X126663503Y-77822194D01*
X126644815Y-78000000D01*
X126663503Y-78177805D01*
X126663504Y-78177807D01*
X126718747Y-78347829D01*
X126718748Y-78347830D01*
X126718750Y-78347835D01*
X126732887Y-78372322D01*
X126749500Y-78434320D01*
X126749500Y-79448431D01*
X126729815Y-79515470D01*
X126713181Y-79536112D01*
X120042854Y-86206438D01*
X119981531Y-86239923D01*
X119911839Y-86234939D01*
X119886282Y-86221859D01*
X119723920Y-86113372D01*
X119723910Y-86113367D01*
X119541836Y-86037949D01*
X119541828Y-86037947D01*
X119342566Y-85998311D01*
X119342923Y-85996514D01*
X119286097Y-85973555D01*
X119275378Y-85964010D01*
X118786819Y-85475451D01*
X118753334Y-85414128D01*
X118750500Y-85387770D01*
X118750500Y-85301568D01*
X118770185Y-85234529D01*
X118786814Y-85213892D01*
X121640651Y-82360054D01*
X121701972Y-82326571D01*
X121702334Y-82326492D01*
X121764267Y-82313329D01*
X121927593Y-82240612D01*
X122072230Y-82135526D01*
X122191859Y-82002665D01*
X122281250Y-81847835D01*
X122336497Y-81677803D01*
X122355185Y-81500000D01*
X122336497Y-81322197D01*
X122281250Y-81152165D01*
X122267113Y-81127678D01*
X122250500Y-81065678D01*
X122250500Y-78676079D01*
X122231534Y-78580735D01*
X122231534Y-78580734D01*
X122221659Y-78531088D01*
X122167408Y-78400117D01*
X122165764Y-78395522D01*
X122082954Y-78271588D01*
X122082953Y-78271587D01*
X122082951Y-78271584D01*
X121978416Y-78167049D01*
X121391381Y-77580013D01*
X121357896Y-77518690D01*
X121355741Y-77505294D01*
X121354905Y-77497336D01*
X121336497Y-77322197D01*
X121292462Y-77186671D01*
X121281252Y-77152170D01*
X121281249Y-77152164D01*
X121251398Y-77100460D01*
X121191859Y-76997335D01*
X121145003Y-76945296D01*
X121072235Y-76864478D01*
X121072232Y-76864476D01*
X121072231Y-76864475D01*
X121072230Y-76864474D01*
X120927593Y-76759388D01*
X120764267Y-76686671D01*
X120764265Y-76686670D01*
X120636594Y-76659533D01*
X120589391Y-76649500D01*
X120410609Y-76649500D01*
X120379954Y-76656015D01*
X120235733Y-76686670D01*
X120235728Y-76686672D01*
X120072408Y-76759387D01*
X119927768Y-76864475D01*
X119808140Y-76997336D01*
X119718750Y-77152164D01*
X119718747Y-77152170D01*
X119663504Y-77322192D01*
X119663503Y-77322194D01*
X119644815Y-77500000D01*
X119663503Y-77677805D01*
X119663504Y-77677807D01*
X119718747Y-77847829D01*
X119718749Y-77847832D01*
X119718750Y-77847835D01*
X119754590Y-77909911D01*
X119762685Y-77923933D01*
X119776913Y-77961735D01*
X119778339Y-77968904D01*
X119778342Y-77968915D01*
X119834914Y-78105492D01*
X119854981Y-78135524D01*
X119854982Y-78135527D01*
X119917046Y-78228414D01*
X119917052Y-78228421D01*
X120713181Y-79024548D01*
X120746666Y-79085871D01*
X120749500Y-79112229D01*
X120749500Y-81065678D01*
X120732887Y-81127678D01*
X120717275Y-81154719D01*
X120697569Y-81180400D01*
X117716730Y-84161239D01*
X117655407Y-84194724D01*
X117585715Y-84189740D01*
X117529782Y-84147868D01*
X117521662Y-84135558D01*
X117516410Y-84126461D01*
X117441859Y-83997335D01*
X117395003Y-83945296D01*
X117322235Y-83864478D01*
X117322232Y-83864476D01*
X117322231Y-83864475D01*
X117322230Y-83864474D01*
X117177593Y-83759388D01*
X117014267Y-83686671D01*
X117014265Y-83686670D01*
X117008330Y-83684028D01*
X117009108Y-83682279D01*
X116969177Y-83657809D01*
X113978421Y-80667052D01*
X113978417Y-80667049D01*
X113978416Y-80667048D01*
X113855494Y-80584916D01*
X113855492Y-80584915D01*
X113855490Y-80584914D01*
X113718912Y-80528342D01*
X113718906Y-80528340D01*
X113573919Y-80499500D01*
X113573917Y-80499500D01*
X113426082Y-80499500D01*
X113426080Y-80499500D01*
X113281092Y-80528340D01*
X113281086Y-80528342D01*
X113215017Y-80555709D01*
X113146210Y-80584210D01*
X113138878Y-80587247D01*
X113138520Y-80586385D01*
X113086160Y-80599500D01*
X108331741Y-80599500D01*
X108281306Y-80588780D01*
X108272632Y-80584918D01*
X108164267Y-80536671D01*
X108164265Y-80536670D01*
X108036594Y-80509533D01*
X107989391Y-80499500D01*
X107810609Y-80499500D01*
X107779954Y-80506015D01*
X107635733Y-80536670D01*
X107635728Y-80536672D01*
X107472408Y-80609387D01*
X107327768Y-80714475D01*
X107208140Y-80847336D01*
X107118750Y-81002164D01*
X107118747Y-81002170D01*
X107063504Y-81172192D01*
X107063503Y-81172194D01*
X107044815Y-81350000D01*
X100500500Y-81350000D01*
X100500500Y-72749996D01*
X112694435Y-72749996D01*
X112694435Y-72750003D01*
X112714630Y-72929249D01*
X112714631Y-72929254D01*
X112774211Y-73099523D01*
X112869077Y-73250500D01*
X112870184Y-73252262D01*
X112997738Y-73379816D01*
X113150478Y-73475789D01*
X113192840Y-73490612D01*
X113320745Y-73535368D01*
X113320750Y-73535369D01*
X113499996Y-73555565D01*
X113500000Y-73555565D01*
X113500004Y-73555565D01*
X113679249Y-73535369D01*
X113679252Y-73535368D01*
X113679255Y-73535368D01*
X113849522Y-73475789D01*
X114002262Y-73379816D01*
X114129816Y-73252262D01*
X114225789Y-73099522D01*
X114285368Y-72929255D01*
X114285531Y-72927807D01*
X114305565Y-72750003D01*
X114305565Y-72750000D01*
X119644815Y-72750000D01*
X119663503Y-72927805D01*
X119663504Y-72927807D01*
X119718747Y-73097829D01*
X119718750Y-73097835D01*
X119808141Y-73252665D01*
X119838894Y-73286819D01*
X119927764Y-73385521D01*
X119927767Y-73385523D01*
X119927770Y-73385526D01*
X120072407Y-73490612D01*
X120235733Y-73563329D01*
X120410609Y-73600500D01*
X120410610Y-73600500D01*
X120589389Y-73600500D01*
X120589391Y-73600500D01*
X120764267Y-73563329D01*
X120927593Y-73490612D01*
X121072230Y-73385526D01*
X121077372Y-73379816D01*
X121098148Y-73356741D01*
X121191859Y-73252665D01*
X121281250Y-73097835D01*
X121336497Y-72927803D01*
X121355185Y-72750000D01*
X121336497Y-72572197D01*
X121281250Y-72402165D01*
X121267113Y-72377678D01*
X121250500Y-72315678D01*
X121250500Y-71612229D01*
X121270185Y-71545190D01*
X121286815Y-71524552D01*
X121969178Y-70842188D01*
X122009112Y-70817729D01*
X122008330Y-70815972D01*
X122014265Y-70813329D01*
X122014267Y-70813329D01*
X122177593Y-70740612D01*
X122322230Y-70635526D01*
X122327372Y-70629816D01*
X122348148Y-70606741D01*
X122441859Y-70502665D01*
X122531250Y-70347835D01*
X122586497Y-70177803D01*
X122605185Y-70000000D01*
X122586497Y-69822197D01*
X122531250Y-69652165D01*
X122441859Y-69497335D01*
X122395003Y-69445296D01*
X122322235Y-69364478D01*
X122322232Y-69364476D01*
X122322231Y-69364475D01*
X122322230Y-69364474D01*
X122177593Y-69259388D01*
X122014267Y-69186671D01*
X122014265Y-69186670D01*
X121886594Y-69159533D01*
X121839391Y-69149500D01*
X121660609Y-69149500D01*
X121629954Y-69156015D01*
X121485733Y-69186670D01*
X121485728Y-69186672D01*
X121322408Y-69259387D01*
X121177768Y-69364475D01*
X121058140Y-69497336D01*
X120968750Y-69652164D01*
X120968746Y-69652174D01*
X120945354Y-69724164D01*
X120915105Y-69773525D01*
X119917049Y-70771582D01*
X119889155Y-70813330D01*
X119889154Y-70813331D01*
X119834919Y-70894498D01*
X119834912Y-70894511D01*
X119778343Y-71031082D01*
X119778340Y-71031092D01*
X119749500Y-71176079D01*
X119749500Y-72315678D01*
X119732887Y-72377678D01*
X119718750Y-72402163D01*
X119663504Y-72572192D01*
X119663503Y-72572194D01*
X119644815Y-72750000D01*
X114305565Y-72750000D01*
X114305565Y-72749996D01*
X114292100Y-72630496D01*
X114285368Y-72570745D01*
X114257458Y-72490982D01*
X114250500Y-72450028D01*
X114250500Y-70887229D01*
X114270185Y-70820190D01*
X114286818Y-70799549D01*
X114333060Y-70753306D01*
X114369134Y-70730650D01*
X114368248Y-70728810D01*
X114374510Y-70725792D01*
X114374522Y-70725789D01*
X114527262Y-70629816D01*
X114654816Y-70502262D01*
X114750789Y-70349522D01*
X114810368Y-70179255D01*
X114810531Y-70177807D01*
X114830565Y-70000003D01*
X114830565Y-69999996D01*
X114810369Y-69820750D01*
X114810368Y-69820745D01*
X114758294Y-69671926D01*
X114750789Y-69650478D01*
X114654816Y-69497738D01*
X114527262Y-69370184D01*
X114518175Y-69364474D01*
X114374523Y-69274211D01*
X114204254Y-69214631D01*
X114204249Y-69214630D01*
X114025004Y-69194435D01*
X114024996Y-69194435D01*
X113845750Y-69214630D01*
X113845745Y-69214631D01*
X113675476Y-69274211D01*
X113522737Y-69370184D01*
X113395184Y-69497737D01*
X113299212Y-69650475D01*
X113296191Y-69656750D01*
X113294370Y-69655873D01*
X113271693Y-69691937D01*
X112917049Y-70046581D01*
X112867812Y-70120271D01*
X112834921Y-70169496D01*
X112834914Y-70169508D01*
X112778342Y-70306086D01*
X112778340Y-70306092D01*
X112749500Y-70451079D01*
X112749500Y-72450028D01*
X112742542Y-72490982D01*
X112714631Y-72570747D01*
X112694435Y-72749996D01*
X100500500Y-72749996D01*
X100500500Y-55798293D01*
X100520185Y-55731254D01*
X100572989Y-55685499D01*
X100642147Y-55675555D01*
X100705703Y-55704580D01*
X100734985Y-55741999D01*
X100791307Y-55852538D01*
X100791308Y-55852541D01*
X101002531Y-56177793D01*
X101211095Y-56435350D01*
X101211096Y-56435350D01*
X102705747Y-54940698D01*
X102779588Y-55042330D01*
X102957670Y-55220412D01*
X103059300Y-55294251D01*
X101564648Y-56788903D01*
X101564649Y-56788904D01*
X101822206Y-56997468D01*
X102147456Y-57208689D01*
X102493005Y-57384755D01*
X102855063Y-57523737D01*
X103229669Y-57624112D01*
X103229676Y-57624113D01*
X103612712Y-57684780D01*
X103999999Y-57705078D01*
X104000001Y-57705078D01*
X104387287Y-57684780D01*
X104770323Y-57624113D01*
X104770330Y-57624112D01*
X105144936Y-57523737D01*
X105506994Y-57384755D01*
X105852543Y-57208689D01*
X106177783Y-56997476D01*
X106177785Y-56997475D01*
X106435349Y-56788902D01*
X104940698Y-55294251D01*
X105042330Y-55220412D01*
X105220412Y-55042330D01*
X105294251Y-54940698D01*
X106788902Y-56435349D01*
X106997475Y-56177785D01*
X106997476Y-56177783D01*
X107208690Y-55852542D01*
X107209179Y-55851696D01*
X107209339Y-55851542D01*
X107210461Y-55849816D01*
X107210871Y-55850082D01*
X107259742Y-55803476D01*
X107328348Y-55790247D01*
X107393215Y-55816210D01*
X107433748Y-55873121D01*
X107440224Y-55922953D01*
X107434451Y-55999995D01*
X107434451Y-56000004D01*
X107454616Y-56269101D01*
X107514664Y-56532188D01*
X107514666Y-56532195D01*
X107613256Y-56783396D01*
X107613258Y-56783400D01*
X107629964Y-56812335D01*
X107748185Y-57017102D01*
X107873845Y-57174674D01*
X107916442Y-57228089D01*
X108052615Y-57354438D01*
X108114259Y-57411635D01*
X108337226Y-57563651D01*
X108580359Y-57680738D01*
X108838228Y-57760280D01*
X108838229Y-57760280D01*
X108838232Y-57760281D01*
X109105063Y-57800499D01*
X109105068Y-57800499D01*
X109105071Y-57800500D01*
X109105072Y-57800500D01*
X109374928Y-57800500D01*
X109374929Y-57800500D01*
X109439139Y-57790822D01*
X109641767Y-57760281D01*
X109641768Y-57760280D01*
X109641772Y-57760280D01*
X109899641Y-57680738D01*
X110142775Y-57563651D01*
X110365741Y-57411635D01*
X110563561Y-57228085D01*
X110731815Y-57017102D01*
X110866743Y-56783398D01*
X110937119Y-56604081D01*
X110964863Y-56561707D01*
X112362223Y-55164346D01*
X112423544Y-55130863D01*
X112493236Y-55135847D01*
X112549169Y-55177719D01*
X112569677Y-55219937D01*
X112580976Y-55262107D01*
X112579313Y-55331956D01*
X112548882Y-55381880D01*
X111381286Y-56549478D01*
X111269481Y-56661282D01*
X111269480Y-56661284D01*
X111227485Y-56734022D01*
X111190423Y-56798215D01*
X111149499Y-56950943D01*
X111149499Y-56950945D01*
X111149499Y-57119046D01*
X111149500Y-57119059D01*
X111149500Y-60293788D01*
X111129815Y-60360827D01*
X111077011Y-60406582D01*
X111007853Y-60416526D01*
X110973095Y-60406170D01*
X110939330Y-60390425D01*
X110939326Y-60390424D01*
X110939322Y-60390422D01*
X110727977Y-60333793D01*
X110510002Y-60314723D01*
X110509998Y-60314723D01*
X110364682Y-60327436D01*
X110292023Y-60333793D01*
X110292020Y-60333793D01*
X110080677Y-60390422D01*
X110080668Y-60390426D01*
X109882361Y-60482898D01*
X109882357Y-60482900D01*
X109703121Y-60608402D01*
X109548402Y-60763121D01*
X109422900Y-60942357D01*
X109422898Y-60942361D01*
X109330426Y-61140668D01*
X109330422Y-61140677D01*
X109273793Y-61352020D01*
X109273793Y-61352023D01*
X109269025Y-61406517D01*
X109254723Y-61569997D01*
X109254723Y-61570002D01*
X109273793Y-61787975D01*
X109273793Y-61787979D01*
X109330422Y-61999322D01*
X109330424Y-61999326D01*
X109330425Y-61999330D01*
X109340500Y-62020935D01*
X109422897Y-62197638D01*
X109437450Y-62218422D01*
X109548402Y-62376877D01*
X109703123Y-62531598D01*
X109882361Y-62657102D01*
X110080670Y-62749575D01*
X110176810Y-62775335D01*
X110236469Y-62811699D01*
X110266999Y-62874546D01*
X110261758Y-62936064D01*
X110214632Y-63070742D01*
X110214630Y-63070750D01*
X110194435Y-63249996D01*
X110194435Y-63250003D01*
X110214630Y-63429249D01*
X110214631Y-63429254D01*
X110274211Y-63599523D01*
X110370184Y-63752262D01*
X110497738Y-63879816D01*
X110650478Y-63975789D01*
X110820745Y-64035368D01*
X110820750Y-64035369D01*
X110999996Y-64055565D01*
X111000000Y-64055565D01*
X111000004Y-64055565D01*
X111179249Y-64035369D01*
X111179252Y-64035368D01*
X111179255Y-64035368D01*
X111349522Y-63975789D01*
X111502262Y-63879816D01*
X111629816Y-63752262D01*
X111725789Y-63599522D01*
X111785368Y-63429255D01*
X111795161Y-63342329D01*
X111822226Y-63277918D01*
X111830690Y-63268543D01*
X112118713Y-62980521D01*
X112118716Y-62980520D01*
X112230520Y-62868716D01*
X112261292Y-62815414D01*
X112311855Y-62767201D01*
X112380462Y-62753976D01*
X112400762Y-62757638D01*
X112582023Y-62806207D01*
X112769787Y-62822633D01*
X112799998Y-62825277D01*
X112800000Y-62825277D01*
X112800002Y-62825277D01*
X112828254Y-62822805D01*
X113017977Y-62806207D01*
X113229330Y-62749575D01*
X113427639Y-62657102D01*
X113606877Y-62531598D01*
X113761598Y-62376877D01*
X113887102Y-62197639D01*
X113979575Y-61999330D01*
X114036207Y-61787977D01*
X114055277Y-61570000D01*
X114036207Y-61352023D01*
X113979575Y-61140670D01*
X113887102Y-60942362D01*
X113887100Y-60942359D01*
X113887099Y-60942357D01*
X113761599Y-60763124D01*
X113748471Y-60749996D01*
X113606877Y-60608402D01*
X113427639Y-60482898D01*
X113427640Y-60482898D01*
X113427638Y-60482897D01*
X113304375Y-60425419D01*
X113229330Y-60390425D01*
X113229326Y-60390424D01*
X113229322Y-60390422D01*
X113017977Y-60333793D01*
X112800002Y-60314723D01*
X112799998Y-60314723D01*
X112654682Y-60327436D01*
X112582023Y-60333793D01*
X112582020Y-60333793D01*
X112506593Y-60354004D01*
X112436743Y-60352341D01*
X112378881Y-60313178D01*
X112351377Y-60248949D01*
X112350500Y-60234229D01*
X112350500Y-57999097D01*
X112370185Y-57932058D01*
X112422989Y-57886303D01*
X112492147Y-57876359D01*
X112555703Y-57905384D01*
X112562181Y-57911416D01*
X117344298Y-62693534D01*
X117377783Y-62754857D01*
X117379837Y-62767331D01*
X117389630Y-62854249D01*
X117389631Y-62854254D01*
X117389632Y-62854255D01*
X117396732Y-62874546D01*
X117449210Y-63024521D01*
X117496337Y-63099523D01*
X117545184Y-63177262D01*
X117672738Y-63304816D01*
X117825478Y-63400789D01*
X117995745Y-63460368D01*
X117995750Y-63460369D01*
X118174996Y-63480565D01*
X118175000Y-63480565D01*
X118175004Y-63480565D01*
X118354249Y-63460369D01*
X118354252Y-63460368D01*
X118354255Y-63460368D01*
X118524522Y-63400789D01*
X118677262Y-63304816D01*
X118804816Y-63177262D01*
X118900789Y-63024522D01*
X118960368Y-62854255D01*
X118971254Y-62757640D01*
X118980565Y-62675003D01*
X118980565Y-62674996D01*
X118960369Y-62495750D01*
X118960368Y-62495745D01*
X118900789Y-62325478D01*
X118804816Y-62172738D01*
X118677262Y-62045184D01*
X118638670Y-62020935D01*
X118524521Y-61949210D01*
X118354249Y-61889630D01*
X118267331Y-61879837D01*
X118202917Y-61852770D01*
X118193534Y-61844298D01*
X116493074Y-60143838D01*
X114561742Y-58212507D01*
X114528258Y-58151185D01*
X114533242Y-58081493D01*
X114575114Y-58025560D01*
X114640578Y-58001143D01*
X114660225Y-58001298D01*
X114771566Y-58011039D01*
X114819998Y-58015277D01*
X114820000Y-58015277D01*
X114820002Y-58015277D01*
X114848254Y-58012805D01*
X115037977Y-57996207D01*
X115249330Y-57939575D01*
X115447639Y-57847102D01*
X115626877Y-57721598D01*
X115752319Y-57596156D01*
X115813642Y-57562671D01*
X115883334Y-57567655D01*
X115927681Y-57596156D01*
X116053123Y-57721598D01*
X116232361Y-57847102D01*
X116430670Y-57939575D01*
X116642023Y-57996207D01*
X116812450Y-58011117D01*
X116859998Y-58015277D01*
X116860000Y-58015277D01*
X116860002Y-58015277D01*
X116888254Y-58012805D01*
X117077977Y-57996207D01*
X117142108Y-57979023D01*
X117211957Y-57980686D01*
X117261882Y-58011117D01*
X120135139Y-60884374D01*
X120135149Y-60884385D01*
X120139479Y-60888715D01*
X120139480Y-60888716D01*
X120251284Y-61000520D01*
X120338095Y-61050639D01*
X120338097Y-61050641D01*
X120376151Y-61072611D01*
X120388215Y-61079577D01*
X120540943Y-61120501D01*
X120540946Y-61120501D01*
X120604229Y-61120501D01*
X120671268Y-61140186D01*
X120717023Y-61192990D01*
X120726967Y-61262148D01*
X120724004Y-61276594D01*
X120703793Y-61352020D01*
X120703793Y-61352023D01*
X120699025Y-61406517D01*
X120684723Y-61569997D01*
X120684723Y-61570002D01*
X120703793Y-61787975D01*
X120703793Y-61787979D01*
X120760422Y-61999322D01*
X120760424Y-61999326D01*
X120760425Y-61999330D01*
X120770500Y-62020935D01*
X120852897Y-62197638D01*
X120867450Y-62218422D01*
X120978402Y-62376877D01*
X121133123Y-62531598D01*
X121312361Y-62657102D01*
X121510670Y-62749575D01*
X121510676Y-62749576D01*
X121510677Y-62749577D01*
X121540769Y-62757640D01*
X121722023Y-62806207D01*
X121904926Y-62822208D01*
X121939998Y-62825277D01*
X121940000Y-62825277D01*
X121940002Y-62825277D01*
X121968254Y-62822805D01*
X122157977Y-62806207D01*
X122369330Y-62749575D01*
X122567639Y-62657102D01*
X122746877Y-62531598D01*
X122901598Y-62376877D01*
X122983426Y-62260013D01*
X123038002Y-62216390D01*
X123107501Y-62209198D01*
X123169855Y-62240720D01*
X123186570Y-62260010D01*
X123268402Y-62376877D01*
X123423123Y-62531598D01*
X123602361Y-62657102D01*
X123800670Y-62749575D01*
X123800676Y-62749576D01*
X123800677Y-62749577D01*
X123830769Y-62757640D01*
X124012023Y-62806207D01*
X124194926Y-62822208D01*
X124229998Y-62825277D01*
X124230000Y-62825277D01*
X124230002Y-62825277D01*
X124258254Y-62822805D01*
X124447977Y-62806207D01*
X124659330Y-62749575D01*
X124857639Y-62657102D01*
X125009535Y-62550742D01*
X125075738Y-62528416D01*
X125143505Y-62545426D01*
X125191318Y-62596373D01*
X125203997Y-62665083D01*
X125203876Y-62666201D01*
X125194435Y-62749995D01*
X125194435Y-62750003D01*
X125214630Y-62929249D01*
X125214631Y-62929254D01*
X125274211Y-63099523D01*
X125323058Y-63177262D01*
X125370184Y-63252262D01*
X125497738Y-63379816D01*
X125576410Y-63429249D01*
X125625935Y-63460368D01*
X125650478Y-63475789D01*
X125820745Y-63535368D01*
X125820750Y-63535369D01*
X125999996Y-63555565D01*
X126000000Y-63555565D01*
X126000004Y-63555565D01*
X126179249Y-63535369D01*
X126179252Y-63535368D01*
X126179255Y-63535368D01*
X126349522Y-63475789D01*
X126502262Y-63379816D01*
X126629816Y-63252262D01*
X126725789Y-63099522D01*
X126785368Y-62929255D01*
X126785369Y-62929249D01*
X126805565Y-62750003D01*
X126805565Y-62749996D01*
X126785369Y-62570750D01*
X126785368Y-62570745D01*
X126725788Y-62400476D01*
X126629813Y-62247734D01*
X126627550Y-62244896D01*
X126626659Y-62242715D01*
X126626111Y-62241842D01*
X126626264Y-62241745D01*
X126601144Y-62180209D01*
X126600500Y-62167587D01*
X126600500Y-61839060D01*
X126600501Y-61839047D01*
X126600501Y-61670947D01*
X126600501Y-61670943D01*
X126600499Y-61670939D01*
X126600063Y-61667621D01*
X126600501Y-61664811D01*
X126600501Y-61662815D01*
X126600812Y-61662815D01*
X126610827Y-61598586D01*
X126657205Y-61546328D01*
X126682042Y-61534392D01*
X126849522Y-61475789D01*
X127002262Y-61379816D01*
X127129816Y-61252262D01*
X127225789Y-61099522D01*
X127285368Y-60929255D01*
X127290425Y-60884374D01*
X127305565Y-60750003D01*
X127305565Y-60749996D01*
X127285368Y-60570747D01*
X127285368Y-60570745D01*
X127257458Y-60490982D01*
X127250500Y-60450028D01*
X127250500Y-60425419D01*
X127221659Y-60280432D01*
X127221658Y-60280431D01*
X127221658Y-60280427D01*
X127221656Y-60280422D01*
X127165087Y-60143851D01*
X127165080Y-60143838D01*
X127082952Y-60020925D01*
X127082951Y-60020924D01*
X126978416Y-59916389D01*
X125039797Y-57977770D01*
X125006312Y-57916447D01*
X125011296Y-57846755D01*
X125053168Y-57790822D01*
X125118632Y-57766405D01*
X125145956Y-57767473D01*
X125365071Y-57800500D01*
X125365072Y-57800500D01*
X125634928Y-57800500D01*
X125634929Y-57800500D01*
X125699139Y-57790822D01*
X125901767Y-57760281D01*
X125901768Y-57760280D01*
X125901772Y-57760280D01*
X126159641Y-57680738D01*
X126402775Y-57563651D01*
X126625741Y-57411635D01*
X126823561Y-57228085D01*
X126991815Y-57017102D01*
X127126743Y-56783398D01*
X127225334Y-56532195D01*
X127285383Y-56269103D01*
X127305549Y-56000000D01*
X127301172Y-55941598D01*
X127285383Y-55730898D01*
X127275021Y-55685499D01*
X127225334Y-55467805D01*
X127126743Y-55216602D01*
X126991815Y-54982898D01*
X126823561Y-54771915D01*
X126823560Y-54771914D01*
X126823557Y-54771910D01*
X126625741Y-54588365D01*
X126439497Y-54461386D01*
X126402775Y-54436349D01*
X126402769Y-54436346D01*
X126402768Y-54436345D01*
X126402767Y-54436344D01*
X126159643Y-54319263D01*
X126159645Y-54319263D01*
X125901773Y-54239720D01*
X125901767Y-54239718D01*
X125634936Y-54199500D01*
X125634929Y-54199500D01*
X125365071Y-54199500D01*
X125365063Y-54199500D01*
X125098232Y-54239718D01*
X125098226Y-54239720D01*
X124840358Y-54319262D01*
X124597230Y-54436346D01*
X124374258Y-54588365D01*
X124176442Y-54771910D01*
X124008185Y-54982898D01*
X123890059Y-55187500D01*
X123839492Y-55235715D01*
X123782672Y-55249500D01*
X123612229Y-55249500D01*
X123545190Y-55229815D01*
X123524548Y-55213181D01*
X122459189Y-54147821D01*
X122425704Y-54086498D01*
X122430688Y-54016806D01*
X122472560Y-53960873D01*
X122538024Y-53936456D01*
X122606297Y-53951308D01*
X122622350Y-53961759D01*
X122675792Y-54002767D01*
X122888708Y-54125694D01*
X123115847Y-54219778D01*
X123353323Y-54283409D01*
X123597073Y-54315500D01*
X123597080Y-54315500D01*
X123842920Y-54315500D01*
X123842927Y-54315500D01*
X124086677Y-54283409D01*
X124324153Y-54219778D01*
X124551292Y-54125694D01*
X124764208Y-54002767D01*
X124959256Y-53853101D01*
X125133101Y-53679256D01*
X125282767Y-53484208D01*
X125405694Y-53271292D01*
X125499778Y-53044153D01*
X125563409Y-52806677D01*
X125595500Y-52562927D01*
X125595500Y-52317073D01*
X125563409Y-52073323D01*
X125499778Y-51835847D01*
X125405694Y-51608708D01*
X125282767Y-51395792D01*
X125221030Y-51315335D01*
X125133102Y-51200745D01*
X125133096Y-51200738D01*
X124959261Y-51026903D01*
X124959254Y-51026897D01*
X124764212Y-50877236D01*
X124764211Y-50877235D01*
X124764208Y-50877233D01*
X124551292Y-50754306D01*
X124551285Y-50754303D01*
X124514488Y-50739061D01*
X124460085Y-50695220D01*
X124438020Y-50628926D01*
X124455299Y-50561227D01*
X124506436Y-50513616D01*
X124561941Y-50500500D01*
X131678059Y-50500500D01*
X131745098Y-50520185D01*
G37*
G04 #@! TD.AperFunction*
G04 #@! TA.AperFunction,Conductor*
G36*
X120525326Y-56931764D02*
G01*
X120583911Y-57033236D01*
X120666764Y-57116089D01*
X120768236Y-57174674D01*
X120855497Y-57198055D01*
X120250427Y-57803124D01*
X120312612Y-57846666D01*
X120510840Y-57939101D01*
X120510849Y-57939105D01*
X120722105Y-57995710D01*
X120722115Y-57995712D01*
X120939999Y-58014775D01*
X120940001Y-58014775D01*
X121157884Y-57995712D01*
X121157894Y-57995710D01*
X121369150Y-57939105D01*
X121369164Y-57939100D01*
X121567383Y-57846669D01*
X121567385Y-57846668D01*
X121629571Y-57803124D01*
X121024503Y-57198055D01*
X121111764Y-57174674D01*
X121213236Y-57116089D01*
X121296089Y-57033236D01*
X121354674Y-56931764D01*
X121378055Y-56844502D01*
X121983124Y-57449570D01*
X122026667Y-57387387D01*
X122047233Y-57343282D01*
X122093404Y-57290842D01*
X122160597Y-57271689D01*
X122227479Y-57291903D01*
X122247293Y-57308001D01*
X122844677Y-57905384D01*
X124647112Y-59707819D01*
X124680597Y-59769142D01*
X124675613Y-59838834D01*
X124633741Y-59894767D01*
X124568277Y-59919184D01*
X124559431Y-59919500D01*
X120920097Y-59919500D01*
X120853058Y-59899815D01*
X120832416Y-59883181D01*
X119133771Y-58184536D01*
X119100286Y-58123213D01*
X119105270Y-58053521D01*
X119147142Y-57997588D01*
X119189358Y-57977080D01*
X119329330Y-57939575D01*
X119527639Y-57847102D01*
X119706877Y-57721598D01*
X119861598Y-57566877D01*
X119987102Y-57387639D01*
X120002585Y-57354434D01*
X120027286Y-57319158D01*
X120501944Y-56844500D01*
X120525326Y-56931764D01*
G37*
G04 #@! TD.AperFunction*
G04 #@! TA.AperFunction,Conductor*
G36*
X142025326Y-56931764D02*
G01*
X142083911Y-57033236D01*
X142166764Y-57116089D01*
X142268236Y-57174674D01*
X142355497Y-57198055D01*
X141750427Y-57803124D01*
X141812612Y-57846666D01*
X142010840Y-57939101D01*
X142010849Y-57939105D01*
X142222105Y-57995710D01*
X142222115Y-57995712D01*
X142439999Y-58014775D01*
X142440001Y-58014775D01*
X142657884Y-57995712D01*
X142657894Y-57995710D01*
X142869150Y-57939105D01*
X142869164Y-57939100D01*
X143067383Y-57846669D01*
X143067385Y-57846668D01*
X143129571Y-57803124D01*
X142524503Y-57198055D01*
X142611764Y-57174674D01*
X142713236Y-57116089D01*
X142796089Y-57033236D01*
X142854674Y-56931764D01*
X142878055Y-56844502D01*
X143483124Y-57449570D01*
X143526667Y-57387387D01*
X143547233Y-57343282D01*
X143593404Y-57290842D01*
X143660597Y-57271689D01*
X143727479Y-57291903D01*
X143747293Y-57308001D01*
X144344677Y-57905384D01*
X146147112Y-59707819D01*
X146180597Y-59769142D01*
X146175613Y-59838834D01*
X146133741Y-59894767D01*
X146068277Y-59919184D01*
X146059431Y-59919500D01*
X142420097Y-59919500D01*
X142353058Y-59899815D01*
X142332416Y-59883181D01*
X140633771Y-58184536D01*
X140600286Y-58123213D01*
X140605270Y-58053521D01*
X140647142Y-57997588D01*
X140689358Y-57977080D01*
X140829330Y-57939575D01*
X141027639Y-57847102D01*
X141206877Y-57721598D01*
X141361598Y-57566877D01*
X141487102Y-57387639D01*
X141502585Y-57354434D01*
X141527286Y-57319158D01*
X142001944Y-56844500D01*
X142025326Y-56931764D01*
G37*
G04 #@! TD.AperFunction*
G04 #@! TA.AperFunction,Conductor*
G36*
X163525326Y-56931764D02*
G01*
X163583911Y-57033236D01*
X163666764Y-57116089D01*
X163768236Y-57174674D01*
X163855497Y-57198055D01*
X163250427Y-57803124D01*
X163312612Y-57846666D01*
X163510840Y-57939101D01*
X163510849Y-57939105D01*
X163722105Y-57995710D01*
X163722115Y-57995712D01*
X163939999Y-58014775D01*
X163940001Y-58014775D01*
X164157884Y-57995712D01*
X164157894Y-57995710D01*
X164369150Y-57939105D01*
X164369164Y-57939100D01*
X164567383Y-57846669D01*
X164567385Y-57846668D01*
X164629570Y-57803124D01*
X164024503Y-57198055D01*
X164111764Y-57174674D01*
X164213236Y-57116089D01*
X164296089Y-57033236D01*
X164354674Y-56931764D01*
X164378055Y-56844502D01*
X164983124Y-57449570D01*
X165026667Y-57387387D01*
X165047233Y-57343282D01*
X165093404Y-57290842D01*
X165160597Y-57271689D01*
X165227479Y-57291903D01*
X165247293Y-57308001D01*
X165844677Y-57905384D01*
X167647112Y-59707819D01*
X167680597Y-59769142D01*
X167675613Y-59838834D01*
X167633741Y-59894767D01*
X167568277Y-59919184D01*
X167559431Y-59919500D01*
X163920097Y-59919500D01*
X163853058Y-59899815D01*
X163832416Y-59883181D01*
X162133771Y-58184536D01*
X162100286Y-58123213D01*
X162105270Y-58053521D01*
X162147142Y-57997588D01*
X162189358Y-57977080D01*
X162329330Y-57939575D01*
X162527639Y-57847102D01*
X162706877Y-57721598D01*
X162861598Y-57566877D01*
X162987102Y-57387639D01*
X163002585Y-57354434D01*
X163027286Y-57319158D01*
X163501944Y-56844500D01*
X163525326Y-56931764D01*
G37*
G04 #@! TD.AperFunction*
G04 #@! TA.AperFunction,Conductor*
G36*
X185025326Y-56931764D02*
G01*
X185083911Y-57033236D01*
X185166764Y-57116089D01*
X185268236Y-57174674D01*
X185355497Y-57198055D01*
X184750427Y-57803124D01*
X184812612Y-57846666D01*
X185010840Y-57939101D01*
X185010849Y-57939105D01*
X185222105Y-57995710D01*
X185222115Y-57995712D01*
X185439999Y-58014775D01*
X185440001Y-58014775D01*
X185657884Y-57995712D01*
X185657894Y-57995710D01*
X185869150Y-57939105D01*
X185869164Y-57939100D01*
X186067383Y-57846669D01*
X186067385Y-57846668D01*
X186129570Y-57803124D01*
X185524503Y-57198055D01*
X185611764Y-57174674D01*
X185713236Y-57116089D01*
X185796089Y-57033236D01*
X185854674Y-56931764D01*
X185878055Y-56844502D01*
X186483124Y-57449570D01*
X186526667Y-57387387D01*
X186547233Y-57343282D01*
X186593404Y-57290842D01*
X186660597Y-57271689D01*
X186727479Y-57291903D01*
X186747293Y-57308001D01*
X187344677Y-57905384D01*
X189147112Y-59707819D01*
X189180597Y-59769142D01*
X189175613Y-59838834D01*
X189133741Y-59894767D01*
X189068277Y-59919184D01*
X189059431Y-59919500D01*
X185420097Y-59919500D01*
X185353058Y-59899815D01*
X185332416Y-59883181D01*
X183633771Y-58184536D01*
X183600286Y-58123213D01*
X183605270Y-58053521D01*
X183647142Y-57997588D01*
X183689358Y-57977080D01*
X183829330Y-57939575D01*
X184027639Y-57847102D01*
X184206877Y-57721598D01*
X184361598Y-57566877D01*
X184487102Y-57387639D01*
X184502585Y-57354434D01*
X184527286Y-57319158D01*
X185001944Y-56844500D01*
X185025326Y-56931764D01*
G37*
G04 #@! TD.AperFunction*
G04 #@! TA.AperFunction,Conductor*
G36*
X110245098Y-50520185D02*
G01*
X110290853Y-50572989D01*
X110300797Y-50642147D01*
X110271772Y-50705703D01*
X110225512Y-50739061D01*
X110188714Y-50754303D01*
X110188705Y-50754307D01*
X109975787Y-50877236D01*
X109780745Y-51026897D01*
X109780738Y-51026903D01*
X109606903Y-51200738D01*
X109606897Y-51200745D01*
X109457236Y-51395787D01*
X109334307Y-51608705D01*
X109334303Y-51608714D01*
X109240225Y-51835837D01*
X109240222Y-51835847D01*
X109176592Y-52073320D01*
X109176590Y-52073331D01*
X109144500Y-52317065D01*
X109144500Y-52562934D01*
X109171227Y-52765939D01*
X109176591Y-52806677D01*
X109240222Y-53044152D01*
X109240225Y-53044162D01*
X109288794Y-53161417D01*
X109334306Y-53271292D01*
X109457233Y-53484208D01*
X109457235Y-53484211D01*
X109457236Y-53484212D01*
X109606897Y-53679254D01*
X109606903Y-53679261D01*
X109780738Y-53853096D01*
X109780744Y-53853101D01*
X109975792Y-54002767D01*
X110188708Y-54125694D01*
X110415847Y-54219778D01*
X110653323Y-54283409D01*
X110816791Y-54304930D01*
X110880686Y-54333197D01*
X110919157Y-54391521D01*
X110919988Y-54461386D01*
X110888285Y-54515550D01*
X110683481Y-54720354D01*
X110622158Y-54753839D01*
X110552466Y-54748855D01*
X110511459Y-54723571D01*
X110365745Y-54588368D01*
X110258941Y-54515550D01*
X110142775Y-54436349D01*
X110142769Y-54436346D01*
X110142768Y-54436345D01*
X110142767Y-54436344D01*
X109899643Y-54319263D01*
X109899645Y-54319263D01*
X109641773Y-54239720D01*
X109641767Y-54239718D01*
X109374936Y-54199500D01*
X109374929Y-54199500D01*
X109105071Y-54199500D01*
X109105063Y-54199500D01*
X108838232Y-54239718D01*
X108838226Y-54239720D01*
X108580358Y-54319262D01*
X108337230Y-54436346D01*
X108114258Y-54588365D01*
X107916441Y-54771911D01*
X107844263Y-54862419D01*
X107787074Y-54902559D01*
X107717263Y-54905408D01*
X107656993Y-54870061D01*
X107625401Y-54807742D01*
X107624844Y-54765707D01*
X107684780Y-54387287D01*
X107705078Y-54000000D01*
X107705078Y-53999999D01*
X107684780Y-53612712D01*
X107624113Y-53229676D01*
X107624112Y-53229669D01*
X107523737Y-52855063D01*
X107384755Y-52493005D01*
X107208689Y-52147456D01*
X106997468Y-51822206D01*
X106788904Y-51564649D01*
X106788903Y-51564648D01*
X105294251Y-53059300D01*
X105220412Y-52957670D01*
X105042330Y-52779588D01*
X104940698Y-52705747D01*
X106435350Y-51211096D01*
X106435350Y-51211095D01*
X106177793Y-51002531D01*
X105852543Y-50791310D01*
X105741999Y-50734985D01*
X105691203Y-50687010D01*
X105674408Y-50619189D01*
X105696945Y-50553055D01*
X105751660Y-50509603D01*
X105798294Y-50500500D01*
X110178059Y-50500500D01*
X110245098Y-50520185D01*
G37*
G04 #@! TD.AperFunction*
G04 #@! TA.AperFunction,Conductor*
G36*
X122945098Y-50520185D02*
G01*
X122990853Y-50572989D01*
X123000797Y-50642147D01*
X122971772Y-50705703D01*
X122925512Y-50739061D01*
X122888714Y-50754303D01*
X122888705Y-50754307D01*
X122675787Y-50877236D01*
X122480745Y-51026897D01*
X122480738Y-51026903D01*
X122306903Y-51200738D01*
X122306897Y-51200745D01*
X122157236Y-51395787D01*
X122034307Y-51608705D01*
X122034303Y-51608714D01*
X121940225Y-51835837D01*
X121940222Y-51835847D01*
X121876592Y-52073320D01*
X121876590Y-52073331D01*
X121844500Y-52317065D01*
X121844500Y-52562934D01*
X121871227Y-52765939D01*
X121876591Y-52806677D01*
X121940222Y-53044152D01*
X121940225Y-53044162D01*
X122034303Y-53271285D01*
X122034307Y-53271294D01*
X122157236Y-53484213D01*
X122198233Y-53537640D01*
X122223428Y-53602809D01*
X122209390Y-53671254D01*
X122160576Y-53721244D01*
X122092485Y-53736908D01*
X122026735Y-53713272D01*
X122012177Y-53700808D01*
X120978421Y-52667052D01*
X120978414Y-52667046D01*
X120904729Y-52617812D01*
X120904729Y-52617813D01*
X120855491Y-52584913D01*
X120718917Y-52528343D01*
X120718907Y-52528340D01*
X120573920Y-52499500D01*
X120573918Y-52499500D01*
X113289121Y-52499500D01*
X113141286Y-52499500D01*
X113141281Y-52499500D01*
X113043691Y-52518912D01*
X112974099Y-52512685D01*
X112918922Y-52469822D01*
X112895678Y-52403932D01*
X112895500Y-52397295D01*
X112895500Y-52317079D01*
X112895499Y-52317065D01*
X112893954Y-52305336D01*
X112863409Y-52073323D01*
X112799778Y-51835847D01*
X112705694Y-51608708D01*
X112582767Y-51395792D01*
X112521030Y-51315335D01*
X112433102Y-51200745D01*
X112433096Y-51200738D01*
X112259261Y-51026903D01*
X112259254Y-51026897D01*
X112064212Y-50877236D01*
X112064211Y-50877235D01*
X112064208Y-50877233D01*
X111851292Y-50754306D01*
X111851285Y-50754303D01*
X111814488Y-50739061D01*
X111760085Y-50695220D01*
X111738020Y-50628926D01*
X111755299Y-50561227D01*
X111806436Y-50513616D01*
X111861941Y-50500500D01*
X122878059Y-50500500D01*
X122945098Y-50520185D01*
G37*
G04 #@! TD.AperFunction*
G04 #@! TA.AperFunction,Conductor*
G36*
X144445098Y-50520185D02*
G01*
X144490853Y-50572989D01*
X144500797Y-50642147D01*
X144471772Y-50705703D01*
X144425512Y-50739061D01*
X144388714Y-50754303D01*
X144388705Y-50754307D01*
X144175787Y-50877236D01*
X143980745Y-51026897D01*
X143980738Y-51026903D01*
X143806903Y-51200738D01*
X143806897Y-51200745D01*
X143657236Y-51395787D01*
X143534307Y-51608705D01*
X143534303Y-51608714D01*
X143440225Y-51835837D01*
X143440222Y-51835847D01*
X143376592Y-52073320D01*
X143376590Y-52073331D01*
X143344500Y-52317065D01*
X143344500Y-52562934D01*
X143371227Y-52765939D01*
X143376591Y-52806677D01*
X143440222Y-53044152D01*
X143440225Y-53044162D01*
X143534303Y-53271285D01*
X143534307Y-53271294D01*
X143657236Y-53484213D01*
X143698233Y-53537640D01*
X143723428Y-53602809D01*
X143709390Y-53671254D01*
X143660576Y-53721244D01*
X143592485Y-53736908D01*
X143526735Y-53713272D01*
X143512177Y-53700808D01*
X142478421Y-52667052D01*
X142478414Y-52667046D01*
X142404729Y-52617812D01*
X142404729Y-52617813D01*
X142355491Y-52584913D01*
X142218917Y-52528343D01*
X142218907Y-52528340D01*
X142073920Y-52499500D01*
X142073918Y-52499500D01*
X134789121Y-52499500D01*
X134641286Y-52499500D01*
X134641281Y-52499500D01*
X134543691Y-52518912D01*
X134474099Y-52512685D01*
X134418922Y-52469822D01*
X134395678Y-52403932D01*
X134395500Y-52397295D01*
X134395500Y-52317079D01*
X134395499Y-52317065D01*
X134393954Y-52305336D01*
X134363409Y-52073323D01*
X134299778Y-51835847D01*
X134205694Y-51608708D01*
X134082767Y-51395792D01*
X134021030Y-51315335D01*
X133933102Y-51200745D01*
X133933096Y-51200738D01*
X133759261Y-51026903D01*
X133759254Y-51026897D01*
X133564212Y-50877236D01*
X133564211Y-50877235D01*
X133564208Y-50877233D01*
X133351292Y-50754306D01*
X133351285Y-50754303D01*
X133314488Y-50739061D01*
X133260085Y-50695220D01*
X133238020Y-50628926D01*
X133255299Y-50561227D01*
X133306436Y-50513616D01*
X133361941Y-50500500D01*
X144378059Y-50500500D01*
X144445098Y-50520185D01*
G37*
G04 #@! TD.AperFunction*
G04 #@! TA.AperFunction,Conductor*
G36*
X165945098Y-50520185D02*
G01*
X165990853Y-50572989D01*
X166000797Y-50642147D01*
X165971772Y-50705703D01*
X165925512Y-50739061D01*
X165888714Y-50754303D01*
X165888705Y-50754307D01*
X165675787Y-50877236D01*
X165480745Y-51026897D01*
X165480738Y-51026903D01*
X165306903Y-51200738D01*
X165306897Y-51200745D01*
X165157236Y-51395787D01*
X165034307Y-51608705D01*
X165034303Y-51608714D01*
X164940225Y-51835837D01*
X164940222Y-51835847D01*
X164876592Y-52073320D01*
X164876590Y-52073331D01*
X164844500Y-52317065D01*
X164844500Y-52562934D01*
X164871227Y-52765939D01*
X164876591Y-52806677D01*
X164940222Y-53044152D01*
X164940225Y-53044162D01*
X165034303Y-53271285D01*
X165034307Y-53271294D01*
X165157236Y-53484213D01*
X165198233Y-53537640D01*
X165223428Y-53602809D01*
X165209390Y-53671254D01*
X165160576Y-53721244D01*
X165092485Y-53736908D01*
X165026735Y-53713272D01*
X165012177Y-53700808D01*
X163978421Y-52667052D01*
X163978414Y-52667046D01*
X163904729Y-52617812D01*
X163904729Y-52617813D01*
X163855491Y-52584913D01*
X163718917Y-52528343D01*
X163718907Y-52528340D01*
X163573920Y-52499500D01*
X163573918Y-52499500D01*
X156289121Y-52499500D01*
X156141286Y-52499500D01*
X156141281Y-52499500D01*
X156043691Y-52518912D01*
X155974099Y-52512685D01*
X155918922Y-52469822D01*
X155895678Y-52403932D01*
X155895500Y-52397295D01*
X155895500Y-52317079D01*
X155895499Y-52317065D01*
X155893954Y-52305336D01*
X155863409Y-52073323D01*
X155799778Y-51835847D01*
X155705694Y-51608708D01*
X155582767Y-51395792D01*
X155521030Y-51315335D01*
X155433102Y-51200745D01*
X155433096Y-51200738D01*
X155259261Y-51026903D01*
X155259254Y-51026897D01*
X155064212Y-50877236D01*
X155064211Y-50877235D01*
X155064208Y-50877233D01*
X154851292Y-50754306D01*
X154851285Y-50754303D01*
X154814488Y-50739061D01*
X154760085Y-50695220D01*
X154738020Y-50628926D01*
X154755299Y-50561227D01*
X154806436Y-50513616D01*
X154861941Y-50500500D01*
X165878059Y-50500500D01*
X165945098Y-50520185D01*
G37*
G04 #@! TD.AperFunction*
G04 #@! TA.AperFunction,Conductor*
G36*
X187445098Y-50520185D02*
G01*
X187490853Y-50572989D01*
X187500797Y-50642147D01*
X187471772Y-50705703D01*
X187425512Y-50739061D01*
X187388714Y-50754303D01*
X187388705Y-50754307D01*
X187175787Y-50877236D01*
X186980745Y-51026897D01*
X186980738Y-51026903D01*
X186806903Y-51200738D01*
X186806897Y-51200745D01*
X186657236Y-51395787D01*
X186534307Y-51608705D01*
X186534303Y-51608714D01*
X186440225Y-51835837D01*
X186440222Y-51835847D01*
X186376592Y-52073320D01*
X186376590Y-52073331D01*
X186344500Y-52317065D01*
X186344500Y-52562934D01*
X186371227Y-52765939D01*
X186376591Y-52806677D01*
X186440222Y-53044152D01*
X186440225Y-53044162D01*
X186534303Y-53271285D01*
X186534307Y-53271294D01*
X186657236Y-53484213D01*
X186698233Y-53537640D01*
X186723428Y-53602809D01*
X186709390Y-53671254D01*
X186660576Y-53721244D01*
X186592485Y-53736908D01*
X186526735Y-53713272D01*
X186512177Y-53700808D01*
X185478421Y-52667052D01*
X185478414Y-52667046D01*
X185404729Y-52617812D01*
X185404729Y-52617813D01*
X185355491Y-52584913D01*
X185218917Y-52528343D01*
X185218907Y-52528340D01*
X185073920Y-52499500D01*
X185073918Y-52499500D01*
X177789121Y-52499500D01*
X177641286Y-52499500D01*
X177641281Y-52499500D01*
X177543691Y-52518912D01*
X177474099Y-52512685D01*
X177418922Y-52469822D01*
X177395678Y-52403932D01*
X177395500Y-52397295D01*
X177395500Y-52317079D01*
X177395499Y-52317065D01*
X177393954Y-52305336D01*
X177363409Y-52073323D01*
X177299778Y-51835847D01*
X177205694Y-51608708D01*
X177082767Y-51395792D01*
X177021030Y-51315335D01*
X176933102Y-51200745D01*
X176933096Y-51200738D01*
X176759261Y-51026903D01*
X176759254Y-51026897D01*
X176564212Y-50877236D01*
X176564211Y-50877235D01*
X176564208Y-50877233D01*
X176351292Y-50754306D01*
X176351285Y-50754303D01*
X176314488Y-50739061D01*
X176260085Y-50695220D01*
X176238020Y-50628926D01*
X176255299Y-50561227D01*
X176306436Y-50513616D01*
X176361941Y-50500500D01*
X187378059Y-50500500D01*
X187445098Y-50520185D01*
G37*
G04 #@! TD.AperFunction*
G04 #@! TD*
M02*
